<svg width="19" height="19" viewBox="0 0 19 19" fill="none" xmlns="http://www.w3.org/2000/svg">
<g clip-path="url(#clip0_8065_48102)">
<path d="M1.23321 5.20776C1.07857 5.59435 1.00125 5.98095 1.00125 6.36755V15.8005C1.00125 17.3469 2.23836 18.584 3.78476 18.584H13.2177C14.7641 18.584 16.0013 17.3469 16.0013 15.8005V2.81085C16.0013 1.26446 14.7641 0.0273438 13.2177 0.0273438H7.34146C6.95486 0.0273438 6.56826 0.104663 6.18166 0.259302C5.87238 0.413942 5.64043 0.568581 5.40847 0.80054L1.85177 4.35724C1.61981 4.5892 1.38785 4.89848 1.23321 5.20776ZM7.4961 9.61497C7.72805 9.61497 8.03733 9.69229 8.26929 9.76961V5.13044C8.26929 4.82116 8.42393 4.51188 8.73321 4.43456C9.04249 4.27992 9.35177 4.35724 9.58372 4.5892L11.6714 6.67683C11.9806 6.98611 11.9806 7.45002 11.6714 7.7593C11.3621 8.06858 10.8982 8.06858 10.5889 7.7593L9.81568 6.98611V11.8572C9.81568 13.1717 8.73321 14.1768 7.4961 14.1768C6.18166 14.1768 5.17651 13.1717 5.17651 11.8572C5.17651 10.6201 6.18166 9.61497 7.4961 9.61497Z" fill="white"/>
</g>
<defs>
<clipPath id="clip0_8065_48102">
<rect width="18" height="18" fill="white" transform="translate(0.203857 0.521484)"/>
</clipPath>
</defs>
</svg>
