<svg width="20" height="20" viewBox="0 0 20 20" fill="none" xmlns="http://www.w3.org/2000/svg">
<g clip-path="url(#clip0_8223_49981)">
<path d="M2.25 5.58333C2.08333 6 2 6.41667 2 6.83333V17C2 18.6667 3.33333 20 5 20H15.1667C16.8333 20 18.1667 18.6667 18.1667 17V3C18.1667 1.33333 16.8333 0 15.1667 0H8.83333C8.41667 0 8 0.0833333 7.58333 0.25C7.25 0.416667 7 0.583333 6.75 0.833333L2.91667 4.66667C2.66667 4.91667 2.41667 5.25 2.25 5.58333ZM9 10.3333C9.25 10.3333 9.58333 10.4167 9.83333 10.5V5.5C9.83333 5.16667 10 4.83333 10.3333 4.75C10.6667 4.58333 11 4.66667 11.25 4.91667L13.5 7.16667C13.8333 7.5 13.8333 8 13.5 8.33333C13.1667 8.66667 12.6667 8.66667 12.3333 8.33333L11.5 7.5V12.75C11.5 14.1667 10.3333 15.25 9 15.25C7.58333 15.25 6.5 14.1667 6.5 12.75C6.5 11.4167 7.58333 10.3333 9 10.3333Z" fill="#87AAC1"/>
</g>
<defs>
<clipPath id="clip0_8223_49981">
<rect width="20" height="20" fill="white"/>
</clipPath>
</defs>
</svg>
