<svg width="46" height="45" viewBox="0 0 46 45" fill="none" xmlns="http://www.w3.org/2000/svg">
<g clip-path="url(#clip0_2282_33088)">
<path d="M22.6331 44.9961C35.0595 44.9961 45.1331 34.9225 45.1331 22.4961C45.1331 10.0697 35.0595 -0.00390625 22.6331 -0.00390625C10.2066 -0.00390625 0.133057 10.0697 0.133057 22.4961C0.133057 34.9225 10.2066 44.9961 22.6331 44.9961Z" fill="url(#paint0_linear_2282_33088)"/>
<path d="M22.633 -0.00390625C22.0387 -0.00390625 21.4499 0.0195643 20.8672 0.0647408C26.0321 0.465682 30.7069 2.61165 34.3053 5.91227L33.5155 6.70215C32.8128 7.40477 32.5287 8.42354 32.7662 9.38839L33.4807 12.2897L22.1762 23.5944L21.0888 22.5071V25.3417H21.0898C21.0949 25.73 21.2447 26.1168 21.5411 26.4132C21.8426 26.7147 22.2378 26.8654 22.633 26.8654C23.0282 26.8654 23.4235 26.7147 23.725 26.4132L34.8085 15.3295L37.7099 16.044C38.6747 16.2815 39.6935 15.9974 40.3961 15.2948L40.4162 15.2747C41.1839 17.5415 41.6015 19.9699 41.6015 22.4961C41.6015 34.3282 32.4683 44.0267 20.8673 44.9274C21.4499 44.9726 22.0387 44.9961 22.633 44.9961C35.0594 44.9961 45.133 34.9225 45.133 22.4961C45.133 10.0697 35.0594 -0.00390625 22.633 -0.00390625Z" fill="url(#paint1_linear_2282_33088)"/>
<path d="M22.6331 25.1418C24.0951 25.1418 25.2802 23.9566 25.2802 22.4947C25.2802 21.0328 24.0951 19.8477 22.6331 19.8477C21.1712 19.8477 19.9861 21.0328 19.9861 22.4947C19.9861 23.9566 21.1712 25.1418 22.6331 25.1418Z" fill="url(#paint2_linear_2282_33088)"/>
<path d="M22.6331 6.61328C13.8615 6.61328 6.75073 13.7241 6.75073 22.4956C6.75073 31.2672 13.8615 38.378 22.6331 38.378C31.4046 38.378 38.5154 31.2672 38.5154 22.4956C38.5154 13.7241 31.4046 6.61328 22.6331 6.61328ZM22.6331 31.7603C17.5163 31.7603 13.3684 27.6124 13.3684 22.4956C13.3684 17.3789 17.5163 13.2309 22.6331 13.2309C27.7498 13.2309 31.8978 17.3789 31.8978 22.4956C31.8978 27.6124 27.7498 31.7603 22.6331 31.7603Z" fill="#F2FBFF"/>
<path d="M22.1759 23.5941L21.0889 22.5062V24.645C21.523 24.9582 22.0568 25.1427 22.633 25.1427C24.095 25.1427 25.28 23.9577 25.28 22.4956C25.28 21.9291 25.1018 21.4032 24.7974 20.9727L22.1759 23.5941Z" fill="url(#paint3_linear_2282_33088)"/>
<path d="M33.0387 10.4961L33.4807 12.289L29.4978 16.272C30.2054 17.0529 30.7825 17.9555 31.1928 18.9446L34.8087 15.3287L37.0799 15.8882C36.1287 13.8111 34.7425 11.9749 33.0387 10.4961Z" fill="url(#paint4_linear_2282_33088)"/>
<path d="M44.1964 6.02958L40.1068 5.02255L39.0997 0.932935C38.8707 0.00266998 37.713 -0.320271 37.0355 0.357199L32.6597 4.73296C31.9571 5.43558 31.673 6.45435 31.9105 7.4192L33.0564 12.0728L37.71 13.2187C38.6749 13.4563 39.6937 13.1721 40.3963 12.4695L44.772 8.09376C45.4495 7.41629 45.1267 6.25864 44.1964 6.02958Z" fill="url(#paint5_linear_2282_33088)"/>
<path d="M44.1964 6.02958L40.1068 5.02255L39.0997 0.932935C38.8707 0.00266998 37.713 -0.320271 37.0355 0.357199L32.6597 4.73296C31.9571 5.43558 31.673 6.45435 31.9105 7.4192L33.0564 12.0728L37.71 13.2187C38.6749 13.4563 39.6937 13.1721 40.3963 12.4695L44.772 8.09376C45.4495 7.41629 45.1267 6.25864 44.1964 6.02958Z" fill="url(#paint6_linear_2282_33088)"/>
<path d="M44.1964 6.02957L40.1068 5.02254L39.0997 0.932918C38.8707 0.00265366 37.7131 -0.320199 37.0356 0.357095L34.5716 2.82115C33.869 3.52377 33.5848 4.54262 33.8224 5.50739L34.9683 10.161L39.6219 11.3069C40.5868 11.5444 41.6055 11.2603 42.3081 10.5577L44.7721 8.09374C45.4495 7.41627 45.1266 6.25862 44.1964 6.02957Z" fill="url(#paint7_linear_2282_33088)"/>
<path d="M44.1963 6.02957L40.1067 5.02254L39.0996 0.932919C38.8706 0.00274218 37.7131 -0.320199 37.0356 0.357007L36.4832 0.909448C35.7806 1.61207 35.4965 2.63083 35.734 3.59568L36.8799 8.2493L41.5335 9.39521C42.4984 9.63274 43.5171 9.34863 44.2198 8.64601L44.7719 8.09383C45.4494 7.41627 45.1265 6.25863 44.1963 6.02957Z" fill="url(#paint8_linear_2282_33088)"/>
<path d="M22.633 24.0398C22.2378 24.0398 21.8427 23.8891 21.5411 23.5876C20.9381 22.9846 20.9381 22.0069 21.5411 21.4039L38.9185 4.02647C39.5215 3.42347 40.4992 3.42347 41.1023 4.02647C41.7053 4.62947 41.7053 5.6072 41.1023 6.2102L23.7249 23.5876C23.4234 23.8891 23.0282 24.0398 22.633 24.0398Z" fill="url(#paint9_linear_2282_33088)"/>
</g>
<defs>
<linearGradient id="paint0_linear_2282_33088" x1="-0.925767" y1="22.4961" x2="44.616" y2="22.4961" gradientUnits="userSpaceOnUse">
<stop stop-color="#FE99A0"/>
<stop offset="0.593" stop-color="#FE646F"/>
<stop offset="1" stop-color="#E41F2D"/>
</linearGradient>
<linearGradient id="paint1_linear_2282_33088" x1="22.8639" y1="22.4961" x2="47.4806" y2="22.4961" gradientUnits="userSpaceOnUse">
<stop stop-color="#FE646F"/>
<stop offset="0.7043" stop-color="#E41F2D"/>
<stop offset="1" stop-color="#C41926"/>
</linearGradient>
<linearGradient id="paint2_linear_2282_33088" x1="6.66255" y1="22.4947" x2="38.0867" y2="22.4947" gradientUnits="userSpaceOnUse">
<stop stop-color="#F2FBFF"/>
<stop offset="0.593" stop-color="#FAF7F7"/>
<stop offset="1" stop-color="#F3EAE6"/>
</linearGradient>
<linearGradient id="paint3_linear_2282_33088" x1="18.3977" y1="23.0577" x2="38.176" y2="23.0577" gradientUnits="userSpaceOnUse">
<stop stop-color="#F3EAE6"/>
<stop offset="1" stop-color="#CDBFBA"/>
</linearGradient>
<linearGradient id="paint4_linear_2282_33088" x1="18.3978" y1="14.7204" x2="38.1761" y2="14.7204" gradientUnits="userSpaceOnUse">
<stop stop-color="#F3EAE6"/>
<stop offset="1" stop-color="#CDBFBA"/>
</linearGradient>
<linearGradient id="paint5_linear_2282_33088" x1="31.6332" y1="6.64855" x2="45.224" y2="6.64855" gradientUnits="userSpaceOnUse">
<stop stop-color="#FFF9DF"/>
<stop offset="0.593" stop-color="#FFE177"/>
<stop offset="1" stop-color="#FEB137"/>
</linearGradient>
<linearGradient id="paint6_linear_2282_33088" x1="30.6037" y1="6.64855" x2="45.5758" y2="6.64855" gradientUnits="userSpaceOnUse">
<stop stop-color="#FFF9DF"/>
<stop offset="0.593" stop-color="#FFE177"/>
<stop offset="1" stop-color="#FEB137"/>
</linearGradient>
<linearGradient id="paint7_linear_2282_33088" x1="30.6037" y1="5.69268" x2="42.4861" y2="5.69268" gradientUnits="userSpaceOnUse">
<stop stop-color="#FFF9DF"/>
<stop offset="0.593" stop-color="#FFE177"/>
<stop offset="1" stop-color="#FEB137"/>
</linearGradient>
<linearGradient id="paint8_linear_2282_33088" x1="30.6036" y1="4.73683" x2="40.0154" y2="4.73683" gradientUnits="userSpaceOnUse">
<stop stop-color="#FFF9DF"/>
<stop offset="0.593" stop-color="#FFE177"/>
<stop offset="1" stop-color="#FEB137"/>
</linearGradient>
<linearGradient id="paint9_linear_2282_33088" x1="21.0889" y1="13.807" x2="41.5545" y2="13.807" gradientUnits="userSpaceOnUse">
<stop stop-color="#01D0FB"/>
<stop offset="0.6075" stop-color="#26A6FE"/>
<stop offset="1" stop-color="#0182FC"/>
</linearGradient>
<clipPath id="clip0_2282_33088">
<rect width="45" height="45" fill="white" transform="translate(0.133057 -0.00390625)"/>
</clipPath>
</defs>
</svg>
