<svg width="13" height="19" viewBox="0 0 13 19" fill="none" xmlns="http://www.w3.org/2000/svg">
<path d="M6.5 19C3.22568 19 0.5625 16.3368 0.5625 13.0625V4.75C0.5625 4.31223 0.917213 3.95838 1.35412 3.95838C1.79117 3.95838 2.14588 4.31223 2.14588 4.75V13.0625C2.14588 15.4629 4.09891 17.4166 6.5 17.4166C8.90109 17.4166 10.8541 15.4629 10.8541 13.0625V4.35412C10.8541 2.82626 9.61124 1.58338 8.08338 1.58338C6.55537 1.58338 5.3125 2.82626 5.3125 4.35412V12.2709C5.3125 12.9255 5.84522 13.4584 6.5 13.4584C7.15478 13.4584 7.6875 12.9255 7.6875 12.2709V4.75C7.6875 4.31223 8.04221 3.95838 8.47912 3.95838C8.91617 3.95838 9.27088 4.31223 9.27088 4.75V12.2709C9.27088 13.7987 8.02786 15.0416 6.5 15.0416C4.97214 15.0416 3.72912 13.7987 3.72912 12.2709V4.35412C3.72912 1.9539 5.68214 0 8.08338 0C10.4845 0 12.4375 1.9539 12.4375 4.35412V13.0625C12.4375 16.3368 9.77432 19 6.5 19Z" fill="#606770"/>
</svg>
