<svg width="14" height="16" viewBox="0 0 14 16" fill="none" xmlns="http://www.w3.org/2000/svg">
<path d="M2.34157 12.6622H12.8666C12.8988 12.6622 12.93 12.6576 12.9601 12.6505C12.9624 12.6505 12.9644 12.6509 12.9668 12.6509C13.1915 12.6509 13.374 12.4686 13.374 12.2438V0.739087C13.3741 0.514391 13.1915 0.332031 12.9668 0.332031H12.8674H2.99283H2.34214C1.25826 0.332031 0.37663 1.21353 0.37663 2.29669C0.37663 2.31122 0.379489 2.32501 0.380902 2.33903C0.379489 3.3396 0.367076 12.5336 0.379489 13.7423C0.378716 13.7659 0.375823 13.789 0.375823 13.8129C0.375823 14.8544 1.19166 15.707 2.21784 15.7715C2.23843 15.7746 2.25861 15.7776 2.27997 15.7776H12.9668C13.1915 15.7776 13.374 15.5954 13.374 15.3706V13.8383C13.374 13.6137 13.1914 13.4313 12.9668 13.4313C12.7421 13.4313 12.5596 13.6137 12.5596 13.8383V14.9635H2.34157C1.72276 14.9635 1.21763 14.4724 1.1928 13.86C1.19341 13.8491 1.19539 13.8387 1.19519 13.8276C1.19478 13.8097 1.19418 13.7819 1.19378 13.7449C1.22937 13.1422 1.72983 12.6622 2.34157 12.6622ZM2.61923 2.29669C2.61923 2.072 2.80166 1.88964 3.02644 1.88964C3.25122 1.88964 3.43365 2.072 3.43365 2.29669V10.5651C3.43365 10.7897 3.25122 10.9721 3.02644 10.9721C2.80166 10.9721 2.61923 10.7896 2.61923 10.5651V2.29669Z" fill="url(#paint0_linear_3889_40487)"/>
<defs>
<linearGradient id="paint0_linear_3889_40487" x1="6.87402" y1="0.332031" x2="6.87402" y2="15.7776" gradientUnits="userSpaceOnUse">
<stop stop-color="#8775FB"/>
<stop offset="1" stop-color="#4930EC" stop-opacity="0.28"/>
</linearGradient>
</defs>
</svg>
