<svg width="16" height="16" viewBox="0 0 16 16" fill="none" xmlns="http://www.w3.org/2000/svg">
<path fill-rule="evenodd" clip-rule="evenodd" d="M5.32527 1.36062H10.6746C11.3032 1.3285 11.9191 1.53912 12.3865 1.94599C12.8539 2.35287 13.1343 2.92256 13.1659 3.52932V13.9007C13.1668 14.1084 13.0769 14.3068 12.9183 14.4473C12.7598 14.5877 12.5472 14.6571 12.3329 14.6384C12.1451 14.6384 11.9625 14.5788 11.8133 14.4687L8.50432 12.0418C8.19185 11.8156 7.7622 11.8156 7.44973 12.0418L4.17133 14.4687C4.02626 14.5757 3.84953 14.6352 3.66696 14.6384C3.45266 14.6571 3.24012 14.5877 3.08156 14.4473C2.923 14.3068 2.83312 14.1084 2.83399 13.9007V3.52932C2.8656 2.92256 3.14604 2.35287 3.61344 1.94599C4.08083 1.53912 4.69676 1.3285 5.32527 1.36062Z" fill="#D95C07"/>
</svg>
