<svg width="122" height="122" viewBox="0 0 122 122" fill="none" xmlns="http://www.w3.org/2000/svg">
<path d="M41.2557 4.40918L41.3584 59.1923L71.9374 76.9629L71.8348 22.1798L41.2557 4.40918Z" fill="#77CB77"/>
<path d="M64.8551 27.6437L64.9578 82.4267L74.4149 76.9667L74.3122 22.1836L64.8551 27.6437Z" fill="#5FAF5F"/>
<path d="M35.5229 10.5934L64.8632 27.6441L71.8348 23.6191L42.4945 6.56836L35.5229 10.5934Z" fill="white"/>
<path d="M33.0377 9.15343L64.8551 27.6437L74.3122 22.1836L42.4948 3.69336L41.2558 4.40872L42.4946 5.12861L71.8348 22.1793L64.8633 26.2043L35.523 9.15364L34.2842 8.43375L33.0377 9.15343Z" fill="#96D696"/>
<path d="M33.0377 9.15332L33.1404 63.9364L64.9578 82.4267L64.8551 27.6436L33.0377 9.15332Z" fill="#77CB77"/>
<path d="M59.4682 24.5341L59.4269 41.2256L56.872 36.9793L54.3104 38.2716L54.3517 21.5801L59.4682 24.5341Z" fill="#CEE8FA"/>
<path d="M25.9725 13.2334L26.0752 68.0165L56.6542 85.7871L56.5516 31.004L25.9725 13.2334Z" fill="#FEBB61"/>
<path d="M49.5718 36.4679L49.6744 91.251L59.1316 85.7909L59.0289 31.0078L49.5718 36.4679Z" fill="#EFA143"/>
<path d="M20.2396 19.4176L49.5799 36.4683L56.5515 32.4433L27.2112 15.3926L20.2396 19.4176Z" fill="white"/>
<path d="M17.7544 17.9777L49.5718 36.4679L59.0289 31.0078L27.2115 12.5176L25.9725 13.2329L27.2112 13.9528L56.5515 31.0035L49.58 35.0286L20.2397 17.9779L19.0009 17.258L17.7544 17.9777Z" fill="#FFDD94"/>
<path d="M17.7544 17.9775L17.8571 72.7606L49.6745 91.2509L49.5718 36.4678L17.7544 17.9775Z" fill="#FEBB61"/>
<path d="M44.1849 33.3573L44.1436 50.0489L41.5887 45.8025L39.0271 47.0948L39.0684 30.4033L44.1849 33.3573Z" fill="#CEE8FA"/>
<path d="M10.6892 22.0566L10.7919 76.8397L41.3709 94.6103L41.2682 39.8272L10.6892 22.0566Z" fill="#5793FB"/>
<path d="M34.2885 45.2911L34.3911 100.074L43.8482 94.6141L43.7456 39.8311L34.2885 45.2911Z" fill="#3A53D0"/>
<path d="M4.9563 28.2408L34.2966 45.2916L41.2681 41.2665L11.9279 24.2158L4.9563 28.2408Z" fill="white"/>
<path d="M2.47107 26.8009L34.2885 45.2911L43.7456 39.8311L11.9282 21.3408L10.6891 22.0562L11.9279 22.7761L41.2682 39.8268L34.2966 43.8518L4.95636 26.8011L3.71759 26.0812L2.47107 26.8009Z" fill="#7BB1FF"/>
<path d="M2.47107 26.8008L2.57374 81.5839L34.3911 100.074L34.2885 45.291L2.47107 26.8008Z" fill="#5793FB"/>
<path d="M17.5808 93.3306L78.4226 58.0107L118.05 80.4666L57.2082 115.786L17.5808 93.3306Z" fill="#FE91AB"/>
<path d="M58.6202 106.731L119.462 71.4111L119.529 82.988L58.6871 118.308L58.6202 106.731Z" fill="#E34454"/>
<path d="M20.4685 85.1172L58.6252 106.74L58.6745 114.93L20.5178 93.3078L20.4685 85.1172Z" fill="#CEE8FA"/>
<path d="M17.5227 83.4424L58.6203 106.731L58.6872 118.308L17.5896 95.0192L17.5808 93.3312L19.0515 94.1646L57.2082 115.787L57.1589 107.596L19.0022 85.974L17.5315 85.1406L17.5227 83.4424Z" fill="#ED5D71"/>
<path d="M17.5227 83.4419L78.3645 48.1221L119.462 71.411L58.6203 106.731L17.5227 83.4419Z" fill="#FE91AB"/>
<path d="M27.9004 77.417L26.5133 78.2211L67.611 101.51L68.998 100.705L27.9004 77.417Z" fill="#ED5D71"/>
<path d="M24.1176 79.6133L20.8918 81.485L61.9895 104.774L65.2153 102.901L24.1176 79.6133Z" fill="#ED5D71"/>
<path d="M92.1743 60.2058L79.5414 52.9115C78.9869 52.5916 78.3037 52.5916 77.7501 52.9139L70.8772 56.9081C70.2835 57.2533 70.2847 58.1115 70.8793 58.4543L83.5122 65.7486C84.0667 66.0685 84.75 66.0673 85.3035 65.745L92.1765 61.7508C92.7701 61.4068 92.7689 60.5486 92.1743 60.2058Z" fill="#CEE8FA"/>
<path d="M68.0113 111.01C69.6208 110.07 70.9327 107.79 70.9179 105.904C70.9137 104.966 70.58 104.295 70.0375 103.995C69.7716 103.841 69.4064 103.644 69.1341 103.479C69.683 103.79 70.0102 104.451 70.0209 105.4C70.0298 107.275 68.7237 109.566 67.1079 110.495C66.2973 110.969 65.5727 111.01 65.0472 110.715L65.9443 111.219C66.4761 111.525 67.2007 111.484 68.0113 111.01Z" fill="#FE91AB"/>
<path d="M67.9668 103.522C69.9145 102.392 71.5009 103.299 71.5126 105.562C71.5244 107.825 69.9569 110.573 68.0093 111.704C66.0621 112.834 64.483 111.913 64.4713 109.65C64.4595 107.387 66.0196 104.653 67.9668 103.522ZM70.9171 105.908C70.9074 104.028 69.5879 103.266 67.9703 104.205C66.3528 105.144 65.0491 107.429 65.0589 109.309C65.0687 111.188 66.3881 111.951 68.0057 111.012C69.6233 110.073 70.9269 107.787 70.9171 105.908Z" fill="#ED5D71"/>
<path d="M65.0587 109.309C65.0634 110.079 65.2958 110.649 65.6705 111.004C66.1289 111.08 66.6695 110.97 67.2518 110.632C68.87 109.693 70.1733 107.407 70.1634 105.528C70.1596 104.757 69.9271 104.187 69.5516 103.833C69.0941 103.756 68.5525 103.867 67.9703 104.205C66.353 105.144 65.0487 107.429 65.0587 109.309Z" fill="#373F51"/>
<path d="M117.098 74.9375L115.234 76.0188V83.3282L117.143 82.2196L117.098 74.9375Z" fill="#CEE8FA"/>
<path d="M110.961 78.4994V85.8077L112.87 84.6991L112.825 77.417L110.961 78.4994Z" fill="#CEE8FA"/>
<path d="M106.688 80.9799V88.2881L108.597 87.1795L108.552 79.8975L106.688 80.9799Z" fill="#CEE8FA"/>
<path d="M102.415 83.4614V90.7696L104.324 89.661L104.28 82.3789L102.415 83.4614Z" fill="#CEE8FA"/>
<path d="M28.9016 42.1816L28.8603 58.8731L26.3053 54.6268L23.7438 55.9191L23.7851 39.2275L28.9016 42.1816Z" fill="#CEE8FA"/>
<path d="M55.5981 20.8604L54.3517 21.5798L59.4682 24.5338L60.7145 23.8144L55.5981 20.8604Z" fill="#CEE8FA"/>
<path d="M40.3148 29.6836L39.0684 30.403L44.1849 33.357L45.4312 32.6376L40.3148 29.6836Z" fill="#CEE8FA"/>
<path d="M25.0315 38.5078L23.785 39.2272L28.9016 42.1812L30.1479 41.4618L25.0315 38.5078Z" fill="#CEE8FA"/>
</svg>
