<svg width="17" height="17" viewBox="0 0 17 17" fill="none" xmlns="http://www.w3.org/2000/svg">
<path fill-rule="evenodd" clip-rule="evenodd" d="M6.07527 2.16531H11.4246C12.0532 2.13319 12.6691 2.34381 13.1365 2.75068C13.6039 3.15756 13.8843 3.72724 13.9159 4.33401V14.7054C13.9168 14.9131 13.8269 15.1115 13.6683 15.2519C13.5098 15.3924 13.2972 15.4617 13.0829 15.4431C12.8951 15.4431 12.7125 15.3834 12.5633 15.2734L9.25432 12.8465C8.94185 12.6203 8.5122 12.6203 8.19973 12.8465L4.92133 15.2734C4.77626 15.3804 4.59953 15.4399 4.41696 15.4431C4.20266 15.4617 3.99012 15.3924 3.83156 15.2519C3.673 15.1115 3.58312 14.9131 3.58399 14.7054V4.33401C3.6156 3.72724 3.89604 3.15756 4.36344 2.75068C4.83084 2.34381 5.44676 2.13319 6.07527 2.16531ZM9.96503 11.9687L12.7543 14.0341L12.7391 4.33401C12.6667 3.69089 12.0774 3.22009 11.4094 3.27179H6.05999C5.39196 3.22009 4.8026 3.69089 4.73028 4.33401V14.0341L7.5196 11.9687C8.24186 11.4375 9.24277 11.4375 9.96503 11.9687Z" fill="#606770"/>
</svg>
