<svg width="21" height="21" viewBox="0 0 21 21" fill="none" xmlns="http://www.w3.org/2000/svg">
<path fill-rule="evenodd" clip-rule="evenodd" d="M7.03842 2.66806H13.7251C14.5108 2.62791 15.2807 2.89118 15.8649 3.39978C16.4492 3.90837 16.7997 4.62048 16.8392 5.37894V18.3432C16.8403 18.6028 16.728 18.8508 16.5298 19.0264C16.3316 19.2019 16.0659 19.2886 15.798 19.2652C15.5633 19.2653 15.335 19.1907 15.1484 19.0532L11.0122 16.0196C10.6217 15.7368 10.0846 15.7368 9.694 16.0196L5.596 19.0532C5.41466 19.187 5.19375 19.2613 4.96554 19.2652C4.69766 19.2886 4.43199 19.2019 4.23379 19.0264C4.03559 18.8508 3.92323 18.6028 3.92432 18.3432V5.37894C3.96383 4.62048 4.31439 3.90837 4.89863 3.39978C5.48288 2.89118 6.25278 2.62791 7.03842 2.66806ZM11.9006 14.9223L15.3873 17.5041L15.3682 5.37894C15.2778 4.57504 14.5411 3.98654 13.706 4.05116H7.01932C6.18429 3.98654 5.44759 4.57504 5.35719 5.37894V17.5041L8.84383 14.9223C9.74666 14.2583 10.9978 14.2583 11.9006 14.9223Z" fill="white"/>
</svg>
