<svg width="22" height="21" viewBox="0 0 22 21" fill="none" xmlns="http://www.w3.org/2000/svg">
<path d="M16.8372 0.0898438H5.16265C2.65522 0.0898438 0.622559 2.12251 0.622559 4.62994V16.3045C0.622559 18.8119 2.65522 20.8446 5.16265 20.8446H16.8372C19.3446 20.8446 21.3773 18.8119 21.3773 16.3045V4.62994C21.3773 2.12251 19.3446 0.0898438 16.8372 0.0898438ZM20.0801 16.3045C20.0801 18.0955 18.6282 19.5474 16.8372 19.5474H5.16265C3.37163 19.5474 1.91973 18.0955 1.91973 16.3045V4.62994C1.91973 2.83891 3.37163 1.38701 5.16265 1.38701H16.8372C18.6282 1.38701 20.0801 2.83891 20.0801 4.62994V16.3045Z" fill="white"/>
<path d="M7.0273 4.63086H5.73013C5.37191 4.63086 5.08154 4.92122 5.08154 5.27944V6.57661C5.08154 6.93484 5.37191 7.2252 5.73013 7.2252H7.0273C7.38552 7.2252 7.67588 6.93484 7.67588 6.57661V5.27944C7.67588 4.92122 7.38552 4.63086 7.0273 4.63086Z" fill="white"/>
<path d="M7.0273 9.17188H5.73013C5.37191 9.17188 5.08154 9.46224 5.08154 9.82046V11.1176C5.08154 11.4759 5.37191 11.7662 5.73013 11.7662H7.0273C7.38552 11.7662 7.67588 11.4759 7.67588 11.1176V9.82046C7.67588 9.46224 7.38552 9.17188 7.0273 9.17188Z" fill="white"/>
<path d="M7.0273 13.7109H5.73013C5.37191 13.7109 5.08154 14.0013 5.08154 14.3595V15.6567C5.08154 16.0149 5.37191 16.3053 5.73013 16.3053H7.0273C7.38552 16.3053 7.67588 16.0149 7.67588 15.6567V14.3595C7.67588 14.0013 7.38552 13.7109 7.0273 13.7109Z" fill="white"/>
<path d="M11.6484 4.63086H10.3512C9.993 4.63086 9.70264 4.92122 9.70264 5.27944V6.57661C9.70264 6.93484 9.993 7.2252 10.3512 7.2252H11.6484C12.0066 7.2252 12.297 6.93484 12.297 6.57661V5.27944C12.297 4.92122 12.0066 4.63086 11.6484 4.63086Z" fill="white"/>
<path d="M11.6484 9.17188H10.3512C9.993 9.17188 9.70264 9.46224 9.70264 9.82046V11.1176C9.70264 11.4759 9.993 11.7662 10.3512 11.7662H11.6484C12.0066 11.7662 12.297 11.4759 12.297 11.1176V9.82046C12.297 9.46224 12.0066 9.17188 11.6484 9.17188Z" fill="white"/>
<path d="M11.6484 13.7109H10.3512C9.993 13.7109 9.70264 14.0013 9.70264 14.3595V15.6567C9.70264 16.0149 9.993 16.3053 10.3512 16.3053H11.6484C12.0066 16.3053 12.297 16.0149 12.297 15.6567V14.3595C12.297 14.0013 12.0066 13.7109 11.6484 13.7109Z" fill="white"/>
<path d="M16.2695 4.63086H14.9723C14.6141 4.63086 14.3237 4.92122 14.3237 5.27944V6.57661C14.3237 6.93484 14.6141 7.2252 14.9723 7.2252H16.2695C16.6277 7.2252 16.9181 6.93484 16.9181 6.57661V5.27944C16.9181 4.92122 16.6277 4.63086 16.2695 4.63086Z" fill="white"/>
<path d="M16.2695 9.17188H14.9723C14.6141 9.17188 14.3237 9.46224 14.3237 9.82046V11.1176C14.3237 11.4759 14.6141 11.7662 14.9723 11.7662H16.2695C16.6277 11.7662 16.9181 11.4759 16.9181 11.1176V9.82046C16.9181 9.46224 16.6277 9.17188 16.2695 9.17188Z" fill="white"/>
<path d="M16.2695 13.7109H14.9723C14.6141 13.7109 14.3237 14.0013 14.3237 14.3595V15.6567C14.3237 16.0149 14.6141 16.3053 14.9723 16.3053H16.2695C16.6277 16.3053 16.9181 16.0149 16.9181 15.6567V14.3595C16.9181 14.0013 16.6277 13.7109 16.2695 13.7109Z" fill="white"/>
</svg>
