<svg width="18" height="20" viewBox="0 0 18 20" fill="none" xmlns="http://www.w3.org/2000/svg">
<path d="M17.3217 9.18881C17.3212 10.4752 17.0326 11.7444 16.478 12.8983C15.9235 14.0523 15.1179 15.0602 14.1234 15.8445C13.1288 16.6287 11.9719 17.1682 10.7418 17.4215C9.51171 17.6747 8.24132 17.6349 7.02861 17.3051L3.71381 19.2679C3.54656 19.3669 3.35442 19.4129 3.16169 19.3999C2.96896 19.387 2.78431 19.3158 2.63108 19.1952C2.47785 19.0746 2.36293 18.9102 2.30085 18.7227C2.23877 18.5352 2.23233 18.333 2.28233 18.1417L3.1295 14.9013C1.72654 13.3465 0.945917 11.307 0.942963 9.18881C0.942963 4.55745 4.61645 0.789917 9.13215 0.789917C13.6479 0.789917 17.3217 4.55745 17.3217 9.18881ZM6.85539 9.18881C6.85539 8.92328 6.75251 8.66862 6.56939 8.48087C6.38627 8.29311 6.13791 8.18762 5.87894 8.18762H5.87731C5.68426 8.18799 5.49565 8.24703 5.33532 8.35726C5.17498 8.4675 5.05011 8.62399 4.97648 8.80696C4.90286 8.98994 4.88378 9.19119 4.92166 9.38528C4.95954 9.57936 5.05269 9.75758 5.18932 9.89741C5.32595 10.0372 5.49994 10.1324 5.6893 10.1709C5.87867 10.2094 6.07491 10.1894 6.25322 10.1136C6.43154 10.0378 6.58393 9.90945 6.69115 9.74485C6.79836 9.58024 6.85539 9.38675 6.85539 9.18881ZM10.1088 9.18881C10.1087 9.15604 10.107 9.12329 10.1036 9.0907C10.1005 9.05798 10.0958 9.02545 10.0893 8.99325C10.0835 8.96117 10.0757 8.92951 10.0658 8.89847C10.0568 8.86709 10.0457 8.83639 10.034 8.80569C10.0223 8.77499 10.008 8.74629 9.993 8.71759C9.97812 8.68872 9.96183 8.66065 9.94417 8.63348C9.92638 8.60603 9.90723 8.57952 9.88682 8.55406C9.86676 8.52854 9.84526 8.50425 9.82244 8.48131C9.80031 8.45794 9.77622 8.43592 9.75149 8.41456C9.72668 8.39454 9.70064 8.37451 9.67395 8.35649C9.64748 8.33839 9.62013 8.32168 9.592 8.30643C9.56394 8.29108 9.53471 8.27706 9.50535 8.26438C9.47604 8.2518 9.44607 8.24088 9.41559 8.23168C9.3547 8.21163 9.29181 8.19864 9.22811 8.19296C9.13247 8.18352 9.036 8.18824 8.94168 8.20698C8.91028 8.21355 8.87923 8.2218 8.84866 8.23168C8.81814 8.24086 8.78815 8.25177 8.75882 8.26438C8.72953 8.27706 8.70023 8.29108 8.67224 8.30643C8.64425 8.32178 8.61691 8.33847 8.59016 8.35649C8.5634 8.37451 8.53743 8.39454 8.51341 8.41456C8.48802 8.43592 8.46458 8.45794 8.4418 8.48131C8.41895 8.50427 8.39741 8.52856 8.37729 8.55406C8.35713 8.57953 8.33825 8.60604 8.32072 8.63348C8.30283 8.66063 8.28632 8.6887 8.27125 8.71759C8.25622 8.74618 8.24273 8.77559 8.23082 8.80569C8.21846 8.83604 8.2076 8.867 8.19827 8.89847C8.18923 8.92917 8.18141 8.96121 8.1749 8.99325C8.16847 9.02545 8.16367 9.05798 8.16052 9.0907C8.15733 9.1234 8.15596 9.15611 8.15596 9.18881C8.15596 9.22152 8.15733 9.25489 8.16052 9.28759C8.16372 9.32008 8.16852 9.35238 8.1749 9.38438C8.18141 9.41641 8.18923 9.44845 8.19827 9.47982C8.2076 9.51107 8.21847 9.54181 8.23082 9.57193C8.24273 9.60225 8.25622 9.63188 8.27125 9.6607C8.28615 9.6894 8.30314 9.71744 8.32072 9.7448C8.33825 9.77203 8.35714 9.79832 8.37729 9.82356C8.39758 9.84913 8.41911 9.87364 8.4418 9.89698C8.46458 9.91968 8.48802 9.94237 8.51341 9.96306C8.53789 9.9839 8.56351 10.0033 8.59016 10.0211C8.61691 10.0392 8.64419 10.0565 8.67224 10.0719C8.72878 10.1021 8.78781 10.1271 8.84866 10.1466C8.87919 10.156 8.91043 10.164 8.94168 10.1706C9.00444 10.1838 9.06835 10.1903 9.13241 10.19C9.39108 10.1893 9.63903 10.084 9.82244 9.89698C9.86744 9.85015 9.90818 9.79921 9.94417 9.7448C9.96175 9.71744 9.97802 9.6894 9.993 9.6607C10.008 9.632 10.0216 9.60197 10.034 9.57193C10.0464 9.5419 10.0568 9.51053 10.0658 9.47982C10.0756 9.44853 10.0834 9.41666 10.0893 9.38438C10.0957 9.35239 10.1005 9.32008 10.1036 9.28759C10.1069 9.25473 10.1088 9.22185 10.1088 9.18881ZM13.3636 9.18881C13.3636 8.92328 13.2608 8.66862 13.0776 8.48087C12.8945 8.29311 12.6462 8.18762 12.3872 8.18762H12.3853C12.1923 8.18801 12.0037 8.24705 11.8433 8.35729C11.683 8.46754 11.5581 8.62404 11.4845 8.80701C11.4109 8.98999 11.3918 9.19123 11.4297 9.38532C11.4676 9.5794 11.5608 9.75761 11.6974 9.89744C11.834 10.0373 12.008 10.1324 12.1974 10.1709C12.3868 10.2094 12.583 10.1894 12.7613 10.1136C12.9396 10.0378 13.092 9.90944 13.1992 9.74484C13.3064 9.58024 13.3636 9.38674 13.3636 9.18881Z" fill="white"/>
</svg>
