<svg width="47" height="47" viewBox="0 0 47 47" fill="none" xmlns="http://www.w3.org/2000/svg">
<g clip-path="url(#clip0_2282_32995)">
<path d="M23.6025 46.7637C36.3051 46.7637 46.6025 36.4662 46.6025 23.7637C46.6025 11.0611 36.3051 0.763672 23.6025 0.763672C10.9 0.763672 0.602539 11.0611 0.602539 23.7637C0.602539 36.4662 10.9 46.7637 23.6025 46.7637Z" fill="#EAB14D"/>
<path d="M23.6025 0.763672C23.1919 0.763672 22.7839 0.774902 22.3787 0.796105C34.5122 1.43238 44.1549 11.4717 44.1549 23.7637C44.1549 36.0556 34.5122 46.095 22.3787 46.7312C22.7839 46.7524 23.1919 46.7637 23.6025 46.7637C36.3051 46.7637 46.6025 36.4662 46.6025 23.7637C46.6025 11.0611 36.3051 0.763672 23.6025 0.763672Z" fill="#E49542"/>
<path d="M23.6026 41.6871C33.501 41.6871 41.5253 33.6629 41.5253 23.7645C41.5253 13.866 33.501 5.8418 23.6026 5.8418C13.7042 5.8418 5.67993 13.866 5.67993 23.7645C5.67993 33.6629 13.7042 41.6871 23.6026 41.6871Z" fill="#F4FBFF"/>
<path d="M23.6025 5.8418C23.1062 5.8418 22.6148 5.86291 22.1287 5.90244C31.3376 6.6521 38.5775 14.3624 38.5775 23.7645C38.5775 33.1665 31.3376 40.8767 22.1287 41.6265C22.6148 41.6661 23.1062 41.6872 23.6025 41.6872C33.501 41.6872 41.5252 33.6629 41.5252 23.7645C41.5252 13.8662 33.501 5.8418 23.6025 5.8418Z" fill="#DAF1F4"/>
<path d="M23.6026 11.3563C23.2192 11.3563 22.9084 11.0455 22.9084 10.6622V9.64335C22.9084 9.25999 23.2192 8.94922 23.6026 8.94922C23.9859 8.94922 24.2968 9.25999 24.2968 9.64335V10.6622C24.2968 11.0455 23.9859 11.3563 23.6026 11.3563Z" fill="#2B4D66"/>
<path d="M32.8282 15.2083C32.6505 15.2083 32.4729 15.1405 32.3373 15.005C32.0663 14.7339 32.0663 14.2945 32.3374 14.0233L33.0579 13.3029C33.3289 13.0318 33.7684 13.0319 34.0396 13.3029C34.3106 13.5741 34.3106 14.0135 34.0395 14.2847L33.319 15.0051C33.1835 15.1405 33.0058 15.2083 32.8282 15.2083Z" fill="#2B4D66"/>
<path d="M37.6466 24.4566H36.6277C36.2443 24.4566 35.9336 24.1459 35.9336 23.7625C35.9336 23.3791 36.2444 23.0684 36.6277 23.0684H37.6466C38.03 23.0684 38.3407 23.3791 38.3407 23.7625C38.3407 24.1459 38.0299 24.4566 37.6466 24.4566Z" fill="#2B4D66"/>
<path d="M33.4951 34.4036C33.3175 34.4036 33.1398 34.3358 33.0042 34.2003L32.2839 33.48C32.0128 33.2088 32.0128 32.7694 32.2839 32.4981C32.555 32.2272 32.9944 32.2272 33.2657 32.4981L33.986 33.2185C34.2571 33.4897 34.2571 33.9291 33.986 34.2003C33.8505 34.3358 33.6728 34.4036 33.4951 34.4036Z" fill="#2B4D66"/>
<path d="M23.5269 38.5008C23.1435 38.5008 22.8328 38.1901 22.8328 37.8067V36.7879C22.8328 36.4044 23.1435 36.0938 23.5269 36.0938C23.9103 36.0938 24.221 36.4045 24.221 36.7879V37.8067C24.221 38.1901 23.9103 38.5008 23.5269 38.5008Z" fill="#2B4D66"/>
<path d="M13.5806 34.349C13.403 34.349 13.2253 34.2811 13.0898 34.1456C12.8187 33.8745 12.8187 33.435 13.0898 33.1639L13.8103 32.4435C14.0814 32.1725 14.5208 32.1724 14.792 32.4436C15.063 32.7146 15.063 33.1541 14.7919 33.4253L14.0714 34.1457C13.936 34.2812 13.7582 34.349 13.5806 34.349Z" fill="#2B4D66"/>
<path d="M10.5018 24.3805H9.48295C9.09959 24.3805 8.78882 24.0697 8.78882 23.6863C8.78882 23.303 9.09959 22.9922 9.48295 22.9922H10.5018C10.8851 22.9922 11.1959 23.303 11.1959 23.6863C11.196 24.0697 10.8851 24.3805 10.5018 24.3805Z" fill="#2B4D66"/>
<path d="M14.3546 15.1556C14.1769 15.1556 13.9993 15.0879 13.8637 14.9523L13.1433 14.2319C12.8722 13.9608 12.8721 13.5214 13.1432 13.2502C13.4143 12.9792 13.8538 12.9791 14.1249 13.2501L14.8454 13.9706C15.1164 14.2416 15.1165 14.6812 14.8455 14.9523C14.7098 15.0878 14.5322 15.1556 14.3546 15.1556Z" fill="#2B4D66"/>
<path d="M23.6026 24.4588H17.7071C17.3237 24.4588 17.0129 24.1479 17.0129 23.7646C17.0129 23.3812 17.3237 23.0704 17.7071 23.0704H22.9084V14.2391C22.9084 13.8557 23.2192 13.5449 23.6025 13.5449C23.9859 13.5449 24.2967 13.8557 24.2967 14.2391V23.7646C24.2968 24.1479 23.986 24.4588 23.6026 24.4588Z" fill="#2B4D66"/>
<path d="M30.724 28.1194C30.6171 28.1194 30.5088 28.0946 30.4072 28.0424L23.2851 24.38C22.9441 24.2047 22.8099 23.7862 22.9852 23.4453C23.1605 23.1043 23.5789 22.97 23.92 23.1454L31.0421 26.8077C31.383 26.983 31.5174 27.4015 31.342 27.7424C31.2188 27.9818 30.9759 28.1194 30.724 28.1194Z" fill="#DA4A54"/>
<path d="M23.6025 25.6157C24.6258 25.6157 25.4553 24.7862 25.4553 23.7629C25.4553 22.7397 24.6258 21.9102 23.6025 21.9102C22.5793 21.9102 21.7498 22.7397 21.7498 23.7629C21.7498 24.7862 22.5793 25.6157 23.6025 25.6157Z" fill="#365E7D"/>
</g>
<defs>
<clipPath id="clip0_2282_32995">
<rect width="46" height="46" fill="white" transform="translate(0.602539 0.763672)"/>
</clipPath>
</defs>
</svg>
