<svg width="30" height="30" viewBox="0 0 30 30" fill="none" xmlns="http://www.w3.org/2000/svg">
<circle cx="15" cy="15" r="14.5" fill="white" stroke="#DFE5EB"/>
<g clip-path="url(#clip0_2749_8958)">
<path d="M15.5801 15L20.1299 10.4502C20.2901 10.29 20.2901 10.0303 20.1299 9.87014C19.9697 9.70997 19.71 9.70995 19.5498 9.87014L15 14.42L10.4502 9.87014C10.29 9.70995 10.0303 9.70995 9.87014 9.87014C9.70997 10.0303 9.70995 10.29 9.87014 10.4502L14.4199 15L9.87014 19.5498C9.70995 19.71 9.70995 19.9697 9.87014 20.1299C9.95022 20.21 10.0552 20.25 10.1602 20.25C10.2652 20.25 10.3701 20.21 10.4502 20.1299L15 15.5801L19.5498 20.1299C19.6299 20.21 19.7348 20.25 19.8398 20.25C19.9448 20.25 20.0498 20.21 20.1299 20.1299C20.2901 19.9697 20.2901 19.71 20.1299 19.5498L15.5801 15Z" fill="#1C1E21"/>
</g>
<defs>
<clipPath id="clip0_2749_8958">
<rect width="10.5" height="10.5" fill="white" transform="translate(9.75 9.75)"/>
</clipPath>
</defs>
</svg>
