<svg width="22" height="22" viewBox="0 0 22 22" fill="none" xmlns="http://www.w3.org/2000/svg">
<path d="M0 11C0 4.92487 4.92487 0 11 0C17.0751 0 22 4.92487 22 11C22 17.0751 17.0751 22 11 22C4.92487 22 0 17.0751 0 11Z" fill="#FF7D75"/>
<g clip-path="url(#clip0_7650_49845)">
<path d="M12.0575 11L15.2825 7.78252C15.4237 7.64129 15.5031 7.44974 15.5031 7.25002C15.5031 7.05029 15.4237 6.85874 15.2825 6.71752C15.1413 6.57629 14.9497 6.49695 14.75 6.49695C14.5503 6.49695 14.3587 6.57629 14.2175 6.71752L11 9.94252L7.78252 6.71752C7.64129 6.57629 7.44974 6.49695 7.25002 6.49695C7.05029 6.49695 6.85874 6.57629 6.71752 6.71752C6.57629 6.85874 6.49695 7.05029 6.49695 7.25002C6.49695 7.44974 6.57629 7.64129 6.71752 7.78252L9.94252 11L6.71752 14.2175C6.64722 14.2872 6.59142 14.3702 6.55335 14.4616C6.51527 14.553 6.49567 14.651 6.49567 14.75C6.49567 14.849 6.51527 14.9471 6.55335 15.0385C6.59142 15.1298 6.64722 15.2128 6.71752 15.2825C6.78724 15.3528 6.87019 15.4086 6.96158 15.4467C7.05298 15.4848 7.15101 15.5044 7.25002 15.5044C7.34902 15.5044 7.44705 15.4848 7.53845 15.4467C7.62984 15.4086 7.71279 15.3528 7.78252 15.2825L11 12.0575L14.2175 15.2825C14.2872 15.3528 14.3702 15.4086 14.4616 15.4467C14.553 15.4848 14.651 15.5044 14.75 15.5044C14.849 15.5044 14.9471 15.4848 15.0384 15.4467C15.1298 15.4086 15.2128 15.3528 15.2825 15.2825C15.3528 15.2128 15.4086 15.1298 15.4467 15.0385C15.4848 14.9471 15.5044 14.849 15.5044 14.75C15.5044 14.651 15.4848 14.553 15.4467 14.4616C15.4086 14.3702 15.3528 14.2872 15.2825 14.2175L12.0575 11Z" fill="white"/>
</g>
<defs>
<clipPath id="clip0_7650_49845">
<rect width="18" height="18" fill="white" transform="translate(2 2)"/>
</clipPath>
</defs>
</svg>
