<svg width="17" height="17" viewBox="0 0 17 17" fill="none" xmlns="http://www.w3.org/2000/svg">
<path fill-rule="evenodd" clip-rule="evenodd" d="M4.69979 1.52734H12.8037C14.6498 1.5907 16.0968 3.13545 16.0395 4.98172V9.7333C16.0669 10.625 15.7378 11.4908 15.125 12.1391C14.5123 12.7875 13.6664 13.1648 12.7746 13.1877H5.83667C5.35655 13.1976 4.90124 13.4029 4.5759 13.7561L2.84871 15.5999C2.70238 15.7595 2.49677 15.8518 2.28027 15.855C2.05667 15.8493 1.84462 15.7544 1.69132 15.5916C1.53802 15.4287 1.45619 15.2113 1.46405 14.9877V4.98172C1.40674 3.13545 2.85372 1.5907 4.69979 1.52734ZM12.8037 12.0945C14.0462 12.0316 15.0041 10.9761 14.9463 9.7333V4.98172C15.0041 3.73896 14.0462 2.68337 12.8037 2.6205H4.69979C3.45728 2.68337 2.49943 3.73896 2.5572 4.98172V14.31L3.7451 13.0128C4.28834 12.4349 5.04359 12.1033 5.83667 12.0945H12.8037Z" fill="#606770"/>
<path d="M6.01886 6.44654H9.66271C9.96458 6.44654 10.2093 6.20183 10.2093 5.89997C10.2093 5.5981 9.96458 5.35339 9.66271 5.35339H6.01886C5.71699 5.35339 5.47228 5.5981 5.47228 5.89997C5.47228 6.20183 5.71699 6.44654 6.01886 6.44654Z" fill="#606770"/>
<path d="M11.4846 8.26847H6.01886C5.71699 8.26847 5.47228 8.51318 5.47228 8.81505C5.47228 9.11691 5.71699 9.36163 6.01886 9.36163H11.4846C11.7865 9.36163 12.0312 9.11691 12.0312 8.81505C12.0312 8.51318 11.7865 8.26847 11.4846 8.26847Z" fill="#606770"/>
</svg>
