<svg width="21" height="22" viewBox="0 0 21 22" fill="none" xmlns="http://www.w3.org/2000/svg">
<path d="M19.9878 11.2838C19.8997 11.1036 19.8997 10.897 19.9878 10.7169L20.8041 9.04697C21.2586 8.11719 20.8985 7.00899 19.9843 6.52395L18.3424 5.65278C18.1653 5.55882 18.0438 5.3916 18.0092 5.19415L17.688 3.36337C17.5092 2.34404 16.5663 1.65907 15.5418 1.80402L13.7015 2.06435C13.5028 2.09239 13.3064 2.02853 13.1623 1.88913L11.8264 0.596824C11.0826 -0.122768 9.91735 -0.122811 9.17356 0.596824L7.83765 1.88926C7.69351 2.0287 7.49709 2.09243 7.29849 2.06448L5.45813 1.80415C4.43329 1.65911 3.49073 2.34417 3.31192 3.3635L2.99081 5.1942C2.95614 5.39169 2.8347 5.55887 2.6576 5.65287L1.01572 6.52404C0.101542 7.00904 -0.258554 8.11732 0.195925 9.0471L1.01217 10.7169C1.10022 10.8971 1.10022 11.1038 1.01217 11.2839L0.195883 12.9537C-0.258597 13.8835 0.101499 14.9917 1.01567 15.4767L2.65756 16.3479C2.8347 16.4419 2.95614 16.6091 2.99081 16.8065L3.31192 18.6373C3.4747 19.5653 4.27038 20.216 5.18485 20.216C5.27492 20.216 5.36631 20.2096 5.45817 20.1966L7.29853 19.9363C7.49701 19.9081 7.69355 19.9721 7.83769 20.1115L9.17356 21.4038C9.54554 21.7637 10.0227 21.9436 10.5 21.9435C10.9772 21.9435 11.4546 21.7636 11.8264 21.4038L13.1623 20.1115C13.3065 19.9721 13.5029 19.9084 13.7015 19.9363L15.5418 20.1966C16.5668 20.3416 17.5092 19.6566 17.688 18.6373L18.0092 16.8066C18.0439 16.6091 18.1653 16.4419 18.3424 16.3479L19.9843 15.4767C20.8985 14.9917 21.2586 13.8835 20.8041 12.9537L19.9878 11.2838ZM7.97534 5.31996C9.2514 5.31996 10.2896 6.35814 10.2896 7.6342C10.2896 8.91027 9.2514 9.94845 7.97534 9.94845C6.69927 9.94845 5.66109 8.91027 5.66109 7.6342C5.66109 6.35814 6.69927 5.31996 7.97534 5.31996ZM6.78083 15.612C6.6576 15.7352 6.49606 15.7969 6.33456 15.7969C6.17307 15.7969 6.01148 15.7353 5.88829 15.612C5.64181 15.3655 5.64181 14.9659 5.88829 14.7194L14.2191 6.38862C14.4655 6.14214 14.8652 6.14214 15.1117 6.38862C15.3581 6.63509 15.3581 7.03473 15.1117 7.2812L6.78083 15.612ZM13.0245 16.6807C11.7485 16.6807 10.7103 15.6426 10.7103 14.3665C10.7103 13.0904 11.7485 12.0523 13.0245 12.0523C14.3006 12.0523 15.3388 13.0904 15.3388 14.3665C15.3388 15.6426 14.3006 16.6807 13.0245 16.6807Z" fill="#229738"/>
</svg>
