<svg width="3" height="7" viewBox="0 0 3 7" fill="none" xmlns="http://www.w3.org/2000/svg">
<path d="M1.15091 2.59831C0.836389 2.59831 0.565113 2.49022 0.337084 2.27405C0.116919 2.04986 0.00683594 1.76563 0.00683594 1.42135C0.00683594 1.07707 0.116919 0.800838 0.337084 0.592668C0.565113 0.37649 0.836389 0.268402 1.15091 0.268402C1.4733 0.268402 1.74457 0.37649 1.96474 0.592668C2.1849 0.800838 2.29499 1.07707 2.29499 1.42135C2.29499 1.76563 2.1849 2.04986 1.96474 2.27405C1.74457 2.49022 1.4733 2.59831 1.15091 2.59831ZM1.15091 6.90985C0.836389 6.90985 0.565113 6.80176 0.337084 6.58558C0.116919 6.3614 0.00683594 6.07717 0.00683594 5.73288C0.00683594 5.3886 0.116919 5.11237 0.337084 4.9042C0.565113 4.68803 0.836389 4.57994 1.15091 4.57994C1.4733 4.57994 1.74457 4.68803 1.96474 4.9042C2.1849 5.11237 2.29499 5.3886 2.29499 5.73288C2.29499 6.07717 2.1849 6.3614 1.96474 6.58558C1.74457 6.80176 1.4733 6.90985 1.15091 6.90985Z" fill="#3A3939"/>
</svg>
