<svg width="17" height="17" viewBox="0 0 17 17" fill="none" xmlns="http://www.w3.org/2000/svg">
<path fill-rule="evenodd" clip-rule="evenodd" d="M13.0366 1.77665L15.778 4.51808C16.4011 5.14179 16.7507 5.9875 16.75 6.86907V10.7403C16.7507 11.6219 16.4011 12.4676 15.778 13.0913L13.0366 15.8327C12.4129 16.4557 11.5672 16.8054 10.6856 16.8047H6.81438C5.93282 16.8054 5.0871 16.4557 4.4634 15.8327L1.72196 13.0913C1.09895 12.4676 0.749308 11.6219 0.750001 10.7403V6.86907C0.749308 5.9875 1.09895 5.14179 1.72196 4.51808L4.4634 1.77665C5.0871 1.15364 5.93282 0.803995 6.81438 0.804689H10.6856C11.5672 0.803995 12.4129 1.15364 13.0366 1.77665ZM14.7895 12.1276C15.1533 11.7584 15.3538 11.2586 15.3461 10.7403V6.84415C15.3471 6.33444 15.1471 5.84488 14.7895 5.48174L12.0729 2.76523C11.6976 2.39515 11.1876 2.19414 10.6607 2.20863H6.78946C6.27975 2.20755 5.79019 2.40755 5.42705 2.76523L2.71054 5.48174C2.34672 5.851 2.14622 6.35075 2.15395 6.86907V10.7652C2.15286 11.2749 2.35286 11.7645 2.71054 12.1276L5.42705 14.8441C5.79631 15.208 6.29606 15.4085 6.81438 15.4007H10.7105C11.2202 15.4018 11.7098 15.2018 12.0729 14.8441L14.7895 12.1276Z" fill="#606770"/>
<path d="M8.75 10.3499C8.4059 10.3499 8.12695 10.6288 8.12695 10.9729C8.12695 11.317 8.4059 11.596 8.75 11.596C9.0941 11.596 9.37305 11.317 9.37305 10.9729C9.37305 10.6288 9.0941 10.3499 8.75 10.3499Z" fill="#606770"/>
<path d="M8.75 9.21175C9.09223 9.20728 9.36858 8.93093 9.37305 8.5887V6.01341C9.37305 5.66931 9.0941 5.39036 8.75 5.39036C8.4059 5.39036 8.12695 5.66931 8.12695 6.01341V8.5887C8.13142 8.93093 8.40777 9.20728 8.75 9.21175Z" fill="#606770"/>
</svg>
