<svg width="20" height="20" viewBox="0 0 20 20" fill="none" xmlns="http://www.w3.org/2000/svg">
<path d="M17.0339 15.4824H2.92633C2.71847 15.4824 2.51912 15.565 2.37213 15.712C2.22515 15.859 2.14258 16.0583 2.14258 16.2662C2.14258 16.474 2.22515 16.6734 2.37213 16.8204C2.51912 16.9674 2.71847 17.0499 2.92633 17.0499H17.0339C17.2418 17.0499 17.4412 16.9674 17.5881 16.8204C17.7351 16.6734 17.8177 16.474 17.8177 16.2662C17.8177 16.0583 17.7351 15.859 17.5881 15.712C17.4412 15.565 17.2418 15.4824 17.0339 15.4824Z" fill="#1C1E21"/>
<path d="M9.98016 2.15918C9.77229 2.15918 9.57294 2.24175 9.42596 2.38874C9.27898 2.53572 9.1964 2.73507 9.1964 2.94294V11.2429L6.61784 8.65652C6.47026 8.50894 6.27009 8.42602 6.06138 8.42602C5.85266 8.42602 5.65249 8.50894 5.50491 8.65652C5.35733 8.8041 5.27441 9.00427 5.27441 9.21299C5.27441 9.4217 5.35733 9.62187 5.50491 9.76945L9.42369 13.6882C9.49655 13.7617 9.58324 13.82 9.67874 13.8598C9.77425 13.8996 9.87669 13.9201 9.98016 13.9201C10.0836 13.9201 10.1861 13.8996 10.2816 13.8598C10.3771 13.82 10.4638 13.7617 10.5366 13.6882L14.4554 9.76945C14.5285 9.69638 14.5864 9.60962 14.626 9.51414C14.6655 9.41867 14.6859 9.31633 14.6859 9.21299C14.6859 9.10964 14.6655 9.00731 14.626 8.91183C14.5864 8.81635 14.5285 8.7296 14.4554 8.65652C14.3823 8.58344 14.2956 8.52548 14.2001 8.48593C14.1046 8.44638 14.0023 8.42602 13.8989 8.42602C13.7956 8.42602 13.6933 8.44638 13.5978 8.48593C13.5023 8.52548 13.4155 8.58344 13.3425 8.65652L10.7639 11.2429V2.94294C10.7639 2.73507 10.6813 2.53572 10.5344 2.38874C10.3874 2.24175 10.188 2.15918 9.98016 2.15918Z" fill="#1C1E21"/>
</svg>
