<svg width="21" height="21" viewBox="0 0 21 21" fill="none" xmlns="http://www.w3.org/2000/svg">
<path d="M20.291 10.1992C20.291 15.7221 15.8139 20.1992 10.291 20.1992C4.76817 20.1992 0.291016 15.7221 0.291016 10.1992C0.291016 4.67637 4.76817 0.199219 10.291 0.199219C15.8139 0.199219 20.291 4.67637 20.291 10.1992Z" fill="white"/>
<path fill-rule="evenodd" clip-rule="evenodd" d="M10.291 18.7992C15.0407 18.7992 18.891 14.9489 18.891 10.1992C18.891 5.44957 15.0407 1.59922 10.291 1.59922C5.54137 1.59922 1.69102 5.44957 1.69102 10.1992C1.69102 14.9489 5.54137 18.7992 10.291 18.7992ZM10.291 20.1992C15.8139 20.1992 20.291 15.7221 20.291 10.1992C20.291 4.67637 15.8139 0.199219 10.291 0.199219C4.76817 0.199219 0.291016 4.67637 0.291016 10.1992C0.291016 15.7221 4.76817 20.1992 10.291 20.1992Z" fill="#DFE5EB"/>
<path d="M14.7459 13.6602H5.83582C5.70454 13.6602 5.57863 13.7123 5.4858 13.8051C5.39297 13.898 5.34082 14.0239 5.34082 14.1552C5.34082 14.2864 5.39297 14.4123 5.4858 14.5052C5.57863 14.598 5.70454 14.6502 5.83582 14.6502H14.7459C14.8772 14.6502 15.0031 14.598 15.0959 14.5052C15.1887 14.4123 15.2409 14.2864 15.2409 14.1552C15.2409 14.0239 15.1887 13.898 15.0959 13.8051C15.0031 13.7123 14.8772 13.6602 14.7459 13.6602Z" fill="#1C1E21"/>
<path d="M10.2909 5.24609C10.1596 5.24609 10.0337 5.29825 9.94088 5.39108C9.84804 5.48391 9.79589 5.60981 9.79589 5.7411V10.9832L8.16733 9.34968C8.07412 9.25647 7.9477 9.2041 7.81588 9.2041C7.68406 9.2041 7.55764 9.25647 7.46442 9.34968C7.37121 9.44289 7.31885 9.56931 7.31885 9.70113C7.31885 9.83295 7.37121 9.95937 7.46442 10.0526L9.93944 12.5276C9.98546 12.574 10.0402 12.6108 10.1005 12.636C10.1609 12.6611 10.2256 12.674 10.2909 12.674C10.3562 12.674 10.4209 12.6611 10.4813 12.636C10.5416 12.6108 10.5963 12.574 10.6423 12.5276L13.1174 10.0526C13.1635 10.0064 13.2001 9.95164 13.2251 9.89133C13.2501 9.83103 13.2629 9.7664 13.2629 9.70113C13.2629 9.63586 13.2501 9.57123 13.2251 9.51092C13.2001 9.45062 13.1635 9.39583 13.1174 9.34968C13.0712 9.30352 13.0164 9.26691 12.9561 9.24193C12.8958 9.21696 12.8312 9.2041 12.7659 9.2041C12.7006 9.2041 12.636 9.21696 12.5757 9.24193C12.5154 9.26691 12.4606 9.30352 12.4145 9.34968L10.7859 10.9832V5.7411C10.7859 5.60981 10.7337 5.48391 10.6409 5.39108C10.5481 5.29825 10.4222 5.24609 10.2909 5.24609Z" fill="#1C1E21"/>
</svg>
