<svg width="21" height="21" viewBox="0 0 21 21" fill="none" xmlns="http://www.w3.org/2000/svg">
<path d="M12.3771 4.9166H7.00215C6.49152 4.9166 6.07715 4.50223 6.07715 3.9916V2.58223C6.07715 2.0716 6.49152 1.65723 7.00215 1.65723H12.3771C12.8878 1.65723 13.3021 2.0716 13.3021 2.58223V3.9916C13.3021 4.50285 12.8878 4.9166 12.3771 4.9166Z" fill="#AECCE0"/>
<path d="M18.5932 11.651C18.0182 11.076 17.0807 11.076 16.5057 11.651L15.8232 12.3372L17.912 14.4254L18.5932 13.7441C19.1745 13.1635 19.1745 12.2322 18.5932 11.651Z" fill="#AECCE0"/>
<path d="M15.1623 13.001L11.5186 16.6385C11.4436 16.7197 11.3936 16.8197 11.3748 16.926L11.0998 18.5447C11.0373 18.901 11.3498 19.2072 11.7061 19.151L13.3248 18.876C13.4311 18.8572 13.5311 18.8072 13.6061 18.7322L17.2498 15.0885L15.1623 13.001Z" fill="#AECCE0"/>
<path d="M15.0182 3.28809H14.24V3.99121C14.24 5.01809 13.4044 5.85371 12.3775 5.85371H7.00254C5.97504 5.85371 5.14004 5.01809 5.14004 3.99121V3.28809H4.34941C3.11816 3.28809 2.11816 4.28809 2.11816 5.51934V16.9256C2.11816 18.1568 3.11816 19.1568 4.34941 19.1568H10.26C10.165 18.9125 10.1294 18.6475 10.1757 18.3831L10.45 16.7687C10.4988 16.4825 10.63 16.2181 10.8275 16.0025L14.8057 12.03L15.84 10.99C16.2244 10.605 16.7175 10.3768 17.2482 10.3112V5.52559C17.2494 4.28184 16.2557 3.28809 15.0182 3.28809ZM8.71691 12.5587H6.00504C5.69441 12.5587 5.44254 12.3068 5.44254 11.9962C5.44254 11.6856 5.69441 11.4337 6.00504 11.4337H8.71691C9.02754 11.4337 9.27941 11.6856 9.27941 11.9962C9.27941 12.3068 9.02754 12.5587 8.71691 12.5587ZM12.0369 9.36621H6.00566C5.69504 9.36621 5.44316 9.11434 5.44316 8.80371C5.44316 8.49309 5.69504 8.24121 6.00566 8.24121H12.0369C12.3475 8.24121 12.5994 8.49309 12.5994 8.80371C12.5994 9.11434 12.3475 9.36621 12.0369 9.36621Z" fill="#87AAC1"/>
</svg>
