<svg width="17" height="17" viewBox="0 0 17 17" fill="none" xmlns="http://www.w3.org/2000/svg">
<path fill-rule="evenodd" clip-rule="evenodd" d="M10.5923 3.49414C9.38869 3.49414 8.37651 4.35685 8.14307 5.49414H1.59229C1.31615 5.49414 1.09229 5.718 1.09229 5.99414C1.09229 6.27028 1.31615 6.49414 1.59229 6.49414H8.14307C8.37651 7.63144 9.38869 8.49414 10.5923 8.49414C11.7959 8.49414 12.8081 7.63144 13.0415 6.49414H14.5923C14.8684 6.49414 15.0923 6.27028 15.0923 5.99414C15.0923 5.718 14.8684 5.49414 14.5923 5.49414H13.0415C12.8081 4.35685 11.7959 3.49414 10.5923 3.49414ZM10.5923 4.49414C11.4266 4.49414 12.0923 5.15981 12.0923 5.99414C12.0923 6.82848 11.4266 7.49414 10.5923 7.49414C9.75795 7.49414 9.09229 6.82848 9.09229 5.99414C9.09229 5.15981 9.75795 4.49414 10.5923 4.49414Z" fill="#1C1E21"/>
<path fill-rule="evenodd" clip-rule="evenodd" d="M5.59229 8.49414C4.38869 8.49414 3.37651 9.35685 3.14307 10.4941H1.59229C1.31615 10.4941 1.09229 10.718 1.09229 10.9941C1.09229 11.2703 1.31615 11.4941 1.59229 11.4941H3.14307C3.37651 12.6314 4.38869 13.4941 5.59229 13.4941C6.79588 13.4941 7.80806 12.6314 8.0415 11.4941H14.5923C14.8684 11.4941 15.0923 11.2703 15.0923 10.9941C15.0923 10.718 14.8684 10.4941 14.5923 10.4941H8.0415C7.80806 9.35685 6.79588 8.49414 5.59229 8.49414ZM5.59229 9.49414C6.42662 9.49414 7.09229 10.1598 7.09229 10.9941C7.09229 11.8285 6.42662 12.4941 5.59229 12.4941C4.75795 12.4941 4.09229 11.8285 4.09229 10.9941C4.09229 10.1598 4.75795 9.49414 5.59229 9.49414Z" fill="#1C1E21"/>
</svg>
