<svg width="25" height="24" viewBox="0 0 25 24" fill="none" xmlns="http://www.w3.org/2000/svg">
<path fill-rule="evenodd" clip-rule="evenodd" d="M23.1719 19V7C23.1719 5.34315 21.8288 4 20.1719 4H12.5861L10.4648 1.87868C9.90215 1.31607 9.13909 1 8.34344 1H4.17188C2.51503 1 1.17188 2.34315 1.17188 4V19C1.17188 20.6569 2.51503 22 4.17188 22H20.1719C21.8288 22 23.1719 20.6569 23.1719 19ZM9.75766 2.58579L12.1719 5H20.1719C21.2765 5 22.1719 5.89543 22.1719 7V19C22.1719 20.1046 21.2765 21 20.1719 21H4.17188C3.0673 21 2.17188 20.1046 2.17188 19V4C2.17188 2.89543 3.0673 2 4.17188 2H8.34344C8.87388 2 9.38258 2.21071 9.75766 2.58579ZM11.8183 16.8536C12.0136 17.0488 12.3302 17.0488 12.5255 16.8536L15.5255 13.8536C15.7207 13.6583 15.7207 13.3417 15.5255 13.1464C15.3302 12.9512 15.0136 12.9512 14.8183 13.1464L12.6719 15.2929V9.5C12.6719 9.22386 12.448 9 12.1719 9C11.8958 9 11.6719 9.22386 11.6719 9.5V15.2929L9.52542 13.1464C9.33016 12.9512 9.01359 12.9512 8.81833 13.1464C8.62305 13.3417 8.62305 13.6583 8.81833 13.8536L11.8183 16.8536Z" fill="#045C99"/>
</svg>
