<svg width="38" height="38" viewBox="0 0 38 38" fill="none" xmlns="http://www.w3.org/2000/svg">
<g filter="url(#filter0_bi_4380_17141)">
<circle cx="18" cy="18" r="18" transform="matrix(-1 0 0 1 37 1)" fill="black" fill-opacity="0.25"/>
<circle cx="18" cy="18" r="18.5" transform="matrix(-1 0 0 1 37 1)" stroke="url(#paint0_linear_4380_17141)" stroke-opacity="0.2"/>
</g>
<path d="M17.125 22.375V16.125L15.875 17.2969" stroke="white" stroke-width="1.6" stroke-linecap="round" stroke-linejoin="round"/>
<path d="M19.625 21.9845C19.9514 22.2297 20.3572 22.375 20.7969 22.375C21.8756 22.375 22.75 21.5006 22.75 20.4219C22.75 19.3432 21.8756 18.4687 20.7969 18.4687C20.3572 18.4687 19.9514 18.614 19.625 18.8592L20.0156 16.125H22.75" stroke="white" stroke-width="1.6" stroke-linecap="round" stroke-linejoin="round"/>
<path d="M24.9675 12.6377C28.5017 15.9118 28.6951 21.4122 25.3993 24.9232C22.1036 28.4342 16.5668 28.6263 13.0325 25.3522C9.49829 22.0781 9.30494 16.5777 12.6007 13.0667C14.4753 11.0696 17.075 10.1463 19.6188 10.3239M18.375 8.3125L20.6036 10.4236L18.375 12.6875" stroke="white" stroke-width="1.6" stroke-linecap="round" stroke-linejoin="round"/>
<defs>
<filter id="filter0_bi_4380_17141" x="-20" y="-20" width="78" height="78" filterUnits="userSpaceOnUse" color-interpolation-filters="sRGB">
<feFlood flood-opacity="0" result="BackgroundImageFix"/>
<feGaussianBlur in="BackgroundImageFix" stdDeviation="10"/>
<feComposite in2="SourceAlpha" operator="in" result="effect1_backgroundBlur_4380_17141"/>
<feBlend mode="normal" in="SourceGraphic" in2="effect1_backgroundBlur_4380_17141" result="shape"/>
<feColorMatrix in="SourceAlpha" type="matrix" values="0 0 0 0 0 0 0 0 0 0 0 0 0 0 0 0 0 0 127 0" result="hardAlpha"/>
<feMorphology radius="1.46045" operator="dilate" in="SourceAlpha" result="effect2_innerShadow_4380_17141"/>
<feOffset dx="-0.730227" dy="0.730227"/>
<feGaussianBlur stdDeviation="0.365113"/>
<feComposite in2="hardAlpha" operator="arithmetic" k2="-1" k3="1"/>
<feColorMatrix type="matrix" values="0 0 0 0 1 0 0 0 0 1 0 0 0 0 1 0 0 0 0.35 0"/>
<feBlend mode="normal" in2="shape" result="effect2_innerShadow_4380_17141"/>
</filter>
<linearGradient id="paint0_linear_4380_17141" x1="31.7903" y1="2.46774" x2="18" y2="36" gradientUnits="userSpaceOnUse">
<stop stop-color="white"/>
<stop offset="1" stop-color="white" stop-opacity="0"/>
</linearGradient>
</defs>
</svg>
