<svg width="20" height="20" viewBox="0 0 20 20" fill="none" xmlns="http://www.w3.org/2000/svg">
<path d="M3.49209 0.385742H1.35609C0.766217 0.385742 0.288086 0.863873 0.288086 1.45374V3.58975C0.288086 4.17962 0.766217 4.65775 1.35609 4.65775H3.49209C4.08196 4.65775 4.56009 4.17962 4.56009 3.58975V1.45374C4.56009 0.863873 4.08196 0.385742 3.49209 0.385742Z" fill="white"/>
<path d="M3.49209 7.86328H1.35609C0.766217 7.86328 0.288086 8.34141 0.288086 8.93128V11.0673C0.288086 11.6572 0.766217 12.1353 1.35609 12.1353H3.49209C4.08196 12.1353 4.56009 11.6572 4.56009 11.0673V8.93128C4.56009 8.34141 4.08196 7.86328 3.49209 7.86328Z" fill="white"/>
<path d="M3.49209 15.3369H1.35609C0.766217 15.3369 0.288086 15.815 0.288086 16.4049V18.5409C0.288086 19.1308 0.766217 19.6089 1.35609 19.6089H3.49209C4.08196 19.6089 4.56009 19.1308 4.56009 18.5409V16.4049C4.56009 15.815 4.08196 15.3369 3.49209 15.3369Z" fill="white"/>
<path d="M11.1015 0.385742H8.96546C8.37559 0.385742 7.89746 0.863873 7.89746 1.45374V3.58975C7.89746 4.17962 8.37559 4.65775 8.96546 4.65775H11.1015C11.6913 4.65775 12.1695 4.17962 12.1695 3.58975V1.45374C12.1695 0.863873 11.6913 0.385742 11.1015 0.385742Z" fill="white"/>
<path d="M11.1015 7.86328H8.96546C8.37559 7.86328 7.89746 8.34141 7.89746 8.93128V11.0673C7.89746 11.6572 8.37559 12.1353 8.96546 12.1353H11.1015C11.6913 12.1353 12.1695 11.6572 12.1695 11.0673V8.93128C12.1695 8.34141 11.6913 7.86328 11.1015 7.86328Z" fill="white"/>
<path d="M11.1015 15.3369H8.96546C8.37559 15.3369 7.89746 15.815 7.89746 16.4049V18.5409C7.89746 19.1308 8.37559 19.6089 8.96546 19.6089H11.1015C11.6913 19.6089 12.1695 19.1308 12.1695 18.5409V16.4049C12.1695 15.815 11.6913 15.3369 11.1015 15.3369Z" fill="white"/>
<path d="M18.7128 0.385742H16.5768C15.9869 0.385742 15.5088 0.863873 15.5088 1.45374V3.58975C15.5088 4.17962 15.9869 4.65775 16.5768 4.65775H18.7128C19.3027 4.65775 19.7808 4.17962 19.7808 3.58975V1.45374C19.7808 0.863873 19.3027 0.385742 18.7128 0.385742Z" fill="white"/>
<path d="M18.7128 7.86328H16.5768C15.9869 7.86328 15.5088 8.34141 15.5088 8.93128V11.0673C15.5088 11.6572 15.9869 12.1353 16.5768 12.1353H18.7128C19.3027 12.1353 19.7808 11.6572 19.7808 11.0673V8.93128C19.7808 8.34141 19.3027 7.86328 18.7128 7.86328Z" fill="white"/>
<path d="M18.7128 15.3369H16.5768C15.9869 15.3369 15.5088 15.815 15.5088 16.4049V18.5409C15.5088 19.1308 15.9869 19.6089 16.5768 19.6089H18.7128C19.3027 19.6089 19.7808 19.1308 19.7808 18.5409V16.4049C19.7808 15.815 19.3027 15.3369 18.7128 15.3369Z" fill="white"/>
</svg>
