<svg width="17" height="17" viewBox="0 0 17 17" fill="none" xmlns="http://www.w3.org/2000/svg">
<g clip-path="url(#clip0_3889_40823)">
<path d="M8.96094 4.11426C5.90397 4.11426 3.13175 5.78675 1.08613 8.50333C0.919207 8.7259 0.919207 9.03683 1.08613 9.25939C3.13175 11.9792 5.90397 13.6517 8.96094 13.6517C12.0179 13.6517 14.7901 11.9792 16.8357 9.26267C17.0027 9.0401 17.0027 8.72917 16.8357 8.50661C14.7901 5.78675 12.0179 4.11426 8.96094 4.11426ZM9.18023 12.2411C7.15098 12.3687 5.47521 10.6962 5.60285 8.66371C5.70759 6.98794 7.06588 5.62965 8.74165 5.52492C10.7709 5.39727 12.4467 7.06977 12.319 9.10229C12.211 10.7748 10.8527 12.1331 9.18023 12.2411ZM9.07876 10.6897C7.98559 10.7584 7.08224 9.85835 7.15425 8.76517C7.20989 7.86183 7.94304 7.13195 8.84638 7.07304C9.93956 7.00431 10.8429 7.90438 10.7709 8.99756C10.712 9.90417 9.97884 10.634 9.07876 10.6897Z" fill="#119954"/>
</g>
<defs>
<clipPath id="clip0_3889_40823">
<rect width="16" height="16" fill="white" transform="translate(0.960938 0.882812)"/>
</clipPath>
</defs>
</svg>
