<svg width="30" height="30" viewBox="0 0 30 30" fill="none" xmlns="http://www.w3.org/2000/svg">
<g clip-path="url(#clip0_1042_12757)">
<path d="M14.708 18.0254C16.2856 18.0254 17.5645 16.7465 17.5645 15.1689C17.5645 13.5914 16.2856 12.3125 14.708 12.3125C13.1304 12.3125 11.8516 13.5914 11.8516 15.1689C11.8516 16.7465 13.1304 18.0254 14.708 18.0254Z" fill="#4BC0FF"/>
<path d="M20.1696 29.2791V24.0408L28.7998 15.4106C29.5108 14.6996 29.5108 13.5469 28.7998 12.836C28.0888 12.125 26.9362 12.125 26.2252 12.836L18.7371 20.324C18.5095 20.5516 18.2008 20.6794 17.8789 20.6794H11.5371C11.2152 20.6794 10.9065 20.5516 10.6789 20.324L3.19086 12.836C2.47989 12.125 1.3272 12.125 0.616235 12.836C-0.0947345 13.5469 -0.0947345 14.6996 0.616235 15.4106L9.24641 24.0408V29.2413L20.1696 29.2791Z" fill="#4BC0FF"/>
<path d="M19.807 3.71325C19.7062 3.40304 19.4381 3.17693 19.1153 3.13003L16.6206 2.76754L15.505 0.506952C15.3606 0.214509 15.0627 0.0292969 14.7365 0.0292969C14.4103 0.0292969 14.1124 0.214509 13.968 0.506952L12.8524 2.76754L10.3578 3.13003C10.035 3.17693 9.76678 3.40304 9.66601 3.71325C9.56517 4.02346 9.64927 4.36401 9.88281 4.59167L11.688 6.35124L11.2618 8.83583C11.2067 9.1573 11.3389 9.48225 11.6027 9.67397C11.8666 9.86569 12.2165 9.89095 12.5052 9.73921L14.7365 8.56613L16.9678 9.73921C17.0932 9.80514 17.23 9.83765 17.3665 9.83765C17.5441 9.83765 17.721 9.78246 17.8702 9.67397C18.1341 9.48225 18.2663 9.15735 18.2112 8.83583L17.7851 6.35124L19.5902 4.59167C19.8238 4.36401 19.9079 4.02346 19.807 3.71325Z" fill="#FDB43A"/>
<path d="M19.8071 3.71325C19.7063 3.40304 19.4382 3.17693 19.1154 3.13003L16.6207 2.76754L15.5051 0.506952C15.3606 0.214509 15.0628 0.0292969 14.7366 0.0292969C14.727 0.0292969 14.7175 0.0299824 14.708 0.0303252V8.58121L14.7366 8.56618L16.9679 9.73927C17.0933 9.8052 17.2301 9.8377 17.3666 9.8377C17.5442 9.8377 17.7211 9.78252 17.8703 9.67403C18.1342 9.4823 18.2664 9.15741 18.2113 8.83589L17.7851 6.3513L19.5903 4.59173C19.8238 4.36401 19.9079 4.02346 19.8071 3.71325Z" fill="#F57A21"/>
<path d="M17.5645 15.1689C17.5645 13.5914 16.2856 12.3125 14.708 12.3125V18.0254C16.2856 18.0254 17.5645 16.7465 17.5645 15.1689Z" fill="#0592FD"/>
<path d="M28.7998 12.836C28.0888 12.125 26.9361 12.125 26.2251 12.836L18.7371 20.324C18.5095 20.5516 18.2008 20.6794 17.8789 20.6794H14.708V29.2602L20.1696 29.2791V24.0408L28.7998 15.4106C29.5107 14.6996 29.5107 13.5469 28.7998 12.836Z" fill="#0592FD"/>
</g>
<defs>
<clipPath id="clip0_1042_12757">
<rect width="29.25" height="29.25" fill="white" transform="translate(0.0830078 0.0292969)"/>
</clipPath>
</defs>
</svg>
