<svg width="19" height="19" viewBox="0 0 19 19" fill="none" xmlns="http://www.w3.org/2000/svg">
<path d="M17.5 1.64453H11.5V3.64453H15.5V7.64453H17.5V1.64453Z" fill="white"/>
<path d="M17.5 11.6445H15.5V15.6445H11.5V17.6445H17.5V11.6445Z" fill="white"/>
<path d="M3.5 7.64453V3.64453H7.5V1.64453H1.5V7.64453H3.5Z" fill="white"/>
<path d="M1.5 11.6445V17.6445H7.5V15.6445H3.5V11.6445H1.5Z" fill="white"/>
<path d="M18 1.64453V1.14453H17.5H11.5H11V1.64453V3.64453V4.14453H11.5H15V7.64453V8.14453H15.5H17.5H18V7.64453V1.64453ZM18 11.6445V11.1445H17.5H15.5H15V11.6445V15.1445H11.5H11V15.6445V17.6445V18.1445H11.5H17.5H18V17.6445V11.6445ZM3.5 8.14453H4V7.64453V4.14453H7.5H8V3.64453V1.64453V1.14453H7.5H1.5H1V1.64453V7.64453V8.14453H1.5H3.5ZM1.5 11.1445H1V11.6445V17.6445V18.1445H1.5H7.5H8V17.6445V15.6445V15.1445H7.5H4V11.6445V11.1445H3.5H1.5Z" stroke="black" stroke-opacity="0.1"/>
</svg>
