<svg width="21" height="22" viewBox="0 0 21 22" fill="none" xmlns="http://www.w3.org/2000/svg">
<path fill-rule="evenodd" clip-rule="evenodd" d="M19.9994 10.702C19.9076 10.8754 19.9076 11.0825 19.9994 11.2559L20.3057 11.8346C20.7771 12.725 20.521 13.8472 19.71 14.4448L19.1829 14.8333C19.025 14.9497 18.9352 15.1363 18.9426 15.3324L18.9675 15.9866C19.0059 16.9934 18.2882 17.8933 17.2983 18.0799L16.9396 18.1475L16.9396 18.1474L16.6547 18.2011C16.4619 18.2375 16.3 18.3666 16.2217 18.5465L15.9602 19.1468C15.6299 19.9052 14.8714 20.3775 14.0721 20.3776C13.898 20.3776 13.7221 20.3552 13.548 20.3084L12.9156 20.1386C12.7262 20.0877 12.5242 20.1338 12.3756 20.2619L11.8796 20.6893C11.8329 20.7295 11.7848 20.7671 11.7355 20.8024L11.7355 20.8025C11.381 21.0558 10.961 21.1826 10.541 21.1826C10.1144 21.1826 9.68795 21.0516 9.33007 20.7903L9.32988 20.7904L9.32999 20.7902C9.28642 20.7584 9.24368 20.725 9.20225 20.6893L8.70623 20.2619C8.55763 20.1338 8.35574 20.0878 8.1662 20.1386L7.53384 20.3084C6.56086 20.5699 5.52394 20.0704 5.12166 19.1468L4.86021 18.5465C4.78183 18.3666 4.61995 18.2375 4.42711 18.2011L4.12121 18.1434L4.12114 18.1436L3.78374 18.0799C2.79379 17.8933 2.07614 16.9934 2.11445 15.9867L2.13935 15.3324C2.14684 15.1363 2.05703 14.9498 1.89905 14.8333L1.372 14.4448C0.561089 13.8471 0.304982 12.7249 0.776253 11.8346L1.08259 11.2559C1.17439 11.0825 1.17439 10.8754 1.08259 10.702L0.776253 10.1233C0.304982 9.23296 0.561089 8.1108 1.372 7.5131L1.8991 7.12459C2.05703 7.00818 2.14689 6.82161 2.1394 6.62555L2.1145 5.97121C2.07619 4.96458 2.79384 4.06468 3.78379 3.87801L4.42724 3.75669C4.62009 3.72032 4.78196 3.59122 4.86029 3.41136L5.1218 2.81099C5.52407 1.88741 6.56094 1.38799 7.53397 1.64935L8.16634 1.81924C8.35583 1.8701 8.55767 1.82406 8.70631 1.69598L9.20238 1.26852C9.96555 0.611015 11.1166 0.611015 11.8797 1.26852L12.3757 1.69598C12.5243 1.82406 12.7263 1.8701 12.9157 1.81924L13.5481 1.64935C14.5211 1.38789 15.558 1.88741 15.9602 2.81099L16.2217 3.41131C16.3 3.59122 16.4619 3.72032 16.6548 3.75669L17.2982 3.87801C18.2882 4.06468 19.0058 4.96458 18.9675 5.97121L18.9426 6.62555C18.9351 6.82156 19.0249 7.00813 19.1829 7.12459L19.7099 7.51305C20.5209 8.11075 20.777 9.23291 20.3057 10.1233L19.9994 10.702ZM10.5409 4.41458C14.1605 4.41458 17.1052 7.35934 17.1052 10.9789C17.1052 14.5985 14.1605 17.5433 10.5409 17.5433C6.92131 17.5433 3.97655 14.5985 3.97655 10.9789C3.97655 7.35934 6.92131 4.41458 10.5409 4.41458ZM12.7119 11.6843L13.8247 10.5996C14.0235 10.4059 14.095 10.116 14.0092 9.85194C13.9234 9.58791 13.6952 9.39545 13.4204 9.35553L11.8826 9.1321L11.1949 7.73861C11.072 7.48966 10.8184 7.33206 10.5408 7.33206C10.2632 7.33206 10.0097 7.4897 9.88679 7.73866L9.19909 9.13215L7.66128 9.35558C7.38651 9.3955 7.15826 9.58796 7.07249 9.85199C6.98667 10.116 7.05824 10.4059 7.25702 10.5996L8.3698 11.6843L8.10712 13.2159C8.06015 13.4896 8.17267 13.7661 8.39727 13.9293C8.62191 14.0925 8.91964 14.114 9.16539 13.9848L10.5408 13.2617L11.9163 13.9848C12.1643 14.1151 12.4618 14.091 12.6844 13.9293C12.909 13.7661 13.0215 13.4895 12.9746 13.2159L12.7119 11.6843Z" fill="url(#paint0_linear_1139_37572)"/>
<circle cx="10.7093" cy="11.3699" r="4.87675" fill="white"/>
<path fill-rule="evenodd" clip-rule="evenodd" d="M6.77083 8.88831L7.25033 12.0051H14.1675L14.647 8.88831C14.6824 8.658 14.4204 8.50093 14.234 8.64074L12.7401 9.76116C12.5761 9.8841 12.3425 9.84411 12.2289 9.67358L10.9852 7.80802C10.8537 7.61087 10.5641 7.61087 10.4326 7.80802L9.18894 9.67358C9.07528 9.84411 8.84169 9.88413 8.67773 9.76116L7.18383 8.64074C6.99743 8.50093 6.73538 8.658 6.77083 8.88831ZM7.61096 13.7344H13.8069C14.006 13.7344 14.1675 13.5729 14.1675 13.3737V12.5815H7.25033V13.3737C7.25033 13.5729 7.4118 13.7344 7.61096 13.7344Z" fill="url(#paint1_linear_1139_37572)"/>
<defs>
<linearGradient id="paint0_linear_1139_37572" x1="10.5409" y1="21.6764" x2="10.5409" y2="0.775366" gradientUnits="userSpaceOnUse">
<stop stop-color="#FD5900"/>
<stop offset="1" stop-color="#FFDE00"/>
</linearGradient>
<linearGradient id="paint1_linear_1139_37572" x1="10.7089" y1="13.7623" x2="10.7089" y2="12.5815" gradientUnits="userSpaceOnUse">
<stop stop-color="#FD5900"/>
<stop offset="1" stop-color="#FFDE00"/>
</linearGradient>
</defs>
</svg>
