<svg width="34" height="27" viewBox="0 0 34 27" fill="none" xmlns="http://www.w3.org/2000/svg">
<g id="Icon">
<path d="M21.1708 14.2355C21.1708 16.6288 19.2306 18.569 16.8373 18.569C14.4439 18.569 12.5037 16.6288 12.5037 14.2355C12.5037 11.8422 14.4439 9.90197 16.8373 9.90197C19.2306 9.90197 21.1708 11.8422 21.1708 14.2355Z" fill="#87AAC1"/>
<path fill-rule="evenodd" clip-rule="evenodd" d="M26.3884 0.749533H7.52886C5.66396 0.744928 3.87386 1.48253 2.55354 2.7996C1.23322 4.11666 0.491205 5.90494 0.491211 7.76985V19.7304C0.491205 21.5953 1.23322 23.3836 2.55354 24.7006C3.87386 26.0177 5.66396 26.7553 7.52886 26.7507H26.3884C28.2533 26.7553 30.0434 26.0177 31.3637 24.7006C32.684 23.3836 33.426 21.5953 33.426 19.7304V7.76985C33.426 5.90494 32.684 4.11666 31.3637 2.7996C30.0434 1.48253 28.2533 0.744928 26.3884 0.749533ZM16.8373 21.1691C13.0079 21.1691 9.90363 18.0648 9.90363 14.2355C9.90363 10.4061 13.0079 7.30183 16.8373 7.30183C20.6666 7.30183 23.7709 10.4061 23.7709 14.2355C23.7709 16.0744 23.0404 17.838 21.7401 19.1383C20.4398 20.4386 18.6762 21.1691 16.8373 21.1691ZM26.371 9.03524C26.8497 9.03524 27.2378 8.6472 27.2378 8.16853V6.43512C27.2378 5.95645 26.8497 5.56842 26.371 5.56842H24.6376C24.159 5.56842 23.7709 5.95645 23.7709 6.43512V8.16853C23.7709 8.6472 24.159 9.03524 24.6376 9.03524H26.371Z" fill="#87AAC1"/>
</g>
</svg>
