<svg width="15" height="15" viewBox="0 0 15 15" fill="none" xmlns="http://www.w3.org/2000/svg">
<g clip-path="url(#clip0_2003_33780)">
<path d="M12.7173 2.14011C11.3952 0.817981 9.63734 0.0898438 7.76758 0.0898438C5.89781 0.0898438 4.13994 0.817981 2.81781 2.14011C1.49569 3.46223 0.767578 5.22008 0.767578 7.08984C0.767578 8.95961 1.49569 10.7175 2.81781 12.0396C4.13994 13.3617 5.89781 14.0898 7.76758 14.0898C9.63734 14.0898 11.3952 13.3617 12.7173 12.0396C14.0395 10.7175 14.7676 8.95961 14.7676 7.08984C14.7676 5.22008 14.0395 3.4622 12.7173 2.14011ZM7.76758 12.7159C4.66535 12.7159 2.14155 10.192 2.14155 7.08984C2.14155 7.08476 2.14171 7.07973 2.14174 7.0747C2.14174 7.07341 2.14155 7.07218 2.14155 7.07089C2.14155 7.06873 2.14182 7.06666 2.14187 7.06452C2.15552 3.99948 4.63251 1.50581 7.69112 1.4648C7.69752 1.4645 7.70387 1.46384 7.71035 1.46384C7.71423 1.46384 7.718 1.4643 7.72186 1.46441C7.73712 1.4643 7.75232 1.46384 7.76761 1.46384C10.8698 1.46384 13.3936 3.98767 13.3936 7.08987C13.3936 10.1921 10.8698 12.7159 7.76758 12.7159Z" fill="#AECCE0"/>
<path d="M12.0411 7.42702C11.8123 7.42702 11.6269 7.24157 11.6269 7.01282C11.6269 6.78406 11.8123 6.59861 12.0411 6.59861H12.5403C12.3058 4.29966 10.4414 2.47591 8.12455 2.30469V2.73932C8.12455 2.96807 7.9391 3.15352 7.71034 3.15352C7.48159 3.15352 7.29614 2.96807 7.29614 2.73932V2.31459C5.01359 2.53826 3.19543 4.36816 2.98972 6.65584H3.43684C3.6656 6.65584 3.85105 6.84129 3.85105 7.07005C3.85105 7.29881 3.6656 7.48425 3.43684 7.48425H2.98633C3.17678 9.80877 5.03139 11.6691 7.3534 11.8686V11.3435C7.3534 11.1148 7.53884 10.9293 7.7676 10.9293C7.99636 10.9293 8.18181 11.1148 8.18181 11.3435V11.8686C10.5228 11.6674 12.3887 9.77814 12.5532 7.42702H12.0411ZM9.44432 5.99809L8.06051 7.38193C7.98282 7.45961 7.8775 7.50325 7.76763 7.50325C7.65779 7.50325 7.55241 7.45961 7.47475 7.38193L5.06596 4.97314C4.90419 4.8114 4.90419 4.54914 5.06596 4.38738C5.2277 4.22561 5.48995 4.22561 5.65172 4.38738L7.76766 6.50329L8.85862 5.41233C9.02036 5.25057 9.28261 5.25057 9.44438 5.41233C9.60609 5.57407 9.60609 5.83635 9.44432 5.99809Z" fill="#87AAC1"/>
</g>
<defs>
<clipPath id="clip0_2003_33780">
<rect width="14" height="14" fill="white" transform="translate(0.767578 0.0898438)"/>
</clipPath>
</defs>
</svg>
