<svg width="22" height="22" viewBox="0 0 22 22" fill="none" xmlns="http://www.w3.org/2000/svg">
<g id="link 1">
<g id="Group">
<g id="Group_2">
<g id="Group_3">
<path id="Vector" d="M4.01166 17.988L4.01165 17.988C2.72945 16.7058 2.72945 14.6273 4.01165 13.3451L7.78307 9.57366C9.06526 8.29146 11.1438 8.29146 12.426 9.57366C12.6668 9.81448 12.6668 10.205 12.426 10.4458C12.1851 10.6866 11.7947 10.6866 11.5538 10.4458C10.7533 9.64524 9.45571 9.64524 8.65519 10.4458L4.88375 14.2172C4.08323 15.0178 4.08323 16.3154 4.8839 17.116C5.68443 17.9171 6.98191 17.917 7.78307 17.1159L9.66846 15.2305C9.90929 14.9896 10.2998 14.9896 10.5406 15.2304C10.7814 15.4713 10.7814 15.8617 10.5406 16.1026L8.65523 17.988C7.37233 19.2709 5.29369 19.2708 4.01166 17.988Z" fill="#606770" stroke="white" stroke-width="0.1"/>
<path id="Vector_2" d="M13.3448 4.0114C14.627 2.72921 16.7062 2.72921 17.9884 4.0114C19.2706 5.2936 19.2706 7.37213 17.9884 8.65433L13.8403 12.8024C12.5581 14.0846 10.4796 14.0846 9.19742 12.8024C8.95659 12.5616 8.95659 12.1711 9.19742 11.9303C9.43824 11.6895 9.82872 11.6895 10.0695 11.9303C10.8701 12.7309 12.1676 12.7309 12.9682 11.9303L17.1163 7.78217C17.9168 6.98165 17.9168 5.68405 17.1163 4.88353C16.3157 4.08298 15.0175 4.08298 14.217 4.88353L11.9549 7.1456C11.7141 7.38642 11.3236 7.38642 11.0828 7.1456C10.842 6.90477 10.842 6.51429 11.0828 6.27347L13.3448 4.0114Z" fill="#606770" stroke="white" stroke-width="0.1"/>
</g>
</g>
</g>
</g>
</svg>
