<svg width="17" height="17" viewBox="0 0 17 17" fill="none" xmlns="http://www.w3.org/2000/svg">
<path d="M14.9222 2.44873H2.07777C1.56666 2.44873 1.16666 2.84873 1.16666 3.33762V11.671C1.16666 12.1598 1.56666 12.5821 2.07777 12.5821H14.9444C15.4333 12.5821 15.8555 12.1821 15.8555 11.671V3.33762C15.8333 2.84873 15.4333 2.44873 14.9222 2.44873ZM8.49999 11.1821C6.47777 11.1821 4.8111 9.53762 4.8111 7.49318C4.8111 5.47095 6.45555 3.80429 8.49999 3.80429C10.5222 3.80429 12.1889 5.44873 12.1889 7.49318C12.1889 9.53762 10.5222 11.1821 8.49999 11.1821Z" fill="#D9EBF7"/>
<path d="M10.1667 7.51562C10.1667 7.73785 10.0555 7.93785 9.85555 8.07118L8.0111 9.18229C7.89999 9.24896 7.78888 9.27118 7.67777 9.27118C7.56666 9.27118 7.45555 9.24896 7.36666 9.18229C7.16666 9.07118 7.03333 8.84896 7.03333 8.62674V6.40451C7.03333 6.18229 7.14444 5.96007 7.36666 5.84896C7.56666 5.73785 7.8111 5.73785 8.0111 5.84896L9.85555 6.96007C10.0555 7.07118 10.1667 7.27118 10.1667 7.51562Z" fill="#E4F4FF"/>
<path fill-rule="evenodd" clip-rule="evenodd" d="M5.01591 14.4047H15.6111C15.7444 14.4047 15.8333 14.4936 15.8333 14.6269C15.8333 14.738 15.7444 14.8491 15.6111 14.8491H5.0369C4.95515 15.3976 4.48221 15.8183 3.911 15.8183C3.3398 15.8183 2.86685 15.3976 2.7851 14.8491H1.58886C1.45553 14.8491 1.36664 14.738 1.36664 14.6269C1.36664 14.4936 1.45553 14.4047 1.58886 14.4047H2.8061C2.92917 13.9089 3.37718 13.5415 3.911 13.5415C4.44483 13.5415 4.89283 13.9089 5.01591 14.4047Z" fill="#E4F4FF"/>
</svg>
