<svg width="19" height="19" viewBox="0 0 19 19" fill="none" xmlns="http://www.w3.org/2000/svg">
<g id="calendar 1">
<path id="Vector" d="M5.63623 2.39648C5.63623 1.98227 5.30044 1.64648 4.88623 1.64648C4.47202 1.64648 4.13623 1.98227 4.13623 2.39648V3.14648C4.13623 3.5607 4.47202 3.89648 4.88623 3.89648C5.30044 3.89648 5.63623 3.5607 5.63623 3.14648V2.39648Z" fill="#AECCE0"/>
<path id="Vector_2" d="M13.8862 2.39648C13.8862 1.98227 13.5504 1.64648 13.1362 1.64648C12.722 1.64648 12.3862 1.98227 12.3862 2.39648V3.14648C12.3862 3.5607 12.722 3.89648 13.1362 3.89648C13.5504 3.89648 13.8862 3.5607 13.8862 3.14648V2.39648Z" fill="#AECCE0"/>
<path id="Vector_3" d="M1.51123 7.27148V15.8965C1.51123 16.7249 2.18286 17.3965 3.01123 17.3965H15.0112C15.8396 17.3965 16.5112 16.7249 16.5112 15.8965V7.27148H1.51123ZM6.01123 14.7715C6.01123 15.1859 5.67561 15.5215 5.26123 15.5215H4.51123C4.09686 15.5215 3.76123 15.1859 3.76123 14.7715V14.0215C3.76123 13.6071 4.09686 13.2715 4.51123 13.2715H5.26123C5.67561 13.2715 6.01123 13.6071 6.01123 14.0215V14.7715ZM6.01123 10.6465C6.01123 11.0609 5.67561 11.3965 5.26123 11.3965H4.51123C4.09686 11.3965 3.76123 11.0609 3.76123 10.6465V9.89648C3.76123 9.48211 4.09686 9.14648 4.51123 9.14648H5.26123C5.67561 9.14648 6.01123 9.48211 6.01123 9.89648V10.6465ZM10.1362 14.7715C10.1362 15.1859 9.80061 15.5215 9.38623 15.5215H8.63623C8.22186 15.5215 7.88623 15.1859 7.88623 14.7715V14.0215C7.88623 13.6071 8.22186 13.2715 8.63623 13.2715H9.38623C9.80061 13.2715 10.1362 13.6071 10.1362 14.0215V14.7715ZM10.1362 10.6465C10.1362 11.0609 9.80061 11.3965 9.38623 11.3965H8.63623C8.22186 11.3965 7.88623 11.0609 7.88623 10.6465V9.89648C7.88623 9.48211 8.22186 9.14648 8.63623 9.14648H9.38623C9.80061 9.14648 10.1362 9.48211 10.1362 9.89648V10.6465ZM14.2612 14.7715C14.2612 15.1859 13.9256 15.5215 13.5112 15.5215H12.7612C12.3469 15.5215 12.0112 15.1859 12.0112 14.7715V14.0215C12.0112 13.6071 12.3469 13.2715 12.7612 13.2715H13.5112C13.9256 13.2715 14.2612 13.6071 14.2612 14.0215V14.7715ZM14.2612 10.6465C14.2612 11.0609 13.9256 11.3965 13.5112 11.3965H12.7612C12.3469 11.3965 12.0112 11.0609 12.0112 10.6465V9.89648C12.0112 9.48211 12.3469 9.14648 12.7612 9.14648H13.5112C13.9256 9.14648 14.2612 9.48211 14.2612 9.89648V10.6465Z" fill="#87AAC1"/>
<path id="Vector_4" d="M16.5112 6.52148V4.27148C16.5112 3.44311 15.8396 2.77148 15.0112 2.77148H14.6362V3.14648C14.6362 3.97373 13.9635 4.64648 13.1362 4.64648C12.309 4.64648 11.6362 3.97373 11.6362 3.14648V2.77148H6.38623V3.14648C6.38623 3.97373 5.71348 4.64648 4.88623 4.64648C4.05898 4.64648 3.38623 3.97373 3.38623 3.14648V2.77148H3.01123C2.18286 2.77148 1.51123 3.44311 1.51123 4.27148V6.52148H16.5112Z" fill="#AECCE0"/>
</g>
</svg>
