<svg width="22" height="22" viewBox="0 0 22 22" fill="none" xmlns="http://www.w3.org/2000/svg">
<g clip-path="url(#clip0_852_9068)">
<path d="M14.6443 0H7.32428C6.03247 0.00146484 4.98566 1.04828 4.98438 2.34009V19.66C4.98566 20.9518 6.03247 21.9987 7.32428 21.9999H14.6443C15.9361 21.9987 16.9829 20.9518 16.9844 19.66V2.34009C16.9829 1.04828 15.9361 0.00146484 14.6443 0ZM10.9844 20.0001C10.4319 20.0001 9.98425 19.5524 9.98425 18.9999C9.98425 18.4477 10.4319 18 10.9844 18C11.5366 18 11.9843 18.4477 11.9843 18.9999C11.9843 19.5524 11.5366 20.0001 10.9844 20.0001ZM12.4844 3H9.48438C9.20825 3 8.98431 2.77606 8.98431 2.49994C8.98431 2.22382 9.20825 2.00006 9.48438 2.00006H12.4844C12.7605 2.00006 12.9843 2.22382 12.9843 2.49994C12.9843 2.77606 12.7605 3 12.4844 3Z" fill="#87AAC1"/>
<rect x="6.7605" y="17.9895" width="8.47917" height="2.17708" rx="1.08854" fill="white"/>
</g>
<defs>
<clipPath id="clip0_852_9068">
<rect width="22" height="22" fill="white"/>
</clipPath>
</defs>
</svg>
