<svg width="19" height="18" viewBox="0 0 19 18" fill="none" xmlns="http://www.w3.org/2000/svg">
<rect width="19" height="18" fill="#232338"/>
<g id="Join Now" clip-path="url(#clip0_0_1)">
<rect width="360" height="1690" transform="translate(-297 -1022.5)" fill="white"/>
<g id="Frame 1000009533">
<g id="Group 1000010111" filter="url(#filter0_d_0_1)">
<g id="Group 1000008553">
<g id="Input Content">
<rect x="-276.5" y="-27.5" width="319" height="215.5" rx="20.5" fill="white"/>
<rect x="-276.5" y="-27.5" width="319" height="215.5" rx="20.5" stroke="#DFE5EB"/>
</g>
</g>
<g id="Frame 1000009529">
<g id="Frame 1000010275">
<g id="Group 1000010110">
<g id="Group 1000008318">
<g id="search 1">
<g id="layer1">
<path id="circle2017" d="M8.70459 1.44849C4.98555 1.44849 1.95605 4.47798 1.95605 8.19703C1.95605 11.9161 4.98555 14.9515 8.70459 14.9515C10.2931 14.9515 11.754 14.3948 12.9087 13.4705L15.7197 16.28C15.8616 16.416 16.0511 16.491 16.2476 16.489C16.444 16.487 16.6319 16.4082 16.771 16.2693C16.91 16.1304 16.9892 15.9427 16.9915 15.7462C16.9937 15.5497 16.919 15.3601 16.7832 15.2181L13.9722 12.407C14.8972 11.2506 15.4546 9.78738 15.4546 8.19703C15.4546 4.47798 12.4236 1.44849 8.70459 1.44849ZM8.70459 2.94851C11.613 2.94851 13.9531 5.28866 13.9531 8.19703C13.9531 11.1054 11.613 13.4514 8.70459 13.4514C5.79621 13.4514 3.45605 11.1054 3.45605 8.19703C3.45605 5.28866 5.79621 2.94851 8.70459 2.94851Z" fill="#606770"/>
</g>
</g>
</g>
</g>
</g>
</g>
</g>
</g>
</g>
<defs>
<filter id="filter0_d_0_1" x="-287" y="-38" width="340" height="236.5" filterUnits="userSpaceOnUse" color-interpolation-filters="sRGB">
<feFlood flood-opacity="0" result="BackgroundImageFix"/>
<feColorMatrix in="SourceAlpha" type="matrix" values="0 0 0 0 0 0 0 0 0 0 0 0 0 0 0 0 0 0 127 0" result="hardAlpha"/>
<feOffset/>
<feGaussianBlur stdDeviation="5"/>
<feComposite in2="hardAlpha" operator="out"/>
<feColorMatrix type="matrix" values="0 0 0 0 0 0 0 0 0 0 0 0 0 0 0 0 0 0 0.25 0"/>
<feBlend mode="normal" in2="BackgroundImageFix" result="effect1_dropShadow_0_1"/>
<feBlend mode="normal" in="SourceGraphic" in2="effect1_dropShadow_0_1" result="shape"/>
</filter>
<clipPath id="clip0_0_1">
<rect width="360" height="1690" fill="white" transform="translate(-297 -1022.5)"/>
</clipPath>
</defs>
</svg>
