<svg width="16" height="16" viewBox="0 0 16 16" fill="none" xmlns="http://www.w3.org/2000/svg">
<g id="like (1)" clip-path="url(#clip0_2240_31086)">
<g id="Group">
<g id="Group_2">
<path id="Vector" d="M15.9937 9.64335C15.9937 9.0425 15.6709 8.51563 15.1895 8.22706C15.374 7.96078 15.4821 7.63775 15.4821 7.29003C15.4821 6.38025 14.7419 5.64006 13.8321 5.64006H10.3491C10.4558 5.15631 10.6018 4.43041 10.7035 3.6705C10.968 1.69297 10.7872 0.596252 10.1345 0.219096C9.72758 -0.0159978 9.28883 -0.0636853 8.89908 0.0846897C8.59798 0.199377 8.19136 0.481346 7.95964 1.17338L7.0442 3.57028C6.43708 5.06975 4.19161 6.66707 3.66014 7.0296H0.479172C0.217766 7.0296 0.00585938 7.24153 0.00585938 7.50291V14.4547C0.00585938 14.7161 0.217797 14.928 0.479172 14.928H3.71427C5.51764 15.6393 7.41477 16 9.35473 16H13.1499C14.0597 16 14.7999 15.2598 14.7999 14.35C14.7999 14.0314 14.7091 13.7336 14.5521 13.4812C15.1021 13.2133 15.482 12.6485 15.482 11.9967C15.482 11.6489 15.3739 11.3259 15.1895 11.0597C15.6709 10.7711 15.9937 10.2442 15.9937 9.64335ZM3.33083 13.9814H0.952484V7.97628H3.33083V13.9814ZM14.3437 10.3467H13.8321C13.5707 10.3467 13.3588 10.5586 13.3588 10.82C13.3588 11.0814 13.5707 11.2933 13.8321 11.2933C14.2199 11.2933 14.5355 11.6088 14.5355 11.9967C14.5355 12.3845 14.2199 12.7 13.8321 12.7H13.15C12.8885 12.7 12.6766 12.912 12.6766 13.1733C12.6766 13.4347 12.8886 13.6467 13.15 13.6467C13.5378 13.6467 13.8533 13.9622 13.8533 14.35C13.8533 14.7378 13.5378 15.0533 13.15 15.0533H9.35476C7.61152 15.0533 5.90514 14.7432 4.27752 14.1309V7.75482C4.9923 7.26169 7.24305 5.60963 7.92386 3.92022C7.92492 3.91753 7.92598 3.91485 7.92702 3.91216L8.84773 1.50144C8.85033 1.49469 8.85277 1.48785 8.85498 1.481C8.94427 1.21069 9.07958 1.02897 9.23608 0.969377C9.38783 0.911533 9.55089 0.97519 9.66092 1.03878C9.66498 1.04113 10.0598 1.3356 9.7662 3.53772C9.59942 4.78838 9.29652 5.98456 9.29352 5.9965C9.25742 6.1381 9.28883 6.28844 9.37842 6.40381C9.46811 6.51919 9.60602 6.58672 9.75217 6.58672H13.8322C14.22 6.58672 14.5355 6.90225 14.5355 7.29006C14.5355 7.67788 14.22 7.99341 13.8322 7.99341C13.5708 7.99341 13.3589 8.20535 13.3589 8.46672C13.3589 8.72813 13.5708 8.94003 13.8322 8.94003H14.3438C14.7316 8.94003 15.0471 9.25556 15.0471 9.64338C15.0471 10.0312 14.7315 10.3467 14.3437 10.3467Z" fill="#606770"/>
</g>
</g>
</g>
<defs>
<clipPath id="clip0_2240_31086">
<rect width="16" height="16" fill="white"/>
</clipPath>
</defs>
</svg>
