<svg width="22" height="23" viewBox="0 0 22 23" fill="none" xmlns="http://www.w3.org/2000/svg">
<g id="place 1">
<g id="g2040">
<g id="g2042">
<g id="Clip path group">
<mask id="mask0_1829_37807" style="mask-type:luminance" maskUnits="userSpaceOnUse" x="2" y="2" width="18" height="19">
<g id="clipPath2048">
<path id="path2046" d="M2 2.5H20V20.5H2V2.5Z" fill="white"/>
</g>
</mask>
<g mask="url(#mask0_1829_37807)">
<g id="g2044">
<g id="g2050">
<path id="path2052 (Stroke)" fill-rule="evenodd" clip-rule="evenodd" d="M2.35156 13.8335C2.54573 13.8335 2.70313 13.6761 2.70313 13.4819V8.54687C2.70313 8.1588 2.86019 7.80769 3.11519 7.55269C3.3702 7.29769 3.7213 7.14062 4.10938 7.14062C4.88588 7.14062 5.51563 7.77037 5.51563 8.54687V9.60156C5.51563 9.79572 5.67303 9.95312 5.86719 9.95312C6.06135 9.95312 6.21875 9.79572 6.21875 9.60156V8.54687C6.21875 7.38205 5.2742 6.4375 4.10938 6.4375C3.52714 6.4375 2.99934 6.67418 2.61801 7.05551C2.23668 7.43684 2 7.96464 2 8.54687V13.4819C2 13.6761 2.1574 13.8335 2.35156 13.8335Z" fill="#606770"/>
</g>
<g id="g2054">
<path id="path2056 (Stroke)" fill-rule="evenodd" clip-rule="evenodd" d="M4.20957 19.7969C3.44442 19.7969 2.78168 19.247 2.71056 18.5375C2.70562 18.4868 2.70313 18.4379 2.70313 18.3906C2.70313 17.6141 3.33287 16.9844 4.10938 16.9844C4.88588 16.9844 5.51563 17.6141 5.51563 18.3906C5.51563 18.5848 5.67303 18.7422 5.86719 18.7422C6.06135 18.7422 6.21875 18.5848 6.21875 18.3906V11.7109C6.21875 11.5168 6.06135 11.3594 5.86719 11.3594C5.67303 11.3594 5.51563 11.5168 5.51563 11.7109V16.8185C5.14242 16.4844 4.64958 16.2812 4.10938 16.2812C2.94455 16.2812 2 17.2258 2 18.3906C2 18.4628 2.00382 18.5347 2.01081 18.6062L2.01088 18.607C2.12277 19.7267 3.13618 20.5 4.20957 20.5H5.86719C6.06135 20.5 6.21875 20.3426 6.21875 20.1484C6.21875 19.9543 6.06135 19.7969 5.86719 19.7969H4.20957Z" fill="#606770"/>
</g>
<g id="g2058">
<path id="path2060 (Stroke)" fill-rule="evenodd" clip-rule="evenodd" d="M8.53906 20.1484C8.53906 20.3426 8.69646 20.5 8.89063 20.5H17.8906C19.0558 20.5 20 19.5558 20 18.3906C20 18.1965 19.8426 18.0391 19.6484 18.0391C19.4543 18.0391 19.2969 18.1965 19.2969 18.3906C19.2969 19.1675 18.6675 19.7969 17.8906 19.7969H8.89063C8.69646 19.7969 8.53906 19.9543 8.53906 20.1484Z" fill="#606770"/>
</g>
<g id="g2062">
<path id="path2064 (Stroke)" fill-rule="evenodd" clip-rule="evenodd" d="M16.1328 18.7422C16.327 18.7422 16.4844 18.5848 16.4844 18.3906C16.4844 17.4922 17.3256 16.7894 18.271 17.0337L18.271 17.0337C18.7392 17.1546 19.1266 17.542 19.2476 18.0103C19.2814 18.1411 19.2969 18.2683 19.2969 18.3906C19.2969 18.5848 19.4543 18.7422 19.6484 18.7422C19.8426 18.7422 20 18.5848 20 18.3906V8.54687C20 7.38205 19.0555 6.4375 17.8906 6.4375C17.3084 6.4375 16.7806 6.67418 16.3993 7.05551C16.0179 7.43683 15.7812 7.96463 15.7812 8.54687V13.8203C15.7812 14.0145 15.9386 14.1719 16.1328 14.1719C16.327 14.1719 16.4844 14.0145 16.4844 13.8203V8.54687C16.4844 8.1588 16.6414 7.80769 16.8964 7.55269C17.1514 7.29769 17.5026 7.14062 17.8906 7.14062C18.6671 7.14062 19.2969 7.77037 19.2969 8.54687V16.8098C19.0553 16.5948 18.7643 16.4349 18.4468 16.3529C17.6957 16.1588 16.9834 16.3714 16.4844 16.8183V15.9297C16.4844 15.7355 16.327 15.5781 16.1328 15.5781C15.9386 15.5781 15.7812 15.7355 15.7812 15.9297V18.3906C15.7812 18.5848 15.9386 18.7422 16.1328 18.7422Z" fill="#606770"/>
</g>
<g id="g2066">
<path id="path2068 (Stroke)" fill-rule="evenodd" clip-rule="evenodd" d="M2.35156 18.7422C2.54573 18.7422 2.70313 18.5848 2.70313 18.3906V13.3281C2.70313 13.134 2.54573 12.9766 2.35156 12.9766C2.1574 12.9766 2 13.134 2 13.3281V18.3906C2 18.5848 2.1574 18.7422 2.35156 18.7422Z" fill="#606770"/>
</g>
<g id="g2070">
<path id="path2072 (Stroke)" fill-rule="evenodd" clip-rule="evenodd" d="M12.2661 9.60156C12.2661 9.79573 12.4235 9.95312 12.6177 9.95312H16.1329C16.3271 9.95312 16.4845 9.79573 16.4845 9.60156C16.4845 9.4074 16.3271 9.25 16.1329 9.25H12.6177C12.4235 9.25 12.2661 9.4074 12.2661 9.60156Z" fill="#606770"/>
</g>
<g id="g2074">
<path id="path2076 (Stroke)" fill-rule="evenodd" clip-rule="evenodd" d="M5.54078 20.279C5.59417 20.4125 5.72344 20.5 5.8672 20.5H8.89064C8.98388 20.5 9.0733 20.463 9.13923 20.397L13.255 16.2812H16.1328C16.327 16.2812 16.4844 16.1238 16.4844 15.9297V13.8203C16.4844 13.6261 16.327 13.4687 16.1328 13.4687H11.2812C10.6574 12.8747 9.61698 11.8838 8.71262 11.0225C8.23485 10.5675 7.79505 10.1486 7.47469 9.84346L6.95356 9.34713L6.95345 9.34702C6.95343 9.347 6.95341 9.34699 6.71095 9.60156L6.95341 9.34699C6.88804 9.28473 6.80123 9.25 6.71095 9.25H5.8672C5.67304 9.25 5.51564 9.4074 5.51564 9.60156V11.7109C5.51564 11.8071 5.55507 11.8992 5.62474 11.9655L9.78712 15.9297L5.62474 19.8939C5.52064 19.993 5.48739 20.1455 5.54078 20.279ZM6.57032 9.95312L6.98976 10.3526C7.31012 10.6577 7.74992 11.0766 8.2277 11.5316C9.18324 12.4417 10.2907 13.4964 10.8982 14.0749C10.9636 14.1372 11.0504 14.1719 11.1406 14.1719H15.7813V15.5781H13.1094C13.0161 15.5781 12.9267 15.6152 12.8608 15.6811L8.74502 19.7969H6.74611L10.5393 16.1843C10.609 16.1179 10.6485 16.0259 10.6485 15.9297C10.6485 15.8335 10.609 15.7415 10.5393 15.6751L6.21876 11.5603V9.95312H6.57032Z" fill="#606770"/>
</g>
<g id="g2078">
<path id="path2080 (Stroke)" fill-rule="evenodd" clip-rule="evenodd" d="M6.35938 9.60156C6.35938 9.79573 6.51677 9.95312 6.71094 9.95312H9.38246C9.57662 9.95312 9.73402 9.79573 9.73402 9.60156C9.73402 9.4074 9.57662 9.25 9.38246 9.25H6.71094C6.51677 9.25 6.35938 9.4074 6.35938 9.60156Z" fill="#606770"/>
</g>
<g id="g2082">
<path id="path2084 (Stroke)" d="M11.2916 12.2489C11.2225 12.3401 11.1146 12.3938 11 12.3938C10.8855 12.3937 10.7776 12.3401 10.7085 12.2489C10.7074 12.2476 10.7069 12.2468 10.707 12.2469L10.7046 12.2438L10.7046 12.2438L10.698 12.2348L10.6999 12.2335L10.698 12.2348L10.6728 12.2008C10.6508 12.1711 10.6189 12.1275 10.5784 12.0717C10.4973 11.9602 10.382 11.7995 10.244 11.6021C9.96824 11.2076 9.60079 10.6646 9.23547 10.0722L9.23547 10.0722L9.23547 10.0722L9.23546 10.0722L9.23546 10.0722L9.23546 10.0722L9.23546 10.0722L9.23546 10.0722L9.23546 10.0722L9.23546 10.0722L9.23546 10.0722L9.23546 10.0722L9.23546 10.0722L9.23545 10.0722L9.23545 10.0722L9.23545 10.0722L9.23545 10.0722L9.23545 10.0722L9.23545 10.0722L9.23545 10.0722L9.23545 10.0722L9.23545 10.0722L9.23545 10.0722L9.23544 10.0722L9.23544 10.0722L9.23544 10.0722L9.23544 10.0722L9.23544 10.0722L9.23544 10.0722L9.23544 10.0722L9.23544 10.0722L9.23544 10.0722L9.23544 10.0722L9.23543 10.0722L9.23543 10.0722L9.23543 10.0722L9.23543 10.0722L9.23542 10.0722L9.23542 10.0722L9.23542 10.0722L9.23542 10.0722L11.2916 12.2489ZM12.7646 10.0723C12.3993 10.6646 12.0318 11.2076 11.7561 11.6021C11.6181 11.7995 11.5027 11.9602 11.4217 12.0718C11.3812 12.1275 11.3492 12.1711 11.3273 12.2008L11.3021 12.2349L11.2954 12.2438L11.2954 12.2438L11.2931 12.2469L12.7646 10.0723ZM10.8437 11.1829C10.9 11.2634 10.9524 11.3376 11 11.4046C11.0477 11.3376 11.1001 11.2634 11.1564 11.1829C11.427 10.7958 11.7861 10.265 12.1419 9.6881L12.1419 9.68801C12.488 9.12722 12.8268 8.5294 13.0779 7.98161C13.3352 7.42013 13.4768 6.96033 13.4768 6.65848C13.4768 5.29045 12.3681 4.1817 11 4.1817C9.63201 4.1817 8.52325 5.29045 8.52325 6.65848C8.52325 6.96033 8.66486 7.42013 8.92222 7.98161C9.1733 8.5294 9.51209 9.12722 9.85816 9.68801L9.85819 9.68806L9.85821 9.68809C9.85822 9.68811 9.85823 9.68812 9.85824 9.68814C10.214 10.265 10.5731 10.7958 10.8437 11.1829Z" fill="#606770" stroke="#606770" stroke-width="0.1" stroke-miterlimit="10" stroke-linecap="round" stroke-linejoin="round"/>
</g>
<g id="g2086">
<path id="path2088 (Stroke)" d="M10.1024 6.65855C10.1024 7.15326 10.5052 7.5561 10.9999 7.5561C11.4946 7.5561 11.8974 7.15326 11.8974 6.65855C11.8974 6.16384 11.4946 5.76101 10.9999 5.76101C10.5052 5.76101 10.1024 6.16384 10.1024 6.65855ZM10.9999 8.28779C10.1011 8.28779 9.37065 7.55737 9.37065 6.65855C9.37065 5.75974 10.1011 5.02931 10.9999 5.02931C11.8987 5.02931 12.6291 5.75974 12.6291 6.65855C12.6291 7.55737 11.8987 8.28779 10.9999 8.28779Z" fill="#606770" stroke="#606770" stroke-width="0.1" stroke-miterlimit="10" stroke-linecap="round" stroke-linejoin="round"/>
</g>
</g>
</g>
</g>
</g>
</g>
</g>
</svg>
