<svg width="64" height="65" viewBox="0 0 64 65" fill="none" xmlns="http://www.w3.org/2000/svg">
<circle cx="31.978" cy="32.7168" r="31.2383" stroke="#E8EEF3"/>
<path fill-rule="evenodd" clip-rule="evenodd" d="M38.9897 25.9785H36.3197L35.1097 24.6585C34.6669 24.2231 34.0708 23.9789 33.4497 23.9785H30.5297C29.8979 23.9838 29.2939 24.2391 28.8497 24.6885L27.6597 25.9785H24.9897C24.5755 25.9785 24.2397 26.3143 24.2397 26.7285C24.2397 27.1427 24.5755 27.4785 24.9897 27.4785H38.9897C39.404 27.4785 39.7397 27.1427 39.7397 26.7285C39.7397 26.3143 39.404 25.9785 38.9897 25.9785ZM29.9297 25.7185C30.0893 25.5599 30.3047 25.4701 30.5297 25.4685H33.4497C33.6654 25.4679 33.8731 25.5502 34.0297 25.6985L34.2797 25.9685H29.6997L29.9297 25.7185Z" fill="#87AAC1"/>
<path fill-rule="evenodd" clip-rule="evenodd" d="M24.4697 30.4985V37.9785C24.4697 40.4417 26.4666 42.4385 28.9297 42.4385H35.0497C37.5129 42.4385 39.5097 40.4417 39.5097 37.9785V30.4985C39.5097 29.3939 38.6143 28.4985 37.5097 28.4985H26.5097C25.9724 28.4878 25.4534 28.6937 25.0696 29.07C24.6858 29.4462 24.4696 29.9611 24.4697 30.4985ZM29.7397 34.0285C29.7397 34.4427 29.404 34.7785 28.9897 34.7785C28.5755 34.7785 28.2397 34.4427 28.2397 34.0285V31.6585C28.2397 31.2443 28.5755 30.9085 28.9897 30.9085C29.404 30.9085 29.7397 31.2443 29.7397 31.6585V34.0285ZM31.9897 38.7285C32.404 38.7285 32.7397 38.3927 32.7397 37.9785V31.6585C32.7397 31.2443 32.404 30.9085 31.9897 30.9085C31.5755 30.9085 31.2397 31.2443 31.2397 31.6585V37.9785C31.2397 38.3927 31.5755 38.7285 31.9897 38.7285ZM35.7397 34.0285C35.7397 34.4427 35.404 34.7785 34.9897 34.7785C34.5755 34.7785 34.2397 34.4427 34.2397 34.0285V31.6585C34.2397 31.2443 34.5755 30.9085 34.9897 30.9085C35.404 30.9085 35.7397 31.2443 35.7397 31.6585V34.0285Z" fill="#87AAC1"/>
</svg>
