<svg width="25" height="25" viewBox="0 0 25 25" fill="none" xmlns="http://www.w3.org/2000/svg">
<path d="M15.5 5.75001H14.06L16.085 3.21501C16.1563 3.13949 16.2111 3.04998 16.246 2.95216C16.2809 2.85435 16.2951 2.75035 16.2877 2.64675C16.2803 2.54316 16.2515 2.44224 16.203 2.35037C16.1546 2.25851 16.0876 2.1777 16.0063 2.11308C15.925 2.04845 15.8311 2.00142 15.7307 1.97496C15.6303 1.94849 15.5255 1.94317 15.4229 1.95933C15.3203 1.9755 15.2222 2.01279 15.1347 2.06885C15.0473 2.12492 14.9725 2.19852 14.915 2.28501L12.5 5.30001L10.085 2.30001C9.95602 2.16338 9.78046 2.08013 9.59304 2.06674C9.40562 2.05335 9.22001 2.1108 9.07292 2.22772C8.92583 2.34463 8.82798 2.5125 8.79874 2.69811C8.7695 2.88371 8.81099 3.07353 8.915 3.23001L10.94 5.75001H9.5C5.525 5.75001 2.75 8.21751 2.75 11.75V16.25C2.75 18.0402 3.46116 19.7571 4.72703 21.023C5.9929 22.2889 7.70979 23 9.5 23H15.5C17.2902 23 19.0071 22.2889 20.273 21.023C21.5388 19.7571 22.25 18.0402 22.25 16.25V11.75C22.25 8.21751 19.475 5.75001 15.5 5.75001ZM15.1325 14.645L11.3825 16.895C11.2667 16.9637 11.1346 17 11 17C10.8712 16.9996 10.7446 16.966 10.6325 16.9025C10.5167 16.8374 10.4202 16.7427 10.353 16.628C10.2858 16.5134 10.2502 16.3829 10.25 16.25V11.75C10.25 11.6176 10.2851 11.4876 10.3516 11.3732C10.4182 11.2587 10.5138 11.1639 10.6288 11.0984C10.7439 11.0329 10.8742 10.999 11.0065 11.0002C11.1389 11.0013 11.2686 11.0375 11.3825 11.105L15.1325 13.355C15.2444 13.4214 15.3371 13.5158 15.4015 13.6289C15.4659 13.742 15.4998 13.8699 15.4998 14C15.4998 14.1302 15.4659 14.258 15.4015 14.3711C15.3371 14.4842 15.2444 14.5786 15.1325 14.645Z" fill="#D95C07"/>
</svg>
