<svg width="17" height="17" viewBox="0 0 17 17" fill="none" xmlns="http://www.w3.org/2000/svg">
<g id="video-lesson 1">
<g id="Group">
<g id="Group_2">
<g id="Group_3">
<g id="Group_4">
<path id="Vector" d="M15.0374 2.42676H2.19297C1.68186 2.42676 1.28186 2.82676 1.28186 3.31565V11.649C1.28186 12.1379 1.68186 12.5601 2.19297 12.5601H15.0596C15.5485 12.5601 15.9707 12.1601 15.9707 11.649V3.31565C15.9485 2.82676 15.5485 2.42676 15.0374 2.42676ZM8.61519 11.1601C6.59297 11.1601 4.9263 9.51565 4.9263 7.4712C4.9263 5.44898 6.57075 3.78231 8.61519 3.78231C10.6374 3.78231 12.3041 5.42676 12.3041 7.4712C12.3041 9.51565 10.6374 11.1601 8.61519 11.1601Z" fill="#D9EBF7"/>
</g>
<g id="Group_5">
<g id="Group_6">
<path id="Vector_2" d="M10.2819 7.49316C10.2819 7.71539 10.1708 7.91539 9.97078 8.04872L8.12634 9.15983C8.01523 9.2265 7.90412 9.24872 7.793 9.24872C7.68189 9.24872 7.57078 9.2265 7.48189 9.15983C7.28189 9.04872 7.14856 8.8265 7.14856 8.60428V6.38205C7.14856 6.15983 7.25967 5.93761 7.48189 5.8265C7.68189 5.71539 7.92634 5.71539 8.12634 5.8265L9.97078 6.93761C10.1708 7.04872 10.2819 7.24872 10.2819 7.49316Z" fill="#E4F4FF"/>
</g>
</g>
</g>
</g>
</g>
<path id="Union" fill-rule="evenodd" clip-rule="evenodd" d="M5.13108 14.3817H15.7263C15.8596 14.3817 15.9485 14.4706 15.9485 14.604C15.9485 14.7151 15.8596 14.8262 15.7263 14.8262H5.15207C5.07033 15.3746 4.59738 15.7953 4.02618 15.7953C3.45497 15.7953 2.98202 15.3746 2.90028 14.8262H1.70403C1.5707 14.8262 1.48181 14.7151 1.48181 14.604C1.48181 14.4706 1.5707 14.3817 1.70403 14.3817H2.92127C3.04434 13.886 3.49235 13.5186 4.02618 13.5186C4.56 13.5186 5.00801 13.886 5.13108 14.3817Z" fill="#E4F4FF"/>
</g>
</svg>
