<svg width="23" height="23" viewBox="0 0 23 23" fill="none" xmlns="http://www.w3.org/2000/svg">
<path d="M5.00477 8.45561L5.00477 8.45562H5.00572H12.3871V8.45563L12.3881 8.45561C12.4801 8.45386 12.5678 8.41606 12.6323 8.35034C12.6968 8.28462 12.7329 8.19623 12.7329 8.10417C12.7329 8.0121 12.6968 7.92371 12.6323 7.858C12.5678 7.79229 12.4801 7.75449 12.3881 7.75274V7.75273H12.3871H5.00572V7.75273L5.00477 7.75274C4.91272 7.7545 4.82503 7.79229 4.76056 7.85801C4.69608 7.92372 4.65996 8.01211 4.65996 8.10418C4.65996 8.19624 4.69608 8.28463 4.76056 8.35035C4.82503 8.41607 4.91272 8.45386 5.00477 8.45561Z" fill="#606770" stroke="#606770" stroke-width="0.1"/>
<path d="M5.00498 10.7505L5.00498 10.7505H5.00597H9.54963V10.7505L9.55062 10.7505C9.64262 10.7487 9.73024 10.7109 9.79465 10.6452C9.85907 10.5794 9.89515 10.4911 9.89514 10.3991C9.89514 10.3071 9.85905 10.2187 9.79463 10.153C9.73021 10.0873 9.6426 10.0495 9.5506 10.0477V10.0477H9.54961H5.00597V10.0476L5.00498 10.0477C4.91298 10.0495 4.82537 10.0873 4.76095 10.153C4.69653 10.2187 4.66045 10.3071 4.66045 10.3991C4.66045 10.4911 4.69653 10.5795 4.76095 10.6452C4.82537 10.7109 4.91298 10.7487 5.00498 10.7505Z" fill="#606770" stroke="#606770" stroke-width="0.1"/>
<path d="M9.64875 12.3445V12.3445H9.64782H5.00555C4.91234 12.3445 4.82295 12.3816 4.75704 12.4475C4.69113 12.5134 4.6541 12.6028 4.6541 12.696C4.6541 12.7892 4.69113 12.8786 4.75704 12.9445C4.82295 13.0104 4.91234 13.0474 5.00555 13.0474H9.64782V13.0474L9.64875 13.0474C9.74083 13.0457 9.82856 13.0079 9.89308 12.9422C9.95759 12.8765 9.99374 12.7881 9.99374 12.696C9.99374 12.6039 9.95759 12.5155 9.89308 12.4497C9.82856 12.384 9.74083 12.3462 9.64875 12.3445Z" fill="#606770" stroke="#606770" stroke-width="0.1"/>
<path d="M8.95995 14.6414V14.6414H8.95902H5.00587V14.6414L5.00494 14.6414C4.91286 14.6431 4.82513 14.6809 4.76062 14.7466C4.6961 14.8123 4.65996 14.9008 4.65996 14.9929C4.65996 15.085 4.69611 15.1734 4.76063 15.2391C4.82515 15.3048 4.91288 15.3426 5.00496 15.3443L5.00496 15.3443H5.00589H8.95902V15.3443L8.95995 15.3443C9.05203 15.3426 9.13976 15.3048 9.20428 15.2391C9.2688 15.1734 9.30494 15.0849 9.30494 14.9929C9.30494 14.9008 9.2688 14.8123 9.20428 14.7466L9.1686 14.7816L9.20428 14.7466C9.13976 14.6809 9.05203 14.6431 8.95995 14.6414Z" fill="#606770" stroke="#606770" stroke-width="0.1"/>
<path d="M15.4116 4.92673L16.4901 3.37199L16.4902 3.37192C16.6315 3.16905 16.8474 3.03043 17.0906 2.98642C17.3339 2.9424 17.5847 2.99659 17.7881 3.1371L17.7881 3.13715L18.66 3.74188L15.4116 4.92673ZM15.4116 4.92673C15.3683 4.65367 15.2366 4.40082 15.0348 4.20814C14.7997 3.98363 14.4873 3.85797 14.1622 3.85711H14.1621H3.23112L3.23106 3.85711C2.89437 3.8575 2.57159 3.99143 2.33353 4.22952C2.09547 4.46761 1.96158 4.79042 1.96123 5.1271V5.12716L1.96123 17.9686L1.96123 17.9687C1.96158 18.3053 2.09547 18.6281 2.33353 18.8662C2.57159 19.1043 2.89437 19.2383 3.23106 19.2387H3.23112H14.1621H14.1622C14.4988 19.2383 14.8216 19.1043 15.0597 18.8662C15.2977 18.6281 15.4316 18.3053 15.432 17.9687V17.9686V10.0311C15.8513 9.4264 16.5539 8.41364 17.243 7.42048C17.8855 6.49443 18.5161 5.58543 18.8942 5.04022C18.9644 4.93973 19.014 4.82632 19.04 4.70655C19.0661 4.58682 19.0681 4.46312 19.0461 4.34259M15.4116 4.92673L18.6601 3.74195C18.7609 3.81157 18.847 3.90051 18.9132 4.00361C18.9795 4.10671 19.0247 4.22193 19.0461 4.34259M19.0461 4.34259C19.0461 4.34264 19.0461 4.34268 19.0461 4.34273L18.9969 4.35147L19.0461 4.34246C19.0461 4.3425 19.0461 4.34255 19.0461 4.34259ZM11.0924 11.1515L11.0931 11.152L14.7291 5.91057V5.12719C14.729 4.97682 14.6692 4.83265 14.5629 4.72632C14.4566 4.61998 14.3124 4.56016 14.162 4.55998H3.23117C3.08081 4.56016 2.93666 4.61998 2.83035 4.72632C2.72405 4.83264 2.66426 4.97679 2.66411 5.12714C2.66411 5.12716 2.66411 5.12717 2.66411 5.12719M11.0924 11.1515L2.61411 5.12714L2.66411 5.12719M11.0924 11.1515L11.0887 11.1598C11.0836 11.1709 11.0782 11.1824 11.0726 11.1943C11.0631 11.2146 11.0531 11.2358 11.0441 11.2569L11.0435 11.2566L11.0416 11.2641L10.2592 14.2796L10.259 14.2804C10.2423 14.3491 10.2467 14.4212 10.2715 14.4874C10.2962 14.5536 10.3403 14.6108 10.3979 14.6517C10.4556 14.6926 10.5241 14.7152 10.5948 14.7168C10.6654 14.7183 10.7349 14.6986 10.7943 14.6602L10.7949 14.6597L13.3995 12.9148L13.3996 12.915L13.4038 12.9116C13.4381 12.8828 13.47 12.8511 13.4991 12.817L13.4992 12.8171L13.5021 12.8131L14.7291 11.0443L14.7291 17.9686C14.7289 18.1189 14.6692 18.2631 14.5629 18.3694C14.4565 18.4758 14.3124 18.5356 14.162 18.5358H3.23118C3.08081 18.5356 2.93666 18.4758 2.83035 18.3694C2.72405 18.2631 2.66426 18.119 2.66411 17.9686M11.0924 11.1515L2.66411 17.9686M2.66411 5.12719V17.9686M2.66411 5.12719V17.9686M2.66411 17.9686L2.66411 17.9686M2.66411 17.9686L2.66411 17.9686M17.2413 6.19009L18.3169 4.63943C18.3514 4.58923 18.3648 4.52741 18.3539 4.46744C18.3431 4.40752 18.309 4.35429 18.2592 4.31935C18.2591 4.31933 18.2591 4.3193 18.2591 4.31928L17.3874 3.71481L17.2413 6.19009ZM17.2413 6.19009L15.9918 5.3233L17.0674 3.77274L17.2413 6.19009ZM17.2154 3.67768C17.1555 3.68854 17.1023 3.72269 17.0674 3.77267L17.2154 3.67768ZM17.2154 3.67768C17.2754 3.66683 17.3372 3.68016 17.3873 3.71475L17.2154 3.67768ZM11.1717 13.5613L11.5953 11.9283L12.5847 12.6147L11.1717 13.5613ZM16.8405 6.76776L13.1201 12.1306L11.8708 11.2639L15.591 5.90096L16.8405 6.76776Z" fill="#606770" stroke="#606770" stroke-width="0.1"/>
</svg>
