<svg width="22" height="23" viewBox="0 0 22 23" fill="none" xmlns="http://www.w3.org/2000/svg">
<g id="digital 1">
<g id="layer1">
<g id="g3591">
<path id="path3365 (Stroke)" fill-rule="evenodd" clip-rule="evenodd" d="M9.77055 6.6158C9.89602 6.51629 10.0735 6.51642 10.1988 6.61612C10.5856 6.92382 10.835 7.19403 11.0078 7.45134C11.1814 7.70965 11.2676 7.9406 11.3398 8.14186C11.404 8.32083 11.311 8.51797 11.132 8.58218C10.953 8.64639 10.7559 8.55335 10.6917 8.37437C10.6232 8.18355 10.5601 8.01959 10.4363 7.83533C10.3402 7.69233 10.2016 7.52862 9.98432 7.33489C9.77261 7.52366 9.63387 7.68619 9.53633 7.82989C9.41018 8.01574 9.3433 8.18384 9.27863 8.3707C9.21645 8.55039 9.02038 8.64566 8.84068 8.58348C8.66099 8.5213 8.56573 8.32522 8.62791 8.14553C8.70028 7.93639 8.7906 7.70246 8.9666 7.44317C9.14157 7.18539 9.39144 6.91649 9.77055 6.6158Z" fill="#606770"/>
<path id="path3367 (Stroke)" fill-rule="evenodd" clip-rule="evenodd" d="M4.39563 8.14424C4.45239 7.98945 4.61092 7.89663 4.77368 7.92288C5.23398 7.9971 5.5661 8.10843 5.83002 8.24793C6.09437 8.38766 6.27373 8.5475 6.42588 8.6865C6.56626 8.81475 6.57609 9.03252 6.44784 9.17291C6.31959 9.31329 6.10182 9.32312 5.96143 9.19487C5.81677 9.06271 5.69096 8.95329 5.50824 8.85671C5.37239 8.7849 5.19598 8.71571 4.949 8.65817C4.86795 8.92542 4.832 9.13562 4.82021 9.31021C4.80473 9.53942 4.82959 9.72247 4.86469 9.91885C4.89814 10.106 4.77352 10.2849 4.58634 10.3183C4.39916 10.3518 4.2203 10.2272 4.18685 10.04C4.14787 9.82188 4.11217 9.57506 4.13319 9.2638C4.15411 8.95418 4.22989 8.59621 4.39563 8.14424Z" fill="#606770"/>
<path id="path3369 (Stroke)" fill-rule="evenodd" clip-rule="evenodd" d="M15.8839 7.92288C16.0467 7.89663 16.2052 7.98945 16.262 8.14424C16.4277 8.59621 16.5035 8.95418 16.5244 9.2638C16.5454 9.57506 16.5097 9.82188 16.4707 10.04C16.4373 10.2272 16.2584 10.3518 16.0712 10.3183C15.8841 10.2849 15.7594 10.106 15.7929 9.91885C15.828 9.72247 15.8529 9.53942 15.8374 9.31021C15.8256 9.13562 15.7896 8.92542 15.7086 8.65817C15.4616 8.71571 15.2852 8.7849 15.1493 8.85671C14.9666 8.95329 14.8408 9.06271 14.6961 9.19487C14.5558 9.32312 14.338 9.31329 14.2097 9.17291C14.0815 9.03252 14.0913 8.81475 14.2317 8.6865C14.3838 8.5475 14.5632 8.38766 14.8276 8.24793C15.0915 8.10843 15.4236 7.9971 15.8839 7.92288Z" fill="#606770"/>
<path id="path3371 (Stroke)" fill-rule="evenodd" clip-rule="evenodd" d="M2.11008 12.9801C2.78248 12.7372 3.10121 12.7084 3.37748 12.7579C3.56465 12.7914 3.74355 12.6668 3.77705 12.4796C3.81055 12.2924 3.68598 12.1136 3.49881 12.08C2.99149 11.9892 2.47624 12.0951 1.59657 12.4377C1.4467 12.496 1.35721 12.6504 1.38101 12.8094C1.52298 13.7581 1.82635 14.3146 2.14922 14.6831C2.27453 14.8261 2.49205 14.8404 2.63506 14.7151C2.77808 14.5898 2.79243 14.3723 2.66711 14.2293C2.46842 14.0025 2.24548 13.6403 2.11008 12.9801Z" fill="#606770"/>
<path id="path3365-5 (Stroke)" fill-rule="evenodd" clip-rule="evenodd" d="M2.25511 15.8991C2.34664 15.963 2.40153 16.0673 2.40236 16.1789L2.41002 17.2069C2.41144 17.397 2.25845 17.5523 2.06831 17.5537C1.87817 17.5552 1.72288 17.4022 1.72146 17.212L1.71771 16.7093C1.69156 16.725 1.66513 16.7418 1.63826 16.7598C1.454 16.8838 1.23505 17.079 0.961296 17.4236C0.843019 17.5725 0.626442 17.5973 0.477558 17.479C0.328674 17.3608 0.303862 17.1442 0.422138 16.9953C0.7285 16.6096 0.997577 16.3609 1.25389 16.1885C1.51123 16.0154 1.7413 15.9294 1.94172 15.8574C2.04676 15.8197 2.16358 15.8352 2.25511 15.8991Z" fill="#606770"/>
<path id="path3388 (Stroke)" fill-rule="evenodd" clip-rule="evenodd" d="M18.1916 11.7358C18.699 11.645 19.2142 11.7508 20.0939 12.0934C20.2438 12.1518 20.3332 12.3061 20.3094 12.4652C20.1675 13.4139 19.8641 13.9704 19.5412 14.3388C19.4159 14.4819 19.1984 14.4962 19.0554 14.3709C18.9124 14.2456 18.898 14.0281 19.0233 13.8851C19.222 13.6583 19.445 13.296 19.5804 12.6359C18.908 12.393 18.5892 12.3642 18.313 12.4136C18.1258 12.4471 17.9469 12.3226 17.9134 12.1354C17.8799 11.9482 18.0045 11.7693 18.1916 11.7358Z" fill="#606770"/>
<path id="path3409 (Stroke)" fill-rule="evenodd" clip-rule="evenodd" d="M9.29593 16.7298C9.10352 16.7298 8.95176 16.884 8.95177 17.0691C8.95177 17.2593 8.79762 17.4134 8.60748 17.4134C8.41733 17.4134 8.26319 17.2593 8.26318 17.0691C8.26318 16.4991 8.72789 16.0413 9.29593 16.0413C9.86398 16.0413 10.3287 16.4991 10.3287 17.0691C10.3287 17.2593 10.1745 17.4134 9.98439 17.4134C9.79424 17.4134 9.6401 17.2593 9.6401 17.0691C9.64011 16.884 9.48834 16.7298 9.29593 16.7298Z" fill="#606770"/>
<path id="circle3411 (Stroke)" fill-rule="evenodd" clip-rule="evenodd" d="M9.29617 15.3534C8.34464 15.3534 7.57481 16.1225 7.57481 17.0693C7.57481 17.2595 7.42067 17.4136 7.23052 17.4136C7.04037 17.4136 6.88623 17.2595 6.88623 17.0693C6.88623 15.7405 7.96605 14.6648 9.29617 14.6648C10.6263 14.6648 11.7061 15.7405 11.7061 17.0693C11.7061 17.2595 11.552 17.4136 11.3618 17.4136C11.1717 17.4136 11.0175 17.2595 11.0175 17.0693C11.0175 16.1225 10.2477 15.3534 9.29617 15.3534Z" fill="#606770"/>
<path id="circle3413 (Stroke)" fill-rule="evenodd" clip-rule="evenodd" d="M9.29623 13.9767C7.58434 13.9767 6.19761 15.3618 6.19762 17.0692C6.19762 17.2594 6.04347 17.4135 5.85332 17.4135C5.66318 17.4135 5.50903 17.2594 5.50903 17.0692C5.50903 14.9804 7.20519 13.2881 9.29623 13.2881C11.3873 13.2881 13.0834 14.9804 13.0834 17.0692C13.0834 17.2594 12.9293 17.4135 12.7391 17.4135C12.549 17.4135 12.3948 17.2594 12.3948 17.0692C12.3949 15.3618 11.0081 13.9767 9.29623 13.9767Z" fill="#606770"/>
<path id="circle3417 (Stroke)" fill-rule="evenodd" clip-rule="evenodd" d="M9.27398 11.2235C7.65097 11.2235 6.18237 11.8777 5.11913 12.9362L5.11913 12.9362C5.10139 12.9539 5.08583 12.9694 5.07072 12.985C4.93822 13.1213 4.72025 13.1245 4.58387 12.992C4.44749 12.8595 4.44435 12.6415 4.57685 12.5051C4.59649 12.4849 4.61589 12.4656 4.63332 12.4482M4.63332 12.4482C5.82075 11.2661 7.46213 10.5349 9.27398 10.5349C12.8975 10.5349 15.8376 13.4589 15.8376 17.0693C15.8376 17.2594 15.6835 17.4136 15.4933 17.4136C15.3032 17.4136 15.1491 17.2594 15.1491 17.0693C15.1491 13.8423 12.5202 11.2235 9.27398 11.2235" fill="#606770"/>
<path id="path3460 (Stroke)" fill-rule="evenodd" clip-rule="evenodd" d="M13.446 10.7687C13.4933 10.629 13.6245 10.5349 13.772 10.5349C15.4867 10.5349 16.7877 11.4798 17.6457 12.752C18.4999 14.0183 18.9363 15.6343 18.9363 17.0693C18.9363 17.259 18.7828 17.413 18.593 17.4136L16.9151 17.4183C16.8236 17.4186 16.7358 17.3824 16.671 17.3178C16.6063 17.2533 16.5698 17.1655 16.5698 17.0741C16.5698 14.4495 15.2937 12.4776 13.5628 11.1526C13.4456 11.0629 13.3986 10.9085 13.446 10.7687ZM14.8848 11.3936C16.2177 12.7193 17.1628 14.5002 17.2516 16.7288L18.2387 16.726C18.1754 15.5052 17.7787 14.1805 17.0749 13.137C16.5208 12.3155 15.7877 11.6817 14.8848 11.3936Z" fill="#606770"/>
<path id="path3572 (Stroke)" fill-rule="evenodd" clip-rule="evenodd" d="M19.7797 15.8991C19.8712 15.8352 19.988 15.8197 20.0931 15.8574C20.2935 15.9294 20.5236 16.0154 20.7809 16.1885C21.0372 16.3609 21.3063 16.6096 21.6127 16.9953C21.7309 17.1442 21.7061 17.3608 21.5572 17.479C21.4083 17.5973 21.1918 17.5725 21.0735 17.4236C20.7997 17.079 20.5808 16.8838 20.3965 16.7598C20.3697 16.7418 20.3432 16.725 20.3171 16.7093L20.3133 17.212C20.3119 17.4022 20.1566 17.5552 19.9665 17.5537C19.7763 17.5523 19.6233 17.397 19.6248 17.2069L19.6324 16.1789C19.6333 16.0673 19.6882 15.963 19.7797 15.8991Z" fill="#606770"/>
<path id="path3553 (Stroke)" fill-rule="evenodd" clip-rule="evenodd" d="M11.9494 15.3919L11.2608 16.0805L10.7739 15.5936L11.4625 14.905L11.9494 15.3919Z" fill="#606770"/>
<path id="path3555 (Stroke)" fill-rule="evenodd" clip-rule="evenodd" d="M10.1415 12.8192C9.12009 12.6231 8.06227 12.7887 7.14982 13.2875C6.23737 13.7863 5.52731 14.5872 5.14164 15.5524C5.07109 15.729 4.87075 15.8149 4.69418 15.7444C4.5176 15.6738 4.43166 15.4735 4.50221 15.2969C4.94729 14.183 5.76669 13.2588 6.81952 12.6833C7.87235 12.1077 9.09288 11.9167 10.2713 12.143L10.2064 12.4811L10.2713 12.143C11.4498 12.3693 12.5126 12.9988 13.277 13.9234C14.0415 14.848 14.4599 16.0099 14.4602 17.2094C14.4603 17.3995 14.3062 17.5537 14.116 17.5538C13.9259 17.5538 13.7717 17.3997 13.7716 17.2096C13.7713 16.1702 13.4088 15.1634 12.7464 14.3622C12.0839 13.561 11.1628 13.0154 10.1415 12.8192Z" fill="#606770"/>
<path id="circle4101-8-9" d="M4.75401 16.6575C4.80325 16.4739 4.69428 16.2851 4.51062 16.2358C4.32696 16.1866 4.13816 16.2956 4.08892 16.4792C4.03967 16.6629 4.14864 16.8517 4.3323 16.9009C4.51596 16.9502 4.70477 16.8412 4.75401 16.6575Z" fill="#606770"/>
</g>
</g>
</g>
</svg>
