<svg width="17" height="17" viewBox="0 0 17 17" fill="none" xmlns="http://www.w3.org/2000/svg">
<g clip-path="url(#clip0_1076_209257)">
<path d="M4.68518 5.12012L3.299 5.22721C2.91329 5.25702 2.56976 5.45918 2.35645 5.78183L0.757804 8.19969C0.596024 8.44437 0.570305 8.75059 0.68896 9.01884C0.807647 9.28709 1.05155 9.47402 1.34139 9.51893L2.6106 9.71549C2.90751 8.13988 3.61825 6.56814 4.68518 5.12012Z" fill="#D9EBF7"/>
<path d="M7.69897 14.8031L7.89557 16.0723C7.94047 16.3621 8.12741 16.606 8.39563 16.7247C8.50722 16.7741 8.62534 16.7985 8.74287 16.7985C8.90797 16.7985 9.0719 16.7504 9.21481 16.6559L11.6327 15.0572C11.9554 14.8439 12.1575 14.5003 12.1873 14.1147L12.2944 12.7285C10.8463 13.7955 9.27462 14.5062 7.69897 14.8031Z" fill="#D9EBF7"/>
<path d="M7.22167 13.9235C7.26573 13.9235 7.31005 13.9198 7.35426 13.9125C8.01438 13.8021 8.65063 13.6161 9.25756 13.3728L4.04104 8.15625C3.79767 8.76315 3.61173 9.3994 3.50136 10.0595C3.45786 10.3198 3.54514 10.5849 3.73167 10.7714L6.6424 13.6821C6.79727 13.837 7.0063 13.9235 7.22167 13.9235Z" fill="#D9EBF7"/>
<path d="M15.3394 7.89262C16.6159 5.4247 16.6632 2.81672 16.5965 1.5936C16.5736 1.17451 16.2395 0.84039 15.8204 0.817547C15.6212 0.806672 15.3852 0.798828 15.1192 0.798828C13.7515 0.798828 11.5874 1.00598 9.52136 2.07463C7.87943 2.92391 5.72642 4.79392 4.45618 7.25146C4.47118 7.26318 4.48583 7.27562 4.49965 7.28943L10.1246 12.9144C10.1384 12.9282 10.1508 12.9428 10.1625 12.9578C12.6201 11.6876 14.4901 9.53454 15.3394 7.89262ZM9.91817 4.1813C10.8319 3.26753 12.3188 3.26743 13.2327 4.1813C13.6754 4.62395 13.9191 5.21254 13.9191 5.83857C13.9191 6.4646 13.6754 7.05318 13.2327 7.49584C12.7758 7.95268 12.1755 8.18115 11.5754 8.18121C10.9752 8.18124 10.3751 7.9528 9.91817 7.49584C9.47548 7.05318 9.23167 6.4646 9.23167 5.83857C9.23167 5.21254 9.47548 4.62395 9.91817 4.1813Z" fill="#E4F4FF"/>
<path d="M10.5812 6.83255C11.1295 7.38084 12.0217 7.38087 12.5699 6.83255C12.8355 6.56693 12.9818 6.21381 12.9818 5.83818C12.9818 5.46255 12.8355 5.10943 12.5699 4.84384C12.2958 4.56968 11.9357 4.43262 11.5756 4.43262C11.2155 4.43262 10.8553 4.56968 10.5812 4.84384C10.3156 5.10943 10.1693 5.46255 10.1693 5.83818C10.1693 6.21381 10.3156 6.56696 10.5812 6.83255Z" fill="#E4F4FF"/>
<path d="M1.09352 13.9845C1.21349 13.9845 1.33346 13.9388 1.42496 13.8472L2.95537 12.3168C3.13843 12.1337 3.13843 11.837 2.95537 11.6539C2.77233 11.4708 2.47552 11.4708 2.29246 11.6539L0.762053 13.1843C0.57899 13.3674 0.57899 13.6641 0.762053 13.8472C0.853584 13.9387 0.973553 13.9845 1.09352 13.9845Z" fill="#D9EBF7"/>
<path d="M4.3579 13.0562C4.17487 12.8732 3.87806 12.8732 3.695 13.0562L0.752653 15.9986C0.569591 16.1816 0.569591 16.4784 0.752653 16.6615C0.844185 16.753 0.964153 16.7988 1.08412 16.7988C1.20409 16.7988 1.32406 16.753 1.41556 16.6615L4.35787 13.7191C4.54097 13.5361 4.54097 13.2393 4.3579 13.0562Z" fill="#D9EBF7"/>
<path d="M5.09748 14.4586L3.56711 15.989C3.38404 16.1721 3.38404 16.4688 3.56711 16.6519C3.65864 16.7434 3.77861 16.7892 3.89854 16.7892C4.01848 16.7892 4.13848 16.7435 4.22998 16.6519L5.76039 15.1215C5.94345 14.9384 5.94345 14.6416 5.76039 14.4586C5.57736 14.2755 5.28054 14.2755 5.09748 14.4586Z" fill="#D9EBF7"/>
</g>
<defs>
<clipPath id="clip0_1076_209257">
<rect width="16" height="16" fill="white" transform="translate(0.615234 0.798828)"/>
</clipPath>
</defs>
</svg>
