<svg width="31" height="31" viewBox="0 0 31 31" fill="none" xmlns="http://www.w3.org/2000/svg">
<circle cx="15.6199" cy="15.9297" r="14.5" fill="white" stroke="#DFE5EB"/>
<g clip-path="url(#clip0_1200_39249)">
<path d="M16.1996 15.9278L20.7494 11.3779C20.9096 11.2178 20.9096 10.958 20.7494 10.7979C20.5893 10.6377 20.3295 10.6377 20.1694 10.7979L15.6196 15.3477L11.0698 10.7979C10.9096 10.6377 10.6499 10.6377 10.4897 10.7979C10.3295 10.9581 10.3295 11.2178 10.4897 11.3779L15.0395 15.9277L10.4897 20.4775C10.3295 20.6377 10.3295 20.8974 10.4897 21.0576C10.5698 21.1377 10.6748 21.1777 10.7797 21.1777C10.8847 21.1777 10.9897 21.1377 11.0698 21.0576L15.6196 16.5078L20.1694 21.0576C20.2494 21.1377 20.3544 21.1777 20.4594 21.1777C20.5644 21.1777 20.6693 21.1377 20.7494 21.0576C20.9096 20.8974 20.9096 20.6377 20.7494 20.4775L16.1996 15.9278Z" fill="#1C1E21"/>
</g>
<defs>
<clipPath id="clip0_1200_39249">
<rect width="10.5" height="10.5" fill="white" transform="translate(10.3696 10.6777)"/>
</clipPath>
</defs>
</svg>
