<svg width="19" height="18" viewBox="0 0 19 18" fill="none" xmlns="http://www.w3.org/2000/svg">
<g id="stream 1">
<path id="signal-stream" d="M11.8112 12.405C11.6637 12.4046 11.5196 12.3606 11.397 12.2787C11.2743 12.1968 11.1785 12.0805 11.1216 11.9444C11.0647 11.8083 11.0492 11.6585 11.077 11.5136C11.1048 11.3688 11.1747 11.2354 11.2779 11.13C11.8404 10.5648 12.1562 9.79974 12.1562 9.00227C12.1562 8.20481 11.8404 7.4398 11.2779 6.87453C11.1419 6.73234 11.0672 6.54239 11.0699 6.34563C11.0727 6.14887 11.1526 5.96107 11.2925 5.82272C11.4325 5.68436 11.6212 5.60654 11.8179 5.60604C12.0147 5.60554 12.2038 5.68239 12.3444 5.82002C13.1847 6.66599 13.6562 7.80994 13.6562 9.00227C13.6562 10.1946 13.1847 11.3386 12.3444 12.1845C12.2745 12.2547 12.1914 12.3103 12.0999 12.3481C12.0083 12.386 11.9102 12.4053 11.8112 12.405ZM7.02844 12.1883C7.16984 12.0484 7.24991 11.8581 7.25103 11.6593C7.25216 11.4604 7.17425 11.2692 7.03444 11.1278C6.47193 10.5625 6.15615 9.79749 6.15615 9.00002C6.15615 8.20256 6.47193 7.43755 7.03444 6.87227C7.10557 6.80266 7.16213 6.71958 7.20083 6.62789C7.23953 6.53619 7.2596 6.43771 7.25985 6.33818C7.26011 6.23865 7.24055 6.14007 7.20232 6.04818C7.16409 5.95628 7.10795 5.87292 7.03718 5.80294C6.9664 5.73296 6.88241 5.67777 6.79009 5.64058C6.69777 5.60339 6.59897 5.58495 6.49945 5.58633C6.39993 5.58771 6.30168 5.60889 6.21043 5.64862C6.11918 5.68836 6.03675 5.74586 5.96794 5.81777C5.1277 6.66374 4.65614 7.80769 4.65614 9.00002C4.65614 10.1924 5.1277 11.3363 5.96794 12.1823C6.10779 12.3237 6.29807 12.4037 6.49695 12.4049C6.69582 12.406 6.887 12.3281 7.02844 12.1883ZM14.7302 14.0033C15.9698 12.6317 16.6561 10.8488 16.6561 9.00002C16.6561 7.15127 15.9698 5.36835 14.7302 3.99677C14.5967 3.84928 14.4101 3.76085 14.2115 3.75093C14.0128 3.74102 13.8183 3.81043 13.6708 3.9439C13.5233 4.07737 13.4349 4.26397 13.425 4.46264C13.4151 4.66131 13.4845 4.85578 13.6179 5.00327C14.608 6.09904 15.1561 7.52325 15.1561 9.00002C15.1561 10.4768 14.608 11.901 13.6179 12.9968C13.4845 13.1443 13.4151 13.3387 13.425 13.5374C13.4349 13.7361 13.5233 13.9227 13.6708 14.0562C13.8183 14.1896 14.0128 14.259 14.2115 14.2491C14.4101 14.2392 14.5967 14.1508 14.7302 14.0033ZM4.64119 14.0558C4.78863 13.9224 4.87706 13.7359 4.88705 13.5373C4.89703 13.3387 4.82775 13.1443 4.69444 12.9968C3.70441 11.901 3.15631 10.4768 3.15631 9.00002C3.15631 7.52325 3.70441 6.09904 4.69444 5.00327C4.76053 4.93024 4.81158 4.84491 4.84469 4.75215C4.8778 4.65938 4.89232 4.56101 4.88741 4.46264C4.8825 4.36426 4.85826 4.26782 4.81608 4.17882C4.77389 4.08981 4.7146 4.00999 4.64156 3.9439C4.56853 3.87781 4.4832 3.82676 4.39044 3.79365C4.29767 3.76054 4.1993 3.74602 4.10093 3.75093C3.90225 3.76085 3.71566 3.84928 3.58219 3.99677C2.34256 5.36835 1.65625 7.15127 1.65625 9.00002C1.65625 10.8488 2.34256 12.6317 3.58219 14.0033C3.7157 14.1506 3.90224 14.2389 4.10082 14.2487C4.2994 14.2586 4.49377 14.1892 4.64119 14.0558ZM9.15619 7.87502C8.93369 7.87502 8.71618 7.941 8.53117 8.06462C8.34617 8.18824 8.20197 8.36394 8.11683 8.56951C8.03168 8.77507 8.0094 9.00127 8.05281 9.2195C8.09621 9.43773 8.20336 9.63819 8.36069 9.79552C8.51803 9.95285 8.71848 10.06 8.93671 10.1034C9.15494 10.1468 9.38114 10.1245 9.58671 10.0394C9.79228 9.95424 9.96798 9.81005 10.0916 9.62504C10.2152 9.44004 10.2812 9.22253 10.2812 9.00002C10.2812 8.70166 10.1627 8.41551 9.95168 8.20453C9.74071 7.99355 9.45456 7.87502 9.15619 7.87502Z" fill="#E52D27"/>
</g>
</svg>
