<svg width="48" height="48" viewBox="0 0 48 48" fill="none" xmlns="http://www.w3.org/2000/svg">
<path d="M48 24C48 37.2548 37.2548 48 24 48C10.7452 48 0 37.2548 0 24C0 10.7452 10.7452 0 24 0C37.2548 0 48 10.7452 48 24Z" fill="url(#paint0_linear_3156_32967)"/>
<path d="M28.4776 32.8753H18.4508C17.8355 32.8753 17.2454 32.6308 16.8103 32.1958C16.3753 31.7607 16.1309 31.1706 16.1309 30.5554V28.9908C16.1316 27.5346 16.7105 26.1383 17.7405 25.1089C18.7704 24.0795 20.1669 23.5012 21.6231 23.5012H25.3053C26.7618 23.5012 28.1587 24.0798 29.1886 25.1096C30.2186 26.1395 30.7973 27.5363 30.7975 28.9928V30.5574C30.797 31.1723 30.5523 31.7619 30.1173 32.1965C29.6823 32.6311 29.0925 32.8753 28.4776 32.8753Z" fill="white"/>
<path d="M23.4653 22.4802C25.623 22.4802 27.3721 20.7311 27.3721 18.5735C27.3721 16.4159 25.623 14.6667 23.4653 14.6667C21.3077 14.6667 19.5586 16.4159 19.5586 18.5735C19.5586 20.7311 21.3077 22.4802 23.4653 22.4802Z" fill="white"/>
<defs>
<linearGradient id="paint0_linear_3156_32967" x1="24" y1="48" x2="24" y2="0" gradientUnits="userSpaceOnUse">
<stop stop-color="#045C99"/>
<stop offset="1" stop-color="#84C0EA"/>
</linearGradient>
</defs>
</svg>
