<svg width="19" height="19" viewBox="0 0 19 19" fill="none" xmlns="http://www.w3.org/2000/svg">
<path d="M11.9277 13.6094C12.2383 13.6094 12.4902 13.3575 12.4902 13.0469V7.42188C12.4902 7.11126 12.2383 6.85938 11.9277 6.85938C11.6171 6.85938 11.3652 7.11126 11.3652 7.42188V13.0469C11.3652 13.3575 11.6171 13.6094 11.9277 13.6094Z" fill="#606770"/>
<path d="M7.99023 13.6094C8.30085 13.6094 8.55273 13.3575 8.55273 13.0469V7.42188C8.55273 7.11126 8.30085 6.85938 7.99023 6.85938C7.67962 6.85938 7.42773 7.11126 7.42773 7.42188V13.0469C7.42773 13.3575 7.67962 13.6094 7.99023 13.6094Z" fill="#606770"/>
<path d="M12.209 2.64062C12.5196 2.64062 12.7715 2.38874 12.7715 2.07812C12.7715 1.76751 12.5196 1.51562 12.209 1.51562H7.70898C7.39837 1.51562 7.14648 1.76751 7.14648 2.07812C7.14648 2.38874 7.39837 2.64062 7.70898 2.64062H12.209Z" fill="#606770"/>
<path d="M3.77148 3.20312C3.46087 3.20312 3.20898 3.45501 3.20898 3.76562C3.20898 4.07624 3.46087 4.32812 3.77148 4.32812H4.33398V14.6781C4.33398 15.9493 5.36898 16.9844 6.64023 16.9844H13.2777C14.5489 16.9844 15.584 15.9494 15.584 14.6781V4.32812H16.1465C16.4571 4.32812 16.709 4.07624 16.709 3.76562C16.709 3.45501 16.4571 3.20312 16.1465 3.20312H15.0215H4.89648H3.77148ZM14.459 4.32812V14.6781C14.459 15.3306 13.9302 15.8594 13.2777 15.8594H6.64023C5.98773 15.8594 5.45898 15.3306 5.45898 14.6781V4.32812H14.459Z" fill="#606770"/>
</svg>
