<svg width="14" height="14" viewBox="0 0 14 14" fill="none" xmlns="http://www.w3.org/2000/svg">
<path fill-rule="evenodd" clip-rule="evenodd" d="M12.5908 7.24094C11.4611 9.26965 9.31861 10.5299 7.00066 10.5299C4.68119 10.5299 2.53878 9.26965 1.40905 7.24094C1.32204 7.08341 1.32204 6.91689 1.40905 6.7595C2.53878 4.73081 4.68119 3.4707 7.00066 3.4707C9.31861 3.4707 11.461 4.73081 12.5908 6.7595C12.6793 6.91689 12.6793 7.08341 12.5908 7.24094ZM13.3124 6.35727C12.0372 4.06677 9.61868 2.64404 7.00066 2.64404C4.38112 2.64404 1.96265 4.06677 0.687393 6.35727C0.459346 6.76595 0.459346 7.23448 0.687393 7.64286C1.96265 9.93337 4.38112 11.3564 7.00066 11.3564C9.61868 11.3564 12.0372 9.93337 13.3124 7.64286C13.5405 7.23451 13.5405 6.76595 13.3124 6.35727ZM7.00066 8.69593C7.93535 8.69593 8.696 7.93528 8.696 7.00015C8.696 6.06502 7.93535 5.30437 7.00066 5.30437C6.06446 5.30437 5.30381 6.06502 5.30381 7.00015C5.30381 7.93528 6.06449 8.69593 7.00066 8.69593ZM7.00066 4.47771C5.60837 4.47771 4.47715 5.60939 4.47715 7.00018C4.47715 8.39126 5.60839 9.52247 7.00066 9.52247C8.39144 9.52247 9.52265 8.39123 9.52265 7.00018C9.52265 5.60939 8.39144 4.47771 7.00066 4.47771Z" fill="#606770"/>
</svg>
