<svg width="16" height="17" viewBox="0 0 16 17" fill="none" xmlns="http://www.w3.org/2000/svg">
<g id="Interface essential/Reply">
<path id="Icon" d="M2.83329 13.1665C3.10793 13.1629 3.32969 12.9411 3.33329 12.6665V11.3332C3.32609 10.5795 3.62229 9.85468 4.15521 9.32176C4.68813 8.78884 5.41299 8.49264 6.16662 8.49984H12.2933L9.14662 11.6665C9.03269 11.8669 9.0705 12.1192 9.23816 12.2773C9.40582 12.4355 9.65988 12.4586 9.85328 12.3332L13.8533 8.33317C13.8985 8.28693 13.9347 8.23267 13.96 8.17317C14.0133 8.04981 14.0133 7.90986 13.96 7.7865C13.9347 7.727 13.8985 7.67274 13.8533 7.6265L9.85328 3.6265C9.65807 3.43153 9.34183 3.43153 9.14662 3.6265C8.95165 3.82172 8.95165 4.13796 9.14662 4.33317L12.2933 7.49984H6.16662C5.14668 7.48902 4.16536 7.88942 3.44411 8.61067C2.72287 9.33191 2.32247 10.3132 2.33329 11.3332V12.6665C2.33688 12.9411 2.55864 13.1629 2.83329 13.1665Z" fill="#606770"/>
</g>
</svg>
