<svg width="25" height="25" viewBox="0 0 25 25" fill="none" xmlns="http://www.w3.org/2000/svg">
<path fill-rule="evenodd" clip-rule="evenodd" d="M7.6 2.50107H17.65C20.3694 2.47809 22.6085 4.63279 22.69 7.35107V14.6311C22.6084 17.3533 20.3633 19.5095 17.64 19.4811H16.08C15.6914 19.4823 15.324 19.6586 15.08 19.9611L13.6 21.8411C13.353 22.1384 12.9865 22.3104 12.6 22.3104C12.2135 22.3104 11.847 22.1384 11.6 21.8411L10.11 19.9611C9.86598 19.6586 9.49862 19.4823 9.11 19.4811H7.6C4.85739 19.5371 2.58172 17.373 2.5 14.6311V7.35107C2.58172 4.6091 4.85739 2.44498 7.6 2.50107ZM8.85 12.9811C9.26421 12.9811 9.6 12.6453 9.6 12.2311V9.83107C9.6 9.41685 9.26421 9.08107 8.85 9.08107C8.43579 9.08107 8.1 9.41685 8.1 9.83107V12.2311C8.1 12.6453 8.43579 12.9811 8.85 12.9811ZM13.35 12.2311C13.35 12.6453 13.0142 12.9811 12.6 12.9811C12.1858 12.9811 11.85 12.6453 11.85 12.2311V9.83107C11.85 9.41685 12.1858 9.08107 12.6 9.08107C13.0142 9.08107 13.35 9.41685 13.35 9.83107V12.2311ZM16.35 12.9811C16.7642 12.9811 17.1 12.6453 17.1 12.2311V9.83107C17.1 9.41685 16.7642 9.08107 16.35 9.08107C15.9358 9.08107 15.6 9.41685 15.6 9.83107V12.2311C15.6 12.6453 15.9358 12.9811 16.35 12.9811Z" fill="#D95C07"/>
</svg>
