<svg width="26" height="25" viewBox="0 0 26 25" fill="none" xmlns="http://www.w3.org/2000/svg">
<g clip-path="url(#clip0_1800_32845)">
<path d="M13.0031 0H12.9969C6.10469 0 0.5 5.60625 0.5 12.5C0.5 15.2344 1.38125 17.7687 2.87969 19.8266L1.32188 24.4703L6.12656 22.9344C8.10313 24.2438 10.4609 25 13.0031 25C19.8953 25 25.5 19.3922 25.5 12.5C25.5 5.60781 19.8953 0 13.0031 0ZM20.2766 17.6516C19.975 18.5031 18.7781 19.2094 17.8234 19.4156C17.1703 19.5547 16.3172 19.6656 13.4453 18.475C9.77187 16.9531 7.40625 13.2203 7.22188 12.9781C7.04531 12.7359 5.7375 11.0016 5.7375 9.20781C5.7375 7.41406 6.64844 6.54063 7.01562 6.16563C7.31719 5.85781 7.81562 5.71719 8.29375 5.71719C8.44844 5.71719 8.5875 5.725 8.7125 5.73125C9.07969 5.74687 9.26406 5.76875 9.50625 6.34844C9.80781 7.075 10.5422 8.86875 10.6297 9.05313C10.7188 9.2375 10.8078 9.4875 10.6828 9.72969C10.5656 9.97969 10.4625 10.0906 10.2781 10.3031C10.0938 10.5156 9.91875 10.6781 9.73438 10.9062C9.56563 11.1047 9.375 11.3172 9.5875 11.6844C9.8 12.0437 10.5344 13.2422 11.6156 14.2047C13.0109 15.4469 14.1422 15.8438 14.5469 16.0125C14.8484 16.1375 15.2078 16.1078 15.4281 15.8734C15.7078 15.5719 16.0531 15.0719 16.4047 14.5797C16.6547 14.2266 16.9703 14.1828 17.3016 14.3078C17.6391 14.425 19.425 15.3078 19.7922 15.4906C20.1594 15.675 20.4016 15.7625 20.4906 15.9172C20.5781 16.0719 20.5781 16.7984 20.2766 17.6516Z" fill="#87AAC1"/>
</g>
<defs>
<clipPath id="clip0_1800_32845">
<rect width="25" height="25" fill="white" transform="translate(0.5)"/>
</clipPath>
</defs>
</svg>
