<svg width="21" height="21" viewBox="0 0 21 21" fill="none" xmlns="http://www.w3.org/2000/svg">
<path d="M16.888 9.24479H10.7267V3.20312C10.7267 2.85795 10.4414 2.57812 10.0894 2.57812C9.73734 2.57812 9.45198 2.85795 9.45198 3.20312V9.24479H3.29069C2.93868 9.24479 2.65332 9.52461 2.65332 9.86979C2.65332 10.215 2.93868 10.4948 3.29069 10.4948H9.45198V16.5365C9.45198 16.8816 9.73734 17.1615 10.0894 17.1615C10.4414 17.1615 10.7267 16.8816 10.7267 16.5365V10.4948H16.888C17.24 10.4948 17.5254 10.215 17.5254 9.86979C17.5254 9.52461 17.24 9.24479 16.888 9.24479Z" fill="#606770"/>
</svg>
