<svg width="25" height="25" viewBox="0 0 25 25" fill="none" xmlns="http://www.w3.org/2000/svg">
<g id="coupon 1" clip-path="url(#clip0_1076_223777)">
<path id="Vector" d="M15.2715 17.3477C15.8238 17.3477 16.2715 16.8999 16.2715 16.3477C16.2715 15.7954 15.8238 15.3477 15.2715 15.3477C14.7192 15.3477 14.2715 15.7954 14.2715 16.3477C14.2715 16.8999 14.7192 17.3477 15.2715 17.3477Z" fill="#AECCE0"/>
<path id="Vector_2" d="M10.2715 12.3477C10.8238 12.3477 11.2715 11.8999 11.2715 11.3477C11.2715 10.7954 10.8238 10.3477 10.2715 10.3477C9.7192 10.3477 9.27148 10.7954 9.27148 11.3477C9.27148 11.8999 9.7192 12.3477 10.2715 12.3477Z" fill="#AECCE0"/>
<path id="Vector_3" d="M24.2715 12.3477V7.84766C24.2715 7.71505 24.2188 7.58787 24.125 7.4941C24.0313 7.40033 23.9041 7.34766 23.7715 7.34766H21.3415C18.6577 7.34773 15.9797 7.10001 13.3415 6.60766C10.6574 6.10345 7.93247 5.84903 5.20148 5.84766H1.77148C1.63888 5.84766 1.5117 5.90033 1.41793 5.9941C1.32416 6.08787 1.27148 6.21505 1.27148 6.34766V10.8477C1.93453 10.8477 2.57041 11.111 3.03925 11.5799C3.50809 12.0487 3.77148 12.6846 3.77148 13.3477C3.77148 14.0107 3.50809 14.6466 3.03925 15.1154C2.57041 15.5843 1.93453 15.8477 1.27148 15.8477V19.8477C1.27148 19.9803 1.32416 20.1074 1.41793 20.2012C1.5117 20.295 1.63888 20.3477 1.77148 20.3477H5.20148C7.88524 20.3476 10.5633 20.5953 13.2015 21.0877C15.8855 21.5919 18.6105 21.8463 21.3415 21.8477H23.7715C23.9041 21.8477 24.0313 21.795 24.125 21.7012C24.2188 21.6074 24.2715 21.4803 24.2715 21.3477V17.3477C23.6084 17.3477 22.9726 17.0843 22.5037 16.6154C22.0349 16.1466 21.7715 15.5107 21.7715 14.8477C21.7715 14.1846 22.0349 13.5487 22.5037 13.0799C22.9726 12.611 23.6084 12.3477 24.2715 12.3477ZM10.2715 9.34766C10.667 9.34766 11.0537 9.46495 11.3826 9.68472C11.7115 9.90448 11.9679 10.2168 12.1192 10.5823C12.2706 10.9477 12.3102 11.3499 12.2331 11.7378C12.1559 12.1258 11.9654 12.4822 11.6857 12.7619C11.406 13.0416 11.0496 13.2321 10.6617 13.3092C10.2737 13.3864 9.87157 13.3468 9.50612 13.1954C9.14067 13.044 8.82831 12.7877 8.60855 12.4588C8.38878 12.1299 8.27148 11.7432 8.27148 11.3477C8.27148 10.8172 8.4822 10.3085 8.85727 9.93344C9.23234 9.55837 9.74105 9.34766 10.2715 9.34766ZM9.62648 17.7027C9.58 17.7495 9.5247 17.7867 9.46377 17.8121C9.40284 17.8375 9.33749 17.8506 9.27148 17.8506C9.20548 17.8506 9.14013 17.8375 9.0792 17.8121C9.01827 17.7867 8.96297 17.7495 8.91648 17.7027C8.86962 17.6562 8.83242 17.6009 8.80704 17.5399C8.78165 17.479 8.76859 17.4137 8.76859 17.3477C8.76859 17.2817 8.78165 17.2163 8.80704 17.1554C8.83242 17.0944 8.86962 17.0391 8.91648 16.9927L15.9165 9.99266C16.0106 9.8985 16.1383 9.84561 16.2715 9.84561C16.4046 9.84561 16.5323 9.8985 16.6265 9.99266C16.7206 10.0868 16.7735 10.2145 16.7735 10.3477C16.7735 10.4808 16.7206 10.6085 16.6265 10.7027L9.62648 17.7027ZM15.2715 18.3477C14.8759 18.3477 14.4892 18.2304 14.1603 18.0106C13.8314 17.7908 13.5751 17.4785 13.4237 17.113C13.2724 16.7476 13.2327 16.3454 13.3099 15.9575C13.3871 15.5695 13.5776 15.2131 13.8573 14.9334C14.137 14.6537 14.4933 14.4633 14.8813 14.3861C15.2693 14.3089 15.6714 14.3485 16.0369 14.4999C16.4023 14.6513 16.7147 14.9076 16.9344 15.2365C17.1542 15.5654 17.2715 15.9521 17.2715 16.3477C17.2715 16.8781 17.0608 17.3868 16.6857 17.7619C16.3106 18.1369 15.8019 18.3477 15.2715 18.3477Z" fill="#87AAC1"/>
<path id="Vector_4" d="M23.2715 6.40747V4.34747C23.271 4.27362 23.2542 4.20079 23.2222 4.13422C23.1902 4.06765 23.1438 4.009 23.0865 3.96247C23.0303 3.91359 22.9638 3.8779 22.892 3.858C22.8202 3.8381 22.7449 3.83451 22.6715 3.84747C21.0553 4.15322 19.4161 4.3205 17.7715 4.34747H11.2715C8.92946 4.35368 6.59062 4.52074 4.27148 4.84747C7.12648 4.95747 12.1015 5.48747 14.2715 5.84747C17.2493 6.29772 20.2609 6.48511 23.2715 6.40747Z" fill="#AECCE0"/>
</g>
<defs>
<clipPath id="clip0_1076_223777">
<rect width="24" height="24" fill="white" transform="translate(0.771484 0.847656)"/>
</clipPath>
</defs>
</svg>
