<svg width="16" height="17" viewBox="0 0 16 17" fill="none" xmlns="http://www.w3.org/2000/svg">
<path fill-rule="evenodd" clip-rule="evenodd" d="M4.44987 15.6502C4.42076 15.6359 4.3926 15.6196 4.36564 15.6016C2.73087 14.6435 1.54927 13.0932 1.0588 11.2628C0.130293 7.79761 1.90582 4.1602 5.22834 2.77367C6.68247 2.16684 8.30068 2.05146 9.82502 2.45259C9.97253 2.4914 10.1188 2.53503 10.2636 2.58327C10.3383 2.60816 10.411 2.53971 10.3906 2.46367L10.0882 1.33501C9.98378 0.945514 10.2194 0.53837 10.6089 0.434307C10.9984 0.330245 11.4051 0.565651 11.5094 0.954936L12.2832 3.84267C12.3876 4.23217 12.1519 4.63903 11.7626 4.74334L8.87485 5.51709C8.48535 5.62147 8.07821 5.38585 7.97414 4.99636C7.87008 4.60693 8.10549 4.20014 8.49477 4.09583L8.98534 3.96438C9.08751 3.93699 9.08079 3.78913 8.97659 3.77106C6.62042 3.36317 4.24818 4.46905 3.05002 6.54429C1.47977 9.26408 2.39059 12.7428 5.14463 14.3542C6.44819 15.1169 8.02241 15.3135 9.47925 14.9231C12.216 14.1898 13.9807 11.5801 13.6832 8.79865C13.6403 8.39797 13.9358 8.03242 14.3364 7.98981C14.737 7.94723 15.1023 8.24247 15.1451 8.64297C15.2253 9.39268 15.1875 10.1549 15.0311 10.8926C14.4744 13.5194 12.4815 15.6417 9.85933 16.3444C8.02997 16.8346 6.09631 16.5859 4.44987 15.6502Z" fill="#606770"/>
</svg>
