<svg width="22" height="22" viewBox="0 0 22 22" fill="none" xmlns="http://www.w3.org/2000/svg">
<g id="notes 1">
<g id="Group 1000008565">
<path id="Vector" d="M4.99378 8.43328L4.99378 8.43328H4.99473H12.3762V8.43329L12.3771 8.43328C12.4692 8.43152 12.5568 8.39372 12.6213 8.328C12.6858 8.26228 12.7219 8.17389 12.7219 8.08183C12.7219 7.98976 12.6858 7.90138 12.6213 7.83566C12.5568 7.76995 12.4691 7.73215 12.3771 7.7304V7.7304H12.3761H4.99473V7.73039L4.99378 7.7304C4.90173 7.73216 4.81405 7.76995 4.74957 7.83567C4.68509 7.90139 4.64897 7.98978 4.64897 8.08184C4.64897 8.1739 4.68509 8.26229 4.74957 8.32801C4.81405 8.39373 4.90173 8.43152 4.99378 8.43328Z" fill="#606770" stroke="#606770" stroke-width="0.1"/>
<path id="Vector_2" d="M4.99375 10.7296L4.99375 10.7297H4.99474H9.5384V10.7297L9.53939 10.7296C9.63139 10.7278 9.71901 10.69 9.78342 10.6243C9.84784 10.5586 9.88392 10.4702 9.88391 10.3782C9.88391 10.2862 9.84782 10.1978 9.7834 10.1321C9.71898 10.0664 9.63137 10.0286 9.53937 10.0268V10.0268H9.53838H4.99474V10.0268L4.99375 10.0268C4.90175 10.0286 4.81414 10.0664 4.74972 10.1321C4.6853 10.1979 4.64922 10.2862 4.64922 10.3782C4.64922 10.4702 4.6853 10.5586 4.74972 10.6243C4.81414 10.69 4.90175 10.7278 4.99375 10.7296Z" fill="#606770" stroke="#606770" stroke-width="0.1"/>
<path id="Vector_3" d="M9.63776 12.3232V12.3232H9.63683H4.99456C4.90135 12.3232 4.81196 12.3602 4.74605 12.4261C4.68014 12.492 4.64312 12.5814 4.64312 12.6746C4.64312 12.7678 4.68014 12.8572 4.74605 12.9231C4.81196 12.989 4.90135 13.0261 4.99456 13.0261H9.63683V13.0261L9.63776 13.026C9.72984 13.0243 9.81757 12.9866 9.88209 12.9208C9.94661 12.8551 9.98275 12.7667 9.98275 12.6746C9.98275 12.5825 9.94661 12.4941 9.88209 12.4284C9.81757 12.3627 9.72984 12.3249 9.63776 12.3232Z" fill="#606770" stroke="#606770" stroke-width="0.1"/>
<path id="Vector_4" d="M8.94872 14.6196V14.6196H8.94779H4.99464V14.6195L4.99371 14.6196C4.90163 14.6213 4.8139 14.659 4.74939 14.7248C4.68487 14.7905 4.64873 14.8789 4.64873 14.971C4.64873 15.0631 4.68488 15.1515 4.7494 15.2172C4.81392 15.283 4.90165 15.3207 4.99373 15.3224L4.99373 15.3224H4.99466H8.94779V15.3225L8.94872 15.3224C9.0408 15.3207 9.12853 15.283 9.19305 15.2172C9.25757 15.1515 9.29371 15.0631 9.29371 14.971C9.29371 14.8789 9.25757 14.7905 9.19305 14.7248L9.15737 14.7598L9.19305 14.7248C9.12853 14.659 9.0408 14.6213 8.94872 14.6196Z" fill="#606770" stroke="#606770" stroke-width="0.1"/>
<path id="Vector_5" d="M15.4004 4.90525L16.4789 3.35051L16.479 3.35043C16.6202 3.14756 16.8361 3.00894 17.0794 2.96493C17.3226 2.92092 17.5734 2.9751 17.7768 3.11562L17.7769 3.11567L18.6487 3.72039L15.4004 4.90525ZM15.4004 4.90525C15.357 4.63218 15.2254 4.37933 15.0236 4.18666C14.7885 3.96214 14.4761 3.83648 14.151 3.83562H14.1509H3.21989L3.21983 3.83562C2.88314 3.83602 2.56036 3.96995 2.3223 4.20804C2.08424 4.44613 1.95035 4.76893 1.95 5.10562V5.10567L1.95 17.9471L1.95 17.9472C1.95035 18.2839 2.08424 18.6067 2.3223 18.8448C2.56036 19.0828 2.88314 19.2168 3.21983 19.2172H3.21989H14.1509H14.1509C14.4876 19.2168 14.8104 19.0828 15.0485 18.8448C15.2865 18.6067 15.4204 18.2839 15.4208 17.9472V17.9471V10.0096C15.8401 9.40492 16.5427 8.39215 17.2318 7.39899C17.8742 6.47295 18.5049 5.56395 18.883 5.01873C18.9532 4.91824 19.0027 4.80483 19.0288 4.68506C19.0549 4.56534 19.0569 4.44163 19.0349 4.32111M15.4004 4.90525L18.6488 3.72046C18.7497 3.79009 18.8358 3.87902 18.902 3.98213C18.9683 4.08523 19.0134 4.20044 19.0349 4.32111M19.0349 4.32111C19.0349 4.32115 19.0349 4.3212 19.0349 4.32124L18.9857 4.32998L19.0348 4.32097C19.0348 4.32102 19.0349 4.32106 19.0349 4.32111ZM11.0812 11.1301L11.0819 11.1305L14.7179 5.88909V5.1057C14.7177 4.95534 14.658 4.81117 14.5516 4.70483C14.4453 4.5985 14.3012 4.53868 14.1508 4.5385H3.21994C3.06958 4.53868 2.92543 4.5985 2.81912 4.70483C2.71282 4.81116 2.65303 4.95531 2.65288 5.10566C2.65288 5.10567 2.65288 5.10569 2.65288 5.1057M11.0812 11.1301L2.60288 5.10566L2.65288 5.1057M11.0812 11.1301L11.0774 11.1383C11.0724 11.1494 11.067 11.161 11.0614 11.1728C11.0518 11.1932 11.0419 11.2143 11.0328 11.2354L11.0323 11.2352L11.0304 11.2426L10.2479 14.2581L10.2477 14.2589C10.2311 14.3276 10.2355 14.3997 10.2602 14.4659C10.285 14.5321 10.3291 14.5893 10.3867 14.6302C10.4443 14.6711 10.5129 14.6938 10.5836 14.6953C10.6542 14.6968 10.7237 14.6771 10.783 14.6387L10.7837 14.6382L13.3883 12.8933L13.3884 12.8935L13.3925 12.8901C13.4269 12.8613 13.4588 12.8296 13.4878 12.7955L13.488 12.7957L13.4908 12.7916L14.7179 11.0228L14.7179 17.9471C14.7177 18.0974 14.6579 18.2416 14.5516 18.3479C14.4453 18.4543 14.3012 18.5141 14.1508 18.5143H3.21994C3.06958 18.5141 2.92543 18.4543 2.81912 18.3479C2.71282 18.2416 2.65303 18.0975 2.65288 17.9471M11.0812 11.1301L2.65288 17.9471M2.65288 5.1057V17.9471M2.65288 5.1057V17.9471M2.65288 17.9471L2.65288 17.9471M2.65288 17.9471L2.65288 17.9471M17.23 6.1686L18.3057 4.61794C18.3402 4.56774 18.3535 4.50592 18.3427 4.44596C18.3319 4.38603 18.2978 4.33281 18.2479 4.29787C18.2479 4.29784 18.2479 4.29782 18.2478 4.29779L17.3762 3.69332L17.23 6.1686ZM17.23 6.1686L15.9805 5.30182L17.0562 3.75126L17.23 6.1686ZM17.2042 3.6562C17.1443 3.66705 17.091 3.7012 17.0562 3.75118L17.2042 3.6562ZM17.2042 3.6562C17.2641 3.64535 17.3259 3.65868 17.3761 3.69327L17.2042 3.6562ZM11.1605 13.5398L11.5841 11.9068L12.5735 12.5932L11.1605 13.5398ZM16.8293 6.74627L13.1089 12.1091L11.8596 11.2424L15.5798 5.87948L16.8293 6.74627Z" fill="#606770" stroke="#606770" stroke-width="0.1"/>
</g>
</g>
</svg>
