<svg width="20" height="21" viewBox="0 0 20 21" fill="none" xmlns="http://www.w3.org/2000/svg">
<g id="play-button 2" clip-path="url(#clip0_1055_98735)">
<g id="Group">
<g id="Group_2">
<path id="Vector" d="M10 0.361328C4.48566 0.361328 0 4.84742 0 10.3613C0 15.8752 4.48566 20.3613 10 20.3613C15.5143 20.3613 20 15.8752 20 10.3613C20 4.84742 15.5143 0.361328 10 0.361328ZM13.9754 10.7117L8.14211 14.4617C8.07375 14.506 7.9948 14.528 7.91668 14.528C7.84832 14.528 7.77914 14.5109 7.7173 14.4771C7.58301 14.4039 7.5 14.2639 7.5 14.1113V6.61133C7.5 6.45875 7.58301 6.31875 7.7173 6.24551C7.84914 6.17309 8.01434 6.17754 8.14211 6.26098L13.9754 10.011C14.0943 10.0875 14.1667 10.2197 14.1667 10.3613C14.1667 10.5029 14.0943 10.6352 13.9754 10.7117Z" fill="#FF0000"/>
</g>
</g>
</g>
<defs>
<clipPath id="clip0_1055_98735">
<rect width="20" height="20" fill="white" transform="translate(0 0.361328)"/>
</clipPath>
</defs>
</svg>
