<svg width="21" height="21" viewBox="0 0 21 21" fill="none" xmlns="http://www.w3.org/2000/svg">
<g clip-path="url(#clip0_1139_37659)">
<path d="M20.5412 10.2841L18.2771 7.80054L18.6316 4.47569L15.3209 3.78326L13.6321 0.884766L10.5412 2.24958L10.124 10.2841L10.5412 18.3185L13.6321 19.6834L15.3209 16.7849L18.6316 16.0924L18.2771 12.7676L20.5412 10.2841Z" fill="#0ED678"/>
<path d="M7.45007 0.884766L5.76133 3.78326L2.45061 4.47573L2.80511 7.80054L0.541016 10.2841L2.80511 12.7676L2.45061 16.0924L5.76133 16.7849L7.45011 19.6834L10.541 18.3185V2.24958L7.45007 0.884766Z" fill="#04EB84"/>
<path d="M14.7334 8.12055L13.8581 7.34863L10.5412 11.0201L10.124 11.9325L10.5412 12.7609L14.7334 8.12055Z" fill="#F7F0EB"/>
<path d="M7.05519 9.41113L6.22559 10.2308L9.71363 13.677L10.541 12.7612V11.0204L9.66521 11.9898L7.05519 9.41113Z" fill="#FFFBF5"/>
</g>
<defs>
<clipPath id="clip0_1139_37659">
<rect width="20" height="19.7597" fill="white" transform="translate(0.541016 0.404297)"/>
</clipPath>
</defs>
</svg>
