<svg width="22" height="22" viewBox="0 0 22 22" fill="none" xmlns="http://www.w3.org/2000/svg">
<g clip-path="url(#clip0_1803_33235)">
<path d="M14.6443 0H7.32428C6.03247 0.00146484 4.98566 1.04828 4.98438 2.34009V19.66C4.98566 20.9518 6.03247 21.9987 7.32428 21.9999H14.6443C15.9361 21.9987 16.9829 20.9518 16.9844 19.66V2.34009C16.9829 1.04828 15.9361 0.00146484 14.6443 0ZM15.9843 19.66C15.9835 20.3998 15.384 20.9993 14.6443 21H7.32428C6.58453 20.9993 5.98505 20.3998 5.98431 19.66V2.34009C5.98505 1.60016 6.58453 1.00067 7.32428 0.999939H14.6443C15.384 1.00067 15.9835 1.60016 15.9843 2.34009V19.66Z" fill="#606770"/>
<path d="M12.4844 2.00006H9.48444C9.20831 2.00006 8.98438 2.22382 8.98438 2.49994C8.98438 2.77606 9.20831 3 9.48444 3H12.4844C12.7606 3 12.9843 2.77606 12.9843 2.49994C12.9843 2.22382 12.7606 2.00006 12.4844 2.00006Z" fill="#606770"/>
<path d="M11.9844 18.9999C11.9844 19.5524 11.5367 20.0001 10.9845 20.0001C10.4321 20.0001 9.98438 19.5524 9.98438 18.9999C9.98438 18.4477 10.4321 18 10.9845 18C11.5367 18 11.9844 18.4477 11.9844 18.9999Z" fill="#606770"/>
</g>
<defs>
<clipPath id="clip0_1803_33235">
<rect width="22" height="22" fill="white"/>
</clipPath>
</defs>
</svg>
