<svg width="21" height="21" viewBox="0 0 21 21" fill="none" xmlns="http://www.w3.org/2000/svg">
<g opacity="0.2" clip-path="url(#clip0_4369_33895)">
<g clip-path="url(#clip1_4369_33895)">
<path d="M17.9806 6.51518L17.9806 17.9684C17.9806 18.3007 17.9133 18.6299 17.7824 18.937C17.6516 19.244 17.4598 19.5231 17.218 19.7581C16.9763 19.9931 16.6893 20.1796 16.3734 20.3067C16.0575 20.4339 15.719 20.4994 15.3771 20.4994H5.62257C5.28067 20.4994 4.94212 20.4339 4.62624 20.3067C4.31037 20.1796 4.02336 19.9931 3.7816 19.7581C3.53984 19.5231 3.34806 19.244 3.21722 18.937C3.08638 18.6299 3.01904 18.3007 3.01904 17.9684V3.03104C3.01904 2.69866 3.08639 2.36953 3.21723 2.06245C3.34806 1.75537 3.53984 1.47635 3.7816 1.24132C4.02336 1.00629 4.31037 0.819858 4.62624 0.692662C4.94212 0.565466 5.28067 0.499999 5.62257 0.5L11.8239 0.50002L17.9806 6.51518Z" fill="#87AAC1"/>
<path d="M12.0948 0.763672C11.5955 2.0488 10.4401 4.01905 11.6052 5.67514C11.9079 6.13448 13.7517 6.84454 14.9089 7.25428C15.6475 7.51582 16.2551 8.34026 16.2551 9.12536L16.3519 16.7702C16.3519 18.168 15.1871 19.3006 13.7492 19.3006H3.99472C3.77778 19.3006 3.56721 19.274 3.36572 19.2254C3.82904 20.0125 4.69007 20.4984 5.62287 20.4993H15.3773C16.8158 20.4997 17.982 19.3659 17.9815 17.9674V6.51396L12.0948 0.763672Z" fill="#87AAC1"/>
<path d="M11.8243 0.5L11.0153 3.6618C10.9615 3.87212 10.9528 4.09105 10.9898 4.3048C11.0269 4.51855 11.1088 4.72249 11.2305 4.90379C11.3521 5.08509 11.5109 5.23981 11.6967 5.35822C11.8826 5.47662 12.0916 5.55615 12.3104 5.59179L17.981 6.51516L11.8243 0.5Z" fill="#CDE4F3"/>
<path d="M10.5153 8.45898C10.0844 8.46514 9.78455 8.73923 9.63905 8.9029C9.30163 9.28243 9.28619 9.80265 9.39902 10.3069C9.51185 10.8112 9.75348 11.348 10.0483 11.8917C10.0813 11.9527 10.118 11.9939 10.1524 12.0551C9.5596 13.1339 8.74422 14.3083 8.03258 15.2449C7.10865 15.4645 6.22434 15.5723 5.69301 16.1703C5.24813 16.6717 5.21721 17.4334 5.69301 17.8765C5.89999 18.0583 6.18956 18.1503 6.44203 18.1542C6.67913 18.1514 6.88148 18.0839 7.04355 17.985C7.66471 17.6058 8.0692 16.8005 8.51699 15.8696L12.1478 15.0237C12.6925 15.6989 13.2594 16.3608 13.935 16.5694C14.2483 16.6661 14.579 16.6547 14.8749 16.5477C15.1707 16.4407 15.4472 16.2291 15.5733 15.9028C15.7933 15.3101 15.5507 14.6534 14.9833 14.3569C14.5429 14.1193 13.994 14.0788 13.3826 14.1053C13.0703 14.1189 12.7402 14.1523 12.4052 14.2008C12.0092 13.5973 11.4762 12.7997 11.0113 12.0231C11.284 11.4819 11.5208 10.9491 11.6229 10.4601C11.7369 9.91408 11.7141 9.37631 11.4046 8.96204C11.1825 8.61113 10.8437 8.46127 10.5153 8.45898ZM10.8132 9.39452C10.9479 9.56833 10.9936 9.86501 10.9014 10.3069C10.8501 10.5525 10.6766 10.8821 10.5515 11.1817C10.3719 10.8118 10.1838 10.4327 10.1191 10.1435C10.0323 9.7555 10.0919 9.54038 10.1914 9.39452C10.2613 9.2804 10.356 9.21045 10.4918 9.20262C10.6349 9.19463 10.7297 9.2869 10.8132 9.39452ZM10.589 12.739C10.937 13.2934 11.3074 13.8701 11.6099 14.3383L9.18068 14.9282C9.67066 14.1849 10.1848 13.4265 10.589 12.739ZM14.6291 15.0063C14.8962 15.1504 14.9765 15.3787 14.8792 15.6353C14.7878 15.8717 14.3475 15.9353 14.1533 15.8652C13.8897 15.7838 13.4648 15.2951 13.0761 14.8921C13.1836 14.8654 13.3143 14.8473 13.4159 14.8429C13.8068 14.8257 14.2644 14.8349 14.6291 15.0063ZM7.37033 16.2686C7.11326 16.6866 6.82372 17.2542 6.65458 17.3574C6.48733 17.4725 6.29425 17.4296 6.1962 17.33C6.06069 17.1993 6.03734 16.9044 6.25115 16.6634C6.46904 16.4538 6.78035 16.3661 7.37033 16.2686Z" fill="white"/>
</g>
</g>
<defs>
<clipPath id="clip0_4369_33895">
<rect width="20" height="20" fill="white" transform="translate(0.321289 0.521484)"/>
</clipPath>
<clipPath id="clip1_4369_33895">
<rect width="20" height="20" fill="white" transform="translate(0.5 0.5)"/>
</clipPath>
</defs>
</svg>
