<svg width="22" height="23" viewBox="0 0 22 23" fill="none" xmlns="http://www.w3.org/2000/svg">
<g id="iphone 1" clip-path="url(#clip0_1829_37722)">
<path id="Vector" d="M14.6443 0.5H7.32428C6.03247 0.501465 4.98566 1.54828 4.98438 2.84009V20.16C4.98566 21.4518 6.03247 22.4987 7.32428 22.4999H14.6443C15.9361 22.4987 16.9829 21.4518 16.9844 20.16V2.84009C16.9829 1.54828 15.9361 0.501465 14.6443 0.5ZM15.9843 20.16C15.9835 20.8998 15.384 21.4993 14.6443 21.5H7.32428C6.58453 21.4993 5.98505 20.8998 5.98431 20.16V2.84009C5.98505 2.10016 6.58453 1.50067 7.32428 1.49994H14.6443C15.384 1.50067 15.9835 2.10016 15.9843 2.84009V20.16Z" fill="#606770"/>
<path id="Vector_2" d="M12.4844 2.5H9.48444C9.20831 2.5 8.98438 2.72375 8.98438 2.99988C8.98438 3.276 9.20831 3.49994 9.48444 3.49994H12.4844C12.7606 3.49994 12.9843 3.276 12.9843 2.99988C12.9843 2.72375 12.7606 2.5 12.4844 2.5Z" fill="#606770"/>
<path id="Vector_3" d="M11.9844 19.4999C11.9844 20.0524 11.5367 20.5001 10.9845 20.5001C10.4321 20.5001 9.98438 20.0524 9.98438 19.4999C9.98438 18.9477 10.4321 18.5 10.9845 18.5C11.5367 18.5 11.9844 18.9477 11.9844 19.4999Z" fill="#606770"/>
</g>
<defs>
<clipPath id="clip0_1829_37722">
<rect width="22" height="22" fill="white" transform="translate(0 0.5)"/>
</clipPath>
</defs>
</svg>
