<svg width="180" height="29" viewBox="0 0 180 29" fill="none" xmlns="http://www.w3.org/2000/svg">
<g id="Logo Svg 1" clip-path="url(#clip0_1829_33355)">
<path id="Vector" d="M11.3799 10.7453C11.4926 10.2289 11.5254 9.69802 11.4771 9.17152C11.4771 6.81459 11.4771 4.45765 11.4771 2.10072C11.4771 0.549516 12.3145 -0.1583 13.6603 0.0450129C14.6697 0.203145 15.1109 0.798018 15.1183 2.08567C15.1183 4.39742 15.1183 6.7167 15.1183 9.03598V15.6173C15.1183 16.4908 15.1183 17.3793 14.1164 17.7709C13.1145 18.1625 12.3519 17.7709 11.5817 16.7995C9.29379 13.9004 7.02827 10.9787 4.7478 8.0721C4.51463 7.68602 4.21004 7.3486 3.85057 7.07814C3.46925 7.28146 3.63375 7.6429 3.63375 7.92151C3.63375 10.6098 3.63375 13.2905 3.63375 15.9712C3.63375 17.4095 2.80381 18.0571 1.42805 17.8312C0.538293 17.6881 0.0672416 17.1158 0.0223799 15.9863C-0.0224817 14.8567 0.0223799 13.6294 0.0223799 12.4471V2.81609C0.0223799 2.5676 0.0223799 2.32663 0.0223799 2.06308C0.0747186 1.21971 0.216784 0.406441 1.15888 0.0977063C1.56261 -0.0465479 2.00262 -0.0507896 2.40902 0.0856418C2.81543 0.222073 3.16492 0.491353 3.40196 0.850718L7.46941 6.01639C8.50123 7.32663 9.5181 8.6444 10.5574 9.93958C10.7467 10.271 11.0343 10.5343 11.3799 10.6926" fill="#045C99"/>
<path id="Vector_2" d="M92.0788 10.5498C93.9854 11.8676 94.5761 13.8857 95.5406 15.6477C95.7119 15.9316 95.7809 16.2663 95.736 16.5954C95.691 16.9246 95.5349 17.2281 95.2939 17.4549C94.9401 17.6902 94.5325 17.8304 94.1097 17.862C93.687 17.8936 93.2632 17.8157 92.8788 17.6356C92.3816 17.3567 91.984 16.9273 91.7423 16.4082C91.0619 15.1582 90.3292 13.9383 89.731 12.6432C89.5204 12.0641 89.1169 11.5764 88.5892 11.2634C88.0616 10.9503 87.4425 10.8312 86.8374 10.9263C86.4113 10.9263 85.9701 10.9263 85.4168 10.9263C85.4168 12.6733 85.4168 14.2923 85.4168 15.9037C85.4506 16.1696 85.423 16.4397 85.336 16.6931C85.2491 16.9464 85.1052 17.1761 84.9155 17.3641C84.7259 17.5522 84.4956 17.6936 84.2428 17.7773C83.9899 17.8609 83.7213 17.8846 83.4579 17.8465C82.1569 17.8465 81.5438 17.1462 81.5288 15.5874C81.5288 12.3721 81.5288 9.16425 81.5288 5.95642C81.5288 4.73654 81.5288 3.51668 81.5288 2.30433C81.5811 0.798303 82.1868 0.256126 83.6448 0.248596C85.8281 0.248596 88.0188 0.203415 90.2021 0.248596C94.0153 0.338957 96.2285 3.19288 95.4359 6.91276C95.253 7.76341 94.8452 8.54842 94.2555 9.18471C93.6658 9.82099 92.9163 10.2849 92.0863 10.5272M85.4916 8.01969C86.9421 8.01969 88.3553 8.11005 89.7534 8.01969C90.0406 8.02323 90.3253 7.9657 90.5889 7.85085C90.8525 7.73601 91.089 7.56643 91.2831 7.35322C91.4772 7.14 91.6244 6.88794 91.7151 6.61351C91.8058 6.33908 91.838 6.04847 91.8096 5.76065C91.8482 5.47597 91.828 5.18632 91.7503 4.90988C91.6725 4.63344 91.5389 4.37615 91.3578 4.15416C91.1767 3.93216 90.952 3.75026 90.6978 3.61982C90.4436 3.48939 90.1653 3.41325 89.8806 3.39618C88.4242 3.22127 86.9546 3.18598 85.4916 3.29077V8.01969Z" fill="#045C99"/>
<path id="Vector_3" d="M142.399 11.9428C142.399 13.0723 142.399 14.2846 142.399 15.4894C142.399 17.1009 141.718 17.8163 140.268 17.8464C138.817 17.8765 137.882 17.1385 137.867 15.5873C137.833 11.3203 137.833 7.0532 137.867 2.78613C137.867 1.15963 138.668 0.459322 140.32 0.451792C142.391 0.451792 144.455 0.414142 146.526 0.451792C151.819 0.549684 153.008 4.81927 151.999 8.13253C151.311 10.3916 149.584 11.4307 147.356 11.6566C146.152 11.7846 144.926 11.7018 143.707 11.7319C143.26 11.6582 142.801 11.7322 142.399 11.9428ZM142.578 8.25301C143.857 8.17018 145.12 8.41866 146.354 8.1024C146.827 8.00184 147.25 7.73698 147.55 7.3541C147.849 6.97121 148.005 6.49464 147.991 6.00762C147.976 5.52061 147.793 5.05413 147.472 4.68965C147.151 4.32517 146.713 4.08587 146.234 4.01355C144.963 3.83093 143.673 3.81828 142.399 3.97591C142.399 4.96235 142.399 5.88101 142.399 6.80722C142.328 7.29599 142.388 7.79478 142.57 8.25301" fill="#D95C07"/>
<path id="Vector_4" d="M126.001 11.7094C126.001 13.1326 126.001 14.3525 126.001 15.5648C125.964 17.1612 125.201 17.8917 123.669 17.8691C123.376 17.9011 123.081 17.8677 122.803 17.7713C122.525 17.6749 122.271 17.5178 122.061 17.3114C121.85 17.1049 121.687 16.8541 121.584 16.577C121.48 16.2998 121.439 16.003 121.463 15.7079C121.418 13.7576 121.463 11.8073 121.463 9.85703V3.28322C121.463 1.12208 122.083 0.49707 124.184 0.49707C126.173 0.49707 128.155 0.49707 130.166 0.49707C134.503 0.549781 136.693 3.77268 135.647 7.96696C135.101 10.1883 133.284 11.5814 130.824 11.732C129.329 11.8149 127.758 11.732 126.046 11.732M126.091 8.32088C127.586 8.18533 128.895 8.5016 130.196 8.08744C130.635 7.97973 131.019 7.71094 131.272 7.33358C131.525 6.95622 131.629 6.49741 131.564 6.04679C131.601 5.61425 131.48 5.18294 131.224 4.83365C130.968 4.48435 130.595 4.241 130.173 4.14918C128.835 3.77268 127.482 3.96848 126.091 3.95342V8.32088Z" fill="#D95C07"/>
<path id="Vector_5" d="M114.382 14.2016H106.95C106.542 14.9146 106.188 15.6571 105.889 16.423C105.75 16.8079 105.507 17.146 105.187 17.3988C104.867 17.6517 104.483 17.8093 104.079 17.8537C102.165 18.0043 101.275 16.7919 102.09 14.9922C103.773 11.2949 105.5 7.62779 107.205 3.94556C107.519 3.28291 107.803 2.60521 108.124 1.95008C108.326 1.43328 108.679 0.990776 109.137 0.68179C109.595 0.372804 110.136 0.212055 110.687 0.221062C111.239 0.230069 111.774 0.408397 112.222 0.732185C112.67 1.05597 113.009 1.50979 113.194 2.03291C114.659 5.1554 116.117 8.2829 117.568 11.4154C118.128 12.6278 118.704 13.8401 119.25 15.06C119.796 16.2799 119.609 17.1684 118.764 17.6353C118.256 17.8996 117.672 17.9727 117.115 17.8416C116.559 17.7105 116.067 17.3836 115.728 16.9199C115.22 16.0992 114.861 15.188 114.382 14.2016ZM108.401 10.5946H112.939C112.192 8.78742 111.444 7.09315 110.659 5.19556L108.416 10.5946" fill="#D95C07"/>
<path id="Vector_6" d="M22.3409 10.4368V14.4729C22.6715 14.6708 23.0652 14.7329 23.44 14.6461C25.3466 14.6461 27.2533 14.6461 29.1599 14.6461C30.2291 14.6461 30.6553 15.1205 30.6553 16.1521C30.6553 17.1837 30.2291 17.6581 29.1599 17.6581C26.2439 17.6581 23.3204 17.6581 20.4044 17.6581C20.1696 17.6848 19.9319 17.661 19.707 17.5881C19.482 17.5153 19.2751 17.3952 19.0997 17.2357C18.9244 17.0762 18.7847 16.881 18.69 16.663C18.5952 16.4451 18.5475 16.2093 18.5501 15.9714C18.5276 15.6053 18.5276 15.2381 18.5501 14.872C18.5501 10.8057 18.5501 6.73947 18.5501 2.68074C18.5501 0.820796 19.1034 0.293678 20.9577 0.293678C23.6718 0.293678 26.3859 0.293678 29.1075 0.293678C29.3403 0.255835 29.5789 0.278563 29.8005 0.3597C30.0221 0.440837 30.2195 0.577685 30.3738 0.757255C30.5281 0.936826 30.6343 1.15316 30.6823 1.38569C30.7302 1.61822 30.7184 1.85924 30.6478 2.08585C30.5282 3.00452 29.9001 3.2982 29.1075 3.30573C27.3205 3.30573 25.541 3.30573 23.754 3.30573C23.2826 3.25626 22.8061 3.29454 22.3484 3.41867C22.1839 4.63855 22.3484 5.88103 22.2736 7.30422H26.0569C26.9093 7.30422 27.7617 7.30422 28.6141 7.30422C29.6758 7.34187 30.1095 7.80121 30.1095 8.81024C30.1464 9.01785 30.1336 9.23135 30.0721 9.43298C30.0107 9.63461 29.9023 9.81855 29.7561 9.96952C29.6098 10.1205 29.4299 10.2341 29.2313 10.301C29.0326 10.3678 28.8211 10.386 28.6141 10.3539C26.7523 10.4142 24.8756 10.3539 23.0213 10.3539L22.2736 10.4066" fill="#045C99"/>
<path id="Vector_7" d="M74.6126 13.9533H66.545C66.1786 14.7967 65.7973 15.6551 65.4384 16.491C65.3306 16.8433 65.1259 17.1575 64.848 17.3974C64.5701 17.6373 64.2304 17.793 63.8682 17.8464C62.313 18.0121 61.4158 16.9503 62.0588 15.5196C64.1449 10.8509 66.2833 6.20484 68.4067 1.55122C68.5696 1.11002 68.8624 0.729413 69.2459 0.460288C69.6293 0.191164 70.0852 0.0463489 70.5526 0.0451986C71.0452 0.0375857 71.5275 0.187208 71.9305 0.472629C72.3334 0.758049 72.6363 1.16461 72.7957 1.63404C74.5004 5.36396 76.2102 9.09138 77.9249 12.8163C78.3286 13.6973 78.7548 14.5783 79.1287 15.4744C79.5623 16.506 79.4128 17.2214 78.7399 17.6431C78.3124 17.8794 77.8161 17.9568 77.3377 17.8618C76.8594 17.7668 76.4294 17.5055 76.1229 17.1235C75.9365 16.8614 75.781 16.5784 75.6594 16.2801C75.3154 15.5271 74.9939 14.7741 74.6276 13.9759M73.3041 10.8509C72.4069 8.68976 71.6143 6.62652 70.5377 4.4202L67.8684 10.8509H73.3041Z" fill="#045C99"/>
<path id="Vector_8" d="M55.2995 6.1898C56.4659 4.51811 57.5426 2.9142 58.6866 1.32534C58.8589 0.999622 59.1003 0.7161 59.3936 0.494867C59.6869 0.273634 60.025 0.120126 60.3838 0.045238C60.7216 -0.0384111 61.0762 -0.0209885 61.4043 0.0953806C61.7323 0.21175 62.0195 0.422003 62.2306 0.700355C62.4131 0.974288 62.5055 1.29903 62.4948 1.62873C62.4841 1.95842 62.3707 2.2764 62.1708 2.53771C61.5727 3.46391 60.9371 4.35245 60.3091 5.25607C59.4044 6.55878 58.5146 7.86902 57.5725 9.14161C57.2315 9.59545 57.0571 10.1542 57.079 10.7229C57.079 12.4699 57.1314 14.2169 57.079 15.994C57.0342 17.5001 55.9351 18.2531 54.4771 17.8163C54.0826 17.7009 53.7424 17.4465 53.5187 17.0995C53.2949 16.7526 53.2025 16.3361 53.2583 15.9263C53.2583 14.2245 53.2583 12.5151 53.2583 10.8058C53.282 10.1961 53.0943 9.59705 52.7274 9.11149C51.3293 7.16872 49.961 5.19583 48.5777 3.238C47.7104 2.01059 47.7104 0.978961 48.5777 0.338901C49.0774 0.0557004 49.6657 -0.0240711 50.2219 0.115971C50.7781 0.256013 51.26 0.605236 51.5685 1.09191C52.5031 2.3645 53.3705 3.69733 54.2826 4.99251C54.5347 5.46088 54.878 5.87323 55.292 6.20487" fill="#045C99"/>
<path id="Vector_9" d="M39.568 6.24986C40.6148 4.74383 41.6242 3.28298 42.6485 1.83719C42.9278 1.38914 43.2509 0.970402 43.613 0.587215C43.9706 0.247875 44.435 0.0454603 44.9254 0.0151941C45.4158 -0.0150721 45.9012 0.128724 46.2972 0.421551C46.9178 0.94866 46.9328 1.92758 46.2972 2.84625C44.8692 4.91703 43.441 6.98782 41.9681 9.03601C41.5806 9.55242 41.3849 10.1891 41.4148 10.8357C41.4148 12.4622 41.4148 14.0887 41.4148 15.7152C41.4148 17.2212 40.8391 17.8462 39.5456 17.8613C38.2521 17.8764 37.5492 17.1911 37.5268 15.6851C37.4894 14.0209 37.5268 12.3568 37.5268 10.6851C37.5481 10.078 37.3606 9.48218 36.9959 8.99835C35.5903 7.06311 34.2743 5.0601 32.8313 3.14745C32.0088 2.04805 32.2331 0.775463 32.921 0.323656C33.3979 0.0354637 33.967 -0.0557268 34.5092 0.0691974C35.0513 0.194122 35.5245 0.525459 35.8295 0.993825C36.9884 2.56009 38.0726 4.17908 39.1792 5.78299C39.2764 5.91101 39.3886 6.02395 39.583 6.24986" fill="#045C99"/>
<path id="Vector_10" d="M3.67869 24.2621H1.64496L1.48047 25.3615H3.32727C3.43349 25.3542 3.53829 25.3894 3.61887 25.4594C3.64912 25.4923 3.67103 25.5321 3.68274 25.5754C3.69446 25.6186 3.69563 25.6641 3.68616 25.7079C3.67244 25.8061 3.62153 25.8952 3.5441 25.9564C3.45034 26.0227 3.33687 26.0546 3.2226 26.0468H1.35336L1.16644 27.3194H3.25998C3.31557 27.3142 3.37161 27.3209 3.42444 27.3391C3.47727 27.3573 3.5257 27.3865 3.56654 27.4248C3.59751 27.4603 3.61973 27.5027 3.63142 27.5485C3.64311 27.5943 3.64394 27.6422 3.63383 27.6883C3.62197 27.7893 3.57089 27.8813 3.49177 27.9444C3.39438 28.0155 3.27536 28.0501 3.15531 28.0423H0.710342C0.637862 28.0514 0.564284 28.0447 0.494611 28.0226C0.424938 28.0005 0.360811 27.9635 0.306592 27.9142C0.266166 27.8514 0.23928 27.7808 0.227688 27.7068C0.216096 27.6329 0.220048 27.5573 0.239291 27.485L0.747729 24.1191C0.758721 24.0071 0.79449 23.899 0.852406 23.8028C0.901622 23.7219 0.974867 23.6587 1.06176 23.6221C1.16426 23.5827 1.27365 23.5648 1.38326 23.5694H3.76094C3.86855 23.5587 3.97599 23.5912 4.06001 23.6597C4.09334 23.6922 4.11722 23.7332 4.12908 23.7783C4.14094 23.8234 4.14034 23.871 4.12731 23.9157C4.11545 24.0167 4.06437 24.1087 3.98525 24.1718C3.88868 24.238 3.77286 24.2698 3.65626 24.2621" fill="#D95C07"/>
<path id="Vector_11" d="M7.16291 23.5694H8.33678C8.58852 23.5644 8.83984 23.5922 9.08448 23.6522C9.2913 23.7105 9.47944 23.8221 9.63029 23.9761C9.84141 24.2214 9.98989 24.5149 10.0629 24.8312C10.1358 25.1474 10.1311 25.4768 10.049 25.7908C10.0177 26.0479 9.9575 26.3005 9.86956 26.5438C9.79313 26.7569 9.69012 26.9593 9.563 27.1462C9.4379 27.3237 9.28951 27.4833 9.12186 27.6206C8.98882 27.7264 8.84313 27.815 8.6882 27.8842C8.53353 27.9452 8.37324 27.9906 8.20968 28.0197C8.0263 28.0448 7.84144 28.0574 7.65638 28.0574H6.4825C6.35815 28.0679 6.23345 28.0417 6.12361 27.9821C6.08712 27.9591 6.05612 27.9283 6.03285 27.8918C6.00959 27.8554 5.99462 27.8142 5.98902 27.7712C5.97892 27.6535 5.97892 27.5351 5.98902 27.4173L6.4825 24.1342C6.50152 23.9765 6.56956 23.8289 6.6769 23.7125C6.80392 23.6179 6.96051 23.5724 7.11805 23.5845M7.36478 24.2998L6.90868 27.3119H7.94051C8.0346 27.3019 8.12735 27.2817 8.21715 27.2516C8.30805 27.216 8.39361 27.1679 8.47137 27.1086C8.8525 26.7699 9.08613 26.2939 9.12186 25.7833C9.19657 25.4565 9.18106 25.1154 9.077 24.7968C9.03774 24.7001 8.9789 24.6126 8.90424 24.54C8.82958 24.4674 8.74073 24.4113 8.64334 24.3752C8.42009 24.3093 8.18802 24.2788 7.95546 24.2848L7.36478 24.2998Z" fill="#D95C07"/>
<path id="Vector_12" d="M12.4342 26.1898L12.7557 24.0362C12.771 23.8834 12.8368 23.7402 12.9426 23.6295C12.9876 23.5838 13.0411 23.5475 13.1002 23.523C13.1593 23.4984 13.2226 23.486 13.2866 23.4865C13.3453 23.4838 13.4038 23.4954 13.4572 23.5203C13.5105 23.5452 13.5572 23.5827 13.5931 23.6295C13.6296 23.6898 13.6537 23.7569 13.664 23.8268C13.6743 23.8966 13.6705 23.9678 13.6529 24.0362L13.3239 26.2425C13.2866 26.4491 13.2866 26.6609 13.3239 26.8675C13.3339 26.9453 13.3596 27.0202 13.3995 27.0875C13.4393 27.1549 13.4925 27.2133 13.5557 27.2591C13.7289 27.3642 13.9296 27.414 14.1314 27.4021C14.275 27.4131 14.4192 27.3933 14.5545 27.344C14.6898 27.2946 14.8132 27.2169 14.9165 27.116C15.1271 26.8732 15.2577 26.5707 15.2904 26.25L15.6194 24.0286C15.6378 23.8745 15.7031 23.7298 15.8063 23.6145C15.8988 23.5255 16.0223 23.4768 16.1502 23.479C16.2084 23.4748 16.2667 23.4849 16.3202 23.5085C16.3736 23.5321 16.4205 23.5685 16.4568 23.6145C16.496 23.675 16.5222 23.7431 16.5338 23.8144C16.5454 23.8857 16.5421 23.9587 16.5241 24.0286L16.2026 26.1823C16.163 26.4855 16.0825 26.7819 15.9633 27.0633C15.8565 27.3034 15.6951 27.5149 15.4923 27.6808C15.3093 27.8274 15.1016 27.9397 14.8791 28.0121C14.6356 28.0796 14.384 28.1125 14.1314 28.11C13.8389 28.1149 13.5471 28.0794 13.2641 28.0045C13.0525 27.9404 12.8616 27.8209 12.7108 27.6582C12.5727 27.4855 12.4871 27.2763 12.4641 27.0558C12.4202 26.7663 12.4202 26.4717 12.4641 26.1823" fill="#D95C07"/>
<path id="Vector_13" d="M22.4831 26.6266C22.4527 26.7922 22.3919 26.9505 22.3036 27.0935C22.1967 27.2779 22.0602 27.4432 21.8999 27.5829C21.7156 27.7486 21.5027 27.8787 21.2718 27.967C21.0057 28.0738 20.7208 28.125 20.4344 28.1176C20.2231 28.1198 20.0123 28.0971 19.8063 28.0498C19.6318 28.0098 19.4651 27.9411 19.3128 27.8465C19.167 27.7443 19.0404 27.6169 18.939 27.47C18.8411 27.323 18.7631 27.1634 18.7072 26.9956C18.6513 26.8148 18.6186 26.6275 18.61 26.4384C18.5844 26.2308 18.5844 26.0209 18.61 25.8134C18.6575 25.4756 18.7585 25.1476 18.9091 24.842C19.0489 24.5587 19.239 24.3035 19.4698 24.089C19.6882 23.8898 19.9418 23.734 20.2175 23.6296C20.4908 23.519 20.7828 23.4627 21.0774 23.464C21.3999 23.4559 21.719 23.5311 22.0045 23.6823C22.2401 23.8032 22.4371 23.9885 22.5728 24.217C22.6853 24.3989 22.7328 24.6141 22.7074 24.8269C22.6896 24.9318 22.6369 25.0274 22.5578 25.098C22.4827 25.1744 22.3805 25.2178 22.2737 25.2185C22.2292 25.2219 22.1844 25.2163 22.1421 25.2021C22.0997 25.1878 22.0606 25.1653 22.027 25.1356C21.9602 25.0503 21.9095 24.9533 21.8774 24.8495C21.8123 24.6561 21.6959 24.4843 21.541 24.3525C21.3744 24.2368 21.1749 24.1787 20.9727 24.1869C20.7942 24.1855 20.6175 24.2232 20.4549 24.2973C20.2922 24.3714 20.1475 24.4801 20.0306 24.6161C19.7441 24.9574 19.5645 25.3767 19.5147 25.8209C19.4571 26.1066 19.4571 26.4011 19.5147 26.6868C19.5642 26.8938 19.6831 27.0773 19.8512 27.2064C20.0279 27.3252 20.2369 27.3858 20.4493 27.3796C20.6926 27.3828 20.9316 27.3148 21.1372 27.1838C21.346 27.0369 21.5154 26.8403 21.6307 26.6116C21.6764 26.5079 21.7368 26.4115 21.8101 26.3254C21.8478 26.2865 21.8933 26.2563 21.9436 26.2368C21.994 26.2173 22.0479 26.209 22.1017 26.2125C22.1511 26.2105 22.2002 26.2197 22.2456 26.2395C22.2909 26.2593 22.3312 26.2891 22.3635 26.3267C22.3958 26.3643 22.4193 26.4088 22.4322 26.4568C22.4452 26.5048 22.4472 26.5551 22.4382 26.604" fill="#D95C07"/>
<path id="Vector_14" d="M27.6126 27.5376L27.4855 26.9729H25.6761L25.377 27.5452C25.3008 27.7075 25.2081 27.8614 25.1003 28.0045C25.0599 28.0438 25.0117 28.0741 24.9589 28.0936C24.9061 28.113 24.8499 28.1212 24.7938 28.1175C24.7406 28.1194 24.6876 28.1096 24.6385 28.0888C24.5895 28.068 24.5455 28.0367 24.5097 27.997C24.4739 27.9594 24.4472 27.9141 24.4316 27.8645C24.4161 27.8148 24.4121 27.7623 24.4199 27.7108C24.433 27.6461 24.4531 27.583 24.4797 27.5226C24.4797 27.4548 24.562 27.3644 24.6218 27.2515L26.1994 24.3449L26.3565 24.0437C26.4106 23.9391 26.4758 23.8406 26.5509 23.75C26.6124 23.6698 26.6918 23.6054 26.7826 23.5617C26.8824 23.5113 26.9926 23.4855 27.1042 23.4864C27.2087 23.4844 27.3119 23.5104 27.4032 23.5617C27.4774 23.6088 27.539 23.6735 27.5827 23.75C27.6215 23.8267 27.6516 23.9075 27.6724 23.991C27.6724 24.0738 27.7247 24.1943 27.7546 24.3373L28.5023 27.2214C28.548 27.3777 28.5682 27.5405 28.5622 27.7033C28.5419 27.8168 28.4806 27.9187 28.3902 27.9895C28.3011 28.0734 28.1832 28.1193 28.0612 28.1175C27.9991 28.1219 27.937 28.1088 27.8818 28.0798C27.8359 28.0551 27.7973 28.0188 27.7696 27.9744C27.7357 27.913 27.7106 27.8471 27.6948 27.7786C27.6684 27.6995 27.6459 27.6191 27.6275 27.5376M26.0275 26.2952H27.3584L26.9696 24.4428L26.0275 26.2952Z" fill="#D95C07"/>
<path id="Vector_15" d="M33.676 24.3147H32.6891L32.2031 27.5677C32.1894 27.7231 32.1235 27.8692 32.0161 27.9818C31.9237 28.0708 31.8001 28.1196 31.6722 28.1174C31.6142 28.1204 31.5562 28.1096 31.503 28.0861C31.4498 28.0626 31.4028 28.0269 31.3656 27.9818C31.3285 27.9204 31.3041 27.8521 31.2938 27.7809C31.2835 27.7097 31.2876 27.6372 31.3058 27.5677L31.7918 24.3147H30.8123C30.7533 24.3203 30.6937 24.3138 30.6372 24.2957C30.5807 24.2776 30.5284 24.2482 30.4834 24.2093C30.4494 24.174 30.4254 24.1304 30.4135 24.0828C30.4017 24.0352 30.4026 23.9853 30.4161 23.9382C30.4223 23.8845 30.4394 23.8327 30.4664 23.7861C30.4934 23.7394 30.5298 23.6989 30.5731 23.6671C30.6756 23.5949 30.7997 23.5603 30.9245 23.5692H33.7882C33.8467 23.5626 33.906 23.5678 33.9625 23.5846C34.019 23.6014 34.0716 23.6295 34.1172 23.6671C34.1495 23.7034 34.1731 23.7468 34.1861 23.7938C34.1991 23.8408 34.2011 23.8902 34.1919 23.9382C34.1857 23.9918 34.1686 24.0436 34.1416 24.0902C34.1145 24.1369 34.0782 24.1774 34.0349 24.2093C33.93 24.2831 33.8039 24.3201 33.676 24.3147Z" fill="#D95C07"/>
<path id="Vector_16" d="M35.8296 27.568L36.3604 24.0364C36.3757 23.8835 36.4416 23.7403 36.5474 23.6297C36.6391 23.5387 36.7625 23.4873 36.8913 23.4866C36.9502 23.4826 37.0092 23.4937 37.0628 23.5187C37.1164 23.5437 37.1628 23.5819 37.1979 23.6297C37.2711 23.7516 37.2952 23.8971 37.2652 24.0364L36.7343 27.568C36.7211 27.7251 36.6521 27.8721 36.5399 27.9821C36.4474 28.0711 36.3239 28.1198 36.196 28.1177C36.1388 28.122 36.0816 28.1118 36.0293 28.0881C35.9771 28.0644 35.9316 28.028 35.8969 27.9821C35.8573 27.9218 35.8308 27.8537 35.8192 27.7823C35.8076 27.7109 35.8111 27.6379 35.8296 27.568Z" fill="#D95C07"/>
<path id="Vector_17" d="M41.9232 23.4863C42.3237 23.471 42.7203 23.5702 43.0672 23.7724C43.3636 23.9588 43.5858 24.2439 43.6952 24.5782C43.817 24.9728 43.8426 25.3913 43.77 25.798C43.7229 26.1244 43.6271 26.4417 43.4859 26.7393C43.3586 27.0223 43.1784 27.278 42.955 27.4923C42.7412 27.701 42.4865 27.8625 42.2073 27.9667C41.9013 28.0814 41.5768 28.1376 41.2503 28.1324C40.9406 28.1407 40.6325 28.0843 40.3456 27.9667C40.0998 27.8645 39.8856 27.6981 39.725 27.4848C39.5658 27.2613 39.4609 27.0034 39.4184 26.7318C39.3735 26.4197 39.3735 26.1026 39.4184 25.7905C39.4668 25.4635 39.5651 25.146 39.71 24.8493C39.8406 24.5662 40.0233 24.3107 40.2484 24.0962C40.4644 23.894 40.7187 23.7378 40.9961 23.6369C41.2952 23.5257 41.6118 23.4696 41.9307 23.4712M42.8653 25.7754C42.9229 25.4948 42.9229 25.2052 42.8653 24.9245C42.8079 24.7051 42.6756 24.5131 42.4915 24.3824C42.3031 24.2509 42.0774 24.1848 41.8484 24.1941C41.6736 24.1941 41.5006 24.23 41.34 24.2995C41.175 24.3669 41.0251 24.4667 40.8989 24.5932C40.759 24.7409 40.6452 24.9115 40.5624 25.0977C40.4652 25.3135 40.3973 25.5414 40.3605 25.7754C40.3271 26.0051 40.3271 26.2385 40.3605 26.4682C40.3871 26.6512 40.4535 26.8261 40.5549 26.9803C40.6468 27.1101 40.7704 27.2138 40.9138 27.2815C41.0632 27.3532 41.2269 27.3893 41.3923 27.3869C41.6237 27.3867 41.8508 27.3243 42.0503 27.2062C42.275 27.0784 42.463 26.8942 42.5961 26.6715C42.7581 26.3971 42.8624 26.0921 42.9027 25.7754" fill="#D95C07"/>
<path id="Vector_18" d="M47.5908 24.0363L48.9217 26.6718L49.3254 24.0061C49.3392 23.8625 49.3996 23.7276 49.4974 23.6221C49.5373 23.5786 49.5859 23.544 49.6401 23.5206C49.6942 23.4973 49.7526 23.4856 49.8114 23.4866C49.8674 23.4829 49.9234 23.4934 49.9743 23.517C50.0252 23.5407 50.0695 23.5768 50.103 23.6221C50.1675 23.739 50.1862 23.876 50.1554 24.0061L49.6245 27.5303C49.5647 27.9218 49.3703 28.1176 49.0488 28.1176C48.9795 28.1302 48.9086 28.1302 48.8394 28.1176C48.7761 28.0944 48.7195 28.0555 48.6749 28.0046C48.6219 27.951 48.5766 27.8902 48.5403 27.8239L48.4282 27.6131L47.1272 25.0077L46.7384 27.6281C46.7205 27.7743 46.6578 27.9112 46.559 28.0197C46.4718 28.1019 46.3568 28.1476 46.2374 28.1477C46.1833 28.151 46.1293 28.1411 46.0798 28.1188C46.0303 28.0965 45.9869 28.0625 45.9533 28.0197C45.8836 27.902 45.8621 27.7615 45.8935 27.6281L46.4094 24.1793C46.424 24.0586 46.4595 23.9414 46.5141 23.833C46.5689 23.74 46.6461 23.6623 46.7384 23.607C46.8276 23.549 46.9313 23.5177 47.0375 23.5167C47.1075 23.5138 47.1771 23.5294 47.2393 23.5619C47.2918 23.5859 47.3379 23.622 47.3739 23.6673C47.4164 23.7215 47.4539 23.7795 47.4861 23.8405C47.4861 23.9158 47.5534 23.9836 47.5908 24.0664" fill="#D95C07"/>
<path id="Vector_19" d="M58.2381 27.5378L58.111 26.973H56.3016L56.0025 27.5453C55.9244 27.7083 55.8292 27.8623 55.7184 28.0046C55.6793 28.0437 55.6324 28.074 55.5809 28.0935C55.5293 28.1129 55.4742 28.1212 55.4193 28.1176C55.366 28.12 55.3129 28.1105 55.2637 28.0896C55.2146 28.0688 55.1706 28.0372 55.1351 27.9971C55.0994 27.9596 55.0727 27.9142 55.0571 27.8646C55.0416 27.815 55.0376 27.7624 55.0454 27.711C55.0551 27.6454 55.0753 27.5818 55.1052 27.5227C55.1471 27.4295 55.1945 27.339 55.2473 27.2516L56.8175 24.345L56.982 24.0438C57.0367 23.9412 57.0991 23.843 57.1689 23.7501C57.2338 23.6733 57.3124 23.6095 57.4007 23.5619C57.5009 23.513 57.6108 23.4872 57.7222 23.4866C57.8292 23.4836 57.9351 23.5096 58.0287 23.5619C58.1026 23.607 58.1622 23.6722 58.2007 23.7501C58.2452 23.8249 58.278 23.9062 58.2979 23.9911C58.2979 24.0739 58.3502 24.1944 58.3801 24.3375L59.1278 27.2215C59.1793 27.3767 59.2021 27.54 59.1951 27.7034C59.1749 27.8169 59.1136 27.9189 59.0232 27.9896C58.9341 28.0735 58.8162 28.1194 58.6942 28.1176C58.632 28.1229 58.5696 28.1098 58.5147 28.0799C58.4689 28.0552 58.4302 28.0189 58.4026 27.9745C58.3661 27.9135 58.3384 27.8476 58.3203 27.7787L58.2605 27.5378M56.6604 26.2953H57.9913L57.5951 24.4429L56.6604 26.2953Z" fill="#045C99"/>
<path id="Vector_20" d="M64.2942 24.3146H63.3147L62.8287 27.5676C62.815 27.7231 62.7491 27.8692 62.6418 27.9818C62.5485 28.0694 62.4254 28.1179 62.2978 28.1173C62.2396 28.1215 62.1813 28.1114 62.1279 28.0877C62.0745 28.0641 62.0276 28.0277 61.9913 27.9818C61.9542 27.9203 61.9297 27.852 61.9195 27.7808C61.9092 27.7097 61.9133 27.6371 61.9315 27.5676L62.4175 24.3146H61.438C61.3789 24.3202 61.3194 24.3137 61.2628 24.2956C61.2063 24.2775 61.154 24.2481 61.109 24.2092C61.0756 24.1735 61.0513 24.1302 61.0383 24.083C61.0252 24.0357 61.0238 23.986 61.0342 23.9381C61.0527 23.8317 61.1084 23.7356 61.1912 23.667C61.2971 23.5958 61.4231 23.5614 61.5501 23.5691H64.4138C64.5319 23.5574 64.65 23.5925 64.7428 23.667C64.7752 23.7033 64.7988 23.7467 64.8118 23.7937C64.8247 23.8407 64.8267 23.8901 64.8176 23.9381C64.7991 24.0444 64.7434 24.1406 64.6606 24.2092C64.5533 24.2841 64.4245 24.3212 64.2942 24.3146Z" fill="#045C99"/>
<path id="Vector_21" d="M70.5747 27.5678L70.7915 26.1446L69.9616 24.4503C69.9015 24.337 69.8515 24.2186 69.812 24.0964C69.7951 24.0221 69.7951 23.9448 69.812 23.8705C69.8343 23.7638 69.8924 23.668 69.9765 23.5994C70.0644 23.5251 70.1758 23.485 70.2906 23.4864C70.3393 23.4823 70.3884 23.4896 70.4338 23.5079C70.4792 23.5262 70.5198 23.555 70.5523 23.5919C70.638 23.7262 70.713 23.8672 70.7766 24.0136L71.4046 25.3765L72.414 23.991L72.5785 23.7801L72.7131 23.622C72.7579 23.5747 72.8112 23.5364 72.8701 23.509C72.93 23.4775 72.9969 23.462 73.0645 23.4638C73.1138 23.4612 73.1631 23.47 73.2084 23.4896C73.2538 23.5092 73.2941 23.539 73.3262 23.5768C73.358 23.612 73.3812 23.654 73.3942 23.6998C73.4072 23.7455 73.4095 23.7936 73.401 23.8404C73.3876 23.9236 73.3571 24.0032 73.3112 24.0738C73.2589 24.1566 73.1767 24.262 73.0645 24.4051L71.6887 26.122L71.4794 27.5452C71.4662 27.7023 71.3972 27.8493 71.285 27.9593C71.1925 28.0483 71.0689 28.0971 70.941 28.0949C70.883 28.0978 70.8251 28.0871 70.7719 28.0636C70.7186 28.0401 70.6716 28.0044 70.6345 27.9593C70.5974 27.8979 70.573 27.8296 70.5627 27.7584C70.5524 27.6872 70.5565 27.6147 70.5747 27.5452" fill="#D95C07"/>
<path id="Vector_22" d="M77.5658 23.4863C77.9663 23.471 78.3629 23.5702 78.7097 23.7724C79.0089 23.9575 79.2339 24.2427 79.3453 24.5781C79.4643 24.9735 79.4873 25.3918 79.4126 25.798C79.3689 26.1251 79.273 26.443 79.1284 26.7393C79.0039 27.022 78.8262 27.2777 78.6051 27.4923C78.3919 27.7018 78.1371 27.8635 77.8574 27.9667C77.5539 28.0813 77.2318 28.1375 76.9078 28.1323C76.5957 28.1404 76.2853 28.084 75.9956 27.9667C75.7526 27.8633 75.5411 27.6971 75.3825 27.4848C75.2203 27.263 75.115 27.0044 75.0759 26.7318C75.0235 26.4202 75.0235 26.102 75.0759 25.7905C75.1243 25.4634 75.2226 25.1459 75.3675 24.8492C75.4928 24.565 75.6733 24.309 75.8984 24.0962C76.1152 23.8951 76.3693 23.739 76.6461 23.6369C76.9455 23.5265 77.2619 23.4704 77.5807 23.4712M78.5153 25.7754C78.5768 25.4952 78.5768 25.2048 78.5153 24.9245C78.4636 24.7045 78.3332 24.5115 78.149 24.3823C77.9602 24.2519 77.7348 24.1859 77.506 24.1941C77.3288 24.1949 77.1535 24.2307 76.99 24.2995C76.826 24.3686 76.6763 24.4682 76.5489 24.5932C76.4114 24.7428 76.2979 24.913 76.2124 25.0977C76.1178 25.3138 76.0524 25.5418 76.018 25.7754C75.9808 26.0048 75.9808 26.2388 76.018 26.4682C76.0413 26.6521 76.1079 26.8277 76.2124 26.9802C76.2998 27.1113 76.4214 27.2155 76.5638 27.2814C76.7135 27.3524 76.877 27.3884 77.0424 27.3869C77.2761 27.3865 77.5056 27.3242 77.7078 27.2061C77.9298 27.0773 78.1151 26.8932 78.2462 26.6715C78.4081 26.3971 78.5125 26.0921 78.5527 25.7754" fill="#D95C07"/>
<path id="Vector_23" d="M81.7457 26.1897L82.0672 24.036C82.0825 23.8832 82.1483 23.74 82.2541 23.6294C82.3458 23.5383 82.4693 23.487 82.5981 23.4863C82.6579 23.4837 82.7175 23.4952 82.772 23.5201C82.8266 23.545 82.8746 23.5824 82.9121 23.6294C82.9827 23.7523 83.0041 23.8978 82.9719 24.036L82.6354 26.2423C82.6019 26.4493 82.6019 26.6604 82.6354 26.8674C82.6467 26.9456 82.6737 27.0207 82.7149 27.088C82.756 27.1554 82.8104 27.2135 82.8747 27.2589C83.0452 27.3639 83.2435 27.4138 83.4429 27.402C83.5875 27.4122 83.7326 27.392 83.8691 27.3427C84.0055 27.2934 84.1303 27.2162 84.2355 27.1158C84.4307 26.8695 84.5502 26.5712 84.5794 26.2574L84.9159 24.036C84.9322 23.8827 84.9948 23.7382 85.0954 23.6219C85.1901 23.5317 85.3165 23.483 85.4468 23.4863C85.5048 23.4834 85.5627 23.4941 85.616 23.5176C85.6692 23.5411 85.7162 23.5768 85.7533 23.6219C85.8267 23.7466 85.8482 23.8954 85.8131 24.036L85.4916 26.1897C85.4543 26.4925 85.3763 26.7889 85.2598 27.0707C85.1502 27.3112 84.9863 27.5226 84.7813 27.6881C84.5984 27.8348 84.3907 27.9471 84.1682 28.0195C83.9248 28.0875 83.6731 28.1204 83.4205 28.1174C83.1304 28.1224 82.8411 28.0869 82.5607 28.0119C82.3475 27.9514 82.1557 27.8313 82.0074 27.6656C81.8669 27.4935 81.7787 27.2844 81.7532 27.0631C81.7092 26.7736 81.7092 26.4791 81.7532 26.1897" fill="#D95C07"/>
<path id="Vector_24" d="M89.312 26.1294H88.998L88.7812 27.5677C88.7687 27.7234 88.7026 27.8699 88.5943 27.9818C88.5018 28.0708 88.3782 28.1195 88.2503 28.1174C88.191 28.1222 88.1314 28.1123 88.0767 28.0887C88.0219 28.0651 87.9738 28.0284 87.9363 27.9818C87.8691 27.8549 87.8504 27.7075 87.8839 27.5677L88.3999 24.1189C88.4189 23.9612 88.4869 23.8136 88.5943 23.6972C88.7203 23.6006 88.8777 23.555 89.0354 23.5692H90.5308C90.7026 23.5603 90.8748 23.5603 91.0467 23.5692C91.1742 23.5816 91.2983 23.6173 91.4131 23.6746C91.5443 23.731 91.6598 23.8189 91.7495 23.9306C91.841 24.042 91.905 24.1736 91.9364 24.3146C91.9824 24.5403 91.9709 24.7739 91.9029 24.9938C91.8349 25.2137 91.7127 25.4127 91.5477 25.5722C91.2877 25.7956 90.9724 25.9439 90.6355 26.0014C90.7921 26.0979 90.927 26.2261 91.0317 26.3779C91.1522 26.5462 91.2573 26.7252 91.3458 26.9125C91.4216 27.0753 91.4841 27.244 91.5327 27.417C91.5683 27.5186 91.586 27.6256 91.585 27.7333C91.5717 27.7968 91.5435 27.8562 91.5028 27.9065C91.4541 27.9686 91.3913 28.0181 91.3198 28.0508C91.2483 28.0836 91.17 28.0986 91.0916 28.0948C91.0067 28.0986 90.9228 28.0748 90.8523 28.027C90.7906 27.9778 90.7396 27.9163 90.7028 27.8463C90.6579 27.771 90.613 27.6655 90.5457 27.5225L90.2766 26.9125C90.2033 26.736 90.1132 26.567 90.0074 26.408C89.9364 26.3059 89.8414 26.2231 89.7308 26.1671C89.6059 26.1233 89.4741 26.1028 89.3419 26.1068M90.142 24.2243H89.312L89.1251 25.4517H89.9326C90.1185 25.4562 90.3042 25.4385 90.4859 25.399C90.6239 25.3698 90.7509 25.3019 90.8523 25.2032C90.9485 25.1027 91.0089 24.973 91.0243 24.8342C91.0484 24.7219 91.0325 24.6046 90.9794 24.5029C90.9321 24.4078 90.8525 24.333 90.7551 24.292C90.5562 24.2337 90.3487 24.2108 90.142 24.2243Z" fill="#D95C07"/>
<path id="Vector_25" d="M100.266 24.2619H98.4938L98.3219 25.414H99.8173C99.8694 25.4076 99.9224 25.4123 99.9726 25.4279C100.023 25.4435 100.069 25.4695 100.109 25.5044C100.139 25.5373 100.161 25.5771 100.173 25.6203C100.184 25.6636 100.186 25.7091 100.176 25.7529C100.171 25.802 100.156 25.8495 100.131 25.8923C100.107 25.9351 100.074 25.9723 100.034 26.0014C99.9403 26.0676 99.8269 26.0995 99.7126 26.0918H98.2172L97.9929 27.5978C97.9824 27.7541 97.9159 27.9012 97.806 28.0119C97.7135 28.1009 97.5899 28.1496 97.462 28.1475C97.404 28.1504 97.3461 28.1397 97.2928 28.1162C97.2396 28.0927 97.1926 28.057 97.1555 28.0119C97.1183 27.9505 97.0939 27.8822 97.0837 27.811C97.0734 27.7398 97.0775 27.6673 97.0957 27.5978L97.6116 24.149C97.6293 24.0386 97.6647 23.9318 97.7162 23.8327C97.7672 23.7534 97.8399 23.6906 97.9256 23.652C98.0282 23.6132 98.1375 23.5953 98.2471 23.5993H100.371C100.481 23.5882 100.59 23.6206 100.677 23.6896C100.707 23.7243 100.729 23.7654 100.74 23.8098C100.752 23.8542 100.753 23.9006 100.744 23.9457C100.73 24.0456 100.679 24.1367 100.602 24.2017C100.503 24.267 100.385 24.2986 100.266 24.292" fill="#045C99"/>
<path id="Vector_26" d="M102.516 27.5677L103.047 24.0361C103.063 23.8833 103.128 23.7401 103.234 23.6295C103.326 23.5384 103.449 23.4871 103.578 23.4864C103.637 23.4831 103.696 23.4944 103.749 23.5194C103.803 23.5443 103.849 23.5821 103.885 23.6295C103.921 23.6898 103.945 23.7568 103.956 23.8267C103.966 23.8965 103.962 23.9678 103.945 24.0361L103.414 27.5677C103.403 27.724 103.337 27.8711 103.227 27.9819C103.132 28.072 103.006 28.1208 102.875 28.1175C102.819 28.1198 102.762 28.1088 102.71 28.0853C102.658 28.0617 102.612 28.0263 102.576 27.9819C102.54 27.9203 102.515 27.852 102.505 27.7809C102.495 27.7098 102.499 27.6373 102.516 27.5677Z" fill="#045C99"/>
<path id="Vector_27" d="M107.743 24.0362L109.081 26.6717L109.5 23.991C109.513 23.8474 109.574 23.7124 109.672 23.607C109.712 23.5634 109.76 23.5288 109.814 23.5055C109.868 23.4821 109.927 23.4705 109.986 23.4714C110.042 23.4677 110.098 23.4782 110.149 23.5019C110.199 23.5256 110.244 23.5617 110.277 23.607C110.342 23.7239 110.36 23.8609 110.33 23.991L109.799 27.5151C109.739 27.9067 109.545 28.1024 109.223 28.1024C109.154 28.115 109.083 28.115 109.014 28.1024C108.95 28.0792 108.894 28.0404 108.849 27.9895C108.796 27.9359 108.751 27.875 108.715 27.8088L108.602 27.5979L107.257 24.9774L106.868 27.5979C106.85 27.7441 106.787 27.8809 106.688 27.9895C106.601 28.0717 106.486 28.1174 106.367 28.1175C106.313 28.1208 106.259 28.1109 106.209 28.0886C106.16 28.0663 106.116 28.0323 106.083 27.9895C106.013 27.8718 105.992 27.7313 106.023 27.5979L106.539 24.1491C106.553 24.0284 106.589 23.9112 106.643 23.8027C106.698 23.7098 106.775 23.6321 106.868 23.5769C106.957 23.5188 107.061 23.4875 107.167 23.4865C107.237 23.4836 107.306 23.4992 107.369 23.5317C107.421 23.5557 107.467 23.5918 107.503 23.6371C107.546 23.6913 107.583 23.7493 107.615 23.8103C107.615 23.8856 107.683 23.9533 107.72 24.0362" fill="#045C99"/>
<path id="Vector_28" d="M116.633 26.2502L116.506 27.1086C116.491 27.204 116.466 27.2974 116.431 27.3872C116.394 27.4573 116.343 27.5188 116.282 27.5679C116.205 27.6326 116.119 27.6859 116.027 27.7261C115.765 27.8633 115.49 27.9719 115.205 28.0499C114.933 28.1176 114.655 28.1505 114.375 28.1478C114.064 28.1531 113.754 28.0995 113.463 27.9896C113.212 27.8929 112.988 27.7351 112.812 27.5303C112.637 27.312 112.519 27.0532 112.468 26.7773C112.412 26.4585 112.412 26.1322 112.468 25.8134C112.514 25.4801 112.615 25.1568 112.767 24.8571C112.908 24.5723 113.101 24.3168 113.336 24.1041C113.569 23.8978 113.841 23.7415 114.136 23.6448C114.458 23.5324 114.797 23.4764 115.138 23.4791C115.392 23.4782 115.644 23.5189 115.885 23.5996C116.077 23.6639 116.253 23.7692 116.401 23.9083C116.518 24.0145 116.61 24.1457 116.67 24.2923C116.718 24.409 116.736 24.5359 116.723 24.6613C116.714 24.7182 116.695 24.7728 116.666 24.822C116.636 24.8711 116.597 24.9138 116.551 24.9475C116.465 25.0264 116.353 25.0695 116.237 25.0679C116.174 25.0689 116.112 25.0534 116.057 25.0228C115.999 24.9969 115.952 24.9517 115.923 24.8948C115.862 24.7564 115.787 24.6251 115.698 24.5032C115.626 24.4038 115.531 24.3236 115.422 24.2697C115.269 24.2023 115.102 24.1714 114.936 24.1794C114.741 24.1776 114.547 24.216 114.367 24.2923C114.189 24.3617 114.028 24.4696 113.896 24.6086C113.754 24.7559 113.638 24.9265 113.552 25.1131C113.459 25.324 113.396 25.5471 113.366 25.7758C113.267 26.1872 113.329 26.621 113.537 26.9881C113.647 27.1317 113.791 27.2453 113.956 27.319C114.12 27.3926 114.3 27.4238 114.48 27.4098C114.682 27.4095 114.883 27.3816 115.078 27.327C115.281 27.2676 115.479 27.1895 115.668 27.0935L115.781 26.3405H115.078C114.951 26.35 114.824 26.3239 114.711 26.2652C114.673 26.2359 114.645 26.1961 114.629 26.1506C114.613 26.1052 114.61 26.056 114.622 26.0092C114.637 25.9115 114.687 25.823 114.764 25.7607C114.854 25.6918 114.965 25.6571 115.078 25.6628H116.095C116.199 25.6494 116.304 25.6494 116.409 25.6628C116.449 25.6732 116.486 25.6919 116.518 25.7179C116.55 25.7439 116.577 25.7764 116.596 25.8134C116.632 25.926 116.632 26.0473 116.596 26.1598" fill="#045C99"/>
<path id="Vector_29" d="M122.331 24.2623H120.304L120.14 25.3617H122.002C122.11 25.3531 122.218 25.3883 122.301 25.4596C122.328 25.494 122.348 25.5341 122.358 25.5771C122.368 25.62 122.369 25.6648 122.36 25.7081C122.347 25.8044 122.299 25.8926 122.226 25.9565C122.132 26.0217 122.018 26.0535 121.904 26.0469H120.035L119.841 27.3195H121.942C121.997 27.3153 122.053 27.3224 122.106 27.3405C122.158 27.3587 122.207 27.3874 122.248 27.4249C122.279 27.4604 122.301 27.5028 122.313 27.5486C122.325 27.5944 122.326 27.6423 122.316 27.6885C122.298 27.789 122.245 27.8798 122.166 27.9445C122.069 28.0156 121.95 28.0503 121.83 28.0424H119.385C119.311 28.0616 119.234 28.0595 119.162 28.0366C119.089 28.0136 119.025 27.9705 118.976 27.9124C118.927 27.8542 118.895 27.7833 118.884 27.7078C118.873 27.6322 118.883 27.5551 118.914 27.4852L119.422 24.1192C119.436 24.008 119.472 23.9005 119.527 23.8029C119.576 23.7221 119.649 23.6588 119.736 23.6222C119.839 23.5834 119.948 23.5655 120.058 23.5695H122.435C122.545 23.5585 122.655 23.5909 122.742 23.6599C122.772 23.6946 122.793 23.7357 122.805 23.78C122.816 23.8244 122.818 23.8709 122.809 23.9159C122.794 24.0158 122.744 24.1069 122.667 24.1719C122.567 24.2372 122.449 24.2689 122.331 24.2623Z" fill="#045C99"/>
<path id="Vector_30" d="M126.084 26.1294H125.77L125.553 27.5677C125.54 27.7234 125.474 27.8699 125.366 27.9818C125.273 28.0708 125.15 28.1195 125.022 28.1174C124.962 28.1222 124.903 28.1123 124.848 28.0887C124.793 28.0651 124.745 28.0284 124.708 27.9818C124.641 27.8549 124.622 27.7075 124.655 27.5677L125.171 24.1189C125.19 23.9612 125.258 23.8136 125.366 23.6972C125.492 23.6019 125.649 23.5564 125.807 23.5692H127.302C127.474 23.5603 127.646 23.5603 127.818 23.5692C127.948 23.5826 128.074 23.6182 128.192 23.6746C128.321 23.7344 128.434 23.8232 128.524 23.9342C128.613 24.0451 128.676 24.1753 128.708 24.3146C128.754 24.5403 128.742 24.7739 128.674 24.9938C128.606 25.2137 128.484 25.4127 128.319 25.5722C128.059 25.7956 127.744 25.9439 127.407 26.0014C127.566 26.0976 127.703 26.2257 127.811 26.3779C127.929 26.5464 128.031 26.7253 128.117 26.9125C128.193 27.0753 128.256 27.244 128.304 27.417C128.34 27.5186 128.357 27.6256 128.357 27.7333C128.346 27.7978 128.318 27.858 128.274 27.9065C128.228 27.9659 128.169 28.0147 128.102 28.0496C128.029 28.0798 127.95 28.0952 127.871 28.0948C127.783 28.0997 127.697 28.0759 127.624 28.027C127.564 27.9759 127.513 27.9147 127.474 27.8463L127.317 27.5225L127.048 26.9125C126.975 26.736 126.885 26.567 126.779 26.408C126.708 26.3059 126.613 26.2231 126.502 26.1671C126.377 26.1233 126.246 26.1028 126.113 26.1068M126.913 24.2243H126.084L125.897 25.4517H126.697C126.882 25.4562 127.068 25.4385 127.25 25.399C127.388 25.3698 127.515 25.3019 127.616 25.2032C127.715 25.1037 127.778 24.9739 127.796 24.8342C127.813 24.7217 127.797 24.6067 127.751 24.5029C127.699 24.4088 127.617 24.3347 127.519 24.292C127.32 24.2331 127.113 24.2101 126.906 24.2243" fill="#045C99"/>
<path id="Vector_31" d="M133.807 24.315H132.828L132.334 27.568C132.324 27.7243 132.257 27.8714 132.147 27.9822C132.057 28.07 131.936 28.1187 131.811 28.1177C131.753 28.1219 131.695 28.1118 131.641 28.0881C131.588 28.0645 131.541 28.0281 131.504 27.9822C131.466 27.9213 131.44 27.8532 131.429 27.782C131.417 27.7109 131.42 27.6381 131.437 27.568L131.931 24.315H130.944C130.886 24.3204 130.827 24.3139 130.772 24.2958C130.717 24.2777 130.666 24.2483 130.622 24.2096C130.589 24.1739 130.564 24.1306 130.551 24.0834C130.538 24.0361 130.537 23.9864 130.547 23.9385C130.554 23.8848 130.571 23.8331 130.598 23.7864C130.625 23.7398 130.661 23.6993 130.704 23.6674C130.808 23.5973 130.931 23.5629 131.056 23.5695H133.92C134.04 23.5566 134.161 23.5917 134.256 23.6674C134.287 23.7044 134.309 23.7481 134.321 23.7951C134.333 23.8421 134.333 23.8911 134.323 23.9385C134.317 23.9921 134.3 24.0439 134.273 24.0906C134.246 24.1372 134.21 24.1778 134.166 24.2096C134.062 24.2856 133.936 24.3229 133.807 24.315Z" fill="#045C99"/>
<path id="Vector_32" d="M135.968 27.5677L136.499 24.0361C136.511 23.8825 136.578 23.7383 136.686 23.6295C136.775 23.5389 136.896 23.4874 137.022 23.4864C137.082 23.4831 137.142 23.4944 137.197 23.5193C137.251 23.5442 137.299 23.582 137.336 23.6295C137.373 23.6898 137.397 23.7568 137.407 23.8267C137.418 23.8965 137.414 23.9677 137.396 24.0361L136.865 27.5677C136.852 27.7232 136.786 27.8693 136.678 27.9819C136.583 28.0713 136.457 28.12 136.327 28.1174C136.27 28.1204 136.213 28.1096 136.161 28.0861C136.109 28.0625 136.064 28.0268 136.028 27.9819C135.991 27.9203 135.967 27.8519 135.957 27.7808C135.947 27.7097 135.95 27.6373 135.968 27.5677Z" fill="#045C99"/>
<path id="Vector_33" d="M141.404 26.3026H140.582L140.387 27.5676C140.369 27.7218 140.303 27.8664 140.2 27.9818C140.107 28.0694 139.984 28.1179 139.856 28.1173C139.798 28.1215 139.74 28.1114 139.686 28.0878C139.633 28.0641 139.586 28.0278 139.55 27.9818C139.513 27.9215 139.489 27.8544 139.479 27.7846C139.469 27.7147 139.472 27.6435 139.49 27.5752L140.006 24.1188C140.018 23.9577 140.09 23.807 140.208 23.6971C140.337 23.6014 140.496 23.5559 140.656 23.5691H141.815C142.067 23.5619 142.318 23.5872 142.563 23.6444C142.727 23.6916 142.876 23.7797 142.997 23.9005C143.112 24.0189 143.192 24.1676 143.228 24.3297C143.266 24.5211 143.266 24.7181 143.228 24.9095C143.207 25.113 143.146 25.3101 143.047 25.4888C142.948 25.6674 142.814 25.8239 142.653 25.9487C142.268 26.2038 141.812 26.3278 141.352 26.3026M141.441 24.2468H140.903L140.694 25.6173H141.299C141.484 25.6214 141.667 25.5986 141.845 25.5496C141.982 25.5109 142.106 25.4354 142.204 25.3312C142.3 25.216 142.36 25.0744 142.376 24.9246C142.394 24.8419 142.395 24.7562 142.378 24.6731C142.362 24.5901 142.328 24.5116 142.279 24.4426C142.063 24.2851 141.796 24.2152 141.531 24.2468" fill="#045C99"/>
<path id="Vector_34" d="M148.754 26.702C148.715 26.9773 148.604 27.2372 148.432 27.455C148.25 27.6768 148.017 27.8501 147.752 27.9595C147.441 28.0849 147.108 28.1464 146.773 28.1402C146.407 28.1578 146.045 28.0717 145.726 27.8917C145.545 27.7726 145.4 27.606 145.307 27.4098C145.215 27.2288 145.179 27.0244 145.202 26.8225C145.223 26.7126 145.28 26.6132 145.364 26.5406C145.449 26.468 145.555 26.4266 145.666 26.4234C145.709 26.4212 145.753 26.4289 145.793 26.4459C145.833 26.4628 145.869 26.4885 145.898 26.5212C145.961 26.6003 146.004 26.6932 146.025 26.7923C146.05 26.9159 146.093 27.0352 146.152 27.1462C146.21 27.246 146.292 27.329 146.391 27.3872C146.534 27.4543 146.69 27.4854 146.847 27.4776C147.088 27.4866 147.325 27.4209 147.528 27.2893C147.611 27.2392 147.683 27.1716 147.739 27.091C147.794 27.0105 147.832 26.9189 147.849 26.8225C147.863 26.7598 147.862 26.695 147.848 26.6325C147.834 26.57 147.806 26.5115 147.767 26.461C147.685 26.3601 147.576 26.2845 147.453 26.2426C147.318 26.1974 147.131 26.1447 146.907 26.092C146.649 26.0322 146.398 25.9438 146.159 25.8285C145.972 25.7362 145.814 25.5927 145.703 25.4143C145.602 25.2147 145.571 24.9866 145.614 24.7667C145.647 24.5235 145.751 24.2957 145.913 24.1116C146.087 23.9121 146.308 23.7595 146.556 23.6673C146.85 23.5574 147.162 23.5038 147.475 23.5092C147.709 23.5046 147.942 23.5402 148.163 23.6146C148.334 23.6688 148.49 23.7615 148.619 23.8857C148.725 23.9832 148.807 24.1044 148.859 24.2396C148.889 24.3607 148.889 24.4875 148.859 24.6086C148.842 24.7197 148.786 24.8211 148.702 24.8947C148.664 24.9368 148.618 24.9705 148.566 24.9938C148.515 25.0172 148.459 25.0296 148.403 25.0303C148.361 25.0337 148.32 25.0281 148.281 25.0138C148.243 24.9995 148.207 24.9768 148.178 24.9474C148.119 24.8703 148.074 24.7838 148.044 24.6914C147.996 24.5452 147.917 24.4115 147.812 24.2999C147.661 24.1879 147.475 24.1368 147.288 24.1568C147.08 24.1496 146.875 24.2046 146.698 24.3149C146.629 24.3525 146.569 24.4051 146.522 24.4689C146.475 24.5327 146.444 24.6062 146.429 24.6839C146.402 24.7594 146.402 24.8419 146.429 24.9173C146.475 24.9853 146.537 25.0419 146.608 25.083C146.683 25.1288 146.763 25.1643 146.847 25.1884L147.259 25.3089C147.48 25.3589 147.697 25.4243 147.909 25.5047C148.083 25.5653 148.247 25.6516 148.395 25.7607C148.52 25.8625 148.614 25.9984 148.664 26.1523C148.724 26.3369 148.737 26.5337 148.702 26.7246" fill="#045C99"/>
<path id="Vector_35" d="M178.676 16.4609L159.304 27.7561C158.902 27.9904 158.446 28.114 157.982 28.1144C157.518 28.1147 157.062 27.9919 156.66 27.7582C156.259 27.5246 155.925 27.1883 155.693 26.7834C155.462 26.3785 155.34 25.9192 155.341 25.4518V2.90666C155.34 2.43932 155.462 1.98005 155.693 1.57513C155.925 1.1702 156.259 0.833937 156.66 0.600264C157.062 0.366591 157.518 0.24376 157.982 0.244142C158.446 0.244523 158.902 0.368114 159.304 0.602447L178.676 11.8976C179.068 12.1335 179.393 12.4677 179.618 12.8676C179.843 13.2676 179.962 13.7195 179.962 14.1793C179.962 14.639 179.843 15.091 179.618 15.4909C179.393 15.8908 179.068 16.225 178.676 16.4609Z" fill="#045C99"/>
<path id="Vector_36" d="M173.488 12.613C173.488 12.613 172.052 12.869 171.992 11.5813L170.407 12.6431C169.823 12.9739 169.161 13.1375 168.491 13.1163C167.822 13.0951 167.171 12.8897 166.609 12.5226L163.768 10.7154C163.768 10.7154 162.168 9.60845 161.876 10.5874C161.876 10.5874 161.689 11.0693 162.37 12.741C162.37 12.741 163.229 15 162.788 16.6491C162.612 17.2163 162.27 17.717 161.807 18.0862C161.344 18.4555 160.782 18.6762 160.194 18.7199C160.194 18.7199 157.883 18.991 156.979 17.3268C156.979 17.3268 155.797 15.6627 156.732 12.5527C156.876 12.1531 157.051 11.7654 157.255 11.3931C157.255 11.3931 155.177 17.4925 159.289 18.0497C159.289 18.0497 162.28 18.2681 162.198 15.5045C162.176 15.1331 162.131 14.7634 162.063 14.3976C161.866 13.4245 161.589 12.4698 161.233 11.5437C161.107 11.2372 161.077 10.8994 161.147 10.5753C161.216 10.2512 161.382 9.95595 161.622 9.72892C161.854 9.56764 162.124 9.46793 162.405 9.43898C162.685 9.41003 162.969 9.45276 163.229 9.56325C163.229 9.56325 163.588 9.56325 166.22 11.2274L167.372 11.9804C167.789 12.1892 168.254 12.2845 168.72 12.2568C169.185 12.229 169.635 12.0792 170.026 11.8223L172.448 10.256C172.722 10.1359 173.027 10.1076 173.318 10.1754C173.609 10.2432 173.87 10.4035 174.063 10.6325C174.063 10.6325 174.52 11.0166 174.153 12.1988" fill="white"/>
<path id="Vector_37" d="M174.549 11.3928C174.551 11.6615 174.473 11.9246 174.325 12.1487C174.178 12.3727 173.968 12.5476 173.722 12.6511C173.476 12.7547 173.204 12.7821 172.943 12.7301C172.681 12.678 172.44 12.5488 172.252 12.3588C172.063 12.1688 171.935 11.9266 171.883 11.6629C171.831 11.3993 171.859 11.1262 171.961 10.8782C172.064 10.6302 172.238 10.4186 172.46 10.2702C172.683 10.1219 172.944 10.0435 173.211 10.0449C173.565 10.0469 173.904 10.1895 174.155 10.4419C174.405 10.6943 174.547 11.0359 174.549 11.3928Z" fill="white"/>
<path id="Vector_38" d="M174.018 11.3929C174.018 11.5612 173.969 11.7257 173.876 11.8656C173.783 12.0056 173.651 12.1146 173.497 12.179C173.342 12.2434 173.173 12.2603 173.009 12.2274C172.845 12.1946 172.694 12.1136 172.576 11.9946C172.458 11.8756 172.377 11.7239 172.345 11.5589C172.312 11.3938 172.329 11.2227 172.393 11.0672C172.457 10.9118 172.565 10.7789 172.704 10.6854C172.843 10.5919 173.006 10.542 173.174 10.542C173.397 10.544 173.611 10.6342 173.769 10.7934C173.927 10.9525 174.016 11.1678 174.018 11.3929Z" fill="#D95C07"/>
<path id="Vector_39" d="M173.674 12.5526C173.931 13.1526 174.048 13.8036 174.017 14.4561C173.986 15.1085 173.807 15.7452 173.495 16.3177C173.044 17.0609 172.39 17.6571 171.611 18.0345C171.24 18.204 170.855 18.3377 170.459 18.4336C168.901 18.7429 167.315 18.8893 165.726 18.8704C164.615 18.8615 163.519 19.1361 162.541 19.6686C160.667 20.8541 159.326 22.7289 158.803 24.8945C158.803 24.8945 160.612 19.4201 165.592 19.5857L168.067 19.518C170.489 19.4427 173.929 18.652 174.654 16.0617C175.074 14.614 175.003 13.0665 174.452 11.6641L173.674 12.5526Z" fill="white"/>
<path id="Vector_40" d="M163.678 19.8117C165.17 19.4501 166.712 19.3483 168.239 19.5105C171.379 19.6912 173.435 18.2078 174.22 16.9954L173.308 16.6265C172.726 17.4224 171.902 18.0043 170.96 18.2831C169.481 18.7087 167.945 18.9043 166.407 18.8629C165.428 18.8271 164.451 18.9543 163.513 19.2394L163.678 19.8117Z" fill="white"/>
</g>
<defs>
<clipPath id="clip0_1829_33355">
<rect width="180" height="28.125" fill="white"/>
</clipPath>
</defs>
</svg>
