<svg width="15" height="16" viewBox="0 0 15 16" fill="none" xmlns="http://www.w3.org/2000/svg">
<path d="M7.79752 8.92056C7.90089 8.92056 7.98468 8.83603 7.98468 8.73176C7.98468 8.62749 7.90089 8.54297 7.79752 8.54297C7.69415 8.54297 7.61035 8.62749 7.61035 8.73176C7.61035 8.83603 7.69415 8.92056 7.79752 8.92056Z" fill="#87AAC1"/>
<path d="M7.79752 9.66665C7.90089 9.66665 7.98468 9.58212 7.98468 9.47786C7.98468 9.37359 7.90089 9.28906 7.79752 9.28906C7.69415 9.28906 7.61035 9.37359 7.61035 9.47786C7.61035 9.58212 7.69415 9.66665 7.79752 9.66665Z" fill="#87AAC1"/>
<path d="M9.11063 7.58496L9.91919 6.84036L10.307 6.48543C11.0077 5.84806 11.3551 4.98414 11.3686 3.84081V2.88023H11.9556C11.9805 2.88084 12.0053 2.8764 12.0286 2.86718C12.0518 2.85796 12.073 2.84415 12.0908 2.82656C12.1087 2.80897 12.1229 2.78795 12.1325 2.76475C12.1422 2.74154 12.1472 2.71662 12.1472 2.69144V1.87434C12.1472 1.82427 12.1275 1.77625 12.0924 1.74084C12.0573 1.70544 12.0097 1.68555 11.96 1.68555H3.6379C3.58826 1.68555 3.54066 1.70544 3.50556 1.74084C3.47046 1.77625 3.45074 1.82427 3.45074 1.87434V2.69144C3.45074 2.74151 3.47046 2.78953 3.50556 2.82493C3.54066 2.86034 3.58826 2.88023 3.6379 2.88023H4.22486V3.83779C4.23833 4.9781 4.58721 5.84202 5.28796 6.47788L5.73715 6.89171L6.48582 7.58043C6.56367 7.6395 6.62812 7.71465 6.67485 7.80087C6.72159 7.88708 6.74954 7.98237 6.75683 8.08035C6.74725 8.18144 6.71654 8.27934 6.66673 8.36759C6.61692 8.45584 6.54914 8.53245 6.46785 8.59236L5.28496 9.68283C4.58421 10.3187 4.23683 11.1826 4.22186 12.3259V13.1596H3.6379C3.61294 13.1596 3.58823 13.1647 3.56523 13.1744C3.54222 13.1842 3.52138 13.1985 3.50394 13.2165C3.4865 13.2346 3.47281 13.2559 3.46367 13.2793C3.45454 13.3028 3.45014 13.3278 3.45074 13.353V14.1701C3.45074 14.2201 3.47046 14.2682 3.50556 14.3036C3.54066 14.339 3.58826 14.3589 3.6379 14.3589H11.9556C11.9809 14.3595 12.0061 14.3549 12.0296 14.3454C12.0531 14.3359 12.0745 14.3217 12.0924 14.3036C12.1104 14.2855 12.1245 14.264 12.1339 14.2403C12.1433 14.2165 12.1478 14.1911 12.1472 14.1655V13.353C12.1472 13.3029 12.1275 13.2549 12.0924 13.2195C12.0573 13.1841 12.0097 13.1642 11.96 13.1642H11.3686V12.3229C11.3551 11.1826 11.0077 10.3187 10.307 9.68283L9.12261 8.59085C9.04207 8.53148 8.97493 8.45554 8.92563 8.36807C8.87634 8.28059 8.846 8.18355 8.83662 8.08337C8.84486 7.9855 8.87353 7.89049 8.92075 7.80459C8.96798 7.71869 9.03269 7.64384 9.11063 7.58496ZM8.46229 8.08489C8.47044 8.23796 8.51116 8.38746 8.5817 8.52325C8.65223 8.65903 8.75092 8.7779 8.87106 8.87178L10.051 9.96225C10.6798 10.5332 10.9778 11.2853 10.9898 12.3259V13.1596H4.59919V12.3274C4.61266 11.2853 4.91063 10.5332 5.53951 9.96225L6.7224 8.87329C6.84339 8.77863 6.94278 8.65883 7.01382 8.52202C7.08487 8.38521 7.12591 8.23458 7.13416 8.08035C7.12659 7.93084 7.08709 7.78473 7.01834 7.65205C6.9496 7.51936 6.85324 7.40322 6.73587 7.31159L5.98721 6.62287L5.53801 6.20903C4.91063 5.63812 4.61266 4.88597 4.59919 3.84534V2.88023H10.9943V3.83779C10.9823 4.87993 10.6843 5.63208 10.0554 6.20299C9.92518 6.3208 9.79641 6.44012 9.66614 6.56095L8.85309 7.31159C8.73741 7.40525 8.64276 7.52261 8.57539 7.65592C8.50802 7.78922 8.46947 7.93543 8.46229 8.08489Z" fill="#AECCE0"/>
<path d="M10.2619 5.34734C10.282 5.31217 10.2903 5.27135 10.2854 5.23103C10.2806 5.19071 10.2628 5.15308 10.2349 5.12381C10.2075 5.09385 10.1711 5.07389 10.1313 5.06706C10.0914 5.06023 10.0505 5.06691 10.0148 5.08605C9.27664 5.46515 8.99964 5.60712 7.85418 5.23708C7.11998 4.99579 6.32175 5.0499 5.62616 5.38812C5.60078 5.40023 5.57843 5.41795 5.56076 5.43996C5.54309 5.46197 5.53055 5.4877 5.52408 5.51526C5.51761 5.54282 5.51737 5.5715 5.52338 5.59916C5.52938 5.62683 5.54148 5.65278 5.55878 5.67508C5.63065 5.76117 7.25974 7.33647 7.27472 7.33647C7.39548 7.4764 7.46891 7.65151 7.48434 7.83639C7.4941 7.91331 7.53281 7.9835 7.59246 8.03242C7.65211 8.08134 7.72813 8.10525 7.80477 8.09919C7.84078 8.10272 7.87713 8.09903 7.91172 8.08831C7.94631 8.0776 7.97845 8.06008 8.00629 8.03677C8.03414 8.01346 8.05713 7.98482 8.07394 7.9525C8.09075 7.92019 8.10104 7.88483 8.10424 7.84847C8.13305 7.60723 8.25061 7.3857 8.43365 7.22772C8.4591 7.20507 8.56391 7.10387 8.70616 6.96643C9.05653 6.62811 9.64049 6.06022 9.80071 5.91825C9.98377 5.75411 10.1395 5.56135 10.2619 5.34734Z" fill="#87AAC1"/>
<path d="M5.21929 12.5551C5.21868 12.5805 5.22318 12.6058 5.2325 12.6295C5.24182 12.6531 5.25578 12.6746 5.27354 12.6926C5.2913 12.7107 5.31249 12.7249 5.33585 12.7345C5.35921 12.7441 5.38424 12.7488 5.40945 12.7484H10.1874C10.2371 12.7484 10.2847 12.7285 10.3198 12.6931C10.3549 12.6577 10.3746 12.6097 10.3746 12.5596C10.3584 11.8809 10.0797 11.2355 9.59804 10.7612C9.11641 10.287 8.47001 10.0215 7.79694 10.0215C7.12387 10.0215 6.47747 10.287 5.99584 10.7612C5.5142 11.2355 5.23551 11.8809 5.21929 12.5596V12.5551Z" fill="#87AAC1"/>
</svg>
