<svg width="65" height="65" viewBox="0 0 65 65" fill="none" xmlns="http://www.w3.org/2000/svg">
<circle cx="32.4546" cy="32.7168" r="31.2383" stroke="#E8EEF3"/>
<path fill-rule="evenodd" clip-rule="evenodd" d="M33.4697 21.9785H29.2397C24.8215 21.9785 21.2397 25.5602 21.2397 29.9785V34.2185C21.2397 38.6368 24.8215 42.2185 29.2397 42.2185H33.4697C37.888 42.2185 41.4697 38.6368 41.4697 34.2185V29.9785C41.4697 25.5602 37.888 21.9785 33.4697 21.9785ZM27.3597 26.0985C28.4643 26.0985 29.3597 26.9939 29.3597 28.0985C29.3597 29.2031 28.4643 30.0985 27.3597 30.0985C26.2552 30.0985 25.3597 29.2031 25.3597 28.0985C25.3597 26.9939 26.2552 26.0985 27.3597 26.0985ZM34.7497 40.0985C37.5809 39.0412 39.4609 36.3406 39.4697 33.3185L39.4397 31.5985C39.4397 31.1885 39.3597 30.4185 39.3597 30.4185H37.7297C33.9561 30.43 30.5103 32.5647 28.8197 35.9385C27.5927 34.8416 26.0057 34.2331 24.3597 34.2285H23.1497C23.0605 36.5533 24.3232 38.7201 26.3897 39.7885C27.1285 40.1821 27.9527 40.3881 28.7897 40.3885H32.9597C33.5688 40.3972 34.1746 40.2991 34.7497 40.0985Z" fill="#87AAC1"/>
</svg>
