<svg width="21" height="20" viewBox="0 0 21 20" fill="none" xmlns="http://www.w3.org/2000/svg">
<path d="M17.6276 6.01518L17.6276 17.4684C17.6276 17.8007 17.5602 18.1299 17.4294 18.437C17.2986 18.744 17.1068 19.0231 16.865 19.2581C16.6233 19.4931 16.3363 19.6796 16.0204 19.8067C15.7045 19.9339 15.3659 19.9994 15.024 19.9994H5.26954C4.92764 19.9994 4.58909 19.9339 4.27322 19.8067C3.95734 19.6796 3.67033 19.4931 3.42857 19.2581C3.18681 19.0231 2.99504 18.744 2.8642 18.437C2.73336 18.1299 2.66602 17.8007 2.66602 17.4684V2.53104C2.66602 2.19866 2.73336 1.86953 2.8642 1.56245C2.99504 1.25537 3.18681 0.97635 3.42857 0.741321C3.67033 0.506292 3.95734 0.319858 4.27322 0.192662C4.58909 0.0654655 4.92764 -1.01328e-06 5.26954 0L11.4709 1.96313e-05L17.6276 6.01518Z" fill="#87AAC1"/>
<path d="M11.7418 0.263672C11.2425 1.5488 10.0871 3.51905 11.2522 5.17514C11.5549 5.63448 13.3987 6.34454 14.5558 6.75428C15.2944 7.01582 15.902 7.84026 15.902 8.62536L15.9989 16.2702C15.9989 17.668 14.8341 18.8006 13.3962 18.8006H3.64169C3.42475 18.8006 3.21418 18.774 3.0127 18.7254C3.47601 19.5125 4.33705 19.9984 5.26985 19.9993H15.0243C16.4628 19.9997 17.629 18.8659 17.6285 17.4674V6.01396L11.7418 0.263672Z" fill="#87AAC1"/>
<path d="M11.4713 0L10.6623 3.1618C10.6084 3.37212 10.5998 3.59105 10.6368 3.8048C10.6738 4.01855 10.7558 4.22249 10.8774 4.40379C10.9991 4.58509 11.1579 4.73981 11.3437 4.85822C11.5296 4.97662 11.7385 5.05615 11.9574 5.09179L17.628 6.01516L11.4713 0Z" fill="#CDE4F3"/>
<path d="M10.1623 7.95898C9.73136 7.96514 9.43152 8.23923 9.28602 8.4029C8.9486 8.78243 8.93316 9.30265 9.04599 9.80693C9.15882 10.3112 9.40045 10.848 9.69523 11.3917C9.72831 11.4527 9.76495 11.4939 9.79934 11.5551C9.20657 12.6339 8.39119 13.8083 7.67956 14.7449C6.75563 14.9645 5.87131 15.0723 5.33998 15.6703C4.8951 16.1717 4.86418 16.9334 5.33998 17.3765C5.54697 17.5583 5.83653 17.6503 6.089 17.6542C6.3261 17.6514 6.52845 17.5839 6.69052 17.485C7.31168 17.1058 7.71617 16.3005 8.16396 15.3696L11.7948 14.5237C12.3395 15.1989 12.9064 15.8608 13.582 16.0694C13.8952 16.1661 14.226 16.1547 14.5219 16.0477C14.8177 15.9407 15.0942 15.7291 15.2203 15.4028C15.4403 14.8101 15.1977 14.1534 14.6303 13.8569C14.1898 13.6193 13.6409 13.5788 13.0296 13.6053C12.7172 13.6189 12.3872 13.6523 12.0521 13.7008C11.6561 13.0973 11.1231 12.2997 10.6582 11.5231C10.931 10.9819 11.1678 10.4491 11.2699 9.96006C11.3838 9.41408 11.3611 8.87631 11.0515 8.46204C10.8295 8.11113 10.4907 7.96127 10.1623 7.95898ZM10.4601 8.89452C10.5948 9.06833 10.6406 9.36501 10.5483 9.80692C10.4971 10.0525 10.3236 10.3821 10.1984 10.6817C10.0189 10.3118 9.83077 9.93266 9.76608 9.64353C9.67926 9.2555 9.73892 9.04038 9.83838 8.89452C9.90826 8.7804 10.003 8.71045 10.1388 8.70262C10.2818 8.69463 10.3767 8.7869 10.4601 8.89452ZM10.236 12.239C10.584 12.7934 10.9543 13.3701 11.2569 13.8383L8.82765 14.4282C9.31763 13.6849 9.83174 12.9265 10.236 12.239ZM14.276 14.5063C14.5431 14.6504 14.6234 14.8787 14.5262 15.1353C14.4347 15.3717 13.9945 15.4353 13.8003 15.3652C13.5367 15.2838 13.1118 14.7951 12.7231 14.3921C12.8306 14.3654 12.9613 14.3473 13.0629 14.3429C13.4537 14.3257 13.9113 14.3349 14.276 14.5063ZM7.0173 15.7686C6.76023 16.1866 6.47069 16.7542 6.30155 16.8574C6.1343 16.9725 5.94122 16.9296 5.84318 16.83C5.70766 16.6993 5.68431 16.4044 5.89812 16.1634C6.11602 15.9538 6.42732 15.8661 7.0173 15.7686Z" fill="white"/>
</svg>
