<svg width="19" height="19" viewBox="0 0 19 19" fill="none" xmlns="http://www.w3.org/2000/svg">
<g id="checklist 1" clip-path="url(#clip0_1161_128839)">
<g id="Layer 2">
<path id="Vector" d="M12.0112 1.45898H3.01123C2.74032 1.45879 2.47204 1.512 2.22171 1.61558C1.97139 1.71916 1.74394 1.87108 1.55238 2.06264C1.36082 2.2542 1.20891 2.48164 1.10533 2.73197C1.00175 2.98229 0.948534 3.25058 0.948731 3.52148V15.5215C0.948534 15.7924 1.00175 16.0607 1.10533 16.311C1.20891 16.5613 1.36082 16.7888 1.55238 16.9803C1.74394 17.1719 1.97139 17.3238 2.22171 17.4274C2.47204 17.531 2.74032 17.5842 3.01123 17.584H10.1287C9.18549 17.0108 8.45575 16.1447 8.05096 15.1179C7.64617 14.0911 7.58857 12.96 7.88695 11.8974C8.18534 10.8348 8.82331 9.899 9.70345 9.233C10.5836 8.56699 11.6575 8.20735 12.7612 8.20899C13.205 8.20778 13.6467 8.26836 14.0737 8.38898V3.52148C14.0739 3.25058 14.0207 2.98229 13.9171 2.73197C13.8136 2.48164 13.6616 2.2542 13.4701 2.06264C13.2785 1.87108 13.0511 1.71916 12.8007 1.61558C12.5504 1.512 12.2821 1.45879 12.0112 1.45898ZM7.51123 8.58399H3.76123C3.61205 8.58399 3.46897 8.52472 3.36348 8.41923C3.25799 8.31374 3.19873 8.17067 3.19873 8.02149C3.19873 7.8723 3.25799 7.72923 3.36348 7.62374C3.46897 7.51825 3.61205 7.45899 3.76123 7.45899H7.51123C7.66042 7.45899 7.80349 7.51825 7.90898 7.62374C8.01447 7.72923 8.07373 7.8723 8.07373 8.02149C8.07373 8.17067 8.01447 8.31374 7.90898 8.41923C7.80349 8.52472 7.66042 8.58399 7.51123 8.58399ZM9.01123 5.58399H3.76123C3.61205 5.58398 3.46897 5.52472 3.36348 5.41923C3.25799 5.31374 3.19873 5.17067 3.19873 5.02149C3.19873 4.8723 3.25799 4.72923 3.36348 4.62374C3.46897 4.51825 3.61205 4.45899 3.76123 4.45899H9.01123C9.16042 4.45899 9.30349 4.51825 9.40898 4.62374C9.51447 4.72923 9.57373 4.8723 9.57373 5.02149C9.57373 5.17067 9.51447 5.31374 9.40898 5.41923C9.30349 5.52472 9.16042 5.58398 9.01123 5.58399Z" fill="#87AAC1"/>
<path id="Vector_2" d="M12.7612 8.95898C11.9083 8.95898 11.0745 9.21191 10.3653 9.68577C9.65615 10.1596 9.1034 10.8332 8.777 11.6212C8.4506 12.4092 8.3652 13.2763 8.5316 14.1128C8.69799 14.9494 9.10872 15.7178 9.71183 16.3209C10.3149 16.924 11.0834 17.3347 11.9199 17.5011C12.7564 17.6675 13.6235 17.5821 14.4116 17.2557C15.1996 16.9293 15.8731 16.3766 16.3469 15.6674C16.8208 14.9582 17.0737 14.1244 17.0737 13.2715C17.0723 12.1282 16.6175 11.0321 15.8091 10.2236C15.0006 9.41517 13.9046 8.96037 12.7612 8.95898ZM14.2837 12.919L12.7837 14.419C12.7316 14.4713 12.6697 14.5129 12.6014 14.5412C12.5332 14.5695 12.4601 14.5841 12.3862 14.5841C12.3124 14.5841 12.2392 14.5695 12.171 14.5412C12.1028 14.5129 12.0409 14.4713 11.9887 14.419L11.2387 13.669C11.1835 13.6175 11.1391 13.5554 11.1084 13.4864C11.0777 13.4174 11.0611 13.3429 11.0598 13.2674C11.0585 13.1918 11.0723 13.1168 11.1006 13.0468C11.1289 12.9767 11.171 12.9131 11.2245 12.8597C11.2779 12.8063 11.3415 12.7642 11.4115 12.7359C11.4816 12.7076 11.5566 12.6937 11.6321 12.695C11.7077 12.6964 11.7821 12.7129 11.8511 12.7436C11.9201 12.7744 11.9822 12.8187 12.0337 12.874L12.3862 13.2257L13.4887 12.124C13.5402 12.0687 13.6023 12.0244 13.6713 11.9936C13.7403 11.9629 13.8148 11.9464 13.8903 11.945C13.9659 11.9437 14.0409 11.9576 14.1109 11.9859C14.181 12.0142 14.2446 12.0563 14.298 12.1097C14.3514 12.1631 14.3935 12.2267 14.4218 12.2968C14.4501 12.3668 14.464 12.4418 14.4627 12.5174C14.4613 12.5929 14.4448 12.6674 14.4141 12.7364C14.3833 12.8054 14.339 12.8675 14.2837 12.919Z" fill="#AECCE0"/>
</g>
</g>
<defs>
<clipPath id="clip0_1161_128839">
<rect width="18" height="18" fill="white" transform="translate(0.0112305 0.521484)"/>
</clipPath>
</defs>
</svg>
