<svg width="33" height="32" viewBox="0 0 33 32" fill="none" xmlns="http://www.w3.org/2000/svg">
<g filter="url(#filter0_d_4410_37559)">
<circle cx="16.5051" cy="12" r="11.5" fill="white" stroke="#DFE5EB"/>
<g clip-path="url(#clip0_4410_37559)">
<path d="M16.9687 11.9998L20.6086 8.35997C20.7367 8.23182 20.7367 8.02405 20.6086 7.89592C20.4804 7.76778 20.2727 7.76777 20.1445 7.89592L16.5047 11.5358L12.8648 7.89592C12.7367 7.76777 12.5289 7.76777 12.4008 7.89592C12.2727 8.02407 12.2727 8.23183 12.4008 8.35997L16.0406 11.9998L12.4008 15.6397C12.2727 15.7678 12.2727 15.9756 12.4008 16.1037C12.4649 16.1678 12.5488 16.1998 12.6328 16.1998C12.7168 16.1998 12.8008 16.1678 12.8649 16.1037L16.5047 12.4639L20.1445 16.1037C20.2086 16.1678 20.2926 16.1998 20.3766 16.1998C20.4605 16.1998 20.5445 16.1678 20.6086 16.1037C20.7367 15.9756 20.7367 15.7678 20.6086 15.6397L16.9687 11.9998Z" fill="#1C1E21"/>
</g>
</g>
<defs>
<filter id="filter0_d_4410_37559" x="0.505127" y="0" width="32" height="32" filterUnits="userSpaceOnUse" color-interpolation-filters="sRGB">
<feFlood flood-opacity="0" result="BackgroundImageFix"/>
<feColorMatrix in="SourceAlpha" type="matrix" values="0 0 0 0 0 0 0 0 0 0 0 0 0 0 0 0 0 0 127 0" result="hardAlpha"/>
<feOffset dy="4"/>
<feGaussianBlur stdDeviation="2"/>
<feComposite in2="hardAlpha" operator="out"/>
<feColorMatrix type="matrix" values="0 0 0 0 0 0 0 0 0 0 0 0 0 0 0 0 0 0 0.5 0"/>
<feBlend mode="normal" in2="BackgroundImageFix" result="effect1_dropShadow_4410_37559"/>
<feBlend mode="normal" in="SourceGraphic" in2="effect1_dropShadow_4410_37559" result="shape"/>
</filter>
<clipPath id="clip0_4410_37559">
<rect width="8.4" height="8.4" fill="white" transform="translate(12.3047 7.7998)"/>
</clipPath>
</defs>
</svg>
