<svg width="22" height="22" viewBox="0 0 22 22" fill="none" xmlns="http://www.w3.org/2000/svg">
<path d="M11.0011 2.08462C13.7626 2.08462 16.0036 4.31089 16.0036 7.05784C16.0036 8.12546 15.5447 9.74591 14.5743 10.8722L11.0011 15.0087L7.42949 10.8734C6.45782 9.74713 5.99897 8.12669 5.99897 7.05784C5.99897 4.31089 8.23972 2.08462 11.0011 2.08462ZM11.0011 1.13208C7.72051 1.13208 5.04373 3.79462 5.04373 7.0576C5.04373 8.37869 5.54233 10.1461 6.70245 11.4912V11.4927L8.36805 13.4206H5.5065C5.2999 13.4216 5.11636 13.5543 5.05256 13.7494L3.02701 19.9844C2.9269 20.2911 3.15804 20.6049 3.48217 20.6049H18.5201C18.8457 20.6049 19.0754 20.2911 18.9768 19.9844L16.9497 13.7494C16.8859 13.5534 16.7024 13.4206 16.4948 13.4206H14.6768C14.0062 13.3875 14.0062 14.4065 14.6768 14.3719H16.1474L17.8625 19.6524H4.14125L5.85493 14.3719H9.18931L10.4716 15.8562H9.63049C9.37162 15.8513 9.15766 16.0589 9.15766 16.3177C9.15766 16.5766 9.37162 16.7859 9.63049 16.7808H12.3689C12.6292 16.7859 12.8432 16.5766 12.8432 16.3177C12.8432 16.0589 12.629 15.8515 12.3689 15.8562H11.5316L15.2996 11.4927V11.4912C16.4612 10.1461 16.9598 8.37869 16.9598 7.0576C16.96 3.79462 14.2818 1.13208 11.0011 1.13208Z" fill="#606770"/>
<path d="M12.0296 8.08052C11.4579 8.6493 10.5447 8.65053 9.97318 8.082C9.40146 7.51322 9.40146 6.60289 9.97318 6.03362C10.5449 5.46509 11.4579 5.46632 12.0296 6.03509C12.6026 6.60362 12.6026 7.51077 12.0296 8.0793V8.08052ZM12.7076 8.75358C13.6449 7.82166 13.6449 6.29519 12.7076 5.36179C11.7691 4.42937 10.2345 4.42937 9.29766 5.36179C8.35911 6.29519 8.35911 7.82141 9.29766 8.75358C10.2345 9.686 11.7691 9.686 12.7076 8.75358Z" fill="#606770"/>
</svg>
