<svg width="17" height="17" viewBox="0 0 17 17" fill="none" xmlns="http://www.w3.org/2000/svg">
<path d="M9.70455 8.50537L14.7875 3.45881C14.9999 3.24527 14.9999 2.89933 14.7875 2.68579C14.5789 2.46843 14.2344 2.4619 14.0178 2.6712L8.93484 7.71775L3.91725 2.6712C3.81438 2.56192 3.67124 2.5 3.5215 2.5C3.37176 2.5 3.22863 2.56192 3.12576 2.6712C2.93748 2.87752 2.93748 3.19416 3.12576 3.40047L8.14336 8.43973L3.06041 13.479C2.84805 13.6925 2.84805 14.0385 3.06041 14.252C3.16151 14.356 3.30055 14.414 3.44526 14.4125C3.59276 14.4245 3.73899 14.3773 3.8519 14.2812L8.93484 9.23464L14.0178 14.3395C14.1189 14.4435 14.2579 14.5015 14.4026 14.5C14.5472 14.5007 14.6859 14.4428 14.7875 14.3395C14.9999 14.126 14.9999 13.78 14.7875 13.5665L9.70455 8.50537Z" fill="#1C1E21"/>
</svg>
