<svg width="20" height="21" viewBox="0 0 20 21" fill="none" xmlns="http://www.w3.org/2000/svg">
<path fill-rule="evenodd" clip-rule="evenodd" d="M12.9748 2.16663H6.6665C3.90508 2.16663 1.6665 4.4052 1.6665 7.16663V13.475C1.6665 16.2364 3.90508 18.475 6.6665 18.475H12.9748C15.7363 18.475 17.9748 16.2364 17.9748 13.475V7.16663C17.9748 4.4052 15.7363 2.16663 12.9748 2.16663ZM10.4415 12.8166C10.4415 13.1618 10.1617 13.4416 9.8165 13.4416C9.47133 13.4416 9.1915 13.1618 9.1915 12.8166V10.2333C9.1915 9.88812 9.47133 9.60829 9.8165 9.60829C10.1617 9.60829 10.4415 9.88812 10.4415 10.2333V12.8166ZM9.82484 8.43329C10.1654 8.43329 10.4415 8.1572 10.4415 7.81663L10.4498 7.79996C10.4498 7.45478 10.17 7.17496 9.82484 7.17496C9.50524 7.2118 9.26403 7.48241 9.26403 7.80413C9.26403 8.12585 9.50524 8.39645 9.82484 8.43329Z" fill="#87AAC1"/>
</svg>
