<svg width="19" height="19" viewBox="0 0 19 19" fill="none" xmlns="http://www.w3.org/2000/svg">
<g id="bookmark 1" clip-path="url(#clip0_1161_128806)">
<g id="Group 1000009312">
<g id="Group">
<g id="Group_2">
<path id="Vector" d="M14.3998 0.355469C13.51 0.355469 12.7886 1.07684 12.7886 1.96672V9.52178C12.7886 9.8184 13.029 10.0589 13.3257 10.0589H15.474C15.7706 10.0589 16.0111 9.8184 16.0111 9.52178V1.96672C16.0111 1.07684 15.2897 0.355469 14.3998 0.355469Z" fill="#AECCE0"/>
</g>
</g>
<g id="Group_3">
<g id="Group_4">
<path id="Vector_2" d="M4.69669 0.355469C3.21433 0.355469 2.01123 1.55854 2.01123 3.04093V18.151C2.01123 18.3551 2.12939 18.5377 2.31203 18.6344C2.49461 18.7203 2.70948 18.6988 2.87053 18.5806L6.8808 15.5945L10.8553 18.5806C10.9993 18.6927 11.1968 18.7274 11.4138 18.6344C11.5964 18.5377 11.7146 18.3551 11.7146 18.151C11.7146 10.1249 11.7146 8.76836 11.7146 1.96672C11.7146 1.35989 11.9246 0.805689 12.2654 0.355469H4.69669Z" fill="#87AAC1"/>
</g>
</g>
</g>
</g>
<defs>
<clipPath id="clip0_1161_128806">
<rect width="18" height="18" fill="white" transform="translate(0.0112305 0.521484)"/>
</clipPath>
</defs>
</svg>
