<svg width="19" height="19" viewBox="0 0 19 19" fill="none" xmlns="http://www.w3.org/2000/svg">
<g id="group 1" clip-path="url(#clip0_1161_128677)">
<path id="Vector" d="M12.9357 12.0175C12.8111 11.1704 12.3869 10.396 11.7402 9.83485C11.0934 9.2737 10.267 8.96296 9.41074 8.95898H8.61274C7.75651 8.96296 6.93006 9.2737 6.28332 9.83485C5.63659 10.396 5.21241 11.1704 5.08774 12.0175L4.70524 14.692C4.69302 14.7784 4.7011 14.8665 4.72882 14.9493C4.75655 15.0321 4.80317 15.1073 4.86499 15.169C5.01499 15.319 5.93524 16.084 9.01249 16.084C12.0897 16.084 13.0077 15.322 13.16 15.169C13.2218 15.1073 13.2684 15.0321 13.2962 14.9493C13.3239 14.8665 13.332 14.7784 13.3197 14.692L12.9357 12.0175Z" fill="#87AAC1"/>
<path id="Vector_2" d="M5.68136 9.37158C4.95651 10.0398 4.48489 10.938 4.34636 11.9141L4.06886 13.8341C1.84136 13.8191 1.16636 13.0091 1.05386 12.8441C1.01038 12.7841 0.979345 12.7161 0.962599 12.6439C0.945853 12.5718 0.943733 12.497 0.956364 12.4241L1.12136 11.4941C1.20733 11.008 1.40923 10.5499 1.70994 10.1585C2.01066 9.7671 2.40132 9.45398 2.8488 9.24569C3.29628 9.03741 3.78739 8.9401 4.28049 8.96201C4.77358 8.98393 5.25412 9.12442 5.68136 9.37158Z" fill="#87AAC1"/>
<path id="Vector_3" d="M17.0663 12.4241C17.0789 12.497 17.0768 12.5718 17.0601 12.6439C17.0433 12.7161 17.0123 12.7841 16.9688 12.8441C16.8563 13.0091 16.1813 13.8191 13.9538 13.8341L13.6763 11.9141C13.5378 10.938 13.0662 10.0398 12.3413 9.37158C12.7686 9.12442 13.2491 8.98393 13.7422 8.96201C14.2353 8.9401 14.7264 9.03741 15.1739 9.24569C15.6214 9.45398 16.012 9.7671 16.3127 10.1585C16.6134 10.5499 16.8153 11.008 16.9013 11.4941L17.0663 12.4241Z" fill="#87AAC1"/>
<path id="Vector_4" d="M5.80873 7.72149C5.61994 7.98923 5.36931 8.20745 5.07814 8.35761C4.78696 8.50777 4.46384 8.58543 4.13623 8.58398C3.80942 8.58398 3.48729 8.50633 3.19639 8.35741C2.90548 8.20849 2.65413 7.99257 2.46304 7.72745C2.27196 7.46233 2.1466 7.1556 2.09732 6.83253C2.04803 6.50946 2.07623 6.1793 2.17957 5.86926C2.28292 5.55923 2.45846 5.27819 2.69173 5.0493C2.925 4.82042 3.20932 4.65024 3.52126 4.5528C3.8332 4.45536 4.16383 4.43344 4.48591 4.48884C4.80799 4.54425 5.11229 4.6754 5.37373 4.87148C5.29853 5.16556 5.26073 5.46795 5.26123 5.77148C5.2618 6.45935 5.45118 7.13385 5.80873 7.72149Z" fill="#AECCE0"/>
<path id="Vector_5" d="M15.9489 6.52149C15.9491 6.79239 15.8959 7.06068 15.7923 7.311C15.6887 7.56133 15.5368 7.78877 15.3452 7.98033C15.1537 8.17189 14.9262 8.32381 14.6759 8.42739C14.4256 8.53097 14.1573 8.58418 13.8864 8.58399C13.5588 8.58543 13.2356 8.50777 12.9445 8.35761C12.6533 8.20745 12.4027 7.98923 12.2139 7.72149C12.5714 7.13385 12.7608 6.45935 12.7614 5.77149C12.7619 5.46795 12.7241 5.16556 12.6489 4.87149C12.9553 4.64167 13.3197 4.50172 13.7011 4.46732C14.0826 4.43292 14.4662 4.50543 14.8087 4.67673C15.1513 4.84803 15.4395 5.11134 15.6408 5.43716C15.8422 5.76299 15.9489 6.13845 15.9489 6.52149Z" fill="#AECCE0"/>
<path id="Vector_6" d="M9.01123 8.58398C10.5645 8.58398 11.8237 7.32479 11.8237 5.77148C11.8237 4.21818 10.5645 2.95898 9.01123 2.95898C7.45793 2.95898 6.19873 4.21818 6.19873 5.77148C6.19873 7.32479 7.45793 8.58398 9.01123 8.58398Z" fill="#AECCE0"/>
</g>
<defs>
<clipPath id="clip0_1161_128677">
<rect width="18" height="18" fill="white" transform="translate(0.0112305 0.521484)"/>
</clipPath>
</defs>
</svg>
