<svg width="17" height="17" viewBox="0 0 17 17" fill="none" xmlns="http://www.w3.org/2000/svg">
<g id="remove 1" clip-path="url(#clip0_1200_39303)">
<path id="Vector" d="M8.698 0.478516C4.28662 0.478516 0.697998 4.06714 0.697998 8.47852C0.697998 12.8899 4.28662 16.4785 8.698 16.4785C13.1094 16.4785 16.698 12.8899 16.698 8.47852C16.698 4.06714 13.1094 0.478516 8.698 0.478516Z" fill="#F44336"/>
<path id="Vector_2" d="M11.6441 10.4827C11.9047 10.7434 11.9047 11.1647 11.6441 11.4254C11.5141 11.5555 11.3434 11.6208 11.1726 11.6208C11.002 11.6208 10.8313 11.5555 10.7013 11.4254L8.69803 9.42203L6.69473 11.4254C6.56473 11.5555 6.39407 11.6208 6.22342 11.6208C6.05264 11.6208 5.88199 11.5555 5.75198 11.4254C5.49136 11.1647 5.49136 10.7434 5.75198 10.4827L7.7554 8.4794L5.75198 6.4761C5.49136 6.21536 5.49136 5.7941 5.75198 5.53336C6.01273 5.27274 6.43399 5.27274 6.69473 5.53336L8.69803 7.53677L10.7013 5.53336C10.9621 5.27274 11.3833 5.27274 11.6441 5.53336C11.9047 5.7941 11.9047 6.21536 11.6441 6.4761L9.64066 8.4794L11.6441 10.4827Z" fill="#FAFAFA"/>
</g>
<defs>
<clipPath id="clip0_1200_39303">
<rect width="16" height="16" fill="white" transform="translate(0.697998 0.478516)"/>
</clipPath>
</defs>
</svg>
