<svg width="15" height="15" viewBox="0 0 15 15" fill="none" xmlns="http://www.w3.org/2000/svg">
<path d="M2.88819 9.92709C2.77619 9.92709 2.66441 9.88443 2.57888 9.7989C2.40803 9.62806 2.40803 9.35112 2.57888 9.18028L9.41569 2.34346C9.58632 2.17262 9.86347 2.17262 10.0343 2.34346C10.2052 2.51431 10.2052 2.79125 10.0343 2.96209L3.1975 9.7989C3.11219 9.88422 3.00019 9.92709 2.88819 9.92709Z" fill="#1C1E21"/>
<path d="M2.21272 13.0775C2.18231 13.0775 2.15147 13.0742 2.12062 13.0677C1.88437 13.0169 1.73387 12.7844 1.78462 12.5481L2.46056 9.39747C2.51131 9.16122 2.74494 9.01116 2.98009 9.06147C3.21634 9.11222 3.36684 9.34475 3.31609 9.581L2.64015 12.7317C2.59619 12.9371 2.41462 13.0775 2.21272 13.0775Z" fill="#1C1E21"/>
<path d="M5.36292 12.4015C5.25092 12.4015 5.13914 12.3588 5.05361 12.2733C4.88277 12.1025 4.88277 11.8255 5.05361 11.6547L11.8904 4.81807C12.061 4.64723 12.3382 4.64723 12.509 4.81807C12.6799 4.98892 12.6799 5.26586 12.509 5.4367L5.67245 12.2733C5.58692 12.3588 5.47492 12.4015 5.36292 12.4015Z" fill="#1C1E21"/>
<path d="M2.21181 13.0778C2.00991 13.0778 1.82856 12.9374 1.78438 12.732C1.73384 12.4957 1.88413 12.2632 2.12038 12.2124L5.27103 11.5365C5.5075 11.4864 5.74003 11.6365 5.79056 11.8725C5.84109 12.1087 5.69081 12.3413 5.45456 12.392L2.30391 13.068C2.27306 13.0747 2.24222 13.0778 2.21181 13.0778Z" fill="#1C1E21"/>
<path d="M10.9623 6.8023C10.8503 6.8023 10.7383 6.75964 10.653 6.67411L8.17824 4.19939C8.0074 4.02855 8.0074 3.75161 8.17824 3.58077C8.34887 3.40993 8.62624 3.40993 8.79687 3.58077L11.2716 6.05549C11.4424 6.22633 11.4424 6.50327 11.2716 6.67411C11.1863 6.75964 11.0743 6.8023 10.9623 6.8023Z" fill="#1C1E21"/>
<path d="M12.1997 5.56516C12.0877 5.56516 11.9757 5.5225 11.8902 5.43697C11.7193 5.26613 11.7193 4.98919 11.8902 4.81813C12.1336 4.57466 12.2677 4.245 12.2677 3.89019C12.2677 3.53538 12.1336 3.20572 11.8902 2.96225C11.6465 2.71857 11.3168 2.58447 10.962 2.58447C10.6072 2.58447 10.2776 2.71857 10.0341 2.96225C9.86346 3.1331 9.58652 3.13332 9.41524 2.96225C9.2444 2.79141 9.2444 2.51447 9.41524 2.34341C9.82387 1.93457 10.3731 1.70947 10.962 1.70947C11.5507 1.70947 12.1002 1.93457 12.5088 2.34341C12.9176 2.75204 13.1427 3.30132 13.1427 3.89019C13.1427 4.47907 12.9176 5.02835 12.5088 5.43697C12.4237 5.52228 12.3117 5.56516 12.1997 5.56516Z" fill="#1C1E21"/>
</svg>
