<svg width="18" height="18" viewBox="0 0 18 18" fill="none" xmlns="http://www.w3.org/2000/svg">
<g id="thumbtacks 1" clip-path="url(#clip0_903_6443)">
<g id="_x31_6-thumbtack">
<path id="Vector" d="M12.4984 2.90607L5.49801 2.90607C5.17982 2.90607 4.94117 3.14472 4.94117 3.46292L4.94117 6.0085C4.94117 6.40625 5.25937 6.56535 5.49801 6.56535H6.05486L6.05486 8.95183C5.33891 9.42913 3.42973 10.7815 3.42973 12.5316C3.42973 12.8498 3.66838 13.0884 3.98657 13.0884L8.5209 13.0884L8.5209 18.1C8.5209 18.4182 8.75954 18.6569 9.07774 18.6569C9.39594 18.6569 9.63459 18.3387 9.63459 18.1L9.63459 13.0884L14.1689 13.0884C14.6064 13.0486 14.7655 12.7304 14.7258 12.5316C14.7258 10.7815 12.8166 9.42913 12.1006 8.95183V6.56535L12.6575 6.56535C12.9757 6.56535 13.2143 6.3267 13.2143 6.0085V3.46292C13.0552 3.14472 12.8166 2.90607 12.4984 2.90607Z" fill="#87AAC1"/>
</g>
</g>
<defs>
<clipPath id="clip0_903_6443">
<rect width="18" height="18" fill="white"/>
</clipPath>
</defs>
</svg>
