<svg width="25" height="25" viewBox="0 0 25 25" fill="none" xmlns="http://www.w3.org/2000/svg">
<g id="coupon 1" clip-path="url(#clip0_1055_101422)">
<path id="Vector" d="M15.459 17.3052C16.0113 17.3052 16.459 16.8575 16.459 16.3052C16.459 15.7529 16.0113 15.3052 15.459 15.3052C14.9067 15.3052 14.459 15.7529 14.459 16.3052C14.459 16.8575 14.9067 17.3052 15.459 17.3052Z" fill="#AECCE0"/>
<path id="Vector_2" d="M10.459 12.3052C11.0113 12.3052 11.459 11.8575 11.459 11.3052C11.459 10.7529 11.0113 10.3052 10.459 10.3052C9.9067 10.3052 9.45898 10.7529 9.45898 11.3052C9.45898 11.8575 9.9067 12.3052 10.459 12.3052Z" fill="#AECCE0"/>
<path id="Vector_3" d="M24.459 12.3052V7.80518C24.459 7.67257 24.4063 7.54539 24.3125 7.45162C24.2188 7.35785 24.0916 7.30518 23.959 7.30518H21.529C18.8452 7.30525 16.1672 7.05753 13.529 6.56518C10.8449 6.06097 8.11997 5.80655 5.38898 5.80518H1.95898C1.82638 5.80518 1.6992 5.85785 1.60543 5.95162C1.51166 6.04539 1.45898 6.17257 1.45898 6.30518V10.8052C2.12203 10.8052 2.75791 11.0686 3.22675 11.5374C3.69559 12.0062 3.95898 12.6421 3.95898 13.3052C3.95898 13.9682 3.69559 14.6041 3.22675 15.0729C2.75791 15.5418 2.12203 15.8052 1.45898 15.8052V19.8052C1.45898 19.9378 1.51166 20.065 1.60543 20.1587C1.6992 20.2525 1.82638 20.3052 1.95898 20.3052H5.38898C8.07274 20.3051 10.7508 20.5528 13.389 21.0452C16.073 21.5494 18.798 21.8038 21.529 21.8052H23.959C24.0916 21.8052 24.2188 21.7525 24.3125 21.6587C24.4063 21.565 24.459 21.4378 24.459 21.3052V17.3052C23.7959 17.3052 23.1601 17.0418 22.6912 16.5729C22.2224 16.1041 21.959 15.4682 21.959 14.8052C21.959 14.1421 22.2224 13.5062 22.6912 13.0374C23.1601 12.5686 23.7959 12.3052 24.459 12.3052ZM10.459 9.30518C10.8545 9.30518 11.2412 9.42247 11.5701 9.64224C11.899 9.862 12.1554 10.1744 12.3067 10.5398C12.4581 10.9053 12.4977 11.3074 12.4206 11.6954C12.3434 12.0833 12.1529 12.4397 11.8732 12.7194C11.5935 12.9991 11.2371 13.1896 10.8492 13.2667C10.4612 13.3439 10.0591 13.3043 9.69362 13.1529C9.32817 13.0016 9.01581 12.7452 8.79605 12.4163C8.57628 12.0874 8.45898 11.7007 8.45898 11.3052C8.45898 10.7747 8.6697 10.266 9.04477 9.89096C9.41984 9.51589 9.92855 9.30518 10.459 9.30518ZM9.81398 17.6602C9.7675 17.707 9.7122 17.7442 9.65127 17.7696C9.59034 17.795 9.52499 17.8081 9.45898 17.8081C9.39298 17.8081 9.32763 17.795 9.2667 17.7696C9.20577 17.7442 9.15047 17.707 9.10398 17.6602C9.05712 17.6137 9.01992 17.5584 8.99454 17.4975C8.96915 17.4365 8.95609 17.3712 8.95609 17.3052C8.95609 17.2392 8.96915 17.1738 8.99454 17.1129C9.01992 17.052 9.05712 16.9967 9.10398 16.9502L16.104 9.95018C16.1981 9.85602 16.3258 9.80313 16.459 9.80313C16.5921 9.80313 16.7198 9.85602 16.814 9.95018C16.9081 10.0443 16.961 10.172 16.961 10.3052C16.961 10.4383 16.9081 10.566 16.814 10.6602L9.81398 17.6602ZM15.459 18.3052C15.0634 18.3052 14.6767 18.1879 14.3478 17.9681C14.0189 17.7484 13.7626 17.436 13.6112 17.0705C13.4599 16.7051 13.4202 16.303 13.4974 15.915C13.5746 15.527 13.7651 15.1707 14.0448 14.891C14.3245 14.6113 14.6808 14.4208 15.0688 14.3436C15.4568 14.2664 15.8589 14.306 16.2244 14.4574C16.5898 14.6088 16.9022 14.8651 17.1219 15.194C17.3417 15.5229 17.459 15.9096 17.459 16.3052C17.459 16.8356 17.2483 17.3443 16.8732 17.7194C16.4981 18.0945 15.9894 18.3052 15.459 18.3052Z" fill="#87AAC1"/>
<path id="Vector_4" d="M23.459 6.36499V4.30499C23.4585 4.23114 23.4417 4.15831 23.4097 4.09174C23.3777 4.02517 23.3313 3.96652 23.274 3.91999C23.2178 3.87111 23.1513 3.83542 23.0795 3.81552C23.0077 3.79562 22.9324 3.79203 22.859 3.80499C21.2428 4.11074 19.6036 4.27802 17.959 4.30499H11.459C9.11696 4.3112 6.77812 4.47826 4.45898 4.80499C7.31398 4.91499 12.289 5.44499 14.459 5.80499C17.4368 6.25524 20.4484 6.44263 23.459 6.36499Z" fill="#AECCE0"/>
</g>
<defs>
<clipPath id="clip0_1055_101422">
<rect width="24" height="24" fill="white" transform="translate(0.958984 0.805176)"/>
</clipPath>
</defs>
</svg>
