<svg width="19" height="19" viewBox="0 0 19 19" fill="none" xmlns="http://www.w3.org/2000/svg">
<g id="graduation (1) 1" clip-path="url(#clip0_1161_128706)">
<path id="Vector" d="M12.0112 5.77148C11.934 5.77148 11.8567 5.75573 11.7847 5.72423L7.09723 3.66173C6.89323 3.57098 6.76123 3.36998 6.76123 3.14648C6.76123 2.92298 6.89323 2.72198 7.09723 2.63123L11.7847 0.568734C11.9287 0.505734 12.0937 0.505734 12.2377 0.568734L16.9252 2.63123C17.1292 2.72198 17.2612 2.92298 17.2612 3.14648C17.2612 3.36998 17.1292 3.57098 16.9252 3.66173L12.2377 5.72423C12.1657 5.75573 12.0885 5.77148 12.0112 5.77148Z" fill="#AECCE0"/>
<path id="Vector_2" d="M12.6907 6.75384C12.4725 6.84909 12.2452 6.89634 12.0112 6.89634C11.7772 6.89634 11.55 6.84909 11.3347 6.75534L8.26123 5.40234V5.91834C8.26123 6.37584 8.50048 6.80634 8.88523 7.03959C9.96598 7.69509 10.989 8.02359 12.0112 8.02359C13.0335 8.02359 14.0565 7.69509 15.1372 7.03959C15.522 6.80634 15.7612 6.37659 15.7612 5.91834V5.40234L12.6907 6.75384Z" fill="#AECCE0"/>
<path id="Vector_3" d="M14.2612 9.11648C13.5037 9.39398 12.7612 9.52149 12.0112 9.52149C10.7137 9.52149 9.43873 9.13148 8.10373 8.32148C7.27873 7.81898 6.76123 6.89648 6.76123 5.92148V5.15648L6.49123 5.03648C5.74123 4.70648 5.26123 3.96398 5.26123 3.14648C5.26123 2.32898 5.74123 1.58648 6.49123 1.25648L8.16373 0.521484H3.01123C1.77373 0.521484 0.76123 1.53398 0.76123 2.77148V13.6465C0.76123 14.3815 1.76548 15.5215 3.01123 15.5215H5.26123V17.959C5.26123 18.448 5.84473 18.7007 6.19873 18.379L7.51123 17.209L8.82373 18.379C9.16573 18.6962 9.76123 18.4562 9.76123 17.959V15.5215H13.5112C13.9237 15.5215 14.2612 15.184 14.2612 14.7715C14.2612 14.2345 14.2612 9.99549 14.2612 9.11648ZM5.26123 14.0215H3.01123C2.59873 14.0215 2.26123 13.684 2.26123 13.2715C2.26123 12.859 2.59873 12.5215 3.01123 12.5215H5.26123V14.0215ZM12.7612 14.0215H9.76123V12.5215H12.7612V14.0215Z" fill="#87AAC1"/>
</g>
<defs>
<clipPath id="clip0_1161_128706">
<rect width="18" height="18" fill="white" transform="translate(0.0112305 0.521484)"/>
</clipPath>
</defs>
</svg>
