<svg width="34" height="36" viewBox="0 0 34 36" fill="none" xmlns="http://www.w3.org/2000/svg">
<path d="M31.8304 14.8658V14.9008L31.6962 16.4673L30.2253 33.8685C30.1777 34.2656 29.9831 34.6304 29.6798 34.8911C29.3766 35.1518 28.9867 35.2895 28.587 35.277H5.62014C5.22356 35.2887 4.83668 35.1531 4.53415 34.8964C4.23163 34.6398 4.03488 34.2801 3.98188 33.8869L2.27375 16.4673L2.1193 14.9008V14.8842C2.03105 13.9888 2.78858 13.2166 3.75572 13.2166H30.1922C31.1501 13.2166 31.9058 13.9778 31.8304 14.8658Z" fill="url(#paint0_linear_1781_44226)"/>
<path d="M20.2513 13.1577H13.6982V35.277H20.2513V13.1577Z" fill="url(#paint1_linear_1781_44226)"/>
<path d="M33.9985 8.87182L33.616 14.3989C33.6082 14.5452 33.5456 14.6831 33.4407 14.7854C33.3357 14.8876 33.1962 14.9465 33.0497 14.9505H0.902352C0.753782 14.9463 0.612409 14.8856 0.507143 14.7807C0.401877 14.6757 0.340671 14.5346 0.33604 14.386L0.00140147 8.86631C-0.00394613 8.7867 0.00604158 8.7068 0.0308209 8.63096C0.0658142 8.51514 0.136642 8.4134 0.233117 8.34038C0.329592 8.26737 0.446742 8.22683 0.567713 8.22461H33.4322C33.553 8.22665 33.67 8.26715 33.7662 8.34022C33.8624 8.41329 33.9328 8.51514 33.9672 8.63096C33.9936 8.70835 34.0042 8.79025 33.9985 8.87182Z" fill="url(#paint2_linear_1781_44226)"/>
<path d="M29.939 4.57664C29.9316 4.55894 29.923 4.54175 29.9133 4.52515C29.872 4.45222 29.8168 4.38814 29.7507 4.33656C29.6847 4.28499 29.6091 4.24693 29.5284 4.22456C29.4476 4.20219 29.3632 4.19596 29.28 4.2062C29.1969 4.21645 29.1165 4.24299 29.0436 4.28429C26.0686 5.97403 23.3713 6.72053 21.1208 6.97794C22.2876 6.45836 23.3427 5.71785 24.2281 4.79728C25.4012 3.5102 25.6991 2.17533 25.0371 1.20635C24.4175 0.303558 23.6489 0.136239 23.1139 0.154625C21.8268 0.200592 20.3099 1.33873 18.4951 3.63707C17.8295 4.48102 17.2577 5.31394 16.8587 5.92438C16.4597 5.31394 15.8879 4.48102 15.2223 3.63707C13.4075 1.33873 11.8961 0.200592 10.6036 0.154625C10.0685 0.136239 9.29994 0.303558 8.67847 1.20635C8.01287 2.17533 8.31073 3.51756 9.48932 4.79728C10.374 5.71867 11.4294 6.4593 12.5967 6.97794C10.3461 6.72053 7.64697 5.97403 4.67383 4.28429C4.60098 4.24274 4.52062 4.21601 4.4374 4.20563C4.35417 4.19526 4.26972 4.20144 4.18889 4.22382C4.10806 4.24621 4.03246 4.28436 3.96643 4.33607C3.9004 4.38778 3.84524 4.45204 3.80414 4.52515C3.78472 4.55685 3.76928 4.59081 3.75817 4.62628C3.70746 4.76743 3.70825 4.92195 3.76039 5.06258C3.81254 5.2032 3.91269 5.32089 4.04317 5.39485C8.15812 7.7318 11.7987 8.36246 14.5365 8.36246C15.205 8.36272 15.8729 8.32404 16.537 8.24663C16.6436 8.23376 16.7521 8.22089 16.8587 8.20434C16.9654 8.22089 17.072 8.23376 17.1805 8.24663C17.8445 8.32416 18.5125 8.36283 19.181 8.36246C21.9188 8.36246 25.5593 7.72812 29.6743 5.39117C29.8116 5.31243 29.9147 5.18546 29.9637 5.03493C30.0126 4.8844 30.0038 4.72106 29.939 4.57664ZM19.4917 4.4277C20.9718 2.5541 22.3067 1.46192 23.1525 1.4325H23.1911C23.4062 1.4325 23.6839 1.50237 23.9799 1.93262C24.2759 2.36287 24.013 3.13695 23.2812 3.93494C22.338 4.96276 20.4699 6.15238 17.8516 6.73524C18.2432 6.13767 18.8243 5.28269 19.4917 4.4277ZM10.4252 3.9331C9.68974 3.13512 9.42497 2.36839 9.72651 1.93078C10.0281 1.49318 10.3002 1.43067 10.5153 1.43067H10.5539C11.0504 1.44721 12.183 1.85907 14.2055 4.41667C14.8821 5.27165 15.4668 6.13215 15.8603 6.73156C13.2402 6.15606 11.374 4.96092 10.4307 3.9331H10.4252Z" fill="url(#paint3_linear_1781_44226)"/>
<path d="M29.6743 5.39476C25.5593 7.73172 21.9188 8.36238 19.181 8.36238C18.5125 8.36275 17.8445 8.32407 17.1805 8.24654C17.072 8.23367 16.9654 8.2208 16.8587 8.20426C16.7521 8.2208 16.6436 8.23367 16.537 8.24654C15.8729 8.32396 15.205 8.36264 14.5365 8.36238C11.7987 8.36238 8.15812 7.72804 4.04317 5.39109C3.91269 5.31713 3.81254 5.19945 3.76039 5.05882C3.70825 4.9182 3.70746 4.76367 3.75817 4.62252C6.86186 6.29204 11.8649 8.38445 17.1805 8.18771C24.2318 7.92846 28.538 5.50141 29.939 4.57288C30.0059 4.71813 30.0159 4.8832 29.9668 5.03541C29.9178 5.18763 29.8134 5.31588 29.6743 5.39476Z" fill="url(#paint4_linear_1781_44226)"/>
<path d="M20.6905 8.22461H13.3174V14.9597H20.6905V8.22461Z" fill="url(#paint5_linear_1781_44226)"/>
<path d="M33.9678 8.63096H0.0332031C0.0681964 8.51514 0.139025 8.4134 0.2355 8.34038C0.331976 8.26737 0.449124 8.22683 0.570095 8.22461H33.4327C33.5535 8.22665 33.6705 8.26715 33.7667 8.34022C33.863 8.41329 33.9334 8.51514 33.9678 8.63096Z" fill="#FF5050"/>
<path d="M20.6905 8.22083H13.3174V8.63085H20.6905V8.22083Z" fill="#FFE1C0"/>
<defs>
<linearGradient id="paint0_linear_1781_44226" x1="16.9739" y1="35.6594" x2="16.9739" y2="13.1926" gradientUnits="userSpaceOnUse">
<stop stop-color="#B31217"/>
<stop offset="1" stop-color="#E52D27"/>
</linearGradient>
<linearGradient id="paint1_linear_1781_44226" x1="16.9748" y1="35.573" x2="16.9748" y2="14.4981" gradientUnits="userSpaceOnUse">
<stop stop-color="#D1913C"/>
<stop offset="1" stop-color="#FFD194"/>
</linearGradient>
<linearGradient id="paint2_linear_1781_44226" x1="16.9999" y1="15.1546" x2="16.9999" y2="8.16761" gradientUnits="userSpaceOnUse">
<stop stop-color="#B31217"/>
<stop offset="1" stop-color="#E52D27"/>
</linearGradient>
<linearGradient id="paint3_linear_1781_44226" x1="16.8587" y1="8.2595" x2="16.8587" y2="0.397331" gradientUnits="userSpaceOnUse">
<stop stop-color="#D1913C"/>
<stop offset="1" stop-color="#FFD194"/>
</linearGradient>
<linearGradient id="paint4_linear_1781_44226" x1="16.8587" y1="8.25942" x2="16.8587" y2="0.397248" gradientUnits="userSpaceOnUse">
<stop stop-color="#D1913C"/>
<stop offset="1" stop-color="#FFD194"/>
</linearGradient>
<linearGradient id="paint5_linear_1781_44226" x1="17.0039" y1="14.9928" x2="17.0039" y2="8.08119" gradientUnits="userSpaceOnUse">
<stop stop-color="#D1913C"/>
<stop offset="1" stop-color="#FFD194"/>
</linearGradient>
</defs>
</svg>
