<svg width="22" height="23" viewBox="0 0 22 23" fill="none" xmlns="http://www.w3.org/2000/svg">
<g id="id-card 1">
<g id="Group 1000008563">
<g id="Group">
<path id="Vector" d="M4.66667 17.55H17.3333C18.2796 17.55 19.05 16.7796 19.05 15.8333V7.16667C19.05 6.22039 18.2796 5.45 17.3333 5.45H4.66667C3.72039 5.45 2.95 6.22039 2.95 7.16667V15.8333C2.95 16.7796 3.72039 17.55 4.66667 17.55ZM3.71667 7.16667C3.71667 6.64295 4.14295 6.21667 4.66667 6.21667H17.3333C17.8571 6.21667 18.2833 6.64295 18.2833 7.16667V15.8333C18.2833 16.3571 17.8571 16.7833 17.3333 16.7833H4.66667C4.14295 16.7833 3.71667 16.3571 3.71667 15.8333V7.16667Z" fill="#606770" stroke="#606770" stroke-width="0.1"/>
</g>
<g id="Group_2">
<path id="Vector_2" d="M7.99992 11.5001C7.08125 11.5001 6.33325 10.7521 6.33325 9.83341C6.33325 8.91475 7.08125 8.16675 7.99992 8.16675C8.91859 8.16675 9.66659 8.91475 9.66659 9.83341C9.66659 10.7521 8.91859 11.5001 7.99992 11.5001ZM7.99992 8.83341C7.44859 8.83341 6.99992 9.28208 6.99992 9.83341C6.99992 10.3847 7.44859 10.8334 7.99992 10.8334C8.55125 10.8334 8.99992 10.3847 8.99992 9.83341C8.99992 9.28208 8.55125 8.83341 7.99992 8.83341Z" fill="#606770"/>
</g>
<g id="Group_3">
<path id="Vector_3" d="M10.6667 14.8334C10.4827 14.8334 10.3333 14.6841 10.3333 14.5001V13.8334C10.3333 13.2821 9.88467 12.8334 9.33333 12.8334H6.66667C6.11533 12.8334 5.66667 13.2821 5.66667 13.8334V14.5001C5.66667 14.6841 5.51733 14.8334 5.33333 14.8334C5.14933 14.8334 5 14.6841 5 14.5001V13.8334C5 12.9147 5.748 12.1667 6.66667 12.1667H9.33333C10.252 12.1667 11 12.9147 11 13.8334V14.5001C11 14.6841 10.8507 14.8334 10.6667 14.8334Z" fill="#606770"/>
</g>
<g id="Group_4">
<path id="Vector_4" d="M16.6666 9.49992H12.6666C12.4826 9.49992 12.3333 9.35059 12.3333 9.16659C12.3333 8.98259 12.4826 8.83325 12.6666 8.83325H16.6666C16.8506 8.83325 16.9999 8.98259 16.9999 9.16659C16.9999 9.35059 16.8506 9.49992 16.6666 9.49992Z" fill="#606770"/>
</g>
<g id="Group_5">
<path id="Vector_5" d="M16.6666 12.1667H12.6666C12.4826 12.1667 12.3333 12.0173 12.3333 11.8333C12.3333 11.6493 12.4826 11.5 12.6666 11.5H16.6666C16.8506 11.5 16.9999 11.6493 16.9999 11.8333C16.9999 12.0173 16.8506 12.1667 16.6666 12.1667Z" fill="#606770"/>
</g>
<g id="Group_6">
<path id="Vector_6" d="M16.6666 14.8334H12.6666C12.4826 14.8334 12.3333 14.6841 12.3333 14.5001C12.3333 14.3161 12.4826 14.1667 12.6666 14.1667H16.6666C16.8506 14.1667 16.9999 14.3161 16.9999 14.5001C16.9999 14.6841 16.8506 14.8334 16.6666 14.8334Z" fill="#606770"/>
</g>
</g>
</g>
</svg>
