<svg width="261" height="111" viewBox="0 0 261 111" fill="none" xmlns="http://www.w3.org/2000/svg">
<mask id="mask0_4657_35083" style="mask-type:alpha" maskUnits="userSpaceOnUse" x="0" y="0" width="261" height="111">
<path fill-rule="evenodd" clip-rule="evenodd" d="M98.7012 110.507C98.7012 110.507 98.7012 110.507 98.7012 110.507H253.383C253.383 108.487 254.185 106.55 255.614 105.121C257.042 103.693 258.98 102.89 261 102.89V98.9968C259.108 98.9968 257.294 98.2454 255.957 96.9078C254.619 95.5703 253.868 93.7563 253.868 91.8647C253.868 89.9732 254.619 88.1591 255.957 86.8216C257.294 85.4841 259.108 84.7327 261 84.7327V80.704C259.108 80.704 257.294 79.9526 255.957 78.6151C254.619 77.2776 253.868 75.4635 253.868 73.572C253.868 71.6805 254.619 69.8664 255.957 68.5289C257.294 67.1914 259.108 66.44 261 66.44V62.3887C260.04 62.4269 259.083 62.2709 258.185 61.9299C257.287 61.589 256.467 61.0702 255.775 60.4047C255.082 59.7392 254.531 58.9407 254.155 58.057C253.778 57.1734 253.584 56.2228 253.584 55.2623C253.584 54.3018 253.778 53.3513 254.155 52.4676C254.531 51.5839 255.082 50.7854 255.775 50.1199C256.467 49.4544 257.287 48.9356 258.185 48.5947C259.083 48.2538 260.04 48.0977 261 48.1359V44.0847C259.108 44.0847 257.294 43.3333 255.957 41.9957C254.619 40.6582 253.868 38.8442 253.868 36.9527C253.868 35.0611 254.619 33.247 255.957 31.9095C257.294 30.572 259.108 29.8206 261 29.8206V25.7806C260.063 25.7806 259.136 25.5961 258.271 25.2377C257.405 24.8793 256.619 24.354 255.957 23.6917C255.295 23.0294 254.769 22.2432 254.411 21.3779C254.052 20.5126 253.868 19.5852 253.868 18.6486C253.868 17.712 254.052 16.7846 254.411 15.9193C254.769 15.054 255.295 14.2678 255.957 13.6055C256.619 12.9432 257.405 12.4179 258.271 12.0595C259.136 11.701 260.063 11.5166 261 11.5166V7.62329C258.98 7.62329 257.042 6.82077 255.614 5.39225C254.185 3.96374 253.383 2.02625 253.383 0.00601196H159.883C159.883 0.00585175 159.883 0.0056839 159.883 0.00552368H5.20123C5.19666 1.35146 4.69931 2.64912 3.80319 3.65337C2.90707 4.65762 1.67419 5.29893 0.337463 5.45613V105.045C1.67612 105.202 2.91055 105.845 3.80695 106.852C4.70334 107.859 5.1994 109.159 5.20123 110.507H98.7012Z" fill="#045C99"/>
</mask>
<g mask="url(#mask0_4657_35083)">
<mask id="mask1_4657_35083" style="mask-type:luminance" maskUnits="userSpaceOnUse" x="-25" y="-64" width="311" height="238">
<path d="M285.5 163.592V163.394C284.595 163.437 283.691 163.296 282.842 162.98C281.993 162.663 281.217 162.178 280.562 161.553C279.906 160.927 279.384 160.176 279.027 159.343C278.671 158.51 278.487 157.614 278.487 156.708C278.487 155.802 278.671 154.906 279.027 154.073C279.384 153.24 279.906 152.488 280.562 151.863C281.217 151.238 281.993 150.753 282.842 150.436C283.691 150.12 284.595 149.979 285.5 150.022V149.839C284.595 149.882 283.691 149.741 282.842 149.425C281.993 149.108 281.217 148.623 280.562 147.998C279.906 147.373 279.384 146.621 279.027 145.788C278.671 144.956 278.487 144.059 278.487 143.153C278.487 142.247 278.671 141.351 279.027 140.518C279.384 139.685 279.906 138.934 280.562 138.309C281.217 137.683 281.993 137.198 282.842 136.881C283.691 136.565 284.595 136.424 285.5 136.467V136.269C284.595 136.312 283.691 136.171 282.842 135.855C281.993 135.538 281.217 135.053 280.562 134.428C279.906 133.803 279.384 133.051 279.027 132.218C278.671 131.386 278.487 130.489 278.487 129.583C278.487 128.677 278.671 127.781 279.027 126.948C279.384 126.115 279.906 125.364 280.562 124.739C281.217 124.113 281.993 123.628 282.842 123.311C283.691 122.995 284.595 122.854 285.5 122.897V122.714C284.595 122.758 283.691 122.617 282.842 122.3C281.993 121.984 281.217 121.498 280.562 120.873C279.906 120.248 279.384 119.496 279.027 118.664C278.671 117.831 278.487 116.934 278.487 116.028C278.487 115.122 278.671 114.226 279.027 113.393C279.384 112.561 279.906 111.809 280.562 111.184C281.217 110.559 281.993 110.073 282.842 109.757C283.691 109.44 284.595 109.299 285.5 109.342V109.114C284.595 109.157 283.691 109.016 282.842 108.7C281.993 108.383 281.217 107.898 280.562 107.273C279.906 106.647 279.384 105.896 279.027 105.063C278.671 104.23 278.487 103.334 278.487 102.428C278.487 101.522 278.671 100.626 279.027 99.7928C279.384 98.96 279.906 98.2083 280.562 97.5832C281.217 96.9581 281.993 96.4726 282.842 96.1561C283.691 95.8396 284.595 95.6988 285.5 95.742V95.559C283.725 95.559 282.022 94.8538 280.767 93.5985C279.512 92.3433 278.806 90.6407 278.806 88.8655C278.806 87.0903 279.512 85.3877 280.767 84.1325C282.022 82.8772 283.725 82.172 285.5 82.172V81.989C284.595 82.0322 283.691 81.8913 282.842 81.5748C281.993 81.2583 281.217 80.7728 280.562 80.1477C279.906 79.5226 279.384 78.7709 279.027 77.9382C278.671 77.1055 278.487 76.209 278.487 75.3031C278.487 74.3972 278.671 73.5007 279.027 72.668C279.384 71.8352 279.906 71.0836 280.562 70.4585C281.217 69.8334 281.993 69.3479 282.842 69.0314C283.691 68.7149 284.595 68.574 285.5 68.6172V68.419C284.595 68.4622 283.691 68.3213 282.842 68.0048C281.993 67.6883 281.217 67.2028 280.562 66.5777C279.906 65.9526 279.384 65.2009 279.027 64.3682C278.671 63.5355 278.487 62.639 278.487 61.7331C278.487 60.8272 278.671 59.9307 279.027 59.098C279.384 58.2652 279.906 57.5135 280.562 56.8884C281.217 56.2634 281.993 55.7779 282.842 55.4614C283.691 55.1449 284.595 55.004 285.5 55.0472V54.8642C284.595 54.9074 283.691 54.7665 282.842 54.45C281.993 54.1336 281.217 53.6481 280.562 53.023C279.906 52.3979 279.384 51.6462 279.027 50.8134C278.671 49.9807 278.487 49.0842 278.487 48.1783C278.487 47.2724 278.671 46.376 279.027 45.5432C279.384 44.7105 279.906 43.9588 280.562 43.3337C281.217 42.7086 281.993 42.2231 282.842 41.9066C283.691 41.5901 284.595 41.4492 285.5 41.4924V41.2942C284.595 41.3374 283.691 41.1965 282.842 40.88C281.993 40.5635 281.217 40.078 280.562 39.4529C279.906 38.8278 279.384 38.0762 279.027 37.2434C278.671 36.4107 278.487 35.5142 278.487 34.6083C278.487 33.7024 278.671 32.8059 279.027 31.9732C279.384 31.1405 279.906 30.3888 280.562 29.7637C281.217 29.1386 281.993 28.6531 282.842 28.3366C283.691 28.0201 284.595 27.8792 285.5 27.9224V27.7394C284.595 27.7827 283.691 27.6418 282.842 27.3253C281.993 27.0088 281.217 26.5233 280.562 25.8982C279.906 25.2731 279.384 24.5214 279.027 23.6887C278.671 22.8559 278.487 21.9594 278.487 21.0535C278.487 20.1477 278.671 19.2512 279.027 18.4184C279.384 17.5857 279.906 16.834 280.562 16.2089C281.217 15.5838 281.993 15.0983 282.842 14.7818C283.691 14.4653 284.595 14.3244 285.5 14.3676V14.1694C284.595 14.2127 283.691 14.0717 282.842 13.7553C281.993 13.4388 281.217 12.9533 280.562 12.3282C279.906 11.7031 279.384 10.9514 279.027 10.1186C278.671 9.2859 278.487 8.38943 278.487 7.48353C278.487 6.57764 278.671 5.68117 279.027 4.84843C279.384 4.01568 279.906 3.264 280.562 2.6389C281.217 2.0138 281.993 1.5283 282.842 1.2118C283.691 0.895306 284.595 0.754407 285.5 0.79763V0.599421C284.595 0.642645 283.691 0.501745 282.842 0.18525C281.993 -0.131244 281.217 -0.616752 280.562 -1.24185C279.906 -1.86695 279.384 -2.61863 279.027 -3.45137C278.671 -4.28412 278.487 -5.18059 278.487 -6.08648C278.487 -6.99238 278.671 -7.88885 279.027 -8.72159C279.384 -9.55433 279.906 -10.306 280.562 -10.9311C281.217 -11.5562 281.993 -12.0417 282.842 -12.3582C283.691 -12.6747 284.595 -12.8156 285.5 -12.7724V-12.8639C284.595 -12.8206 283.691 -12.9615 282.842 -13.278C281.993 -13.5945 281.217 -14.08 280.562 -14.7051C279.906 -15.3302 279.384 -16.0819 279.027 -16.9147C278.671 -17.7474 278.487 -18.6439 278.487 -19.5498C278.487 -20.4557 278.671 -21.3521 279.027 -22.1849C279.384 -23.0176 279.906 -23.7693 280.562 -24.3944C281.217 -25.0195 281.993 -25.505 282.842 -25.8215C283.691 -26.138 284.595 -26.2789 285.5 -26.2357V-26.4339C284.595 -26.3907 283.691 -26.5316 282.842 -26.8481C281.993 -27.1645 281.217 -27.65 280.562 -28.2751C279.906 -28.9002 279.384 -29.6519 279.027 -30.4847C278.671 -31.3174 278.487 -32.2139 278.487 -33.1198C278.487 -34.0257 278.671 -34.9221 279.027 -35.7549C279.384 -36.5876 279.906 -37.3393 280.562 -37.9644C281.217 -38.5895 281.993 -39.075 282.842 -39.3915C283.691 -39.708 284.595 -39.8489 285.5 -39.8057V-39.9886C284.595 -39.9454 283.691 -40.0863 282.842 -40.4028C281.993 -40.7193 281.217 -41.2048 280.562 -41.8299C279.906 -42.455 279.384 -43.2067 279.027 -44.0394C278.671 -44.8722 278.487 -45.7686 278.487 -46.6745C278.487 -47.5804 278.671 -48.4769 279.027 -49.3097C279.384 -50.1424 279.906 -50.8941 280.562 -51.5192C281.217 -52.1443 281.993 -52.6298 282.842 -52.9463C283.691 -53.2628 284.595 -53.4037 285.5 -53.3604V-53.5587C283.725 -53.5587 282.022 -54.2639 280.767 -55.5191C279.512 -56.7744 278.806 -58.4769 278.806 -60.2522C278.813 -61.2476 279.048 -62.2282 279.492 -63.1187H-9.18285C-13.2267 -63.1187 -17.1048 -61.5123 -19.9643 -58.6528C-22.8237 -55.7934 -24.4301 -51.9153 -24.4301 -47.8714V157.905C-24.4301 161.949 -22.8237 165.827 -19.9643 168.686C-17.1048 171.546 -13.2267 173.152 -9.18285 173.152H279.492C279.046 172.257 278.811 171.271 278.806 170.27C278.81 168.498 279.517 166.799 280.772 165.547C282.027 164.295 283.727 163.592 285.5 163.592Z" fill="white"/>
</mask>
<g mask="url(#mask1_4657_35083)">
<path d="M-37.1157 20.9844L83.6727 -37.5039L-10.6924 98.3944L-37.1157 20.9844Z" fill="url(#paint0_linear_4657_35083)"/>
<path d="M34.607 130.459L83.6726 124.802L-10.6924 98.394L34.607 130.459Z" fill="url(#paint1_linear_4657_35083)"/>
<path d="M83.6727 -37.5039L123.3 87.0505L-10.6924 98.3944L83.6727 -37.5039Z" fill="url(#paint2_linear_4657_35083)"/>
<path d="M83.6726 124.802L123.3 87.0503L-10.6924 98.3942L83.6726 124.802Z" fill="url(#paint3_linear_4657_35083)"/>
<path d="M83.6727 -37.5039L123.3 87.0505L219.556 -28.0506L83.6727 -37.5039Z" fill="url(#paint4_linear_4657_35083)"/>
<path d="M-37.1157 20.9849L83.6727 -37.5034L38.3731 -46.9414L-37.1157 20.9849Z" fill="url(#paint5_linear_4657_35083)"/>
<path d="M-74.8526 -186.605L-37.1158 20.9852L38.3731 -46.9411L-74.8526 -186.605Z" fill="url(#paint6_linear_4657_35083)"/>
<path d="M123.3 87.0508L219.556 -28.0503L208.242 109.693L123.3 87.0508Z" fill="url(#paint7_linear_4657_35083)"/>
<path d="M289.388 19.0942L291.278 117.24L208.242 109.693L289.388 19.0942Z" fill="url(#paint8_linear_4657_35083)"/>
<path d="M123.3 87.0503L208.242 109.692L196.913 211.62L123.3 87.0503Z" fill="url(#paint9_linear_4657_35083)"/>
<path d="M83.6726 124.802L123.3 87.0503L196.913 211.62L83.6726 124.802Z" fill="url(#paint10_linear_4657_35083)"/>
<path d="M196.913 211.619L208.242 109.692L251.651 139.912L196.913 211.619Z" fill="url(#paint11_linear_4657_35083)"/>
<path d="M208.242 109.692L291.278 117.239L251.651 139.912L208.242 109.692Z" fill="url(#paint12_linear_4657_35083)"/>
<path d="M208.242 109.693L219.556 -28.0503L236.541 -24.2842L208.242 109.693Z" fill="url(#paint13_linear_4657_35083)"/>
<path d="M208.242 109.693L289.388 19.0946L236.541 -24.2837L208.242 109.693Z" fill="url(#paint14_linear_4657_35083)"/>
<path d="M261.074 -43.1602L289.388 19.0942L236.541 -24.2841L261.074 -43.1602Z" fill="url(#paint15_linear_4657_35083)"/>
<path d="M-10.6924 98.394L34.6071 130.459L-14.4737 113.474L-10.6924 98.394Z" fill="url(#paint16_linear_4657_35083)"/>
</g>
</g>
<defs>
<linearGradient id="paint0_linear_4657_35083" x1="-30.2545" y1="-45.0055" x2="104.934" y2="75.1618" gradientUnits="userSpaceOnUse">
<stop stop-color="#E41610"/>
<stop offset="1" stop-color="#E82714"/>
</linearGradient>
<linearGradient id="paint1_linear_4657_35083" x1="-18.8345" y1="101.245" x2="0.883295" y2="158.771" gradientUnits="userSpaceOnUse">
<stop stop-color="#E61917"/>
<stop offset="1" stop-color="#E61B17"/>
</linearGradient>
<linearGradient id="paint2_linear_4657_35083" x1="-20.4354" y1="-27.4408" x2="115.678" y2="106.783" gradientUnits="userSpaceOnUse">
<stop stop-color="#EB3B15"/>
<stop offset="1" stop-color="#E92917"/>
</linearGradient>
<linearGradient id="paint3_linear_4657_35083" x1="13.1237" y1="80.5092" x2="32.5673" y2="150.095" gradientUnits="userSpaceOnUse">
<stop stop-color="#E72217"/>
<stop offset="1" stop-color="#E82617"/>
</linearGradient>
<linearGradient id="paint4_linear_4657_35083" x1="91.3573" y1="-44.2889" x2="214.58" y2="91.2292" gradientUnits="userSpaceOnUse">
<stop stop-color="#EF6617"/>
<stop offset="1" stop-color="#F17A1B"/>
</linearGradient>
<linearGradient id="paint5_linear_4657_35083" x1="-40.9885" y1="-44.4561" x2="16.4679" y2="58.519" gradientUnits="userSpaceOnUse">
<stop stop-color="#E61D11"/>
<stop offset="1" stop-color="#EB3E15"/>
</linearGradient>
<linearGradient id="paint6_linear_4657_35083" x1="-84.5803" y1="-168.217" x2="89.5118" y2="-74.0239" gradientUnits="userSpaceOnUse">
<stop stop-color="#EC6D5A"/>
<stop offset="1" stop-color="#E72516"/>
</linearGradient>
<linearGradient id="paint7_linear_4657_35083" x1="127.646" y1="-33.3258" x2="256.194" y2="56.4823" gradientUnits="userSpaceOnUse">
<stop stop-color="#EF711C"/>
<stop offset="1" stop-color="#F4A41F"/>
</linearGradient>
<linearGradient id="paint8_linear_4657_35083" x1="209.05" y1="18.1489" x2="305.878" y2="99.4196" gradientUnits="userSpaceOnUse">
<stop stop-color="#F7C51B"/>
<stop offset="1" stop-color="#F5B31E"/>
</linearGradient>
<linearGradient id="paint9_linear_4657_35083" x1="137.526" y1="65.3993" x2="253.685" y2="144.599" gradientUnits="userSpaceOnUse">
<stop stop-color="#EF6122"/>
<stop offset="1" stop-color="#F3902F"/>
</linearGradient>
<linearGradient id="paint10_linear_4657_35083" x1="84.6637" y1="85.5256" x2="208.882" y2="198.451" gradientUnits="userSpaceOnUse">
<stop stop-color="#EB371F"/>
<stop offset="1" stop-color="#EF612A"/>
</linearGradient>
<linearGradient id="paint11_linear_4657_35083" x1="192.827" y1="117.041" x2="277.938" y2="162.749" gradientUnits="userSpaceOnUse">
<stop stop-color="#F39335"/>
<stop offset="1" stop-color="#F49E24"/>
</linearGradient>
<linearGradient id="paint12_linear_4657_35083" x1="213.746" y1="107.649" x2="233.177" y2="161.084" gradientUnits="userSpaceOnUse">
<stop stop-color="#F4A722"/>
<stop offset="1" stop-color="#F4AC1E"/>
</linearGradient>
<linearGradient id="paint13_linear_4657_35083" x1="207.983" y1="-26.6475" x2="262.003" y2="-15.637" gradientUnits="userSpaceOnUse">
<stop stop-color="#F4AE20"/>
<stop offset="1" stop-color="#F5B41D"/>
</linearGradient>
<linearGradient id="paint14_linear_4657_35083" x1="201.823" y1="-13.3972" x2="320.785" y2="58.6501" gradientUnits="userSpaceOnUse">
<stop stop-color="#F5B320"/>
<stop offset="1" stop-color="#F6C11C"/>
</linearGradient>
<linearGradient id="paint15_linear_4657_35083" x1="238.737" y1="-45.9047" x2="300.295" y2="6.3269" gradientUnits="userSpaceOnUse">
<stop stop-color="#F6B81C"/>
<stop offset="1" stop-color="#F7BF1B"/>
</linearGradient>
<linearGradient id="paint16_linear_4657_35083" x1="-19.3376" y1="101.504" x2="10.1057" y2="146.535" gradientUnits="userSpaceOnUse">
<stop stop-color="#E61717"/>
<stop offset="1" stop-color="#E61919"/>
</linearGradient>
</defs>
</svg>
