<svg width="22" height="22" viewBox="0 0 22 22" fill="none" xmlns="http://www.w3.org/2000/svg">
<g id="feedback 1">
<g id="Group">
<path id="Vector" d="M7.11917 5.75473L8.52875 6.77876C8.56601 6.80576 8.59376 6.84388 8.608 6.88764C8.62223 6.9314 8.62222 6.97855 8.60797 7.02231L8.0695 8.67928C8.01348 8.86067 8.01561 9.05505 8.0756 9.23517C8.13559 9.41529 8.25042 9.57213 8.40402 9.68371C8.55761 9.79529 8.74227 9.85602 8.93211 9.85739C9.12195 9.85877 9.30746 9.80071 9.46265 9.69136L10.8722 8.66737C10.9093 8.64021 10.9541 8.62557 11.0001 8.62557C11.0461 8.62557 11.0909 8.64021 11.128 8.66737L12.5376 9.6914C12.6922 9.80381 12.8785 9.86437 13.0697 9.8644C13.2609 9.86442 13.4472 9.8039 13.6019 9.69152C13.7566 9.57914 13.8717 9.42067 13.9308 9.23883C13.9898 9.05699 13.9898 8.86111 13.9307 8.67928L13.3923 7.02231C13.378 6.97855 13.378 6.9314 13.3922 6.88764C13.4065 6.84388 13.4342 6.80576 13.4715 6.77876L14.8811 5.75473C15.0358 5.64238 15.1509 5.48393 15.21 5.3021C15.2691 5.12028 15.2691 4.92441 15.21 4.74258C15.151 4.56074 15.0358 4.40228 14.8811 4.28991C14.7265 4.17754 14.5402 4.11703 14.349 4.11705H12.6067C12.5607 4.11715 12.5158 4.10262 12.4786 4.07556C12.4414 4.0485 12.4137 4.0103 12.3996 3.96649L11.8612 2.30951C11.8005 2.12924 11.6847 1.97257 11.5302 1.86159C11.3757 1.75061 11.1903 1.69091 11.0001 1.69092C10.8099 1.69092 10.6245 1.75063 10.47 1.86161C10.3155 1.9726 10.1998 2.12927 10.1391 2.30954L9.6006 3.96649C9.5865 4.0103 9.55883 4.0485 9.5216 4.07556C9.48437 4.10262 9.4395 4.11715 9.39348 4.11705H7.65123C7.46104 4.11908 7.27628 4.18075 7.12301 4.29336C6.96973 4.40598 6.85567 4.56387 6.7969 4.74476C6.73813 4.92565 6.73762 5.12043 6.79543 5.30163C6.85325 5.48283 6.96649 5.64131 7.11917 5.75473ZM7.44412 4.95511C7.45698 4.91055 7.48433 4.87155 7.52184 4.84428C7.55935 4.81701 7.60489 4.80303 7.65124 4.80455H9.39349C9.58477 4.8049 9.77121 4.74451 9.92596 4.63208C10.0807 4.51966 10.1958 4.361 10.2545 4.17898L10.793 2.522C10.8065 2.47757 10.8339 2.43867 10.8712 2.41102C10.9085 2.38337 10.9537 2.36844 11.0001 2.36844C11.0465 2.36844 11.0917 2.38337 11.129 2.41102C11.1663 2.43867 11.1938 2.47757 11.2072 2.522L11.7457 4.17899C11.8045 4.361 11.9195 4.51966 12.0743 4.63209C12.229 4.74451 12.4155 4.8049 12.6068 4.80455H14.349C14.3954 4.80367 14.4409 4.81773 14.4787 4.84466C14.5165 4.87159 14.5446 4.90996 14.559 4.95411C14.5733 4.99826 14.5731 5.04584 14.5583 5.08984C14.5435 5.13385 14.515 5.17194 14.4769 5.19849L13.0673 6.22252C12.9124 6.33471 12.7971 6.49316 12.738 6.67508C12.6788 6.85699 12.679 7.05297 12.7384 7.2348L13.2768 8.89179C13.291 8.93551 13.2911 8.98263 13.2769 9.02637C13.2627 9.07011 13.235 9.10823 13.1978 9.13526C13.1606 9.16229 13.1158 9.17684 13.0698 9.17682C13.0238 9.17681 12.979 9.16222 12.9418 9.13516L11.5322 8.11113C11.3777 7.99836 11.1914 7.9376 11.0001 7.9376C10.8089 7.9376 10.6225 7.99836 10.4681 8.11113L9.05848 9.13516C9.02148 9.16318 8.97644 9.17855 8.93002 9.17901C8.88361 9.17947 8.83828 9.16499 8.80072 9.13771C8.76317 9.11043 8.73538 9.07179 8.72147 9.02751C8.70756 8.98323 8.70825 8.93564 8.72345 8.89179L9.26191 7.23479C9.32129 7.05296 9.32143 6.85698 9.26231 6.67507C9.20319 6.49315 9.08787 6.33469 8.93295 6.22251L7.52337 5.19848C7.48495 5.17252 7.45628 5.13449 7.44193 5.0904C7.42757 5.04631 7.42835 4.99871 7.44412 4.95511Z" fill="#606770"/>
<path id="Vector_2" d="M20.5905 7.58752C20.5465 7.44684 20.4583 7.32409 20.3391 7.23744C20.2199 7.1508 20.0759 7.10487 19.9285 7.10647L18.8271 7.1006L18.4894 6.06095C18.4439 5.92117 18.3554 5.79937 18.2365 5.71298C18.1176 5.6266 17.9744 5.58008 17.8274 5.58008C17.6804 5.58008 17.5372 5.6266 17.4183 5.71298C17.2994 5.79937 17.2108 5.92117 17.1654 6.06095L16.8196 7.10647H15.7263C15.5793 7.10646 15.436 7.153 15.3171 7.23941C15.1982 7.32583 15.1097 7.44768 15.0643 7.58749C15.0189 7.72731 15.0189 7.87791 15.0644 8.0177C15.1099 8.15749 15.1984 8.2793 15.3174 8.36565L16.2046 9.01775L15.8669 10.0572C15.8215 10.197 15.8215 10.3476 15.8669 10.4875C15.9123 10.6273 16.0008 10.7491 16.1198 10.8356C16.2387 10.922 16.3819 10.9685 16.529 10.9685C16.676 10.9685 16.8192 10.922 16.9381 10.8355L17.8324 10.193L18.7166 10.8355C18.8356 10.922 18.9788 10.9685 19.1258 10.9685C19.2728 10.9685 19.4161 10.922 19.535 10.8356C19.6539 10.7491 19.7425 10.6273 19.7879 10.4875C19.8333 10.3476 19.8333 10.197 19.7878 10.0572L19.4531 9.00818L20.3374 8.36566C20.4575 8.28034 20.547 8.15859 20.5926 8.01845C20.6382 7.8783 20.6374 7.72721 20.5905 7.58752ZM19.0493 8.45176C18.93 8.53789 18.8412 8.65973 18.7957 8.79967C18.7502 8.93962 18.7503 9.0904 18.7962 9.23023L19.1208 10.2793L18.2366 9.63676C18.1178 9.55005 17.9745 9.50332 17.8274 9.50332C17.6803 9.50332 17.537 9.55005 17.4182 9.63676L16.5209 10.2697L16.8586 9.23056C16.9045 9.09074 16.9047 8.93996 16.8593 8.79999C16.8138 8.66003 16.7251 8.53814 16.6058 8.45192L15.7263 7.79397H16.8196C16.9666 7.79413 17.1099 7.74766 17.2289 7.66126C17.3478 7.57485 17.4363 7.45295 17.4816 7.31309C17.4845 7.32031 17.8319 6.24108 17.8354 6.27343L18.1731 7.31343C18.2185 7.45322 18.307 7.57504 18.426 7.66138C18.5449 7.74772 18.6882 7.79414 18.8351 7.79397L19.9332 7.80941L19.0493 8.45176Z" fill="#606770"/>
<path id="Vector_3" d="M6.13323 10.0572L5.79854 9.00817L6.68276 8.36565C6.80172 8.2793 6.89029 8.1575 6.93575 8.0177C6.98122 7.87791 6.98126 7.72731 6.93586 7.5875C6.89046 7.44768 6.80196 7.32583 6.68304 7.23942C6.56412 7.153 6.42089 7.10646 6.27389 7.10647L5.17248 7.1006L4.83477 6.06095C4.78933 5.92117 4.7008 5.79937 4.58189 5.71298C4.46297 5.6266 4.31976 5.58008 4.17278 5.58008C4.0258 5.58008 3.8826 5.6266 3.76368 5.71298C3.64476 5.79937 3.55624 5.92117 3.5108 6.06095L3.16502 7.10647H2.07167C1.92572 7.10862 1.7841 7.15637 1.66666 7.24304C1.54921 7.32972 1.46183 7.45097 1.41675 7.5898C1.37168 7.72863 1.37117 7.87808 1.41529 8.01722C1.45942 8.15635 1.54598 8.27819 1.66283 8.36567L2.55005 9.01776L2.21234 10.0572C2.16924 10.1967 2.17086 10.3462 2.21697 10.4847C2.26308 10.6232 2.35138 10.7438 2.46949 10.8296C2.5876 10.9154 2.7296 10.9621 2.87558 10.9632C3.02156 10.9643 3.16422 10.9196 3.28355 10.8355L4.17782 10.193C4.49883 10.3915 5.1496 11.0124 5.47124 10.971C5.58094 10.9698 5.68883 10.943 5.78628 10.8926C5.88372 10.8422 5.968 10.7697 6.03236 10.6808C6.09672 10.592 6.13937 10.4893 6.15689 10.381C6.1744 10.2727 6.1663 10.1618 6.13323 10.0572ZM5.14158 9.23023L5.46619 10.2793C5.1148 10.0584 4.49994 9.46383 4.17278 9.50331C3.8542 9.46295 3.20154 10.0671 2.86624 10.2697C3.4243 8.58637 3.47748 8.8436 2.07165 7.79398H3.16503C3.31205 7.79414 3.45533 7.74768 3.57428 7.66127C3.69323 7.57486 3.78171 7.45296 3.82701 7.3131L4.17815 6.26706C4.18237 6.26472 4.51537 7.31263 4.51854 7.31341C4.56392 7.45321 4.65243 7.57503 4.77137 7.66137C4.89031 7.74771 5.03355 7.79414 5.18053 7.79397L6.27858 7.80942L5.3947 8.45176C5.27538 8.53789 5.18655 8.65973 5.14105 8.79967C5.09554 8.93962 5.09573 9.0904 5.14158 9.23023Z" fill="#606770"/>
<path id="Vector_4" d="M6.88508 19.6284H15.1116C15.1596 19.6287 15.2071 19.6185 15.2507 19.5984C15.2943 19.5782 15.3329 19.5487 15.3637 19.5119L6.88508 19.6284ZM6.88508 19.6284C6.83773 19.6286 6.79092 19.6183 6.74799 19.5984M6.88508 19.6284L6.74799 19.5984M6.74799 19.5984C6.70505 19.5784 6.66704 19.5492 6.63667 19.5129L6.74799 19.5984ZM8.79799 15.2263C8.03622 15.5829 7.37049 16.1167 6.85672 16.7835C6.32902 17.4683 5.97783 18.2724 5.83407 19.1249L5.83403 19.1251C5.80893 19.2777 5.81728 19.434 5.8585 19.583C5.89973 19.732 5.97284 19.8704 6.07279 19.9884C6.17274 20.1064 6.29714 20.2012 6.43737 20.2664C6.57761 20.3316 6.73033 20.3656 6.88497 20.3659H6.88508L15.1116 20.3659L15.1119 20.3659C15.2664 20.3648 15.4189 20.3304 15.5589 20.2651C15.6989 20.1997 15.8231 20.105 15.9232 19.9872C16.0232 19.8695 16.0967 19.7316 16.1386 19.5829C16.1805 19.4342 16.1899 19.2782 16.166 19.1255L16.1659 19.1248C16.0208 18.2725 15.6687 17.4687 15.1407 16.7841C14.6265 16.1175 13.9608 15.5837 13.1992 15.2266C14.789 13.4297 13.4419 10.4305 10.9986 10.4652C8.55561 10.4323 7.20797 13.4273 8.79799 15.2263ZM15.3258 19.4792L15.3254 19.4798C15.2993 19.5109 15.2666 19.5359 15.2297 19.553C15.1928 19.57 15.1526 19.5787 15.112 19.5784H15.1116H6.88508L6.88488 19.5784C6.84488 19.5785 6.80534 19.5699 6.76906 19.553C6.73279 19.5362 6.70068 19.5115 6.67503 19.4808L6.67457 19.4803C6.64788 19.4493 6.62838 19.4127 6.61747 19.3733C6.60655 19.3338 6.60448 19.2925 6.61142 19.2521L6.61145 19.252C6.74264 18.4731 7.0776 17.7428 7.58232 17.1353C8.08177 16.5341 8.72986 16.0743 9.46197 15.8014C9.92141 16.0925 10.4543 16.2472 10.9985 16.2473C11.5428 16.2473 12.0756 16.0926 12.5351 15.8016C13.2673 16.075 13.9155 16.535 14.4153 17.1361C14.9205 17.7437 15.2562 18.4738 15.3886 19.2527L15.3886 19.2528C15.3955 19.2929 15.3934 19.3339 15.3826 19.3731C15.3717 19.4122 15.3523 19.4485 15.3258 19.4792ZM10.9987 11.2526C11.5564 11.2533 12.091 11.4752 12.4854 11.8695C12.8795 12.2637 13.1013 12.798 13.1021 13.3554C13.0024 16.14 8.99455 16.1393 8.89519 13.3554C8.89606 12.798 9.11786 12.2637 9.51199 11.8695C9.90632 11.4752 10.441 11.2533 10.9987 11.2526Z" fill="#606770" stroke="#606770" stroke-width="0.1"/>
</g>
</g>
</svg>
