<svg width="22" height="22" viewBox="0 0 22 22" fill="none" xmlns="http://www.w3.org/2000/svg">
<rect width="22" height="22" fill="#676767"/>
<g id="Join Now" clip-path="url(#clip0_0_1)">
<rect width="360" height="800" transform="translate(-38 -482)" fill="white"/>
<rect id="Rectangle 4371" x="-38" y="-482" width="360" height="800" fill="url(#paint0_linear_0_1)"/>
<g id="Frame 1000008549">
<g id="Frame 1000008548">
<g id="Group 1000008552">
<g id="Input Content">
<rect x="-17.5" y="-13.5" width="319" height="49" rx="24.5" fill="white"/>
<g id="tag 1">
<g id="g1347">
<g id="g1349">
<g id="Clip path group">
<mask id="mask0_0_1" style="mask-type:luminance" maskUnits="userSpaceOnUse" x="0" y="0" width="22" height="22">
<g id="clipPath1355">
<path id="path1353" d="M0 1.90735e-06H22V22H0V1.90735e-06Z" fill="white"/>
</g>
</mask>
<g mask="url(#mask0_0_1)">
<g id="g1351">
<g id="Group 1000008556">
<g id="g1357">
<path id="path1359" fill-rule="evenodd" clip-rule="evenodd" d="M16.021 5.51038C16.2797 5.51038 16.4897 5.72038 16.4897 5.97913C16.4897 6.23788 16.2797 6.44788 16.021 6.44788C15.7622 6.44788 15.5522 6.23788 15.5522 5.97913C15.5522 5.72038 15.7622 5.51038 16.021 5.51038Z" fill="#045C99"/>
</g>
<path id="path1363 (Stroke)" fill-rule="evenodd" clip-rule="evenodd" d="M10.4607 17.9055C10.2513 18.1149 9.91258 18.1147 9.70361 17.9056L4.09449 12.2965C3.88537 12.0875 3.88511 11.7487 4.09449 11.5393L11.5393 4.09443C11.5393 4.09444 11.5393 4.09442 11.5393 4.09443C11.64 3.9938 11.7761 3.93748 11.9181 3.93748H17.5271C17.6692 3.93748 17.8051 3.99381 17.9054 4.09418C18.0057 4.19441 18.0625 4.33079 18.0625 4.47291V10.0819C18.0625 10.224 18.0062 10.36 17.9056 10.4606L16.4417 11.9245C14.5909 13.7753 11.7679 16.5983 10.4607 17.9055ZM9.04058 18.5684C9.61586 19.144 10.5483 19.1438 11.1236 18.5684C12.4511 17.241 15.3415 14.3505 17.1898 12.5023L18.5685 11.1236C18.8449 10.8471 19 10.4726 19 10.0819V4.47291C19 4.08239 18.8451 3.7078 18.5685 3.43149C18.2922 3.15494 17.9176 2.99998 17.5271 2.99998H11.9181C11.5274 2.99998 11.1529 3.15505 10.8764 3.43146L3.43158 10.8764C2.85624 11.4517 2.85605 12.3841 3.43158 12.9594M9.04058 18.5684C9.04054 18.5684 9.04062 18.5684 9.04058 18.5684V18.5684ZM3.43158 12.9594L9.04058 18.5684L3.43158 12.9594Z" fill="#045C99"/>
<g id="g1365">
<path id="path1367 (Stroke)" fill-rule="evenodd" clip-rule="evenodd" d="M9.52686 8.15975C9.52686 8.97294 10.1866 9.63269 10.9998 9.63269C11.8129 9.63269 12.4727 8.97294 12.4727 8.15975C12.4727 7.34691 11.813 6.68685 10.9998 6.68685C10.1865 6.68685 9.52686 7.34691 9.52686 8.15975ZM10.9998 8.69519C10.7044 8.69519 10.4644 8.45519 10.4644 8.15975C10.4644 7.86453 10.7044 7.62435 10.9998 7.62435C11.2951 7.62435 11.5352 7.86453 11.5352 8.15975C11.5352 8.45519 11.2952 8.69519 10.9998 8.69519Z" fill="#045C99"/>
</g>
<g id="g1369">
<path id="path1371 (Stroke)" fill-rule="evenodd" clip-rule="evenodd" d="M9.52686 13.8402C9.52686 14.653 10.1865 15.3131 10.9998 15.3131C11.813 15.3131 12.4727 14.653 12.4727 13.8402C12.4727 13.027 11.8129 12.3673 10.9998 12.3673C10.1866 12.3673 9.52686 13.027 9.52686 13.8402ZM10.9998 14.3756C10.7044 14.3756 10.4644 14.1354 10.4644 13.8402C10.4644 13.5448 10.7044 13.3048 10.9998 13.3048C11.2952 13.3048 11.5352 13.5448 11.5352 13.8402C11.5352 14.1354 11.2951 14.3756 10.9998 14.3756Z" fill="#045C99"/>
</g>
<g id="g1373">
<path id="path1375 (Stroke)" fill-rule="evenodd" clip-rule="evenodd" d="M7.51904 10.9999C7.51904 11.2588 7.72891 11.4686 7.98779 11.4686H14.0128C14.2716 11.4686 14.4815 11.2588 14.4815 10.9999C14.4815 10.741 14.2716 10.5311 14.0128 10.5311H7.98779C7.72891 10.5311 7.51904 10.741 7.51904 10.9999Z" fill="#045C99"/>
</g>
</g>
</g>
</g>
</g>
</g>
</g>
</g>
<rect x="-17.5" y="-13.5" width="319" height="49" rx="24.5" stroke="#DFE5EB"/>
</g>
</g>
</g>
</g>
</g>
<defs>
<linearGradient id="paint0_linear_0_1" x1="142" y1="-482" x2="142" y2="318" gradientUnits="userSpaceOnUse">
<stop stop-color="#D1E6F9"/>
<stop offset="0.273239" stop-color="#D1E6F9" stop-opacity="0"/>
</linearGradient>
<clipPath id="clip0_0_1">
<rect width="360" height="800" fill="white" transform="translate(-38 -482)"/>
</clipPath>
</defs>
</svg>
