<svg width="26" height="25" viewBox="0 0 26 25" fill="none" xmlns="http://www.w3.org/2000/svg">
<g clip-path="url(#clip0_1800_32877)">
<path d="M21.8855 10.4909C21.9155 6.96623 18.9135 3.73502 15.1935 3.2882C15.1195 3.27943 15.0389 3.26607 14.9536 3.25194C14.7695 3.22143 14.579 3.19006 14.3869 3.19006C13.6244 3.19006 13.4206 3.72562 13.367 4.04503C13.3148 4.35559 13.3646 4.61638 13.5146 4.8205C13.7671 5.16382 14.2114 5.22477 14.5682 5.2736C14.6728 5.28804 14.7715 5.30148 14.8541 5.32003C18.1963 6.06685 19.3217 7.241 19.8717 10.5548C19.8851 10.6358 19.8912 10.7356 19.8976 10.8414C19.9216 11.2375 19.9716 12.0616 20.8577 12.0616H20.8577C20.9315 12.0616 21.0108 12.0553 21.0933 12.0427C21.9184 11.9173 21.8925 11.164 21.8801 10.802C21.8766 10.7001 21.8733 10.6037 21.8819 10.5395C21.8842 10.5234 21.8854 10.5071 21.8855 10.4909Z" fill="#AECCE0"/>
<path d="M14.1705 1.99441C14.2695 2.00155 14.3632 2.00838 14.4413 2.02034C19.9295 2.86436 22.4535 5.46467 23.153 10.9959C23.1649 11.0899 23.1667 11.2046 23.1687 11.326C23.1756 11.7582 23.19 12.6571 24.1555 12.6758L24.1854 12.6761C24.4882 12.6761 24.7291 12.5848 24.9013 12.4045C25.2019 12.0901 25.1809 11.6231 25.164 11.2478C25.1599 11.1557 25.1559 11.069 25.1569 10.9931C25.2267 5.3361 20.33 0.206366 14.6781 0.0156056C14.6546 0.0148292 14.6322 0.0160714 14.6097 0.0192547C14.5986 0.0208851 14.578 0.0229037 14.5427 0.0229037C14.4864 0.0229037 14.417 0.0180124 14.3435 0.0130435C14.2546 0.00698758 14.1538 0 14.0517 0C13.1516 0 12.9805 0.639752 12.9586 1.02112C12.9081 1.90248 13.7607 1.96452 14.1705 1.99441Z" fill="#AECCE0"/>
<path d="M22.8882 18.1446C22.7715 18.0555 22.6508 17.9633 22.5378 17.8723C21.9386 17.3901 21.3011 16.9456 20.6846 16.5157C20.5566 16.4265 20.4287 16.3373 20.3012 16.2479C19.5115 15.6932 18.8014 15.4236 18.1306 15.4236C17.2271 15.4236 16.4394 15.9228 15.7892 16.9072C15.5012 17.3436 15.1517 17.5558 14.7211 17.5558C14.4664 17.5558 14.1771 17.4831 13.8611 17.3397C11.312 16.1838 9.49173 14.4114 8.45082 12.0719C7.94763 10.9411 8.11075 10.202 8.99631 9.60046C9.49919 9.25916 10.4352 8.62375 10.3689 7.40698C10.2938 6.02523 7.24507 1.8677 5.96052 1.39549C5.41666 1.19549 4.84523 1.19363 4.25905 1.39083C2.78234 1.88726 1.72263 2.75908 1.19422 3.91187C0.683581 5.02577 0.70664 6.33369 1.26091 7.69425C2.86324 11.6279 5.11603 15.0576 7.95695 17.8878C10.7377 20.6583 14.1555 22.9277 18.1153 24.6328C18.4722 24.7863 18.8465 24.8701 19.1199 24.9312C19.2131 24.9522 19.2935 24.97 19.3521 24.9861C19.3844 24.9949 19.4176 24.9996 19.4509 24.9999L19.4822 25.0001C19.4822 25.0001 19.4822 25.0001 19.4823 25.0001C21.3448 25.0001 23.581 23.2982 24.2678 21.358C24.8695 19.6591 23.7709 18.8193 22.8882 18.1446Z" fill="#87AAC1"/>
<path d="M14.9943 6.48786C14.6755 6.49594 14.0119 6.5124 13.779 7.18825C13.6701 7.50409 13.6832 7.77831 13.8179 8.00331C14.0155 8.33344 14.3943 8.4346 14.7387 8.49011C15.988 8.69058 16.6297 9.38142 16.758 10.664C16.8176 11.2621 17.2203 11.6797 17.7374 11.6797C17.7756 11.6797 17.8148 11.6775 17.8537 11.6727C18.4755 11.5987 18.777 11.1418 18.7498 10.3148C18.7597 9.45168 18.308 8.47179 17.5398 7.69128C16.7689 6.90836 15.8396 6.46744 14.9943 6.48786Z" fill="#AECCE0"/>
</g>
<defs>
<clipPath id="clip0_1800_32877">
<rect width="25" height="25" fill="white" transform="translate(0.5)"/>
</clipPath>
</defs>
</svg>
