<svg width="15" height="15" viewBox="0 0 15 15" fill="none" xmlns="http://www.w3.org/2000/svg">
<g clip-path="url(#clip0_2003_33754)">
<path d="M4.32878 4.75L3.11588 4.84371C2.77837 4.86979 2.47779 5.04668 2.29114 5.329L0.892326 7.44462C0.750769 7.65872 0.728265 7.92666 0.832088 8.16138C0.935939 8.3961 1.14936 8.55967 1.40297 8.59896L2.51352 8.77095C2.77332 7.39229 3.39522 6.01702 4.32878 4.75Z" fill="#AECCE0"/>
<path d="M6.96582 13.2235L7.13784 14.334C7.17713 14.5876 7.3407 14.801 7.57539 14.9049C7.67303 14.9481 7.77639 14.9694 7.87923 14.9694C8.02369 14.9694 8.16713 14.9273 8.29217 14.8446L10.4079 13.4458C10.6902 13.2592 10.8671 12.9586 10.8931 12.6211L10.9868 11.4082C9.71975 12.3418 8.34451 12.9637 6.96582 13.2235Z" fill="#AECCE0"/>
<path d="M6.5481 12.4526C6.58666 12.4526 6.62543 12.4494 6.66412 12.4429C7.24173 12.3464 7.79844 12.1837 8.32951 11.9707L3.76505 7.40625C3.5521 7.93729 3.38941 8.494 3.29283 9.07164C3.25477 9.29933 3.33114 9.53128 3.49435 9.69452L6.04124 12.2414C6.17675 12.3769 6.35965 12.4526 6.5481 12.4526Z" fill="#AECCE0"/>
<path d="M13.6512 7.17581C14.7682 5.01639 14.8095 2.7344 14.7512 1.66418C14.7312 1.29747 14.4388 1.00512 14.0721 0.985129C13.8978 0.975613 13.6913 0.96875 13.4585 0.96875C12.2618 0.96875 10.3682 1.15001 8.56045 2.08508C7.12377 2.82819 5.23988 4.46446 4.12842 6.61481C4.14154 6.62506 4.15437 6.63594 4.16645 6.64803L9.08829 11.5699C9.10038 11.582 9.11123 11.5947 9.12148 11.6079C11.2718 10.4964 12.9081 8.6125 13.6512 7.17581ZM8.90766 3.92841C9.70721 3.12886 11.0082 3.12878 11.8079 3.92841C12.1952 4.31574 12.4085 4.83075 12.4085 5.37852C12.4085 5.9263 12.1952 6.44131 11.8079 6.82863C11.4081 7.22837 10.8828 7.42828 10.3578 7.42833C9.83253 7.42836 9.3075 7.22848 8.90766 6.82863C8.52031 6.44131 8.30698 5.9263 8.30698 5.37852C8.30698 4.83075 8.52031 4.31574 8.90766 3.92841Z" fill="#87AAC1"/>
<path d="M9.48783 6.24838C9.96758 6.72813 10.7482 6.72816 11.228 6.24838C11.4604 6.01596 11.5884 5.70698 11.5884 5.3783C11.5884 5.04963 11.4604 4.74065 11.228 4.50825C10.9881 4.26837 10.673 4.14844 10.3579 4.14844C10.0428 4.14844 9.72772 4.26837 9.48786 4.50825C9.25546 4.74065 9.12744 5.04963 9.12744 5.3783C9.12744 5.70698 9.25544 6.01599 9.48783 6.24838Z" fill="#87AAC1"/>
<path d="M1.18605 12.5051C1.29102 12.5051 1.39599 12.4651 1.47606 12.385L2.81516 11.0459C2.97534 10.8857 2.97534 10.626 2.81516 10.4658C2.65501 10.3057 2.3953 10.3057 2.23512 10.4658L0.896014 11.8049C0.735834 11.9651 0.735834 12.2248 0.896014 12.385C0.976104 12.4651 1.08108 12.5051 1.18605 12.5051Z" fill="#AECCE0"/>
<path d="M4.04231 11.6944C3.88215 11.5342 3.62244 11.5342 3.46226 11.6944L0.887713 14.2689C0.727533 14.4291 0.727533 14.6888 0.887713 14.8489C0.967803 14.929 1.07278 14.9691 1.17775 14.9691C1.28272 14.9691 1.38769 14.929 1.46776 14.8489L4.04228 12.2744C4.20249 12.1142 4.20249 11.8545 4.04231 11.6944Z" fill="#AECCE0"/>
<path d="M4.68968 12.9209L3.3506 14.26C3.19042 14.4202 3.19042 14.6799 3.3506 14.8401C3.43069 14.9202 3.53567 14.9602 3.64061 14.9602C3.74556 14.9602 3.85056 14.9202 3.93062 14.8401L5.26972 13.501C5.4299 13.3408 5.4299 13.0811 5.26972 12.9209C5.10957 12.7607 4.84986 12.7607 4.68968 12.9209Z" fill="#AECCE0"/>
</g>
<defs>
<clipPath id="clip0_2003_33754">
<rect width="14" height="14" fill="white" transform="translate(0.767578 0.96875)"/>
</clipPath>
</defs>
</svg>
