<svg width="22" height="22" viewBox="0 0 22 22" fill="none" xmlns="http://www.w3.org/2000/svg">
<path d="M2.52832 5.06988C2.52832 4.6014 2.90785 4.22272 3.37549 4.22272H14.3886C14.8563 4.22272 15.2358 4.6014 15.2358 5.06988C15.2358 5.53836 14.8563 5.91705 14.3886 5.91705H3.37549C2.90785 5.91705 2.52832 5.53836 2.52832 5.06988ZM18.6245 10.1529H3.37549C2.90785 10.1529 2.52832 10.5316 2.52832 11C2.52832 11.4685 2.90785 11.8472 3.37549 11.8472H18.6245C19.0921 11.8472 19.4716 11.4685 19.4716 11C19.4716 10.5316 19.0921 10.1529 18.6245 10.1529ZM11 16.083H3.37549C2.90785 16.083 2.52832 16.4617 2.52832 16.9302C2.52832 17.3987 2.90785 17.7774 3.37549 17.7774H11C11.4676 17.7774 11.8471 17.3987 11.8471 16.9302C11.8471 16.4617 11.4676 16.083 11 16.083Z" fill="white"/>
</svg>
