<svg width="308" height="311" viewBox="0 0 308 311" fill="none" xmlns="http://www.w3.org/2000/svg">
<path d="M305.418 164.022H283.922C283.462 164.017 283.022 163.831 282.699 163.504C282.375 163.177 282.194 162.736 282.194 162.276C282.194 161.817 282.376 161.378 282.7 161.054C283.024 160.73 283.464 160.548 283.922 160.548H305.418C305.876 160.548 306.315 160.73 306.639 161.054C306.963 161.378 307.145 161.817 307.145 162.276C307.145 162.736 306.964 163.177 306.64 163.504C306.317 163.831 305.878 164.017 305.418 164.022Z" fill="#79C2A0"/>
<path d="M33.8328 113.952H21.8866C21.4284 113.952 20.9889 113.77 20.6649 113.446C20.3408 113.122 20.1588 112.683 20.1588 112.224C20.1563 111.997 20.1993 111.771 20.2852 111.56C20.3712 111.349 20.4984 111.158 20.6593 110.997C20.8203 110.836 21.0118 110.709 21.2225 110.623C21.4333 110.537 21.659 110.494 21.8866 110.496H33.8328C34.0603 110.494 34.2862 110.537 34.4969 110.623C34.7077 110.709 34.8992 110.836 35.0601 110.997C35.221 111.158 35.3482 111.349 35.4341 111.56C35.5201 111.771 35.5631 111.997 35.5606 112.224C35.5606 112.683 35.3786 113.122 35.0545 113.446C34.7305 113.77 34.291 113.952 33.8328 113.952Z" fill="#79C2A0"/>
<path d="M107.674 61.4558H95.7279C95.2697 61.4558 94.8302 61.2737 94.5062 60.9497C94.1822 60.6257 94.0001 60.1862 94.0001 59.7279C93.9976 59.5004 94.0406 59.2745 94.1265 59.0638C94.2125 58.853 94.3397 58.6616 94.5006 58.5006C94.6616 58.3397 94.8531 58.2125 95.0638 58.1266C95.2746 58.0406 95.5003 57.9976 95.7279 58.0001H107.674C107.902 57.9976 108.127 58.0406 108.338 58.1266C108.549 58.2125 108.74 58.3397 108.901 58.5006C109.062 58.6616 109.189 58.853 109.275 59.0638C109.361 59.2745 109.404 59.5004 109.402 59.7279C109.402 60.1862 109.22 60.6257 108.896 60.9497C108.572 61.2737 108.132 61.4558 107.674 61.4558Z" fill="#79C2A0"/>
<path d="M41.4687 262.768H14.2508C13.7925 262.768 13.353 262.586 13.029 262.262C12.7049 261.938 12.5229 261.499 12.5229 261.04C12.5229 260.582 12.7049 260.143 13.029 259.819C13.353 259.495 13.7925 259.312 14.2508 259.312H41.4687C41.6956 259.312 41.9203 259.357 42.1299 259.444C42.3395 259.531 42.53 259.658 42.6905 259.819C42.8509 259.979 42.9781 260.17 43.065 260.379C43.1518 260.589 43.1965 260.813 43.1965 261.04C43.1965 261.499 43.0145 261.938 42.6905 262.262C42.3664 262.586 41.9269 262.768 41.4687 262.768Z" fill="#79C2A0"/>
<path d="M6.299 79.73H3.53076C2.80225 79.73 2.21167 80.3206 2.21167 81.0491V83.6129C2.21167 84.3415 2.80225 84.932 3.53076 84.932H6.299C7.02752 84.932 7.6181 84.3415 7.6181 83.6129V81.0491C7.6181 80.3206 7.02752 79.73 6.299 79.73Z" fill="#E1754C"/>
<path d="M184.655 299.796H181.887C181.158 299.796 180.568 300.386 180.568 301.115V303.679C180.568 304.407 181.158 304.998 181.887 304.998H184.655C185.384 304.998 185.974 304.407 185.974 303.679V301.115C185.974 300.386 185.384 299.796 184.655 299.796Z" fill="#E1754C"/>
<path d="M289.588 85.731H286.82C286.092 85.731 285.501 86.3215 285.501 87.0501V89.6139C285.501 90.3425 286.092 90.933 286.82 90.933H289.588C290.317 90.933 290.907 90.3425 290.907 89.6139V87.0501C290.907 86.3215 290.317 85.731 289.588 85.731Z" fill="#E1754C"/>
<g clip-path="url(#clip0_80_13136)">
<path d="M218.618 41.8162C218.118 41.8162 217.712 42.2105 217.712 42.6969V55.6321C217.712 56.1185 218.118 56.5128 218.618 56.5128H224.071V41.8162H218.618Z" fill="#8F96FB"/>
<path d="M248.288 46.6795C248.288 45.5615 247.67 44.5811 246.75 44.0442C247.102 43.5487 247.309 42.9477 247.309 42.3007C247.309 40.6078 245.894 39.2306 244.154 39.2306H237.493C237.697 38.3304 237.976 36.9798 238.171 35.5658C238.677 31.8862 238.331 29.8455 237.083 29.1438C236.304 28.7063 235.465 28.6176 234.72 28.8937C234.144 29.1071 233.366 29.6317 232.923 30.9194L231.173 35.3793C230.285 37.512 227.567 39.7509 225.882 40.9889V56.9025C229.006 57.9675 232.266 58.5073 235.591 58.5073H242.849C244.589 58.5073 246.005 57.13 246.005 55.4372C246.005 54.8444 245.831 54.2903 245.531 53.8205C246.582 53.3221 247.309 52.2711 247.309 51.0583C247.309 50.4113 247.102 49.8103 246.75 49.3148C247.67 48.7779 248.288 47.7975 248.288 46.6795Z" fill="#8F96FB"/>
</g>
<g clip-path="url(#clip1_80_13136)">
<path fill-rule="evenodd" clip-rule="evenodd" d="M76.6405 310.194H88.7628C89.2133 310.194 89.579 309.828 89.579 309.377C89.579 308.927 89.2133 308.561 88.7628 308.561H76.6405C76.1899 308.561 75.8242 308.927 75.8242 309.377C75.8242 309.828 76.1899 310.194 76.6405 310.194Z" fill="#EEC07B"/>
<path fill-rule="evenodd" clip-rule="evenodd" d="M76.6405 306.153H88.7628C89.2133 306.153 89.579 305.787 89.579 305.337C89.579 304.886 89.2133 304.52 88.7628 304.52H76.6405C76.1899 304.52 75.8242 304.886 75.8242 305.337C75.8242 305.787 76.1899 306.153 76.6405 306.153Z" fill="#EEC07B"/>
<path fill-rule="evenodd" clip-rule="evenodd" d="M75.8237 296.092V299.275C75.8237 300.842 77.0938 302.112 78.6605 302.112H86.7431C88.3099 302.112 89.5799 300.842 89.5799 299.275V296.091C93.2197 293.8 95.64 289.747 95.64 285.133C95.64 277.992 89.8423 272.194 82.7012 272.194C75.5601 272.194 69.7625 277.992 69.7625 285.133C69.7625 289.748 72.1835 293.801 75.8237 296.092ZM86.742 286.337C85.1753 286.337 83.9052 287.607 83.9052 289.173V290.378H81.4973V289.173C81.4973 287.607 80.2271 286.337 78.6605 286.337C77.0937 286.337 75.8237 287.607 75.8237 289.173V289.174C75.8237 290.741 77.0938 292.011 78.6605 292.011H79.8644V297.255C79.8644 297.706 80.2303 298.071 80.6808 298.071C81.1314 298.071 81.4973 297.706 81.4973 297.255V292.011H83.9052V297.255C83.9052 297.706 84.271 298.071 84.7216 298.071C85.1722 298.071 85.538 297.706 85.538 297.255V292.011H86.742C88.3087 292.011 89.5788 290.741 89.5788 289.174V289.173C89.5788 287.607 88.3088 286.337 86.742 286.337ZM78.6605 287.969C77.9955 287.969 77.4565 288.508 77.4565 289.173V289.174C77.4565 289.839 77.9955 290.378 78.6605 290.378H79.8644V289.173C79.8644 288.508 79.3254 287.969 78.6605 287.969ZM85.538 290.378H86.742C87.4069 290.378 87.946 289.839 87.946 289.174V289.173C87.946 288.508 87.4069 287.969 86.7424 287.969C86.7423 287.969 86.7421 287.969 86.742 287.969C86.0771 287.969 85.538 288.508 85.538 289.173V290.378Z" fill="#EEC07B"/>
</g>
<g clip-path="url(#clip2_80_13136)">
<path d="M128 36.8379C127.838 36.8379 127.676 36.7961 127.531 36.7123C127.374 36.6214 123.632 34.4488 119.836 31.1752C117.587 29.235 115.791 27.3106 114.499 25.4556C112.827 23.0553 111.987 20.7464 112 18.5931C112.016 16.0875 112.913 13.7311 114.527 11.958C116.168 10.155 118.359 9.16211 120.694 9.16211C123.688 9.16211 126.425 10.839 128 13.4954C129.575 10.839 132.312 9.16211 135.306 9.16211C137.512 9.16211 139.618 10.058 141.234 11.6847C143.008 13.4699 144.016 15.9923 144 18.605C143.986 20.7545 143.13 23.0599 141.454 25.457C140.158 27.311 138.365 29.2345 136.124 31.1741C132.343 34.4474 128.628 36.62 128.471 36.7109C128.326 36.7955 128.163 36.8379 128 36.8379Z" fill="#EEC07B"/>
</g>
<g clip-path="url(#clip3_80_13136)">
<path d="M34.125 197.54V203.249C34.125 205.323 32.9044 207.173 31.0144 208.04C28.7175 209.09 25.2394 210.232 21 210.232C16.7606 210.232 13.2825 209.09 10.9725 208.04C9.09562 207.173 7.875 205.323 7.875 203.249V197.54L17.2069 201.805C18.4012 202.357 19.6875 202.632 21 202.632C22.3125 202.632 23.5987 202.357 24.7931 201.805L34.125 197.54Z" fill="#C179E2"/>
<path d="M39.375 195.138V203.669C39.375 204.391 38.7844 204.982 38.0625 204.982C37.3406 204.982 36.75 204.391 36.75 203.669V196.345L39.375 195.138Z" fill="#C179E2"/>
<path d="M18.2936 199.422C19.1533 199.814 20.076 200.011 21 200.011C21.924 200.011 22.8454 199.816 23.7064 199.422L40.4683 191.759C41.4133 191.328 42 190.413 42 189.372C42 188.331 41.4133 187.415 40.4683 186.983L23.7064 179.322C21.9857 178.536 20.0156 178.536 18.2949 179.322L1.53169 186.982C0.586688 187.415 0 188.33 0 189.371C0 190.411 0.586688 191.326 1.53169 191.759L18.2936 199.422Z" fill="#C179E2"/>
</g>
<g clip-path="url(#clip4_80_13136)">
<path d="M257.515 252.454C253.86 252.454 243.1 252.454 243.1 252.454C241.958 252.454 241.023 253.388 241.023 254.53V270.118C241.023 271.26 241.958 272.194 243.1 272.194C243.1 272.194 254.085 272.194 257.758 272.194C258.246 272.194 258.246 271.669 258.246 271.669V253.159C258.246 253.159 258.246 252.454 257.515 252.454Z" fill="#79C2A0"/>
<path d="M276.9 252.454C276.9 252.454 266.1 252.454 262.5 252.454C261.622 252.454 261.754 253.367 261.754 253.367V271.686C261.754 271.686 261.747 272.194 262.274 272.194C265.931 272.194 276.9 272.194 276.9 272.194C278.042 272.194 278.977 271.259 278.977 270.117V254.53C278.977 253.388 278.042 252.454 276.9 252.454Z" fill="#79C2A0"/>
<path d="M258.246 240.189C258.246 240.189 258.246 239.486 257.551 239.486C253.387 239.486 240.755 239.486 240.755 239.486C239.613 239.486 238.678 240.42 238.678 241.562V248.045C238.678 249.187 239.613 250.122 240.755 250.122C240.755 250.122 253.443 250.122 257.608 250.122C258.246 250.122 258.246 249.568 258.246 249.568V240.189Z" fill="#79C2A0"/>
<path d="M279.245 239.486C279.245 239.486 266.608 239.486 262.396 239.486C261.754 239.486 261.754 240.097 261.754 240.097V249.581C261.754 249.581 261.754 250.122 262.534 250.122C266.712 250.122 279.245 250.122 279.245 250.122C280.387 250.122 281.322 249.187 281.322 248.045V241.562C281.322 240.42 280.387 239.486 279.245 239.486Z" fill="#79C2A0"/>
<path d="M251.183 237.949C250.233 237.949 249.365 237.874 248.604 237.725C246.671 237.348 245.342 236.612 244.542 235.478C243.825 234.462 243.606 233.209 243.89 231.754C244.387 229.208 246.097 227.806 248.703 227.806C249.255 227.806 249.861 227.87 250.504 227.995C252.141 228.315 254.234 229.253 256.104 230.505C259.276 232.63 259.432 233.951 259.275 234.759C259.042 235.948 257.932 236.797 255.879 237.355C254.492 237.733 252.78 237.949 251.183 237.949ZM248.704 231.134C247.694 231.134 247.347 231.416 247.157 232.392C247.001 233.189 247.197 233.468 247.262 233.56C247.532 233.942 248.235 234.262 249.242 234.458C249.785 234.564 250.456 234.62 251.183 234.62C252.779 234.62 254.186 234.379 255.119 234.114C255.187 234.095 255.293 234.014 255.18 233.947C253.959 232.953 251.727 231.626 249.866 231.262C249.433 231.178 249.041 231.134 248.704 231.134Z" fill="#79C2A0"/>
<path d="M268.866 237.949C268.866 237.949 268.866 237.949 268.865 237.949C267.268 237.949 265.556 237.733 264.169 237.355C262.116 236.797 261.006 235.948 260.774 234.759C260.616 233.951 260.772 232.63 263.945 230.506C265.814 229.254 267.907 228.315 269.544 227.995C270.187 227.87 270.793 227.806 271.344 227.806C273.952 227.806 275.661 229.208 276.158 231.754C276.443 233.209 276.223 234.462 275.506 235.478C274.706 236.613 273.378 237.348 271.444 237.725C270.683 237.874 269.816 237.949 268.866 237.949ZM264.895 233.926C264.787 233.989 264.839 234.088 264.895 234.104C265.828 234.373 267.25 234.621 268.865 234.621C269.592 234.621 270.263 234.564 270.806 234.458C271.813 234.262 272.516 233.942 272.786 233.56C272.851 233.468 273.048 233.19 272.891 232.392C272.701 231.417 272.354 231.135 271.344 231.135C271.007 231.135 270.616 231.178 270.182 231.262C268.321 231.626 266.115 232.932 264.895 233.926Z" fill="#79C2A0"/>
</g>
<defs>
<clipPath id="clip0_80_13136">
<rect width="30.5981" height="29.7712" fill="white" transform="translate(217.701 28.7361)"/>
</clipPath>
<clipPath id="clip1_80_13136">
<rect width="38" height="38" fill="white" transform="translate(63.7012 272.194)"/>
</clipPath>
<clipPath id="clip2_80_13136">
<rect width="32" height="32" fill="white" transform="translate(112 7)"/>
</clipPath>
<clipPath id="clip3_80_13136">
<rect width="42" height="42" fill="white" transform="translate(0 173.482)"/>
</clipPath>
<clipPath id="clip4_80_13136">
<rect width="44.3882" height="44.3882" fill="white" transform="translate(237.806 227.806)"/>
</clipPath>
</defs>
</svg>
