<svg width="25" height="24" viewBox="0 0 25 24" fill="none" xmlns="http://www.w3.org/2000/svg">
<path fill-rule="evenodd" clip-rule="evenodd" d="M15.2129 2H10.9829C6.56463 2 2.98291 5.58172 2.98291 10V14.24C2.98291 18.6583 6.56463 22.24 10.9829 22.24H15.2129C19.6312 22.24 23.2129 18.6583 23.2129 14.24V10C23.2129 5.58172 19.6312 2 15.2129 2ZM9.10291 6.12C10.2075 6.12 11.1029 7.01543 11.1029 8.12C11.1029 9.22457 10.2075 10.12 9.10291 10.12C7.99834 10.12 7.10291 9.22457 7.10291 8.12C7.10291 7.01543 7.99834 6.12 9.10291 6.12ZM16.4929 20.12C19.324 19.0627 21.2041 16.3621 21.2129 13.34L21.1829 11.62C21.1829 11.21 21.1029 10.44 21.1029 10.44H19.4729C15.6993 10.4515 12.2535 12.5862 10.5629 15.96C9.33582 14.863 7.74882 14.2546 6.10291 14.25H4.89291C4.80365 16.5747 6.06632 18.7415 8.13291 19.81C8.87169 20.2036 9.69584 20.4096 10.5329 20.41H14.7029C15.3119 20.4187 15.9178 20.3206 16.4929 20.12Z" fill="#87AAC1"/>
</svg>
