<svg width="18" height="20" viewBox="0 0 18 20" fill="none" xmlns="http://www.w3.org/2000/svg">
<mask id="mask0_1055_88596" style="mask-type:alpha" maskUnits="userSpaceOnUse" x="0" y="0" width="18" height="20">
<rect y="0.600586" width="18" height="18.6" fill="#D9D9D9"/>
</mask>
<g mask="url(#mask0_1055_88596)">
<path d="M8.99998 16.3541L8.17211 15.585C6.92885 14.4196 5.90072 13.418 5.08774 12.5804C4.27476 11.7428 3.63054 10.9974 3.15506 10.3441C2.67957 9.69081 2.34736 9.09491 2.15842 8.55639C1.96947 8.01787 1.875 7.4714 1.875 6.91697C1.875 5.81708 2.23389 4.89628 2.95168 4.15456C3.66947 3.41285 4.56057 3.04199 5.62498 3.04199C6.27979 3.04199 6.89854 3.20023 7.48123 3.5167C8.06392 3.83316 8.57017 4.28698 8.99998 4.87816C9.42979 4.28698 9.93604 3.83316 10.5187 3.5167C11.1014 3.20023 11.7202 3.04199 12.375 3.04199C13.4394 3.04199 14.3305 3.41285 15.0483 4.15456C15.7661 4.89628 16.125 5.81708 16.125 6.91697C16.125 7.4714 16.0305 8.01787 15.8415 8.55639C15.6526 9.09491 15.3204 9.69081 14.8449 10.3441C14.3694 10.9974 13.7264 11.7428 12.9158 12.5804C12.1053 13.418 11.0759 14.4196 9.82785 15.585L8.99998 16.3541ZM8.99998 14.7832C10.2 13.6674 11.1875 12.7111 11.9625 11.9142C12.7375 11.1174 13.35 10.4251 13.8 9.83739C14.25 9.24968 14.5625 8.72779 14.7375 8.27173C14.9125 7.81567 15 7.36408 15 6.91697C15 6.14197 14.75 5.49614 14.25 4.97947C13.75 4.46281 13.125 4.20447 12.375 4.20447C11.7827 4.20447 11.2353 4.37811 10.7329 4.72537C10.2305 5.07262 9.83268 5.55576 9.5394 6.17477H8.46056C8.16249 5.5508 7.76345 5.06641 7.26345 4.72163C6.76345 4.37686 6.21729 4.20447 5.62498 4.20447C4.87979 4.20447 4.25599 4.46281 3.75358 4.97947C3.25118 5.49614 2.99998 6.14197 2.99998 6.91697C2.99998 7.36408 3.08748 7.81567 3.26248 8.27173C3.43748 8.72779 3.74998 9.24968 4.19998 9.83739C4.64998 10.4251 5.26248 11.1161 6.03748 11.9105C6.81248 12.7049 7.79998 13.6625 8.99998 14.7832Z" fill="#1C1E21"/>
</g>
</svg>
