<svg width="35" height="34" viewBox="0 0 35 34" fill="none" xmlns="http://www.w3.org/2000/svg">
<circle cx="17.0342" cy="17" r="16.5" stroke="#E8EEF3"/>
<path d="M17.2978 13.938L12.5125 18.7233C12.3362 18.8999 12.2248 19.131 12.1963 19.379L12.0056 21.0531C11.9932 21.1709 12.0057 21.2899 12.0424 21.4024C12.0791 21.515 12.1392 21.6185 12.2186 21.7063C12.298 21.7941 12.3951 21.8641 12.5034 21.9118C12.6118 21.9595 12.729 21.9839 12.8474 21.9832H12.945L14.6192 21.7925C14.8661 21.764 15.0967 21.6544 15.2749 21.481L20.0602 16.691L17.2978 13.938Z" fill="#87AAC1"/>
<path d="M21.6783 13.5334L20.4645 12.3197C20.363 12.2177 20.2423 12.1368 20.1094 12.0817C19.9766 12.0265 19.8341 11.998 19.6902 11.998C19.5463 11.998 19.4039 12.0265 19.271 12.0817C19.1381 12.1368 19.0175 12.2177 18.9159 12.3197L17.7905 13.4451L20.5529 16.2074L21.6783 15.082C21.7802 14.9805 21.8611 14.8598 21.9163 14.7269C21.9715 14.5941 21.9999 14.4516 21.9999 14.3077C21.9999 14.1638 21.9715 14.0214 21.9163 13.8885C21.8611 13.7556 21.7802 13.635 21.6783 13.5334Z" fill="#AECCE0"/>
</svg>
