<svg width="55" height="111" viewBox="0 0 55 111" fill="none" xmlns="http://www.w3.org/2000/svg">
<path d="M7.13204 73.5661C7.13204 75.4576 6.38062 77.2717 5.04311 78.6092C3.70559 79.9467 1.89155 80.6981 1.62102e-05 80.6981V84.7381C1.89155 84.7381 3.70559 85.4895 5.04311 86.827C6.38062 88.1645 7.13204 89.9786 7.13204 91.8701C7.13204 93.7616 6.38062 95.5757 5.04311 96.9132C3.70559 98.2507 1.89155 99.0021 1.62102e-05 99.0021V102.895C2.02024 102.895 3.95772 103.698 5.38624 105.126C6.81475 106.555 7.61729 108.492 7.61729 110.513H49.6421C49.6442 109.163 50.1419 107.861 51.0406 106.854C51.9393 105.847 53.1765 105.206 54.5172 105.051V5.46199C53.1765 5.30712 51.9393 4.66531 51.0406 3.65844C50.1419 2.65156 49.6442 1.34973 49.6421 0.00012432H7.61729C7.61729 2.02035 6.81475 3.95781 5.38624 5.38633C3.95772 6.81484 2.02024 7.6174 1.62102e-05 7.6174V11.5107C0.936608 11.5107 1.86402 11.6951 2.72931 12.0535C3.59461 12.412 4.38084 12.9373 5.04311 13.5996C5.70538 14.2619 6.23073 15.0481 6.58915 15.9134C6.94756 16.7787 7.13204 17.7061 7.13204 18.6427C7.13204 19.5793 6.94756 20.5067 6.58915 21.372C6.23073 22.2373 5.70538 23.0235 5.04311 23.6858C4.38084 24.3481 3.59461 24.8734 2.72931 25.2318C1.86402 25.5903 0.936608 25.7747 1.62102e-05 25.7747V29.8147C1.89155 29.8147 3.70559 30.5661 5.04311 31.9036C6.38062 33.2411 7.13204 35.0552 7.13204 36.9467C7.13204 38.8383 6.38062 40.6523 5.04311 41.9898C3.70559 43.3274 1.89155 44.0787 1.62102e-05 44.0787V48.13C0.959726 48.0918 1.91726 48.2479 2.81519 48.5888C3.71311 48.9297 4.53293 49.4485 5.22546 50.114C5.91799 50.7795 6.46895 51.578 6.84532 52.4617C7.22168 53.3454 7.41567 54.2959 7.41567 55.2564C7.41567 56.2169 7.22168 57.1674 6.84532 58.0511C6.46895 58.9348 5.91799 59.7333 5.22546 60.3988C4.53293 61.0643 3.71311 61.5831 2.81519 61.924C1.91726 62.2649 0.959726 62.421 1.62102e-05 62.3828V66.4341C1.89155 66.4341 3.70559 67.1855 5.04311 68.523C6.38062 69.8605 7.13204 71.6745 7.13204 73.5661Z" fill="#FEC007"/>
</svg>
