<svg width="44" height="44" viewBox="0 0 44 44" fill="none" xmlns="http://www.w3.org/2000/svg">
<circle cx="22" cy="22" r="21.5" fill="white" stroke="#DFE5EB"/>
<g clip-path="url(#clip0_179_7927)">
<path d="M21.1605 14.96C17.7416 14.96 14.96 17.7417 14.96 21.1606C14.96 24.5796 17.7416 27.3611 21.1605 27.3611C24.5796 27.3611 27.361 24.5796 27.361 21.1606C27.361 17.7417 24.5796 14.96 21.1605 14.96ZM21.1605 26.2164C18.3727 26.2164 16.1047 23.9483 16.1047 21.1606C16.1047 18.3728 18.3727 16.1047 21.1605 16.1047C23.9483 16.1047 26.2163 18.3728 26.2163 21.1606C26.2163 23.9483 23.9483 26.2164 21.1605 26.2164Z" fill="#1C1E21"/>
<path d="M28.8723 28.063L25.5908 24.7815C25.3672 24.5579 25.0051 24.5579 24.7815 24.7815C24.5579 25.0049 24.5579 25.3674 24.7815 25.5908L28.063 28.8723C28.1748 28.9841 28.3211 29.04 28.4677 29.04C28.614 29.04 28.7605 28.9841 28.8723 28.8723C29.0959 28.6489 29.0959 28.2864 28.8723 28.063Z" fill="#1C1E21"/>
</g>
<defs>
<clipPath id="clip0_179_7927">
<rect width="14.08" height="14.08" fill="white" transform="translate(14.96 14.96)"/>
</clipPath>
</defs>
</svg>
