<svg width="15" height="19" viewBox="0 0 15 19" fill="none" xmlns="http://www.w3.org/2000/svg">
<path d="M2.27024 15.211H14.4145C14.4517 15.211 14.4877 15.2058 14.5223 15.1975C14.5251 15.1975 14.5274 15.198 14.5301 15.198C14.7894 15.198 15 14.9876 15 14.7281V1.44837C15 1.18901 14.7894 0.978516 14.5301 0.978516H14.4154H3.0217H2.2709C1.02028 0.978516 0.00300771 1.99602 0.00300771 3.24629C0.00300771 3.26306 0.00630696 3.27898 0.00793719 3.29516C0.00630696 4.45011 -0.00801585 15.0626 0.00630696 16.4577C0.00541421 16.485 0.00207606 16.5117 0.00207606 16.5392C0.00207606 17.7414 0.943423 18.7256 2.12748 18.8C2.15124 18.8037 2.17452 18.8071 2.19917 18.8071H14.5301C14.7894 18.8071 15 18.5967 15 18.3373V16.5686C15 16.3094 14.7893 16.0988 14.5301 16.0988C14.2709 16.0988 14.0602 16.3094 14.0602 16.5686V17.8674H2.27024C1.55624 17.8674 0.973388 17.3005 0.944742 16.5936C0.945441 16.581 0.947731 16.5691 0.947498 16.5563C0.947032 16.5356 0.946334 16.5035 0.945868 16.4608C0.986934 15.7651 1.56439 15.211 2.27024 15.211ZM2.59062 3.24629C2.59062 2.98693 2.80112 2.77644 3.06048 2.77644C3.31984 2.77644 3.53034 2.98693 3.53034 3.24629V12.7904C3.53034 13.0496 3.31984 13.2602 3.06048 13.2602C2.80112 13.2602 2.59062 13.0496 2.59062 12.7904V3.24629Z" fill="url(#paint0_linear_1055_14123)"/>
<defs>
<linearGradient id="paint0_linear_1055_14123" x1="7.5" y1="0.978516" x2="7.5" y2="18.8071" gradientUnits="userSpaceOnUse">
<stop stop-color="#8775FB"/>
<stop offset="1" stop-color="#4930EC" stop-opacity="0.28"/>
</linearGradient>
</defs>
</svg>
