<svg width="19" height="19" viewBox="0 0 19 19" fill="none" xmlns="http://www.w3.org/2000/svg">
<g id="notification (1) 1" clip-path="url(#clip0_1161_128665)">
<path id="Vector" d="M8.24965 18.5215C9.60797 18.5215 10.7442 17.5532 11.0052 16.2715H5.49414C5.7552 17.5532 6.89146 18.5215 8.24965 18.5215Z" fill="#AECCE0"/>
<path id="Vector_2" d="M13.509 9.52075C13.5059 9.52075 13.5029 9.52144 13.4999 9.52144C10.6057 9.52144 8.24993 7.16638 8.24993 4.27148C8.24993 3.47566 8.43299 2.72337 8.75173 2.04689C8.58666 2.03123 8.4194 2.02148 8.24993 2.02148C5.3505 2.02148 2.99998 4.37187 2.99998 7.27144V9.36241C2.99998 10.8467 2.34973 12.2477 1.20893 13.2122C0.828668 13.5369 0.659891 14.0544 0.796396 14.5592C0.955423 15.1464 1.53591 15.5215 2.14497 15.5215H14.3512C14.9902 15.5215 15.5925 15.1074 15.7221 14.4812C15.8227 13.9967 15.6502 13.5129 15.2745 13.1972C14.1839 12.283 13.5532 10.9396 13.509 9.52075Z" fill="#87AAC1"/>
<path id="Vector_3" d="M17.25 4.27153C17.25 6.34259 15.5711 8.02144 13.4999 8.02144C11.4288 8.02144 9.75 6.34259 9.75 4.27153C9.75 2.20047 11.4288 0.521484 13.4999 0.521484C15.5711 0.521484 17.25 2.20047 17.25 4.27153Z" fill="#AECCE0"/>
</g>
<defs>
<clipPath id="clip0_1161_128665">
<rect width="18" height="18" fill="white" transform="translate(0.0112305 0.521484)"/>
</clipPath>
</defs>
</svg>
