<svg width="22" height="23" viewBox="0 0 22 23" fill="none" xmlns="http://www.w3.org/2000/svg">
<g id="person">
<path id="Vector" d="M11.0001 11.4982H11.0002C11.9224 11.4972 12.8066 11.1304 13.4587 10.4782C14.1108 9.82612 14.4777 8.94194 14.4787 8.01969V8.01964C14.4787 7.33164 14.2747 6.6591 13.8924 6.08705C13.5102 5.515 12.9669 5.06914 12.3313 4.80586C11.6957 4.54257 10.9962 4.47368 10.3215 4.60791C9.64669 4.74213 9.02687 5.07343 8.54039 5.55992C8.0539 6.0464 7.7226 6.66623 7.58837 7.341C7.45415 8.01578 7.52304 8.7152 7.78633 9.35083C8.04961 9.98646 8.49547 10.5297 9.06752 10.912C9.63956 11.2942 10.3121 11.4982 11.0001 11.4982ZM9.65219 6.00233C10.0512 5.73575 10.5202 5.59346 11 5.59345C11.6433 5.59419 12.26 5.85005 12.7148 6.3049C13.1697 6.75975 13.4256 7.37644 13.4263 8.0197C13.4263 8.49953 13.284 8.96859 13.0174 9.36756C12.7508 9.76654 12.3719 10.0775 11.9286 10.2611C11.4852 10.4448 10.9974 10.4928 10.5268 10.3992C10.0561 10.3056 9.62384 10.0745 9.28453 9.73521C8.94522 9.3959 8.71415 8.9636 8.62053 8.49296C8.52692 8.02233 8.57497 7.5345 8.7586 7.09118C8.94223 6.64785 9.2532 6.26893 9.65219 6.00233Z" fill="#606770" stroke="#606770" stroke-width="0.1"/>
<path id="Vector_2" d="M4.52153 16.7556V16.7557V17.9328C4.52153 18.0724 4.57697 18.2062 4.67565 18.3049C4.77433 18.4036 4.90817 18.459 5.04772 18.459C5.18728 18.459 5.32112 18.4036 5.4198 18.3049C5.51848 18.2062 5.57391 18.0724 5.57391 17.9328V16.7557C5.57491 15.8648 5.92928 15.0106 6.55929 14.3806C7.1893 13.7506 8.04348 13.3962 8.93445 13.3952H13.0658C13.9567 13.3962 14.8109 13.7506 15.4409 14.3806C16.0709 15.0106 16.4253 15.8648 16.4263 16.7557V17.9328C16.4263 18.0724 16.4817 18.2062 16.5804 18.3049C16.6791 18.4036 16.8129 18.459 16.9525 18.459C17.092 18.459 17.2259 18.4036 17.3246 18.3049C17.4232 18.2062 17.4787 18.0724 17.4787 17.9328V16.7557V16.7556C17.4773 15.5856 17.0118 14.4639 16.1845 13.6367C15.3571 12.8094 14.2354 12.3441 13.0654 12.3428H13.0653L8.93439 12.3428L8.93433 12.3428C7.76441 12.3442 6.64282 12.8096 5.81556 13.6368C4.9883 14.4641 4.52294 15.5857 4.52153 16.7556Z" fill="#606770" stroke="#606770" stroke-width="0.1"/>
</g>
</svg>
