<svg width="17" height="17" viewBox="0 0 17 17" fill="none" xmlns="http://www.w3.org/2000/svg">
<g clip-path="url(#clip0_1076_209313)">
<path d="M8.64945 9.88758C8.76759 9.88758 8.86335 9.79098 8.86335 9.67182C8.86335 9.55266 8.76759 9.45605 8.64945 9.45605C8.53131 9.45605 8.43555 9.55266 8.43555 9.67182C8.43555 9.79098 8.53131 9.88758 8.64945 9.88758Z" fill="#E4F4FF"/>
<path d="M8.64945 10.7401C8.76759 10.7401 8.86335 10.6435 8.86335 10.5244C8.86335 10.4052 8.76759 10.3086 8.64945 10.3086C8.53131 10.3086 8.43555 10.4052 8.43555 10.5244C8.43555 10.6435 8.53131 10.7401 8.64945 10.7401Z" fill="#E4F4FF"/>
<path d="M10.1502 8.36133L11.0742 7.51036L11.5174 7.10472C12.3183 6.3763 12.7153 5.38897 12.7307 4.0823V2.98449H13.4015C13.43 2.98518 13.4584 2.98011 13.4849 2.96958C13.5115 2.95905 13.5357 2.94326 13.5561 2.92316C13.5765 2.90305 13.5927 2.87903 13.6038 2.85251C13.6148 2.82599 13.6205 2.79751 13.6205 2.76873V1.8349C13.6205 1.77768 13.598 1.7228 13.5579 1.68234C13.5178 1.64187 13.4634 1.61914 13.4066 1.61914H3.89561C3.83888 1.61914 3.78447 1.64187 3.74435 1.68234C3.70424 1.7228 3.6817 1.77768 3.6817 1.8349V2.76873C3.6817 2.82595 3.70424 2.88083 3.74435 2.9213C3.78447 2.96176 3.83888 2.98449 3.89561 2.98449H4.56641V4.07885C4.58181 5.38206 4.98053 6.3694 5.78138 7.09609L6.29475 7.56904L7.15037 8.35615C7.23934 8.42366 7.31299 8.50955 7.36641 8.60808C7.41982 8.70661 7.45176 8.81551 7.4601 8.92749C7.44914 9.04302 7.41405 9.1549 7.35712 9.25576C7.30019 9.35662 7.22273 9.44417 7.12983 9.51264L5.77796 10.7589C4.9771 11.4856 4.5801 12.4729 4.56299 13.7796V14.7324H3.89561C3.86708 14.7324 3.83884 14.7381 3.81255 14.7493C3.78625 14.7605 3.76244 14.7768 3.74251 14.7974C3.72258 14.818 3.70693 14.8424 3.69649 14.8692C3.68604 14.896 3.68102 14.9246 3.6817 14.9533V15.8872C3.6817 15.9444 3.70424 15.9993 3.74435 16.0397C3.78447 16.0802 3.83888 16.1029 3.89561 16.1029H13.4015C13.4304 16.1036 13.4592 16.0984 13.4861 16.0876C13.513 16.0767 13.5375 16.0605 13.5579 16.0398C13.5784 16.0191 13.5945 15.9945 13.6053 15.9674C13.616 15.9402 13.6212 15.9112 13.6205 15.882V14.9533C13.6205 14.8961 13.598 14.8412 13.5579 14.8008C13.5178 14.7603 13.4634 14.7376 13.4066 14.7376H12.7307V13.7761C12.7153 12.4729 12.3183 11.4856 11.5174 10.7589L10.1638 9.51092C10.0718 9.44306 9.99507 9.35628 9.93873 9.2563C9.88239 9.15633 9.84771 9.04543 9.837 8.93094C9.84641 8.81909 9.87918 8.71051 9.93315 8.61234C9.98712 8.51416 10.0611 8.42862 10.1502 8.36133ZM9.40919 8.93267C9.4185 9.10761 9.46504 9.27848 9.54566 9.43365C9.62627 9.58883 9.73905 9.72468 9.87635 9.83197L11.2248 11.0782C11.9435 11.7307 12.2841 12.5903 12.2977 13.7796V14.7324H4.99422V13.7813C5.00962 12.5903 5.35015 11.7307 6.06887 11.0782L7.42074 9.8337C7.55902 9.72552 7.67261 9.58861 7.7538 9.43225C7.835 9.27589 7.8819 9.10375 7.89133 8.92749C7.88268 8.75661 7.83753 8.58964 7.75897 8.438C7.6804 8.28635 7.57028 8.15363 7.43614 8.0489L6.58053 7.2618L6.06716 6.78884C5.35015 6.13637 5.00962 5.27677 4.99422 4.08748V2.98449H12.3029V4.07885C12.2892 5.26986 11.9487 6.12947 11.2299 6.78194C11.0811 6.91657 10.9339 7.05294 10.785 7.19102L9.85582 8.0489C9.72361 8.15594 9.61544 8.29007 9.53845 8.44242C9.46145 8.59477 9.4174 8.76187 9.40919 8.93267Z" fill="#D9EBF7"/>
<path d="M11.466 5.80474C11.4891 5.76455 11.4985 5.7179 11.493 5.67182C11.4874 5.62574 11.4671 5.58273 11.4352 5.54928C11.4039 5.51504 11.3623 5.49223 11.3168 5.48443C11.2712 5.47662 11.2244 5.48425 11.1837 5.50613C10.3401 5.93938 10.0235 6.10163 8.71438 5.67874C7.8753 5.40298 6.96304 5.46482 6.16807 5.85135C6.13907 5.86519 6.11352 5.88544 6.09333 5.91059C6.07313 5.93575 6.05881 5.96516 6.05141 5.99666C6.04402 6.02815 6.04374 6.06092 6.05061 6.09254C6.05747 6.12416 6.0713 6.15381 6.09107 6.17931C6.17321 6.2777 8.03503 8.07803 8.05214 8.07803C8.19016 8.23796 8.27407 8.43809 8.29171 8.64937C8.30286 8.73728 8.34711 8.81749 8.41528 8.8734C8.48345 8.92931 8.57032 8.95664 8.65791 8.94972C8.69907 8.95375 8.74061 8.94953 8.78014 8.93729C8.81967 8.92504 8.85641 8.90502 8.88823 8.87838C8.92005 8.85174 8.94632 8.81901 8.96553 8.78208C8.98474 8.74514 8.99651 8.70473 9.00016 8.66318C9.03309 8.38748 9.16745 8.13429 9.37663 7.95375C9.40572 7.92786 9.52551 7.81221 9.68807 7.65513C10.0885 7.26849 10.7559 6.61947 10.939 6.45721C11.1482 6.26962 11.3262 6.04932 11.466 5.80474Z" fill="#E4F4FF"/>
<path d="M5.7027 14.042C5.702 14.0711 5.70714 14.1 5.71779 14.127C5.72844 14.154 5.7444 14.1786 5.7647 14.1992C5.78499 14.2199 5.80922 14.2361 5.83591 14.2471C5.8626 14.2581 5.89121 14.2635 5.92003 14.263H11.3806C11.4373 14.263 11.4917 14.2403 11.5318 14.1998C11.5719 14.1593 11.5945 14.1044 11.5945 14.0472C11.5759 13.2715 11.2574 12.5339 10.707 11.9919C10.1565 11.4499 9.41781 11.1465 8.64858 11.1465C7.87935 11.1465 7.14062 11.4499 6.59018 11.9919C6.03974 12.5339 5.72123 13.2715 5.7027 14.0472V14.042Z" fill="#E4F4FF"/>
</g>
<defs>
<clipPath id="clip0_1076_209313">
<rect width="16" height="16.1391" fill="white" transform="translate(0.615234 0.798828)"/>
</clipPath>
</defs>
</svg>
