<svg width="22" height="23" viewBox="0 0 22 23" fill="none" xmlns="http://www.w3.org/2000/svg">
<g id="mail 1">
<path id="Vector" fill-rule="evenodd" clip-rule="evenodd" d="M17.98 14.6494C17.98 16.103 16.7934 17.2835 15.3365 17.2835H6.66355C5.20665 17.2835 4.02001 16.103 4.02001 14.6494V9.15052C4.02001 8.66539 4.15331 8.20974 4.3847 7.81868L8.61655 12.0355C9.24967 12.6682 10.0975 13.0169 11.0009 13.0169C11.9025 13.0169 12.7503 12.6682 13.3834 12.0355L17.6153 7.81868C17.8467 8.20974 17.98 8.66535 17.98 9.15052V14.6494H17.98ZM15.3364 6.51639H6.66355C6.06191 6.51639 5.50653 6.71928 5.06225 7.05686L9.33668 11.318C9.77914 11.757 10.3696 12.0005 11.0009 12.0005C11.6303 12.0005 12.2209 11.757 12.6633 11.318L16.9377 7.05686C16.4935 6.71928 15.9381 6.51639 15.3364 6.51639ZM15.3364 5.5H6.66355C4.64388 5.5 3 7.13805 3 9.15055V14.6494C3 16.6638 4.64388 18.3 6.66355 18.3H15.3364C17.3561 18.3 19 16.6638 19 14.6494V9.15052C19 7.13801 17.3561 5.5 15.3364 5.5Z" fill="#606770"/>
</g>
</svg>
