<svg width="17" height="17" viewBox="0 0 17 17" fill="none" xmlns="http://www.w3.org/2000/svg">
<g id="correct (1) 1" clip-path="url(#clip0_1200_39114)">
<g id="Group">
<path id="Vector" fill-rule="evenodd" clip-rule="evenodd" d="M8.698 0.478516C4.2855 0.478516 0.697998 4.06602 0.697998 8.47852C0.697998 12.891 4.2855 16.4785 8.698 16.4785C13.1105 16.4785 16.698 12.891 16.698 8.47852C16.698 4.06602 13.1105 0.478516 8.698 0.478516Z" fill="#4BAE4F"/>
<path id="Vector_2" fill-rule="evenodd" clip-rule="evenodd" d="M12.5668 5.78242C12.7605 5.97617 12.7605 6.29492 12.5668 6.48867L7.87927 11.1762C7.7824 11.273 7.65427 11.323 7.52615 11.323C7.39802 11.323 7.2699 11.273 7.17302 11.1762L4.82927 8.83242C4.63552 8.63867 4.63552 8.31992 4.82927 8.12617C5.02302 7.93242 5.34177 7.93242 5.53552 8.12617L7.52615 10.1168L11.8605 5.78242C12.0543 5.58555 12.373 5.58555 12.5668 5.78242Z" fill="white"/>
</g>
</g>
<defs>
<clipPath id="clip0_1200_39114">
<rect width="16" height="16" fill="white" transform="translate(0.697998 0.478516)"/>
</clipPath>
</defs>
</svg>
