<svg width="35" height="35" viewBox="0 0 35 35" fill="none" xmlns="http://www.w3.org/2000/svg">
<circle cx="17.0112" cy="17.0215" r="16.5" fill="white" stroke="#DFE5EB"/>
<path d="M19.0575 17.2567C19.0575 18.4194 18.115 19.3619 16.9523 19.3619C15.7896 19.3619 14.847 18.4194 14.847 17.2567C14.847 16.094 15.7896 15.1514 16.9523 15.1514C18.115 15.1514 19.0575 16.094 19.0575 17.2567Z" fill="#87AAC1"/>
<path fill-rule="evenodd" clip-rule="evenodd" d="M21.5923 10.7051H12.4302C11.5242 10.7029 10.6545 11.0612 10.0131 11.701C9.37171 12.3409 9.01123 13.2096 9.01123 14.1156V19.9261C9.01123 20.8321 9.37171 21.7009 10.0131 22.3407C10.6545 22.9806 11.5242 23.3389 12.4302 23.3367H21.5923C22.4983 23.3389 23.3679 22.9806 24.0093 22.3407C24.6508 21.7009 25.0112 20.8321 25.0112 19.9261V14.1156C25.0112 13.2096 24.6508 12.3409 24.0093 11.701C23.3679 11.0612 22.4983 10.7029 21.5923 10.7051ZM16.9523 20.6251C15.092 20.6251 13.5839 19.117 13.5839 17.2567C13.5839 15.3963 15.092 13.8882 16.9523 13.8882C18.8126 13.8882 20.3207 15.3963 20.3207 17.2567C20.3207 18.15 19.9658 19.0068 19.3341 19.6385C18.7024 20.2702 17.8456 20.6251 16.9523 20.6251ZM21.5839 14.7304C21.8164 14.7304 22.0049 14.5418 22.0049 14.3093V13.4672C22.0049 13.2347 21.8164 13.0461 21.5839 13.0461H20.7418C20.5092 13.0461 20.3207 13.2347 20.3207 13.4672V14.3093C20.3207 14.5418 20.5092 14.7304 20.7418 14.7304H21.5839Z" fill="#87AAC1"/>
</svg>
