<svg width="20" height="21" viewBox="0 0 20 21" fill="none" xmlns="http://www.w3.org/2000/svg">
<g id="pdf (2) 1" clip-path="url(#clip0_1055_98744)">
<g id="layer1">
<path id="path7475-3" d="M17.4806 6.37651L17.4806 17.8297C17.4806 18.1621 17.4133 18.4912 17.2824 18.7983C17.1516 19.1054 16.9598 19.3844 16.718 19.6194C16.4763 19.8544 16.1893 20.0409 15.8734 20.1681C15.5575 20.2953 15.219 20.3607 14.8771 20.3607H5.12257C4.78067 20.3607 4.44212 20.2953 4.12624 20.1681C3.81037 20.0409 3.52336 19.8544 3.2816 19.6194C3.03984 19.3844 2.84806 19.1054 2.71722 18.7983C2.58638 18.4912 2.51904 18.1621 2.51904 17.8297V2.89237C2.51904 2.55998 2.58639 2.23086 2.71723 1.92378C2.84806 1.6167 3.03984 1.33768 3.2816 1.10265C3.52336 0.86762 3.81037 0.681186 4.12624 0.55399C4.44212 0.426794 4.78067 0.361327 5.12257 0.361328L11.3239 0.361348L17.4806 6.37651Z" fill="#87AAC1"/>
<path id="path6360-9" d="M11.5948 0.625977C11.0955 1.9111 9.94015 3.88136 11.1052 5.53745C11.4079 5.99678 13.2517 6.70685 14.4089 7.11659C15.1475 7.37813 15.7551 8.20256 15.7551 8.98766L15.8519 16.6325C15.8519 18.0303 14.6871 19.1629 13.2492 19.1629H3.49472C3.27778 19.1629 3.06721 19.1363 2.86572 19.0877C3.32904 19.8748 4.19007 20.3607 5.12287 20.3616H14.8773C16.3158 20.362 17.482 19.2282 17.4815 17.8297V6.37626L11.5948 0.625977Z" fill="#87AAC1"/>
<path id="path7319-7" d="M11.3243 0.361328L10.5153 3.52313C10.4615 3.73345 10.4528 3.95237 10.4898 4.16612C10.5269 4.37987 10.6088 4.58382 10.7305 4.76512C10.8521 4.94641 11.0109 5.10114 11.1967 5.21954C11.3826 5.33795 11.5916 5.41748 11.8104 5.45312L17.481 6.37649L11.3243 0.361328Z" fill="#CDE4F3"/>
<path id="path395410" d="M10.0153 8.32031C9.58438 8.32647 9.28455 8.60056 9.13905 8.76422C8.80163 9.14376 8.78619 9.66398 8.89902 10.1683C9.01185 10.6725 9.25348 11.2093 9.54826 11.753C9.58134 11.8141 9.61798 11.8553 9.65237 11.9164C9.0596 12.9952 8.24422 14.1696 7.53258 15.1062C6.60865 15.3259 5.72434 15.4336 5.19301 16.0316C4.74813 16.533 4.71721 17.2947 5.19301 17.7379C5.39999 17.9196 5.68956 18.0116 5.94203 18.0155C6.17913 18.0128 6.38148 17.9453 6.54355 17.8463C7.16471 17.4671 7.5692 16.6618 8.01699 15.7309L11.6478 14.885C12.1925 15.5602 12.7594 16.2221 13.435 16.4307C13.7483 16.5275 14.079 16.516 14.3749 16.409C14.6707 16.3021 14.9472 16.0904 15.0733 15.7642C15.2933 15.1714 15.0507 14.5147 14.4833 14.2183C14.0429 13.9806 13.494 13.9401 12.8826 13.9667C12.5703 13.9802 12.2402 14.0136 11.9052 14.0621C11.5092 13.4586 10.9762 12.6611 10.5113 11.8845C10.784 11.3432 11.0208 10.8104 11.1229 10.3214C11.2369 9.77541 11.2141 9.23764 10.9046 8.82337C10.6825 8.47246 10.3437 8.3226 10.0153 8.32031ZM10.3132 9.25585C10.4479 9.42965 10.4936 9.72634 10.4014 10.1683C10.3501 10.4138 10.1766 10.7434 10.0515 11.0431C9.87192 10.6732 9.6838 10.294 9.61911 10.0049C9.53229 9.61683 9.59194 9.4017 9.69141 9.25585C9.76128 9.14172 9.856 9.07178 9.99181 9.06394C10.1349 9.05595 10.2297 9.14823 10.3132 9.25585ZM10.089 12.6004C10.437 13.1547 10.8074 13.7314 11.1099 14.1996L8.68068 14.7896C9.17066 14.0463 9.68476 13.2878 10.089 12.6004ZM14.1291 14.8676C14.3962 15.0117 14.4765 15.2401 14.3792 15.4966C14.2878 15.733 13.8475 15.7966 13.6533 15.7265C13.3897 15.6451 12.9648 15.1564 12.5761 14.7534C12.6836 14.7268 12.8143 14.7086 12.9159 14.7042C13.3068 14.687 13.7644 14.6963 14.1291 14.8676ZM6.87033 16.13C6.61326 16.5479 6.32372 17.1155 6.15458 17.2188C5.98733 17.3338 5.79425 17.2909 5.6962 17.1913C5.56069 17.0606 5.53734 16.7657 5.75115 16.5247C5.96904 16.3151 6.28035 16.2274 6.87033 16.13Z" fill="white"/>
</g>
</g>
<defs>
<clipPath id="clip0_1055_98744">
<rect width="20" height="20" fill="white" transform="translate(0 0.361328)"/>
</clipPath>
</defs>
</svg>
