<svg width="15" height="15" viewBox="0 0 15 15" fill="none" xmlns="http://www.w3.org/2000/svg">
<g clip-path="url(#clip0_5353_35201)">
<path d="M14.0952 12.8401C13.8631 13.2425 13.4468 13.4828 12.982 13.4828H1.557C1.09226 13.4828 0.676174 13.2425 0.443807 12.8401C0.211439 12.4377 0.211439 11.9571 0.443807 11.5547L6.15633 1.65999C6.38869 1.25757 6.80478 1.01727 7.26952 1.01727C7.73425 1.01727 8.15034 1.25757 8.38271 1.65999L14.0952 11.5547C14.3276 11.9571 14.3276 12.4377 14.0952 12.8401Z" fill="#FFDA2D"/>
<path d="M14.0952 12.8401C13.8631 13.2425 13.4468 13.4828 12.9821 13.4828H7.26953V1.01727C7.73427 1.01727 8.15036 1.25757 8.38272 1.65999L14.0952 11.5547C14.3276 11.9571 14.3276 12.4377 14.0952 12.8401Z" fill="#FFBE40"/>
<path d="M7.26964 9.61435C6.93006 9.61435 6.65527 9.33956 6.65527 8.99998V6.5425C6.65527 6.20292 6.93006 5.92813 7.26964 5.92813C7.60923 5.92813 7.88401 6.20292 7.88401 6.5425V8.99998C7.88401 9.33956 7.60923 9.61435 7.26964 9.61435Z" fill="#4D4D80"/>
<path d="M7.26964 12.0719C7.60895 12.0719 7.88401 11.7968 7.88401 11.4575C7.88401 11.1182 7.60895 10.8431 7.26964 10.8431C6.93034 10.8431 6.65527 11.1182 6.65527 11.4575C6.65527 11.7968 6.93034 12.0719 7.26964 12.0719Z" fill="#4D4D80"/>
<path d="M7.8839 11.4576C7.8839 11.1183 7.60883 10.8432 7.26953 10.8432V12.072C7.60883 12.072 7.8839 11.7969 7.8839 11.4576Z" fill="#443D66"/>
<path d="M7.8839 9.00007V6.54259C7.8839 6.20301 7.60911 5.92822 7.26953 5.92822V9.61444C7.60911 9.61444 7.8839 9.33965 7.8839 9.00007Z" fill="#443D66"/>
</g>
<defs>
<clipPath id="clip0_5353_35201">
<rect width="14" height="14" fill="white" transform="translate(0.269531 0.250031)"/>
</clipPath>
</defs>
</svg>
