<svg width="22" height="22" viewBox="0 0 22 22" fill="none" xmlns="http://www.w3.org/2000/svg">
<path fill-rule="evenodd" clip-rule="evenodd" d="M5.49992 3.66663H16.4999C18.525 3.66663 20.1666 5.30825 20.1666 7.33329V15.5833C20.1666 17.6083 18.525 19.25 16.4999 19.25H5.49992C3.47487 19.25 1.83325 17.6083 1.83325 15.5833V7.33329C1.83325 5.30825 3.47487 3.66663 5.49992 3.66663ZM12.2833 12.4208L18.0949 8.11246C18.3543 7.92178 18.4115 7.55772 18.2233 7.29663C18.1335 7.17197 17.9971 7.08896 17.8451 7.06651C17.6931 7.04406 17.5386 7.08408 17.4166 7.17746L11.5408 11.4583C11.3937 11.6124 11.19 11.6996 10.977 11.6996C10.764 11.6996 10.5603 11.6124 10.4132 11.4583L4.58325 7.17746C4.46187 7.08702 4.30942 7.04874 4.15971 7.07111C4.01 7.09349 3.8754 7.17465 3.78575 7.29663C3.59547 7.55535 3.64859 7.91897 3.90492 8.11246L9.67992 12.375C10.0393 12.7159 10.5138 12.9089 11.0091 12.9158C11.4807 12.9157 11.9352 12.7391 12.2833 12.4208Z" fill="#87AAC1"/>
</svg>
