<svg width="12" height="11" viewBox="0 0 12 11" fill="none" xmlns="http://www.w3.org/2000/svg">
<g clip-path="url(#clip0_4075_33056)">
<path d="M11.1264 1.64488C9.52569 1.64488 7.41964 1.10475 6.66895 0.104053C6.56908 -0.0175512 6.38957 -0.0350912 6.26796 0.0647773C6.25361 0.0765266 6.24044 0.0897025 6.22869 0.104053C5.47791 1.10467 3.37186 1.64488 1.77128 1.64488C1.61929 1.64488 1.49609 1.76808 1.49609 1.92007V5.49695C1.49609 8.52255 4.12347 10.3465 6.37329 10.9892C6.42263 11.0036 6.475 11.0036 6.52435 10.9892C8.77416 10.3465 11.4015 8.52255 11.4015 5.49695V1.92007C11.4015 1.76808 11.2783 1.64488 11.1264 1.64488ZM10.8512 5.49695C10.8512 8.18291 8.49738 9.82948 6.44882 10.4384C4.40025 9.82948 2.04638 8.18291 2.04638 5.49695V2.19038C3.6368 2.13659 5.51752 1.6239 6.44882 0.687235C7.3802 1.6239 9.26083 2.13659 10.8513 2.1903L10.8512 5.49695Z" fill="white"/>
<path fill-rule="evenodd" clip-rule="evenodd" d="M6.82889 -0.0159498L6.82874 -0.0158338C7.16621 0.434034 7.83144 0.803122 8.63916 1.05921C9.43951 1.31297 10.3458 1.44501 11.1262 1.44501C11.3886 1.44501 11.6013 1.65775 11.6013 1.9202V5.49708C11.6013 8.65741 8.86129 10.5297 6.57909 11.1817C6.49368 11.2063 6.40308 11.2063 6.3177 11.1815C4.03559 10.5295 1.2959 8.6572 1.2959 5.49708V1.9202C1.2959 1.65775 1.50864 1.44501 1.77108 1.44501C2.55142 1.44501 3.45766 1.31295 4.25802 1.05918C5.06574 0.803081 5.73099 0.43399 6.06851 -0.0158488L6.0736 -0.0226271L6.07374 -0.0225134C6.09382 -0.0470443 6.11632 -0.0695524 6.14083 -0.0896509C6.14091 -0.0897153 6.14099 -0.0897795 6.14107 -0.0898438L6.26777 0.0649074C6.38937 -0.0349611 6.56888 -0.0174211 6.66875 0.104183C7.41944 1.10488 9.52549 1.64501 11.1262 1.64501C11.2781 1.64501 11.4013 1.76821 11.4013 1.9202V5.49708C11.4013 8.52268 8.77396 10.3467 6.52415 10.9893C6.47481 11.0037 6.42244 11.0037 6.37309 10.9893C4.12328 10.3467 1.4959 8.52268 1.4959 5.49708V1.9202C1.4959 1.76821 1.6191 1.64501 1.77108 1.64501C3.37166 1.64501 5.47771 1.1048 6.22849 0.104183C6.24024 0.0898326 6.25342 0.0766566 6.26777 0.0649074M6.44862 10.2297C8.45243 9.61659 10.651 8.02401 10.651 5.49708L10.6511 2.38166C9.89272 2.33942 9.08232 2.19808 8.3416 1.96044C7.61358 1.72688 6.93879 1.39576 6.44863 0.962035C5.95849 1.39576 5.2837 1.72688 4.55568 1.96045C3.81494 2.19811 3.00452 2.33945 2.24618 2.38173V5.49708C2.24618 8.024 4.44481 9.61659 6.44862 10.2297ZM6.44862 10.4386C4.40006 9.82961 2.04618 8.18304 2.04618 5.49708V2.19051C3.62423 2.13714 5.48806 1.63199 6.4267 0.709165C6.43406 0.701924 6.44137 0.694658 6.44862 0.687365C6.45588 0.69466 6.46319 0.70193 6.47056 0.709173C7.40928 1.63199 9.27302 2.13714 10.8511 2.19043L10.851 5.49708C10.851 8.18304 8.49718 9.82961 6.44862 10.4386Z" fill="white"/>
<path d="M5.34822 4.39647V4.94675H5.07304C4.92105 4.94675 4.79785 5.06995 4.79785 5.22193V7.42307C4.79785 7.57505 4.92105 7.69825 5.07304 7.69825H7.82454C7.97652 7.69825 8.09972 7.57505 8.09972 7.42307V5.22193C8.09972 5.06995 7.97652 4.94675 7.82454 4.94675H7.54936V4.39647C7.54936 3.78861 7.05664 3.2959 6.44879 3.2959C5.84093 3.2959 5.34822 3.78861 5.34822 4.39647ZM7.54936 7.14797H5.34822V5.49703H7.54936V7.14797ZM6.99907 4.39647V4.94675H5.8985V4.39647C5.8985 4.09258 6.14482 3.84618 6.44879 3.84618C6.75267 3.84618 6.99907 4.09258 6.99907 4.39647Z" fill="white"/>
</g>
<defs>
<clipPath id="clip0_4075_33056">
<rect width="11" height="11" fill="white" transform="translate(0.958984)"/>
</clipPath>
</defs>
</svg>
