<svg width="22" height="22" viewBox="0 0 22 22" fill="none" xmlns="http://www.w3.org/2000/svg">
<path d="M11.0001 10.9481C10.322 10.9481 9.65912 10.747 9.09529 10.3703C8.53147 9.99353 8.09202 9.45806 7.83252 8.83157C7.57302 8.20508 7.50512 7.51571 7.63741 6.85063C7.76971 6.18556 8.09625 5.57464 8.57574 5.09515C9.05524 4.61566 9.66615 4.28912 10.3312 4.15682C10.9963 4.02453 11.6857 4.09243 12.3122 4.35193C12.9387 4.61143 13.4741 5.05088 13.8509 5.6147C14.2276 6.17853 14.4287 6.84141 14.4287 7.51952C14.4277 8.42852 14.0661 9.3 13.4234 9.94277C12.7806 10.5855 11.9091 10.9471 11.0001 10.9481ZM11.0001 5.04333C10.5104 5.04333 10.0316 5.18855 9.62441 5.46064C9.2172 5.73273 8.89982 6.11945 8.7124 6.57192C8.52499 7.02438 8.47595 7.52226 8.5715 8.0026C8.66704 8.48293 8.90287 8.92415 9.24918 9.27045C9.59548 9.61675 10.0367 9.85258 10.517 9.94813C10.9974 10.0437 11.4952 9.99463 11.9477 9.80722C12.4002 9.6198 12.7869 9.30242 13.059 8.89521C13.3311 8.48801 13.4763 8.00926 13.4763 7.51952C13.4755 6.86302 13.2144 6.23363 12.7502 5.76942C12.286 5.30521 11.6566 5.04408 11.0001 5.04333Z" fill="#606770"/>
<path d="M16.9525 17.9091C16.8262 17.9091 16.7051 17.8589 16.6158 17.7696C16.5265 17.6803 16.4763 17.5592 16.4763 17.4329V16.2557C16.4753 15.3515 16.1156 14.4847 15.4763 13.8453C14.8369 13.2059 13.97 12.8463 13.0658 12.8453H8.93439C8.03018 12.8463 7.1633 13.2059 6.52393 13.8453C5.88456 14.4847 5.52492 15.3515 5.52391 16.2557V17.4329C5.52391 17.5592 5.47374 17.6803 5.38444 17.7696C5.29514 17.8589 5.17402 17.9091 5.04772 17.9091C4.92143 17.9091 4.80031 17.8589 4.71101 17.7696C4.6217 17.6803 4.57153 17.5592 4.57153 17.4329V16.2557C4.57292 15.0991 5.03302 13.9902 5.85092 13.1723C6.66881 12.3544 7.77771 11.8943 8.93439 11.8929H13.0653C14.2221 11.8941 15.3311 12.3542 16.1491 13.1721C16.9671 13.99 17.4273 15.099 17.4287 16.2557V17.4329C17.4287 17.5592 17.3785 17.6803 17.2892 17.7696C17.1999 17.8589 17.0788 17.9091 16.9525 17.9091Z" fill="#606770"/>
</svg>
