<svg width="32" height="32" viewBox="0 0 32 32" fill="none" xmlns="http://www.w3.org/2000/svg">
<g filter="url(#filter0_d_829_29322)">
<path d="M16 28C22.6274 28 28 22.6274 28 16C28 9.37258 22.6274 4 16 4C9.37258 4 4 9.37258 4 16C4 22.6274 9.37258 28 16 28Z" fill="#1C1E21"/>
</g>
<g filter="url(#filter1_d_829_29322)">
<path fill-rule="evenodd" clip-rule="evenodd" d="M16 26.8C21.9647 26.8 26.8 21.9647 26.8 16C26.8 10.0353 21.9647 5.2 16 5.2C10.0353 5.2 5.2 10.0353 5.2 16C5.2 21.9647 10.0353 26.8 16 26.8ZM28 16C28 22.6274 22.6274 28 16 28C9.37258 28 4 22.6274 4 16C4 9.37258 9.37258 4 16 4C22.6274 4 28 9.37258 28 16Z" fill="white"/>
</g>
<path d="M21.1492 15.4147L13.4303 11.2044C12.986 10.9621 12.4443 11.2836 12.4443 11.7897V20.2103C12.4443 20.7164 12.986 21.0379 13.4303 20.7956L21.1492 16.5853C21.6124 16.3326 21.6124 15.6674 21.1492 15.4147Z" fill="white"/>
<path d="M14.2036 16.9749V11.6262L13.4302 11.2044C12.986 10.9621 12.4443 11.2836 12.4443 11.7897V20.2103C12.4443 20.7163 12.986 21.0379 13.4302 20.7956L21.1491 16.5852C21.3816 16.4584 21.4971 16.2278 21.4962 15.9975L15.3459 17.8269C14.776 17.9964 14.2036 17.5695 14.2036 16.9749Z" fill="#E4EAF8"/>
<defs>
<filter id="filter0_d_829_29322" x="0" y="0" width="32" height="32" filterUnits="userSpaceOnUse" color-interpolation-filters="sRGB">
<feFlood flood-opacity="0" result="BackgroundImageFix"/>
<feColorMatrix in="SourceAlpha" type="matrix" values="0 0 0 0 0 0 0 0 0 0 0 0 0 0 0 0 0 0 127 0" result="hardAlpha"/>
<feOffset/>
<feGaussianBlur stdDeviation="2"/>
<feComposite in2="hardAlpha" operator="out"/>
<feColorMatrix type="matrix" values="0 0 0 0 0 0 0 0 0 0 0 0 0 0 0 0 0 0 0.3 0"/>
<feBlend mode="normal" in2="BackgroundImageFix" result="effect1_dropShadow_829_29322"/>
<feBlend mode="normal" in="SourceGraphic" in2="effect1_dropShadow_829_29322" result="shape"/>
</filter>
<filter id="filter1_d_829_29322" x="0" y="0" width="32" height="32" filterUnits="userSpaceOnUse" color-interpolation-filters="sRGB">
<feFlood flood-opacity="0" result="BackgroundImageFix"/>
<feColorMatrix in="SourceAlpha" type="matrix" values="0 0 0 0 0 0 0 0 0 0 0 0 0 0 0 0 0 0 127 0" result="hardAlpha"/>
<feOffset/>
<feGaussianBlur stdDeviation="2"/>
<feComposite in2="hardAlpha" operator="out"/>
<feColorMatrix type="matrix" values="0 0 0 0 0 0 0 0 0 0 0 0 0 0 0 0 0 0 0.3 0"/>
<feBlend mode="normal" in2="BackgroundImageFix" result="effect1_dropShadow_829_29322"/>
<feBlend mode="normal" in="SourceGraphic" in2="effect1_dropShadow_829_29322" result="shape"/>
</filter>
</defs>
</svg>
