<svg width="40" height="41" viewBox="0 0 40 41" fill="none" xmlns="http://www.w3.org/2000/svg">
<circle cx="20" cy="20.5962" r="19.5" fill="white" stroke="#DFE5EB"/>
<mask id="mask0_1781_44194" style="mask-type:alpha" maskUnits="userSpaceOnUse" x="9" y="9" width="21" height="22">
<rect x="9" y="9.59619" width="21" height="21" fill="#D9D9D9"/>
</mask>
<g mask="url(#mask0_1781_44194)">
<path d="M24.751 28.6274C24.0828 28.6274 23.5146 28.3935 23.0463 27.9256C22.5779 27.4577 22.3438 26.8896 22.3438 26.2212C22.3438 26.1119 22.3524 25.9988 22.3698 25.8818C22.3872 25.7648 22.4133 25.6569 22.4481 25.5582L15.9764 21.7688C15.7453 21.9987 15.4823 22.1785 15.1872 22.3081C14.8922 22.4376 14.5798 22.5024 14.25 22.5024C13.5816 22.5024 13.0134 22.2686 12.5456 21.8009C12.0777 21.3332 11.8438 20.7653 11.8438 20.0972C11.8438 19.429 12.0777 18.8608 12.5456 18.3925C13.0134 17.9241 13.5816 17.6899 14.25 17.6899C14.5798 17.6899 14.8922 17.7547 15.1872 17.8843C15.4823 18.0139 15.7453 18.1936 15.9764 18.4236L22.4481 14.6342C22.4133 14.5354 22.3872 14.4276 22.3698 14.3105C22.3524 14.1935 22.3438 14.0804 22.3438 13.9712C22.3438 13.3028 22.5776 12.7346 23.0453 12.2668C23.513 11.7989 24.0809 11.5649 24.749 11.5649C25.4171 11.5649 25.9853 11.7988 26.4537 12.2665C26.922 12.7342 27.1562 13.3021 27.1562 13.9702C27.1562 14.6383 26.9223 15.2065 26.4544 15.6749C25.9865 16.1432 25.4184 16.3774 24.75 16.3774C24.4202 16.3774 24.1078 16.3126 23.8127 16.1831C23.5177 16.0535 23.2546 15.8737 23.0235 15.6438L16.5519 19.4332C16.5867 19.5319 16.6127 19.6396 16.6301 19.7562C16.6475 19.8728 16.6562 19.9856 16.6562 20.0944C16.6562 20.2033 16.6475 20.3166 16.6301 20.4344C16.6127 20.5522 16.5867 20.6604 16.5519 20.7592L23.0235 24.5486C23.2546 24.3186 23.5177 24.1389 23.8127 24.0093C24.1078 23.8797 24.4202 23.8149 24.75 23.8149C25.4184 23.8149 25.9865 24.0488 26.4544 24.5165C26.9223 24.9842 27.1562 25.5521 27.1562 26.2202C27.1562 26.8883 26.9224 27.4565 26.4547 27.9249C25.987 28.3932 25.4191 28.6274 24.751 28.6274ZM24.75 15.0649C25.054 15.0649 25.3123 14.9586 25.5249 14.746C25.7375 14.5335 25.8438 14.2752 25.8438 13.9711C25.8438 13.6671 25.7375 13.4088 25.5249 13.1962C25.3123 12.9837 25.054 12.8774 24.75 12.8774C24.446 12.8774 24.1877 12.9837 23.9751 13.1963C23.7625 13.4089 23.6562 13.6672 23.6562 13.9712C23.6562 14.2752 23.7625 14.5335 23.9751 14.7461C24.1877 14.9587 24.446 15.0649 24.75 15.0649ZM14.25 21.1899C14.554 21.1899 14.8123 21.0836 15.0249 20.871C15.2375 20.6585 15.3438 20.4002 15.3438 20.0961C15.3438 19.7921 15.2375 19.5338 15.0249 19.3212C14.8123 19.1087 14.554 19.0024 14.25 19.0024C13.946 19.0024 13.6877 19.1087 13.4751 19.3213C13.2625 19.5339 13.1562 19.7922 13.1562 20.0962C13.1562 20.4002 13.2625 20.6585 13.4751 20.8711C13.6877 21.0837 13.946 21.1899 14.25 21.1899ZM24.75 27.3149C25.054 27.3149 25.3123 27.2086 25.5249 26.996C25.7375 26.7835 25.8438 26.5252 25.8438 26.2212C25.8438 25.9171 25.7375 25.6588 25.5249 25.4462C25.3123 25.2337 25.054 25.1274 24.75 25.1274C24.446 25.1274 24.1877 25.2337 23.9751 25.4463C23.7625 25.6589 23.6562 25.9172 23.6562 26.2212C23.6562 26.5252 23.7625 26.7835 23.9751 26.9961C24.1877 27.2087 24.446 27.3149 24.75 27.3149Z" fill="#1C1E21"/>
</g>
</svg>
