<svg width="22" height="22" viewBox="0 0 22 22" fill="none" xmlns="http://www.w3.org/2000/svg">
<path fill-rule="evenodd" clip-rule="evenodd" d="M17.98 14.1494C17.98 15.603 16.7934 16.7835 15.3365 16.7835H6.66355C5.20665 16.7835 4.02001 15.603 4.02001 14.1494V8.65052C4.02001 8.16539 4.15331 7.70974 4.3847 7.31868L8.61655 11.5355C9.24967 12.1682 10.0975 12.5169 11.0009 12.5169C11.9025 12.5169 12.7503 12.1682 13.3834 11.5355L17.6153 7.31868C17.8467 7.70974 17.98 8.16535 17.98 8.65052V14.1494H17.98ZM15.3364 6.01639H6.66355C6.06191 6.01639 5.50653 6.21928 5.06225 6.55686L9.33668 10.818C9.77914 11.257 10.3696 11.5005 11.0009 11.5005C11.6303 11.5005 12.2209 11.257 12.6633 10.818L16.9377 6.55686C16.4935 6.21928 15.9381 6.01639 15.3364 6.01639ZM15.3364 5H6.66355C4.64388 5 3 6.63805 3 8.65055V14.1494C3 16.1638 4.64388 17.8 6.66355 17.8H15.3364C17.3561 17.8 19 16.1638 19 14.1494V8.65052C19 6.63801 17.3561 5 15.3364 5Z" fill="#606770"/>
</svg>
