<svg width="28" height="32" viewBox="0 0 28 32" fill="none" xmlns="http://www.w3.org/2000/svg">
<g clip-path="url(#clip0_73_12847)">
<path d="M27.2405 16.6471H0.759905C0.444914 16.6471 0.19043 16.3561 0.19043 15.996C0.19043 15.6358 0.444914 15.3448 0.759905 15.3448H25.8649L22.4088 11.3932C22.1864 11.1388 22.1864 10.7258 22.4088 10.4714C22.6313 10.2171 22.9926 10.2171 23.215 10.4714L27.6445 15.5361C27.8082 15.7233 27.8562 16.0021 27.7673 16.2462C27.6783 16.4884 27.4701 16.6471 27.2405 16.6471Z" fill="white"/>
<path d="M22.8056 21.7179C22.6597 21.7179 22.5137 21.6548 22.4034 21.5266C22.181 21.2722 22.181 20.8592 22.4034 20.6048L26.8382 15.534C27.0606 15.2797 27.4219 15.2797 27.6444 15.534C27.8668 15.7884 27.8668 16.2015 27.6444 16.4558L23.2096 21.5266C23.0975 21.6548 22.9515 21.7179 22.8056 21.7179Z" fill="white"/>
</g>
<defs>
<clipPath id="clip0_73_12847">
<rect width="27.7619" height="31.7433" fill="white" transform="translate(0.119141 0.128418)"/>
</clipPath>
</defs>
</svg>
