<svg width="19" height="19" viewBox="0 0 19 19" fill="none" xmlns="http://www.w3.org/2000/svg">
<g id="learning 1" clip-path="url(#clip0_1161_128772)">
<g id="Icon">
<path id="Vector" fill-rule="evenodd" clip-rule="evenodd" d="M12.5693 15.793V16.8462C12.5693 17.1928 12.288 17.4741 11.9414 17.4741C11.5948 17.4741 11.3135 17.1928 11.3135 16.8462V15.7997H12.36C12.4303 15.7997 12.4998 15.7972 12.5693 15.793Z" fill="#87AAC1"/>
<path id="Vector_2" fill-rule="evenodd" clip-rule="evenodd" d="M11.3136 15.7999H5.66248C3.92862 15.7999 2.52295 14.3942 2.52295 12.6604V10.0801L7.30676 12.7231C8.34323 13.2958 9.67942 13.2958 10.7159 12.7231L11.3136 12.3933V15.7999ZM12.5695 11.6992L15.4997 10.0801V12.6604C15.4997 14.3239 14.2062 15.6852 12.5695 15.7932V11.6992Z" fill="#AECCE0"/>
<path id="Vector_3" fill-rule="evenodd" clip-rule="evenodd" d="M11.3136 11.4355L10.3106 11.9897C9.52025 12.4268 8.50221 12.4268 7.71188 11.9897L0.751324 8.14359C0.277463 7.88155 0.0112305 7.42275 0.0112305 6.94303C0.0112305 6.46248 0.277463 6.00368 0.751324 5.74248L7.71188 1.8955C8.50221 1.45931 9.52025 1.45931 10.3106 1.8955L17.2711 5.74248C17.745 6.00368 18.0112 6.46248 18.0112 6.94303C18.0112 7.42275 17.745 7.88155 17.2711 8.14359L12.5694 10.7415V10.1479C12.5694 9.98127 12.5032 9.82136 12.3852 9.70415L9.45495 6.77392C9.21049 6.52862 8.81197 6.52862 8.56751 6.77392C8.32221 7.01838 8.32221 7.41689 8.56751 7.66136L11.3136 10.4082V11.4355Z" fill="#87AAC1"/>
</g>
</g>
<defs>
<clipPath id="clip0_1161_128772">
<rect width="18" height="18" fill="white" transform="translate(0.0112305 0.521484)"/>
</clipPath>
</defs>
</svg>
