<svg width="81" height="32" viewBox="0 0 81 32" fill="none" xmlns="http://www.w3.org/2000/svg">
<path d="M63.1525 3.45991L62.2978 5.1734L60.3894 5.45138C60.3047 5.46338 60.2252 5.4989 60.1598 5.55388C60.0944 5.60886 60.0457 5.6811 60.0193 5.76238C59.993 5.84366 59.99 5.93071 60.0106 6.01363C60.0313 6.09654 60.0748 6.17198 60.1363 6.23137L61.5178 7.57976L61.1901 9.47995C61.1755 9.56424 61.1848 9.65094 61.2171 9.73017C61.2494 9.8094 61.3033 9.87796 61.3726 9.92803C61.4422 9.97854 61.5244 10.0088 61.6101 10.0154C61.6958 10.0219 61.7816 10.0046 61.858 9.96537L63.5632 9.06506L65.2726 9.96537C65.3485 10.0041 65.4337 10.0211 65.5187 10.0143C65.6037 10.0075 65.6851 9.97731 65.7539 9.92699C65.8227 9.87667 65.8762 9.80823 65.9084 9.7293C65.9407 9.65037 65.9503 9.56405 65.9364 9.47995L65.6128 7.57976L66.9902 6.23137C67.0524 6.17248 67.0963 6.09703 67.1169 6.01395C67.1375 5.93087 67.1338 5.84362 67.1064 5.76254C67.0805 5.68109 67.0321 5.60863 66.9668 5.55356C66.9014 5.49848 66.8218 5.46305 66.7372 5.45138L64.8287 5.1734L63.974 3.44332C63.9363 3.36556 63.8773 3.30011 63.8038 3.25457C63.7304 3.20903 63.6455 3.18529 63.5591 3.18609C63.4724 3.18882 63.3883 3.21596 63.3163 3.26441C63.2444 3.31285 63.1876 3.38062 63.1525 3.45991ZM64.8121 7.10679C64.7577 7.15983 64.7172 7.22538 64.694 7.29771C64.6709 7.37003 64.6658 7.44693 64.6793 7.52167L64.8867 8.76634L63.7914 8.18964C63.7272 8.15686 63.6561 8.13977 63.584 8.13977C63.5119 8.13977 63.4408 8.15686 63.3765 8.18964L62.2771 8.76634L62.4887 7.52167C62.5021 7.44693 62.4971 7.37003 62.4739 7.29771C62.4508 7.22538 62.4103 7.15983 62.3559 7.10679L61.4681 6.23967L62.7127 6.06126C62.7862 6.05151 62.8562 6.02366 62.9163 5.98021C62.9764 5.93677 63.0248 5.87908 63.0571 5.81233L63.6047 4.70043L64.1565 5.81233C64.1889 5.87908 64.2372 5.93677 64.2973 5.98021C64.3574 6.02366 64.4274 6.05151 64.5009 6.06126L65.7456 6.23967L64.8121 7.10679Z" fill="url(#paint0_linear_1781_44204)"/>
<path d="M40.5498 15.9069C40.5498 16.5503 40.7406 17.1792 41.098 17.7141C41.4554 18.249 41.9634 18.6659 42.5578 18.9121C43.1521 19.1583 43.8061 19.2227 44.4371 19.0972C45.0681 18.9717 45.6477 18.6619 46.1026 18.207C46.5575 17.7521 46.8673 17.1725 46.9928 16.5415C47.1183 15.9105 47.0539 15.2565 46.8077 14.6622C46.5615 14.0678 46.1446 13.5598 45.6097 13.2024C45.0747 12.845 44.4459 12.6542 43.8025 12.6542C42.9399 12.6542 42.1125 12.9969 41.5025 13.6069C40.8925 14.2169 40.5498 15.0443 40.5498 15.9069ZM41.5621 15.9069C41.5621 15.4638 41.6935 15.0307 41.9397 14.6622C42.1859 14.2938 42.5358 14.0067 42.9452 13.8371C43.3545 13.6675 43.805 13.6231 44.2396 13.7096C44.6742 13.796 45.0734 14.0094 45.3867 14.3227C45.7001 14.6361 45.9134 15.0353 45.9999 15.4699C46.0863 15.9045 46.042 16.3549 45.8724 16.7643C45.7028 17.1737 45.4157 17.5236 45.0472 17.7698C44.6788 18.0159 44.2456 18.1473 43.8025 18.1473C43.2083 18.1473 42.6385 17.9113 42.2183 17.4911C41.7982 17.071 41.5621 16.5011 41.5621 15.9069Z" fill="url(#paint1_linear_1781_44204)"/>
<path d="M16.2492 1.3151C16.3108 1.31499 16.3718 1.32703 16.4288 1.35053C16.4857 1.37402 16.5375 1.4085 16.5811 1.45201L20.3525 5.22335C20.396 5.26694 20.4306 5.31869 20.4542 5.37564C20.4778 5.43258 20.4899 5.49362 20.4899 5.55526C20.4899 5.6169 20.4778 5.67794 20.4542 5.73489C20.4306 5.79184 20.396 5.84359 20.3525 5.88717C20.3089 5.93076 20.2571 5.96534 20.2002 5.98893C20.1432 6.01252 20.0822 6.02466 20.0205 6.02466C19.9589 6.02466 19.8979 6.01252 19.8409 5.98893C19.784 5.96534 19.7322 5.93076 19.6886 5.88717L15.9173 2.11999C15.8522 2.05387 15.8079 1.97004 15.7901 1.87896C15.7722 1.78787 15.7816 1.69354 15.817 1.60774C15.8524 1.52193 15.9122 1.44843 15.9891 1.39639C16.0659 1.34436 16.1564 1.31609 16.2492 1.3151Z" fill="url(#paint2_linear_1781_44204)"/>
<path d="M20.021 1.3151C20.1138 1.31609 20.2043 1.34436 20.2811 1.39639C20.358 1.44843 20.4179 1.52193 20.4532 1.60774C20.4886 1.69354 20.498 1.78787 20.4801 1.87896C20.4623 1.97004 20.4181 2.05387 20.3529 2.11999L16.5816 5.88717C16.538 5.93076 16.4862 5.96534 16.4293 5.98893C16.3723 6.01252 16.3113 6.02466 16.2497 6.02466C16.188 6.02466 16.127 6.01252 16.07 5.98893C16.0131 5.96534 15.9614 5.93076 15.9178 5.88717C15.8742 5.84359 15.8396 5.79184 15.816 5.73489C15.7924 5.67794 15.7803 5.6169 15.7803 5.55526C15.7803 5.49362 15.7924 5.43258 15.816 5.37564C15.8396 5.31869 15.8742 5.26694 15.9178 5.22335L19.6891 1.45201C19.7327 1.4085 19.7845 1.37402 19.8414 1.35053C19.8984 1.32703 19.9594 1.31499 20.021 1.3151Z" fill="url(#paint3_linear_1781_44204)"/>
<path d="M7.44583 17.9437C7.59768 17.9437 7.7433 18.004 7.85068 18.1114C7.95805 18.2187 8.01838 18.3644 8.01838 18.5162V22.8435C8.00613 22.9875 7.9403 23.1216 7.83389 23.2194C7.72748 23.3171 7.58824 23.3713 7.44375 23.3713C7.29926 23.3713 7.16004 23.3171 7.05363 23.2194C6.94722 23.1216 6.88139 22.9875 6.86914 22.8435V18.5162C6.86914 18.4407 6.88408 18.3659 6.91311 18.2962C6.94215 18.2264 6.98469 18.1631 7.0383 18.1099C7.0919 18.0567 7.15551 18.0146 7.22546 17.9861C7.2954 17.9575 7.37029 17.9431 7.44583 17.9437Z" fill="url(#paint4_linear_1781_44204)"/>
<path d="M5.28075 20.1095H9.60804C9.75201 20.1218 9.88614 20.1876 9.98388 20.294C10.0816 20.4005 10.1359 20.5397 10.1359 20.6842C10.1359 20.8287 10.0816 20.9679 9.98388 21.0743C9.88614 21.1807 9.75201 21.2465 9.60804 21.2588H5.28075C5.13678 21.2465 5.00265 21.1807 4.9049 21.0743C4.80716 20.9679 4.75293 20.8287 4.75293 20.6842C4.75293 20.5397 4.80716 20.4005 4.9049 20.294C5.00265 20.1876 5.13678 20.1218 5.28075 20.1095Z" fill="url(#paint5_linear_1781_44204)"/>
<path d="M76.3665 11.443C76.5183 11.443 76.664 11.5033 76.7714 11.6107C76.8787 11.7181 76.939 11.8637 76.939 12.0156V15.3347C76.939 15.4865 76.8787 15.6322 76.7714 15.7395C76.664 15.8469 76.5183 15.9072 76.3665 15.9072C76.2146 15.9072 76.069 15.8469 75.9617 15.7395C75.8543 15.6322 75.7939 15.4865 75.7939 15.3347V12.0156C75.7939 11.8637 75.8543 11.7181 75.9617 11.6107C76.069 11.5033 76.2146 11.443 76.3665 11.443Z" fill="url(#paint6_linear_1781_44204)"/>
<path d="M74.7122 13.0981H78.0313C78.1065 13.0981 78.1809 13.1129 78.2504 13.1417C78.3199 13.1704 78.383 13.2126 78.4362 13.2658C78.4893 13.3189 78.5315 13.3821 78.5603 13.4515C78.589 13.521 78.6039 13.5954 78.6039 13.6706C78.6039 13.7458 78.589 13.8203 78.5603 13.8897C78.5315 13.9592 78.4893 14.0223 78.4362 14.0755C78.383 14.1286 78.3199 14.1708 78.2504 14.1996C78.1809 14.2284 78.1065 14.2432 78.0313 14.2432H74.7122C74.637 14.2432 74.5626 14.2284 74.4931 14.1996C74.4236 14.1708 74.3605 14.1286 74.3073 14.0755C74.2542 14.0223 74.212 13.9592 74.1832 13.8897C74.1545 13.8203 74.1396 13.7458 74.1396 13.6706C74.1396 13.5954 74.1545 13.521 74.1832 13.4515C74.212 13.3821 74.2542 13.3189 74.3073 13.2658C74.3605 13.2126 74.4236 13.1704 74.4931 13.1417C74.5626 13.1129 74.637 13.0981 74.7122 13.0981Z" fill="url(#paint7_linear_1781_44204)"/>
<path d="M25.4771 19.8065C25.6 19.8087 25.7172 19.859 25.8033 19.9467C25.8894 20.0344 25.9377 20.1524 25.9377 20.2753V21.6735C25.9377 21.7979 25.8883 21.9171 25.8003 22.005C25.7124 22.0929 25.5932 22.1423 25.4688 22.1423C25.3445 22.1423 25.2252 22.0929 25.1373 22.005C25.0494 21.9171 25 21.7979 25 21.6735V20.2753C25 20.2131 25.0124 20.1514 25.0365 20.094C25.0605 20.0366 25.0958 19.9845 25.1402 19.9409C25.1847 19.8972 25.2373 19.8629 25.2952 19.8398C25.353 19.8167 25.4149 19.8054 25.4771 19.8065Z" fill="url(#paint8_linear_1781_44204)"/>
<path d="M25.4766 13.8865C25.6006 13.8876 25.7193 13.9373 25.8069 14.025C25.8946 14.1127 25.9444 14.2313 25.9455 14.3553V15.8033C25.9455 15.8648 25.9333 15.9258 25.9098 15.9827C25.8862 16.0396 25.8517 16.0912 25.8081 16.1348C25.7646 16.1783 25.7129 16.2128 25.656 16.2364C25.5992 16.26 25.5382 16.2721 25.4766 16.2721C25.4151 16.2721 25.3541 16.26 25.2972 16.2364C25.2403 16.2128 25.1887 16.1783 25.1451 16.1348C25.1016 16.0912 25.0671 16.0396 25.0435 15.9827C25.0199 15.9258 25.0078 15.8648 25.0078 15.8033V14.3553C25.0089 14.2313 25.0586 14.1127 25.1463 14.025C25.234 13.9373 25.3526 13.8876 25.4766 13.8865Z" fill="url(#paint9_linear_1781_44204)"/>
<path d="M21.8096 17.5372H23.2617C23.3861 17.5372 23.5053 17.5866 23.5933 17.6745C23.6812 17.7624 23.7306 17.8817 23.7306 18.006C23.7306 18.1304 23.6812 18.2496 23.5933 18.3375C23.5053 18.4255 23.3861 18.4749 23.2617 18.4749H21.8096C21.6853 18.4749 21.5661 18.4255 21.4781 18.3375C21.3902 18.2496 21.3408 18.1304 21.3408 18.006C21.3408 17.8817 21.3902 17.7624 21.4781 17.6745C21.5661 17.5866 21.6853 17.5372 21.8096 17.5372Z" fill="url(#paint10_linear_1781_44204)"/>
<path d="M27.7716 17.5372H29.1448C29.2692 17.5372 29.3884 17.5866 29.4763 17.6745C29.5643 17.7624 29.6137 17.8817 29.6137 18.006C29.6137 18.1304 29.5643 18.2496 29.4763 18.3375C29.3884 18.4255 29.2692 18.4749 29.1448 18.4749H27.7716C27.6472 18.4749 27.528 18.4255 27.44 18.3375C27.3521 18.2496 27.3027 18.1304 27.3027 18.006C27.3027 17.8817 27.3521 17.7624 27.44 17.6745C27.528 17.5866 27.6472 17.5372 27.7716 17.5372Z" fill="url(#paint11_linear_1781_44204)"/>
<path d="M23.8926 19.1218C23.9855 19.1217 24.0763 19.1491 24.1535 19.2006C24.2307 19.2521 24.291 19.3254 24.3265 19.4111C24.3621 19.4969 24.3713 19.5913 24.3532 19.6823C24.335 19.7734 24.2902 19.857 24.2245 19.9226L23.2163 20.9391C23.1728 20.9826 23.121 21.0172 23.0641 21.0408C23.0071 21.0644 22.9461 21.0765 22.8844 21.0765C22.8228 21.0765 22.7617 21.0644 22.7048 21.0408C22.6478 21.0172 22.5961 20.9826 22.5525 20.9391C22.5089 20.8955 22.4744 20.8437 22.4508 20.7868C22.4272 20.7298 22.415 20.6688 22.415 20.6071C22.415 20.5455 22.4272 20.4845 22.4508 20.4275C22.4744 20.3706 22.5089 20.3188 22.5525 20.2752L23.5607 19.2671C23.6036 19.222 23.6551 19.186 23.7121 19.1611C23.769 19.1362 23.8304 19.1228 23.8926 19.1218Z" fill="url(#paint12_linear_1781_44204)"/>
<path d="M28.0696 14.9442C28.1625 14.9441 28.2533 14.9715 28.3305 15.023C28.4077 15.0745 28.468 15.1478 28.5035 15.2335C28.5391 15.3193 28.5484 15.4137 28.5302 15.5047C28.512 15.5958 28.4673 15.6794 28.4015 15.745L27.3934 16.7531C27.3037 16.8319 27.1874 16.8734 27.0681 16.8694C26.9488 16.8653 26.8356 16.8159 26.7515 16.7313C26.6674 16.6466 26.6187 16.5331 26.6154 16.4138C26.6121 16.2945 26.6544 16.1785 26.7337 16.0893L27.7377 15.0811C27.8263 14.994 27.9454 14.9449 28.0696 14.9442Z" fill="url(#paint13_linear_1781_44204)"/>
<path d="M22.8847 14.9436C22.9463 14.9435 23.0073 14.9556 23.0643 14.9791C23.1212 15.0025 23.173 15.037 23.2166 15.0806L24.2745 16.1385C24.3181 16.1821 24.3527 16.2338 24.3763 16.2908C24.3999 16.3477 24.412 16.4088 24.412 16.4704C24.412 16.5321 24.3999 16.5931 24.3763 16.6501C24.3527 16.707 24.3181 16.7587 24.2745 16.8023C24.231 16.8459 24.1792 16.8805 24.1223 16.9041C24.0653 16.9277 24.0043 16.9398 23.9426 16.9398C23.881 16.9398 23.82 16.9277 23.763 16.9041C23.7061 16.8805 23.6543 16.8459 23.6107 16.8023L22.5528 15.7444C22.487 15.6788 22.4422 15.5952 22.4241 15.5041C22.4059 15.4131 22.4152 15.3187 22.4508 15.2329C22.4863 15.1472 22.5465 15.0739 22.6238 15.0224C22.701 14.9709 22.7918 14.9435 22.8847 14.9436Z" fill="url(#paint14_linear_1781_44204)"/>
<path d="M27.0985 19.1596C27.1601 19.1594 27.2212 19.1715 27.2781 19.195C27.3351 19.2185 27.3868 19.2529 27.4304 19.2965L28.4013 20.2673C28.4449 20.3109 28.4794 20.3626 28.503 20.4196C28.5266 20.4765 28.5388 20.5376 28.5388 20.5992C28.5388 20.6608 28.5266 20.7219 28.503 20.7788C28.4794 20.8358 28.4449 20.8875 28.4013 20.9311C28.3577 20.9747 28.306 21.0093 28.249 21.0329C28.1921 21.0565 28.131 21.0686 28.0694 21.0686C28.0077 21.0686 27.9467 21.0565 27.8897 21.0329C27.8328 21.0093 27.781 20.9747 27.7375 20.9311L26.7666 19.9603C26.7009 19.8947 26.6561 19.8111 26.638 19.7201C26.6198 19.629 26.6291 19.5346 26.6646 19.4489C26.7002 19.3631 26.7604 19.2898 26.8377 19.2383C26.9149 19.1868 27.0057 19.1594 27.0985 19.1596Z" fill="url(#paint15_linear_1781_44204)"/>
<path d="M31.766 0.398162C31.7091 0.48129 31.6749 0.57789 31.6669 0.678347C31.6589 0.778803 31.6773 0.879602 31.7204 0.970705L34.0064 5.81661C34.0495 5.90677 34.1155 5.98409 34.1977 6.04086C34.28 6.09763 34.3757 6.13189 34.4752 6.14022C34.5757 6.14994 34.677 6.13232 34.7683 6.08923C34.8595 6.04614 34.9375 5.97919 34.9939 5.89544L38.0474 1.49761C38.1054 1.41556 38.1407 1.31972 38.1499 1.2197C38.159 1.11968 38.1417 1.019 38.0997 0.927783C38.0577 0.836563 37.9924 0.758005 37.9104 0.699997C37.8284 0.641991 37.7326 0.606577 37.6326 0.597307L32.2846 0.153374H32.239C32.1464 0.153498 32.0551 0.175782 31.9728 0.218364C31.8905 0.260947 31.8196 0.322598 31.766 0.398162ZM34.6205 4.42673L33.1808 1.3773L36.5414 1.65942L34.6205 4.42673Z" fill="url(#paint16_linear_1781_44204)"/>
<path d="M6.894 6.65031C6.79028 6.65031 4.37148 6.68765 3.3384 10.0731C2.56671 12.6164 0.695565 12.3675 0.616736 12.355C0.477541 12.3325 0.335089 12.3661 0.220713 12.4486C0.106337 12.5311 0.0294063 12.6556 0.00684906 12.7948C-0.0157082 12.934 0.0179543 13.0765 0.100429 13.1908C0.182905 13.3052 0.307435 13.3821 0.44663 13.4047C1.42992 13.5665 3.51266 13.1475 4.35489 10.3843C5.15562 7.74147 6.87741 7.71242 6.894 7.71242C7.03485 7.71242 7.16992 7.65648 7.26951 7.55688C7.36911 7.45729 7.42506 7.32221 7.42506 7.18137C7.42506 7.04052 7.36911 6.90545 7.26951 6.80585C7.16992 6.70626 7.03485 6.65031 6.894 6.65031Z" fill="url(#paint17_linear_1781_44204)"/>
<path d="M15.2299 24.7441C15.1054 24.7444 14.985 24.7885 14.8897 24.8686C14.8358 24.9101 13.5787 25.9929 14.4956 28.1669C15.064 29.5112 14.2715 30.0547 14.1802 30.1086C14.0681 30.1843 13.989 30.3 13.9593 30.432C13.9295 30.564 13.9513 30.7024 14.0201 30.8189C14.089 30.9354 14.1997 31.0213 14.3297 31.0589C14.4597 31.0965 14.5992 31.0831 14.7196 31.0214C15.3129 30.677 16.2298 29.5485 15.4747 27.7562C14.869 26.3207 15.5618 25.6817 15.5701 25.6817C15.6534 25.6117 15.7132 25.5178 15.7414 25.4127C15.7696 25.3076 15.7648 25.1963 15.7277 25.094C15.6906 24.9917 15.6229 24.9033 15.5339 24.8407C15.4449 24.7781 15.3387 24.7444 15.2299 24.7441Z" fill="url(#paint18_linear_1781_44204)"/>
<path d="M76.2633 2.21088H76.226C76.1562 2.21504 76.0879 2.23318 76.0252 2.26422C75.9625 2.29525 75.9067 2.33855 75.861 2.39155C75.8154 2.44456 75.7808 2.50619 75.7594 2.57279C75.738 2.63939 75.7302 2.7096 75.7365 2.77928C75.7365 2.84981 75.89 4.50106 78.1926 5.01552C79.6157 5.33499 79.5949 6.29753 79.5908 6.4054C79.5845 6.47433 79.5919 6.54381 79.6124 6.60989C79.633 6.67597 79.6664 6.73734 79.7107 6.79051C79.755 6.84368 79.8094 6.8876 79.8707 6.91976C79.9319 6.95192 79.9989 6.9717 80.0679 6.97795C80.2086 6.98947 80.3482 6.94491 80.4562 6.85399C80.5642 6.76307 80.6319 6.63315 80.6446 6.49253C80.7068 5.81211 80.3251 4.41809 78.4249 3.98246C76.9064 3.64225 76.7944 2.70874 76.7944 2.70045C76.783 2.56727 76.7222 2.44317 76.6239 2.35257C76.5256 2.26197 76.397 2.21143 76.2633 2.21088Z" fill="url(#paint19_linear_1781_44204)"/>
<path d="M47.5127 3.67138H47.4754C47.3351 3.68199 47.2048 3.7478 47.113 3.85435C47.0213 3.96091 46.9755 4.09952 46.9858 4.23978C46.9858 4.33105 47.1766 6.43454 49.89 7.144C51.7446 7.62942 51.7155 9.10642 51.7072 9.27238C51.7061 9.40787 51.7568 9.53867 51.849 9.638C51.9411 9.73733 52.0677 9.79767 52.2029 9.80668C52.3381 9.8157 52.4717 9.77269 52.5762 9.68648C52.6807 9.60026 52.7483 9.47735 52.7652 9.34291C52.8274 8.47994 52.3503 6.69592 50.1597 6.11922C48.189 5.60061 48.0604 4.1817 48.0562 4.1651C48.0466 4.02865 47.9848 3.90115 47.8835 3.80918C47.7823 3.7172 47.6494 3.66784 47.5127 3.67138Z" fill="url(#paint20_linear_1781_44204)"/>
<defs>
<linearGradient id="paint0_linear_1781_44204" x1="59.9952" y1="6.61722" x2="67.1313" y2="6.61722" gradientUnits="userSpaceOnUse">
<stop stop-color="#B31217"/>
<stop offset="1" stop-color="#E52D27"/>
</linearGradient>
<linearGradient id="paint1_linear_1781_44204" x1="42.143" y1="12.8617" x2="45.6405" y2="19.2758" gradientUnits="userSpaceOnUse">
<stop stop-color="#15569E"/>
<stop offset="1" stop-color="#29ABE2"/>
</linearGradient>
<linearGradient id="paint2_linear_1781_44204" x1="14.5357" y1="-0.332008" x2="20.4977" y2="6.29377" gradientUnits="userSpaceOnUse">
<stop stop-color="#15569E"/>
<stop offset="1" stop-color="#29ABE2"/>
</linearGradient>
<linearGradient id="paint3_linear_1781_44204" x1="14.5362" y1="-0.332008" x2="20.4981" y2="6.29377" gradientUnits="userSpaceOnUse">
<stop stop-color="#15569E"/>
<stop offset="1" stop-color="#29ABE2"/>
</linearGradient>
<linearGradient id="paint4_linear_1781_44204" x1="6.86914" y1="20.6819" x2="8.01838" y2="20.6819" gradientUnits="userSpaceOnUse">
<stop stop-color="#B31217"/>
<stop offset="1" stop-color="#E52D27"/>
</linearGradient>
<linearGradient id="paint5_linear_1781_44204" x1="4.70821" y1="20.6821" x2="10.1806" y2="20.6821" gradientUnits="userSpaceOnUse">
<stop stop-color="#B31217"/>
<stop offset="1" stop-color="#E52D27"/>
</linearGradient>
<linearGradient id="paint6_linear_1781_44204" x1="75.7939" y1="13.671" x2="76.939" y2="13.671" gradientUnits="userSpaceOnUse">
<stop stop-color="#15569E"/>
<stop offset="1" stop-color="#29ABE2"/>
</linearGradient>
<linearGradient id="paint7_linear_1781_44204" x1="74.1396" y1="13.6706" x2="78.5997" y2="13.6706" gradientUnits="userSpaceOnUse">
<stop stop-color="#15569E"/>
<stop offset="1" stop-color="#29ABE2"/>
</linearGradient>
<linearGradient id="paint8_linear_1781_44204" x1="22.1207" y1="14.1806" x2="26.7757" y2="23.5986" gradientUnits="userSpaceOnUse">
<stop stop-color="#D1913C"/>
<stop offset="1" stop-color="#FFD194"/>
</linearGradient>
<linearGradient id="paint9_linear_1781_44204" x1="24.4685" y1="13.0194" x2="29.1235" y2="22.4373" gradientUnits="userSpaceOnUse">
<stop stop-color="#D1913C"/>
<stop offset="1" stop-color="#FFD194"/>
</linearGradient>
<linearGradient id="paint10_linear_1781_44204" x1="20.9342" y1="14.7658" x2="25.5893" y2="24.1837" gradientUnits="userSpaceOnUse">
<stop stop-color="#D1913C"/>
<stop offset="1" stop-color="#FFD194"/>
</linearGradient>
<linearGradient id="paint11_linear_1781_44204" x1="25.693" y1="12.4133" x2="30.348" y2="21.8313" gradientUnits="userSpaceOnUse">
<stop stop-color="#D1913C"/>
<stop offset="1" stop-color="#FFD194"/>
</linearGradient>
<linearGradient id="paint12_linear_1781_44204" x1="20.7892" y1="14.836" x2="25.4443" y2="24.254" gradientUnits="userSpaceOnUse">
<stop stop-color="#D1913C"/>
<stop offset="1" stop-color="#FFD194"/>
</linearGradient>
<linearGradient id="paint13_linear_1781_44204" x1="25.8085" y1="12.3553" x2="30.4635" y2="21.7733" gradientUnits="userSpaceOnUse">
<stop stop-color="#D1913C"/>
<stop offset="1" stop-color="#FFD194"/>
</linearGradient>
<linearGradient id="paint14_linear_1781_44204" x1="22.4615" y1="14.0101" x2="27.1165" y2="23.4281" gradientUnits="userSpaceOnUse">
<stop stop-color="#D1913C"/>
<stop offset="1" stop-color="#FFD194"/>
</linearGradient>
<linearGradient id="paint15_linear_1781_44204" x1="24.1528" y1="13.1727" x2="28.8079" y2="22.5907" gradientUnits="userSpaceOnUse">
<stop stop-color="#D1913C"/>
<stop offset="1" stop-color="#FFD194"/>
</linearGradient>
<linearGradient id="paint16_linear_1781_44204" x1="31.6665" y1="3.14887" x2="38.1512" y2="3.14887" gradientUnits="userSpaceOnUse">
<stop stop-color="#B31217"/>
<stop offset="1" stop-color="#E52D27"/>
</linearGradient>
<linearGradient id="paint17_linear_1781_44204" x1="0.00684913" y1="10.0399" x2="7.42506" y2="10.0399" gradientUnits="userSpaceOnUse">
<stop stop-color="#D1913C"/>
<stop offset="1" stop-color="#FFD194"/>
</linearGradient>
<linearGradient id="paint18_linear_1781_44204" x1="14.5868" y1="24.2794" x2="15.1179" y2="31.9632" gradientUnits="userSpaceOnUse">
<stop stop-color="#15569E"/>
<stop offset="1" stop-color="#29ABE2"/>
</linearGradient>
<linearGradient id="paint19_linear_1781_44204" x1="75.7323" y1="4.59649" x2="80.6529" y2="4.59649" gradientUnits="userSpaceOnUse">
<stop stop-color="#D1913C"/>
<stop offset="1" stop-color="#FFD194"/>
</linearGradient>
<linearGradient id="paint20_linear_1781_44204" x1="46.9734" y1="6.74986" x2="52.7444" y2="6.74986" gradientUnits="userSpaceOnUse">
<stop stop-color="#D1913C"/>
<stop offset="1" stop-color="#FFD194"/>
</linearGradient>
</defs>
</svg>
