<svg width="17" height="17" viewBox="0 0 17 17" fill="none" xmlns="http://www.w3.org/2000/svg">
<g id="clock 2" clip-path="url(#clip0_1076_209325)">
<g id="Group">
<g id="Group_2">
<path id="Vector" d="M14.2721 3.28066C12.7611 1.76966 10.7521 0.9375 8.61523 0.9375C6.47836 0.9375 4.46936 1.76966 2.95836 3.28066C1.44736 4.79166 0.615234 6.80062 0.615234 8.9375C0.615234 11.0744 1.44736 13.0834 2.95836 14.5943C4.46936 16.1053 6.47836 16.9375 8.61523 16.9375C10.7521 16.9375 12.7611 16.1053 14.2721 14.5943C15.7831 13.0833 16.6152 11.0744 16.6152 8.9375C16.6152 6.80062 15.7831 4.79163 14.2721 3.28066ZM8.61523 15.3673C5.06983 15.3673 2.18548 12.4829 2.18548 8.9375C2.18548 8.93169 2.18567 8.92594 2.1857 8.92019C2.1857 8.91872 2.18548 8.91731 2.18548 8.91584C2.18548 8.91338 2.1858 8.911 2.18586 8.90856C2.20145 5.40566 5.0323 2.55575 8.52786 2.50888C8.53517 2.50853 8.54242 2.50778 8.54983 2.50778C8.55427 2.50778 8.55858 2.50831 8.56298 2.50844C8.58042 2.50831 8.5978 2.50778 8.61527 2.50778C12.1607 2.50778 15.045 5.39216 15.045 8.93753C15.045 12.4829 12.1606 15.3673 8.61523 15.3673Z" fill="#D9EBF7"/>
</g>
</g>
<g id="Group_3">
<g id="Group_4">
<path id="Vector_2" d="M13.4992 9.32382C13.2377 9.32382 13.0258 9.11188 13.0258 8.85045C13.0258 8.58901 13.2377 8.37707 13.4992 8.37707H14.0698C13.8018 5.7497 11.6709 3.66541 9.02313 3.46973V3.96645C9.02313 4.22788 8.81119 4.43982 8.54975 4.43982C8.28832 4.43982 8.07638 4.22788 8.07638 3.96645V3.48104C5.46775 3.73666 3.38985 5.82798 3.15475 8.44248H3.66575C3.92719 8.44248 4.13913 8.65441 4.13913 8.91585C4.13913 9.17729 3.92719 9.38923 3.66575 9.38923H3.15088C3.36854 12.0458 5.4881 14.1719 8.14182 14.3999V13.7998C8.14182 13.5384 8.35375 13.3264 8.61519 13.3264C8.87663 13.3264 9.08857 13.5384 9.08857 13.7998V14.3999C11.764 14.17 13.8965 12.0108 14.0844 9.32382H13.4992ZM10.5314 7.69076L8.94994 9.27229C8.86116 9.36107 8.74079 9.41095 8.61522 9.41095C8.48969 9.41095 8.36925 9.36107 8.2805 9.27229L5.5276 6.51938C5.34272 6.33454 5.34272 6.03482 5.5276 5.84995C5.71244 5.66507 6.01216 5.66507 6.19704 5.84995L8.61525 8.26813L9.86207 7.02132C10.0469 6.83645 10.3466 6.83645 10.5315 7.02132C10.7163 7.20616 10.7163 7.50591 10.5314 7.69076Z" fill="#E4F4FF"/>
</g>
</g>
</g>
<defs>
<clipPath id="clip0_1076_209325">
<rect width="16" height="16" fill="white" transform="translate(0.615234 0.9375)"/>
</clipPath>
</defs>
</svg>
