<svg width="19" height="19" viewBox="0 0 19 19" fill="none" xmlns="http://www.w3.org/2000/svg">
<g id="chat (1) 1" clip-path="url(#clip0_1161_128691)">
<g id="Group">
<g id="Group_2">
<path id="Vector" d="M11.6479 0.521484H5.31982C2.41223 0.521484 0.0112305 2.92248 0.0112305 5.83008C0.0112305 8.48895 2.02393 10.6941 4.58495 11.0525C4.746 11.1282 5.12499 11.1035 5.31982 11.1035V12.6855C5.31982 12.8802 5.42695 13.0589 5.59844 13.1506C5.76775 13.2414 5.97637 13.2332 6.1397 13.1243L9.17087 11.1035H11.6479C14.5555 11.1035 16.9565 8.73768 16.9565 5.83008C16.9565 2.92248 14.5555 0.521484 11.6479 0.521484ZM5.31982 6.88477C4.73841 6.88477 4.26514 6.41149 4.26514 5.83008C4.26514 5.24866 4.73841 4.77539 5.31982 4.77539C5.90124 4.77539 6.37451 5.24866 6.37451 5.83008C6.37451 6.41149 5.90124 6.88477 5.31982 6.88477ZM8.48389 6.88477C7.90247 6.88477 7.4292 6.41149 7.4292 5.83008C7.4292 5.24866 7.90247 4.77539 8.48389 4.77539C9.0653 4.77539 9.53857 5.24866 9.53857 5.83008C9.53857 6.41149 9.0653 6.88477 8.48389 6.88477ZM11.6479 6.88477C11.0665 6.88477 10.5933 6.41149 10.5933 5.83008C10.5933 5.24866 11.0665 4.77539 11.6479 4.77539C12.2294 4.77539 12.7026 5.24866 12.7026 5.83008C12.7026 6.41149 12.2294 6.88477 11.6479 6.88477Z" fill="#87AAC1"/>
</g>
</g>
<g id="Group_3">
<g id="Group_4">
<path id="Vector_2" d="M17.3588 8.61133C16.327 10.7085 14.1389 12.1586 11.6479 12.1586H9.49016L6.7247 14.0022C6.22949 14.333 5.60287 14.3501 5.09992 14.0805C4.58545 13.8055 4.26514 13.271 4.26514 12.6859V12.0705C3.077 11.8703 1.98019 11.3294 1.1196 10.5695C1.10157 10.7477 1.06592 10.9226 1.06592 11.1039C1.06592 14.0115 3.46691 16.3773 6.37451 16.3773H8.85159L11.8828 18.4333C12.0461 18.5421 12.2547 18.5504 12.4241 18.4595C12.5955 18.3679 12.7026 18.1892 12.7026 17.9945V16.3773C12.8975 16.3773 13.2765 16.4021 13.4375 16.3264C15.9985 15.9679 18.0112 13.7622 18.0112 11.1039C18.0112 10.2138 17.7698 9.37098 17.3588 8.61133Z" fill="#AECCE0"/>
</g>
</g>
</g>
<defs>
<clipPath id="clip0_1161_128691">
<rect width="18" height="18" fill="white" transform="translate(0.0112305 0.521484)"/>
</clipPath>
</defs>
</svg>
