<svg width="20" height="20" viewBox="0 0 20 20" fill="none" xmlns="http://www.w3.org/2000/svg">
<circle cx="10" cy="10" r="10" fill="#87AAC1"/>
<path d="M10.3883 12.2222L10.3883 12.2222C10.6809 11.9297 11.1552 11.9297 11.4477 12.2222M10.3883 12.2222L11.377 12.2929M10.3883 12.2222L8.58146 14.0291H8.52288V14.087C7.80053 14.7785 6.65007 14.769 5.93944 14.0584C5.59034 13.7093 5.39833 13.2457 5.39833 12.752C5.39833 12.2584 5.59033 11.7949 5.93931 11.4458C5.93931 11.4458 5.93932 11.4458 5.93932 11.4458L5.93944 11.4456L5.93954 11.4455L7.7755 9.60953L7.77551 9.60953C8.06803 9.31696 8.06803 8.84259 7.77545 8.55006M10.3883 12.2222L4.95064 10.4569L4.95025 10.4573C4.33748 11.0703 4 11.8853 4 12.752C4 13.619 4.33761 14.4341 4.95068 15.0472C5.58349 15.6799 6.41464 15.9963 7.24583 15.9963C8.07702 15.9963 8.90821 15.6799 9.54093 15.0472M11.4477 12.2222L11.377 12.2929M11.4477 12.2222C11.4477 12.2222 11.4477 12.2222 11.4477 12.2222L11.377 12.2929M11.4477 12.2222C11.7403 12.5148 11.7403 12.9892 11.4477 13.2817L9.61221 15.1173M11.377 12.2929C11.6305 12.5465 11.6305 12.9575 11.377 13.211L9.54098 15.0471M9.61221 15.1173C9.6154 15.114 9.6182 15.1108 9.62059 15.1076C9.6322 15.0924 9.63637 15.0777 9.63783 15.072C9.63963 15.065 9.64029 15.0592 9.64058 15.056L9.64089 15.0512L9.64095 15.0493L9.64097 15.0484L9.64097 15.048L9.64097 15.0478L9.64097 15.0477V15.0477L9.54098 15.0471M9.61221 15.1173L9.61169 15.1178L9.54098 15.0471M9.61221 15.1173C9.61202 15.1175 9.61182 15.1177 9.61162 15.1179M9.54098 15.0471L9.54093 15.0472M9.54093 15.0472L9.61162 15.1179M9.54093 15.0472V15.1472C9.5727 15.1472 9.59649 15.1329 9.61162 15.1179M9.61162 15.1179L9.61165 15.1179C8.95936 15.7702 8.10237 16.0963 7.24583 16.0963C6.38929 16.0963 5.53235 15.7702 4.87997 15.1179L4.94981 15.048L4.87997 15.1179C4.24814 14.4861 3.9 13.6455 3.9 12.752C3.9 11.8587 4.24801 11.0183 4.87953 10.3866L4.87959 10.3865L4.8799 10.3862L4.87993 10.3862L6.71598 8.55006L6.71599 8.55006C7.00856 8.25754 7.48292 8.25753 7.77545 8.55006M7.77545 8.55006L7.70475 8.62077L7.77546 8.55006C7.77545 8.55006 7.77545 8.55006 7.77545 8.55006Z" fill="#AECCE0" stroke="#AECCE0" stroke-width="0.2"/>
<mask id="path-3-outside-1_1733_225786" maskUnits="userSpaceOnUse" x="7.43262" y="3" width="9" height="9" fill="black">
<rect fill="white" x="7.43262" y="3" width="9" height="9"/>
<path d="M15.9999 7.24428C15.9999 6.37729 15.6623 5.5622 15.0492 4.94913C13.7836 3.6836 11.7244 3.68365 10.4589 4.94913C10.4589 4.94922 10.459 4.94904 10.4589 4.94913L8.62276 6.78532C8.36924 7.03879 8.36924 7.44989 8.62276 7.70337C8.74956 7.83017 8.91566 7.89353 9.0818 7.89353C9.2479 7.89353 9.41409 7.83013 9.54081 7.70337L11.3768 5.8674C11.3767 5.86748 11.3769 5.86731 11.3768 5.8674C12.1361 5.10813 13.3718 5.10787 14.1311 5.86718C14.499 6.23504 14.7016 6.72412 14.7016 7.24428C14.7016 7.76439 14.499 8.25338 14.1313 8.62124L12.2951 10.4575C12.0416 10.711 12.0416 11.122 12.2951 11.3755C12.4219 11.5023 12.588 11.5657 12.7541 11.5657C12.9203 11.5657 13.0864 11.5023 13.2132 11.3755L15.0492 9.53942C15.0491 9.53955 15.0494 9.53929 15.0492 9.53942C15.662 8.92644 15.9999 8.11104 15.9999 7.24428Z"/>
</mask>
<path d="M15.9999 7.24428C15.9999 6.37729 15.6623 5.5622 15.0492 4.94913C13.7836 3.6836 11.7244 3.68365 10.4589 4.94913C10.4589 4.94922 10.459 4.94904 10.4589 4.94913L8.62276 6.78532C8.36924 7.03879 8.36924 7.44989 8.62276 7.70337C8.74956 7.83017 8.91566 7.89353 9.0818 7.89353C9.2479 7.89353 9.41409 7.83013 9.54081 7.70337L11.3768 5.8674C11.3767 5.86748 11.3769 5.86731 11.3768 5.8674C12.1361 5.10813 13.3718 5.10787 14.1311 5.86718C14.499 6.23504 14.7016 6.72412 14.7016 7.24428C14.7016 7.76439 14.499 8.25338 14.1313 8.62124L12.2951 10.4575C12.0416 10.711 12.0416 11.122 12.2951 11.3755C12.4219 11.5023 12.588 11.5657 12.7541 11.5657C12.9203 11.5657 13.0864 11.5023 13.2132 11.3755L15.0492 9.53942C15.0491 9.53955 15.0494 9.53929 15.0492 9.53942C15.662 8.92644 15.9999 8.11104 15.9999 7.24428Z" fill="#AECCE0"/>
<path d="M15.0492 4.94913L15.1906 4.80771L15.1906 4.80771L15.0492 4.94913ZM8.62276 6.78532L8.76417 6.92675L8.76418 6.92674L8.62276 6.78532ZM8.62276 7.70337L8.76418 7.56194L8.76417 7.56193L8.62276 7.70337ZM9.54081 7.70337L9.39939 7.56194L9.39936 7.56197L9.54081 7.70337ZM14.1311 5.86718L14.2726 5.72577L14.2726 5.72575L14.1311 5.86718ZM14.1313 8.62124L14.2727 8.76266L14.2727 8.76265L14.1313 8.62124ZM12.2951 10.4575L12.4365 10.5989L12.4365 10.5989L12.2951 10.4575ZM13.2132 11.3755L13.3546 11.5169L13.3546 11.5169L13.2132 11.3755ZM16.1999 7.24428C16.1999 6.32424 15.8412 5.45828 15.1906 4.80771L14.9078 5.09055C15.4833 5.66612 15.7999 6.43034 15.7999 7.24428H16.1999ZM15.1906 4.80771C13.8469 3.46408 11.6611 3.46412 10.3175 4.80771L10.6004 5.09055C11.7877 3.90317 13.7203 3.90313 14.9078 5.09055L15.1906 4.80771ZM10.2801 4.85969C10.2801 4.85969 10.2801 4.85969 10.2801 4.85969C10.2801 4.8597 10.2801 4.8597 10.2801 4.8597C10.2801 4.8597 10.2801 4.8597 10.2801 4.8597C10.2801 4.8597 10.2801 4.8597 10.2801 4.8597C10.2801 4.8597 10.2801 4.8597 10.2801 4.8597C10.2801 4.8597 10.2801 4.8597 10.2801 4.8597C10.28 4.85971 10.2801 4.8597 10.28 4.85971C10.28 4.85971 10.28 4.85971 10.28 4.85971C10.28 4.85971 10.28 4.85971 10.28 4.85971C10.28 4.85971 10.28 4.85971 10.28 4.85971C10.5484 4.77027 10.6378 5.0386 10.6378 5.0386C10.6378 5.0386 10.6378 5.0386 10.6378 5.0386C10.6378 5.0386 10.6378 5.0386 10.6378 5.0386C10.6378 5.0386 10.6378 5.0386 10.6378 5.0386C10.6378 5.0386 10.6378 5.0386 10.6378 5.0386C10.6378 5.0386 10.6378 5.0386 10.6378 5.0386C10.6378 5.0386 10.6378 5.0386 10.6378 5.0386C10.6378 5.03859 10.6378 5.0386 10.6378 5.03859C10.6378 5.03859 10.6378 5.03859 10.6378 5.03859C10.6378 5.03859 10.6378 5.0386 10.6378 5.03859C10.6378 5.03859 10.6378 5.03859 10.6378 5.03859C10.6378 5.03859 10.6378 5.03859 10.6378 5.03859C10.6378 5.03858 10.6378 5.03859 10.6378 5.03859C10.6378 5.03859 10.6378 5.03859 10.6378 5.03859C10.6378 5.03858 10.6378 5.03858 10.6378 5.03858C10.6378 5.03858 10.6378 5.03858 10.6378 5.03858C10.6378 5.03858 10.6378 5.03858 10.6378 5.03858C10.6378 5.03858 10.6378 5.03858 10.6378 5.03858C10.6378 5.03858 10.6378 5.03858 10.6378 5.03858C10.6378 5.03858 10.6378 5.03858 10.6378 5.03858C10.6378 5.03858 10.6378 5.03858 10.6378 5.03858C10.6378 5.03858 10.6378 5.03858 10.6378 5.03858C10.6378 5.03858 10.6378 5.03858 10.6378 5.03858C10.6378 5.03858 10.6378 5.03858 10.6378 5.03858C10.6378 5.03857 10.6378 5.03858 10.6378 5.03857C10.6378 5.03857 10.6378 5.03857 10.6378 5.03857C10.6378 5.03857 10.6378 5.03857 10.6378 5.03857C10.6378 5.03857 10.6378 5.03857 10.6378 5.03857C10.6378 5.03856 10.6378 5.03857 10.6378 5.03857C10.6378 5.03856 10.6378 5.03857 10.6378 5.03856C10.6378 5.03856 10.6378 5.03856 10.6378 5.03856C10.6378 5.03856 10.6378 5.03856 10.6378 5.03856C10.6378 5.03856 10.6378 5.03856 10.6378 5.03856C10.6378 5.03856 10.6378 5.03856 10.6378 5.03856C10.6378 5.03856 10.6378 5.03856 10.6378 5.03856C10.6378 5.03855 10.6378 5.03856 10.6378 5.03855C10.6378 5.03855 10.6378 5.03856 10.6378 5.03855C10.6378 5.03855 10.6378 5.03855 10.6378 5.03855C10.6378 5.03855 10.6378 5.03855 10.6378 5.03855C10.6378 5.03855 10.6378 5.03855 10.6378 5.03855C10.6378 5.03855 10.6378 5.03855 10.6378 5.03855C10.6378 5.03855 10.6378 5.03855 10.6378 5.03855C10.6378 5.03855 10.6378 5.03855 10.6378 5.03855C10.6378 5.03855 10.6378 5.03855 10.6378 5.03855C10.6378 5.03855 10.6378 5.03855 10.6378 5.03855C10.6378 5.03855 10.6378 5.03855 10.6378 5.03855C10.6378 5.03855 10.6378 5.03855 10.6378 5.03855C10.6378 5.03855 10.5484 4.77022 10.2801 4.85966C10.2801 4.85966 10.2801 4.85966 10.2801 4.85966C10.2801 4.85966 10.2801 4.85966 10.2801 4.85966C10.2801 4.85966 10.2801 4.85966 10.2801 4.85966C10.2801 4.85966 10.2801 4.85966 10.2801 4.85966C10.2801 4.85966 10.2801 4.85966 10.2801 4.85966C10.2801 4.85966 10.2801 4.85966 10.2801 4.85966C10.2801 4.85966 10.2801 4.85966 10.2801 4.85966C10.2801 4.85966 10.2801 4.85966 10.2801 4.85966C10.2801 4.85966 10.2801 4.85966 10.2801 4.85967C10.2801 4.85967 10.2801 4.85967 10.2801 4.85967C10.2801 4.85967 10.2801 4.85967 10.2801 4.85967C10.2801 4.85967 10.2801 4.85967 10.2801 4.85967C10.2801 4.85967 10.2801 4.85967 10.2801 4.85967C10.2801 4.85967 10.2801 4.85967 10.2801 4.85967C10.2801 4.85967 10.2801 4.85967 10.2801 4.85967C10.2801 4.85967 10.2801 4.85967 10.2801 4.85967C10.2801 4.85968 10.2801 4.85967 10.2801 4.85968C10.2801 4.85968 10.2801 4.85968 10.2801 4.85968C10.2801 4.85968 10.2801 4.85968 10.2801 4.85968C10.2801 4.85968 10.2801 4.85968 10.2801 4.85968C10.2801 4.85968 10.2801 4.85968 10.2801 4.85969L10.6378 5.03857C10.6378 5.03857 10.6378 5.03857 10.6378 5.03856C10.6378 5.03856 10.6378 5.03856 10.6378 5.03856C10.6378 5.03856 10.6378 5.03856 10.6378 5.03856C10.6378 5.03856 10.6378 5.03856 10.6378 5.03856C10.6378 5.03856 10.6378 5.03856 10.6378 5.03856C10.6378 5.03856 10.6378 5.03856 10.6378 5.03856C10.6378 5.03856 10.6378 5.03856 10.6378 5.03856C10.6378 5.03856 10.6378 5.03856 10.6378 5.03856C10.6378 5.03856 10.6378 5.03856 10.6378 5.03855C10.6378 5.03855 10.6378 5.03855 10.6378 5.03855C10.6378 5.03855 10.6378 5.03855 10.6378 5.03855C10.6378 5.03855 10.6378 5.03855 10.6378 5.03855C10.6378 5.03855 10.6378 5.03855 10.6378 5.03855C10.6378 5.03855 10.6378 5.03855 10.6378 5.03855C10.6378 5.03855 10.6378 5.03855 10.6378 5.03855C10.6378 5.03855 10.6378 5.03855 10.6378 5.03855C10.3695 5.12799 10.2801 4.85966 10.2801 4.85966C10.2801 4.85966 10.2801 4.85966 10.2801 4.85966V4.85966C10.2801 4.85966 10.2801 4.85966 10.2801 4.85966C10.2801 4.85966 10.2801 4.85966 10.2801 4.85966C10.2801 4.85966 10.2801 4.85966 10.2801 4.85966C10.2801 4.85966 10.2801 4.85966 10.2801 4.85966C10.2801 4.85966 10.2801 4.85966 10.2801 4.85966C10.2801 4.85967 10.2801 4.85966 10.2801 4.85967C10.2801 4.85967 10.2801 4.85967 10.2801 4.85967C10.2801 4.85967 10.2801 4.85967 10.2801 4.85967C10.2801 4.85967 10.2801 4.85967 10.2801 4.85967C10.2801 4.85967 10.2801 4.85967 10.2801 4.85967C10.2801 4.85967 10.2801 4.85967 10.2801 4.85967C10.2801 4.85967 10.2801 4.85968 10.2801 4.85968C10.2801 4.85968 10.2801 4.85968 10.2801 4.85968C10.2801 4.85968 10.2801 4.85968 10.2801 4.85968C10.2801 4.85968 10.2801 4.85968 10.2801 4.85968C10.2801 4.85968 10.2801 4.85968 10.2801 4.85968C10.2801 4.85968 10.2801 4.85968 10.2801 4.85968C10.2801 4.85968 10.2801 4.85968 10.2801 4.85968C10.2801 4.85968 10.2801 4.85968 10.2801 4.85968C10.2801 4.85968 10.2801 4.85969 10.2801 4.85969C10.2801 4.85969 10.2801 4.85969 10.2801 4.85969C10.2801 4.85969 10.2801 4.85969 10.2801 4.85969C10.2801 4.85969 10.2801 4.85969 10.2801 4.85969C10.2801 4.85969 10.2801 4.85969 10.2801 4.85969C10.2801 4.85969 10.2801 4.85969 10.2801 4.85969C10.2801 4.85969 10.2801 4.85969 10.2801 4.85969C10.2801 4.85969 10.2801 4.85969 10.2801 4.85969C10.2801 4.85969 10.2801 4.85969 10.2801 4.85969C10.2801 4.85969 10.2801 4.8597 10.2801 4.8597C10.2801 4.8597 10.2801 4.8597 10.2801 4.8597C10.2801 4.8597 10.2801 4.8597 10.2801 4.8597C10.2801 4.8597 10.2801 4.8597 10.2801 4.8597C10.28 4.85971 10.2801 4.8597 10.28 4.8597C10.28 4.85971 10.28 4.85971 10.28 4.85971C10.28 4.85971 10.28 4.85971 10.28 4.85971C10.28 4.85971 10.28 4.85971 10.28 4.85971C10.28 4.85971 10.28 4.85971 10.28 4.85971C10.28 4.85971 10.28 4.85971 10.28 4.85971C10.28 4.85971 10.28 4.85971 10.28 4.85971C10.28 4.85971 10.28 4.85971 10.28 4.85971C10.28 4.85971 10.28 4.85971 10.28 4.85971C10.28 4.85971 10.28 4.85971 10.28 4.85971C10.28 4.85971 10.3695 5.12804 10.6378 5.0386V5.0386C10.6378 5.0386 10.6378 5.0386 10.6378 5.0386C10.6378 5.0386 10.6378 5.0386 10.6378 5.0386C10.6378 5.0386 10.6378 5.0386 10.6378 5.0386C10.6378 5.0386 10.6378 5.0386 10.6378 5.0386C10.6378 5.0386 10.6378 5.0386 10.6378 5.0386C10.6378 5.03859 10.6378 5.0386 10.6378 5.0386C10.6378 5.03859 10.6378 5.03859 10.6378 5.03859C10.6378 5.03859 10.6378 5.03859 10.6378 5.03859C10.6378 5.03859 10.6378 5.03859 10.6378 5.03859V5.03859C10.6378 5.03859 10.6378 5.03859 10.6378 5.03859C10.6378 5.03859 10.6378 5.03859 10.6378 5.03859C10.6378 5.03859 10.6378 5.03859 10.6378 5.03859C10.6378 5.03859 10.6378 5.03859 10.6378 5.03859C10.6378 5.03859 10.6378 5.03859 10.6378 5.03859C10.6378 5.03859 10.6378 5.03859 10.6378 5.03859C10.6378 5.03859 10.6378 5.03859 10.6378 5.03859C10.6378 5.03859 10.6378 5.03859 10.6378 5.03859C10.6378 5.03858 10.6378 5.03859 10.6378 5.03858C10.6378 5.03858 10.6378 5.03858 10.6378 5.03858C10.6378 5.03858 10.6378 5.03858 10.6378 5.03858C10.6378 5.03858 10.6378 5.03858 10.6378 5.03858C10.6378 5.03858 10.6378 5.03858 10.6378 5.03858C10.6378 5.03858 10.6378 5.03858 10.6378 5.03858C10.6378 5.03858 10.6378 5.03858 10.6378 5.03858C10.6378 5.03858 10.6378 5.03858 10.6378 5.03858C10.6379 5.03838 10.6377 5.03877 10.6378 5.03858C10.6378 5.03857 10.6378 5.03857 10.6378 5.03857L10.2801 4.85969ZM10.3175 4.80771L8.48134 6.64389L8.76418 6.92674L10.6004 5.09055L10.3175 4.80771ZM8.48135 6.64388C8.14971 6.97547 8.14971 7.51321 8.48135 7.8448L8.76417 7.56193C8.58877 7.38656 8.58877 7.10212 8.76417 6.92675L8.48135 6.64388ZM8.48134 7.84479C8.64715 8.0106 8.86478 8.09353 9.0818 8.09353V7.69353C8.96654 7.69353 8.85197 7.64974 8.76418 7.56194L8.48134 7.84479ZM9.0818 8.09353C9.29878 8.09353 9.51652 8.01056 9.68225 7.84476L9.39936 7.56197C9.31167 7.64969 9.19703 7.69353 9.0818 7.69353V8.09353ZM9.68223 7.84479L11.5182 6.00882L11.2354 5.72597L9.39939 7.56194L9.68223 7.84479ZM11.5557 5.95684C11.557 5.95424 11.5593 5.94961 11.5617 5.94367C11.563 5.94063 11.5647 5.9363 11.5664 5.93102C11.5681 5.92609 11.5706 5.91787 11.5728 5.90745C11.5739 5.90209 11.5751 5.89499 11.5759 5.88656C11.5767 5.87834 11.5773 5.86675 11.5763 5.85292C11.5753 5.83942 11.5725 5.81973 11.5642 5.79735C11.5556 5.77435 11.5402 5.74637 11.5135 5.72137C11.486 5.69559 11.4535 5.67969 11.4211 5.67234C11.3904 5.66537 11.3639 5.66691 11.3454 5.66985C11.3269 5.6728 11.3121 5.67783 11.3021 5.68186C11.2918 5.68599 11.2836 5.69032 11.2776 5.69372C11.2661 5.70032 11.2575 5.70675 11.2527 5.71053C11.2475 5.71466 11.2434 5.71835 11.2406 5.72098C11.235 5.72613 11.2309 5.73059 11.2284 5.73327C11.2235 5.73875 11.2196 5.74365 11.2168 5.7474C11.2143 5.7508 11.2098 5.75691 11.205 5.765C11.2029 5.76847 11.1978 5.77721 11.1928 5.78908C11.1903 5.79483 11.1857 5.8063 11.1821 5.82144C11.1803 5.82923 11.1781 5.84079 11.1772 5.85498C11.1763 5.8686 11.1764 5.8903 11.1828 5.91593C11.1894 5.94255 11.204 5.97688 11.2341 6.00759C11.2652 6.03921 11.3022 6.05616 11.3359 6.0632C11.3673 6.06975 11.3937 6.06741 11.4102 6.06461C11.4272 6.06173 11.4406 6.05718 11.4494 6.05379C11.4662 6.04722 11.4785 6.03976 11.4841 6.03618C11.4907 6.03199 11.4958 6.02819 11.499 6.02573C11.5053 6.02089 11.5099 6.01669 11.5122 6.01462C11.5148 6.01222 11.5169 6.01018 11.5182 6.00882L11.2354 5.72597C11.2368 5.72462 11.2388 5.72259 11.2414 5.7202C11.2437 5.71814 11.2483 5.71394 11.2546 5.7091C11.2578 5.70664 11.2629 5.70285 11.2695 5.69866C11.2751 5.69508 11.2873 5.68762 11.3042 5.68105C11.3129 5.67766 11.3264 5.67311 11.3434 5.67023C11.3599 5.66743 11.3863 5.66509 11.4177 5.67164C11.4514 5.67868 11.4884 5.69564 11.5195 5.72725C11.5496 5.75796 11.5642 5.79229 11.5708 5.81891C11.5772 5.84454 11.5773 5.86624 11.5764 5.87986C11.5755 5.89404 11.5733 5.9056 11.5714 5.9134C11.5679 5.92853 11.5633 5.94001 11.5608 5.94575C11.5558 5.95762 11.5507 5.96635 11.5486 5.96982C11.5438 5.9779 11.5394 5.984 11.5368 5.9874C11.534 5.99113 11.5301 5.99602 11.5252 6.00149C11.5228 6.00416 11.5186 6.00862 11.5131 6.01377C11.5103 6.01639 11.5061 6.02008 11.5009 6.02421C11.4961 6.02799 11.4876 6.03442 11.4761 6.04102C11.4701 6.04442 11.4618 6.04875 11.4516 6.05288C11.4416 6.05691 11.4268 6.06194 11.4082 6.06489C11.3898 6.06783 11.3632 6.06937 11.3325 6.0624C11.3002 6.05506 11.2677 6.03915 11.2401 6.01338C11.2134 5.98838 11.1981 5.96039 11.1895 5.93739C11.1811 5.91501 11.1783 5.89532 11.1774 5.88182C11.1764 5.868 11.177 5.8564 11.1778 5.84819C11.1786 5.83976 11.1798 5.83265 11.1809 5.82729C11.183 5.81688 11.1856 5.80866 11.1872 5.80374C11.189 5.79846 11.1907 5.79413 11.1919 5.79109C11.1944 5.78516 11.1966 5.78054 11.1979 5.77795L11.5557 5.95684ZM11.5182 6.00882C12.1994 5.32763 13.3085 5.32743 13.9897 6.0086L14.2726 5.72575C13.4351 4.88832 12.0727 4.88863 11.2354 5.72597L11.5182 6.00882ZM13.9897 6.00859C14.32 6.33896 14.5016 6.77718 14.5016 7.24428H14.9016C14.9016 6.67106 14.6779 6.13112 14.2726 5.72577L13.9897 6.00859ZM14.5016 7.24428C14.5016 7.71134 14.3201 8.14948 13.9898 8.47984L14.2727 8.76265C14.678 8.35729 14.9016 7.81743 14.9016 7.24428H14.5016ZM13.9899 8.47982L12.1537 10.3161L12.4365 10.5989L14.2727 8.76266L13.9899 8.47982ZM12.1537 10.3161C11.8221 10.6476 11.8221 11.1853 12.1537 11.5169L12.4366 11.2341C12.2611 11.0587 12.2611 10.7743 12.4365 10.5989L12.1537 10.3161ZM12.1537 11.5169C12.3195 11.6827 12.5371 11.7657 12.7541 11.7657V11.3657C12.6389 11.3657 12.5243 11.3219 12.4366 11.2341L12.1537 11.5169ZM12.7541 11.7657C12.9712 11.7657 13.1888 11.6827 13.3546 11.5169L13.0718 11.2341C12.984 11.3219 12.8694 11.3657 12.7541 11.3657V11.7657ZM13.3546 11.5169L15.1907 9.68084L14.9078 9.398L13.0718 11.2341L13.3546 11.5169ZM15.1907 9.68084C15.1907 9.68084 15.1907 9.68084 15.1907 9.68084L15.1907 9.68084C15.1907 9.68084 15.1907 9.68084 15.1907 9.68084L15.1907 9.68084C15.1907 9.68084 15.1907 9.68084 15.1907 9.68084L15.1907 9.68084C15.1907 9.68084 15.1907 9.68084 15.1907 9.68084L15.1907 9.68084C15.1907 9.68084 15.1907 9.68084 15.1907 9.68084C15.1907 9.68084 15.1907 9.68084 15.1907 9.68084C15.1907 9.68084 15.1907 9.68084 15.1907 9.68084C15.1907 9.68084 15.1907 9.68084 15.1907 9.68084L15.1907 9.68084C15.1907 9.68083 15.1907 9.68083 15.1907 9.68083C15.1907 9.68083 15.1907 9.68083 15.1907 9.68083L15.1907 9.68083C15.1907 9.68083 15.1907 9.68083 15.1907 9.68083C15.1907 9.68083 15.1907 9.68083 15.1907 9.68083L15.1907 9.68083C15.1907 9.68083 15.1907 9.68083 15.1907 9.68083C15.1907 9.68083 15.1907 9.68083 15.1907 9.68083C15.1907 9.68083 15.1907 9.68083 15.1907 9.68083C15.1907 9.68083 15.1907 9.68083 15.1907 9.68083L15.1907 9.68083C15.1907 9.68083 15.1907 9.68083 15.1907 9.68083C15.1907 9.68083 15.1907 9.68083 15.1907 9.68083C15.1907 9.68083 15.1907 9.68083 15.1907 9.68083C15.1907 9.68083 15.1907 9.68083 15.1907 9.68083C15.1907 9.68083 15.1907 9.68083 15.1907 9.68083C15.1907 9.68083 15.1907 9.68083 15.1907 9.68083C15.1907 9.68083 15.1907 9.68083 15.1907 9.68082C15.1907 9.68082 15.1907 9.68082 15.1907 9.68082C15.1907 9.68082 15.1907 9.68082 15.1907 9.68082C15.1907 9.68082 15.1907 9.68082 15.1907 9.68082C15.1907 9.68082 15.1907 9.68082 15.1907 9.68082C15.1907 9.68082 15.1907 9.68082 15.1907 9.68082C15.1907 9.68082 15.1907 9.68082 15.1907 9.68082C15.1907 9.68082 15.1907 9.68082 15.1907 9.68082C15.1907 9.68082 15.1907 9.68082 15.1907 9.68082C15.1907 9.68082 15.1907 9.68082 15.1907 9.68082C15.1907 9.68082 15.1907 9.68082 15.1907 9.68082C15.1907 9.68082 15.1907 9.68082 15.1907 9.68082C15.1907 9.68082 15.1907 9.68082 15.1907 9.68082C15.1907 9.68082 15.1907 9.68082 15.1907 9.68082C15.1907 9.68082 15.1907 9.68082 15.1907 9.68082C15.1907 9.68082 15.1907 9.68082 15.1907 9.68082C15.1907 9.68082 15.1907 9.68082 15.1907 9.68082C15.1907 9.68082 15.1907 9.68082 15.1907 9.68082C15.1907 9.68082 15.1907 9.68082 15.1907 9.68082C15.1907 9.68082 15.1907 9.68082 15.1907 9.68082C15.1907 9.68082 15.1907 9.68082 15.1907 9.68082C15.1907 9.68082 15.1907 9.68082 15.1907 9.68082C15.1907 9.68082 15.1907 9.68082 15.1907 9.68082C15.1907 9.68081 15.1907 9.68081 15.1907 9.68081L15.1907 9.68081C15.1907 9.68081 15.1907 9.68081 15.1907 9.68081C15.1907 9.68081 15.1907 9.68081 15.1907 9.68081C15.1907 9.68081 15.1907 9.68081 15.1907 9.68081C15.1907 9.68081 15.1907 9.68081 15.1907 9.68081C15.1907 9.68081 15.1907 9.68081 15.1907 9.68081C15.1907 9.68081 15.1907 9.68081 15.1907 9.68081C15.1907 9.68081 15.1907 9.68081 15.1907 9.68081C15.1907 9.68081 15.1907 9.68081 15.1907 9.68081C15.1907 9.68081 15.1907 9.68081 15.1907 9.68081C15.1907 9.68081 15.1907 9.68081 15.1907 9.68081C15.1907 9.68081 15.1907 9.68081 15.1907 9.68081C15.1907 9.68081 15.1907 9.68081 15.1907 9.68081C15.1907 9.68081 15.1907 9.68081 15.1907 9.68081C15.1907 9.68081 15.1907 9.68081 15.1907 9.68081C15.1907 9.68081 15.1907 9.68081 15.1907 9.68081C15.1907 9.68081 15.1907 9.68081 15.1907 9.68081C15.1907 9.68081 15.1907 9.68081 15.1907 9.68081H15.1907C15.1907 9.68081 15.1907 9.68081 15.1907 9.68081H15.1907C15.1907 9.68081 15.1907 9.68081 15.1907 9.68081H15.1907C15.1907 9.68081 15.1907 9.68081 15.1907 9.68081H15.1907V9.68081C14.9079 9.39796 14.9079 9.39796 14.9079 9.39796C14.9079 9.39796 14.9079 9.39796 14.9079 9.39796C14.9079 9.39796 14.9079 9.39796 14.9079 9.39796C14.9079 9.39796 14.9079 9.39796 14.9079 9.39796C14.9079 9.39796 14.9079 9.39796 14.9079 9.39796C14.9079 9.39796 14.9079 9.39796 14.9079 9.39796C14.9079 9.39796 14.9079 9.39796 14.9079 9.39797H14.9079C14.9079 9.39797 14.9079 9.39797 14.9079 9.39797C14.9079 9.39797 14.9079 9.39797 14.9079 9.39797C14.9079 9.39797 14.9079 9.39797 14.9079 9.39797V9.39797C14.9079 9.39797 14.9079 9.39797 14.9079 9.39797V9.39797C14.9079 9.39797 14.9079 9.39797 14.9079 9.39797V9.39797H14.9079C14.9079 9.39797 14.9079 9.39797 14.9079 9.39797C14.9078 9.39797 14.9078 9.39797 14.9078 9.39797C14.9078 9.39797 14.9078 9.39797 14.9078 9.39797C14.9078 9.39797 14.9078 9.39797 14.9078 9.39797C14.9078 9.39797 14.9078 9.39797 14.9078 9.39797C14.9078 9.39797 14.9078 9.39797 14.9078 9.39797C14.9078 9.39797 14.9078 9.39797 14.9078 9.39797C14.9078 9.39797 14.9078 9.39797 14.9078 9.39797H14.9078C14.9078 9.39797 14.9078 9.39797 14.9078 9.39797C14.9078 9.39797 14.9078 9.39797 14.9078 9.39797C14.9078 9.39797 14.9078 9.39797 14.9078 9.39797C14.9078 9.39797 14.9078 9.39797 14.9078 9.39797C14.9078 9.39797 14.9078 9.39797 14.9078 9.39797C14.9078 9.39797 14.9078 9.39797 14.9078 9.39797C14.9078 9.39797 14.9078 9.39797 14.9078 9.39797C14.9078 9.39797 14.9078 9.39797 14.9078 9.39797C14.9078 9.39797 14.9078 9.39797 14.9078 9.39797C14.9078 9.39797 14.9078 9.39797 14.9078 9.39797C14.9078 9.39797 14.9078 9.39797 14.9078 9.39798C14.9078 9.39798 14.9078 9.39798 14.9078 9.39798C14.9078 9.39798 14.9078 9.39798 14.9078 9.39798C14.9078 9.39798 14.9078 9.39798 14.9078 9.39798C14.9078 9.39798 14.9078 9.39798 14.9078 9.39798C14.9078 9.39798 14.9078 9.39798 14.9078 9.39798C14.9078 9.39798 14.9078 9.39798 14.9078 9.39798C14.9078 9.39798 14.9078 9.39798 14.9078 9.39798C14.9078 9.39798 14.9078 9.39798 14.9078 9.39798C14.9078 9.39798 14.9078 9.39798 14.9078 9.39798C14.9078 9.39798 14.9078 9.39798 14.9078 9.39798C14.9078 9.39798 14.9078 9.39798 14.9078 9.39798C14.9078 9.39798 14.9078 9.39798 14.9078 9.39798C14.9078 9.39798 14.9078 9.39798 14.9078 9.39798C14.9078 9.39798 14.9078 9.39798 14.9078 9.39798C14.9078 9.39798 14.9078 9.39798 14.9078 9.39798C14.9078 9.39798 14.9078 9.39798 14.9078 9.39798C14.9078 9.39798 14.9078 9.39798 14.9078 9.39798C14.9078 9.39798 14.9078 9.39798 14.9078 9.39798C14.9078 9.39798 14.9078 9.39798 14.9078 9.39798L14.9078 9.39798C14.9078 9.39798 14.9078 9.39798 14.9078 9.39798C14.9078 9.39798 14.9078 9.39798 14.9078 9.39798C14.9078 9.39798 14.9078 9.39798 14.9078 9.39798C14.9078 9.39798 14.9078 9.39798 14.9078 9.39798C14.9078 9.39798 14.9078 9.39798 14.9078 9.39798C14.9078 9.39798 14.9078 9.39798 14.9078 9.39798C14.9078 9.39798 14.9078 9.39798 14.9078 9.39798C14.9078 9.39798 14.9078 9.39798 14.9078 9.39798C14.9078 9.39798 14.9078 9.39799 14.9078 9.39799C14.9078 9.39799 14.9078 9.39799 14.9078 9.39799C14.9078 9.39799 14.9078 9.39799 14.9078 9.39799L14.9078 9.39799C14.9078 9.39799 14.9078 9.39799 14.9078 9.39799C14.9078 9.39799 14.9078 9.39799 14.9078 9.39799L14.9078 9.39799C14.9078 9.39799 14.9078 9.39799 14.9078 9.39799C14.9078 9.39799 14.9078 9.39799 14.9078 9.39799L14.9078 9.39799C14.9078 9.39799 14.9078 9.39799 14.9078 9.39799C14.9078 9.39799 14.9078 9.39799 14.9078 9.39799C14.9078 9.39799 14.9078 9.39799 14.9078 9.39799C14.9078 9.39799 14.9078 9.39799 14.9078 9.39799C14.9078 9.39799 14.9078 9.39799 14.9078 9.39799C14.9078 9.39799 14.9078 9.39799 14.9078 9.39799C14.9078 9.39799 14.9078 9.39799 14.9078 9.39799C14.9078 9.39799 14.9078 9.39799 14.9078 9.39799C14.9078 9.39799 14.9078 9.39799 14.9078 9.39799C14.9078 9.39799 14.9078 9.39799 14.9078 9.39799C14.9078 9.39799 14.9078 9.39799 14.9078 9.39799L14.9078 9.39799C14.9078 9.39799 14.9078 9.39799 14.9078 9.39799C14.9078 9.39799 14.9078 9.39799 14.9078 9.39799C14.9078 9.398 14.9078 9.398 14.9078 9.398C14.9078 9.398 14.9078 9.398 14.9078 9.398L14.9078 9.398C14.9078 9.398 14.9078 9.398 14.9078 9.398C14.9078 9.398 14.9078 9.398 14.9078 9.398C14.9078 9.398 14.9078 9.398 14.9078 9.398C14.9078 9.398 14.9078 9.398 14.9078 9.398C14.9078 9.398 14.9078 9.398 14.9078 9.398C14.9078 9.398 14.9078 9.398 14.9078 9.398C14.9078 9.398 14.9078 9.398 14.9078 9.398C14.9078 9.398 14.9078 9.398 14.9078 9.398C14.9078 9.398 14.9078 9.398 14.9078 9.398C14.9078 9.398 14.9078 9.398 14.9078 9.398C14.9078 9.398 14.9078 9.398 14.9078 9.398C14.9078 9.398 14.9078 9.398 14.9078 9.398C14.9078 9.398 14.9078 9.398 14.9078 9.398C14.9078 9.398 14.9078 9.398 14.9078 9.398C14.9078 9.398 14.9078 9.398 14.9078 9.398C14.9078 9.398 14.9078 9.398 14.9078 9.398C14.9078 9.398 14.9078 9.398 14.9078 9.398C14.9078 9.398 14.9078 9.398 14.9078 9.398C14.9078 9.398 14.9078 9.398 14.9078 9.398C14.9078 9.398 14.9078 9.398 14.9078 9.398C14.9078 9.39801 14.9078 9.39801 14.9078 9.39801C14.9078 9.39801 14.9078 9.39801 14.9078 9.39801C14.9078 9.39801 14.9078 9.39801 14.9078 9.39801C14.9078 9.39801 14.9078 9.39801 14.9078 9.39801C14.9078 9.39801 14.9078 9.39801 14.9078 9.39801C14.9078 9.39801 14.9078 9.39801 14.9078 9.39801L14.9078 9.39801C14.9078 9.39801 14.9078 9.39801 14.9078 9.39801C14.9078 9.39801 14.9078 9.39801 14.9078 9.39801C14.9078 9.39801 14.9078 9.39801 14.9078 9.39801C14.9078 9.39801 14.9078 9.39801 14.9078 9.39801L14.9078 9.39801C14.9078 9.39801 14.9078 9.39801 14.9078 9.39801C14.9078 9.39801 14.9078 9.39801 14.9078 9.39801C14.9078 9.39801 14.9078 9.39801 14.9078 9.39801C14.9078 9.39801 14.9078 9.39801 14.9078 9.39801C14.9078 9.39801 14.9078 9.39801 14.9078 9.39801C14.9078 9.39801 14.9078 9.39801 14.9078 9.39801C14.9078 9.39801 14.9078 9.39801 14.9078 9.39801C14.9078 9.39801 14.9078 9.39801 14.9078 9.39801C14.9078 9.39801 14.9078 9.39801 14.9078 9.39801C14.9078 9.39801 14.9078 9.39801 14.9078 9.39801C14.9078 9.39801 14.9078 9.39801 14.9078 9.39801L14.9078 9.39801C14.9078 9.39801 14.9078 9.39801 14.9078 9.39801C14.9078 9.39802 14.9078 9.39802 14.9078 9.39802L14.9078 9.39802C14.9078 9.39802 14.9078 9.39802 14.9078 9.39802C14.9078 9.39802 14.9078 9.39802 14.9078 9.39802L14.9078 9.39802C14.9078 9.39802 14.9078 9.39802 14.9078 9.39802C14.9078 9.39802 14.9078 9.39802 14.9078 9.39802C14.9078 9.39802 14.9078 9.39802 14.9078 9.39802C14.9078 9.39802 14.9078 9.39802 14.9078 9.39802C14.9078 9.39802 14.9078 9.39802 14.9078 9.39802C14.9078 9.39802 14.9078 9.39802 14.9078 9.39802C14.9078 9.39802 14.9078 9.39802 14.9078 9.39802C14.9078 9.39802 14.9078 9.39802 14.9078 9.39802C14.9078 9.39802 14.9078 9.39802 14.9078 9.39802C14.9078 9.39802 14.9078 9.39802 14.9078 9.39802C14.9078 9.39802 14.9078 9.39802 14.9078 9.39802L14.9078 9.39802C14.9078 9.39802 14.9078 9.39802 14.9078 9.39802C14.9078 9.39802 14.9078 9.39802 14.9078 9.39802C14.9078 9.39802 14.9078 9.39802 14.9078 9.39802C14.9078 9.39802 14.9078 9.39802 14.9078 9.39802C14.9078 9.39802 14.9078 9.39802 14.9078 9.39802C14.9078 9.39802 14.9078 9.39802 14.9078 9.39802C14.9078 9.39802 14.9078 9.39802 14.9078 9.39802C14.9078 9.39802 14.9078 9.39802 14.9078 9.39802C14.9078 9.39802 14.9078 9.39802 14.9078 9.39802C14.9078 9.39802 14.9078 9.39802 14.9078 9.39802C14.9078 9.39803 14.9078 9.39803 14.9078 9.39803C14.9078 9.39803 14.9078 9.39803 14.9078 9.39803C14.9078 9.39803 14.9078 9.39803 14.9078 9.39803C14.9078 9.39803 14.9078 9.39803 14.9078 9.39803C14.9078 9.39803 14.9078 9.39803 14.9078 9.39803C14.9078 9.39803 14.9078 9.39803 14.9078 9.39803C14.9078 9.39803 14.9078 9.39803 14.9078 9.39803C14.9078 9.39803 14.9078 9.39803 14.9078 9.39803C14.9078 9.39803 14.9078 9.39803 14.9078 9.39803C14.9078 9.39803 14.9078 9.39803 14.9078 9.39803C14.9078 9.39803 14.9078 9.39803 14.9078 9.39803C14.9078 9.39803 14.9078 9.39803 14.9078 9.39803C14.9078 9.39803 14.9078 9.39803 14.9078 9.39803C14.9078 9.39803 14.9078 9.39803 14.9078 9.39803C14.9078 9.39803 14.9078 9.39803 14.9078 9.39803C14.9078 9.39803 14.9078 9.39803 14.9078 9.39803C14.9078 9.39803 14.9078 9.39803 14.9078 9.39803C14.9078 9.39803 14.9078 9.39803 14.9078 9.39803C14.9078 9.39803 14.9078 9.39803 14.9078 9.39803C14.9078 9.39803 14.9078 9.39803 14.9078 9.39803V9.39803C14.9078 9.39803 14.9078 9.39803 14.9078 9.39803C14.9078 9.39803 14.9078 9.39803 14.9078 9.39803C14.9078 9.39803 14.9078 9.39803 14.9078 9.39803C14.9078 9.39803 14.9078 9.39803 14.9078 9.39803C14.9078 9.39803 14.9078 9.39803 14.9078 9.39803C14.9078 9.39803 14.9078 9.39803 14.9078 9.39803C14.9078 9.39803 14.9078 9.39803 14.9078 9.39804C14.9078 9.39804 14.9078 9.39804 14.9078 9.39804V9.39804H14.9078C14.9078 9.39804 14.9078 9.39804 14.9078 9.39804H14.9078C14.9078 9.39804 14.9078 9.39804 14.9078 9.39804H14.9078C14.9078 9.39804 14.9078 9.39804 14.9078 9.39804C14.9078 9.39804 14.9078 9.39804 14.9078 9.39804C14.9078 9.39804 14.9078 9.39804 14.9078 9.39804V9.39804C14.9078 9.39804 14.9078 9.39804 14.9078 9.39804C14.9078 9.39804 14.9078 9.39804 14.9078 9.39804C14.9078 9.39804 14.9078 9.39804 14.9078 9.39804C14.9078 9.39804 14.9078 9.39804 14.9078 9.39804C14.9078 9.39804 14.9078 9.39804 14.9078 9.39804C14.9078 9.39804 14.9078 9.39804 14.9078 9.39804C14.9078 9.39804 14.9078 9.39804 15.1906 9.68088H15.1906V9.68088C15.1906 9.68088 15.1906 9.68088 15.1906 9.68088V9.68088C15.1906 9.68088 15.1906 9.68088 15.1906 9.68088V9.68088C15.1906 9.68088 15.1906 9.68088 15.1906 9.68088V9.68088C15.1906 9.68088 15.1906 9.68088 15.1906 9.68088C15.1906 9.68088 15.1906 9.68088 15.1906 9.68088C15.1906 9.68088 15.1906 9.68088 15.1906 9.68088C15.1906 9.68088 15.1906 9.68088 15.1906 9.68088C15.1906 9.68088 15.1906 9.68088 15.1906 9.68088C15.1906 9.68088 15.1906 9.68088 15.1906 9.68088C15.1906 9.68088 15.1906 9.68088 15.1906 9.68088C15.1906 9.68088 15.1906 9.68088 15.1906 9.68088C15.1906 9.68088 15.1906 9.68088 15.1906 9.68088C15.1906 9.68088 15.1906 9.68088 15.1906 9.68088C15.1906 9.68088 15.1906 9.68088 15.1906 9.68088C15.1906 9.68088 15.1906 9.68088 15.1906 9.68088C15.1906 9.68088 15.1906 9.68088 15.1906 9.68088C15.1906 9.68088 15.1906 9.68088 15.1906 9.68088C15.1906 9.68088 15.1906 9.68087 15.1906 9.68087C15.1906 9.68087 15.1906 9.68087 15.1906 9.68087C15.1906 9.68087 15.1906 9.68087 15.1906 9.68087L15.1906 9.68087C15.1906 9.68087 15.1906 9.68087 15.1906 9.68087C15.1906 9.68087 15.1906 9.68087 15.1906 9.68087C15.1906 9.68087 15.1906 9.68087 15.1906 9.68087C15.1906 9.68087 15.1906 9.68087 15.1906 9.68087C15.1906 9.68087 15.1906 9.68087 15.1906 9.68087C15.1906 9.68087 15.1906 9.68087 15.1906 9.68087C15.1906 9.68087 15.1906 9.68087 15.1906 9.68087C15.1906 9.68087 15.1906 9.68087 15.1906 9.68087C15.1906 9.68087 15.1906 9.68087 15.1906 9.68087C15.1906 9.68087 15.1906 9.68087 15.1906 9.68087C15.1906 9.68087 15.1906 9.68087 15.1906 9.68087C15.1906 9.68087 15.1906 9.68087 15.1906 9.68087C15.1906 9.68087 15.1906 9.68087 15.1906 9.68087C15.1906 9.68087 15.1906 9.68087 15.1906 9.68087C15.1906 9.68087 15.1906 9.68087 15.1906 9.68087C15.1906 9.68087 15.1906 9.68087 15.1906 9.68087C15.1906 9.68087 15.1906 9.68087 15.1906 9.68087C15.1906 9.68087 15.1906 9.68087 15.1906 9.68087C15.1906 9.68087 15.1906 9.68087 15.1906 9.68087C15.1906 9.68087 15.1906 9.68087 15.1906 9.68087C15.1906 9.68087 15.1906 9.68086 15.1906 9.68086C15.1906 9.68086 15.1906 9.68086 15.1906 9.68086C15.1906 9.68086 15.1906 9.68086 15.1906 9.68086C15.1906 9.68086 15.1906 9.68086 15.1906 9.68086C15.1906 9.68086 15.1906 9.68086 15.1906 9.68086C15.1906 9.68086 15.1906 9.68086 15.1906 9.68086C15.1906 9.68086 15.1906 9.68086 15.1906 9.68086C15.1906 9.68086 15.1906 9.68086 15.1906 9.68086C15.1906 9.68086 15.1906 9.68086 15.1906 9.68086C15.1906 9.68086 15.1906 9.68086 15.1906 9.68086L15.1906 9.68086C15.1906 9.68086 15.1906 9.68086 15.1906 9.68086C15.1906 9.68086 15.1906 9.68086 15.1906 9.68086C15.1906 9.68086 15.1906 9.68086 15.1906 9.68086C15.1906 9.68086 15.1906 9.68086 15.1906 9.68086L15.1906 9.68086C15.1906 9.68086 15.1906 9.68086 15.1906 9.68086C15.1906 9.68086 15.1906 9.68086 15.1906 9.68086L15.1906 9.68085C15.1906 9.68085 15.1906 9.68085 15.1906 9.68085C15.1906 9.68085 15.1906 9.68085 15.1907 9.68085L15.1907 9.68085C15.1907 9.68085 15.1907 9.68085 15.1907 9.68085C15.1907 9.68085 15.1907 9.68085 15.1907 9.68085C15.1907 9.68085 15.1907 9.68085 15.1907 9.68085C15.1907 9.68085 15.1907 9.68085 15.1907 9.68085L15.1907 9.68085C15.1907 9.68085 15.1907 9.68085 15.1907 9.68085L15.1907 9.68085C15.1907 9.68085 15.1907 9.68085 15.1907 9.68085L15.1907 9.68085C15.1907 9.68085 15.1907 9.68085 15.1907 9.68085L15.1907 9.68085C15.1907 9.68084 15.1907 9.68084 15.1907 9.68084L14.9078 9.398C14.9078 9.398 14.9078 9.398 14.9078 9.398L14.9078 9.398C14.9078 9.398 14.9078 9.398 14.9078 9.398L14.9078 9.398C14.9078 9.39801 14.9078 9.39801 14.9078 9.39801L14.9078 9.39801C14.9078 9.39801 14.9078 9.39801 14.9078 9.39801L14.9078 9.39801C14.9078 9.39801 14.9078 9.39801 14.9078 9.39801C14.9078 9.39801 14.9078 9.39801 14.9078 9.39801C14.9078 9.39801 14.9078 9.39801 14.9078 9.39801C14.9078 9.39801 14.9078 9.39801 14.9078 9.39801L14.9078 9.39801C14.9078 9.39801 14.9078 9.39801 14.9078 9.39801C14.9078 9.39801 14.9078 9.39801 14.9078 9.39801L14.9078 9.39801C14.9078 9.39801 14.9078 9.39801 14.9078 9.39801C14.9078 9.39801 14.9078 9.39801 14.9078 9.39801L14.9078 9.39801C14.9078 9.39801 14.9078 9.39802 14.9078 9.39802C14.9078 9.39802 14.9078 9.39802 14.9078 9.39802C14.9078 9.39802 14.9078 9.39802 14.9078 9.39802C14.9078 9.39802 14.9078 9.39802 14.9078 9.39802L14.9078 9.39802C14.9078 9.39802 14.9078 9.39802 14.9078 9.39802C14.9078 9.39802 14.9078 9.39802 14.9078 9.39802C14.9078 9.39802 14.9078 9.39802 14.9078 9.39802C14.9078 9.39802 14.9078 9.39802 14.9078 9.39802C14.9078 9.39802 14.9078 9.39802 14.9078 9.39802C14.9078 9.39802 14.9078 9.39802 14.9078 9.39802C14.9078 9.39802 14.9078 9.39802 14.9078 9.39802C14.9078 9.39802 14.9078 9.39802 14.9078 9.39802C14.9078 9.39802 14.9078 9.39802 14.9078 9.39802C14.9078 9.39802 14.9078 9.39802 14.9078 9.39802C14.9078 9.39802 14.9078 9.39802 14.9078 9.39802C14.9078 9.39802 14.9078 9.39802 14.9078 9.39802C14.9078 9.39802 14.9078 9.39802 14.9078 9.39802C14.9078 9.39802 14.9078 9.39802 14.9078 9.39802C14.9078 9.39802 14.9078 9.39802 14.9078 9.39803C14.9078 9.39803 14.9078 9.39803 14.9078 9.39803C14.9078 9.39803 14.9078 9.39803 14.9078 9.39803C14.9078 9.39803 14.9078 9.39803 14.9078 9.39803C14.9078 9.39803 14.9078 9.39803 14.9078 9.39803C14.9078 9.39803 14.9078 9.39803 14.9078 9.39803C14.9078 9.39803 14.9078 9.39803 14.9078 9.39803C14.9078 9.39803 14.9078 9.39803 14.9078 9.39803C14.9078 9.39803 14.9078 9.39803 14.9078 9.39803C14.9078 9.39803 14.9078 9.39803 14.9078 9.39803C14.9078 9.39803 14.9078 9.39803 14.9078 9.39803C14.9078 9.39803 14.9078 9.39803 14.9078 9.39803C14.9078 9.39803 14.9078 9.39803 14.9078 9.39803C14.9078 9.39803 14.9078 9.39803 14.9078 9.39803C14.9078 9.39803 14.9078 9.39803 14.9078 9.39803C14.9078 9.39803 14.9078 9.39803 14.9078 9.39803L14.9078 9.39803C14.9078 9.39803 14.9078 9.39803 14.9078 9.39803C14.9078 9.39803 14.9078 9.39803 14.9078 9.39803C14.9078 9.39803 14.9078 9.39803 14.9078 9.39803C14.9078 9.39803 14.9078 9.39803 14.9078 9.39803C14.9078 9.39803 14.9078 9.39803 14.9078 9.39803C14.9078 9.39803 14.9078 9.39803 14.9078 9.39803C14.9078 9.39803 14.9078 9.39803 14.9078 9.39803C14.9078 9.39803 14.9078 9.39803 14.9078 9.39803C14.9078 9.39803 14.9078 9.39803 14.9078 9.39803C14.9078 9.39803 14.9078 9.39803 14.9078 9.39803C14.9078 9.39804 14.9078 9.39804 14.9078 9.39804C14.9078 9.39804 14.9078 9.39804 14.9078 9.39804C14.9078 9.39804 14.9078 9.39804 14.9078 9.39804C14.9078 9.39804 14.9078 9.39804 14.9078 9.39804C14.9078 9.39804 14.9078 9.39804 14.9078 9.39804C14.9078 9.39804 14.9078 9.39804 14.9078 9.39804C14.9078 9.39804 14.9078 9.39804 14.9078 9.39804H14.9078C14.9078 9.39804 14.9078 9.39804 14.9078 9.39804H14.9078C14.9078 9.39804 14.9078 9.39804 14.9078 9.39804H14.9078C14.9078 9.39804 14.9078 9.39804 14.9078 9.39804H14.9078V9.39804C15.1906 9.68088 15.1906 9.68088 15.1906 9.68088C15.1906 9.68088 15.1906 9.68088 15.1906 9.68088C15.1906 9.68088 15.1906 9.68088 15.1906 9.68088C15.1906 9.68088 15.1906 9.68088 15.1906 9.68088C15.1906 9.68088 15.1906 9.68088 15.1906 9.68088C15.1906 9.68088 15.1906 9.68088 15.1906 9.68088C15.1906 9.68088 15.1906 9.68088 15.1906 9.68088H15.1906C15.1906 9.68088 15.1906 9.68088 15.1906 9.68088C15.1906 9.68088 15.1906 9.68088 15.1906 9.68088C15.1906 9.68088 15.1906 9.68088 15.1906 9.68088V9.68088C15.1906 9.68088 15.1906 9.68088 15.1906 9.68088V9.68088C15.1906 9.68088 15.1906 9.68088 15.1906 9.68088V9.68088H15.1906C15.1906 9.68088 15.1906 9.68088 15.1906 9.68088C15.1906 9.68088 15.1906 9.68088 15.1906 9.68088C15.1906 9.68088 15.1906 9.68088 15.1906 9.68088C15.1906 9.68088 15.1906 9.68088 15.1906 9.68088C15.1906 9.68088 15.1906 9.68088 15.1906 9.68088C15.1906 9.68088 15.1906 9.68088 15.1906 9.68088C15.1906 9.68088 15.1906 9.68088 15.1906 9.68088C15.1906 9.68088 15.1906 9.68088 15.1906 9.68087H15.1906C15.1906 9.68087 15.1906 9.68087 15.1906 9.68087C15.1906 9.68087 15.1906 9.68087 15.1906 9.68087C15.1906 9.68087 15.1906 9.68087 15.1906 9.68087C15.1906 9.68087 15.1906 9.68087 15.1906 9.68087C15.1906 9.68087 15.1906 9.68087 15.1906 9.68087C15.1906 9.68087 15.1906 9.68087 15.1906 9.68087C15.1906 9.68087 15.1906 9.68087 15.1906 9.68087C15.1906 9.68087 15.1906 9.68087 15.1906 9.68087C15.1906 9.68087 15.1906 9.68087 15.1906 9.68087C15.1906 9.68087 15.1906 9.68087 15.1906 9.68087C15.1906 9.68087 15.1906 9.68087 15.1906 9.68087C15.1906 9.68087 15.1906 9.68087 15.1906 9.68087C15.1906 9.68087 15.1906 9.68087 15.1906 9.68087C15.1906 9.68087 15.1906 9.68087 15.1906 9.68087C15.1906 9.68087 15.1906 9.68087 15.1906 9.68087C15.1906 9.68087 15.1906 9.68087 15.1906 9.68087C15.1906 9.68087 15.1906 9.68087 15.1906 9.68087C15.1906 9.68087 15.1906 9.68087 15.1906 9.68087C15.1906 9.68087 15.1906 9.68087 15.1906 9.68087C15.1906 9.68087 15.1906 9.68087 15.1906 9.68087C15.1906 9.68087 15.1906 9.68087 15.1906 9.68087C15.1906 9.68087 15.1906 9.68087 15.1906 9.68087C15.1906 9.68087 15.1906 9.68087 15.1906 9.68087C15.1906 9.68087 15.1906 9.68087 15.1906 9.68087C15.1906 9.68087 15.1906 9.68087 15.1906 9.68087C15.1906 9.68087 15.1906 9.68087 15.1906 9.68087C15.1906 9.68087 15.1906 9.68087 15.1906 9.68087C15.1906 9.68087 15.1906 9.68087 15.1906 9.68086C15.1906 9.68086 15.1906 9.68086 15.1906 9.68086C15.1906 9.68086 15.1906 9.68086 15.1906 9.68086L15.1906 9.68086C15.1906 9.68086 15.1906 9.68086 15.1906 9.68086C15.1906 9.68086 15.1906 9.68086 15.1906 9.68086C15.1906 9.68086 15.1906 9.68086 15.1906 9.68086C15.1906 9.68086 15.1906 9.68086 15.1906 9.68086C15.1906 9.68086 15.1906 9.68086 15.1906 9.68086C15.1906 9.68086 15.1906 9.68086 15.1906 9.68086C15.1906 9.68086 15.1906 9.68086 15.1906 9.68086C15.1906 9.68086 15.1906 9.68086 15.1906 9.68086C15.1906 9.68086 15.1906 9.68086 15.1906 9.68086C15.1906 9.68086 15.1906 9.68086 15.1906 9.68086C15.1906 9.68086 15.1906 9.68086 15.1906 9.68086L15.1906 9.68086C15.1906 9.68086 15.1906 9.68086 15.1906 9.68086C15.1906 9.68086 15.1906 9.68086 15.1906 9.68086L15.1906 9.68086C15.1906 9.68086 15.1906 9.68086 15.1906 9.68086C15.1906 9.68086 15.1906 9.68086 15.1906 9.68086L15.1906 9.68086C15.1906 9.68086 15.1906 9.68086 15.1906 9.68086C15.1906 9.68086 15.1906 9.68086 15.1906 9.68086C15.1906 9.68086 15.1906 9.68085 15.1906 9.68085C15.1906 9.68085 15.1906 9.68085 15.1906 9.68085C15.1906 9.68085 15.1906 9.68085 15.1906 9.68085C15.1906 9.68085 15.1906 9.68085 15.1906 9.68085C15.1907 9.68085 15.1907 9.68085 15.1907 9.68085C15.1907 9.68085 15.1907 9.68085 15.1907 9.68085C15.1907 9.68085 15.1907 9.68085 15.1907 9.68085C15.1907 9.68085 15.1907 9.68085 15.1907 9.68085C15.1907 9.68085 15.1907 9.68085 15.1907 9.68085L15.1907 9.68085C15.1907 9.68085 15.1907 9.68085 15.1907 9.68085C15.1907 9.68085 15.1907 9.68085 15.1907 9.68085C15.1907 9.68085 15.1907 9.68085 15.1907 9.68085C15.1907 9.68085 15.1907 9.68085 15.1907 9.68085L15.1907 9.68085C15.1907 9.68085 15.1907 9.68085 15.1907 9.68085C15.1907 9.68085 15.1907 9.68085 15.1907 9.68085C15.1907 9.68085 15.1907 9.68085 15.1907 9.68085C15.1907 9.68085 15.1907 9.68085 15.1907 9.68085C15.1907 9.68085 15.1907 9.68085 15.1907 9.68085C15.1907 9.68085 15.1907 9.68085 15.1907 9.68085C15.1907 9.68085 15.1907 9.68085 15.1907 9.68085C15.1907 9.68085 15.1907 9.68085 15.1907 9.68085C15.1907 9.68085 15.1907 9.68085 15.1907 9.68085C15.1907 9.68085 15.1907 9.68085 15.1907 9.68085C15.1907 9.68085 15.1907 9.68085 15.1907 9.68085C15.1907 9.68084 15.1907 9.68084 15.1907 9.68084C15.1907 9.68084 15.1907 9.68084 15.1907 9.68084C15.1907 9.68084 15.1907 9.68084 15.1907 9.68084C15.1907 9.68084 15.1907 9.68084 15.1907 9.68084C15.1907 9.68084 15.1907 9.68084 15.1907 9.68084C15.1907 9.68084 15.1907 9.68084 15.1907 9.68084C15.1907 9.68084 15.1907 9.68084 15.1907 9.68084C15.1907 9.68084 15.1907 9.68084 15.1907 9.68084C15.1907 9.68084 15.1907 9.68084 15.1907 9.68084C15.1907 9.68084 15.1907 9.68084 15.1907 9.68084C15.1907 9.68084 15.1907 9.68084 15.1907 9.68084C15.1907 9.68084 15.1907 9.68084 15.1907 9.68084C15.1907 9.68084 15.1907 9.68084 15.1907 9.68084C15.1907 9.68084 15.1907 9.68084 15.1907 9.68084C15.1907 9.68084 15.1907 9.68084 15.1907 9.68084L15.1907 9.68084C15.1907 9.68084 15.1907 9.68084 15.1907 9.68084C15.1907 9.68084 15.1907 9.68084 15.1907 9.68084C15.1907 9.68084 15.1907 9.68084 15.1907 9.68084C15.1907 9.68084 15.1907 9.68084 15.1907 9.68084L15.1907 9.68084C15.1907 9.68084 15.1907 9.68084 15.1907 9.68084C15.1907 9.68084 15.1907 9.68084 15.1907 9.68084C15.1907 9.68084 15.1907 9.68084 15.1907 9.68084C15.1907 9.68084 15.1907 9.68084 15.1907 9.68084C15.1907 9.68084 15.1907 9.68084 15.1907 9.68083C15.1907 9.68083 15.1907 9.68083 15.1907 9.68083C15.1907 9.68083 15.1907 9.68083 15.1907 9.68083C15.1907 9.68083 15.1907 9.68083 15.1907 9.68083C15.1907 9.68083 15.1907 9.68083 15.1907 9.68083C15.1907 9.68083 15.1907 9.68083 15.1907 9.68083C15.1907 9.68083 15.1907 9.68083 15.1907 9.68083L15.1907 9.68083C15.1907 9.68083 15.1907 9.68083 15.1907 9.68083C15.1907 9.68083 15.1907 9.68083 15.1907 9.68083L15.1907 9.68083C15.1907 9.68083 15.1907 9.68083 15.1907 9.68083C15.1907 9.68083 15.1907 9.68083 15.1907 9.68083L15.1907 9.68083C15.1907 9.68083 15.1907 9.68083 15.1907 9.68083C15.1907 9.68083 15.1907 9.68083 15.1907 9.68083C15.1907 9.68083 15.1907 9.68083 15.1907 9.68083C15.1907 9.68083 15.1907 9.68083 15.1907 9.68083C15.1907 9.68083 15.1907 9.68083 15.1907 9.68083C15.1907 9.68083 15.1907 9.68083 15.1907 9.68083C15.1907 9.68083 15.1907 9.68083 15.1907 9.68083C15.1907 9.68083 15.1907 9.68083 15.1907 9.68083C15.1907 9.68083 15.1907 9.68083 15.1907 9.68083C15.1907 9.68083 15.1907 9.68083 15.1907 9.68083C15.1907 9.68082 15.1907 9.68082 15.1907 9.68082L15.1907 9.68082C15.1907 9.68082 15.1907 9.68082 15.1907 9.68082C15.1907 9.68082 15.1907 9.68082 15.1907 9.68082C15.1907 9.68082 15.1907 9.68082 15.1907 9.68082C15.1907 9.68082 15.1907 9.68082 15.1907 9.68082C15.1907 9.68082 15.1907 9.68082 15.1907 9.68082C15.1907 9.68082 15.1907 9.68082 15.1907 9.68082C15.1907 9.68082 15.1907 9.68082 15.1907 9.68082C15.1907 9.68082 15.1907 9.68082 15.1907 9.68082C15.1907 9.68082 15.1907 9.68082 15.1907 9.68082C15.1907 9.68082 15.1907 9.68082 15.1907 9.68082C15.1907 9.68082 15.1907 9.68082 15.1907 9.68082C15.1907 9.68082 15.1907 9.68082 15.1907 9.68082C15.1907 9.68082 15.1907 9.68082 15.1907 9.68082C15.1907 9.68082 15.1907 9.68082 15.1907 9.68082C15.1907 9.68082 15.1907 9.68082 15.1907 9.68082C15.1907 9.68082 15.1907 9.68082 15.1907 9.68082C15.1907 9.68082 15.1907 9.68082 15.1907 9.68082C15.1907 9.68082 15.1907 9.68082 15.1907 9.68082C15.1907 9.68082 15.1907 9.68082 15.1907 9.68082C15.1907 9.68082 15.1907 9.68082 15.1907 9.68082C15.1907 9.68082 15.1907 9.68082 15.1907 9.68082C15.1907 9.68082 15.1907 9.68082 15.1907 9.68082C15.1907 9.68082 15.1907 9.68082 15.1907 9.68082C15.1907 9.68082 15.1907 9.68082 15.1907 9.68082C15.1907 9.68082 15.1907 9.68082 15.1907 9.68082C15.1907 9.68082 15.1907 9.68082 15.1907 9.68082C15.1907 9.68082 15.1907 9.68082 15.1907 9.68082C15.1907 9.68082 15.1907 9.68081 15.1907 9.68081C15.1907 9.68081 15.1907 9.68081 15.1907 9.68081C15.1907 9.68081 15.1907 9.68081 15.1907 9.68081V9.68081C15.1907 9.68081 15.1907 9.68081 15.1907 9.68081C15.1907 9.68081 15.1907 9.68081 15.1907 9.68081C15.1907 9.68081 15.1907 9.68081 15.1907 9.68081C15.1907 9.68081 15.1907 9.68081 15.1907 9.68081C15.1907 9.68081 15.1907 9.68081 15.1907 9.68081C15.1907 9.68081 15.1907 9.68081 15.1907 9.68081C15.1907 9.68081 15.1907 9.68081 15.1907 9.68081C15.1907 9.68081 15.1907 9.68081 15.1907 9.68081V9.68081H15.1907C15.1907 9.68081 15.1907 9.68081 15.1907 9.68081H15.1907C15.1907 9.68081 15.1907 9.68081 15.1907 9.68081H15.1907C15.1907 9.68081 15.1907 9.68081 15.1907 9.68081C15.1907 9.68081 15.1907 9.68081 15.1907 9.68081C15.1907 9.68081 15.1907 9.68081 15.1907 9.68081V9.68081C15.1907 9.68081 15.1907 9.68081 15.1907 9.68081C15.1907 9.68081 15.1907 9.68081 15.1907 9.68081C15.1907 9.68081 15.1907 9.68081 15.1907 9.68081C15.1907 9.68081 15.1907 9.68081 15.1907 9.68081C15.1907 9.68081 15.1907 9.68081 15.1907 9.68081C15.1907 9.68081 15.1907 9.68081 15.1907 9.68081C15.1907 9.68081 15.1907 9.68081 14.9079 9.39796H14.9079V9.39796C14.9079 9.39796 14.9079 9.39796 14.9079 9.39796V9.39796C14.9079 9.39796 14.9079 9.39796 14.9079 9.39796V9.39797C14.9079 9.39797 14.9079 9.39797 14.9079 9.39797V9.39797C14.9079 9.39797 14.9079 9.39797 14.9079 9.39797C14.9079 9.39797 14.9079 9.39797 14.9079 9.39797C14.9079 9.39797 14.9079 9.39797 14.9079 9.39797C14.9079 9.39797 14.9079 9.39797 14.9079 9.39797C14.9079 9.39797 14.9079 9.39797 14.9079 9.39797C14.9079 9.39797 14.9079 9.39797 14.9079 9.39797C14.9079 9.39797 14.9079 9.39797 14.9078 9.39797C14.9078 9.39797 14.9078 9.39797 14.9078 9.39797C14.9078 9.39797 14.9078 9.39797 14.9078 9.39797C14.9078 9.39797 14.9078 9.39797 14.9078 9.39797C14.9078 9.39797 14.9078 9.39797 14.9078 9.39797C14.9078 9.39797 14.9078 9.39797 14.9078 9.39797C14.9078 9.39797 14.9078 9.39797 14.9078 9.39797C14.9078 9.39797 14.9078 9.39797 14.9078 9.39797C14.9078 9.39797 14.9078 9.39797 14.9078 9.39797C14.9078 9.39797 14.9078 9.39797 14.9078 9.39797C14.9078 9.39797 14.9078 9.39797 14.9078 9.39797L14.9078 9.39797C14.9078 9.39797 14.9078 9.39797 14.9078 9.39797C14.9078 9.39797 14.9078 9.39797 14.9078 9.39797C14.9078 9.39797 14.9078 9.39797 14.9078 9.39797C14.9078 9.39797 14.9078 9.39797 14.9078 9.39797C14.9078 9.39797 14.9078 9.39797 14.9078 9.39797C14.9078 9.39797 14.9078 9.39797 14.9078 9.39797C14.9078 9.39797 14.9078 9.39797 14.9078 9.39797C14.9078 9.39798 14.9078 9.39798 14.9078 9.39798C14.9078 9.39798 14.9078 9.39798 14.9078 9.39798C14.9078 9.39798 14.9078 9.39798 14.9078 9.39798C14.9078 9.39798 14.9078 9.39798 14.9078 9.39798C14.9078 9.39798 14.9078 9.39798 14.9078 9.39798C14.9078 9.39798 14.9078 9.39798 14.9078 9.39798C14.9078 9.39798 14.9078 9.39798 14.9078 9.39798C14.9078 9.39798 14.9078 9.39798 14.9078 9.39798C14.9078 9.39798 14.9078 9.39798 14.9078 9.39798C14.9078 9.39798 14.9078 9.39798 14.9078 9.39798C14.9078 9.39798 14.9078 9.39798 14.9078 9.39798C14.9078 9.39798 14.9078 9.39798 14.9078 9.39798C14.9078 9.39798 14.9078 9.39798 14.9078 9.39798C14.9078 9.39798 14.9078 9.39798 14.9078 9.39798C14.9078 9.39798 14.9078 9.39798 14.9078 9.39798C14.9078 9.39798 14.9078 9.39798 14.9078 9.39798C14.9078 9.39798 14.9078 9.39798 14.9078 9.39798C14.9078 9.39798 14.9078 9.39798 14.9078 9.39798C14.9078 9.39798 14.9078 9.39798 14.9078 9.39798C14.9078 9.39798 14.9078 9.39798 14.9078 9.39798C14.9078 9.39798 14.9078 9.39798 14.9078 9.39798C14.9078 9.39798 14.9078 9.39798 14.9078 9.39799C14.9078 9.39799 14.9078 9.39799 14.9078 9.39799L14.9078 9.39799C14.9078 9.39799 14.9078 9.39799 14.9078 9.39799C14.9078 9.39799 14.9078 9.39799 14.9078 9.39799C14.9078 9.39799 14.9078 9.39799 14.9078 9.39799C14.9078 9.39799 14.9078 9.39799 14.9078 9.39799L14.9078 9.39799C14.9078 9.39799 14.9078 9.39799 14.9078 9.39799C14.9078 9.39799 14.9078 9.39799 14.9078 9.39799L14.9078 9.39799C14.9078 9.39799 14.9078 9.39799 14.9078 9.39799C14.9078 9.39799 14.9078 9.39799 14.9078 9.39799L14.9078 9.39799C14.9078 9.39799 14.9078 9.39799 14.9078 9.39799C14.9078 9.39799 14.9078 9.39799 14.9078 9.39799C14.9078 9.39799 14.9078 9.39799 14.9078 9.39799C14.9078 9.398 14.9078 9.398 14.9078 9.398L14.9078 9.398C14.9078 9.398 14.9078 9.398 14.9078 9.398L14.9078 9.398C14.9078 9.398 14.9078 9.398 14.9078 9.398L14.9078 9.398C14.9078 9.398 14.9078 9.398 14.9078 9.398L14.9078 9.398C14.9078 9.398 14.9078 9.398 14.9078 9.398L15.1907 9.68084ZM15.1907 9.68082C15.8409 9.03036 16.1999 8.16411 16.1999 7.24428H15.7999C15.7999 8.05797 15.4831 8.82252 14.9078 9.39803L15.1907 9.68082Z" fill="#AECCE0" mask="url(#path-3-outside-1_1733_225786)"/>
<path d="M11.3063 7.63306L11.3063 7.63307L7.63408 12.3647C7.78034 12.511 7.97225 12.5842 8.16379 12.5842C8.35538 12.5842 8.54729 12.511 8.69355 12.3647L12.3657 8.69255C12.3657 8.69254 12.3657 8.69254 12.3657 8.69254C12.6583 8.40001 12.6583 7.92564 12.3657 7.63307C12.0732 7.34054 11.5989 7.34054 11.3063 7.63306Z" fill="white" stroke="white" stroke-width="0.2"/>
</svg>
