<svg width="16" height="16" viewBox="0 0 16 16" fill="none" xmlns="http://www.w3.org/2000/svg">
<g id="Interface essential/Chat/Outlined">
<g id="Icon">
<path fill-rule="evenodd" clip-rule="evenodd" d="M4.295 1.3335H11.7083C13.3971 1.39146 14.7208 2.80456 14.6683 4.4935V8.84016C14.6934 9.65584 14.3924 10.4479 13.8318 11.041C13.2713 11.6341 12.4975 11.9793 11.6817 12.0002H5.335C4.89579 12.0092 4.47928 12.197 4.18167 12.5202L2.60167 14.2068C2.46781 14.3528 2.27972 14.4372 2.08167 14.4402C1.87712 14.435 1.68314 14.3482 1.54291 14.1992C1.40267 14.0502 1.32782 13.8513 1.335 13.6468V4.4935C1.28258 2.80456 2.60625 1.39146 4.295 1.3335ZM11.7083 11.0002C12.845 10.9427 13.7212 9.97702 13.6683 8.84016V4.4935C13.7212 3.35664 12.845 2.39101 11.7083 2.3335H4.295C3.15837 2.39101 2.28215 3.35664 2.335 4.4935V13.0268L3.42167 11.8402C3.91861 11.3115 4.60951 11.0082 5.335 11.0002H11.7083Z" fill="#606770"/>
<path d="M5.50167 5.8335H8.835C9.11114 5.8335 9.335 5.60964 9.335 5.3335C9.335 5.05735 9.11114 4.8335 8.835 4.8335H5.50167C5.22552 4.8335 5.00167 5.05735 5.00167 5.3335C5.00167 5.60964 5.22552 5.8335 5.50167 5.8335Z" fill="#606770"/>
<path d="M10.5017 7.50016H5.50167C5.22552 7.50016 5.00167 7.72402 5.00167 8.00016C5.00167 8.27631 5.22552 8.50016 5.50167 8.50016H10.5017C10.7778 8.50016 11.0017 8.27631 11.0017 8.00016C11.0017 7.72402 10.7778 7.50016 10.5017 7.50016Z" fill="#606770"/>
</g>
</g>
</svg>
