<svg width="15" height="15" viewBox="0 0 15 15" fill="none" xmlns="http://www.w3.org/2000/svg">
<g clip-path="url(#clip0_2003_33792)">
<path d="M13.3872 1.39258H2.1483C1.70107 1.39258 1.35107 1.74258 1.35107 2.17036V9.46202C1.35107 9.8898 1.70107 10.2592 2.1483 10.2592H13.4066C13.8344 10.2592 14.2039 9.90924 14.2039 9.46202V2.17036C14.1844 1.74258 13.8344 1.39258 13.3872 1.39258ZM7.76774 9.03424C5.9983 9.03424 4.53996 7.59536 4.53996 5.80647C4.53996 4.03702 5.97885 2.57869 7.76774 2.57869C9.53719 2.57869 10.9955 4.01758 10.9955 5.80647C10.9955 7.59536 9.53719 9.03424 7.76774 9.03424Z" fill="#AECCE0"/>
<path d="M9.22604 5.82617C9.22604 6.02062 9.12882 6.19562 8.95382 6.31228L7.33993 7.28451C7.24271 7.34284 7.14549 7.36228 7.04826 7.36228C6.95104 7.36228 6.85382 7.34284 6.77604 7.28451C6.60104 7.18728 6.48438 6.99284 6.48438 6.79839V4.85395C6.48438 4.65951 6.5816 4.46506 6.77604 4.36784C6.95104 4.27062 7.16493 4.27062 7.33993 4.36784L8.95382 5.34006C9.12882 5.43728 9.22604 5.61228 9.22604 5.82617Z" fill="#87AAC1"/>
<path fill-rule="evenodd" clip-rule="evenodd" d="M4.71899 11.853H13.9898C14.1064 11.853 14.1842 11.9307 14.1842 12.0474C14.1842 12.1446 14.1064 12.2418 13.9898 12.2418H4.73736C4.66583 12.7217 4.252 13.0898 3.7522 13.0898C3.25239 13.0898 2.83856 12.7217 2.76704 12.2418H1.72032C1.60366 12.2418 1.52588 12.1446 1.52588 12.0474C1.52588 11.9307 1.60366 11.853 1.72032 11.853H2.78541C2.8931 11.4192 3.2851 11.0977 3.7522 11.0977C4.21929 11.0977 4.6113 11.4192 4.71899 11.853Z" fill="#87AAC1"/>
</g>
<defs>
<clipPath id="clip0_2003_33792">
<rect width="14" height="14" fill="white" transform="translate(0.767578 0.0898438)"/>
</clipPath>
</defs>
</svg>
