<svg width="18" height="18" viewBox="0 0 18 18" fill="none" xmlns="http://www.w3.org/2000/svg">
<g clip-path="url(#clip0_3071_32972)">
<path d="M10.8183 17.8103H4.17422C2.6397 17.8103 1.39136 16.562 1.39136 15.0274V5.60051C1.39136 4.06599 2.6397 2.81765 4.17422 2.81765H10.8183C12.3528 2.81765 13.6012 4.06599 13.6012 5.60051V15.0274C13.6012 16.562 12.3528 17.8103 10.8183 17.8103ZM4.17422 4.20908C3.40703 4.20908 2.78279 4.83332 2.78279 5.60051V15.0274C2.78279 15.7946 3.40703 16.4189 4.17422 16.4189H10.8183C11.5855 16.4189 12.2097 15.7946 12.2097 15.0274V5.60051C12.2097 4.83332 11.5855 4.20908 10.8183 4.20908H4.17422ZM16.384 13.2882V2.78286C16.384 1.24835 15.1357 0 13.6012 0H5.87872C5.49445 0 5.183 0.311441 5.183 0.695715C5.183 1.07999 5.49445 1.39143 5.87872 1.39143H13.6012C14.3683 1.39143 14.9926 2.01567 14.9926 2.78286V13.2882C14.9926 13.6724 15.304 13.9839 15.6883 13.9839C16.0726 13.9839 16.384 13.6724 16.384 13.2882Z" fill="white"/>
</g>
<defs>
<clipPath id="clip0_3071_32972">
<rect width="17.8103" height="17.8103" fill="white"/>
</clipPath>
</defs>
</svg>
