<svg width="35" height="35" viewBox="0 0 35 35" fill="none" xmlns="http://www.w3.org/2000/svg">
<rect x="0.541016" y="1.48633" width="33" height="33" rx="16.5" fill="white"/>
<rect x="0.541016" y="1.48633" width="33" height="33" rx="16.5" stroke="#DFE5EB"/>
<path d="M12.4702 20.5233C12.3582 20.5233 12.2464 20.4806 12.1608 20.3951C11.99 20.2243 11.99 19.9473 12.1608 19.7765L18.9977 12.9397C19.1683 12.7688 19.4454 12.7688 19.6163 12.9397C19.7871 13.1105 19.7871 13.3874 19.6163 13.5583L12.7795 20.3951C12.6942 20.4804 12.5822 20.5233 12.4702 20.5233Z" fill="#1C1E21"/>
<path d="M11.7946 23.6742C11.7642 23.6742 11.7334 23.6709 11.7025 23.6643C11.4663 23.6136 11.3158 23.3811 11.3665 23.1448L12.0425 19.9942C12.0932 19.7579 12.3268 19.6078 12.562 19.6582C12.7983 19.7089 12.9488 19.9414 12.898 20.1777L12.2221 23.3283C12.1781 23.5337 11.9965 23.6742 11.7946 23.6742Z" fill="#1C1E21"/>
<path d="M14.945 22.9977C14.833 22.9977 14.7212 22.955 14.6357 22.8695C14.4649 22.6986 14.4649 22.4217 14.6357 22.2509L21.4725 15.4143C21.6431 15.2434 21.9203 15.2434 22.0911 15.4143C22.262 15.5851 22.262 15.862 22.0911 16.0329L15.2545 22.8695C15.169 22.955 15.057 22.9977 14.945 22.9977Z" fill="#1C1E21"/>
<path d="M11.7939 23.674C11.592 23.674 11.4107 23.5336 11.3665 23.3282C11.3159 23.0919 11.4662 22.8594 11.7025 22.8086L14.8531 22.1327C15.0896 22.0826 15.3221 22.2327 15.3727 22.4687C15.4232 22.7049 15.2729 22.9375 15.0367 22.9882L11.886 23.6642C11.8552 23.6709 11.8243 23.674 11.7939 23.674Z" fill="#1C1E21"/>
<path d="M20.5442 17.3985C20.4322 17.3985 20.3202 17.3558 20.2349 17.2703L17.7602 14.7956C17.5894 14.6247 17.5894 14.3478 17.7602 14.177C17.9308 14.0061 18.2082 14.0061 18.3788 14.177L20.8536 16.6517C21.0244 16.8225 21.0244 17.0995 20.8536 17.2703C20.7682 17.3558 20.6562 17.3985 20.5442 17.3985Z" fill="#1C1E21"/>
<path d="M21.7817 16.1614C21.6697 16.1614 21.5577 16.1187 21.4722 16.0332C21.3014 15.8623 21.3014 15.5854 21.4722 15.4143C21.7157 15.1709 21.8498 14.8412 21.8498 14.4864C21.8498 14.1316 21.7157 13.8019 21.4722 13.5584C21.2285 13.3148 20.8989 13.1807 20.5441 13.1807C20.1892 13.1807 19.8596 13.3148 19.6161 13.5584C19.4455 13.7293 19.1686 13.7295 18.9973 13.5584C18.8264 13.3876 18.8264 13.1107 18.9973 12.9396C19.4059 12.5308 19.9552 12.3057 20.5441 12.3057C21.1327 12.3057 21.6822 12.5308 22.0908 12.9396C22.4997 13.3482 22.7248 13.8975 22.7248 14.4864C22.7248 15.0753 22.4997 15.6245 22.0908 16.0332C22.0057 16.1185 21.8937 16.1614 21.7817 16.1614Z" fill="#1C1E21"/>
</svg>
