<svg width="44" height="44" viewBox="0 0 44 44" fill="none" xmlns="http://www.w3.org/2000/svg">
<circle cx="22" cy="22" r="22" fill="url(#paint0_linear_213_32848)"/>
<path d="M26.1045 30.1357H16.9132C16.3492 30.1357 15.8083 29.9116 15.4095 29.5128C15.0107 29.114 14.7866 28.5731 14.7866 28.0091V26.5749C14.7873 25.2401 15.318 23.9601 16.2621 23.0165C17.2062 22.0729 18.4864 21.5428 19.8212 21.5428H23.1965C24.5316 21.5428 25.8121 22.0731 26.7563 23.0172C27.7004 23.9612 28.2309 25.2416 28.2311 26.5767V28.0109C28.2306 28.5746 28.0063 29.115 27.6076 29.5135C27.2088 29.9119 26.6682 30.1357 26.1045 30.1357Z" fill="white"/>
<path d="M21.5099 20.6069C23.4877 20.6069 25.0911 19.0035 25.0911 17.0257C25.0911 15.0479 23.4877 13.4445 21.5099 13.4445C19.5321 13.4445 17.9287 15.0479 17.9287 17.0257C17.9287 19.0035 19.5321 20.6069 21.5099 20.6069Z" fill="white"/>
<defs>
<linearGradient id="paint0_linear_213_32848" x1="22" y1="44" x2="22" y2="0" gradientUnits="userSpaceOnUse">
<stop stop-color="#045C99"/>
<stop offset="1" stop-color="#84C0EA"/>
</linearGradient>
</defs>
</svg>
