<svg width="17" height="17" viewBox="0 0 17 17" fill="none" xmlns="http://www.w3.org/2000/svg">
<g clip-path="url(#clip0_5075_89447)">
<path d="M14.1569 3.30312C12.6459 1.79212 10.6369 0.959961 8.5 0.959961C6.36312 0.959961 4.35413 1.79212 2.84313 3.30312C1.33213 4.81412 0.5 6.82309 0.5 8.95996C0.5 11.0968 1.33213 13.1058 2.84313 14.6168C4.35413 16.1278 6.36312 16.96 8.5 16.96C10.6369 16.96 12.6459 16.1278 14.1569 14.6168C15.6679 13.1058 16.5 11.0968 16.5 8.95996C16.5 6.82309 15.6679 4.81409 14.1569 3.30312ZM8.5 15.3897C4.95459 15.3897 2.07025 12.5053 2.07025 8.95996C2.07025 8.95415 2.07044 8.9484 2.07047 8.94265C2.07047 8.94118 2.07025 8.93977 2.07025 8.9383C2.07025 8.93584 2.07056 8.93346 2.07062 8.93102C2.08622 5.42812 4.91706 2.57821 8.41262 2.53134C8.41994 2.53099 8.42719 2.53024 8.43459 2.53024C8.43903 2.53024 8.44334 2.53077 8.44775 2.5309C8.46519 2.53077 8.48256 2.53024 8.50003 2.53024C12.0454 2.53024 14.9298 5.41462 14.9298 8.95999C14.9298 12.5054 12.0454 15.3897 8.5 15.3897Z" fill="#D9EBF7"/>
<path d="M13.384 9.34628C13.1225 9.34628 12.9106 9.13435 12.9106 8.87291C12.9106 8.61147 13.1225 8.39953 13.384 8.39953H13.9545C13.6866 5.77216 11.5557 3.68788 8.90792 3.49219V3.98891C8.90792 4.25034 8.69599 4.46228 8.43455 4.46228C8.17311 4.46228 7.96117 4.25034 7.96117 3.98891V3.5035C5.35255 3.75913 3.27464 5.85044 3.03955 8.46494H3.55055C3.81199 8.46494 4.02393 8.67688 4.02393 8.93831C4.02393 9.19975 3.81199 9.41169 3.55055 9.41169H3.03568C3.25333 12.0683 5.37289 14.1943 8.02661 14.4224V13.8223C8.02661 13.5608 8.23855 13.3489 8.49999 13.3489C8.76143 13.3489 8.97336 13.5608 8.97336 13.8223V14.4224C11.6488 14.1925 13.7813 12.0333 13.9692 9.34628H13.384ZM10.4162 7.71322L8.83474 9.29475C8.74596 9.38353 8.62558 9.43341 8.50002 9.43341C8.37449 9.43341 8.25405 9.38353 8.1653 9.29475L5.41239 6.54184C5.22752 6.357 5.22752 6.05728 5.41239 5.87241C5.59724 5.68753 5.89696 5.68753 6.08183 5.87241L8.50005 8.29059L9.74686 7.04378C9.93171 6.85891 10.2314 6.85891 10.4163 7.04378C10.6011 7.22863 10.6011 7.52838 10.4162 7.71322Z" fill="#E4F4FF"/>
</g>
<defs>
<clipPath id="clip0_5075_89447">
<rect width="16" height="16" fill="white" transform="translate(0.5 0.959961)"/>
</clipPath>
</defs>
</svg>
