<svg width="64" height="64" viewBox="0 0 64 64" fill="none" xmlns="http://www.w3.org/2000/svg">
<circle cx="31.7495" cy="31.7598" r="31.2383" stroke="#E8EEF3"/>
<path d="M34.9412 32.8015C34.9412 34.1822 33.8219 35.3015 32.4412 35.3015C31.0605 35.3015 29.9412 34.1822 29.9412 32.8015C29.9412 31.4208 31.0605 30.3015 32.4412 30.3015C33.8219 30.3015 34.9412 31.4208 34.9412 32.8015Z" fill="#87AAC1"/>
<path fill-rule="evenodd" clip-rule="evenodd" d="M37.9512 25.0215H27.0712C25.9954 25.0188 24.9627 25.4444 24.201 26.2042C23.4393 26.964 23.0112 27.9956 23.0112 29.0715V35.9715C23.0112 37.0474 23.4393 38.079 24.201 38.8388C24.9627 39.5986 25.9954 40.0242 27.0712 40.0215H37.9512C39.0271 40.0242 40.0598 39.5986 40.8215 38.8388C41.5832 38.079 42.0112 37.0474 42.0112 35.9715V29.0715C42.0112 27.9956 41.5832 26.964 40.8215 26.2042C40.0598 25.4444 39.0271 25.0188 37.9512 25.0215ZM32.4412 36.8015C30.2321 36.8015 28.4412 35.0106 28.4412 32.8015C28.4412 30.5924 30.2321 28.8015 32.4412 28.8015C34.6504 28.8015 36.4412 30.5924 36.4412 32.8015C36.4412 33.8624 36.0198 34.8798 35.2697 35.6299C34.5195 36.3801 33.5021 36.8015 32.4412 36.8015ZM37.9412 29.8015C38.2174 29.8015 38.4412 29.5776 38.4412 29.3015V28.3015C38.4412 28.0254 38.2174 27.8015 37.9412 27.8015H36.9412C36.6651 27.8015 36.4412 28.0254 36.4412 28.3015V29.3015C36.4412 29.5776 36.6651 29.8015 36.9412 29.8015H37.9412Z" fill="#87AAC1"/>
</svg>
