<svg width="22" height="22" viewBox="0 0 22 22" fill="none" xmlns="http://www.w3.org/2000/svg">
<g id="touchscreen 1" clip-path="url(#clip0_479_33761)">
<path id="Vector" d="M5.04175 7.17933V5.04167C5.04175 3.5255 6.27558 2.29167 7.79175 2.29167C9.30791 2.29167 10.5417 3.5255 10.5417 5.04167V6.875C10.6371 6.875 10.7269 6.897 10.8204 6.90617C11.4951 6.17192 11.9167 5.20117 11.9167 4.125C11.9167 1.84708 10.0697 0 7.79175 0C5.51383 0 3.66675 1.84708 3.66675 4.125C3.66675 5.34233 4.20391 6.424 5.04175 7.17933Z" fill="#AECCE0"/>
<path id="Vector_2" d="M17.4167 10.0834C16.6577 10.0834 16.0417 10.6994 16.0417 11.4584V11.6875C16.0417 11.814 15.939 11.9167 15.8125 11.9167C15.686 11.9167 15.5833 11.814 15.5833 11.6875V10.5417C15.5833 9.78269 14.9673 9.16669 14.2083 9.16669C13.4493 9.16669 12.8333 9.78269 12.8333 10.5417V11.6875C12.8333 11.814 12.7307 11.9167 12.6042 11.9167C12.4777 11.9167 12.375 11.814 12.375 11.6875V9.62502C12.375 8.86602 11.759 8.25002 11 8.25002C10.241 8.25002 9.625 8.86602 9.625 9.62502V11.6875C9.625 11.814 9.52234 11.9167 9.39584 11.9167C9.26934 11.9167 9.16667 11.814 9.16667 11.6875V5.04169C9.16667 4.28269 8.55067 3.66669 7.79167 3.66669C7.03267 3.66669 6.41667 4.28269 6.41667 5.04169V13.2917C6.16367 13.2917 5.95833 13.0864 5.95833 12.8334V11H5.5055C3.99758 11 2.74908 12.2174 2.75 13.7253C2.75458 18.5662 6.27825 22 8.44525 22H14.2083C16.7393 22 18.7917 19.9476 18.7917 17.4167V11.4584C18.7917 10.6994 18.1757 10.0834 17.4167 10.0834Z" fill="#87AAC1"/>
</g>
<defs>
<clipPath id="clip0_479_33761">
<rect width="22" height="22" fill="white"/>
</clipPath>
</defs>
</svg>
