<svg width="35" height="34" viewBox="0 0 35 34" fill="none" xmlns="http://www.w3.org/2000/svg">
<circle cx="17.0342" cy="17" r="16.5" stroke="#E8EEF3"/>
<path d="M22.1972 21.0391H11.8021C11.649 21.0391 11.5021 21.0999 11.3938 21.2082C11.2855 21.3165 11.2246 21.4634 11.2246 21.6166C11.2246 21.7697 11.2855 21.9166 11.3938 22.0249C11.5021 22.1332 11.649 22.1941 11.8021 22.1941H22.1972C22.3504 22.1941 22.4973 22.1332 22.6056 22.0249C22.7139 21.9166 22.7747 21.7697 22.7747 21.6166C22.7747 21.4634 22.7139 21.3165 22.6056 21.2082C22.4973 21.0999 22.3504 21.0391 22.1972 21.0391Z" fill="#87AAC1"/>
<path d="M16.9996 11.2227C16.8465 11.2227 16.6996 11.2835 16.5913 11.3918C16.483 11.5001 16.4221 11.647 16.4221 11.8002V17.9159L14.5221 16.0102C14.4134 15.9014 14.2659 15.8403 14.1121 15.8403C13.9583 15.8403 13.8108 15.9014 13.7021 16.0102C13.5933 16.1189 13.5322 16.2664 13.5322 16.4202C13.5322 16.574 13.5933 16.7215 13.7021 16.8302L16.5896 19.7177C16.6433 19.7719 16.7071 19.8148 16.7775 19.8442C16.8479 19.8735 16.9234 19.8886 16.9996 19.8886C17.0759 19.8886 17.1513 19.8735 17.2217 19.8442C17.2921 19.8148 17.356 19.7719 17.4096 19.7177L20.2972 16.8302C20.351 16.7764 20.3937 16.7125 20.4229 16.6421C20.452 16.5718 20.467 16.4963 20.467 16.4202C20.467 16.344 20.452 16.2686 20.4229 16.1983C20.3937 16.1279 20.351 16.064 20.2972 16.0102C20.2433 15.9563 20.1794 15.9136 20.109 15.8845C20.0387 15.8553 19.9633 15.8403 19.8871 15.8403C19.811 15.8403 19.7356 15.8553 19.6652 15.8845C19.5949 15.9136 19.531 15.9563 19.4771 16.0102L17.5771 17.9159V11.8002C17.5771 11.647 17.5163 11.5001 17.408 11.3918C17.2997 11.2835 17.1528 11.2227 16.9996 11.2227Z" fill="#87AAC1"/>
</svg>
