<svg width="11" height="11" viewBox="0 0 11 11" fill="none" xmlns="http://www.w3.org/2000/svg">
<path id="Icon" fill-rule="evenodd" clip-rule="evenodd" d="M0.420473 3.3912C1.27357 1.3362 3.28081 -0.00232928 5.50584 3.04307e-06C6.96398 2.24031e-06 8.36232 0.57964 9.39284 1.61124C10.4234 2.64284 11.0015 4.04178 11 5.49992C11 7.72496 9.65936 9.73079 7.60347 10.5817C5.54759 11.4327 3.18152 10.9611 1.60901 9.38691C0.036499 7.81275 -0.432627 5.44619 0.420473 3.3912ZM9.81815 7.1718C10.0194 6.63752 10.121 6.07086 10.1179 5.49992C10.1309 4.44992 9.78515 3.42693 9.13786 2.60007C8.87843 3.03245 8.3884 3.67815 7.78306 3.67815C7.55017 3.65942 7.31582 3.68286 7.09125 3.74733V3.81074C7.09125 3.91452 7.37374 4.19701 7.52363 4.3469C7.89694 4.62526 8.1455 5.03954 8.21544 5.49992C8.21544 6.42234 8.30769 6.70483 8.3884 6.77401C8.88679 6.80966 9.37296 6.94493 9.81815 7.1718ZM0.893751 5.49992C0.888509 4.47434 1.22526 3.47626 1.85076 2.66349C2.01411 2.96142 2.32971 3.14366 2.66941 3.13622C3.13589 3.37143 3.54821 3.70129 3.88008 4.10476C3.6359 4.2549 3.41457 4.43935 3.22286 4.65245C3.20506 4.66958 3.18569 4.68845 3.16516 4.70844C3.00612 4.86331 2.77795 5.08549 2.68094 5.0906C2.41403 5.08253 2.15563 5.18501 1.96681 5.37383C1.77799 5.56265 1.6755 5.82105 1.68357 6.08796C1.6844 6.15405 1.70017 6.21908 1.72969 6.27821L2.24855 7.31593C2.25517 7.9128 2.35037 8.50538 2.53104 9.07429C1.47936 8.18676 0.878932 6.87598 0.893751 5.49992ZM3.93197 9.83529C4.43649 10.0184 4.96911 10.1121 5.50584 10.112V10.1293C7.09253 10.14 8.57329 9.33426 9.42612 7.99622C9.07838 7.82783 8.70711 7.71315 8.32498 7.65607C7.32762 7.65607 7.32762 6.22633 7.32762 5.53451C7.32762 5.43003 7.07061 5.17344 6.9118 5.01489C6.90411 5.00722 6.89666 4.99978 6.88947 4.99259C6.5188 4.71276 6.27251 4.29884 6.20342 3.83957C6.20342 2.8422 7.21808 2.8422 7.76 2.8422C7.9099 2.83644 8.26733 2.40982 8.48641 1.9832C6.7769 0.53608 4.27481 0.526354 2.55411 1.96014C2.56283 2.00973 2.56283 2.06045 2.55411 2.11003C2.55987 2.2484 2.62329 2.2484 2.6867 2.2484C3.37852 2.2484 4.92933 3.65509 4.95239 4.31231C4.95331 4.46052 4.8908 4.60204 4.78064 4.70119C4.67048 4.80033 4.52317 4.84764 4.37588 4.83117C4.27211 4.83693 3.98962 5.11942 3.83973 5.26932C3.55927 5.64031 3.14603 5.88826 2.6867 5.96113C2.64058 5.96113 2.5714 5.96113 2.5714 6.01878L3.07297 6.98156C3.10249 7.04068 3.11826 7.10572 3.11909 7.1718C3.11909 7.8002 3.25745 8.82063 3.55723 9.12618C3.7664 9.30739 3.90009 9.56038 3.93197 9.83529Z" fill="#E8EEF3"/>
</svg>
