<svg width="21" height="21" viewBox="0 0 21 21" fill="none" xmlns="http://www.w3.org/2000/svg">
<g opacity="0.2" clip-path="url(#clip0_4369_33858)">
<path d="M10.3213 0.521484C4.80695 0.521484 0.321289 5.00758 0.321289 10.5215C0.321289 16.0354 4.80695 20.5215 10.3213 20.5215C15.8356 20.5215 20.3213 16.0354 20.3213 10.5215C20.3213 5.00758 15.8356 0.521484 10.3213 0.521484ZM14.2967 10.8718L8.4634 14.6218C8.39504 14.6662 8.31609 14.6882 8.23797 14.6882C8.16961 14.6882 8.10043 14.6711 8.03859 14.6373C7.9043 14.5641 7.82129 14.4241 7.82129 14.2715V6.77148C7.82129 6.61891 7.9043 6.47891 8.03859 6.40566C8.17043 6.33324 8.33563 6.3377 8.4634 6.42113L14.2967 10.1711C14.4155 10.2476 14.488 10.3799 14.488 10.5215C14.488 10.6631 14.4155 10.7953 14.2967 10.8718Z" fill="#87AAC1"/>
</g>
<defs>
<clipPath id="clip0_4369_33858">
<rect width="20" height="20" fill="white" transform="translate(0.321289 0.521484)"/>
</clipPath>
</defs>
</svg>
