<svg width="17" height="16" viewBox="0 0 17 16" fill="none" xmlns="http://www.w3.org/2000/svg">
<mask id="mask0_1191_28212" style="mask-type:alpha" maskUnits="userSpaceOnUse" x="0" y="0" width="17" height="16">
<rect x="0.146973" width="16" height="16" fill="#D9D9D9"/>
</mask>
<g mask="url(#mask0_1191_28212)">
<path d="M8.14696 12.8446C7.87197 12.8446 7.63656 12.7467 7.44072 12.5508C7.24489 12.355 7.14697 12.1196 7.14697 11.8446C7.14697 11.5696 7.24489 11.3342 7.44072 11.1384C7.63656 10.9425 7.87197 10.8446 8.14696 10.8446C8.42194 10.8446 8.65736 10.9425 8.85319 11.1384C9.04902 11.3342 9.14694 11.5696 9.14694 11.8446C9.14694 12.1196 9.04902 12.355 8.85319 12.5508C8.65736 12.7467 8.42194 12.8446 8.14696 12.8446ZM8.14696 8.99844C7.87197 8.99844 7.63656 8.90053 7.44072 8.70469C7.24489 8.50886 7.14697 8.27345 7.14697 7.99846C7.14697 7.72347 7.24489 7.48806 7.44072 7.29223C7.63656 7.09639 7.87197 6.99848 8.14696 6.99848C8.42194 6.99848 8.65736 7.09639 8.85319 7.29223C9.04902 7.48806 9.14694 7.72347 9.14694 7.99846C9.14694 8.27345 9.04902 8.50886 8.85319 8.70469C8.65736 8.90053 8.42194 8.99844 8.14696 8.99844ZM8.14696 5.15229C7.87197 5.15229 7.63656 5.05438 7.44072 4.85854C7.24489 4.66272 7.14697 4.42731 7.14697 4.15231C7.14697 3.87732 7.24489 3.64191 7.44072 3.44608C7.63656 3.25026 7.87197 3.15234 8.14696 3.15234C8.42194 3.15234 8.65736 3.25026 8.85319 3.44608C9.04902 3.64191 9.14694 3.87732 9.14694 4.15231C9.14694 4.42731 9.04902 4.66272 8.85319 4.85854C8.65736 5.05438 8.42194 5.15229 8.14696 5.15229Z" fill="#606770"/>
</g>
</svg>
