<svg width="25" height="25" viewBox="0 0 25 25" fill="none" xmlns="http://www.w3.org/2000/svg">
<path fill-rule="evenodd" clip-rule="evenodd" d="M14.9537 4.3032L19.9558 7.99793C20.9198 8.6956 21.4934 9.81112 21.5 11.0011V17.6895C21.438 19.8342 19.6566 21.5268 17.5116 21.479H7.49789C5.3492 21.532 3.56195 19.838 3.5 17.6895V11.0011C3.50659 9.81112 4.08019 8.6956 5.04421 7.99793L10.0463 4.3032C11.5068 3.23227 13.4932 3.23227 14.9537 4.3032ZM8.23684 17.4716H16.7632C17.1556 17.4716 17.4737 17.1535 17.4737 16.7611C17.4737 16.3687 17.1556 16.0506 16.7632 16.0506H8.23684C7.84443 16.0506 7.52632 16.3687 7.52632 16.7611C7.52632 17.1535 7.84443 17.4716 8.23684 17.4716Z" fill="#D95C07"/>
</svg>
