<svg width="24" height="24" viewBox="0 0 24 24" fill="none" xmlns="http://www.w3.org/2000/svg">
<path d="M15 13.5C15 13.7633 14.8619 14.0075 14.636 14.143L10.886 16.393C10.7673 16.4644 10.6337 16.5 10.5 16.5C10.3726 16.5 10.2451 16.4677 10.1305 16.4026C9.89539 16.2696 9.75 16.0202 9.75 15.75V11.25C9.75 10.9797 9.89539 10.7303 10.1305 10.5974C10.3652 10.4641 10.6542 10.4677 10.886 10.6069L14.636 12.8569C14.8619 12.9924 15 13.2367 15 13.5ZM21.75 11.25V15.75C21.75 19.4718 18.7218 22.5 15 22.5H9C5.2782 22.5 2.25 19.4718 2.25 15.75V11.25C2.25 7.71713 5.02588 5.24997 9 5.24997H10.4397L8.41443 2.71835C8.15552 2.39499 8.20789 1.92294 8.53162 1.6644C8.85461 1.40622 9.32666 1.45822 9.58557 1.78159L12 4.79962L14.4144 1.78159C14.673 1.45712 15.1454 1.40659 15.4684 1.6644C15.7921 1.92294 15.8445 2.39499 15.5856 2.71835L13.5603 5.24997H15C18.9741 5.24997 21.75 7.71713 21.75 11.25ZM20.25 11.25C20.25 8.14157 17.6133 6.74997 15 6.74997H9C6.38672 6.74997 3.75 8.14157 3.75 11.25V15.75C3.75 18.6449 6.1051 21 9 21H15C17.8949 21 20.25 18.6449 20.25 15.75V11.25Z" fill="#606770"/>
</svg>
