<svg width="34" height="34" viewBox="0 0 34 34" fill="none" xmlns="http://www.w3.org/2000/svg">
<circle cx="17" cy="17" r="16.5" stroke="#E8EEF3"/>
<path fill-rule="evenodd" clip-rule="evenodd" d="M20.9377 12.9167H19.3802L18.6743 12.1467C18.416 11.8927 18.0683 11.7502 17.706 11.75H16.0027C15.6341 11.7531 15.2817 11.902 15.0227 12.1642L14.3285 12.9167H12.771C12.5294 12.9167 12.3335 13.1125 12.3335 13.3542C12.3335 13.5958 12.5294 13.7917 12.771 13.7917H20.9377C21.1793 13.7917 21.3752 13.5958 21.3752 13.3542C21.3752 13.1125 21.1793 12.9167 20.9377 12.9167ZM15.6527 12.765C15.7458 12.6725 15.8714 12.6201 16.0027 12.6192H17.706C17.8318 12.6188 17.953 12.6668 18.0443 12.7533L18.1902 12.9108H15.5185L15.6527 12.765Z" fill="#87AAC1"/>
<path fill-rule="evenodd" clip-rule="evenodd" d="M12.4677 15.5533V19.9167C12.4677 21.3535 13.6325 22.5183 15.0693 22.5183H18.6393C20.0762 22.5183 21.241 21.3535 21.241 19.9167V15.5533C21.241 14.909 20.7187 14.3867 20.0743 14.3867H13.6577C13.3442 14.3804 13.0414 14.5005 12.8176 14.72C12.5937 14.9395 12.4676 15.2398 12.4677 15.5533ZM15.5418 17.6125C15.5418 17.8541 15.346 18.05 15.1043 18.05C14.8627 18.05 14.6668 17.8541 14.6668 17.6125V16.23C14.6668 15.9884 14.8627 15.7925 15.1043 15.7925C15.346 15.7925 15.5418 15.9884 15.5418 16.23V17.6125ZM16.8543 20.3542C17.096 20.3542 17.2918 20.1583 17.2918 19.9167V16.23C17.2918 15.9884 17.096 15.7925 16.8543 15.7925C16.6127 15.7925 16.4168 15.9884 16.4168 16.23V19.9167C16.4168 20.1583 16.6127 20.3542 16.8543 20.3542ZM19.0418 17.6125C19.0418 17.8541 18.846 18.05 18.6043 18.05C18.3627 18.05 18.1668 17.8541 18.1668 17.6125V16.23C18.1668 15.9884 18.3627 15.7925 18.6043 15.7925C18.846 15.7925 19.0418 15.9884 19.0418 16.23V17.6125Z" fill="#87AAC1"/>
</svg>
