<svg width="18" height="18" viewBox="0 0 18 18" fill="none" xmlns="http://www.w3.org/2000/svg">
<g id="play-button 1" clip-path="url(#clip0_1205_26385)">
<g id="Group">
<g id="Group_2">
<path id="Vector" d="M9.15623 0.5C4.46182 0.5 0.65625 4.30557 0.65625 8.99998C0.65625 13.6944 4.46182 17.5 9.15623 17.5C13.8506 17.5 17.6562 13.6944 17.6562 8.99998C17.6512 4.30767 13.8486 0.505016 9.15623 0.5ZM12.7359 9.27081C12.6771 9.38885 12.5814 9.48454 12.4633 9.54339V9.54641L7.6062 11.975C7.30624 12.1249 6.9416 12.0032 6.79168 11.7033C6.74907 11.618 6.72712 11.5239 6.72765 11.4286V6.57144C6.72751 6.23611 6.99919 5.96417 7.33452 5.964C7.42883 5.96396 7.52186 5.98588 7.6062 6.02803L12.4633 8.45661C12.7634 8.60617 12.8855 8.9707 12.7359 9.27081Z" fill="white"/>
</g>
</g>
</g>
<defs>
<clipPath id="clip0_1205_26385">
<rect width="17" height="17" fill="white" transform="translate(0.65625 0.5)"/>
</clipPath>
</defs>
</svg>
