<svg width="25" height="25" viewBox="0 0 25 25" fill="none" xmlns="http://www.w3.org/2000/svg">
<path fill-rule="evenodd" clip-rule="evenodd" d="M20.9066 14.47C20.9094 15.0511 21.1649 15.6023 21.6066 15.98C23.1166 17.33 22.0466 19.64 19.9066 19.64H16.1066C15.614 20.9844 14.3383 21.8814 12.9066 21.89C11.4702 21.8962 10.1868 20.9938 9.70657 19.64H5.90657C3.76657 19.64 2.69657 17.33 4.20657 15.98C4.6482 15.6023 4.90369 15.0511 4.90657 14.47V9.64C4.90657 5.7 8.48657 2.5 12.9066 2.5C17.3266 2.5 20.9066 5.7 20.9066 9.64V14.47ZM11.3866 19.64C11.7505 20.111 12.3114 20.3878 12.9066 20.39C13.4877 20.3756 14.0314 20.1001 14.3866 19.64H11.3866Z" fill="#D95C07"/>
</svg>
