<svg width="22" height="22" viewBox="0 0 22 22" fill="none" xmlns="http://www.w3.org/2000/svg">
<path d="M17.6667 7.7915H4.33334C3.59797 7.7915 3 8.3895 3 9.12485V13.1248C3 13.8602 3.59797 14.4582 4.33334 14.4582H17.6667C18.402 14.4582 19 13.8602 19 13.1248V9.12485C19 8.3895 18.402 7.7915 17.6667 7.7915ZM18.3333 13.1248C18.3333 13.4923 18.0342 13.7915 17.6667 13.7915H4.33334C3.96584 13.7915 3.66669 13.4923 3.66669 13.1248V9.12485C3.66669 8.75735 3.96584 8.45819 4.33334 8.45819H17.6667C18.0342 8.45819 18.3333 8.75735 18.3333 9.12485V13.1248Z" fill="#606770"/>
<path d="M7.15454 10.4582C7.0621 10.298 6.85735 10.2443 6.69913 10.3361L6.33326 10.5474V10.1248C6.33326 9.9406 6.18416 9.7915 5.99991 9.7915C5.81566 9.7915 5.66657 9.9406 5.66657 10.1248V10.5474L5.30069 10.3361C5.14151 10.2443 4.93741 10.298 4.84529 10.4582C4.75316 10.6177 4.80785 10.8215 4.96735 10.9136L5.33319 11.1248L4.96735 11.3361C4.80785 11.4282 4.75316 11.632 4.84529 11.7915C4.90713 11.8986 5.01913 11.9582 5.13435 11.9582C5.19101 11.9582 5.24829 11.9438 5.30069 11.9136L5.66657 11.7023V12.1248C5.66657 12.3091 5.81566 12.4582 5.99991 12.4582C6.18416 12.4582 6.33326 12.3091 6.33326 12.1248V11.7023L6.69913 11.9136C6.75154 11.9438 6.80882 11.9582 6.86547 11.9582C6.98072 11.9582 7.09269 11.8986 7.15454 11.7915C7.24666 11.632 7.19197 11.4282 7.03247 11.3361L6.66663 11.1248L7.03247 10.9136C7.19197 10.8215 7.24666 10.6177 7.15454 10.4582Z" fill="#606770"/>
<path d="M10.488 10.4582C10.3953 10.298 10.1912 10.2443 10.0326 10.3361L9.66675 10.5474V10.1248C9.66675 9.9406 9.51766 9.7915 9.33341 9.7915C9.14916 9.7915 9.00006 9.9406 9.00006 10.1248V10.5474L8.63419 10.3361C8.47469 10.2443 8.2706 10.298 8.17878 10.4582C8.08666 10.6177 8.14135 10.8215 8.30085 10.9136L8.66669 11.1248L8.30085 11.3361C8.14135 11.4282 8.08666 11.632 8.17878 11.7915C8.24063 11.8986 8.35263 11.9582 8.46785 11.9582C8.5245 11.9582 8.58178 11.9438 8.63419 11.9136L9.00006 11.7023V12.1248C9.00006 12.3091 9.14916 12.4582 9.33341 12.4582C9.51766 12.4582 9.66675 12.3091 9.66675 12.1248V11.7023L10.0326 11.9136C10.085 11.9438 10.1423 11.9582 10.199 11.9582C10.3142 11.9582 10.4262 11.8986 10.488 11.7915C10.5802 11.632 10.5255 11.4282 10.366 11.3361L10.0001 11.1248L10.3659 10.9136C10.5255 10.8215 10.5802 10.6177 10.488 10.4582Z" fill="#606770"/>
<path d="M13.8213 10.4582C13.7288 10.298 13.5241 10.2443 13.3659 10.3361L13 10.5474V10.1248C13 9.9406 12.8509 9.7915 12.6667 9.7915C12.4824 9.7915 12.3333 9.9406 12.3333 10.1248V10.5474L11.9674 10.3361C11.8083 10.2443 11.6042 10.298 11.512 10.4582C11.4199 10.6177 11.4746 10.8215 11.6341 10.9136L11.9999 11.1248L11.6341 11.3361C11.4746 11.4282 11.4199 11.632 11.512 11.7915C11.5739 11.8986 11.6859 11.9582 11.8011 11.9582C11.8578 11.9582 11.915 11.9438 11.9674 11.9136L12.3333 11.7023V12.1248C12.3333 12.3091 12.4824 12.4582 12.6667 12.4582C12.8509 12.4582 13 12.3091 13 12.1248V11.7023L13.3659 11.9136C13.4183 11.9438 13.4756 11.9582 13.5322 11.9582C13.6475 11.9582 13.7594 11.8986 13.8213 11.7915C13.9134 11.632 13.8587 11.4282 13.6992 11.3361L13.3334 11.1248L13.6992 10.9136C13.8587 10.8215 13.9134 10.6177 13.8213 10.4582Z" fill="#606770"/>
<path d="M17.1545 10.4582C17.0624 10.298 16.8577 10.2443 16.6991 10.3361L16.3333 10.5474V10.1248C16.3333 9.9406 16.1842 9.7915 15.9999 9.7915C15.8157 9.7915 15.6666 9.9406 15.6666 10.1248V10.5474L15.3007 10.3361C15.1408 10.2443 14.9377 10.298 14.8453 10.4582C14.7532 10.6177 14.8078 10.8215 14.9673 10.9136L15.3332 11.1248L14.9673 11.3361C14.8078 11.4282 14.7532 11.632 14.8453 11.7915C14.9071 11.8986 15.0191 11.9582 15.1343 11.9582C15.191 11.9582 15.2483 11.9438 15.3007 11.9136L15.6666 11.7023V12.1248C15.6666 12.3091 15.8157 12.4582 15.9999 12.4582C16.1842 12.4582 16.3333 12.3091 16.3333 12.1248V11.7023L16.6991 11.9136C16.7515 11.9438 16.8088 11.9582 16.8655 11.9582C16.9807 11.9582 17.0927 11.8986 17.1545 11.7915C17.2467 11.632 17.192 11.4282 17.0325 11.3361L16.6666 11.1248L17.0325 10.9136C17.192 10.8215 17.2467 10.6177 17.1545 10.4582Z" fill="#606770"/>
</svg>
