<svg width="14" height="15" viewBox="0 0 14 15" fill="none" xmlns="http://www.w3.org/2000/svg">
<g clip-path="url(#clip0_1089_16772)">
<path d="M9.11821 11.4023C8.34996 12.2653 7.73188 12.8175 7.69762 12.848L7 13.4681L6.30241 12.848C6.26814 12.8175 5.65007 12.2654 4.88182 11.4023C4.09216 11.5715 3.5 12.2731 3.5 13.1132C3.5 14.0797 4.28351 14.8632 5.25 14.8632H8.75C9.71649 14.8632 10.5 14.0797 10.5 13.1132C10.5 12.2731 9.90784 11.5715 9.11821 11.4023Z" fill="#AECCE0"/>
<path d="M6.9998 0.863281C4.68026 0.863281 2.7998 2.74374 2.7998 5.06328C2.7998 8.32993 6.9998 12.0633 6.9998 12.0633C6.9998 12.0633 11.1998 8.32993 11.1998 5.06328C11.1998 2.74374 9.31935 0.863281 6.9998 0.863281ZM6.9998 6.46328C6.22663 6.46328 5.5998 5.83643 5.5998 5.06328C5.5998 4.29006 6.22663 3.66328 6.9998 3.66328C7.77298 3.66328 8.39981 4.29006 8.39981 5.06328C8.39981 5.83643 7.773 6.46328 6.9998 6.46328Z" fill="#87AAC1"/>
</g>
<defs>
<clipPath id="clip0_1089_16772">
<rect width="14" height="14" fill="white" transform="translate(0 0.863281)"/>
</clipPath>
</defs>
</svg>
