<svg width="16" height="16" viewBox="0 0 16 16" fill="none" xmlns="http://www.w3.org/2000/svg">
<g id="share (1) 1">
<path id="Vector" d="M12.3382 10.7623C11.5716 10.7623 10.881 11.0934 10.4016 11.62L6.08996 8.94957C6.20507 8.65489 6.26891 8.33482 6.26891 7.99998C6.26891 7.66502 6.20507 7.34495 6.08996 7.0504L10.4016 4.37987C10.881 4.90648 11.5716 5.23766 12.3382 5.23766C13.7823 5.23766 14.9571 4.06286 14.9571 2.61877C14.9571 1.17468 13.7823 0 12.3382 0C10.8941 0 9.71934 1.1748 9.71934 2.61889C9.71934 2.95373 9.78331 3.2738 9.8983 3.56847L5.58678 6.23888C5.10741 5.71227 4.41674 5.38109 3.65014 5.38109C2.20605 5.38109 1.03125 6.55602 1.03125 7.99998C1.03125 9.44407 2.20605 10.6189 3.65014 10.6189C4.41674 10.6189 5.10741 10.2878 5.58678 9.76109L9.8983 12.4315C9.78331 12.7262 9.71934 13.0462 9.71934 13.3812C9.71934 14.8252 10.8941 16 12.3382 16C13.7823 16 14.9571 14.8252 14.9571 13.3812C14.9571 11.9371 13.7823 10.7623 12.3382 10.7623ZM10.6743 2.61889C10.6743 1.70141 11.4208 0.954954 12.3382 0.954954C13.2557 0.954954 14.0022 1.70141 14.0022 2.61889C14.0022 3.53637 13.2557 4.28283 12.3382 4.28283C11.4208 4.28283 10.6743 3.53637 10.6743 2.61889ZM3.65014 9.66392C2.73254 9.66392 1.98608 8.91746 1.98608 7.99998C1.98608 7.0825 2.73254 6.33605 3.65014 6.33605C4.56762 6.33605 5.31396 7.0825 5.31396 7.99998C5.31396 8.91746 4.56762 9.66392 3.65014 9.66392ZM10.6743 13.3811C10.6743 12.4636 11.4208 11.7171 12.3382 11.7171C13.2557 11.7171 14.0022 12.4636 14.0022 13.3811C14.0022 14.2986 13.2557 15.045 12.3382 15.045C11.4208 15.045 10.6743 14.2986 10.6743 13.3811Z" fill="#606770"/>
</g>
</svg>
