<svg width="26" height="25" viewBox="0 0 26 25" fill="none" xmlns="http://www.w3.org/2000/svg">
<path fill-rule="evenodd" clip-rule="evenodd" d="M6.75004 4.16663H19.25C21.5512 4.16663 23.4167 6.03211 23.4167 8.33329V17.7083C23.4167 20.0095 21.5512 21.875 19.25 21.875H6.75004C4.44885 21.875 2.58337 20.0095 2.58337 17.7083V8.33329C2.58337 6.03211 4.44885 4.16663 6.75004 4.16663ZM14.4584 14.1145L21.0625 9.21871C21.3573 9.00203 21.4223 8.58833 21.2084 8.29163C21.1064 8.14997 20.9514 8.05564 20.7787 8.03013C20.606 8.00462 20.4303 8.0501 20.2917 8.15621L13.6146 13.0208C13.4475 13.1959 13.216 13.295 12.974 13.295C12.732 13.295 12.5005 13.1959 12.3334 13.0208L5.70837 8.15621C5.57043 8.05344 5.3972 8.00994 5.22707 8.03536C5.05695 8.06078 4.90399 8.15302 4.80212 8.29163C4.5859 8.58563 4.64625 8.99884 4.93754 9.21871L11.5 14.0625C11.9084 14.4498 12.4476 14.6693 13.0105 14.677C13.5464 14.6769 14.0629 14.4763 14.4584 14.1145Z" fill="#87AAC1"/>
</svg>
