<svg width="35" height="35" viewBox="0 0 35 35" fill="none" xmlns="http://www.w3.org/2000/svg">
<circle cx="17.0112" cy="17.0215" r="16.5" fill="white" stroke="#DFE5EB"/>
<path d="M10.8066 19.4483C10.6706 19.4483 10.5348 19.3965 10.431 19.2926C10.2235 19.0852 10.2235 18.7489 10.431 18.5414L18.7328 10.2396C18.94 10.0321 19.2766 10.0321 19.484 10.2396C19.6915 10.447 19.6915 10.7833 19.484 10.9908L11.1822 19.2926C11.0786 19.3962 10.9426 19.4483 10.8066 19.4483Z" fill="#1C1E21"/>
<path d="M9.98637 23.2732C9.94945 23.2732 9.912 23.2692 9.87454 23.2612C9.58767 23.1996 9.40492 22.9172 9.46654 22.6304L10.2873 18.8046C10.3489 18.5177 10.6326 18.3355 10.9182 18.3966C11.2051 18.4582 11.3878 18.7405 11.3262 19.0274L10.5054 22.8532C10.452 23.1026 10.2315 23.2732 9.98637 23.2732Z" fill="#1C1E21"/>
<path d="M13.8119 22.4519C13.6759 22.4519 13.5402 22.4001 13.4364 22.2962C13.2289 22.0888 13.2289 21.7525 13.4364 21.5451L21.7382 13.2435C21.9454 13.036 22.2819 13.036 22.4894 13.2435C22.6968 13.4509 22.6968 13.7872 22.4894 13.9947L14.1878 22.2962C14.0839 22.4001 13.9479 22.4519 13.8119 22.4519Z" fill="#1C1E21"/>
<path d="M9.98549 23.2739C9.74032 23.2739 9.52012 23.1034 9.46646 22.854C9.4051 22.5671 9.58759 22.2847 9.87446 22.2231L13.7003 21.4023C13.9874 21.3415 14.2698 21.5237 14.3311 21.8103C14.3925 22.0972 14.21 22.3796 13.9231 22.4412L10.0973 23.262C10.0599 23.2702 10.0224 23.2739 9.98549 23.2739Z" fill="#1C1E21"/>
<path d="M20.6109 15.6534C20.4749 15.6534 20.3389 15.6016 20.2353 15.4977L17.2303 12.4927C17.0228 12.2853 17.0228 11.949 17.2303 11.7415C17.4375 11.5341 17.7743 11.5341 17.9815 11.7415L20.9865 14.7465C21.194 14.954 21.194 15.2903 20.9865 15.4977C20.8829 15.6016 20.7469 15.6534 20.6109 15.6534Z" fill="#1C1E21"/>
<path d="M22.1134 14.1507C21.9774 14.1507 21.8414 14.0989 21.7375 13.995C21.5301 13.7875 21.5301 13.4513 21.7375 13.2435C22.0332 12.9479 22.196 12.5476 22.196 12.1168C22.196 11.6859 22.0332 11.2856 21.7375 10.99C21.4416 10.6941 21.0413 10.5312 20.6105 10.5312C20.1796 10.5312 19.7793 10.6941 19.4837 10.99C19.2765 11.1974 18.9402 11.1977 18.7322 10.99C18.5248 10.7825 18.5248 10.4462 18.7322 10.2385C19.2284 9.74208 19.8954 9.46875 20.6105 9.46875C21.3253 9.46875 21.9925 9.74208 22.4887 10.2385C22.9852 10.7347 23.2585 11.4017 23.2585 12.1168C23.2585 12.8318 22.9852 13.4988 22.4887 13.995C22.3854 14.0986 22.2494 14.1507 22.1134 14.1507Z" fill="#1C1E21"/>
</svg>
