<svg width="21" height="21" viewBox="0 0 21 21" fill="none" xmlns="http://www.w3.org/2000/svg">
<path fill-rule="evenodd" clip-rule="evenodd" d="M15.8648 5.14518H13.6398L12.6315 4.04518C12.2624 3.68234 11.7657 3.47886 11.2481 3.47852H8.81479C8.28826 3.48292 7.78489 3.69565 7.41479 4.07018L6.42312 5.14518H4.19812C3.85294 5.14518 3.57312 5.425 3.57312 5.77018C3.57312 6.11536 3.85294 6.39518 4.19812 6.39518H15.8648C16.21 6.39518 16.4898 6.11536 16.4898 5.77018C16.4898 5.425 16.21 5.14518 15.8648 5.14518ZM8.31479 4.92852C8.44778 4.79634 8.62728 4.72154 8.81479 4.72018H11.2481C11.4279 4.71965 11.6009 4.78827 11.7315 4.91185L11.9398 5.13685H8.12312L8.31479 4.92852Z" fill="#D95C07"/>
<path fill-rule="evenodd" clip-rule="evenodd" d="M3.76479 8.91185V15.1452C3.76479 17.1978 5.42879 18.8618 7.48145 18.8618H12.5815C14.6341 18.8618 16.2981 17.1978 16.2981 15.1452V8.91185C16.2981 7.99137 15.5519 7.24518 14.6315 7.24518H5.46479C5.01701 7.23623 4.58447 7.40786 4.26467 7.72139C3.94486 8.03493 3.7647 8.46399 3.76479 8.91185ZM8.15645 11.8535C8.15645 12.1987 7.87663 12.4785 7.53145 12.4785C7.18628 12.4785 6.90645 12.1987 6.90645 11.8535V9.87852C6.90645 9.53334 7.18628 9.25352 7.53145 9.25352C7.87663 9.25352 8.15645 9.53334 8.15645 9.87852V11.8535ZM10.0315 15.7702C10.3766 15.7702 10.6565 15.4904 10.6565 15.1452V9.87852C10.6565 9.53334 10.3766 9.25352 10.0315 9.25352C9.68628 9.25352 9.40645 9.53334 9.40645 9.87852V15.1452C9.40645 15.4904 9.68628 15.7702 10.0315 15.7702ZM13.1565 11.8535C13.1565 12.1987 12.8766 12.4785 12.5315 12.4785C12.1863 12.4785 11.9065 12.1987 11.9065 11.8535V9.87852C11.9065 9.53334 12.1863 9.25352 12.5315 9.25352C12.8766 9.25352 13.1565 9.53334 13.1565 9.87852V11.8535Z" fill="#D95C07"/>
</svg>
