<svg width="16" height="17" viewBox="0 0 16 17" fill="none" xmlns="http://www.w3.org/2000/svg">
<g id="Frame 1000009538">
<g id="Clip path group">
<mask id="mask0_1829_37910" style="mask-type:luminance" maskUnits="userSpaceOnUse" x="0" y="0" width="16" height="17">
<g id="clipPath4013">
<path id="path4011" d="M0 0.5H16V16.5H0V0.5Z" fill="white"/>
</g>
</mask>
<g mask="url(#mask0_1829_37910)">
<g id="g4009">
<g id="g4015">
<path id="path4017 (Stroke)" fill-rule="evenodd" clip-rule="evenodd" d="M6.37402 15.8403C6.37402 16.0129 6.51393 16.1528 6.68652 16.1528H14.4097C14.5823 16.1528 14.7222 16.0129 14.7222 15.8403V10.4857C14.7222 10.3131 14.5823 10.1732 14.4097 10.1732C14.2371 10.1732 14.0972 10.3131 14.0972 10.4857V15.5278H6.99902V2.66371H14.0972V7.72655C14.0972 7.89914 14.2371 8.03905 14.4097 8.03905C14.5823 8.03905 14.7222 7.89914 14.7222 7.72655V2.35121C14.7222 2.17862 14.5823 2.03871 14.4097 2.03871H6.68652C6.51393 2.03871 6.37402 2.17862 6.37402 2.35121V15.8403Z" fill="#606770"/>
</g>
<path id="path4019 (Stroke)" fill-rule="evenodd" clip-rule="evenodd" d="M1.146 15.8403C1.146 16.0129 1.28591 16.1528 1.4585 16.1528H6.68653C6.85912 16.1528 6.99903 16.0129 6.99903 15.8403V7.54427C6.99903 7.37168 6.85912 7.23177 6.68653 7.23177H1.4585C1.28591 7.23177 1.146 7.37168 1.146 7.54427V15.8403ZM1.771 15.5278V7.85677H6.37403V15.5278H1.771Z" fill="#606770"/>
<g id="g4021">
<path id="path4023 (Stroke)" fill-rule="evenodd" clip-rule="evenodd" d="M0 15.8403C0 16.0129 0.139911 16.1528 0.3125 16.1528H15.6875C15.8601 16.1528 16 16.0129 16 15.8403C16 15.6677 15.8601 15.5278 15.6875 15.5278H0.3125C0.139911 15.5278 0 15.6677 0 15.8403Z" fill="#606770"/>
</g>
</g>
</g>
</g>
<path id="path4025 (Stroke)" fill-rule="evenodd" clip-rule="evenodd" d="M1.146 7.54419C1.146 7.71678 1.28591 7.85669 1.4585 7.85669H3.61187C3.78446 7.85669 3.92437 7.71678 3.92437 7.54419V6.25066C3.92437 6.07807 3.78446 5.93816 3.61187 5.93816H1.4585C1.28591 5.93816 1.146 6.07807 1.146 6.25066V7.54419ZM1.771 7.23169V6.56316H3.29937V7.23169H1.771Z" fill="#606770"/>
<g id="Clip path group_2">
<mask id="mask1_1829_37910" style="mask-type:luminance" maskUnits="userSpaceOnUse" x="0" y="0" width="14" height="17">
<g id="clipPath4033">
<path id="path4031" d="M0 0.5H14V16.5H0V0.5Z" fill="white"/>
</g>
</mask>
<g mask="url(#mask1_1829_37910)">
<g id="g4029">
<path id="path4035 (Stroke)" fill-rule="evenodd" clip-rule="evenodd" d="M7.53418 2.35107C7.53418 2.52366 7.67409 2.66357 7.84668 2.66357H13.3284C13.501 2.66357 13.6409 2.52366 13.6409 2.35107V1.1597C13.6409 0.98711 13.501 0.847199 13.3284 0.847199H7.84668C7.67409 0.847199 7.53418 0.98711 7.53418 1.1597V2.35107ZM8.15918 2.03857V1.4722H13.0159V2.03857H8.15918Z" fill="#606770"/>
</g>
</g>
</g>
<path id="path4041 (Stroke)" fill-rule="evenodd" clip-rule="evenodd" d="M8.0647 5.42017C8.0647 5.59276 8.20461 5.73267 8.3772 5.73267H9.70185C9.87444 5.73267 10.0144 5.59276 10.0144 5.42017V4.09551C10.0144 3.92292 9.87444 3.78301 9.70185 3.78301H8.3772C8.20461 3.78301 8.0647 3.92292 8.0647 4.09551V5.42017ZM8.6897 5.10767V4.40801H9.38935V5.10767H8.6897Z" fill="#606770"/>
<path id="path4043 (Stroke)" fill-rule="evenodd" clip-rule="evenodd" d="M10.9932 5.42017C10.9932 5.59276 11.1331 5.73267 11.3057 5.73267H12.6303C12.8029 5.73267 12.9428 5.59276 12.9428 5.42017V4.09551C12.9428 3.92292 12.8029 3.78301 12.6303 3.78301H11.3057C11.1331 3.78301 10.9932 3.92292 10.9932 4.09551V5.42017ZM11.6182 5.10767V4.40801H12.3178V5.10767H11.6182Z" fill="#606770"/>
<path id="path4045 (Stroke)" fill-rule="evenodd" clip-rule="evenodd" d="M8.0647 8.15283C8.0647 8.32542 8.20461 8.46533 8.3772 8.46533H9.70185C9.87444 8.46533 10.0144 8.32542 10.0144 8.15283V6.82818C10.0144 6.65559 9.87444 6.51568 9.70185 6.51568H8.3772C8.20461 6.51568 8.0647 6.65559 8.0647 6.82818V8.15283ZM8.6897 7.84033V7.14068H9.38935V7.84033H8.6897Z" fill="#606770"/>
<path id="path4047 (Stroke)" fill-rule="evenodd" clip-rule="evenodd" d="M10.9932 8.15283C10.9932 8.32542 11.1331 8.46533 11.3057 8.46533H12.6303C12.8029 8.46533 12.9428 8.32542 12.9428 8.15283V6.82818C12.9428 6.65559 12.8029 6.51568 12.6303 6.51568H11.3057C11.1331 6.51568 10.9932 6.65559 10.9932 6.82818V8.15283ZM11.6182 7.84033V7.14068H12.3178V7.84033H11.6182Z" fill="#606770"/>
<path id="path4049 (Stroke)" fill-rule="evenodd" clip-rule="evenodd" d="M8.0647 10.8853C8.0647 11.0578 8.20461 11.1978 8.3772 11.1978H9.70185C9.87444 11.1978 10.0144 11.0578 10.0144 10.8853V9.5606C10.0144 9.38801 9.87444 9.2481 9.70185 9.2481H8.3772C8.20461 9.2481 8.0647 9.38801 8.0647 9.5606V10.8853ZM8.6897 10.5728V9.8731H9.38935V10.5728H8.6897Z" fill="#606770"/>
<path id="path4051 (Stroke)" fill-rule="evenodd" clip-rule="evenodd" d="M10.9932 10.8853C10.9932 11.0578 11.1331 11.1978 11.3057 11.1978H12.6303C12.8029 11.1978 12.9428 11.0578 12.9428 10.8853V9.5606C12.9428 9.38801 12.8029 9.2481 12.6303 9.2481H11.3057C11.1331 9.2481 10.9932 9.38801 10.9932 9.5606V10.8853ZM11.6182 10.5728V9.8731H12.3178V10.5728H11.6182Z" fill="#606770"/>
<g id="g4053">
<g id="Clip path group_3">
<mask id="mask2_1829_37910" style="mask-type:luminance" maskUnits="userSpaceOnUse" x="0" y="0" width="12" height="17">
<g id="clipPath4059">
<path id="path4057" d="M0 0.5H12V16.5H0V0.5Z" fill="white"/>
</g>
</mask>
<g mask="url(#mask2_1829_37910)">
<g id="g4055">
<path id="path4061 (Stroke)" fill-rule="evenodd" clip-rule="evenodd" d="M9.19043 15.8401C9.19043 16.0127 9.33034 16.1526 9.50293 16.1526H11.5407C11.7133 16.1526 11.8532 16.0127 11.8532 15.8401V12.9293C11.8532 12.7567 11.7133 12.6168 11.5407 12.6168H9.50293C9.33034 12.6168 9.19043 12.7567 9.19043 12.9293V15.8401ZM9.81543 15.5276V13.2418H11.2282V15.5276H9.81543Z" fill="#606770"/>
<path id="path4063 (Stroke)" fill-rule="evenodd" clip-rule="evenodd" d="M3.04761 15.8401C3.04761 16.0127 3.18752 16.1526 3.36011 16.1526H4.74564C4.91823 16.1526 5.05814 16.0127 5.05814 15.8401V14.0992C5.05814 13.9267 4.91823 13.7867 4.74564 13.7867H3.36011C3.18752 13.7867 3.04761 13.9267 3.04761 14.0992V15.8401ZM3.67261 15.5276V14.4117H4.43314V15.5276H3.67261Z" fill="#606770"/>
</g>
</g>
</g>
</g>
<g id="g4065">
<path id="path4067 (Stroke)" fill-rule="evenodd" clip-rule="evenodd" d="M2.76978 13.1169C2.94236 13.1169 3.08228 12.977 3.08228 12.8044V8.88935C3.08228 8.71676 2.94236 8.57685 2.76978 8.57685C2.59719 8.57685 2.45728 8.71676 2.45728 8.88935V12.8044C2.45728 12.977 2.59719 13.1169 2.76978 13.1169Z" fill="#606770"/>
</g>
<g id="g4069">
<path id="path4071 (Stroke)" fill-rule="evenodd" clip-rule="evenodd" d="M4.0498 13.1169C4.22239 13.1169 4.3623 12.977 4.3623 12.8044V8.88935C4.3623 8.71676 4.22239 8.57685 4.0498 8.57685C3.87722 8.57685 3.7373 8.71676 3.7373 8.88935V12.8044C3.7373 12.977 3.87722 13.1169 4.0498 13.1169Z" fill="#606770"/>
</g>
<g id="g4073">
<path id="path4075 (Stroke)" fill-rule="evenodd" clip-rule="evenodd" d="M5.32959 13.1169C5.50218 13.1169 5.64209 12.977 5.64209 12.8044V8.88935C5.64209 8.71676 5.50218 8.57685 5.32959 8.57685C5.157 8.57685 5.01709 8.71676 5.01709 8.88935V12.8044C5.01709 12.977 5.157 13.1169 5.32959 13.1169Z" fill="#606770"/>
</g>
</g>
</svg>
