<svg width="19" height="19" viewBox="0 0 19 19" fill="none" xmlns="http://www.w3.org/2000/svg">
<g id="download (6) 1" clip-path="url(#clip0_1161_128747)">
<path id="Vector" d="M15.1987 7.27148H10.7954C9.81139 7.27148 9.01123 6.47133 9.01123 5.4873V1.08398C9.01123 0.881484 9.06467 0.688828 9.16135 0.521484H3.48291C2.80932 0.521484 2.26123 1.06957 2.26123 1.74316V17.2998C2.26123 17.9734 2.80932 18.5215 3.48291 18.5215H14.5396C15.2131 18.5215 15.7612 17.9734 15.7612 17.2998V7.12137C15.5939 7.21805 15.4012 7.27148 15.1987 7.27148ZM6.92611 10.8114C7.14584 10.5916 7.50162 10.5916 7.72135 10.8114L8.44873 11.5384V8.11523C8.44873 7.80445 8.70045 7.55273 9.01123 7.55273C9.32201 7.55273 9.57373 7.80445 9.57373 8.11523V11.5384L10.3011 10.8114C10.5205 10.5916 10.877 10.5916 11.0963 10.8114C11.3161 11.0307 11.3161 11.3872 11.0963 11.6066L9.40885 13.2941C9.29027 13.4157 9.11948 13.4707 8.95709 13.4565C8.67542 13.4189 8.76426 13.4447 6.92611 11.6066C6.70639 11.3872 6.70639 11.0307 6.92611 10.8114ZM11.8237 15.709H6.19873C5.88795 15.709 5.63623 15.4573 5.63623 15.1465C5.63623 14.8357 5.88795 14.584 6.19873 14.584H11.8237C12.1345 14.584 12.3862 14.8357 12.3862 15.1465C12.3862 15.4573 12.1345 15.709 11.8237 15.709ZM10.7954 6.14648H15.1987L10.1362 1.08398V5.4873C10.1362 5.85082 10.4319 6.14648 10.7954 6.14648Z" fill="#AECCE0"/>
<path id="Vector_2" d="M15.1987 7.27148H10.7954C9.81139 7.27148 9.01123 6.47133 9.01123 5.4873V1.08398C9.01123 0.881484 9.06467 0.688828 9.16135 0.521484H3.48291C2.80932 0.521484 2.26123 1.06957 2.26123 1.74316V17.2998C2.26123 17.9734 2.80932 18.5215 3.48291 18.5215H14.5396C15.2131 18.5215 15.7612 17.9734 15.7612 17.2998V7.12137C15.5939 7.21805 15.4012 7.27148 15.1987 7.27148ZM6.92611 10.8114C7.14584 10.5916 7.50162 10.5916 7.72135 10.8114L8.44873 11.5384V8.11523C8.44873 7.80445 8.70045 7.55273 9.01123 7.55273C9.32201 7.55273 9.57373 7.80445 9.57373 8.11523V11.5384L10.3011 10.8114C10.5205 10.5916 10.877 10.5916 11.0963 10.8114C11.3161 11.0307 11.3161 11.3872 11.0963 11.6066L9.40885 13.2941C9.29027 13.4157 9.11948 13.4707 8.95709 13.4565C8.67542 13.4189 8.76426 13.4447 6.92611 11.6066C6.70639 11.3872 6.70639 11.0307 6.92611 10.8114ZM11.8237 15.709H6.19873C5.88795 15.709 5.63623 15.4573 5.63623 15.1465C5.63623 14.8357 5.88795 14.584 6.19873 14.584H11.8237C12.1345 14.584 12.3862 14.8357 12.3862 15.1465C12.3862 15.4573 12.1345 15.709 11.8237 15.709Z" fill="#87AAC1"/>
</g>
<defs>
<clipPath id="clip0_1161_128747">
<rect width="18" height="18" fill="white" transform="translate(0.0112305 0.521484)"/>
</clipPath>
</defs>
</svg>
