<svg width="18" height="19" viewBox="0 0 18 19" fill="none" xmlns="http://www.w3.org/2000/svg">
<path d="M16.8578 1.53125H1.13984C0.514388 1.53125 0.0249023 2.02074 0.0249023 2.619V12.8166C0.0249023 13.4149 0.514388 13.9316 1.13984 13.9316H16.885C17.4832 13.9316 17.9999 13.4421 17.9999 12.8166V2.619C17.9727 2.02074 17.4832 1.53125 16.8578 1.53125ZM8.99881 12.2184C6.52418 12.2184 4.48466 10.206 4.48466 7.70421C4.48466 5.22959 6.49699 3.19006 8.99881 3.19006C11.4734 3.19006 13.513 5.20239 13.513 7.70421C13.513 10.206 11.4734 12.2184 8.99881 12.2184Z" fill="#87AAC1"/>
<path d="M11.0384 7.73134C11.0384 8.00328 10.9024 8.24802 10.6577 8.41118L8.40062 9.77087C8.26465 9.85245 8.12869 9.87964 7.99272 9.87964C7.85675 9.87964 7.72078 9.85245 7.61201 9.77087C7.36726 9.6349 7.2041 9.36296 7.2041 9.09103V6.37166C7.2041 6.09972 7.34007 5.82779 7.61201 5.69182C7.85675 5.55585 8.15588 5.55585 8.40062 5.69182L10.6577 7.0515C10.9024 7.18747 11.0384 7.43221 11.0384 7.73134Z" fill="#AECCE0"/>
<path d="M17.9731 16.4334C17.9731 16.5693 17.8643 16.7053 17.7011 16.7053H4.67539C4.51223 17.1676 4.02274 17.4939 3.39729 17.4939C2.79903 17.4939 2.28235 17.1676 2.11919 16.7053H0.541956C0.378794 16.7053 0.27002 16.5693 0.27002 16.4334C0.27002 16.2702 0.378794 16.1614 0.541956 16.1614H2.11919C2.25516 15.6991 2.77184 15.3728 3.39729 15.3728C4.02274 15.3728 4.51223 15.6991 4.67539 16.1614H17.7011C17.8643 16.1614 17.9731 16.2702 17.9731 16.4334Z" fill="#87AAC1"/>
</svg>
