<svg width="22" height="22" viewBox="0 0 22 22" fill="none" xmlns="http://www.w3.org/2000/svg">
<mask id="mask0_1803_33269" style="mask-type:luminance" maskUnits="userSpaceOnUse" x="0" y="0" width="22" height="22">
<path d="M0 1.90735e-06H22V22H0V1.90735e-06Z" fill="white"/>
</mask>
<g mask="url(#mask0_1803_33269)">
<path fill-rule="evenodd" clip-rule="evenodd" d="M16.021 5.51038C16.2797 5.51038 16.4897 5.72038 16.4897 5.97913C16.4897 6.23788 16.2797 6.44788 16.021 6.44788C15.7622 6.44788 15.5522 6.23788 15.5522 5.97913C15.5522 5.72038 15.7622 5.51038 16.021 5.51038Z" fill="#606770"/>
<path fill-rule="evenodd" clip-rule="evenodd" d="M10.4607 17.9055C10.2513 18.1149 9.91258 18.1147 9.70361 17.9056L4.09449 12.2965C3.88537 12.0875 3.88511 11.7487 4.09449 11.5393L11.5393 4.09443C11.5393 4.09444 11.5393 4.09442 11.5393 4.09443C11.64 3.9938 11.7761 3.93748 11.9181 3.93748H17.5271C17.6692 3.93748 17.8051 3.99381 17.9054 4.09418C18.0057 4.19441 18.0625 4.33079 18.0625 4.47291V10.0819C18.0625 10.224 18.0062 10.36 17.9056 10.4606L16.4417 11.9245C14.5909 13.7753 11.7679 16.5983 10.4607 17.9055ZM9.04058 18.5684C9.61586 19.144 10.5483 19.1438 11.1236 18.5684C12.4511 17.241 15.3415 14.3505 17.1898 12.5023L18.5685 11.1236C18.8449 10.8471 19 10.4726 19 10.0819V4.47291C19 4.08239 18.8451 3.7078 18.5685 3.43149C18.2922 3.15494 17.9176 2.99998 17.5271 2.99998H11.9181C11.5274 2.99998 11.1529 3.15505 10.8764 3.43146L3.43158 10.8764C2.85624 11.4517 2.85605 12.3841 3.43158 12.9594M9.04058 18.5684C9.04054 18.5684 9.04062 18.5684 9.04058 18.5684V18.5684ZM3.43158 12.9594L9.04058 18.5684L3.43158 12.9594Z" fill="#606770"/>
<path fill-rule="evenodd" clip-rule="evenodd" d="M9.5271 8.15975C9.5271 8.97294 10.1868 9.63269 11 9.63269C11.8132 9.63269 12.4729 8.97294 12.4729 8.15975C12.4729 7.34691 11.8132 6.68685 11 6.68685C10.1868 6.68685 9.5271 7.34691 9.5271 8.15975ZM11 8.69519C10.7046 8.69519 10.4646 8.45519 10.4646 8.15975C10.4646 7.86453 10.7047 7.62435 11 7.62435C11.2953 7.62435 11.5354 7.86453 11.5354 8.15975C11.5354 8.45519 11.2954 8.69519 11 8.69519Z" fill="#606770"/>
<path fill-rule="evenodd" clip-rule="evenodd" d="M9.5271 13.8402C9.5271 14.653 10.1868 15.3131 11 15.3131C11.8133 15.3131 12.4729 14.653 12.4729 13.8402C12.4729 13.027 11.8132 12.3673 11 12.3673C10.1868 12.3673 9.5271 13.027 9.5271 13.8402ZM11 14.3756C10.7047 14.3756 10.4646 14.1354 10.4646 13.8402C10.4646 13.5448 10.7046 13.3048 11 13.3048C11.2954 13.3048 11.5354 13.5448 11.5354 13.8402C11.5354 14.1354 11.2953 14.3756 11 14.3756Z" fill="#606770"/>
<path fill-rule="evenodd" clip-rule="evenodd" d="M7.5188 10.9999C7.5188 11.2588 7.72867 11.4686 7.98755 11.4686H14.0125C14.2714 11.4686 14.4813 11.2588 14.4813 10.9999C14.4813 10.741 14.2714 10.5311 14.0125 10.5311H7.98755C7.72867 10.5311 7.5188 10.741 7.5188 10.9999Z" fill="#606770"/>
</g>
</svg>
