<svg width="15" height="15" viewBox="0 0 15 15" fill="none" xmlns="http://www.w3.org/2000/svg">
<g clip-path="url(#clip0_3332_213688)">
<path d="M4.2929 4.25684H4.11735L3.78931 5.89746H4.62094L4.2929 4.25684Z" fill="#87AAC1"/>
<path d="M10.9282 7.53809C11.1053 8.01384 11.3409 8.39895 11.6016 8.72664C11.8623 8.39895 12.1252 8.01381 12.3023 7.53809H10.9282Z" fill="#87AAC1"/>
<path d="M13.2696 2.99902H8.17592L9.238 11.5215C9.25679 11.8701 9.16149 12.1983 8.93399 12.4552L7.13538 14.5107H13.2696C13.9481 14.5107 14.5001 13.9588 14.5001 13.2803V4.25684C14.5001 3.57833 13.9481 2.99902 13.2696 2.99902ZM13.2696 7.53809H13.1601C12.9267 8.28684 12.5566 8.87273 12.172 9.33462C12.4733 9.61009 12.7955 9.83605 13.1158 10.0891C13.2924 10.2305 13.3213 10.4885 13.1795 10.6655C13.0383 10.8423 12.7794 10.871 12.6031 10.7292C12.255 10.4545 11.9283 10.2245 11.6016 9.92473C11.2749 10.2245 10.9756 10.4545 10.6275 10.7292C10.4512 10.871 10.1923 10.8423 10.0511 10.6655C9.90932 10.4885 9.93817 10.2305 10.1148 10.0891C10.4351 9.83605 10.73 9.61009 11.0313 9.33462C10.6467 8.87276 10.3039 8.28687 10.0705 7.53809H9.961C9.73429 7.53809 9.55084 7.35464 9.55084 7.12793C9.55084 6.90122 9.73429 6.71777 9.961 6.71777H11.1915V6.30762C11.1915 6.08091 11.3749 5.89746 11.6016 5.89746C11.8283 5.89746 12.0118 6.08091 12.0118 6.30762V6.71777H13.2696C13.4963 6.71777 13.6797 6.90122 13.6797 7.12793C13.6797 7.35464 13.4963 7.53809 13.2696 7.53809Z" fill="#AECCE0"/>
<path d="M7.17636 1.58861C7.09985 0.974164 6.57474 0.510742 5.95552 0.510742H1.73047C1.05196 0.510742 0.5 1.0627 0.5 1.74121V10.8193C0.5 11.4978 1.05196 12.0498 1.73047 12.0498C4.18238 12.0498 5.94625 12.0498 8.19866 12.0498C8.31832 11.913 8.41861 11.8274 8.42285 11.6489C8.42389 11.6041 7.18191 1.63301 7.17636 1.58861ZM5.52972 8.35039C5.31223 8.39515 5.09192 8.25395 5.04707 8.02874L4.78493 6.71777H3.62525L3.36311 8.02874C3.31906 8.25064 3.10515 8.39643 2.88046 8.35039C2.65857 8.30593 2.51436 8.09005 2.55882 7.86774L3.37911 3.76618C3.41755 3.57472 3.5858 3.43652 3.78125 3.43652H4.62891C4.82436 3.43652 4.99261 3.57472 5.03105 3.76618L5.85136 7.86774C5.89582 8.09005 5.75164 8.30593 5.52972 8.35039Z" fill="#87AAC1"/>
<path d="M5.29224 12.8701L5.36262 13.4329C5.40954 13.8098 5.65995 14.1941 6.07186 14.386C6.84919 13.5303 6.3789 14.0479 7.44887 12.8701H5.29224Z" fill="#AECCE0"/>
</g>
<defs>
<clipPath id="clip0_3332_213688">
<rect width="14" height="14" fill="white" transform="translate(0.5 0.510742)"/>
</clipPath>
</defs>
</svg>
