<svg width="14" height="15" viewBox="0 0 14 15" fill="none" xmlns="http://www.w3.org/2000/svg">
<g clip-path="url(#clip0_1038_11909)">
<path d="M13.58 12.0868L11.62 10.1268C12.25 9.1468 12.6 8.0268 12.6 6.7668C12.6 3.2668 9.8 0.466797 6.3 0.466797C2.8 0.466797 0 3.2668 0 6.7668C0 10.2668 2.8 13.0668 6.3 13.0668C7.56 13.0668 8.68 12.7168 9.66 12.0868L11.62 14.0468C12.18 14.6068 13.02 14.6068 13.58 14.0468C14.14 13.4868 14.14 12.6468 13.58 12.0868ZM6.3 11.6668C3.57 11.6668 1.4 9.4968 1.4 6.7668C1.4 4.0368 3.57 1.8668 6.3 1.8668C9.03 1.8668 11.2 4.0368 11.2 6.7668C11.2 9.4968 8.96 11.6668 6.3 11.6668Z" fill="#87AAC1"/>
<path d="M9.0998 6.06758H6.9998V3.96758C6.9998 3.54758 6.7198 3.26758 6.2998 3.26758C5.8798 3.26758 5.5998 3.61758 5.5998 3.96758V6.06758H3.4998C3.1498 6.06758 2.7998 6.34758 2.7998 6.76758C2.7998 7.18758 3.0798 7.46758 3.4998 7.46758H5.5998V9.56758C5.5998 9.98758 5.8798 10.2676 6.2998 10.2676C6.7198 10.2676 6.9998 9.98758 6.9998 9.56758V7.46758H9.0998C9.5198 7.46758 9.7998 7.18758 9.7998 6.76758C9.7998 6.34758 9.4498 6.06758 9.0998 6.06758Z" fill="#87AAC1"/>
</g>
<defs>
<clipPath id="clip0_1038_11909">
<rect width="14" height="14" fill="white" transform="translate(0 0.466797)"/>
</clipPath>
</defs>
</svg>
