<svg width="14" height="15" viewBox="0 0 14 15" fill="none" xmlns="http://www.w3.org/2000/svg">
<g clip-path="url(#clip0_7663_49593)">
<path d="M3.79265 3.86719H3.61711L3.28906 5.50781H4.1207L3.79265 3.86719Z" fill="#87AAC1"/>
<path d="M10.4277 7.14844C10.6048 7.62419 10.8404 8.0093 11.1011 8.33699C11.3618 8.0093 11.6247 7.62416 11.8018 7.14844H10.4277Z" fill="#87AAC1"/>
<path d="M12.77 2.60938H7.67628L8.73837 11.1318C8.75715 11.4804 8.66186 11.8086 8.43436 12.0655L6.63574 14.1211H12.77C13.4485 14.1211 14.0004 13.5691 14.0004 12.8906V3.86719C14.0004 3.18868 13.4485 2.60938 12.77 2.60938ZM12.77 7.14844H12.6604C12.427 7.89719 12.0569 8.48309 11.6723 8.94498C11.9736 9.22044 12.2958 9.44641 12.6161 9.6995C12.7928 9.84089 12.8216 10.0988 12.6798 10.2759C12.5387 10.4527 12.2797 10.4813 12.1035 10.3396C11.7554 10.0648 11.4287 9.83488 11.102 9.53508C10.7753 9.83488 10.4759 10.0648 10.1279 10.3396C9.95158 10.4813 9.69264 10.4527 9.55149 10.2759C9.40968 10.0988 9.43853 9.84089 9.61517 9.6995C9.9355 9.44641 10.2304 9.22044 10.5317 8.94498C10.147 8.48311 9.80425 7.89722 9.5709 7.14844H9.46136C9.23466 7.14844 9.05121 6.96499 9.05121 6.73828C9.05121 6.51157 9.23466 6.32812 9.46136 6.32812H10.6918V5.91797C10.6918 5.69126 10.8753 5.50781 11.102 5.50781C11.3287 5.50781 11.5121 5.69126 11.5121 5.91797V6.32812H12.77C12.9967 6.32812 13.1801 6.51157 13.1801 6.73828C13.1801 6.96499 12.9967 7.14844 12.77 7.14844Z" fill="#AECCE0"/>
<path d="M6.67636 1.19896C6.59985 0.584516 6.07474 0.121094 5.45552 0.121094H1.23047C0.551961 0.121094 0 0.673055 0 1.35156V10.4297C0 11.1082 0.551961 11.6602 1.23047 11.6602C3.68238 11.6602 5.44625 11.6602 7.69866 11.6602C7.81832 11.5234 7.91861 11.4377 7.92285 11.2592C7.92389 11.2145 6.68191 1.24336 6.67636 1.19896ZM5.02972 7.96074C4.81223 8.0055 4.59192 7.8643 4.54707 7.63909L4.28493 6.32812H3.12525L2.86311 7.63909C2.81906 7.86099 2.60515 8.00679 2.38046 7.96074C2.15857 7.91628 2.01436 7.7004 2.05882 7.47809L2.87911 3.37653C2.91755 3.18507 3.0858 3.04688 3.28125 3.04688H4.12891C4.32436 3.04688 4.49261 3.18507 4.53105 3.37653L5.35136 7.47809C5.39582 7.7004 5.25164 7.91628 5.02972 7.96074Z" fill="#87AAC1"/>
<path d="M4.79199 12.4805L4.86238 13.0432C4.9093 13.4201 5.15971 13.8044 5.57162 13.9963C6.34895 13.1406 5.87866 13.6583 6.94862 12.4805H4.79199Z" fill="#AECCE0"/>
</g>
<defs>
<clipPath id="clip0_7663_49593">
<rect width="14" height="14" fill="white" transform="translate(0 0.121094)"/>
</clipPath>
</defs>
</svg>
