<svg width="17" height="17" viewBox="0 0 17 17" fill="none" xmlns="http://www.w3.org/2000/svg">
<g clip-path="url(#clip0_520_28906)">
<path d="M0.979173 7.3396C0.717766 7.3396 0.505859 7.54581 0.505859 7.80012V14.5641C0.505859 14.8184 0.717797 15.0246 0.979173 15.0246H3.83083V7.3396H0.979173Z" fill="#D95C07"/>
<path d="M16.4941 9.88273C16.4941 9.29813 16.1712 8.78549 15.6899 8.50473C15.8743 8.24564 15.9825 7.93134 15.9825 7.59302C15.9825 6.70783 15.2423 5.98764 14.3325 5.98764H10.8494C10.9562 5.51696 11.1022 4.81068 11.2038 4.07131C11.4684 2.14722 11.2876 1.08014 10.6349 0.713175C10.2279 0.484435 9.78919 0.438036 9.39943 0.582401C9.09834 0.693989 8.69171 0.968337 8.46 1.64167L7.54456 3.9738C7.08046 5.08898 5.65924 6.25974 4.77783 6.9071V15.2284C6.4114 15.7853 8.11603 16.0676 9.85509 16.0676H13.6503C14.5601 16.0676 15.3003 15.3474 15.3003 14.4622C15.3003 14.1522 15.2095 13.8625 15.0524 13.6168C15.6025 13.3562 15.9824 12.8066 15.9824 12.1725C15.9824 11.8341 15.8743 11.5199 15.6899 11.2608C16.1712 10.98 16.4941 10.4673 16.4941 9.88273Z" fill="#D95C07"/>
</g>
<defs>
<clipPath id="clip0_520_28906">
<rect width="16" height="15.5676" fill="white" transform="translate(0.5 0.5)"/>
</clipPath>
</defs>
</svg>
