<svg width="18" height="18" viewBox="0 0 18 18" fill="none" xmlns="http://www.w3.org/2000/svg">
<g id="sent (1) 1">
<path id="Vector" fill-rule="evenodd" clip-rule="evenodd" d="M12.5096 4.69977C12.8135 4.98124 12.8317 5.45578 12.5502 5.75965L5.79552 13.0522C5.24241 13.6493 4.3201 13.6493 3.76699 13.0522L0.94977 10.0106C0.6683 9.70672 0.686466 9.2322 0.990353 8.95072C1.29423 8.66925 1.76876 8.68747 2.05023 8.9913L4.78125 11.9398L11.4498 4.74035C11.7313 4.43647 12.2058 4.4183 12.5096 4.69977ZM16.26 4.69977C16.5638 4.98124 16.5821 5.45577 16.3006 5.75965L9.54585 13.0522C9.26438 13.356 8.78985 13.3742 8.48595 13.0927C8.18205 12.8113 8.1639 12.3367 8.44537 12.0328L15.2001 4.74035C15.4816 4.43647 15.9561 4.4183 16.26 4.69977Z" fill="#87AAC1"/>
</g>
</svg>
