<svg width="44" height="44" viewBox="0 0 44 44" fill="none" xmlns="http://www.w3.org/2000/svg">
<g clip-path="url(#clip0_3455_41781)">
<path d="M13.4555 19.2578L4.19238 36.7098L12.6041 35.9327L16.6753 43.3352L25.9384 25.8832L13.4555 19.2578Z" fill="#E95454"/>
<path d="M14.5162 38.2535C14.7761 37.6952 14.5043 37.0282 13.9606 36.7391L13.4275 36.4553C12.8943 36.1516 12.6914 35.4766 12.9819 34.9302C13.2763 34.3746 13.9685 34.1624 14.5242 34.4568L16.0307 35.2564C16.4961 35.5031 17.0796 35.3241 17.3197 34.8559L17.3568 34.7843C17.6326 34.3427 17.4695 33.7592 17.0107 33.5165L12.5045 31.1255C11.9554 30.8338 11.6862 30.1694 11.9422 29.6097C12.2246 29.0143 12.9381 28.7796 13.5123 29.0846L17.6923 31.3032C18.1578 31.5499 18.7413 31.3708 18.988 30.9054L19.0118 30.8444L19.0185 30.8311C19.285 30.3431 19.098 29.7304 18.606 29.4692L16.2614 28.2252C15.7124 27.9335 15.4432 27.2691 15.7031 26.7028C15.9829 26.114 16.699 25.8727 17.2733 26.1777L19.8632 27.5529C20.3473 27.8102 20.9255 27.5953 21.1761 27.1073C21.1801 27.1007 21.1801 27.1007 21.1827 27.094C21.1867 27.0874 21.1867 27.0874 21.1894 27.0808C21.4533 26.5994 21.3074 26 20.822 25.744L18.0278 24.2614C17.4854 23.9736 17.2162 23.3092 17.4722 22.7496C17.7547 22.1542 18.4681 21.9194 19.0423 22.2244L25.9356 25.8833L16.6725 43.3353L14.1197 38.6951C14.2841 38.5837 14.4274 38.4458 14.5162 38.2535Z" fill="#ED6362"/>
<path d="M30.7828 19.2578L40.0459 36.7098L31.6342 35.9327L27.5629 43.3352L18.2998 25.8832L30.7828 19.2578Z" fill="#ED6362"/>
<path d="M29.7225 38.2532C29.4626 37.6949 29.7344 37.0278 30.2781 36.7387L30.8112 36.4549C31.3444 36.1512 31.5473 35.4762 31.2568 34.9299C30.9624 34.3742 30.2702 34.162 29.7145 34.4564L28.208 35.2561C27.7426 35.5027 27.1591 35.3237 26.919 34.8556L26.8819 34.784C26.6061 34.3424 26.7692 33.7589 27.228 33.5162L31.7356 31.1238C32.2846 30.8321 32.5538 30.1677 32.2979 29.6081C32.0154 29.0126 31.3019 28.7779 30.7277 29.0829L26.5477 31.3015C26.0822 31.5482 25.4987 31.3692 25.2521 30.9037L25.2282 30.8427L25.2216 30.8294C24.955 30.3414 25.142 29.7287 25.634 29.4675L27.9786 28.2236C28.5276 27.9318 28.7968 27.2674 28.5369 26.7012C28.2571 26.1123 27.541 25.871 26.9668 26.176L24.3742 27.5539C23.8901 27.8111 23.3119 27.5963 23.0613 27.1083C23.0573 27.1016 23.0573 27.1016 23.0546 27.095C23.0507 27.0884 23.0507 27.0884 23.048 27.0818C22.7841 26.6004 22.93 26.0009 23.4154 25.745L26.2095 24.2624C26.7519 23.9746 27.0211 23.3102 26.7652 22.7506C26.4827 22.1551 25.7693 21.9204 25.195 22.2254L18.3018 25.8842L27.5649 43.3363L30.1177 38.6961C29.9546 38.5834 29.8113 38.4455 29.7225 38.2532Z" fill="#E95454"/>
<path d="M22.119 31.8747C30.6669 31.8747 37.5964 24.9452 37.5964 16.3973C37.5964 7.84939 30.6669 0.919922 22.119 0.919922C13.5711 0.919922 6.6416 7.84939 6.6416 16.3973C6.6416 24.9452 13.5711 31.8747 22.119 31.8747Z" fill="#FFCC5B"/>
<path d="M24.2191 14.622H14.4109C13.6484 14.622 13.0225 13.9961 13.0225 13.2336L13.0331 13.1381V13.1168C13.0225 12.3119 13.6789 11.6541 14.4852 11.6541H21.283C22.1835 11.6541 22.9791 10.9871 23.0322 10.0853C23.0746 9.14241 22.3227 8.34672 21.3785 8.34672H14.1775C13.3832 8.34672 12.7891 7.67967 12.7997 6.88399C12.7997 6.87338 12.7997 6.87338 12.7997 6.86277C12.7997 6.85216 12.7997 6.85216 12.7997 6.84155C12.7891 6.04719 13.3819 5.37882 14.1775 5.37882H21.7127C22.6025 5.37882 23.3982 4.71177 23.4513 3.8206C23.4937 2.86711 22.7418 2.08203 21.7976 2.08203H16.2795C10.6527 4.40145 6.6875 9.93411 6.6875 16.3977C6.6875 22.8613 10.6527 28.3927 16.2808 30.7094H23.2868C24.1766 30.7094 24.9723 30.0424 25.0254 29.1512C25.0678 28.1977 24.3159 27.414 23.3717 27.414L15.4016 27.4127C14.4613 27.4127 13.7041 26.6263 13.7545 25.6741C13.8009 24.7829 14.6019 24.1132 15.4944 24.1132H18.5843C19.4728 24.088 20.1903 23.36 20.1903 22.4648C20.1903 21.5538 19.449 20.8111 18.5366 20.8111H13.8526C13.0901 20.8111 12.4642 20.1865 12.4748 19.4227V19.306C12.4217 18.554 13.0265 17.9175 13.7784 17.9175H24.1236C25.0241 17.9175 25.8197 17.2504 25.8728 16.3593C25.9152 15.4071 25.162 14.622 24.2191 14.622Z" fill="#FDBC4B"/>
<path d="M22.1194 27.4444C16.0271 27.4444 11.0713 22.4873 11.0713 16.3964C11.0713 10.3054 16.0271 5.34961 22.1194 5.34961C28.2117 5.34961 33.1675 10.3067 33.1675 16.3977C33.1675 22.4887 28.2117 27.4444 22.1194 27.4444Z" fill="#FFDB70"/>
<path opacity="0.2" d="M33.1678 16.3971C33.1678 10.5197 28.5502 5.71239 22.7536 5.38086H21.7246C21.0456 5.38086 20.4395 5.8901 20.3984 6.56908C20.3666 7.29581 20.9395 7.89522 21.6596 7.89522L27.7386 7.89655C28.4561 7.89655 29.0329 8.49597 28.9945 9.22269C28.9587 9.903 28.3486 10.4136 27.667 10.4136H25.3104C24.6328 10.4335 24.0851 10.9878 24.0851 11.6707C24.0851 12.3656 24.6514 12.9319 25.3463 12.9319H28.9189C29.5011 12.9319 29.9771 13.4093 29.9692 13.9902V14.0777C30.009 14.6519 29.5488 15.136 28.9746 15.136H21.0854C20.3984 15.136 19.7924 15.6452 19.7513 16.3242C19.7194 17.0509 20.2923 17.6503 21.0124 17.6503H28.4919C29.074 17.6503 29.5501 18.1277 29.5501 18.7086L29.5422 18.7815V18.7974C29.5501 19.4114 29.0488 19.9127 28.4348 19.9127H23.2496C22.5627 19.9127 21.9566 20.422 21.9155 21.1089C21.8837 21.8277 22.4566 22.435 23.1767 22.435H28.6682C29.2743 22.435 29.7265 22.9443 29.7185 23.5503C29.7185 23.5583 29.7185 23.5583 29.7185 23.5662C29.7185 23.5742 29.7185 23.5742 29.7185 23.5821C29.7265 24.1882 29.2743 24.6974 28.6682 24.6974H22.9221C22.2431 24.6974 21.637 25.2067 21.5959 25.8857C21.5641 26.6137 22.137 27.2118 22.8571 27.2118H24.3729C29.3897 26.1668 33.1678 21.7149 33.1678 16.3971Z" fill="white"/>
<path d="M29.8319 13.9509H24.4583L22.7967 8.83999C22.5832 8.18355 21.6535 8.18355 21.44 8.83999L19.7797 13.9509H14.4062C13.7153 13.9509 13.4275 14.8355 13.9871 15.2413L18.3342 18.4001L16.6739 23.5111C16.4604 24.1675 17.2123 24.7139 17.7719 24.3081L22.119 21.1492L26.4661 24.3081C27.0257 24.7139 27.7777 24.1675 27.5642 23.5111L25.9038 18.4001L30.2509 15.2413C30.8092 14.8355 30.5228 13.9509 29.8319 13.9509Z" fill="#EC9922"/>
</g>
<defs>
<clipPath id="clip0_3455_41781">
<rect width="42.4166" height="42.4166" fill="white" transform="translate(0.911133 0.919922)"/>
</clipPath>
</defs>
</svg>
