<svg width="40" height="40" viewBox="0 0 40 40" fill="none" xmlns="http://www.w3.org/2000/svg">
<circle cx="20" cy="20" r="19.5" fill="white" stroke="#DFE5EB"/>
<g clip-path="url(#clip0_381_3333)">
<path d="M20.7734 20.0002L26.8398 13.9338C27.0534 13.7202 27.0534 13.3739 26.8398 13.1604C26.6262 12.9468 26.28 12.9468 26.0664 13.1604L20 19.2268L13.9336 13.1604C13.72 12.9468 13.3737 12.9468 13.1602 13.1604C12.9466 13.374 12.9466 13.7202 13.1602 13.9338L19.2266 20.0002L13.1602 26.0666C12.9466 26.2802 12.9466 26.6265 13.1602 26.84C13.267 26.9468 13.4069 27.0002 13.5469 27.0002C13.6869 27.0002 13.8268 26.9468 13.9336 26.84L20 20.7736L26.0664 26.84C26.1732 26.9468 26.3131 27.0002 26.4531 27.0002C26.5931 27.0002 26.733 26.9468 26.8398 26.84C27.0534 26.6264 27.0534 26.2801 26.8398 26.0666L20.7734 20.0002Z" fill="#1C1E21"/>
</g>
<defs>
<clipPath id="clip0_381_3333">
<rect width="14" height="14" fill="white" transform="translate(13 13)"/>
</clipPath>
</defs>
</svg>
