<svg width="22" height="22" viewBox="0 0 22 22" fill="none" xmlns="http://www.w3.org/2000/svg">
<path d="M11.2269 1.375H10.7731C8.87465 1.375 7.33563 2.91402 7.33563 4.8125V10.9312C7.33563 12.8297 8.87465 14.3687 10.7731 14.3687H11.2269C13.1254 14.3687 14.6644 12.8297 14.6644 10.9312V4.8125C14.6644 2.91402 13.1254 1.375 11.2269 1.375Z" fill="url(#paint0_linear_7650_46385)"/>
<path d="M17.4151 9.48267C17.3248 9.48261 17.2354 9.50036 17.1519 9.53489C17.0685 9.56942 16.9927 9.62006 16.9288 9.68391C16.865 9.74776 16.8144 9.82357 16.7798 9.90701C16.7453 9.99044 16.7275 10.0799 16.7276 10.1702C16.7276 11.6892 16.1242 13.1461 15.05 14.2202C13.9759 15.2943 12.519 15.8978 11 15.8978C9.48094 15.8978 8.02411 15.2943 6.94997 14.2202C5.87584 13.1461 5.2724 11.6892 5.2724 10.1702C5.2724 9.98783 5.19997 9.81296 5.07104 9.68403C4.9421 9.5551 4.76724 9.48267 4.5849 9.48267C4.40256 9.48267 4.2277 9.5551 4.09876 9.68403C3.96983 9.81296 3.8974 9.98783 3.8974 10.1702C3.89978 11.934 4.55759 13.6341 5.74307 14.9401C6.92855 16.2462 8.55711 17.0651 10.3125 17.2379V19.25H8.02106C7.83872 19.25 7.66385 19.3224 7.53492 19.4513C7.40599 19.5803 7.33356 19.7551 7.33356 19.9375C7.33356 20.1198 7.40599 20.2947 7.53492 20.4236C7.66385 20.5525 7.83872 20.625 8.02106 20.625H13.9789C14.1613 20.625 14.3361 20.5525 14.4651 20.4236C14.594 20.2947 14.6664 20.1198 14.6664 19.9375C14.6664 19.7551 14.594 19.5803 14.4651 19.4513C14.3361 19.3224 14.1613 19.25 13.9789 19.25H11.6875V17.2379C13.4429 17.0651 15.0714 16.2462 16.2569 14.9401C17.4424 13.6341 18.1002 11.934 18.1026 10.1702C18.1026 10.0799 18.0849 9.99044 18.0504 9.90701C18.0158 9.82357 17.9652 9.74776 17.9013 9.68391C17.8375 9.62006 17.7617 9.56942 17.6782 9.53489C17.5948 9.50036 17.5054 9.48261 17.4151 9.48267Z" fill="url(#paint1_linear_7650_46385)"/>
<defs>
<linearGradient id="paint0_linear_7650_46385" x1="11" y1="14.3687" x2="11" y2="1.375" gradientUnits="userSpaceOnUse">
<stop stop-color="#3A3C3E"/>
<stop offset="1" stop-color="#6D808C"/>
</linearGradient>
<linearGradient id="paint1_linear_7650_46385" x1="11" y1="20.625" x2="11" y2="9.48267" gradientUnits="userSpaceOnUse">
<stop stop-color="#3A3C3E"/>
<stop offset="1" stop-color="#6D808C"/>
</linearGradient>
</defs>
</svg>
