<svg width="14" height="15" viewBox="0 0 14 15" fill="none" xmlns="http://www.w3.org/2000/svg">
<path d="M12.1314 1.57822H1.86851C1.04886 1.57822 0.381201 2.24304 0.381201 3.06072V9.88528C0.381201 10.7053 1.04854 11.3726 1.86851 11.3726H4.94914V12.8158H4.00701C3.73435 12.8158 3.51326 13.0369 3.51326 13.3096C3.51326 13.5823 3.73435 13.8033 4.00701 13.8033H9.99026C10.2629 13.8033 10.484 13.5823 10.484 13.3096C10.484 13.0369 10.2629 12.8158 9.99026 12.8158H9.04901V11.3726H12.1314C12.9514 11.3726 13.6187 10.7053 13.6187 9.88528V3.06553C13.6187 2.24558 12.9518 1.57822 12.1314 1.57822ZM8.06107 12.8154H5.93664V11.3722H8.06107V12.8154ZM12.6312 9.88528C12.6312 10.1608 12.4073 10.3847 12.1318 10.3847H1.86851C1.59299 10.3847 1.36914 10.1608 1.36914 9.88528V3.06072C1.36914 2.78859 1.59223 2.56616 1.86851 2.56616H12.1318C12.4073 2.56616 12.6312 2.79001 12.6312 3.06553V9.88528Z" fill="#5C5E5E" stroke="#5C5E5E" stroke-width="0.2"/>
<path d="M5.49244 7.60449C5.08561 7.21071 4.82622 6.66422 4.82622 6.05232C4.82622 4.85387 5.80158 3.879 6.99997 3.879C8.19835 3.879 9.17372 4.85387 9.17372 6.05232C9.17372 6.66413 8.91475 7.21103 8.50757 7.60459C8.83745 7.78453 9.11113 8.02532 9.28925 8.31515C9.28926 8.31517 9.28928 8.31519 9.28929 8.31521L9.20409 8.36757C9.31828 8.55307 9.26009 8.795 9.07459 8.90875L5.49244 7.60449ZM5.49244 7.60449C5.16222 7.78445 4.88885 8.0253 4.71108 8.31521M5.49244 7.60449C5.51778 7.62902 5.54369 7.65295 5.57015 7.67628C5.23854 7.85131 4.96839 8.08684 4.79628 8.36757M8.44768 8.83147C8.54049 8.98303 8.70294 9.06738 8.86897 9.06738C8.95687 9.06738 9.04646 9.04374 9.12706 8.99388L8.53297 8.77925M8.44768 8.83147L8.53297 8.77925M8.44768 8.83147C8.44772 8.83153 8.44775 8.83159 8.44779 8.83165L8.53297 8.77925M8.44768 8.83147C8.27107 8.54453 7.75819 8.22607 6.99997 8.22607C6.24174 8.22607 5.72885 8.54454 5.55224 8.83149M8.53297 8.77925C8.33303 8.45419 7.78178 8.12607 6.99997 8.12607C6.21815 8.12607 5.6669 8.45419 5.46697 8.77925M5.55224 8.83149C5.55227 8.83143 5.55231 8.83138 5.55234 8.83133L5.46697 8.77925M5.55224 8.83149C5.41076 9.06326 5.10595 9.13827 4.87331 8.99389M5.55224 8.83149C5.55221 8.83154 5.55218 8.83159 5.55214 8.83165L5.46697 8.77925M5.46697 8.77925L4.87331 8.99389M4.87331 8.99389C4.87343 8.99396 4.87354 8.99402 4.87365 8.99409L4.92578 8.90875L4.87298 8.99368C4.87309 8.99375 4.8732 8.99382 4.87331 8.99389ZM4.87331 8.99389C4.64082 8.85162 4.56801 8.5477 4.71108 8.31521M4.87331 8.99389L4.79628 8.36757M4.71108 8.31521C4.71106 8.31524 4.71104 8.31527 4.71103 8.3153L4.79628 8.36757M4.71108 8.31521C4.71109 8.31519 4.71111 8.31517 4.71112 8.31515L4.79628 8.36757M5.81415 6.05275C5.81415 5.39925 6.34598 4.86738 6.99997 4.86738C7.65395 4.86738 8.18578 5.39925 8.18578 6.05275C8.18578 6.70671 7.65392 7.23857 6.99997 7.23857C6.34601 7.23857 5.81415 6.70671 5.81415 6.05275Z" fill="#5C5E5E" stroke="#5C5E5E" stroke-width="0.2"/>
</svg>
