<svg width="15" height="19" viewBox="0 0 15 19" fill="none" xmlns="http://www.w3.org/2000/svg">
<path d="M14.4361 5.93515L14.4361 16.243C14.4361 16.5422 14.3755 16.8384 14.2577 17.1147C14.14 17.3911 13.9674 17.6422 13.7498 17.8538C13.5322 18.0653 13.2739 18.2331 12.9896 18.3476C12.7053 18.462 12.4006 18.521 12.0929 18.521H3.31388C3.00617 18.521 2.70147 18.462 2.41718 18.3476C2.1329 18.2331 1.87459 18.0653 1.657 17.8538C1.43942 17.6422 1.26682 17.3911 1.14907 17.1147C1.03131 16.8384 0.970703 16.5422 0.970703 16.243V2.79942C0.970703 2.50028 1.03131 2.20406 1.14907 1.92769C1.26682 1.65132 1.43942 1.4002 1.657 1.18867C1.87459 0.977147 2.1329 0.809356 2.41718 0.69488C2.70147 0.580403 3.00617 0.521483 3.31388 0.521484L8.89511 0.521502L14.4361 5.93515Z" fill="#BEDAEC"/>
<path d="M9.13888 0.759766C8.68955 1.91638 7.6497 3.68961 8.69823 5.18009C8.97067 5.59349 10.6301 6.23255 11.6715 6.60132C12.3363 6.8367 12.8831 7.5787 12.8831 8.28528L12.9703 15.1656C12.9703 16.4237 11.9219 17.443 10.6278 17.443H1.84881C1.65357 17.443 1.46405 17.4191 1.28271 17.3753C1.6997 18.0837 2.47463 18.5211 3.31415 18.5218H12.0932C13.3878 18.5222 14.4374 17.5017 14.4369 16.2432V5.93502L9.13888 0.759766Z" fill="#BEDAEC"/>
<path d="M8.89536 0.521484L8.16722 3.36711C8.11878 3.55639 8.11098 3.75343 8.14431 3.9458C8.17764 4.13818 8.25138 4.32173 8.36087 4.48489C8.47037 4.64806 8.61326 4.78731 8.78054 4.89388C8.94782 5.00045 9.13588 5.07202 9.33286 5.1041L14.4363 5.93513L8.89536 0.521484Z" fill="white"/>
<path d="M7.71729 7.68359C7.32946 7.68913 7.05961 7.93582 6.92866 8.08311C6.62498 8.42469 6.61108 8.8929 6.71263 9.34674C6.81418 9.80059 7.03164 10.2837 7.29695 10.773C7.32672 10.828 7.3597 10.8651 7.39065 10.9201C6.85716 11.891 6.12331 12.9479 5.48284 13.7909C4.6513 13.9886 3.85542 14.0856 3.37723 14.6238C2.97683 15.075 2.949 15.7606 3.37723 16.1594C3.56351 16.3229 3.82412 16.4058 4.05134 16.4093C4.26473 16.4068 4.44685 16.3461 4.59271 16.257C5.15175 15.9157 5.5158 15.1909 5.91881 14.3531L9.18654 13.5918C9.67678 14.1995 10.187 14.7952 10.795 14.983C11.077 15.07 11.3747 15.0597 11.6409 14.9635C11.9072 14.8672 12.156 14.6767 12.2695 14.383C12.4675 13.8496 12.2491 13.2585 11.7385 12.9917C11.3421 12.7779 10.8481 12.7414 10.2979 12.7653C10.0168 12.7775 9.71973 12.8076 9.41817 12.8512C9.06175 12.3081 8.58207 11.5903 8.16366 10.8913C8.4091 10.4042 8.62227 9.92468 8.71413 9.48456C8.81669 8.99318 8.7962 8.50919 8.51763 8.13634C8.31779 7.82053 8.01288 7.68565 7.71729 7.68359ZM7.98535 8.52558C8.10659 8.682 8.14775 8.94902 8.06474 9.34674C8.01862 9.56775 7.86245 9.8644 7.74982 10.1341C7.58824 9.80117 7.41894 9.4599 7.36071 9.19969C7.28257 8.85046 7.33627 8.65685 7.42578 8.52558C7.48867 8.42286 7.57392 8.35991 7.69615 8.35286C7.8249 8.34567 7.91028 8.42872 7.98535 8.52558ZM7.78364 11.5356C8.09681 12.0346 8.43015 12.5536 8.70242 12.975L6.51612 13.5059C6.95711 12.8369 7.4198 12.1544 7.78364 11.5356ZM11.4197 13.5762C11.6601 13.7059 11.7323 13.9114 11.6448 14.1423C11.5625 14.3551 11.1663 14.4123 10.9915 14.3492C10.7543 14.2759 10.3718 13.8361 10.022 13.4734C10.1188 13.4494 10.2364 13.4331 10.3278 13.4291C10.6796 13.4137 11.0914 13.4219 11.4197 13.5762ZM4.88681 14.7123C4.65545 15.0884 4.39487 15.5993 4.24263 15.6922C4.09211 15.7957 3.91834 15.7572 3.8301 15.6675C3.70813 15.5499 3.68712 15.2844 3.87955 15.0676C4.07565 14.8789 4.35583 14.8 4.88681 14.7123Z" fill="white"/>
</svg>
