<svg width="28" height="28" viewBox="0 0 28 28" fill="none" xmlns="http://www.w3.org/2000/svg">
<rect x="0.5" y="0.5" width="27" height="27" rx="13.5" fill="#D95C07"/>
<rect x="0.5" y="0.5" width="27" height="27" rx="13.5" stroke="#DFE5EB"/>
<path d="M19.6684 13.4635L8.86821 8.06371C8.65199 7.95473 8.39007 7.98754 8.20667 8.14691C8.02327 8.30628 7.95413 8.55998 8.03089 8.79025L9.56764 13.4002H13.9999C14.3316 13.4002 14.5999 13.6686 14.5999 14.0002C14.5999 14.3318 14.3316 14.6002 13.9999 14.6002H9.56764L8.03089 19.2102C7.95413 19.4405 8.02327 19.6942 8.20667 19.8535C8.318 19.9502 8.45863 20 8.59984 20C8.69125 20 8.78324 19.9789 8.86821 19.9367L19.6684 14.5369C19.8717 14.435 20 14.2276 20 14.0002C20 13.7729 19.8717 13.5655 19.6684 13.4635Z" fill="white"/>
</svg>
