<svg width="38" height="38" viewBox="0 0 38 38" fill="none" xmlns="http://www.w3.org/2000/svg">
<g filter="url(#filter0_bi_4380_17120)">
<circle cx="19" cy="19" r="18" fill="black" fill-opacity="0.25"/>
<circle cx="19" cy="19" r="18.5" stroke="url(#paint0_linear_4380_17120)" stroke-opacity="0.2"/>
</g>
<path d="M26.4755 26.2719C26.3358 26.3466 26.1784 26.3821 26.0201 26.3743C25.8619 26.3666 25.7087 26.3161 25.5769 26.2281L15.0769 19.2281C14.957 19.1482 14.8588 19.04 14.7908 18.913C14.7229 18.786 14.6873 18.6442 14.6873 18.5001C14.6873 18.3561 14.7229 18.2143 14.7908 18.0873C14.8588 17.9603 14.957 17.852 15.0769 17.7721L25.5769 10.7721C25.7087 10.6842 25.8618 10.6337 26.02 10.626C26.1783 10.6183 26.3356 10.6538 26.4753 10.7285C26.615 10.8032 26.7317 10.9145 26.8131 11.0504C26.8945 11.1863 26.9375 11.3417 26.9375 11.5001V25.5001C26.9376 25.6585 26.8946 25.814 26.8133 25.9499C26.7319 26.0858 26.6152 26.1971 26.4755 26.2719ZM25.1875 13.1355L17.1375 18.5001L25.1875 23.8648V13.1355Z" fill="white"/>
<path d="M12.9375 24.625C12.7054 24.625 12.4829 24.5328 12.3188 24.3687C12.1547 24.2046 12.0625 23.9821 12.0625 23.75V13.25C12.0625 13.0179 12.1547 12.7954 12.3188 12.6313C12.4829 12.4672 12.7054 12.375 12.9375 12.375C13.1696 12.375 13.3921 12.4672 13.5562 12.6313C13.7203 12.7954 13.8125 13.0179 13.8125 13.25V23.75C13.8125 23.9821 13.7203 24.2046 13.5562 24.3687C13.3921 24.5328 13.1696 24.625 12.9375 24.625Z" fill="white"/>
<defs>
<filter id="filter0_bi_4380_17120" x="-20" y="-20" width="78" height="78" filterUnits="userSpaceOnUse" color-interpolation-filters="sRGB">
<feFlood flood-opacity="0" result="BackgroundImageFix"/>
<feGaussianBlur in="BackgroundImageFix" stdDeviation="10"/>
<feComposite in2="SourceAlpha" operator="in" result="effect1_backgroundBlur_4380_17120"/>
<feBlend mode="normal" in="SourceGraphic" in2="effect1_backgroundBlur_4380_17120" result="shape"/>
<feColorMatrix in="SourceAlpha" type="matrix" values="0 0 0 0 0 0 0 0 0 0 0 0 0 0 0 0 0 0 127 0" result="hardAlpha"/>
<feMorphology radius="1.46045" operator="dilate" in="SourceAlpha" result="effect2_innerShadow_4380_17120"/>
<feOffset dx="-0.730227" dy="0.730227"/>
<feGaussianBlur stdDeviation="0.365113"/>
<feComposite in2="hardAlpha" operator="arithmetic" k2="-1" k3="1"/>
<feColorMatrix type="matrix" values="0 0 0 0 1 0 0 0 0 1 0 0 0 0 1 0 0 0 0.35 0"/>
<feBlend mode="normal" in2="shape" result="effect2_innerShadow_4380_17120"/>
</filter>
<linearGradient id="paint0_linear_4380_17120" x1="32.7903" y1="3.46774" x2="19" y2="37" gradientUnits="userSpaceOnUse">
<stop stop-color="white"/>
<stop offset="1" stop-color="white" stop-opacity="0"/>
</linearGradient>
</defs>
</svg>
