<svg width="10" height="11" viewBox="0 0 10 11" fill="none" xmlns="http://www.w3.org/2000/svg">
<path d="M8 5.5C8 7.15685 6.65685 8.5 5 8.5C3.34315 8.5 2 7.15685 2 5.5C2 3.84315 3.34315 2.5 5 2.5C6.65685 2.5 8 3.84315 8 5.5Z" fill="#7BAED0"/>
<path fill-rule="evenodd" clip-rule="evenodd" d="M10 5.5C10 8.26142 7.76142 10.5 5 10.5C2.23858 10.5 0 8.26142 0 5.5C0 2.73858 2.23858 0.5 5 0.5C7.76142 0.5 10 2.73858 10 5.5ZM5 8.5C6.65685 8.5 8 7.15685 8 5.5C8 3.84315 6.65685 2.5 5 2.5C3.34315 2.5 2 3.84315 2 5.5C2 7.15685 3.34315 8.5 5 8.5Z" fill="#CCEBFF"/>
</svg>
