<svg width="68" height="68" viewBox="0 0 68 68" fill="none" xmlns="http://www.w3.org/2000/svg">
<path d="M34 68C52.7777 68 68 52.7777 68 34C68 15.2223 52.7777 0 34 0C15.2223 0 0 15.2223 0 34C0 52.7777 15.2223 68 34 68Z" fill="#E0E5F1"/>
<path d="M34.1766 16.0695C31.4276 16.0295 28.7723 17.0681 26.78 18.9626C24.7876 20.8572 23.6168 23.4568 23.5184 26.2044V26.3C23.5121 26.5887 23.5635 26.8758 23.6696 27.1443C23.7758 27.4128 23.9346 27.6574 24.1367 27.8637C24.3387 28.07 24.58 28.2338 24.8463 28.3454C25.1126 28.4571 25.3985 28.5144 25.6873 28.514H26.7152C27.295 28.5137 27.8521 28.2887 28.2694 27.8862C28.6868 27.4838 28.9318 26.9352 28.9531 26.3558C28.9531 26.3359 28.9531 26.3173 28.9531 26.2987C29.0037 25.3127 29.3421 24.3631 29.9264 23.5672C30.5106 22.7713 31.3153 22.164 32.2408 21.8203C33.1664 21.4766 34.1724 21.4116 35.1345 21.6332C36.0966 21.8549 36.9728 22.3535 37.6547 23.0675C38.3366 23.7816 38.7944 24.6797 38.9715 25.651C39.1487 26.6223 39.0374 27.6242 38.6515 28.533C38.2656 29.4418 37.6219 30.2176 36.8 30.7647C35.978 31.3117 35.0139 31.606 34.0266 31.6112H33.9774C33.8104 31.6096 33.6448 31.6411 33.49 31.7038C33.3352 31.7666 33.1944 31.8593 33.0756 31.9767C32.9569 32.0941 32.8625 32.2339 32.798 32.3879C32.7335 32.542 32.7001 32.7072 32.6998 32.8742V34.1506C32.6992 34.155 32.6992 34.1594 32.6998 34.1638V42.3438C32.7015 43.0192 32.9709 43.6663 33.4488 44.1435C33.9268 44.6207 34.5744 44.8891 35.2498 44.8898C35.585 44.89 35.9171 44.8241 36.2268 44.6958C36.5366 44.5676 36.8181 44.3796 37.0552 44.1425C37.2922 43.9054 37.4803 43.624 37.6085 43.3142C37.7367 43.0044 37.8026 42.6724 37.8024 42.3371V36.33C40.0633 35.445 41.9473 33.8032 43.1332 31.6845C44.3191 29.5659 44.7335 27.1015 44.3058 24.7115C43.8781 22.3215 42.6348 20.1538 40.7877 18.5779C38.9406 17.002 36.6042 16.1155 34.1766 16.0695Z" fill="white"/>
<path d="M37.2289 51.1031C38.3268 50.0052 38.3268 48.2253 37.2289 47.1274C36.1311 46.0296 34.3511 46.0296 33.2533 47.1274C32.1554 48.2253 32.1554 50.0052 33.2533 51.1031C34.3511 52.2009 36.1311 52.2009 37.2289 51.1031Z" fill="white"/>
</svg>
