<svg width="30" height="49" viewBox="0 0 30 49" fill="none" xmlns="http://www.w3.org/2000/svg">
<path d="M14.915 36.7812L12.1025 42.4062L14.915 48.0312C18.0216 48.0312 20.54 45.5128 20.54 42.4062C20.54 39.2997 18.0216 36.7812 14.915 36.7812Z" fill="#3A96F4"/>
<path d="M9.29004 42.4062C9.29004 45.5128 11.8084 48.0312 14.915 48.0312V36.7812C11.8084 36.7812 9.29004 39.2997 9.29004 42.4062Z" fill="#7EC9F8"/>
<path d="M14.915 0.03125L9.29004 5.65625L14.915 11.2812C16.7761 11.2812 18.29 12.7952 18.29 14.6562C18.29 15.6479 17.8548 16.5866 17.0957 17.2317L14.915 19.0856L11.165 26.5272L14.915 33.9688H20.54V29.0696L24.3815 25.8036C27.6598 23.0179 29.54 18.955 29.54 14.6562C29.54 6.59197 22.9793 0.03125 14.915 0.03125Z" fill="#3A96F4"/>
<path d="M9.29004 23.8683V33.9691H14.915V19.0859L9.29004 23.8683Z" fill="#7EC9F8"/>
<path d="M0.290039 14.6562V16.0625H11.54V14.6562C11.54 12.7952 13.054 11.2812 14.915 11.2812V0.03125C6.85076 0.03125 0.290039 6.59197 0.290039 14.6562Z" fill="#7EC9F8"/>
</svg>
