<svg width="24" height="24" viewBox="0 0 24 24" fill="none" xmlns="http://www.w3.org/2000/svg">
<path d="M10.8203 4.54672C10.5454 4.2883 10.0997 4.2883 9.82477 4.54672C9.54986 4.80514 9.54986 5.22413 9.82477 5.48255L10.6815 6.28791H8.24551C5.04896 6.28791 2.45766 8.87921 2.45766 12.0758C2.45766 15.2723 5.04896 17.8636 8.24551 17.8636H9.35689C9.7342 17.8636 10.0401 17.5578 10.0401 17.1805C10.0401 16.8032 9.7342 16.4973 9.35689 16.4973H8.24551C5.80357 16.4973 3.824 14.5177 3.824 12.0758C3.824 9.63382 5.80357 7.65425 8.24551 7.65425H10.6817L9.82481 8.45973C9.5499 8.71815 9.5499 9.13713 9.82481 9.39555C10.0997 9.65397 10.5454 9.65397 10.8203 9.39555L12.8867 7.45315C13.0283 7.32011 13.0969 7.14449 13.0927 6.97017C13.0964 6.79646 13.0277 6.62168 12.8867 6.48913L10.8203 4.54672Z" fill="url(#paint0_linear_6352_44135)"/>
<path d="M20.176 12.0898C20.176 14.5318 18.1964 16.5114 15.7545 16.5114H13.3183L14.1752 15.7059C14.4501 15.4475 14.4501 15.0285 14.1752 14.7701C13.9003 14.5117 13.4546 14.5117 13.1796 14.7701L11.1133 16.7125C10.9717 16.8455 10.9031 17.0211 10.9073 17.1955C10.9036 17.3692 10.9723 17.5439 11.1133 17.6765L13.1797 19.6189C13.4546 19.8773 13.9003 19.8773 14.1752 19.6189C14.4501 19.3605 14.4501 18.9415 14.1752 18.6831L13.3185 17.8777H15.7545C18.951 17.8777 21.5423 15.2864 21.5423 12.0898C21.5423 8.89331 18.951 6.302 15.7545 6.302H14.6431C14.2658 6.302 13.9599 6.60786 13.9599 6.98517C13.9599 7.36246 14.2658 7.66834 14.6431 7.66834H15.7545C18.1964 7.66834 20.176 9.64791 20.176 12.0898Z" fill="url(#paint1_linear_6352_44135)"/>
<defs>
<linearGradient id="paint0_linear_6352_44135" x1="3.97505" y1="-24.6537" x2="22.131" y2="-20.8953" gradientUnits="userSpaceOnUse">
<stop stop-color="#0D8B29"/>
<stop offset="1" stop-color="#A7F1BC"/>
</linearGradient>
<linearGradient id="paint1_linear_6352_44135" x1="12.4245" y1="-22.7046" x2="30.5804" y2="-18.9462" gradientUnits="userSpaceOnUse">
<stop stop-color="#0D8B29"/>
<stop offset="1" stop-color="#A7F1BC"/>
</linearGradient>
</defs>
</svg>
