<svg width="21" height="21" viewBox="0 0 21 21" fill="none" xmlns="http://www.w3.org/2000/svg">
<path d="M10.9146 0.378906C5.3768 0.378906 0.87207 4.865 0.87207 10.3789C0.87207 15.8928 5.3768 20.3789 10.9146 20.3789C16.4523 20.3789 20.9571 15.8928 20.9571 10.3789C20.9571 4.865 16.4523 0.378906 10.9146 0.378906ZM14.9069 10.7293L9.04879 14.4793C8.98014 14.5236 8.90086 14.5456 8.8224 14.5456C8.75375 14.5456 8.68428 14.5285 8.62218 14.4947C8.48731 14.4215 8.40395 14.2815 8.40395 14.1289V6.62891C8.40395 6.47633 8.48731 6.33633 8.62218 6.26309C8.75457 6.19066 8.92047 6.19512 9.04879 6.27855L14.9069 10.0286C15.0262 10.105 15.099 10.2373 15.099 10.3789C15.099 10.5205 15.0262 10.6527 14.9069 10.7293Z" fill="#FF0000"/>
</svg>
