<svg width="38" height="38" viewBox="0 0 38 38" fill="none" xmlns="http://www.w3.org/2000/svg">
<g filter="url(#filter0_bi_4380_17126)">
<circle cx="19" cy="19" r="18" fill="black" fill-opacity="0.25"/>
<circle cx="19" cy="19" r="18.5" stroke="url(#paint0_linear_4380_17126)" stroke-opacity="0.2"/>
</g>
<path d="M16.5 22.375V16.125L15.25 17.2969" stroke="white" stroke-width="1.6" stroke-linecap="round" stroke-linejoin="round"/>
<path d="M19 21.9845C19.3264 22.2297 19.7322 22.375 20.1719 22.375C21.2506 22.375 22.125 21.5006 22.125 20.4219C22.125 19.3432 21.2506 18.4687 20.1719 18.4687C19.7322 18.4687 19.3264 18.614 19 18.8592L19.3906 16.125H22.125" stroke="white" stroke-width="1.6" stroke-linecap="round" stroke-linejoin="round"/>
<path d="M13.0325 12.6377C9.49829 15.9118 9.30494 21.4122 12.6007 24.9232C15.8964 28.4342 21.4332 28.6263 24.9675 25.3522C28.5017 22.0781 28.6951 16.5777 25.3993 13.0667C23.5247 11.0696 20.925 10.1463 18.3812 10.3239M19.625 8.3125L17.3964 10.4236L19.625 12.6875" stroke="white" stroke-width="1.6" stroke-linecap="round" stroke-linejoin="round"/>
<defs>
<filter id="filter0_bi_4380_17126" x="-20" y="-20" width="78" height="78" filterUnits="userSpaceOnUse" color-interpolation-filters="sRGB">
<feFlood flood-opacity="0" result="BackgroundImageFix"/>
<feGaussianBlur in="BackgroundImageFix" stdDeviation="10"/>
<feComposite in2="SourceAlpha" operator="in" result="effect1_backgroundBlur_4380_17126"/>
<feBlend mode="normal" in="SourceGraphic" in2="effect1_backgroundBlur_4380_17126" result="shape"/>
<feColorMatrix in="SourceAlpha" type="matrix" values="0 0 0 0 0 0 0 0 0 0 0 0 0 0 0 0 0 0 127 0" result="hardAlpha"/>
<feMorphology radius="1.46045" operator="dilate" in="SourceAlpha" result="effect2_innerShadow_4380_17126"/>
<feOffset dx="-0.730227" dy="0.730227"/>
<feGaussianBlur stdDeviation="0.365113"/>
<feComposite in2="hardAlpha" operator="arithmetic" k2="-1" k3="1"/>
<feColorMatrix type="matrix" values="0 0 0 0 1 0 0 0 0 1 0 0 0 0 1 0 0 0 0.35 0"/>
<feBlend mode="normal" in2="shape" result="effect2_innerShadow_4380_17126"/>
</filter>
<linearGradient id="paint0_linear_4380_17126" x1="32.7903" y1="3.46774" x2="19" y2="37" gradientUnits="userSpaceOnUse">
<stop stop-color="white"/>
<stop offset="1" stop-color="white" stop-opacity="0"/>
</linearGradient>
</defs>
</svg>
