<svg width="18" height="19" viewBox="0 0 18 19" fill="none" xmlns="http://www.w3.org/2000/svg">
<g clip-path="url(#clip0_6550_45399)">
<path d="M2.95804 14.6248C2.88778 14.5028 2.72878 14.4621 2.60676 14.5324L1.96338 14.9058V14.1626C1.96338 14.0221 1.84875 13.9075 1.70824 13.9075C1.56773 13.9075 1.45311 14.0221 1.45311 14.1626V14.9058L0.809721 14.5324C0.6877 14.4621 0.528702 14.5028 0.458448 14.6248C0.388193 14.7468 0.428867 14.9058 0.550888 14.9761L1.19797 15.3532L0.550888 15.7304C0.428867 15.8007 0.388193 15.9596 0.458448 16.0817C0.528702 16.2037 0.6877 16.2444 0.809721 16.1741L1.45311 15.8007V16.5439C1.45311 16.6844 1.56773 16.799 1.70824 16.799C1.84875 16.799 1.96338 16.6844 1.96338 16.5439V15.8007L2.60676 16.1741C2.72878 16.2444 2.88778 16.2037 2.95804 16.0817C3.02829 15.9596 2.98762 15.8007 2.8656 15.7304L2.21851 15.3532L2.8656 14.9761C2.98762 14.9021 3.03199 14.7468 2.95804 14.6248Z" fill="#AECCE0"/>
<path d="M5.32087 16.0779C5.39113 16.1999 5.55013 16.2406 5.67215 16.1703L6.31553 15.7969V16.5401C6.31553 16.6806 6.43016 16.7952 6.57067 16.7952C6.71118 16.7952 6.82581 16.6806 6.82581 16.5401V15.7969L7.46919 16.1703C7.59121 16.2406 7.75021 16.1999 7.82046 16.0779C7.89072 15.9559 7.85004 15.7969 7.72802 15.7266L7.08094 15.3495L7.72802 14.9723C7.85004 14.902 7.89072 14.743 7.82046 14.621C7.75021 14.499 7.59121 14.4583 7.46919 14.5286L6.82581 14.902V14.1588C6.82581 14.0183 6.71118 13.9037 6.57067 13.9037C6.43016 13.9037 6.31553 14.0183 6.31553 14.1588V14.902L5.67215 14.5323C5.55013 14.462 5.39113 14.5027 5.32087 14.6247C5.25062 14.7467 5.29129 14.9057 5.41331 14.976L6.0604 15.3532L5.41331 15.7266C5.29129 15.7969 5.25062 15.9559 5.32087 16.0779Z" fill="#AECCE0"/>
<path d="M4.86243 18.0154V18.4665C4.86243 18.5738 4.95117 18.6625 5.0584 18.6625H8.08675C8.19398 18.6625 8.28272 18.5738 8.28272 18.4665V18.0154C8.28272 17.9082 8.19398 17.8195 8.08675 17.8195H5.0584C4.94747 17.8195 4.86243 17.9082 4.86243 18.0154Z" fill="#AECCE0"/>
<path d="M12.2428 5.4066H12.2206V4.40085C12.2206 2.65188 10.7897 1.16543 9.0444 1.19501C7.34719 1.2246 5.97168 2.6149 5.97168 4.3195V4.41564C5.97168 4.55985 6.09 4.67817 6.23421 4.67817H7.07357C7.21777 4.67817 7.3361 4.55985 7.3361 4.41564V4.38606C7.3361 3.44686 8.04234 2.62229 8.98154 2.56313C10.0021 2.50027 10.8525 3.31005 10.8525 4.3158V5.4029H8.2642V5.4066H5.87184C5.42813 5.42139 5.06946 5.78006 5.06946 6.22747V10.7755C5.06946 11.2303 5.43922 11.6001 5.89403 11.6001H12.2391C12.6939 11.6001 13.0637 11.2303 13.0637 10.7755V6.23117C13.0674 5.77636 12.6976 5.4066 12.2428 5.4066ZM9.55836 8.70857C9.49551 8.75294 9.47702 8.80101 9.47702 8.87497C9.48071 9.20775 9.48071 9.54054 9.47702 9.87702C9.48441 10.0175 9.41416 10.1506 9.28844 10.2135C8.99633 10.3614 8.70422 10.1543 8.70422 9.87702C8.70422 9.87702 8.70422 9.87702 8.70422 9.87332C8.70422 9.54054 8.70422 9.20405 8.70422 8.87127C8.70422 8.80471 8.68942 8.75664 8.63026 8.71227C8.32706 8.49041 8.22722 8.10956 8.37883 7.77308C8.52673 7.44769 8.8854 7.25541 9.22188 7.32566C9.59904 7.39962 9.86157 7.70652 9.86527 8.07998C9.87636 8.34251 9.76913 8.55697 9.55836 8.70857Z" fill="#87AAC1"/>
<path d="M9.72107 18.0154V18.4665C9.72107 18.5738 9.80981 18.6625 9.91704 18.6625H12.9454C13.0526 18.6625 13.1414 18.5738 13.1414 18.4665V18.0154C13.1414 17.9082 13.0526 17.8195 12.9454 17.8195H9.91704C9.80981 17.8195 9.72107 17.9082 9.72107 18.0154Z" fill="#AECCE0"/>
<path d="M10.1795 16.0779C10.2498 16.1999 10.4088 16.2406 10.5308 16.1703L11.1742 15.7969V16.5401C11.1742 16.6806 11.2888 16.7952 11.4293 16.7952C11.5698 16.7952 11.6844 16.6806 11.6844 16.5401V15.7969L12.3278 16.1703C12.4499 16.2406 12.6089 16.1999 12.6791 16.0779C12.7494 15.9559 12.7087 15.7969 12.5867 15.7266L11.9396 15.3495L12.5867 14.9723C12.7087 14.902 12.7494 14.743 12.6791 14.621C12.6089 14.499 12.4499 14.4583 12.3278 14.5286L11.6844 14.902V14.1588C11.6844 14.0183 11.5698 13.9037 11.4293 13.9037C11.2888 13.9037 11.1742 14.0183 11.1742 14.1588V14.902L10.5308 14.5286C10.4088 14.4583 10.2498 14.499 10.1795 14.621C10.1093 14.743 10.1499 14.902 10.272 14.9723L10.919 15.3495L10.272 15.7266C10.1499 15.7969 10.1093 15.9559 10.1795 16.0779Z" fill="#AECCE0"/>
<path d="M17.804 17.8195H14.7757C14.6685 17.8195 14.5797 17.9082 14.5797 18.0154V18.4665C14.5797 18.5738 14.6685 18.6625 14.7757 18.6625H17.804C17.9113 18.6625 18 18.5738 18 18.4665V18.0154C18 17.9082 17.9113 17.8195 17.804 17.8195Z" fill="#AECCE0"/>
<path d="M0.195974 18.6625H3.22432C3.33155 18.6625 3.4203 18.5738 3.4203 18.4665V18.0154C3.4203 17.9082 3.33155 17.8195 3.22432 17.8195H0.195974C0.0887428 17.8195 0 17.9082 0 18.0154V18.4665C0 18.5738 0.0887428 18.6625 0.195974 18.6625Z" fill="#AECCE0"/>
<path d="M15.0419 16.0779C15.1121 16.1999 15.2711 16.2406 15.3932 16.1703L16.0365 15.7969V16.5401C16.0365 16.6806 16.1512 16.7952 16.2917 16.7952C16.4322 16.7952 16.5468 16.6806 16.5468 16.5401V15.7969L17.1902 16.1703C17.3122 16.2406 17.4712 16.1999 17.5415 16.0779C17.6117 15.9559 17.571 15.7969 17.449 15.7266L16.8019 15.3495L17.449 14.9723C17.571 14.902 17.6117 14.743 17.5415 14.621C17.4712 14.499 17.3122 14.4583 17.1902 14.5286L16.5468 14.902V14.1588C16.5468 14.0183 16.4322 13.9037 16.2917 13.9037C16.1512 13.9037 16.0365 14.0183 16.0365 14.1588V14.902L15.3932 14.5286C15.2711 14.4583 15.1121 14.499 15.0419 14.621C14.9716 14.743 15.0123 14.902 15.1343 14.9723L15.7814 15.3495L15.1343 15.7266C15.0123 15.7969 14.9679 15.9559 15.0419 16.0779Z" fill="#AECCE0"/>
</g>
<defs>
<clipPath id="clip0_6550_45399">
<rect width="18" height="18" fill="white" transform="translate(0 0.928589)"/>
</clipPath>
</defs>
</svg>
