<svg width="22" height="22" viewBox="0 0 22 22" fill="none" xmlns="http://www.w3.org/2000/svg">
<rect width="21" height="21.0002" rx="10.5" transform="matrix(-1 0 0 1 21.4995 0.488281)" fill="#87AAC1"/>
<path d="M12.1691 14.5909C11.9322 14.8156 11.5481 14.8156 11.3113 14.5909C11.0743 14.3659 11.0743 14.0014 11.3114 13.7765L13.6424 11.5641L6.89214 11.5635C6.55712 11.5634 6.28559 11.3057 6.28559 10.9876C6.28567 10.6696 6.5572 10.412 6.89222 10.412L13.6428 10.4126L11.3111 8.19974C11.0742 7.97488 11.0742 7.61023 11.3111 7.38546C11.4296 7.27307 11.5848 7.2168 11.7401 7.2168C11.8954 7.2168 12.0506 7.27307 12.1691 7.38538L15.5362 10.5811C15.65 10.689 15.7139 10.8354 15.7139 10.9882C15.7138 11.141 15.6499 11.2873 15.5361 11.3955L12.1691 14.5909Z" fill="white"/>
</svg>
