<svg width="31" height="31" viewBox="0 0 31 31" fill="none" xmlns="http://www.w3.org/2000/svg">
<circle cx="15.5" cy="15.5" r="15" fill="#3B3D3F" stroke="#D0D7DB"/>
<path fill-rule="evenodd" clip-rule="evenodd" d="M23.0522 14.1135C23.592 14.3837 23.9337 14.9362 23.933 15.54C23.933 16.1439 23.5914 16.6957 23.0516 16.9653L11.6042 22.6803C10.991 22.9865 10.251 22.8664 9.76596 22.382C9.28086 21.8976 9.1601 21.157 9.4657 20.5437L11.8438 15.7696C11.9185 15.6201 11.9185 15.4446 11.8438 15.2952L9.46836 10.5277C9.1621 9.91447 9.28287 9.17381 9.76862 8.68939C10.2537 8.20497 10.9944 8.08487 11.6076 8.39114L23.0522 14.1135ZM14.6349 16.0672H18.8859C19.1789 16.0672 19.4171 15.829 19.4171 15.536C19.4171 15.2424 19.1789 15.0049 18.8859 15.0049H14.6349C14.342 15.0049 14.1037 15.2424 14.1037 15.536C14.1037 15.829 14.342 16.0672 14.6349 16.0672Z" fill="url(#paint0_linear_7917_46833)"/>
<defs>
<linearGradient id="paint0_linear_7917_46833" x1="9.29844" y1="15.5357" x2="23.933" y2="15.5357" gradientUnits="userSpaceOnUse">
<stop stop-color="white"/>
<stop offset="1" stop-color="white"/>
</linearGradient>
</defs>
</svg>
