<svg width="22" height="22" viewBox="0 0 22 22" fill="none" xmlns="http://www.w3.org/2000/svg">
<path fill-rule="evenodd" clip-rule="evenodd" d="M19.4793 9.20559C20.1779 9.55531 20.62 10.2703 20.6191 11.0518C20.6191 11.8332 20.177 12.5473 19.4785 12.8962L4.66425 20.2921C3.87069 20.6884 2.91307 20.533 2.28531 19.9061C1.65755 19.2792 1.50126 18.3207 1.89674 17.5271L4.97425 11.3488C5.07096 11.1554 5.07096 10.9283 4.97425 10.7348L1.90019 4.56515C1.50384 3.77159 1.66013 2.8131 2.28876 2.1862C2.91653 1.5593 3.87502 1.40388 4.66857 1.80023L19.4793 9.20559ZM8.58627 11.7339H14.0876C14.4667 11.7339 14.775 11.4256 14.775 11.0466C14.775 10.6666 14.4667 10.3592 14.0876 10.3592H8.58627C8.20719 10.3592 7.89892 10.6666 7.89892 11.0466C7.89892 11.4256 8.20719 11.7339 8.58627 11.7339Z" fill="url(#paint0_linear_7650_48672)"/>
<defs>
<linearGradient id="paint0_linear_7650_48672" x1="1.68029" y1="11.0461" x2="20.6191" y2="11.0461" gradientUnits="userSpaceOnUse">
<stop stop-color="#3A3C3E"/>
<stop offset="1" stop-color="#6D808C"/>
</linearGradient>
</defs>
</svg>
