<svg width="22" height="22" viewBox="0 0 22 22" fill="none" xmlns="http://www.w3.org/2000/svg">
<path fill-rule="evenodd" clip-rule="evenodd" d="M19.4794 9.20578C20.1779 9.55549 20.62 10.2705 20.6192 11.0519C20.6192 11.8334 20.1771 12.5475 19.4785 12.8964L4.66428 20.2922C3.87072 20.6886 2.91311 20.5332 2.28534 19.9063C1.65758 19.2794 1.50129 18.3209 1.89677 17.5273L4.97428 11.349C5.07099 11.1556 5.07099 10.9285 4.97428 10.735L1.90022 4.56533C1.50387 3.77178 1.66016 2.81329 2.28879 2.18639C2.91656 1.55949 3.87505 1.40406 4.6686 1.80041L19.4794 9.20578ZM8.5863 11.7341H14.0877C14.4667 11.7341 14.775 11.4258 14.775 11.0467C14.775 10.6668 14.4667 10.3594 14.0877 10.3594H8.5863C8.20722 10.3594 7.89895 10.6668 7.89895 11.0467C7.89895 11.4258 8.20722 11.7341 8.5863 11.7341Z" fill="url(#paint0_linear_7728_54663)"/>
<defs>
<linearGradient id="paint0_linear_7728_54663" x1="1.68032" y1="11.0463" x2="20.6192" y2="11.0463" gradientUnits="userSpaceOnUse">
<stop stop-color="#3A3C3E"/>
<stop offset="1" stop-color="#6D808C"/>
</linearGradient>
</defs>
</svg>
