<svg width="24" height="24" viewBox="0 0 24 24" fill="none" xmlns="http://www.w3.org/2000/svg">
<mask id="mask0_4376_12026" style="mask-type:alpha" maskUnits="userSpaceOnUse" x="0" y="0" width="24" height="24">
<rect width="24" height="24" fill="#D9D9D9"/>
</mask>
<g mask="url(#mask0_4376_12026)">
<path d="M9.69245 21.5L9.31168 18.4538C9.04373 18.364 8.76905 18.2384 8.48763 18.0769C8.20621 17.9153 7.9546 17.7422 7.7328 17.5576L4.91165 18.7499L2.604 14.75L5.04438 12.9058C5.0213 12.757 5.00495 12.6077 4.99533 12.4577C4.98571 12.3077 4.9809 12.1583 4.9809 12.0096C4.9809 11.8673 4.98571 11.7227 4.99533 11.5759C5.00495 11.4291 5.0213 11.2685 5.04438 11.0942L2.604 9.24997L4.91165 5.26925L7.72318 6.45195C7.96421 6.26092 8.22159 6.08623 8.4953 5.9279C8.76904 5.76955 9.03795 5.6423 9.30205 5.54615L9.69245 2.5H14.3078L14.6885 5.55577C14.9885 5.66474 15.26 5.79198 15.503 5.9375C15.7459 6.08302 15.9911 6.2545 16.2386 6.45195L19.0886 5.26925L21.3962 9.24997L18.9174 11.123C18.9533 11.2846 18.9728 11.4355 18.976 11.5759C18.9792 11.7163 18.9808 11.8577 18.9808 12C18.9808 12.1359 18.9776 12.274 18.9712 12.4144C18.9648 12.5548 18.9417 12.7154 18.902 12.8961L21.3616 14.75L19.0539 18.7499L16.2386 17.548C15.9911 17.7455 15.7386 17.9201 15.4809 18.072C15.2232 18.224 14.959 18.348 14.6885 18.4442L14.3078 21.5H9.69245ZM12.0116 14.9999C12.8437 14.9999 13.5517 14.708 14.1357 14.124C14.7196 13.54 15.0116 12.832 15.0116 12C15.0116 11.1679 14.7196 10.4599 14.1357 9.87595C13.5517 9.29198 12.8437 9 12.0116 9C11.1693 9 10.4588 9.29198 9.87993 9.87595C9.3011 10.4599 9.01168 11.1679 9.01168 12C9.01168 12.832 9.3011 13.54 9.87993 14.124C10.4588 14.708 11.1693 14.9999 12.0116 14.9999ZM12.0116 13.5C11.595 13.5 11.2408 13.3541 10.9491 13.0625C10.6575 12.7708 10.5116 12.4166 10.5116 12C10.5116 11.5833 10.6575 11.2291 10.9491 10.9375C11.2408 10.6458 11.595 10.5 12.0116 10.5C12.4283 10.5 12.7825 10.6458 13.0741 10.9375C13.3658 11.2291 13.5116 11.5833 13.5116 12C13.5116 12.4166 13.3658 12.7708 13.0741 13.0625C12.7825 13.3541 12.4283 13.5 12.0116 13.5ZM11.0001 20H12.9655L13.3251 17.3211C13.8354 17.1878 14.3017 16.9984 14.7241 16.7528C15.1466 16.5073 15.5539 16.1916 15.9463 15.8057L18.4309 16.85L19.4155 15.15L17.2463 13.5153C17.3296 13.2564 17.3863 13.0025 17.4165 12.7538C17.4466 12.5051 17.4616 12.2538 17.4616 12C17.4616 11.7397 17.4466 11.4884 17.4165 11.2461C17.3863 11.0038 17.3296 10.7564 17.2463 10.5038L19.4347 8.84997L18.4501 7.14997L15.9366 8.2096C15.602 7.8519 15.2011 7.53587 14.7338 7.26152C14.2664 6.98716 13.7937 6.79292 13.3155 6.67882L13.0001 3.99997H11.0155L10.6847 6.6692C10.1745 6.78972 9.7033 6.97433 9.27125 7.22305C8.8392 7.47177 8.42703 7.79228 8.03473 8.1846L5.5501 7.14997L4.56548 8.84997L6.7251 10.4596C6.64177 10.6968 6.58344 10.9436 6.5501 11.2C6.51677 11.4564 6.5001 11.7263 6.5001 12.0096C6.5001 12.2698 6.51677 12.525 6.5501 12.775C6.58344 13.025 6.63856 13.2718 6.71548 13.5153L4.56548 15.15L5.5501 16.85L8.0251 15.8C8.40459 16.1897 8.81035 16.509 9.2424 16.7577C9.67445 17.0064 10.152 17.1974 10.6751 17.3307L11.0001 20Z" fill="white"/>
</g>
</svg>
