<svg width="18" height="19" viewBox="0 0 18 19" fill="none" xmlns="http://www.w3.org/2000/svg">
<g clip-path="url(#clip0_1200_37142)">
<path d="M5.0625 8.80359V15.2611C5.0625 15.7832 4.85508 16.284 4.48587 16.6532C4.11665 17.0224 3.6159 17.2298 3.09375 17.2298C2.57161 17.2298 2.07085 17.0224 1.70163 16.6532C1.33242 16.284 1.125 15.7832 1.125 15.2611V11.6161C1.125 10.8702 1.42132 10.1548 1.94876 9.62735C2.47621 9.0999 3.19158 8.80359 3.9375 8.80359H5.0625Z" fill="#AECCE0"/>
<path d="M14.0625 7.67859C13.3166 7.67859 12.6012 7.38227 12.0738 6.85483C11.5463 6.32738 11.25 5.61201 11.25 4.86609V2.05359H8.4375C7.69158 2.05359 6.97621 2.3499 6.44876 2.87735C5.92132 3.4048 5.625 4.12017 5.625 4.86609V15.2723C5.62204 15.9428 5.3544 16.5849 4.88034 17.0589C4.40628 17.533 3.76417 17.8006 3.09375 17.8036H14.0625C14.8084 17.8036 15.5238 17.5073 16.0512 16.9798C16.5787 16.4524 16.875 15.737 16.875 14.9911V7.67859H14.0625ZM7.875 9.92859H11.25V11.0536H7.875V9.92859ZM14.625 13.3036H7.875V12.1786H14.625V13.3036Z" fill="#87AAC1"/>
<path d="M16.875 6.5536H14.0625C13.6149 6.5536 13.1857 6.37581 12.8693 6.05934C12.5528 5.74287 12.375 5.31365 12.375 4.8661V2.0536C12.449 2.05317 12.5224 2.06736 12.5909 2.09535C12.6595 2.12334 12.7218 2.16459 12.7744 2.21672L16.7119 6.15422C16.764 6.20678 16.8053 6.26912 16.8332 6.33765C16.8612 6.40618 16.8754 6.47957 16.875 6.5536Z" fill="#87AAC1"/>
</g>
<defs>
<clipPath id="clip0_1200_37142">
<rect width="18" height="18" fill="white" transform="translate(0 0.928589)"/>
</clipPath>
</defs>
</svg>
