<svg width="18" height="19" viewBox="0 0 18 19" fill="none" xmlns="http://www.w3.org/2000/svg">
<path d="M7.34698 16.1735C7.32398 16.1123 7.31606 16.0603 7.32386 16.0182C7.33162 15.9763 7.30488 15.9417 7.24356 15.915C7.18224 15.8883 7.15165 15.8671 7.15165 15.852C7.15165 15.8367 7.1077 15.8252 7.0196 15.8176C6.93155 15.8099 6.8876 15.806 6.8876 15.806H6.73843H6.61218H3.30605C2.80096 15.806 2.36852 15.6263 2.00878 15.2664C1.64912 14.9067 1.46931 14.4744 1.46931 13.9694V5.88767C1.46931 5.38258 1.64908 4.95031 2.00878 4.59061C2.36852 4.23087 2.80096 4.05094 3.30605 4.05094H6.97948C7.07899 4.05094 7.15723 4.02625 7.21477 3.9764C7.27207 3.92666 7.31027 3.85199 7.32948 3.75252C7.34862 3.65304 7.36016 3.56322 7.36402 3.48284C7.3678 3.40255 7.36595 3.30106 7.35823 3.17863C7.35063 3.05624 7.34681 2.97972 7.34681 2.94897C7.34681 2.84949 7.31043 2.76357 7.23777 2.69071C7.16504 2.61818 7.07899 2.58179 6.97952 2.58179H3.30605C2.39542 2.58179 1.61668 2.90514 0.969933 3.5518C0.323351 4.19846 0 4.97709 0 5.8878V13.9693C0 14.88 0.323351 15.6588 0.969933 16.3052C1.61668 16.9522 2.39542 17.2755 3.30605 17.2755H6.97964C7.07915 17.2755 7.15744 17.2505 7.21493 17.201C7.27223 17.1512 7.31043 17.0766 7.32965 16.977C7.34879 16.8776 7.36032 16.7874 7.36418 16.7073C7.36796 16.6269 7.36611 16.5257 7.35839 16.4032C7.35072 16.2807 7.34698 16.2042 7.34698 16.1735Z" fill="#AECCE0"/>
<path d="M17.7818 9.4121L11.537 3.16706C11.3917 3.02183 11.2194 2.94897 11.0205 2.94897C10.8215 2.94897 10.6492 3.02183 10.5037 3.16706C10.3583 3.31249 10.2857 3.48486 10.2857 3.68373V6.98986H5.14284C4.94373 6.98986 4.7716 7.06272 4.62617 7.20795C4.48074 7.35338 4.40808 7.52563 4.40808 7.72462V12.1328C4.40808 12.3318 4.48074 12.504 4.62617 12.6494C4.77176 12.7945 4.94385 12.8676 5.14284 12.8676H10.2857V16.1737C10.2857 16.3725 10.3584 16.5449 10.5038 16.6902C10.6492 16.8357 10.8215 16.9085 11.0205 16.9085C11.2194 16.9085 11.3917 16.8357 11.5371 16.6902L17.7818 10.4455C17.9273 10.2999 18 10.1279 18 9.92889C18 9.72994 17.9273 9.55753 17.7818 9.4121Z" fill="#87AAC1"/>
</svg>
