<svg width="18" height="19" viewBox="0 0 18 19" fill="none" xmlns="http://www.w3.org/2000/svg">
<g clip-path="url(#clip0_1794_32596)">
<path d="M14.0591 2.62988H13.419C13.6943 3.13544 13.851 3.71487 13.851 4.33026C13.851 5.12633 13.2046 5.77396 12.4101 5.77396H5.5899C4.7954 5.77396 4.14901 5.1263 4.14901 4.33026C4.14901 3.71487 4.30566 3.13547 4.58102 2.62988H3.94089C3.14638 2.62988 2.5 3.27755 2.5 4.07359V16.682C2.5 17.478 3.14638 18.1257 3.94089 18.1257H14.0591C14.8536 18.1257 15.5 17.478 15.5 16.682V4.07359C15.5 3.27751 14.8536 2.62988 14.0591 2.62988ZM7.31167 15.3754L6.26571 16.4234C6.07817 16.6113 5.77405 16.6113 5.58648 16.4234L5.07416 15.9101C4.88659 15.7221 4.88659 15.4174 5.07416 15.2295C5.2617 15.0416 5.56582 15.0416 5.75339 15.2295L5.92611 15.4025L6.63246 14.6948C6.82 14.5069 7.12413 14.5069 7.3117 14.6948C7.49924 14.8827 7.49924 15.1874 7.31167 15.3754ZM7.31167 12.6163L6.26571 13.6643C6.07817 13.8522 5.77405 13.8522 5.58648 13.6643L5.07416 13.1509C4.88659 12.963 4.88659 12.6583 5.07416 12.4704C5.2617 12.2824 5.56582 12.2824 5.75339 12.4704L5.92611 12.6434L6.63246 11.9357C6.82 11.7478 7.12413 11.7478 7.3117 11.9357C7.49924 12.1236 7.49924 12.4283 7.31167 12.6163ZM6.39379 10.6699C6.20625 10.8579 5.90213 10.8579 5.71455 10.6699C5.52698 10.482 5.52698 10.1773 5.71455 9.98939L7.44362 8.25693C7.63116 8.06897 7.93528 8.06897 8.12285 8.25693L9.57635 9.71322L10.7222 8.56509H10.665C10.3998 8.56509 10.1847 8.34963 10.1847 8.08386C10.1847 7.8181 10.3998 7.60264 10.665 7.60264C11.9876 7.60264 12.1004 7.54593 12.2812 7.81672C12.3915 7.98188 12.3621 8.03775 12.3621 9.30301C12.3621 9.56878 12.147 9.78424 11.8818 9.78424C11.6165 9.78424 11.4015 9.56878 11.4015 9.30301V9.24567L9.91596 10.7341C9.72842 10.922 9.42429 10.922 9.23672 10.7341L7.78325 9.27778L6.39379 10.6699ZM12.5542 16.0403H8.6798C8.41455 16.0403 8.19951 15.8248 8.19951 15.5591C8.19951 15.2933 8.41455 15.0779 8.6798 15.0779H12.5542C12.8194 15.0779 13.0345 15.2933 13.0345 15.5591C13.0345 15.8248 12.8194 16.0403 12.5542 16.0403ZM12.5542 13.2812H8.6798C8.41455 13.2812 8.19951 13.0657 8.19951 12.8C8.19951 12.5342 8.41455 12.3188 8.6798 12.3188H12.5542C12.8194 12.3188 13.0345 12.5342 13.0345 12.8C13.0345 13.0657 12.8194 13.2812 12.5542 13.2812Z" fill="#87AAC1"/>
<path d="M10.2968 1.73157H7.70322C6.27309 1.73157 5.10962 2.89734 5.10962 4.33025C5.10962 4.59602 5.32466 4.81148 5.58991 4.81148H12.4101C12.6754 4.81148 12.8904 4.59602 12.8904 4.33025C12.8904 2.89734 11.7269 1.73157 10.2968 1.73157Z" fill="#AECCE0"/>
</g>
<defs>
<clipPath id="clip0_1794_32596">
<rect width="18" height="18" fill="white" transform="translate(0 0.928589)"/>
</clipPath>
</defs>
</svg>
