<svg width="18" height="19" viewBox="0 0 18 19" fill="none" xmlns="http://www.w3.org/2000/svg">
<path d="M15.4136 5.08173H6.43519C5.72982 5.08173 5.15259 5.65934 5.15259 6.36472V10.2127C5.15259 10.9181 5.72982 11.4955 6.43519 11.4955H15.4136C16.119 11.4955 16.6964 10.9181 16.6964 10.2127V6.36472C16.6964 5.65934 16.119 5.08173 15.4136 5.08173ZM6.75575 6.36472H11.5654V7.32677H6.75575V6.36472ZM8.35929 9.57142H6.75575V8.60937H8.35929V9.57142ZM12.8482 9.57142H9.32134V8.60937H12.8482V9.57142ZM15.0931 10.2127H14.131V7.32677L13.4895 7.00583V6.36472H15.0931V10.2127Z" fill="#AECCE0"/>
<path d="M6.43439 3.7991H11.5648V3.1576C11.5648 2.45261 10.9874 1.875 10.282 1.875H2.58619C1.8812 1.875 1.30359 2.45261 1.30359 3.1576V15.985C1.30359 16.6904 1.8812 17.2678 2.58619 17.2678H10.282C10.9874 17.2678 11.5648 16.6904 11.5648 15.985V12.7783H6.43439C5.02018 12.7783 3.86918 11.6277 3.86918 10.2127V6.36469C3.86918 4.9501 5.02018 3.7991 6.43439 3.7991ZM5.95337 14.7024H6.91542C7.17998 14.7024 7.39644 14.919 7.39644 15.1834C7.39644 15.4476 7.17998 15.6644 6.91542 15.6644H5.95337C5.68919 15.6644 5.47234 15.4476 5.47234 15.1834C5.47234 14.919 5.68919 14.7024 5.95337 14.7024Z" fill="#87AAC1"/>
</svg>
