<svg width="18" height="19" viewBox="0 0 18 19" fill="none" xmlns="http://www.w3.org/2000/svg">
<path d="M14.625 8.16962C15.9712 8.16962 17.0625 7.07831 17.0625 5.73212C17.0625 4.38592 15.9712 3.29462 14.625 3.29462C13.2788 3.29462 12.1875 4.38592 12.1875 5.73212C12.1875 7.07831 13.2788 8.16962 14.625 8.16962Z" fill="#AECCE0"/>
<path fill-rule="evenodd" clip-rule="evenodd" d="M12.453 8.06387L9.1125 10.5696C9.04575 10.6199 8.95425 10.6199 8.8875 10.5696L1.9035 5.33162C2.127 5.22587 2.373 5.16962 2.625 5.16962H11.487C11.4548 5.35187 11.4375 5.54012 11.4375 5.73212C11.4375 6.65237 11.8282 7.48187 12.453 8.06387ZM17.0625 7.78487V14.7321C17.0625 14.9924 17.0025 15.2459 16.89 15.4754L11.973 9.83087L13.4738 8.70512C13.8308 8.84387 14.2192 8.91962 14.625 8.91962C15.6023 8.91962 16.4775 8.47862 17.0625 7.78487ZM16.0845 16.2629C15.864 16.3656 15.6225 16.4196 15.375 16.4196H2.625C2.3775 16.4196 2.136 16.3656 1.9155 16.2629L6.92925 10.5074L8.2125 11.4696C8.679 11.8199 9.321 11.8199 9.7875 11.4696L11.0707 10.5074L16.0845 16.2629ZM1.11 15.4754C0.9975 15.2459 0.9375 14.9924 0.9375 14.7321V6.85712C0.9375 6.60512 0.99375 6.35837 1.0995 6.13487L6.027 9.83087L1.11 15.4754Z" fill="#87AAC1"/>
</svg>
