<svg width="18" height="19" viewBox="0 0 18 19" fill="none" xmlns="http://www.w3.org/2000/svg">
<g clip-path="url(#clip0_1200_37270)">
<path d="M14.5561 6.19054L11.5844 5.75871L10.2554 3.06593C9.74227 2.02608 8.25794 2.02569 7.74459 3.06589L6.41558 5.75871L3.44387 6.19054C2.29637 6.35725 1.8374 7.76873 2.668 8.57845L4.81837 10.6745L4.31075 13.6342C4.11472 14.777 5.31516 15.6497 6.34204 15.11L8.99998 13.7126L11.658 15.11C12.6861 15.6504 13.8848 14.7744 13.6892 13.6342L13.1816 10.6745L15.332 8.57845C16.1622 7.76901 15.7041 6.35735 14.5561 6.19054Z" fill="#87AAC1"/>
<path d="M4.73669 2.58625L4.01911 1.59865C3.82431 1.33062 3.44909 1.27117 3.18106 1.46597C2.913 1.66073 2.85358 2.03595 3.04835 2.30402L3.76592 3.29163C3.96083 3.5598 4.33608 3.61904 4.60397 3.42431C4.87204 3.22958 4.93145 2.85432 4.73669 2.58625Z" fill="#AECCE0"/>
<path d="M2.35535 11.437C2.25294 11.1219 1.91452 10.9493 1.59931 11.0518L0.414726 11.4367C0.0995857 11.5391 -0.0728554 11.8776 0.0295194 12.1927C0.132105 12.5085 0.471222 12.6802 0.785553 12.578L1.97018 12.193C2.28532 12.0907 2.45776 11.7522 2.35535 11.437Z" fill="#AECCE0"/>
<path d="M14.819 1.46598C14.5509 1.27118 14.1757 1.33059 13.9809 1.59866L13.2633 2.58626C13.0685 2.85433 13.128 3.22959 13.396 3.42432C13.6642 3.61915 14.0394 3.5596 14.2341 3.29164L14.9517 2.30403C15.1465 2.03596 15.087 1.66074 14.819 1.46598Z" fill="#AECCE0"/>
<path d="M17.5853 11.4367L16.4007 11.0518C16.0855 10.9492 15.7471 11.1219 15.6446 11.437C15.5422 11.7522 15.7147 12.0906 16.0299 12.1931L17.2145 12.578C17.529 12.6803 17.868 12.5083 17.9705 12.1928C18.0729 11.8776 17.9004 11.5392 17.5853 11.4367Z" fill="#AECCE0"/>
<path d="M9 16.0881C8.66865 16.0881 8.40002 16.3568 8.40002 16.6881V17.9059C8.40002 18.2372 8.66865 18.5058 9 18.5058C9.33135 18.5058 9.59998 18.2372 9.59998 17.9059V16.6881C9.60001 16.3568 9.33138 16.0881 9 16.0881Z" fill="#AECCE0"/>
</g>
<defs>
<clipPath id="clip0_1200_37270">
<rect width="18" height="18" fill="white" transform="translate(0 0.928589)"/>
</clipPath>
</defs>
</svg>
