<svg width="18" height="19" viewBox="0 0 18 19" fill="none" xmlns="http://www.w3.org/2000/svg">
<path d="M17.7105 10.5839C17.7383 11.2485 17.5013 11.8969 17.0517 12.387C16.602 12.8771 15.9762 13.1688 15.3117 13.1982C15.2729 13.2 15.2341 13.2009 15.1954 13.2009C15.0188 13.2007 14.8428 13.1816 14.6703 13.1439C14.1586 13.934 13.4876 14.6086 12.7002 15.1246C11.9128 15.6405 11.0264 15.9865 10.0977 16.1402C9.98781 16.4629 9.76866 16.7371 9.47809 16.9154C9.18752 17.0937 8.8438 17.1648 8.50634 17.1166C8.16888 17.0683 7.85889 16.9036 7.62995 16.6511C7.40102 16.3985 7.26753 16.0738 7.25256 15.7333C7.23759 15.3927 7.34207 15.0576 7.54796 14.7859C7.75385 14.5142 8.0482 14.323 8.38012 14.2453C8.71204 14.1676 9.06068 14.2083 9.36577 14.3604C9.67086 14.5125 9.91322 14.7664 10.051 15.0782C11.3585 14.8364 12.5397 14.1434 13.3887 13.1201C14.2377 12.0967 14.7008 10.8079 14.697 9.4782C14.697 6.33681 12.1414 3.78113 8.99997 3.78113C5.85859 3.78113 3.3029 6.33681 3.3029 9.4782C3.30273 10.4496 3.55098 11.4048 4.02406 12.2532C4.0401 12.2812 4.05213 12.3113 4.05982 12.3427C4.10551 12.4697 4.10063 12.6094 4.04617 12.7329C3.99172 12.8564 3.89187 12.9542 3.76728 13.0062C3.46221 13.1346 3.13456 13.2007 2.80358 13.2006C2.76463 13.2006 2.72559 13.1997 2.68647 13.1979C2.02226 13.1682 1.39693 12.8763 0.94759 12.3863C0.498254 11.8962 0.261587 11.248 0.289485 10.5837C0.3007 10.3188 0.294442 10.0824 0.288325 9.85388C0.282629 9.63869 0.276688 9.41615 0.286461 9.18394C0.31563 8.53533 0.594639 7.92316 1.06505 7.47565C1.53546 7.02814 2.16079 6.78001 2.81005 6.78323C3.85264 4.3978 6.23458 2.72644 8.99997 2.72644C11.7654 2.72644 14.1473 4.3978 15.1899 6.78326C15.8393 6.77956 16.4648 7.02747 16.9353 7.47499C17.4058 7.92251 17.6847 8.53486 17.7134 9.18355C17.7233 9.41611 17.7174 9.63862 17.7116 9.85381C17.7055 10.0824 17.6992 10.3189 17.7105 10.5839ZM13.4228 9.4782C13.4225 10.1558 13.2667 10.8243 12.9672 11.4321C12.6677 12.0399 12.2326 12.5708 11.6955 12.9838C11.1584 13.3969 10.5336 13.6811 9.86928 13.8145C9.20496 13.9479 8.51887 13.9269 7.86393 13.7532L6.07374 14.787C5.98342 14.8392 5.87965 14.8634 5.77556 14.8566C5.67148 14.8498 5.57175 14.8122 5.489 14.7487C5.40625 14.6853 5.34418 14.5986 5.31066 14.4999C5.27713 14.4011 5.27365 14.2946 5.30066 14.1938L5.75818 12.4871C5.00049 11.6681 4.57891 10.5939 4.57732 9.4782C4.57732 7.03878 6.56122 5.05435 8.99997 5.05435C11.4387 5.05435 13.4228 7.03878 13.4228 9.4782ZM7.77038 9.4782C7.77038 9.33834 7.71482 9.20421 7.61593 9.10531C7.51703 9.00641 7.3829 8.95085 7.24304 8.95085C7.13878 8.95105 7.03604 8.98214 6.94945 9.04021C6.86286 9.09827 6.79542 9.1807 6.75566 9.27707C6.7159 9.37345 6.70559 9.47945 6.72605 9.58168C6.74651 9.68391 6.79681 9.77778 6.8706 9.85143C6.94439 9.92509 7.03836 9.97521 7.14063 9.99548C7.24289 10.0157 7.34887 10.0052 7.44518 9.96531C7.54148 9.92536 7.62378 9.85777 7.68168 9.77107C7.73958 9.68437 7.77038 9.58246 7.77038 9.4782ZM9.52742 9.4782C9.52738 9.46094 9.52644 9.44368 9.52461 9.42652C9.52295 9.40929 9.52038 9.39215 9.51691 9.37519C9.51376 9.35829 9.50952 9.34162 9.50422 9.32527C9.49933 9.30874 9.49335 9.29257 9.48703 9.2764C9.4807 9.26023 9.47296 9.24511 9.46488 9.23C9.45685 9.21479 9.44804 9.20001 9.43851 9.1857C9.4289 9.17124 9.41856 9.15728 9.40754 9.14386C9.3967 9.13042 9.38509 9.11763 9.37277 9.10554C9.36082 9.09324 9.34781 9.08164 9.33445 9.07039C9.32105 9.05984 9.30699 9.04929 9.29258 9.0398C9.27828 9.03027 9.26351 9.02147 9.24832 9.01343C9.23316 9.00535 9.21738 8.99796 9.20152 8.99128C9.18569 8.98465 9.16951 8.9789 9.15304 8.97406C9.12016 8.9635 9.0862 8.95666 9.05179 8.95367C9.00014 8.94869 8.94805 8.95118 8.89711 8.96105C8.88015 8.96451 8.86338 8.96885 8.84687 8.97406C8.83039 8.97889 8.81419 8.98464 8.79835 8.99128C8.78253 8.99796 8.76671 9.00535 8.75159 9.01343C8.73648 9.02152 8.72171 9.03031 8.70726 9.0398C8.69281 9.04929 8.67878 9.05984 8.66581 9.07039C8.6521 9.08164 8.63944 9.09324 8.62714 9.10554C8.6148 9.11764 8.60317 9.13043 8.5923 9.14386C8.58141 9.15728 8.57122 9.17124 8.56175 9.1857C8.55209 9.19999 8.54317 9.21478 8.53503 9.23C8.52692 9.24506 8.51963 9.26055 8.5132 9.2764C8.50652 9.29239 8.50066 9.30869 8.49562 9.32527C8.49073 9.34144 8.48652 9.35832 8.483 9.37519C8.47953 9.39215 8.47693 9.40929 8.47523 9.42652C8.47351 9.44375 8.47277 9.46097 8.47277 9.4782C8.47277 9.49543 8.47351 9.513 8.47523 9.53023C8.47696 9.54734 8.47955 9.56436 8.483 9.58121C8.48652 9.59808 8.49073 9.61496 8.49562 9.63148C8.50066 9.64794 8.50653 9.66413 8.5132 9.68C8.51963 9.69596 8.52692 9.71157 8.53503 9.72675C8.54308 9.74187 8.55226 9.75664 8.56175 9.77105C8.57122 9.78539 8.58142 9.79924 8.5923 9.81253C8.60326 9.826 8.61488 9.83891 8.62714 9.85121C8.63944 9.86316 8.6521 9.87511 8.66581 9.88601C8.67903 9.89699 8.69287 9.9072 8.70726 9.9166C8.72171 9.92609 8.73644 9.93523 8.75159 9.94332C8.78213 9.95923 8.81401 9.97241 8.84687 9.98269C8.86335 9.98761 8.88023 9.99183 8.89711 9.99535C8.931 10.0023 8.96552 10.0057 9.00011 10.0055C9.13981 10.0052 9.27372 9.94971 9.37277 9.85121C9.39707 9.82654 9.41908 9.79971 9.43851 9.77105C9.448 9.75664 9.45679 9.74187 9.46488 9.72675C9.47296 9.71164 9.48035 9.69582 9.48703 9.68C9.49371 9.66417 9.49933 9.64765 9.50422 9.63148C9.50948 9.615 9.51372 9.59821 9.51691 9.58121C9.52035 9.56436 9.52292 9.54734 9.52461 9.53023C9.52641 9.51292 9.52742 9.4956 9.52742 9.4782ZM11.2852 9.4782C11.2852 9.33834 11.2297 9.20421 11.1308 9.10531C11.0319 9.00641 10.8977 8.95085 10.7579 8.95085H10.7569C10.6526 8.95106 10.5508 8.98216 10.4642 9.04022C10.3776 9.09829 10.3102 9.18072 10.2704 9.2771C10.2306 9.37348 10.2203 9.47947 10.2408 9.5817C10.2613 9.68393 10.3116 9.7778 10.3854 9.85145C10.4592 9.92509 10.5531 9.97522 10.6554 9.99548C10.7577 10.0157 10.8636 10.0052 10.9599 9.9653C11.0562 9.92536 11.1385 9.85777 11.1964 9.77107C11.2543 9.68437 11.2852 9.58245 11.2852 9.4782Z" fill="#87AAC1"/>
<path d="M17.7105 10.5839C17.7383 11.2485 17.5013 11.8969 17.0517 12.387C16.602 12.8771 15.9762 13.1688 15.3117 13.1982C15.2729 13.2 15.2341 13.2009 15.1954 13.2009C15.0188 13.2007 14.8428 13.1816 14.6703 13.1439C14.1586 13.934 13.4876 14.6086 12.7002 15.1246C11.9128 15.6405 11.0264 15.9865 10.0977 16.1402C9.98781 16.4629 9.76866 16.7371 9.47809 16.9154C9.18752 17.0937 8.8438 17.1648 8.50634 17.1166C8.16888 17.0683 7.85889 16.9036 7.62995 16.6511C7.40102 16.3985 7.26753 16.0738 7.25256 15.7333C7.23759 15.3927 7.34207 15.0576 7.54796 14.7859C7.75385 14.5142 8.0482 14.323 8.38012 14.2453C8.71204 14.1676 9.06068 14.2083 9.36577 14.3604C9.67086 14.5125 9.91322 14.7664 10.051 15.0782C11.3585 14.8364 12.5397 14.1434 13.3887 13.1201C14.2377 12.0967 14.7008 10.8079 14.697 9.4782C14.697 6.33681 12.1414 3.78113 8.99997 3.78113C5.85859 3.78113 3.3029 6.33681 3.3029 9.4782C3.30273 10.4496 3.55098 11.4048 4.02406 12.2532C4.0401 12.2812 4.05213 12.3113 4.05982 12.3427C4.10551 12.4697 4.10063 12.6094 4.04617 12.7329C3.99172 12.8564 3.89187 12.9542 3.76728 13.0062C3.46221 13.1346 3.13456 13.2007 2.80358 13.2006C2.76463 13.2006 2.72559 13.1997 2.68647 13.1979C2.02226 13.1682 1.39693 12.8763 0.94759 12.3863C0.498254 11.8962 0.261587 11.248 0.289485 10.5837C0.3007 10.3188 0.294442 10.0824 0.288325 9.85388C0.282629 9.63869 0.276688 9.41615 0.286461 9.18394C0.31563 8.53533 0.594639 7.92316 1.06505 7.47565C1.53546 7.02814 2.16079 6.78001 2.81005 6.78323C3.85264 4.3978 6.23458 2.72644 8.99997 2.72644C11.7654 2.72644 14.1473 4.3978 15.1899 6.78326C15.8393 6.77956 16.4648 7.02747 16.9353 7.47499C17.4058 7.92251 17.6847 8.53486 17.7134 9.18355C17.7233 9.41611 17.7174 9.63862 17.7116 9.85381C17.7055 10.0824 17.6992 10.3189 17.7105 10.5839Z" fill="#AECCE0"/>
</svg>
