<svg width="19" height="19" viewBox="0 0 19 19" fill="none" xmlns="http://www.w3.org/2000/svg">
<mask id="mask0_941_34686" style="mask-type:alpha" maskUnits="userSpaceOnUse" x="0" y="0" width="19" height="19">
<rect x="0.958984" y="0.0664062" width="18" height="18.6" fill="#D9D9D9"/>
</mask>
<g mask="url(#mask0_941_34686)">
<path d="M14.4598 16.923C13.8871 16.923 13.4001 16.7158 12.9986 16.3014C12.5972 15.887 12.3965 15.3838 12.3965 14.7918C12.3965 14.695 12.4039 14.5948 12.4188 14.4912C12.4337 14.3875 12.4561 14.292 12.4859 14.2046L6.93877 10.8482C6.7407 11.0519 6.51522 11.2111 6.26233 11.3259C6.00944 11.4406 5.74165 11.498 5.45897 11.498C4.88605 11.498 4.39908 11.2909 3.99804 10.8767C3.597 10.4624 3.39648 9.95941 3.39648 9.36765C3.39648 8.77589 3.597 8.27259 3.99804 7.85778C4.39908 7.44296 4.88605 7.23555 5.45897 7.23555C5.74165 7.23555 6.00944 7.29292 6.26233 7.40767C6.51522 7.52244 6.7407 7.68166 6.93877 7.88535L12.4859 4.529C12.4561 4.44156 12.4337 4.34602 12.4188 4.24236C12.4039 4.13872 12.3965 4.03852 12.3965 3.94178C12.3965 3.34977 12.5969 2.84656 12.9978 2.43215C13.3987 2.01775 13.8854 1.81055 14.4581 1.81055C15.0308 1.81055 15.5179 2.01767 15.9193 2.4319C16.3207 2.84614 16.5214 3.34914 16.5214 3.94091C16.5214 4.53267 16.3209 5.03596 15.9199 5.45078C15.5189 5.8656 15.0319 6.07301 14.459 6.07301C14.1763 6.07301 13.9085 6.01563 13.6556 5.90088C13.4027 5.78612 13.1772 5.62689 12.9792 5.42321L7.43203 8.77956C7.46184 8.86699 7.4842 8.96236 7.4991 9.06567C7.514 9.16897 7.52145 9.26882 7.52145 9.36523C7.52145 9.46165 7.514 9.56203 7.4991 9.66635C7.4842 9.77068 7.46184 9.86656 7.43203 9.95399L12.9792 13.3103C13.1772 13.1067 13.4027 12.9474 13.6556 12.8327C13.9085 12.7179 14.1763 12.6605 14.459 12.6605C15.0319 12.6605 15.5189 12.8677 15.9199 13.2819C16.3209 13.6961 16.5214 14.1991 16.5214 14.7909C16.5214 15.3827 16.321 15.886 15.9201 16.3008C15.5193 16.7156 15.0325 16.923 14.4598 16.923ZM14.459 4.91055C14.7195 4.91055 14.9409 4.8164 15.1232 4.62812C15.3054 4.43982 15.3965 4.21104 15.3965 3.94178C15.3965 3.67252 15.3054 3.44374 15.1232 3.25544C14.9409 3.06715 14.7195 2.97301 14.459 2.97301C14.1984 2.97301 13.977 3.06715 13.7948 3.25544C13.6126 3.44374 13.5214 3.67252 13.5214 3.94178C13.5214 4.21104 13.6126 4.43982 13.7948 4.62812C13.977 4.8164 14.1984 4.91055 14.459 4.91055ZM5.45897 10.3355C5.71954 10.3355 5.94094 10.2414 6.12317 10.0531C6.30538 9.86482 6.39648 9.63604 6.39648 9.36678C6.39648 9.09752 6.30538 8.86874 6.12317 8.68044C5.94094 8.49215 5.71954 8.39801 5.45897 8.39801C5.19839 8.39801 4.97699 8.49215 4.79477 8.68044C4.61255 8.86874 4.52145 9.09752 4.52145 9.36678C4.52145 9.63604 4.61255 9.86482 4.79477 10.0531C4.97699 10.2414 5.19839 10.3355 5.45897 10.3355ZM14.459 15.7605C14.7195 15.7605 14.9409 15.6664 15.1232 15.4781C15.3054 15.2898 15.3965 15.061 15.3965 14.7918C15.3965 14.5225 15.3054 14.2937 15.1232 14.1054C14.9409 13.9172 14.7195 13.823 14.459 13.823C14.1984 13.823 13.977 13.9172 13.7948 14.1054C13.6126 14.2937 13.5214 14.5225 13.5214 14.7918C13.5214 15.061 13.6126 15.2898 13.7948 15.4781C13.977 15.6664 14.1984 15.7605 14.459 15.7605Z" fill="#1C1E21"/>
</g>
</svg>
