<svg width="15" height="14" viewBox="0 0 15 14" fill="none" xmlns="http://www.w3.org/2000/svg">
<g clip-path="url(#clip0_3455_41762)">
<path d="M7.79639 13.833C11.6141 13.833 14.709 10.7381 14.709 6.92041C14.709 3.10269 11.6141 0.0078125 7.79639 0.0078125C3.97866 0.0078125 0.883789 3.10269 0.883789 6.92041C0.883789 10.7381 3.97866 13.833 7.79639 13.833Z" fill="url(#paint0_linear_3455_41762)"/>
<path d="M12.0335 5.54343C11.9859 5.39681 11.8592 5.28994 11.7066 5.26777L9.25557 4.91161L8.15944 2.69061C8.0912 2.55236 7.95039 2.46484 7.79623 2.46484C7.64207 2.46484 7.50126 2.55236 7.43302 2.69064L6.33689 4.91163L3.88586 5.26779C3.7333 5.28996 3.60652 5.39684 3.55889 5.54346C3.51126 5.69008 3.551 5.85104 3.66139 5.95865L5.43498 7.68745L5.01629 10.1286C4.99023 10.2805 5.05269 10.4341 5.17741 10.5247C5.30216 10.6153 5.4675 10.6273 5.60397 10.5556L7.79623 9.40301L9.9885 10.5556C10.126 10.6278 10.2912 10.6147 10.4151 10.5247C10.5398 10.4341 10.6023 10.2805 10.5762 10.1286L10.1575 7.68745L11.9311 5.95865C12.0415 5.85102 12.0812 5.69006 12.0335 5.54343Z" fill="url(#paint1_linear_3455_41762)"/>
</g>
<defs>
<linearGradient id="paint0_linear_3455_41762" x1="7.79639" y1="13.833" x2="7.79639" y2="0.0078125" gradientUnits="userSpaceOnUse">
<stop stop-color="#FD5900"/>
<stop offset="1" stop-color="#FFDE00"/>
</linearGradient>
<linearGradient id="paint1_linear_3455_41762" x1="7.79623" y1="10.6021" x2="7.79623" y2="2.46484" gradientUnits="userSpaceOnUse">
<stop stop-color="#FFE59A"/>
<stop offset="1" stop-color="#FFFFD5"/>
</linearGradient>
<clipPath id="clip0_3455_41762">
<rect x="0.883789" y="0.0078125" width="13.8252" height="13.8252" rx="6.9126" fill="white"/>
</clipPath>
</defs>
</svg>
