<svg width="20" height="20" viewBox="0 0 20 20" fill="none" xmlns="http://www.w3.org/2000/svg">
<g clip-path="url(#clip0_7522_45665)">
<path d="M9.16675 10C11.9282 10 14.1667 7.76142 14.1667 5C14.1667 2.23858 11.9282 0 9.16675 0C6.40532 0 4.16675 2.23858 4.16675 5C4.16675 7.76142 6.40532 10 9.16675 10Z" fill="white"/>
<path d="M9.16669 14.9999C9.16565 13.4864 9.75524 12.0322 10.81 10.9468C10.2653 10.8732 9.71635 10.8353 9.16669 10.8333C6.1935 10.945 3.30242 11.8392 0.785335 13.4256C0.544142 13.5744 0.345244 13.7828 0.207726 14.0306C0.070208 14.2784 -0.00131546 14.5574 1.8318e-05 14.8408V17.9166C-1.34509e-05 17.9713 0.0107423 18.0255 0.0316705 18.0761C0.0525987 18.1266 0.0832889 18.1726 0.121986 18.2113C0.160684 18.25 0.206629 18.2807 0.257196 18.3016C0.307763 18.3225 0.361959 18.3333 0.416685 18.3333H10.2167C9.53239 17.3565 9.16575 16.1925 9.16669 14.9999Z" fill="white"/>
<path d="M15 10C14.0111 10 13.0444 10.2932 12.2222 10.8427C11.3999 11.3921 10.759 12.173 10.3806 13.0866C10.0022 14.0002 9.90315 15.0055 10.0961 15.9755C10.289 16.9454 10.7652 17.8363 11.4645 18.5355C12.1637 19.2348 13.0546 19.711 14.0246 19.9039C14.9945 20.0969 15.9998 19.9978 16.9134 19.6194C17.827 19.241 18.6079 18.6001 19.1573 17.7779C19.7068 16.9556 20 15.9889 20 15C20 13.6739 19.4732 12.4021 18.5355 11.4645C17.5979 10.5268 16.3261 10 15 10ZM17.3779 13.6279L14.4613 16.5446C14.4226 16.5833 14.3767 16.614 14.3261 16.6349C14.2756 16.6559 14.2214 16.6666 14.1667 16.6666C14.112 16.6666 14.0578 16.6559 14.0073 16.6349C13.9567 16.614 13.9108 16.5833 13.8721 16.5446L12.6221 15.2946C12.5462 15.216 12.5042 15.1108 12.5052 15.0015C12.5061 14.8923 12.5499 14.7878 12.6272 14.7105C12.7044 14.6333 12.8089 14.5894 12.9182 14.5885C13.0274 14.5875 13.1327 14.6295 13.2113 14.7054L14.1667 15.6608L16.7887 13.0388C16.8673 12.9629 16.9726 12.9209 17.0818 12.9218C17.1911 12.9228 17.2956 12.9666 17.3728 13.0438C17.4501 13.1211 17.4939 13.2256 17.4948 13.3348C17.4958 13.4441 17.4538 13.5493 17.3779 13.6279Z" fill="white"/>
</g>
<defs>
<clipPath id="clip0_7522_45665">
<rect width="20" height="20" fill="white"/>
</clipPath>
</defs>
</svg>
