<svg width="24" height="23" viewBox="0 0 24 23" fill="none" xmlns="http://www.w3.org/2000/svg">
<path d="M22.7238 13.4832L22.7168 13.4867C21.8942 14.1176 21.5456 15.1911 21.8385 16.1846L21.8419 16.1916C22.309 17.7706 21.1518 19.3635 19.5065 19.4054H19.4995C18.4608 19.4333 17.5475 20.0955 17.2024 21.075V21.0785C16.6516 22.6331 14.7764 23.2431 13.4205 22.3054C12.5785 21.7305 11.4654 21.7005 10.5796 22.3054H10.5761C9.22022 23.2396 7.34489 22.6331 6.79763 21.075C6.44944 20.093 5.53753 19.4332 4.50056 19.4053H4.49358C2.84836 19.3635 1.69106 17.7706 2.15817 16.1915L2.16164 16.1846C2.45438 15.1911 2.10581 14.1175 1.28325 13.4866L1.27627 13.4831C-0.0308907 12.4792 -0.0308907 10.5133 1.27627 9.50946L1.28325 9.50599C2.10581 8.8751 2.45438 7.80148 2.15817 6.80805V6.80107C1.68755 5.22208 2.84831 3.62908 4.49358 3.58727H4.50056C5.5358 3.55938 6.45253 2.89708 6.79763 1.91763V1.91416C7.34484 0.359553 9.22022 -0.250431 10.5761 0.687256H10.5796C11.4336 1.27633 12.5629 1.27633 13.4205 0.687256C14.79 -0.258541 16.6549 0.368881 17.2024 1.91416V1.91763C17.5475 2.89362 18.4607 3.55943 19.4995 3.58727H19.5065C21.1517 3.62908 22.309 5.22208 21.8419 6.80107L21.8385 6.80805C21.5456 7.80148 21.8942 8.8751 22.7168 9.50599L22.7238 9.50946C24.031 10.5133 24.031 12.4793 22.7238 13.4832Z" fill="#3EB655"/>
<path d="M12.0001 17.9885C15.586 17.9885 18.493 15.0815 18.493 11.4955C18.493 7.90951 15.586 5.0025 12.0001 5.0025C8.41409 5.0025 5.50708 7.90951 5.50708 11.4955C5.50708 15.0815 8.41409 17.9885 12.0001 17.9885Z" fill="#8BD399"/>
<path opacity="0.1" d="M16.9855 7.33923C15.8625 6.41533 14.4256 5.86 12.8592 5.86C9.27329 5.86 6.3647 8.76859 6.3647 12.3545C6.3647 13.9209 6.92003 15.3578 7.84388 16.4808C6.41696 15.2905 5.50806 13.5001 5.50806 11.4954C5.50806 7.90942 8.41417 5.00336 12.0001 5.00336C14.0048 5.00336 15.7952 5.91226 16.9855 7.33923Z" fill="black"/>
<path d="M10.4554 14.0374L9.01956 12.5098C8.64353 12.1097 8.66293 11.4806 9.06292 11.1045C9.4629 10.728 10.0923 10.7482 10.468 11.1481L11.1534 11.877L14.0668 8.54708C14.4279 8.13383 15.0561 8.09192 15.4697 8.45356C15.8829 8.8152 15.9246 9.44314 15.5632 9.85639L11.9278 14.0112C11.5405 14.4533 10.857 14.4649 10.4554 14.0374Z" fill="white"/>
</svg>
