<svg width="21" height="21" viewBox="0 0 21 21" fill="none" xmlns="http://www.w3.org/2000/svg">
<path d="M20.4814 13.021C20.4814 12.2699 20.0778 11.6113 19.4762 11.2506C19.7067 10.9178 19.8419 10.514 19.8419 10.0793C19.8419 8.94211 18.9167 8.01688 17.7794 8.01688H13.4256C13.559 7.41219 13.7415 6.50481 13.8686 5.55492C14.1993 3.08301 13.9733 1.71211 13.1574 1.24067C12.6487 0.9468 12.1003 0.88719 11.6131 1.07266C11.2367 1.21602 10.7285 1.56848 10.4388 2.43352L9.29451 5.42965C8.53561 7.30399 5.72877 9.30063 5.06443 9.75379H1.08822C0.761465 9.75379 0.496582 10.0187 0.496582 10.3454V19.0352C0.496582 19.362 0.761504 19.6268 1.08822 19.6268H5.13209C7.38631 20.5159 9.75772 20.9668 12.1827 20.9668H16.9267C18.0639 20.9668 18.9891 20.0416 18.9891 18.9043C18.9891 18.5061 18.8756 18.1338 18.6794 17.8182C19.3669 17.4834 19.8418 16.7774 19.8418 15.9627C19.8418 15.528 19.7066 15.1242 19.4761 14.7914C20.0778 14.4307 20.4814 13.772 20.4814 13.021ZM4.65279 18.4436H1.67986V10.9372H4.65279V18.4436ZM18.4189 13.9002H17.7794C17.4526 13.9002 17.1878 14.1651 17.1878 14.4918C17.1878 14.8186 17.4527 15.0834 17.7794 15.0834C18.2642 15.0834 18.6586 15.4779 18.6586 15.9627C18.6586 16.4474 18.2642 16.8418 17.7794 16.8418H16.9267C16.5999 16.8418 16.3351 17.1068 16.3351 17.4335C16.3351 17.7602 16.6 18.0251 16.9267 18.0251C17.4115 18.0251 17.8059 18.4195 17.8059 18.9043C17.8059 19.3891 17.4115 19.7835 16.9267 19.7835H12.1827C10.0037 19.7835 7.87068 19.3958 5.83615 18.6305V10.6603C6.72963 10.0439 9.54307 7.97883 10.3941 5.86707C10.3954 5.86371 10.3967 5.86035 10.398 5.857L11.5489 2.8436C11.5522 2.83516 11.5552 2.8266 11.558 2.81805C11.6696 2.48016 11.8387 2.25301 12.0344 2.17852C12.224 2.10621 12.4279 2.18578 12.5654 2.26528C12.5705 2.26821 13.064 2.63629 12.697 5.38895C12.4885 6.95227 12.1099 8.4475 12.1062 8.46243C12.061 8.63942 12.1003 8.82735 12.2123 8.97157C12.3244 9.11578 12.4968 9.2002 12.6795 9.2002H17.7795C18.2643 9.2002 18.6587 9.59461 18.6587 10.0794C18.6587 10.5641 18.2643 10.9586 17.7795 10.9586C17.4528 10.9586 17.1879 11.2235 17.1879 11.5502C17.1879 11.877 17.4528 12.1418 17.7795 12.1418H18.419C18.9038 12.1418 19.2982 12.5363 19.2982 13.021C19.2981 13.5057 18.9037 13.9002 18.4189 13.9002Z" fill="white"/>
</svg>
