<svg width="18" height="19" viewBox="0 0 18 19" fill="none" xmlns="http://www.w3.org/2000/svg">
<path d="M13.8752 12.7227C13.3455 13.4648 12.6537 14.0765 11.8522 14.5112C11.0507 14.946 10.1607 15.1923 9.24981 15.2316C8.33888 15.2708 7.43098 15.1019 6.59509 14.7378C5.75919 14.3736 5.01729 13.8237 4.42573 13.1299C3.83417 12.4361 3.40852 11.6166 3.1811 10.7336C2.95369 9.85065 2.93051 8.92748 3.1133 8.03422C3.2961 7.14095 3.68007 6.3011 4.23605 5.57845C4.79203 4.8558 5.50539 4.26937 6.32195 3.8637C6.76095 3.6454 7.22379 3.47879 7.7012 3.3672C8.04202 3.2911 8.38884 3.24492 8.7377 3.2292C8.93588 3.21948 9.12214 3.13163 9.25568 2.98487C9.38923 2.83811 9.45917 2.64442 9.4502 2.4462C9.43729 2.24893 9.34858 2.06429 9.20264 1.93093C9.0567 1.79758 8.86484 1.72583 8.6672 1.7307C8.23078 1.75061 7.7969 1.80832 7.37045 1.9032C6.70023 2.05831 6.0534 2.30115 5.4467 2.62545C4.45165 3.15963 3.59009 3.91164 2.92631 4.82534C2.26253 5.73905 1.81366 6.79087 1.61322 7.9023C1.41277 9.01374 1.46591 10.1561 1.76868 11.2441C2.07146 12.3321 2.61603 13.3377 3.36178 14.1859C4.10753 15.034 5.03519 15.7028 6.07553 16.1423C7.11588 16.5818 8.24204 16.7806 9.36999 16.724C10.4979 16.6674 11.5985 16.3568 12.5897 15.8154C13.5808 15.274 14.4368 14.5157 15.094 13.5972C15.1514 13.5172 15.1925 13.4266 15.2149 13.3307C15.2373 13.2348 15.2406 13.1354 15.2247 13.0382C15.2087 12.9411 15.1737 12.848 15.1217 12.7643C15.0698 12.6806 15.0019 12.608 14.9218 12.5506C14.8418 12.4932 14.7513 12.4521 14.6553 12.4296C14.5594 12.4072 14.4601 12.4039 14.3629 12.4199C14.2657 12.4359 14.1726 12.4708 14.0889 12.5228C14.0052 12.5747 13.9326 12.6427 13.8752 12.7227Z" fill="#D95C07"/>
<path d="M11.3392 3.69848C12.1605 4.04802 12.8945 4.57454 13.4887 5.24048C13.6211 5.38906 13.8071 5.47898 14.0058 5.49044C14.2044 5.50191 14.3995 5.43398 14.5481 5.3016C14.6967 5.16922 14.7866 4.98324 14.7981 4.78457C14.8096 4.5859 14.7416 4.39081 14.6092 4.24223C13.8669 3.41097 12.9504 2.75362 11.925 2.31698C11.7421 2.24113 11.5366 2.24068 11.3534 2.31574C11.1702 2.3908 11.0241 2.53527 10.9469 2.71763C10.8698 2.9 10.8679 3.10547 10.9417 3.28921C11.0155 3.47296 11.1589 3.62008 11.3407 3.69848H11.3392Z" fill="#D95C07"/>
<path d="M16.3224 7.60067C16.2879 7.44392 16.2474 7.28942 16.2039 7.13717C16.1795 7.03921 16.1356 6.94718 16.0748 6.8666C16.0139 6.78602 15.9375 6.71854 15.85 6.66821C15.7625 6.61788 15.6657 6.58574 15.5655 6.57371C15.4652 6.56167 15.3636 6.57 15.2667 6.59819C15.1697 6.62637 15.0795 6.67384 15.0013 6.73774C14.9232 6.80165 14.8587 6.88067 14.8118 6.97007C14.765 7.05948 14.7366 7.15743 14.7285 7.25806C14.7204 7.35868 14.7327 7.45991 14.7646 7.55568C14.7984 7.67643 14.8299 7.79717 14.8584 7.92467C14.9529 8.35399 15.0004 8.79232 15.0001 9.23193C15.001 9.68118 14.9506 10.1291 14.8501 10.5669C14.8279 10.6629 14.8248 10.7623 14.841 10.8595C14.8572 10.9567 14.8924 11.0497 14.9445 11.1333C14.9967 11.2169 15.0648 11.2894 15.145 11.3466C15.2252 11.4039 15.3159 11.4447 15.4119 11.4669C15.4674 11.48 15.5243 11.4865 15.5814 11.4864C15.7509 11.4864 15.9154 11.4289 16.0481 11.3233C16.1807 11.2178 16.2737 11.0704 16.3119 10.9052C16.5623 9.8183 16.5659 8.68912 16.3224 7.60067Z" fill="#D95C07"/>
<path d="M8.25 6.97461V9.22461C8.25012 9.38195 8.29972 9.53528 8.39179 9.66288C8.48385 9.79048 8.61372 9.88589 8.763 9.93561L11.013 10.6856C11.202 10.7485 11.4082 10.7337 11.5862 10.6445C11.7643 10.5553 11.8996 10.3991 11.9625 10.2101C12.0254 10.0211 12.0106 9.81495 11.9214 9.63688C11.8322 9.45881 11.676 9.32347 11.487 9.26061L9.75 8.68386V6.97461C9.75 6.7757 9.67098 6.58493 9.53033 6.44428C9.38968 6.30363 9.19891 6.22461 9 6.22461C8.80109 6.22461 8.61032 6.30363 8.46967 6.44428C8.32902 6.58493 8.25 6.7757 8.25 6.97461Z" fill="#D95C07"/>
</svg>
