<svg width="360" height="419" viewBox="0 0 360 419" fill="none" xmlns="http://www.w3.org/2000/svg">
<rect y="-1" width="360" height="419" fill="#384F5F"/>
<rect width="360" height="419" transform="matrix(1 0 0 -1 0 419)" fill="#384F5F"/>
<mask id="mask0_2588_30551" style="mask-type:alpha" maskUnits="userSpaceOnUse" x="0" y="0" width="360" height="419">
<rect width="360" height="419" transform="matrix(1 0 0 -1 0 419)" fill="#384F5F"/>
</mask>
<g mask="url(#mask0_2588_30551)">
<mask id="mask1_2588_30551" style="mask-type:luminance" maskUnits="userSpaceOnUse" x="0" y="-1" width="371" height="658">
<path d="M371 -0.121765L371 657L0 657L-2.87237e-05 -0.121749L371 -0.121765Z" fill="white"/>
</mask>
<g mask="url(#mask1_2588_30551)">
<path opacity="0.2" d="M427.789 363.104C427.789 525.02 296.373 656.279 134.264 656.279C-27.8452 656.279 -159.261 525.02 -159.261 363.104C-159.261 201.188 -27.8452 69.9295 134.264 69.9295C296.373 69.9294 427.789 201.188 427.789 363.104ZM-34.1358 363.104C-34.1358 455.998 41.2595 531.303 134.264 531.303C227.269 531.303 302.664 455.998 302.664 363.104C302.664 270.21 227.269 194.905 134.264 194.905C41.2593 194.905 -34.1358 270.21 -34.1358 363.104Z" fill="#F9F4E6" fill-opacity="0.12"/>
<path opacity="0.2" d="M286.004 37.6201C286.004 121.324 218.068 189.179 134.264 189.179C50.46 189.179 -17.4764 121.324 -17.4764 37.6201C-17.4765 -46.0839 50.46 -113.939 134.264 -113.939C218.068 -113.939 286.004 -46.0839 286.004 37.6201ZM47.2081 37.6201C47.2081 85.6424 86.1843 124.572 134.264 124.572C182.344 124.572 221.32 85.6424 221.32 37.6201C221.32 -10.4022 182.344 -49.332 134.264 -49.3319C86.1843 -49.3319 47.2081 -10.4022 47.2081 37.6201Z" fill="#F9F4E6" fill-opacity="0.12"/>
<path opacity="0.2" d="M502.758 512.04C502.758 571.824 454.236 620.288 394.381 620.288C334.526 620.288 286.004 571.824 286.004 512.04C286.004 452.256 334.526 403.792 394.381 403.792C454.236 403.792 502.758 452.256 502.758 512.04ZM332.204 512.04C332.204 546.339 360.041 574.144 394.381 574.144C428.721 574.144 456.559 546.339 456.559 512.04C456.559 477.741 428.721 449.937 394.381 449.937C360.041 449.937 332.204 477.741 332.204 512.04Z" fill="#F9F4E6" fill-opacity="0.12"/>
<path opacity="0.2" d="M237.932 189.179C237.932 298.501 149.204 387.123 39.7517 387.123C-69.7003 387.123 -158.429 298.501 -158.429 189.179C-158.429 79.8578 -69.7004 -8.76451 39.7517 -8.76452C149.204 -8.76452 237.932 79.8578 237.932 189.179ZM-73.9475 189.179C-73.9475 251.899 -23.0425 302.743 39.7519 302.743C102.546 302.743 153.451 251.899 153.451 189.179C153.451 126.46 102.546 75.6156 39.7519 75.6156C-23.0425 75.6156 -73.9475 126.46 -73.9475 189.179Z" fill="#F9F4E6" fill-opacity="0.12"/>
</g>
</g>
<mask id="mask2_2588_30551" style="mask-type:alpha" maskUnits="userSpaceOnUse" x="13" y="16" width="333" height="70">
<rect x="13" y="16" width="333" height="69.7434" fill="#D9D9D9"/>
</mask>
<g mask="url(#mask2_2588_30551)">
<path d="M19.7773 28.4516C20.2651 28.4516 20.6605 28.0561 20.6605 27.5683C20.6605 27.0805 20.2651 26.6851 19.7773 26.6851C19.2895 26.6851 18.894 27.0805 18.894 27.5683C18.894 28.0561 19.2895 28.4516 19.7773 28.4516Z" fill="white" fill-opacity="0.51"/>
<path d="M30.8173 28.4511C31.3051 28.4511 31.7006 28.0556 31.7006 27.5678C31.7006 27.08 31.3051 26.6846 30.8173 26.6846C30.3295 26.6846 29.9341 27.08 29.9341 27.5678C29.9341 28.0556 30.3295 28.4511 30.8173 28.4511Z" fill="white" fill-opacity="0.51"/>
<path d="M41.8588 28.4511C42.3466 28.4511 42.7421 28.0556 42.7421 27.5678C42.7421 27.08 42.3466 26.6846 41.8588 26.6846C41.371 26.6846 40.9756 27.08 40.9756 27.5678C40.9756 28.0556 41.371 28.4511 41.8588 28.4511Z" fill="white" fill-opacity="0.51"/>
<path d="M52.8989 28.4511C53.3867 28.4511 53.7821 28.0556 53.7821 27.5678C53.7821 27.08 53.3867 26.6846 52.8989 26.6846C52.4111 26.6846 52.0156 27.08 52.0156 27.5678C52.0156 28.0556 52.4111 28.4511 52.8989 28.4511Z" fill="white" fill-opacity="0.51"/>
<path d="M63.9399 28.4511C64.4277 28.4511 64.8231 28.0556 64.8231 27.5678C64.8231 27.08 64.4277 26.6846 63.9399 26.6846C63.4521 26.6846 63.0566 27.08 63.0566 27.5678C63.0566 28.0556 63.4521 28.4511 63.9399 28.4511Z" fill="white" fill-opacity="0.51"/>
<path d="M74.9799 28.4511C75.4677 28.4511 75.8632 28.0556 75.8632 27.5678C75.8632 27.08 75.4677 26.6846 74.9799 26.6846C74.4921 26.6846 74.0967 27.08 74.0967 27.5678C74.0967 28.0556 74.4921 28.4511 74.9799 28.4511Z" fill="white" fill-opacity="0.51"/>
<path d="M86.0209 28.4511C86.5088 28.4511 86.9042 28.0556 86.9042 27.5678C86.9042 27.08 86.5088 26.6846 86.0209 26.6846C85.5331 26.6846 85.1377 27.08 85.1377 27.5678C85.1377 28.0556 85.5331 28.4511 86.0209 28.4511Z" fill="white" fill-opacity="0.51"/>
<path d="M97.062 28.4511C97.5498 28.4511 97.9452 28.0556 97.9452 27.5678C97.9452 27.08 97.5498 26.6846 97.062 26.6846C96.5742 26.6846 96.1787 27.08 96.1787 27.5678C96.1787 28.0556 96.5742 28.4511 97.062 28.4511Z" fill="white" fill-opacity="0.51"/>
<path d="M108.102 28.4511C108.59 28.4511 108.985 28.0556 108.985 27.5678C108.985 27.08 108.59 26.6846 108.102 26.6846C107.614 26.6846 107.219 27.08 107.219 27.5678C107.219 28.0556 107.614 28.4511 108.102 28.4511Z" fill="white" fill-opacity="0.51"/>
<path d="M119.143 28.4511C119.631 28.4511 120.026 28.0556 120.026 27.5678C120.026 27.08 119.631 26.6846 119.143 26.6846C118.655 26.6846 118.26 27.08 118.26 27.5678C118.26 28.0556 118.655 28.4511 119.143 28.4511Z" fill="white" fill-opacity="0.51"/>
<path d="M130.184 28.4511C130.671 28.4511 131.067 28.0556 131.067 27.5678C131.067 27.08 130.671 26.6846 130.184 26.6846C129.696 26.6846 129.3 27.08 129.3 27.5678C129.3 28.0556 129.696 28.4511 130.184 28.4511Z" fill="white" fill-opacity="0.51"/>
<path d="M141.224 28.4511C141.712 28.4511 142.107 28.0556 142.107 27.5678C142.107 27.08 141.712 26.6846 141.224 26.6846C140.736 26.6846 140.341 27.08 140.341 27.5678C140.341 28.0556 140.736 28.4511 141.224 28.4511Z" fill="white" fill-opacity="0.51"/>
<path d="M152.265 28.4518C152.753 28.4518 153.148 28.0564 153.148 27.5686C153.148 27.0807 152.753 26.6853 152.265 26.6853C151.777 26.6853 151.382 27.0807 151.382 27.5686C151.382 28.0564 151.777 28.4518 152.265 28.4518Z" fill="white" fill-opacity="0.51"/>
<path d="M163.307 28.4518C163.795 28.4518 164.19 28.0564 164.19 27.5686C164.19 27.0807 163.795 26.6853 163.307 26.6853C162.819 26.6853 162.424 27.0807 162.424 27.5686C162.424 28.0564 162.819 28.4518 163.307 28.4518Z" fill="white" fill-opacity="0.51"/>
<path d="M174.347 28.4518C174.835 28.4518 175.23 28.0564 175.23 27.5686C175.23 27.0807 174.835 26.6853 174.347 26.6853C173.859 26.6853 173.464 27.0807 173.464 27.5686C173.464 28.0564 173.859 28.4518 174.347 28.4518Z" fill="white" fill-opacity="0.51"/>
<path d="M185.387 28.4518C185.875 28.4518 186.27 28.0564 186.27 27.5686C186.27 27.0807 185.875 26.6853 185.387 26.6853C184.899 26.6853 184.504 27.0807 184.504 27.5686C184.504 28.0564 184.899 28.4518 185.387 28.4518Z" fill="white" fill-opacity="0.51"/>
<path d="M196.429 28.4518C196.916 28.4518 197.312 28.0564 197.312 27.5686C197.312 27.0807 196.916 26.6853 196.429 26.6853C195.941 26.6853 195.545 27.0807 195.545 27.5686C195.545 28.0564 195.941 28.4518 196.429 28.4518Z" fill="white" fill-opacity="0.51"/>
<path d="M207.469 28.4518C207.957 28.4518 208.352 28.0564 208.352 27.5686C208.352 27.0807 207.957 26.6853 207.469 26.6853C206.981 26.6853 206.585 27.0807 206.585 27.5686C206.585 28.0564 206.981 28.4518 207.469 28.4518Z" fill="white" fill-opacity="0.51"/>
<path d="M218.51 28.4518C218.998 28.4518 219.393 28.0564 219.393 27.5686C219.393 27.0807 218.998 26.6853 218.51 26.6853C218.022 26.6853 217.627 27.0807 217.627 27.5686C217.627 28.0564 218.022 28.4518 218.51 28.4518Z" fill="white" fill-opacity="0.51"/>
<path d="M229.551 28.4518C230.039 28.4518 230.434 28.0564 230.434 27.5686C230.434 27.0807 230.039 26.6853 229.551 26.6853C229.063 26.6853 228.667 27.0807 228.667 27.5686C228.667 28.0564 229.063 28.4518 229.551 28.4518Z" fill="white" fill-opacity="0.51"/>
<path d="M240.591 28.4518C241.079 28.4518 241.474 28.0564 241.474 27.5686C241.474 27.0807 241.079 26.6853 240.591 26.6853C240.103 26.6853 239.708 27.0807 239.708 27.5686C239.708 28.0564 240.103 28.4518 240.591 28.4518Z" fill="white" fill-opacity="0.51"/>
<path d="M251.632 28.4518C252.12 28.4518 252.515 28.0564 252.515 27.5686C252.515 27.0807 252.12 26.6853 251.632 26.6853C251.144 26.6853 250.749 27.0807 250.749 27.5686C250.749 28.0564 251.144 28.4518 251.632 28.4518Z" fill="white" fill-opacity="0.51"/>
<path d="M262.672 28.4518C263.16 28.4518 263.555 28.0564 263.555 27.5686C263.555 27.0807 263.16 26.6853 262.672 26.6853C262.184 26.6853 261.789 27.0807 261.789 27.5686C261.789 28.0564 262.184 28.4518 262.672 28.4518Z" fill="white" fill-opacity="0.51"/>
<path d="M273.713 28.4518C274.201 28.4518 274.596 28.0564 274.596 27.5686C274.596 27.0807 274.201 26.6853 273.713 26.6853C273.225 26.6853 272.83 27.0807 272.83 27.5686C272.83 28.0564 273.225 28.4518 273.713 28.4518Z" fill="white" fill-opacity="0.51"/>
<path d="M284.753 28.4518C285.241 28.4518 285.637 28.0564 285.637 27.5686C285.637 27.0807 285.241 26.6853 284.753 26.6853C284.266 26.6853 283.87 27.0807 283.87 27.5686C283.87 28.0564 284.266 28.4518 284.753 28.4518Z" fill="white" fill-opacity="0.51"/>
<path d="M295.794 28.4518C296.282 28.4518 296.677 28.0564 296.677 27.5686C296.677 27.0807 296.282 26.6853 295.794 26.6853C295.306 26.6853 294.911 27.0807 294.911 27.5686C294.911 28.0564 295.306 28.4518 295.794 28.4518Z" fill="white" fill-opacity="0.51"/>
<path d="M306.835 28.4518C307.323 28.4518 307.719 28.0564 307.719 27.5686C307.719 27.0807 307.323 26.6853 306.835 26.6853C306.348 26.6853 305.952 27.0807 305.952 27.5686C305.952 28.0564 306.348 28.4518 306.835 28.4518Z" fill="white" fill-opacity="0.51"/>
<path d="M317.875 28.4518C318.363 28.4518 318.759 28.0564 318.759 27.5686C318.759 27.0807 318.363 26.6853 317.875 26.6853C317.388 26.6853 316.992 27.0807 316.992 27.5686C316.992 28.0564 317.388 28.4518 317.875 28.4518Z" fill="white" fill-opacity="0.51"/>
<path d="M328.916 28.4518C329.404 28.4518 329.799 28.0564 329.799 27.5686C329.799 27.0807 329.404 26.6853 328.916 26.6853C328.428 26.6853 328.033 27.0807 328.033 27.5686C328.033 28.0564 328.428 28.4518 328.916 28.4518Z" fill="white" fill-opacity="0.51"/>
<path d="M339.957 28.4518C340.445 28.4518 340.84 28.0564 340.84 27.5686C340.84 27.0807 340.445 26.6853 339.957 26.6853C339.469 26.6853 339.074 27.0807 339.074 27.5686C339.074 28.0564 339.469 28.4518 339.957 28.4518Z" fill="white" fill-opacity="0.51"/>
<path d="M19.7773 39.4921C20.2651 39.4921 20.6605 39.0966 20.6605 38.6088C20.6605 38.121 20.2651 37.7256 19.7773 37.7256C19.2895 37.7256 18.894 38.121 18.894 38.6088C18.894 39.0966 19.2895 39.4921 19.7773 39.4921Z" fill="white" fill-opacity="0.51"/>
<path d="M30.8173 39.4921C31.3051 39.4921 31.7006 39.0966 31.7006 38.6088C31.7006 38.121 31.3051 37.7256 30.8173 37.7256C30.3295 37.7256 29.9341 38.121 29.9341 38.6088C29.9341 39.0966 30.3295 39.4921 30.8173 39.4921Z" fill="white" fill-opacity="0.51"/>
<path d="M41.8588 39.4921C42.3466 39.4921 42.7421 39.0966 42.7421 38.6088C42.7421 38.121 42.3466 37.7256 41.8588 37.7256C41.371 37.7256 40.9756 38.121 40.9756 38.6088C40.9756 39.0966 41.371 39.4921 41.8588 39.4921Z" fill="white" fill-opacity="0.51"/>
<path d="M52.8989 39.4921C53.3867 39.4921 53.7821 39.0966 53.7821 38.6088C53.7821 38.121 53.3867 37.7256 52.8989 37.7256C52.4111 37.7256 52.0156 38.121 52.0156 38.6088C52.0156 39.0966 52.4111 39.4921 52.8989 39.4921Z" fill="white" fill-opacity="0.51"/>
<path d="M63.9399 39.4921C64.4277 39.4921 64.8231 39.0966 64.8231 38.6088C64.8231 38.121 64.4277 37.7256 63.9399 37.7256C63.4521 37.7256 63.0566 38.121 63.0566 38.6088C63.0566 39.0966 63.4521 39.4921 63.9399 39.4921Z" fill="white" fill-opacity="0.51"/>
<path d="M74.9799 39.4921C75.4677 39.4921 75.8632 39.0966 75.8632 38.6088C75.8632 38.121 75.4677 37.7256 74.9799 37.7256C74.4921 37.7256 74.0967 38.121 74.0967 38.6088C74.0967 39.0966 74.4921 39.4921 74.9799 39.4921Z" fill="white" fill-opacity="0.51"/>
<path d="M86.0209 39.4921C86.5088 39.4921 86.9042 39.0966 86.9042 38.6088C86.9042 38.121 86.5088 37.7256 86.0209 37.7256C85.5331 37.7256 85.1377 38.121 85.1377 38.6088C85.1377 39.0966 85.5331 39.4921 86.0209 39.4921Z" fill="white" fill-opacity="0.51"/>
<path d="M97.062 39.4921C97.5498 39.4921 97.9452 39.0966 97.9452 38.6088C97.9452 38.121 97.5498 37.7256 97.062 37.7256C96.5742 37.7256 96.1787 38.121 96.1787 38.6088C96.1787 39.0966 96.5742 39.4921 97.062 39.4921Z" fill="white" fill-opacity="0.51"/>
<path d="M108.102 39.4921C108.59 39.4921 108.985 39.0966 108.985 38.6088C108.985 38.121 108.59 37.7256 108.102 37.7256C107.614 37.7256 107.219 38.121 107.219 38.6088C107.219 39.0966 107.614 39.4921 108.102 39.4921Z" fill="white" fill-opacity="0.51"/>
<path d="M119.143 39.4921C119.631 39.4921 120.026 39.0966 120.026 38.6088C120.026 38.121 119.631 37.7256 119.143 37.7256C118.655 37.7256 118.26 38.121 118.26 38.6088C118.26 39.0966 118.655 39.4921 119.143 39.4921Z" fill="white" fill-opacity="0.51"/>
<path d="M130.184 39.4921C130.671 39.4921 131.067 39.0966 131.067 38.6088C131.067 38.121 130.671 37.7256 130.184 37.7256C129.696 37.7256 129.3 38.121 129.3 38.6088C129.3 39.0966 129.696 39.4921 130.184 39.4921Z" fill="white" fill-opacity="0.51"/>
<path d="M141.224 39.4921C141.712 39.4921 142.107 39.0966 142.107 38.6088C142.107 38.121 141.712 37.7256 141.224 37.7256C140.736 37.7256 140.341 38.121 140.341 38.6088C140.341 39.0966 140.736 39.4921 141.224 39.4921Z" fill="white" fill-opacity="0.51"/>
<path d="M152.265 39.4926C152.753 39.4926 153.148 39.0971 153.148 38.6093C153.148 38.1215 152.753 37.7261 152.265 37.7261C151.777 37.7261 151.382 38.1215 151.382 38.6093C151.382 39.0971 151.777 39.4926 152.265 39.4926Z" fill="white" fill-opacity="0.51"/>
<path d="M163.307 39.4926C163.795 39.4926 164.19 39.0971 164.19 38.6093C164.19 38.1215 163.795 37.7261 163.307 37.7261C162.819 37.7261 162.424 38.1215 162.424 38.6093C162.424 39.0971 162.819 39.4926 163.307 39.4926Z" fill="white" fill-opacity="0.51"/>
<path d="M174.347 39.4926C174.835 39.4926 175.23 39.0971 175.23 38.6093C175.23 38.1215 174.835 37.7261 174.347 37.7261C173.859 37.7261 173.464 38.1215 173.464 38.6093C173.464 39.0971 173.859 39.4926 174.347 39.4926Z" fill="white" fill-opacity="0.51"/>
<path d="M185.387 39.4926C185.875 39.4926 186.27 39.0971 186.27 38.6093C186.27 38.1215 185.875 37.7261 185.387 37.7261C184.899 37.7261 184.504 38.1215 184.504 38.6093C184.504 39.0971 184.899 39.4926 185.387 39.4926Z" fill="white" fill-opacity="0.51"/>
<path d="M196.429 39.4926C196.916 39.4926 197.312 39.0971 197.312 38.6093C197.312 38.1215 196.916 37.7261 196.429 37.7261C195.941 37.7261 195.545 38.1215 195.545 38.6093C195.545 39.0971 195.941 39.4926 196.429 39.4926Z" fill="white" fill-opacity="0.51"/>
<path d="M207.469 39.4926C207.957 39.4926 208.352 39.0971 208.352 38.6093C208.352 38.1215 207.957 37.7261 207.469 37.7261C206.981 37.7261 206.585 38.1215 206.585 38.6093C206.585 39.0971 206.981 39.4926 207.469 39.4926Z" fill="white" fill-opacity="0.51"/>
<path d="M218.51 39.4926C218.998 39.4926 219.393 39.0971 219.393 38.6093C219.393 38.1215 218.998 37.7261 218.51 37.7261C218.022 37.7261 217.627 38.1215 217.627 38.6093C217.627 39.0971 218.022 39.4926 218.51 39.4926Z" fill="white" fill-opacity="0.51"/>
<path d="M229.551 39.4926C230.039 39.4926 230.434 39.0971 230.434 38.6093C230.434 38.1215 230.039 37.7261 229.551 37.7261C229.063 37.7261 228.667 38.1215 228.667 38.6093C228.667 39.0971 229.063 39.4926 229.551 39.4926Z" fill="white" fill-opacity="0.51"/>
<path d="M240.591 39.4926C241.079 39.4926 241.474 39.0971 241.474 38.6093C241.474 38.1215 241.079 37.7261 240.591 37.7261C240.103 37.7261 239.708 38.1215 239.708 38.6093C239.708 39.0971 240.103 39.4926 240.591 39.4926Z" fill="white" fill-opacity="0.51"/>
<path d="M251.632 39.4926C252.12 39.4926 252.515 39.0971 252.515 38.6093C252.515 38.1215 252.12 37.7261 251.632 37.7261C251.144 37.7261 250.749 38.1215 250.749 38.6093C250.749 39.0971 251.144 39.4926 251.632 39.4926Z" fill="white" fill-opacity="0.51"/>
<path d="M262.672 39.4926C263.16 39.4926 263.555 39.0971 263.555 38.6093C263.555 38.1215 263.16 37.7261 262.672 37.7261C262.184 37.7261 261.789 38.1215 261.789 38.6093C261.789 39.0971 262.184 39.4926 262.672 39.4926Z" fill="white" fill-opacity="0.51"/>
<path d="M273.713 39.4926C274.201 39.4926 274.596 39.0971 274.596 38.6093C274.596 38.1215 274.201 37.7261 273.713 37.7261C273.225 37.7261 272.83 38.1215 272.83 38.6093C272.83 39.0971 273.225 39.4926 273.713 39.4926Z" fill="white" fill-opacity="0.51"/>
<path d="M284.753 39.4926C285.241 39.4926 285.637 39.0971 285.637 38.6093C285.637 38.1215 285.241 37.7261 284.753 37.7261C284.266 37.7261 283.87 38.1215 283.87 38.6093C283.87 39.0971 284.266 39.4926 284.753 39.4926Z" fill="white" fill-opacity="0.51"/>
<path d="M295.794 39.4926C296.282 39.4926 296.677 39.0971 296.677 38.6093C296.677 38.1215 296.282 37.7261 295.794 37.7261C295.306 37.7261 294.911 38.1215 294.911 38.6093C294.911 39.0971 295.306 39.4926 295.794 39.4926Z" fill="white" fill-opacity="0.51"/>
<path d="M306.835 39.4926C307.323 39.4926 307.719 39.0971 307.719 38.6093C307.719 38.1215 307.323 37.7261 306.835 37.7261C306.348 37.7261 305.952 38.1215 305.952 38.6093C305.952 39.0971 306.348 39.4926 306.835 39.4926Z" fill="white" fill-opacity="0.51"/>
<path d="M317.875 39.4926C318.363 39.4926 318.759 39.0971 318.759 38.6093C318.759 38.1215 318.363 37.7261 317.875 37.7261C317.388 37.7261 316.992 38.1215 316.992 38.6093C316.992 39.0971 317.388 39.4926 317.875 39.4926Z" fill="white" fill-opacity="0.51"/>
<path d="M328.916 39.4926C329.404 39.4926 329.799 39.0971 329.799 38.6093C329.799 38.1215 329.404 37.7261 328.916 37.7261C328.428 37.7261 328.033 38.1215 328.033 38.6093C328.033 39.0971 328.428 39.4926 328.916 39.4926Z" fill="white" fill-opacity="0.51"/>
<path d="M339.957 39.4926C340.445 39.4926 340.84 39.0971 340.84 38.6093C340.84 38.1215 340.445 37.7261 339.957 37.7261C339.469 37.7261 339.074 38.1215 339.074 38.6093C339.074 39.0971 339.469 39.4926 339.957 39.4926Z" fill="white" fill-opacity="0.51"/>
<path d="M19.7773 50.5324C20.2651 50.5324 20.6605 50.1369 20.6605 49.6491C20.6605 49.1613 20.2651 48.7659 19.7773 48.7659C19.2895 48.7659 18.894 49.1613 18.894 49.6491C18.894 50.1369 19.2895 50.5324 19.7773 50.5324Z" fill="white" fill-opacity="0.51"/>
<path d="M30.8173 50.5324C31.3051 50.5324 31.7006 50.1369 31.7006 49.6491C31.7006 49.1613 31.3051 48.7659 30.8173 48.7659C30.3295 48.7659 29.9341 49.1613 29.9341 49.6491C29.9341 50.1369 30.3295 50.5324 30.8173 50.5324Z" fill="white" fill-opacity="0.51"/>
<path d="M41.8588 50.5324C42.3466 50.5324 42.7421 50.1369 42.7421 49.6491C42.7421 49.1613 42.3466 48.7659 41.8588 48.7659C41.371 48.7659 40.9756 49.1613 40.9756 49.6491C40.9756 50.1369 41.371 50.5324 41.8588 50.5324Z" fill="white" fill-opacity="0.51"/>
<path d="M52.8989 50.5324C53.3867 50.5324 53.7821 50.1369 53.7821 49.6491C53.7821 49.1613 53.3867 48.7659 52.8989 48.7659C52.4111 48.7659 52.0156 49.1613 52.0156 49.6491C52.0156 50.1369 52.4111 50.5324 52.8989 50.5324Z" fill="white" fill-opacity="0.51"/>
<path d="M63.9399 50.5324C64.4277 50.5324 64.8231 50.1369 64.8231 49.6491C64.8231 49.1613 64.4277 48.7659 63.9399 48.7659C63.4521 48.7659 63.0566 49.1613 63.0566 49.6491C63.0566 50.1369 63.4521 50.5324 63.9399 50.5324Z" fill="white" fill-opacity="0.51"/>
<path d="M74.9799 50.5324C75.4677 50.5324 75.8632 50.1369 75.8632 49.6491C75.8632 49.1613 75.4677 48.7659 74.9799 48.7659C74.4921 48.7659 74.0967 49.1613 74.0967 49.6491C74.0967 50.1369 74.4921 50.5324 74.9799 50.5324Z" fill="white" fill-opacity="0.51"/>
<path d="M86.0209 50.5324C86.5088 50.5324 86.9042 50.1369 86.9042 49.6491C86.9042 49.1613 86.5088 48.7659 86.0209 48.7659C85.5331 48.7659 85.1377 49.1613 85.1377 49.6491C85.1377 50.1369 85.5331 50.5324 86.0209 50.5324Z" fill="white" fill-opacity="0.51"/>
<path d="M97.062 50.5324C97.5498 50.5324 97.9452 50.1369 97.9452 49.6491C97.9452 49.1613 97.5498 48.7659 97.062 48.7659C96.5742 48.7659 96.1787 49.1613 96.1787 49.6491C96.1787 50.1369 96.5742 50.5324 97.062 50.5324Z" fill="white" fill-opacity="0.51"/>
<path d="M108.102 50.5324C108.59 50.5324 108.985 50.1369 108.985 49.6491C108.985 49.1613 108.59 48.7659 108.102 48.7659C107.614 48.7659 107.219 49.1613 107.219 49.6491C107.219 50.1369 107.614 50.5324 108.102 50.5324Z" fill="white" fill-opacity="0.51"/>
<path d="M119.143 50.5324C119.631 50.5324 120.026 50.1369 120.026 49.6491C120.026 49.1613 119.631 48.7659 119.143 48.7659C118.655 48.7659 118.26 49.1613 118.26 49.6491C118.26 50.1369 118.655 50.5324 119.143 50.5324Z" fill="white" fill-opacity="0.51"/>
<path d="M130.184 50.5324C130.671 50.5324 131.067 50.1369 131.067 49.6491C131.067 49.1613 130.671 48.7659 130.184 48.7659C129.696 48.7659 129.3 49.1613 129.3 49.6491C129.3 50.1369 129.696 50.5324 130.184 50.5324Z" fill="white" fill-opacity="0.51"/>
<path d="M141.224 50.5324C141.712 50.5324 142.107 50.1369 142.107 49.6491C142.107 49.1613 141.712 48.7659 141.224 48.7659C140.736 48.7659 140.341 49.1613 140.341 49.6491C140.341 50.1369 140.736 50.5324 141.224 50.5324Z" fill="white" fill-opacity="0.51"/>
<path d="M152.265 50.5331C152.753 50.5331 153.148 50.1377 153.148 49.6499C153.148 49.162 152.753 48.7666 152.265 48.7666C151.777 48.7666 151.382 49.162 151.382 49.6499C151.382 50.1377 151.777 50.5331 152.265 50.5331Z" fill="white" fill-opacity="0.51"/>
<path d="M163.307 50.5331C163.795 50.5331 164.19 50.1377 164.19 49.6499C164.19 49.162 163.795 48.7666 163.307 48.7666C162.819 48.7666 162.424 49.162 162.424 49.6499C162.424 50.1377 162.819 50.5331 163.307 50.5331Z" fill="white" fill-opacity="0.51"/>
<path d="M174.347 50.5331C174.835 50.5331 175.23 50.1377 175.23 49.6499C175.23 49.162 174.835 48.7666 174.347 48.7666C173.859 48.7666 173.464 49.162 173.464 49.6499C173.464 50.1377 173.859 50.5331 174.347 50.5331Z" fill="white" fill-opacity="0.51"/>
<path d="M185.387 50.5331C185.875 50.5331 186.27 50.1377 186.27 49.6499C186.27 49.162 185.875 48.7666 185.387 48.7666C184.899 48.7666 184.504 49.162 184.504 49.6499C184.504 50.1377 184.899 50.5331 185.387 50.5331Z" fill="white" fill-opacity="0.51"/>
<path d="M196.429 50.5331C196.916 50.5331 197.312 50.1377 197.312 49.6499C197.312 49.162 196.916 48.7666 196.429 48.7666C195.941 48.7666 195.545 49.162 195.545 49.6499C195.545 50.1377 195.941 50.5331 196.429 50.5331Z" fill="white" fill-opacity="0.51"/>
<path d="M207.469 50.5331C207.957 50.5331 208.352 50.1377 208.352 49.6499C208.352 49.162 207.957 48.7666 207.469 48.7666C206.981 48.7666 206.585 49.162 206.585 49.6499C206.585 50.1377 206.981 50.5331 207.469 50.5331Z" fill="white" fill-opacity="0.51"/>
<path d="M218.51 50.5331C218.998 50.5331 219.393 50.1377 219.393 49.6499C219.393 49.162 218.998 48.7666 218.51 48.7666C218.022 48.7666 217.627 49.162 217.627 49.6499C217.627 50.1377 218.022 50.5331 218.51 50.5331Z" fill="white" fill-opacity="0.51"/>
<path d="M229.551 50.5331C230.039 50.5331 230.434 50.1377 230.434 49.6499C230.434 49.162 230.039 48.7666 229.551 48.7666C229.063 48.7666 228.667 49.162 228.667 49.6499C228.667 50.1377 229.063 50.5331 229.551 50.5331Z" fill="white" fill-opacity="0.51"/>
<path d="M240.591 50.5331C241.079 50.5331 241.474 50.1377 241.474 49.6499C241.474 49.162 241.079 48.7666 240.591 48.7666C240.103 48.7666 239.708 49.162 239.708 49.6499C239.708 50.1377 240.103 50.5331 240.591 50.5331Z" fill="white" fill-opacity="0.51"/>
<path d="M251.632 50.5331C252.12 50.5331 252.515 50.1377 252.515 49.6499C252.515 49.162 252.12 48.7666 251.632 48.7666C251.144 48.7666 250.749 49.162 250.749 49.6499C250.749 50.1377 251.144 50.5331 251.632 50.5331Z" fill="white" fill-opacity="0.51"/>
<path d="M262.672 50.5331C263.16 50.5331 263.555 50.1377 263.555 49.6499C263.555 49.162 263.16 48.7666 262.672 48.7666C262.184 48.7666 261.789 49.162 261.789 49.6499C261.789 50.1377 262.184 50.5331 262.672 50.5331Z" fill="white" fill-opacity="0.51"/>
<path d="M273.713 50.5331C274.201 50.5331 274.596 50.1377 274.596 49.6499C274.596 49.162 274.201 48.7666 273.713 48.7666C273.225 48.7666 272.83 49.162 272.83 49.6499C272.83 50.1377 273.225 50.5331 273.713 50.5331Z" fill="white" fill-opacity="0.51"/>
<path d="M284.753 50.5331C285.241 50.5331 285.637 50.1377 285.637 49.6499C285.637 49.162 285.241 48.7666 284.753 48.7666C284.266 48.7666 283.87 49.162 283.87 49.6499C283.87 50.1377 284.266 50.5331 284.753 50.5331Z" fill="white" fill-opacity="0.51"/>
<path d="M295.794 50.5331C296.282 50.5331 296.677 50.1377 296.677 49.6499C296.677 49.162 296.282 48.7666 295.794 48.7666C295.306 48.7666 294.911 49.162 294.911 49.6499C294.911 50.1377 295.306 50.5331 295.794 50.5331Z" fill="white" fill-opacity="0.51"/>
<path d="M306.835 50.5331C307.323 50.5331 307.719 50.1377 307.719 49.6499C307.719 49.162 307.323 48.7666 306.835 48.7666C306.348 48.7666 305.952 49.162 305.952 49.6499C305.952 50.1377 306.348 50.5331 306.835 50.5331Z" fill="white" fill-opacity="0.51"/>
<path d="M317.875 50.5331C318.363 50.5331 318.759 50.1377 318.759 49.6499C318.759 49.162 318.363 48.7666 317.875 48.7666C317.388 48.7666 316.992 49.162 316.992 49.6499C316.992 50.1377 317.388 50.5331 317.875 50.5331Z" fill="white" fill-opacity="0.51"/>
<path d="M328.916 50.5331C329.404 50.5331 329.799 50.1377 329.799 49.6499C329.799 49.162 329.404 48.7666 328.916 48.7666C328.428 48.7666 328.033 49.162 328.033 49.6499C328.033 50.1377 328.428 50.5331 328.916 50.5331Z" fill="white" fill-opacity="0.51"/>
<path d="M339.957 50.5331C340.445 50.5331 340.84 50.1377 340.84 49.6499C340.84 49.162 340.445 48.7666 339.957 48.7666C339.469 48.7666 339.074 49.162 339.074 49.6499C339.074 50.1377 339.469 50.5331 339.957 50.5331Z" fill="white" fill-opacity="0.51"/>
<path d="M19.7773 61.5727C20.2651 61.5727 20.6605 61.1772 20.6605 60.6894C20.6605 60.2016 20.2651 59.8062 19.7773 59.8062C19.2895 59.8062 18.894 60.2016 18.894 60.6894C18.894 61.1772 19.2895 61.5727 19.7773 61.5727Z" fill="white" fill-opacity="0.51"/>
<path d="M30.8173 61.5727C31.3051 61.5727 31.7006 61.1772 31.7006 60.6894C31.7006 60.2016 31.3051 59.8062 30.8173 59.8062C30.3295 59.8062 29.9341 60.2016 29.9341 60.6894C29.9341 61.1772 30.3295 61.5727 30.8173 61.5727Z" fill="white" fill-opacity="0.51"/>
<path d="M41.8588 61.5727C42.3466 61.5727 42.7421 61.1772 42.7421 60.6894C42.7421 60.2016 42.3466 59.8062 41.8588 59.8062C41.371 59.8062 40.9756 60.2016 40.9756 60.6894C40.9756 61.1772 41.371 61.5727 41.8588 61.5727Z" fill="white" fill-opacity="0.51"/>
<path d="M52.8989 61.5727C53.3867 61.5727 53.7821 61.1772 53.7821 60.6894C53.7821 60.2016 53.3867 59.8062 52.8989 59.8062C52.4111 59.8062 52.0156 60.2016 52.0156 60.6894C52.0156 61.1772 52.4111 61.5727 52.8989 61.5727Z" fill="white" fill-opacity="0.51"/>
<path d="M63.9399 61.5727C64.4277 61.5727 64.8231 61.1772 64.8231 60.6894C64.8231 60.2016 64.4277 59.8062 63.9399 59.8062C63.4521 59.8062 63.0566 60.2016 63.0566 60.6894C63.0566 61.1772 63.4521 61.5727 63.9399 61.5727Z" fill="white" fill-opacity="0.51"/>
<path d="M74.9799 61.5727C75.4677 61.5727 75.8632 61.1772 75.8632 60.6894C75.8632 60.2016 75.4677 59.8062 74.9799 59.8062C74.4921 59.8062 74.0967 60.2016 74.0967 60.6894C74.0967 61.1772 74.4921 61.5727 74.9799 61.5727Z" fill="white" fill-opacity="0.51"/>
<path d="M86.0209 61.5727C86.5088 61.5727 86.9042 61.1772 86.9042 60.6894C86.9042 60.2016 86.5088 59.8062 86.0209 59.8062C85.5331 59.8062 85.1377 60.2016 85.1377 60.6894C85.1377 61.1772 85.5331 61.5727 86.0209 61.5727Z" fill="white" fill-opacity="0.51"/>
<path d="M97.062 61.5727C97.5498 61.5727 97.9452 61.1772 97.9452 60.6894C97.9452 60.2016 97.5498 59.8062 97.062 59.8062C96.5742 59.8062 96.1787 60.2016 96.1787 60.6894C96.1787 61.1772 96.5742 61.5727 97.062 61.5727Z" fill="white" fill-opacity="0.51"/>
<path d="M108.102 61.5727C108.59 61.5727 108.985 61.1772 108.985 60.6894C108.985 60.2016 108.59 59.8062 108.102 59.8062C107.614 59.8062 107.219 60.2016 107.219 60.6894C107.219 61.1772 107.614 61.5727 108.102 61.5727Z" fill="white" fill-opacity="0.51"/>
<path d="M119.143 61.5727C119.631 61.5727 120.026 61.1772 120.026 60.6894C120.026 60.2016 119.631 59.8062 119.143 59.8062C118.655 59.8062 118.26 60.2016 118.26 60.6894C118.26 61.1772 118.655 61.5727 119.143 61.5727Z" fill="white" fill-opacity="0.51"/>
<path d="M130.184 61.5727C130.671 61.5727 131.067 61.1772 131.067 60.6894C131.067 60.2016 130.671 59.8062 130.184 59.8062C129.696 59.8062 129.3 60.2016 129.3 60.6894C129.3 61.1772 129.696 61.5727 130.184 61.5727Z" fill="white" fill-opacity="0.51"/>
<path d="M141.224 61.5727C141.712 61.5727 142.107 61.1772 142.107 60.6894C142.107 60.2016 141.712 59.8062 141.224 59.8062C140.736 59.8062 140.341 60.2016 140.341 60.6894C140.341 61.1772 140.736 61.5727 141.224 61.5727Z" fill="white" fill-opacity="0.51"/>
<path d="M152.265 61.5734C152.753 61.5734 153.148 61.1779 153.148 60.6901C153.148 60.2023 152.753 59.8069 152.265 59.8069C151.777 59.8069 151.382 60.2023 151.382 60.6901C151.382 61.1779 151.777 61.5734 152.265 61.5734Z" fill="white" fill-opacity="0.51"/>
<path d="M163.307 61.5734C163.795 61.5734 164.19 61.1779 164.19 60.6901C164.19 60.2023 163.795 59.8069 163.307 59.8069C162.819 59.8069 162.424 60.2023 162.424 60.6901C162.424 61.1779 162.819 61.5734 163.307 61.5734Z" fill="white" fill-opacity="0.51"/>
<path d="M174.347 61.5734C174.835 61.5734 175.23 61.1779 175.23 60.6901C175.23 60.2023 174.835 59.8069 174.347 59.8069C173.859 59.8069 173.464 60.2023 173.464 60.6901C173.464 61.1779 173.859 61.5734 174.347 61.5734Z" fill="white" fill-opacity="0.51"/>
<path d="M185.387 61.5734C185.875 61.5734 186.27 61.1779 186.27 60.6901C186.27 60.2023 185.875 59.8069 185.387 59.8069C184.899 59.8069 184.504 60.2023 184.504 60.6901C184.504 61.1779 184.899 61.5734 185.387 61.5734Z" fill="white" fill-opacity="0.51"/>
<path d="M196.429 61.5734C196.916 61.5734 197.312 61.1779 197.312 60.6901C197.312 60.2023 196.916 59.8069 196.429 59.8069C195.941 59.8069 195.545 60.2023 195.545 60.6901C195.545 61.1779 195.941 61.5734 196.429 61.5734Z" fill="white" fill-opacity="0.51"/>
<path d="M207.469 61.5734C207.957 61.5734 208.352 61.1779 208.352 60.6901C208.352 60.2023 207.957 59.8069 207.469 59.8069C206.981 59.8069 206.585 60.2023 206.585 60.6901C206.585 61.1779 206.981 61.5734 207.469 61.5734Z" fill="white" fill-opacity="0.51"/>
<path d="M218.51 61.5734C218.998 61.5734 219.393 61.1779 219.393 60.6901C219.393 60.2023 218.998 59.8069 218.51 59.8069C218.022 59.8069 217.627 60.2023 217.627 60.6901C217.627 61.1779 218.022 61.5734 218.51 61.5734Z" fill="white" fill-opacity="0.51"/>
<path d="M229.551 61.5734C230.039 61.5734 230.434 61.1779 230.434 60.6901C230.434 60.2023 230.039 59.8069 229.551 59.8069C229.063 59.8069 228.667 60.2023 228.667 60.6901C228.667 61.1779 229.063 61.5734 229.551 61.5734Z" fill="white" fill-opacity="0.51"/>
<path d="M240.591 61.5734C241.079 61.5734 241.474 61.1779 241.474 60.6901C241.474 60.2023 241.079 59.8069 240.591 59.8069C240.103 59.8069 239.708 60.2023 239.708 60.6901C239.708 61.1779 240.103 61.5734 240.591 61.5734Z" fill="white" fill-opacity="0.51"/>
<path d="M251.632 61.5734C252.12 61.5734 252.515 61.1779 252.515 60.6901C252.515 60.2023 252.12 59.8069 251.632 59.8069C251.144 59.8069 250.749 60.2023 250.749 60.6901C250.749 61.1779 251.144 61.5734 251.632 61.5734Z" fill="white" fill-opacity="0.51"/>
<path d="M262.672 61.5734C263.16 61.5734 263.555 61.1779 263.555 60.6901C263.555 60.2023 263.16 59.8069 262.672 59.8069C262.184 59.8069 261.789 60.2023 261.789 60.6901C261.789 61.1779 262.184 61.5734 262.672 61.5734Z" fill="white" fill-opacity="0.51"/>
<path d="M273.713 61.5734C274.201 61.5734 274.596 61.1779 274.596 60.6901C274.596 60.2023 274.201 59.8069 273.713 59.8069C273.225 59.8069 272.83 60.2023 272.83 60.6901C272.83 61.1779 273.225 61.5734 273.713 61.5734Z" fill="white" fill-opacity="0.51"/>
<path d="M284.753 61.5734C285.241 61.5734 285.637 61.1779 285.637 60.6901C285.637 60.2023 285.241 59.8069 284.753 59.8069C284.266 59.8069 283.87 60.2023 283.87 60.6901C283.87 61.1779 284.266 61.5734 284.753 61.5734Z" fill="white" fill-opacity="0.51"/>
<path d="M295.794 61.5734C296.282 61.5734 296.677 61.1779 296.677 60.6901C296.677 60.2023 296.282 59.8069 295.794 59.8069C295.306 59.8069 294.911 60.2023 294.911 60.6901C294.911 61.1779 295.306 61.5734 295.794 61.5734Z" fill="white" fill-opacity="0.51"/>
<path d="M306.835 61.5734C307.323 61.5734 307.719 61.1779 307.719 60.6901C307.719 60.2023 307.323 59.8069 306.835 59.8069C306.348 59.8069 305.952 60.2023 305.952 60.6901C305.952 61.1779 306.348 61.5734 306.835 61.5734Z" fill="white" fill-opacity="0.51"/>
<path d="M317.875 61.5734C318.363 61.5734 318.759 61.1779 318.759 60.6901C318.759 60.2023 318.363 59.8069 317.875 59.8069C317.388 59.8069 316.992 60.2023 316.992 60.6901C316.992 61.1779 317.388 61.5734 317.875 61.5734Z" fill="white" fill-opacity="0.51"/>
<path d="M328.916 61.5734C329.404 61.5734 329.799 61.1779 329.799 60.6901C329.799 60.2023 329.404 59.8069 328.916 59.8069C328.428 59.8069 328.033 60.2023 328.033 60.6901C328.033 61.1779 328.428 61.5734 328.916 61.5734Z" fill="white" fill-opacity="0.51"/>
<path d="M339.957 61.5734C340.445 61.5734 340.84 61.1779 340.84 60.6901C340.84 60.2023 340.445 59.8069 339.957 59.8069C339.469 59.8069 339.074 60.2023 339.074 60.6901C339.074 61.1779 339.469 61.5734 339.957 61.5734Z" fill="white" fill-opacity="0.51"/>
<path d="M19.7773 72.6139C20.2651 72.6139 20.6605 72.2185 20.6605 71.7307C20.6605 71.2429 20.2651 70.8474 19.7773 70.8474C19.2895 70.8474 18.894 71.2429 18.894 71.7307C18.894 72.2185 19.2895 72.6139 19.7773 72.6139Z" fill="white" fill-opacity="0.51"/>
<path d="M30.8173 72.6139C31.3051 72.6139 31.7006 72.2185 31.7006 71.7307C31.7006 71.2429 31.3051 70.8474 30.8173 70.8474C30.3295 70.8474 29.9341 71.2429 29.9341 71.7307C29.9341 72.2185 30.3295 72.6139 30.8173 72.6139Z" fill="white" fill-opacity="0.51"/>
<path d="M41.8588 72.6139C42.3466 72.6139 42.7421 72.2185 42.7421 71.7307C42.7421 71.2429 42.3466 70.8474 41.8588 70.8474C41.371 70.8474 40.9756 71.2429 40.9756 71.7307C40.9756 72.2185 41.371 72.6139 41.8588 72.6139Z" fill="white" fill-opacity="0.51"/>
<path d="M52.8989 72.6139C53.3867 72.6139 53.7821 72.2185 53.7821 71.7307C53.7821 71.2429 53.3867 70.8474 52.8989 70.8474C52.4111 70.8474 52.0156 71.2429 52.0156 71.7307C52.0156 72.2185 52.4111 72.6139 52.8989 72.6139Z" fill="white" fill-opacity="0.51"/>
<path d="M63.9399 72.6139C64.4277 72.6139 64.8231 72.2185 64.8231 71.7307C64.8231 71.2429 64.4277 70.8474 63.9399 70.8474C63.4521 70.8474 63.0566 71.2429 63.0566 71.7307C63.0566 72.2185 63.4521 72.6139 63.9399 72.6139Z" fill="white" fill-opacity="0.51"/>
<path d="M74.9799 72.6139C75.4677 72.6139 75.8632 72.2185 75.8632 71.7307C75.8632 71.2429 75.4677 70.8474 74.9799 70.8474C74.4921 70.8474 74.0967 71.2429 74.0967 71.7307C74.0967 72.2185 74.4921 72.6139 74.9799 72.6139Z" fill="white" fill-opacity="0.51"/>
<path d="M86.0209 72.6139C86.5088 72.6139 86.9042 72.2185 86.9042 71.7307C86.9042 71.2429 86.5088 70.8474 86.0209 70.8474C85.5331 70.8474 85.1377 71.2429 85.1377 71.7307C85.1377 72.2185 85.5331 72.6139 86.0209 72.6139Z" fill="white" fill-opacity="0.51"/>
<path d="M97.062 72.6139C97.5498 72.6139 97.9452 72.2185 97.9452 71.7307C97.9452 71.2429 97.5498 70.8474 97.062 70.8474C96.5742 70.8474 96.1787 71.2429 96.1787 71.7307C96.1787 72.2185 96.5742 72.6139 97.062 72.6139Z" fill="white" fill-opacity="0.51"/>
<path d="M108.102 72.6139C108.59 72.6139 108.985 72.2185 108.985 71.7307C108.985 71.2429 108.59 70.8474 108.102 70.8474C107.614 70.8474 107.219 71.2429 107.219 71.7307C107.219 72.2185 107.614 72.6139 108.102 72.6139Z" fill="white" fill-opacity="0.51"/>
<path d="M119.143 72.6139C119.631 72.6139 120.026 72.2185 120.026 71.7307C120.026 71.2429 119.631 70.8474 119.143 70.8474C118.655 70.8474 118.26 71.2429 118.26 71.7307C118.26 72.2185 118.655 72.6139 119.143 72.6139Z" fill="white" fill-opacity="0.51"/>
<path d="M130.184 72.6139C130.671 72.6139 131.067 72.2185 131.067 71.7307C131.067 71.2429 130.671 70.8474 130.184 70.8474C129.696 70.8474 129.3 71.2429 129.3 71.7307C129.3 72.2185 129.696 72.6139 130.184 72.6139Z" fill="white" fill-opacity="0.51"/>
<path d="M141.224 72.6139C141.712 72.6139 142.107 72.2185 142.107 71.7307C142.107 71.2429 141.712 70.8474 141.224 70.8474C140.736 70.8474 140.341 71.2429 140.341 71.7307C140.341 72.2185 140.736 72.6139 141.224 72.6139Z" fill="white" fill-opacity="0.51"/>
<path d="M152.265 72.6146C152.753 72.6146 153.148 72.2192 153.148 71.7314C153.148 71.2436 152.753 70.8481 152.265 70.8481C151.777 70.8481 151.382 71.2436 151.382 71.7314C151.382 72.2192 151.777 72.6146 152.265 72.6146Z" fill="white" fill-opacity="0.51"/>
<path d="M163.307 72.6146C163.795 72.6146 164.19 72.2192 164.19 71.7314C164.19 71.2436 163.795 70.8481 163.307 70.8481C162.819 70.8481 162.424 71.2436 162.424 71.7314C162.424 72.2192 162.819 72.6146 163.307 72.6146Z" fill="white" fill-opacity="0.51"/>
<path d="M174.347 72.6146C174.835 72.6146 175.23 72.2192 175.23 71.7314C175.23 71.2436 174.835 70.8481 174.347 70.8481C173.859 70.8481 173.464 71.2436 173.464 71.7314C173.464 72.2192 173.859 72.6146 174.347 72.6146Z" fill="white" fill-opacity="0.51"/>
<path d="M185.387 72.6146C185.875 72.6146 186.27 72.2192 186.27 71.7314C186.27 71.2436 185.875 70.8481 185.387 70.8481C184.899 70.8481 184.504 71.2436 184.504 71.7314C184.504 72.2192 184.899 72.6146 185.387 72.6146Z" fill="white" fill-opacity="0.51"/>
<path d="M196.429 72.6146C196.916 72.6146 197.312 72.2192 197.312 71.7314C197.312 71.2436 196.916 70.8481 196.429 70.8481C195.941 70.8481 195.545 71.2436 195.545 71.7314C195.545 72.2192 195.941 72.6146 196.429 72.6146Z" fill="white" fill-opacity="0.51"/>
<path d="M207.469 72.6146C207.957 72.6146 208.352 72.2192 208.352 71.7314C208.352 71.2436 207.957 70.8481 207.469 70.8481C206.981 70.8481 206.585 71.2436 206.585 71.7314C206.585 72.2192 206.981 72.6146 207.469 72.6146Z" fill="white" fill-opacity="0.51"/>
<path d="M218.51 72.6146C218.998 72.6146 219.393 72.2192 219.393 71.7314C219.393 71.2436 218.998 70.8481 218.51 70.8481C218.022 70.8481 217.627 71.2436 217.627 71.7314C217.627 72.2192 218.022 72.6146 218.51 72.6146Z" fill="white" fill-opacity="0.51"/>
<path d="M229.551 72.6146C230.039 72.6146 230.434 72.2192 230.434 71.7314C230.434 71.2436 230.039 70.8481 229.551 70.8481C229.063 70.8481 228.667 71.2436 228.667 71.7314C228.667 72.2192 229.063 72.6146 229.551 72.6146Z" fill="white" fill-opacity="0.51"/>
<path d="M240.591 72.6146C241.079 72.6146 241.474 72.2192 241.474 71.7314C241.474 71.2436 241.079 70.8481 240.591 70.8481C240.103 70.8481 239.708 71.2436 239.708 71.7314C239.708 72.2192 240.103 72.6146 240.591 72.6146Z" fill="white" fill-opacity="0.51"/>
<path d="M251.632 72.6146C252.12 72.6146 252.515 72.2192 252.515 71.7314C252.515 71.2436 252.12 70.8481 251.632 70.8481C251.144 70.8481 250.749 71.2436 250.749 71.7314C250.749 72.2192 251.144 72.6146 251.632 72.6146Z" fill="white" fill-opacity="0.51"/>
<path d="M262.672 72.6146C263.16 72.6146 263.555 72.2192 263.555 71.7314C263.555 71.2436 263.16 70.8481 262.672 70.8481C262.184 70.8481 261.789 71.2436 261.789 71.7314C261.789 72.2192 262.184 72.6146 262.672 72.6146Z" fill="white" fill-opacity="0.51"/>
<path d="M273.713 72.6146C274.201 72.6146 274.596 72.2192 274.596 71.7314C274.596 71.2436 274.201 70.8481 273.713 70.8481C273.225 70.8481 272.83 71.2436 272.83 71.7314C272.83 72.2192 273.225 72.6146 273.713 72.6146Z" fill="white" fill-opacity="0.51"/>
<path d="M284.753 72.6146C285.241 72.6146 285.637 72.2192 285.637 71.7314C285.637 71.2436 285.241 70.8481 284.753 70.8481C284.266 70.8481 283.87 71.2436 283.87 71.7314C283.87 72.2192 284.266 72.6146 284.753 72.6146Z" fill="white" fill-opacity="0.51"/>
<path d="M295.794 72.6146C296.282 72.6146 296.677 72.2192 296.677 71.7314C296.677 71.2436 296.282 70.8481 295.794 70.8481C295.306 70.8481 294.911 71.2436 294.911 71.7314C294.911 72.2192 295.306 72.6146 295.794 72.6146Z" fill="white" fill-opacity="0.51"/>
<path d="M306.835 72.6146C307.323 72.6146 307.719 72.2192 307.719 71.7314C307.719 71.2436 307.323 70.8481 306.835 70.8481C306.348 70.8481 305.952 71.2436 305.952 71.7314C305.952 72.2192 306.348 72.6146 306.835 72.6146Z" fill="white" fill-opacity="0.51"/>
<path d="M317.875 72.6146C318.363 72.6146 318.759 72.2192 318.759 71.7314C318.759 71.2436 318.363 70.8481 317.875 70.8481C317.388 70.8481 316.992 71.2436 316.992 71.7314C316.992 72.2192 317.388 72.6146 317.875 72.6146Z" fill="white" fill-opacity="0.51"/>
<path d="M328.916 72.6146C329.404 72.6146 329.799 72.2192 329.799 71.7314C329.799 71.2436 329.404 70.8481 328.916 70.8481C328.428 70.8481 328.033 71.2436 328.033 71.7314C328.033 72.2192 328.428 72.6146 328.916 72.6146Z" fill="white" fill-opacity="0.51"/>
<path d="M339.957 72.6146C340.445 72.6146 340.84 72.2192 340.84 71.7314C340.84 71.2436 340.445 70.8481 339.957 70.8481C339.469 70.8481 339.074 71.2436 339.074 71.7314C339.074 72.2192 339.469 72.6146 339.957 72.6146Z" fill="white" fill-opacity="0.51"/>
<path d="M19.7773 83.6547C20.2651 83.6547 20.6605 83.2592 20.6605 82.7714C20.6605 82.2836 20.2651 81.8882 19.7773 81.8882C19.2895 81.8882 18.894 82.2836 18.894 82.7714C18.894 83.2592 19.2895 83.6547 19.7773 83.6547Z" fill="white" fill-opacity="0.51"/>
<path d="M30.8173 83.6547C31.3051 83.6547 31.7006 83.2592 31.7006 82.7714C31.7006 82.2836 31.3051 81.8882 30.8173 81.8882C30.3295 81.8882 29.9341 82.2836 29.9341 82.7714C29.9341 83.2592 30.3295 83.6547 30.8173 83.6547Z" fill="white" fill-opacity="0.51"/>
<path d="M41.8588 83.6547C42.3466 83.6547 42.7421 83.2592 42.7421 82.7714C42.7421 82.2836 42.3466 81.8882 41.8588 81.8882C41.371 81.8882 40.9756 82.2836 40.9756 82.7714C40.9756 83.2592 41.371 83.6547 41.8588 83.6547Z" fill="white" fill-opacity="0.51"/>
<path d="M52.8989 83.6547C53.3867 83.6547 53.7821 83.2592 53.7821 82.7714C53.7821 82.2836 53.3867 81.8882 52.8989 81.8882C52.4111 81.8882 52.0156 82.2836 52.0156 82.7714C52.0156 83.2592 52.4111 83.6547 52.8989 83.6547Z" fill="white" fill-opacity="0.51"/>
<path d="M63.9399 83.6547C64.4277 83.6547 64.8231 83.2592 64.8231 82.7714C64.8231 82.2836 64.4277 81.8882 63.9399 81.8882C63.4521 81.8882 63.0566 82.2836 63.0566 82.7714C63.0566 83.2592 63.4521 83.6547 63.9399 83.6547Z" fill="white" fill-opacity="0.51"/>
<path d="M74.9799 83.6547C75.4677 83.6547 75.8632 83.2592 75.8632 82.7714C75.8632 82.2836 75.4677 81.8882 74.9799 81.8882C74.4921 81.8882 74.0967 82.2836 74.0967 82.7714C74.0967 83.2592 74.4921 83.6547 74.9799 83.6547Z" fill="white" fill-opacity="0.51"/>
<path d="M86.0209 83.6547C86.5088 83.6547 86.9042 83.2592 86.9042 82.7714C86.9042 82.2836 86.5088 81.8882 86.0209 81.8882C85.5331 81.8882 85.1377 82.2836 85.1377 82.7714C85.1377 83.2592 85.5331 83.6547 86.0209 83.6547Z" fill="white" fill-opacity="0.51"/>
<path d="M97.062 83.6547C97.5498 83.6547 97.9452 83.2592 97.9452 82.7714C97.9452 82.2836 97.5498 81.8882 97.062 81.8882C96.5742 81.8882 96.1787 82.2836 96.1787 82.7714C96.1787 83.2592 96.5742 83.6547 97.062 83.6547Z" fill="white" fill-opacity="0.51"/>
<path d="M108.102 83.6547C108.59 83.6547 108.985 83.2592 108.985 82.7714C108.985 82.2836 108.59 81.8882 108.102 81.8882C107.614 81.8882 107.219 82.2836 107.219 82.7714C107.219 83.2592 107.614 83.6547 108.102 83.6547Z" fill="white" fill-opacity="0.51"/>
<path d="M119.143 83.6547C119.631 83.6547 120.026 83.2592 120.026 82.7714C120.026 82.2836 119.631 81.8882 119.143 81.8882C118.655 81.8882 118.26 82.2836 118.26 82.7714C118.26 83.2592 118.655 83.6547 119.143 83.6547Z" fill="white" fill-opacity="0.51"/>
<path d="M130.184 83.6547C130.671 83.6547 131.067 83.2592 131.067 82.7714C131.067 82.2836 130.671 81.8882 130.184 81.8882C129.696 81.8882 129.3 82.2836 129.3 82.7714C129.3 83.2592 129.696 83.6547 130.184 83.6547Z" fill="white" fill-opacity="0.51"/>
<path d="M141.224 83.6547C141.712 83.6547 142.107 83.2592 142.107 82.7714C142.107 82.2836 141.712 81.8882 141.224 81.8882C140.736 81.8882 140.341 82.2836 140.341 82.7714C140.341 83.2592 140.736 83.6547 141.224 83.6547Z" fill="white" fill-opacity="0.51"/>
<path d="M152.265 83.6554C152.753 83.6554 153.148 83.26 153.148 82.7722C153.148 82.2844 152.753 81.8889 152.265 81.8889C151.777 81.8889 151.382 82.2844 151.382 82.7722C151.382 83.26 151.777 83.6554 152.265 83.6554Z" fill="white" fill-opacity="0.51"/>
<path d="M163.307 83.6554C163.795 83.6554 164.19 83.26 164.19 82.7722C164.19 82.2844 163.795 81.8889 163.307 81.8889C162.819 81.8889 162.424 82.2844 162.424 82.7722C162.424 83.26 162.819 83.6554 163.307 83.6554Z" fill="white" fill-opacity="0.51"/>
<path d="M174.347 83.6554C174.835 83.6554 175.23 83.26 175.23 82.7722C175.23 82.2844 174.835 81.8889 174.347 81.8889C173.859 81.8889 173.464 82.2844 173.464 82.7722C173.464 83.26 173.859 83.6554 174.347 83.6554Z" fill="white" fill-opacity="0.51"/>
<path d="M185.387 83.6554C185.875 83.6554 186.27 83.26 186.27 82.7722C186.27 82.2844 185.875 81.8889 185.387 81.8889C184.899 81.8889 184.504 82.2844 184.504 82.7722C184.504 83.26 184.899 83.6554 185.387 83.6554Z" fill="white" fill-opacity="0.51"/>
<path d="M196.429 83.6554C196.916 83.6554 197.312 83.26 197.312 82.7722C197.312 82.2844 196.916 81.8889 196.429 81.8889C195.941 81.8889 195.545 82.2844 195.545 82.7722C195.545 83.26 195.941 83.6554 196.429 83.6554Z" fill="white" fill-opacity="0.51"/>
<path d="M207.469 83.6554C207.957 83.6554 208.352 83.26 208.352 82.7722C208.352 82.2844 207.957 81.8889 207.469 81.8889C206.981 81.8889 206.585 82.2844 206.585 82.7722C206.585 83.26 206.981 83.6554 207.469 83.6554Z" fill="white" fill-opacity="0.51"/>
<path d="M218.51 83.6554C218.998 83.6554 219.393 83.26 219.393 82.7722C219.393 82.2844 218.998 81.8889 218.51 81.8889C218.022 81.8889 217.627 82.2844 217.627 82.7722C217.627 83.26 218.022 83.6554 218.51 83.6554Z" fill="white" fill-opacity="0.51"/>
<path d="M229.551 83.6554C230.039 83.6554 230.434 83.26 230.434 82.7722C230.434 82.2844 230.039 81.8889 229.551 81.8889C229.063 81.8889 228.667 82.2844 228.667 82.7722C228.667 83.26 229.063 83.6554 229.551 83.6554Z" fill="white" fill-opacity="0.51"/>
<path d="M240.591 83.6554C241.079 83.6554 241.474 83.26 241.474 82.7722C241.474 82.2844 241.079 81.8889 240.591 81.8889C240.103 81.8889 239.708 82.2844 239.708 82.7722C239.708 83.26 240.103 83.6554 240.591 83.6554Z" fill="white" fill-opacity="0.51"/>
<path d="M251.632 83.6554C252.12 83.6554 252.515 83.26 252.515 82.7722C252.515 82.2844 252.12 81.8889 251.632 81.8889C251.144 81.8889 250.749 82.2844 250.749 82.7722C250.749 83.26 251.144 83.6554 251.632 83.6554Z" fill="white" fill-opacity="0.51"/>
<path d="M262.672 83.6554C263.16 83.6554 263.555 83.26 263.555 82.7722C263.555 82.2844 263.16 81.8889 262.672 81.8889C262.184 81.8889 261.789 82.2844 261.789 82.7722C261.789 83.26 262.184 83.6554 262.672 83.6554Z" fill="white" fill-opacity="0.51"/>
<path d="M273.713 83.6554C274.201 83.6554 274.596 83.26 274.596 82.7722C274.596 82.2844 274.201 81.8889 273.713 81.8889C273.225 81.8889 272.83 82.2844 272.83 82.7722C272.83 83.26 273.225 83.6554 273.713 83.6554Z" fill="white" fill-opacity="0.51"/>
<path d="M284.753 83.6554C285.241 83.6554 285.637 83.26 285.637 82.7722C285.637 82.2844 285.241 81.8889 284.753 81.8889C284.266 81.8889 283.87 82.2844 283.87 82.7722C283.87 83.26 284.266 83.6554 284.753 83.6554Z" fill="white" fill-opacity="0.51"/>
<path d="M295.794 83.6554C296.282 83.6554 296.677 83.26 296.677 82.7722C296.677 82.2844 296.282 81.8889 295.794 81.8889C295.306 81.8889 294.911 82.2844 294.911 82.7722C294.911 83.26 295.306 83.6554 295.794 83.6554Z" fill="white" fill-opacity="0.51"/>
<path d="M306.835 83.6554C307.323 83.6554 307.719 83.26 307.719 82.7722C307.719 82.2844 307.323 81.8889 306.835 81.8889C306.348 81.8889 305.952 82.2844 305.952 82.7722C305.952 83.26 306.348 83.6554 306.835 83.6554Z" fill="white" fill-opacity="0.51"/>
<path d="M317.875 83.6554C318.363 83.6554 318.759 83.26 318.759 82.7722C318.759 82.2844 318.363 81.8889 317.875 81.8889C317.388 81.8889 316.992 82.2844 316.992 82.7722C316.992 83.26 317.388 83.6554 317.875 83.6554Z" fill="white" fill-opacity="0.51"/>
<path d="M328.916 83.6554C329.404 83.6554 329.799 83.26 329.799 82.7722C329.799 82.2844 329.404 81.8889 328.916 81.8889C328.428 81.8889 328.033 82.2844 328.033 82.7722C328.033 83.26 328.428 83.6554 328.916 83.6554Z" fill="white" fill-opacity="0.51"/>
<path d="M339.957 83.6554C340.445 83.6554 340.84 83.26 340.84 82.7722C340.84 82.2844 340.445 81.8889 339.957 81.8889C339.469 81.8889 339.074 82.2844 339.074 82.7722C339.074 83.26 339.469 83.6554 339.957 83.6554Z" fill="white" fill-opacity="0.51"/>
</g>
</svg>
