<svg width="186" height="186" viewBox="0 0 186 186" fill="none" xmlns="http://www.w3.org/2000/svg">
<g id="Group 1000011752">
<g id="Group 1000011751">
<g id="Group 1000011732">
<g id="Group 1000011733">
<rect id="Rectangle 11362" x="1" y="1" width="184" height="184" rx="92" fill="url(#paint0_linear_2513_31758)" stroke="white" stroke-width="2"/>
</g>
</g>
</g>
<g id="Group 1000011758">
<g id="Group">
<path id="Vector" d="M111.135 127.976C111.829 120.771 108.852 112.876 102.795 106.032C102.654 105.873 102.513 105.714 102.37 105.557C99.917 102.873 96.9564 100.258 93.0528 97.3268C90.8965 95.7078 88.6472 94.1342 86.4718 92.6125C84.9488 91.5469 83.374 90.4454 81.8496 89.3409C75.3662 84.6434 68.2427 78.7461 64.566 70.6241C61.5127 63.8796 61.1683 56.0051 63.6212 49.0199C65.9315 42.4404 70.672 36.7967 76.7297 33.3594C76.5815 34.3329 76.5608 35.3286 76.6676 36.3377L76.5081 36.2661L76.8472 37.5074C77.0067 38.2999 77.2454 39.1087 77.5566 39.912C78.7842 43.0793 81.2173 46.4043 84.7883 49.7943C88.6452 53.456 94.0214 57.5524 98.7646 61.1665C100.091 62.1776 101.344 63.1322 102.496 64.0256C108.576 68.7429 113.145 72.4079 116.586 76.6235C120.341 81.225 122.418 86.2177 123.121 92.336C123.126 92.3743 123.145 92.5203 123.149 92.5561C123.613 96.8102 123.425 101.167 122.591 105.504C120.96 113.98 116.916 121.892 111.135 127.976Z" fill="url(#paint1_linear_2513_31758)"/>
<g id="Group_2">
<path id="Vector_2" d="M111.54 96.0886C90.467 75.732 80.6634 47.8799 78.1197 39.6936C77.824 38.9306 77.5923 38.1549 77.4355 37.3694C77.4307 37.3519 77.4278 37.3405 77.4278 37.3405C77.4278 37.3405 77.4296 37.3415 77.4304 37.3418C77.0997 35.6666 77.1109 33.9473 77.5917 32.2107C77.5917 32.2107 55.4288 56.1919 92.7015 97.815C92.7015 97.815 92.6954 97.8121 92.6903 97.8097C95.9879 100.286 99.1429 102.921 101.924 105.964C102.065 106.119 102.204 106.275 102.343 106.432C103.866 101.665 107.267 98.3605 111.54 96.0886Z" fill="url(#paint2_linear_2513_31758)"/>
<path id="Vector_3" d="M102.866 63.5488C97.6172 59.4764 90.1168 54.0207 85.204 49.3566C82.3132 46.6121 79.5145 43.293 78.1196 39.6941C80.6633 47.8803 90.4669 75.7325 111.54 96.0891C115.176 94.1564 119.442 92.9702 123.721 92.2675C122.178 78.8478 114.435 72.5254 102.866 63.5488Z" fill="url(#paint3_linear_2513_31758)"/>
<path id="Vector_4" d="M77.5916 32.2104C70.8706 35.6272 65.5493 41.7059 63.0514 48.8196C60.5534 55.9335 60.9065 64.0044 64.0157 70.8731C67.6018 78.7946 74.4539 84.7278 81.4953 89.8296C85.1983 92.5127 89.0324 95.0628 92.6902 97.8095C92.6953 97.8119 92.7014 97.8148 92.7014 97.8148C55.4287 56.1916 77.5916 32.2104 77.5916 32.2104Z" fill="url(#paint4_linear_2513_31758)"/>
<path id="Vector_5" d="M110.284 129.691C116.944 123.265 121.438 114.698 123.184 105.618C118.97 102.742 115.095 99.5219 111.541 96.0886C107.267 98.3607 103.866 101.666 102.343 106.432C107.982 112.805 111.845 121.35 110.284 129.691Z" fill="url(#paint5_linear_2513_31758)"/>
<path id="Vector_6" d="M123.184 105.618C124.014 101.3 124.227 96.866 123.749 92.4907C123.741 92.4149 123.73 92.3424 123.721 92.2671C119.442 92.9699 115.176 94.156 111.541 96.0887C115.095 99.5218 118.969 102.741 123.184 105.618Z" fill="url(#paint6_linear_2513_31758)"/>
</g>
<g id="Group_3">
<path id="Vector_7" d="M91.6551 101.244C83.1416 94.9638 75.0455 91.1157 66.095 80.1404C64.5123 85.1254 63.7805 90.4717 63.9854 95.7396C70.178 94.1638 80.6834 93.4225 91.6551 101.244Z" fill="url(#paint7_linear_2513_31758)"/>
<path id="Vector_8" d="M95.2405 149.417C95.1186 150.602 94.8131 151.758 94.2495 152.858C98.8609 147.228 103.033 141.058 105.087 134.077C107.141 127.095 106.854 119.165 102.994 112.995C102.038 111.467 100.894 109.964 99.6366 108.523C98.9725 107.772 98.3066 107.059 97.64 106.383C97.5554 106.298 97.472 106.211 97.3869 106.127C97.3793 106.119 97.3716 106.112 97.3641 106.104C95.6954 104.452 93.9159 102.93 92.1542 101.613C91.9875 101.488 91.8213 101.366 91.655 101.244C80.6832 93.4227 70.178 94.1638 63.9854 95.7396V95.74C96.054 122.012 96.6343 141.784 95.2405 149.417Z" fill="url(#paint8_linear_2513_31758)"/>
<path id="Vector_9" d="M63.9854 95.7397C63.9854 95.7397 78.1052 107.989 88.1369 131.363C88.1371 131.363 88.1373 131.364 88.1374 131.364C90.7969 133.927 92.8555 137.076 93.8798 140.546C94.7347 143.442 95.5387 146.52 95.2407 149.417C96.6345 141.784 96.0542 122.012 63.9854 95.7397Z" fill="url(#paint9_linear_2513_31758)"/>
<path id="Vector_10" d="M63.9854 95.7397C64.3415 104.894 67.529 113.811 74.0128 120.18C77.049 123.163 83.6382 127.506 86.896 130.245C87.3229 130.604 87.7367 130.978 88.1376 131.364C88.1374 131.364 88.1373 131.363 88.1371 131.363C78.1052 107.989 63.9854 95.7397 63.9854 95.7397Z" fill="url(#paint10_linear_2513_31758)"/>
</g>
</g>
</g>
</g>
<defs>
<linearGradient id="paint0_linear_2513_31758" x1="198.944" y1="6.40384" x2="71.9091" y2="151.097" gradientUnits="userSpaceOnUse">
<stop stop-color="#FFD824"/>
<stop offset="1" stop-color="#D95C07"/>
</linearGradient>
<linearGradient id="paint1_linear_2513_31758" x1="92.6984" y1="127.976" x2="92.6984" y2="33.3593" gradientUnits="userSpaceOnUse">
<stop stop-color="#00ABC5"/>
<stop offset="0.4388" stop-color="#00929E"/>
<stop offset="1" stop-color="#007B8D"/>
</linearGradient>
<linearGradient id="paint2_linear_2513_31758" x1="61.4017" y1="69.3213" x2="124.001" y2="69.3213" gradientUnits="userSpaceOnUse">
<stop stop-color="#007B8D"/>
<stop offset="0.5612" stop-color="#00929E"/>
<stop offset="1" stop-color="#00ABC5"/>
</linearGradient>
<linearGradient id="paint3_linear_2513_31758" x1="92.1293" y1="71.056" x2="108.944" y2="61.3482" gradientUnits="userSpaceOnUse">
<stop stop-color="#007B8D"/>
<stop offset="0.2004" stop-color="#008393"/>
<stop offset="0.4235" stop-color="#00929E"/>
<stop offset="1" stop-color="#00AAB5"/>
</linearGradient>
<linearGradient id="paint4_linear_2513_31758" x1="66.6223" y1="75.6843" x2="93.674" y2="60.066" gradientUnits="userSpaceOnUse">
<stop stop-color="#007B8D"/>
<stop offset="0.3929" stop-color="#00929E"/>
<stop offset="1" stop-color="#6AC9C8"/>
</linearGradient>
<linearGradient id="paint5_linear_2513_31758" x1="112.763" y1="129.691" x2="112.763" y2="96.0888" gradientUnits="userSpaceOnUse">
<stop stop-color="#B1DED3"/>
<stop offset="0.4388" stop-color="#00B3B5"/>
<stop offset="1" stop-color="#007B8D"/>
</linearGradient>
<linearGradient id="paint6_linear_2513_31758" x1="117.77" y1="105.618" x2="117.77" y2="92.267" gradientUnits="userSpaceOnUse">
<stop stop-color="#00ABC5"/>
<stop offset="0.4388" stop-color="#00929E"/>
<stop offset="1" stop-color="#007B8D"/>
</linearGradient>
<linearGradient id="paint7_linear_2513_31758" x1="63.9516" y1="90.6919" x2="91.6551" y2="90.6919" gradientUnits="userSpaceOnUse">
<stop stop-color="#FFCB05"/>
<stop offset="0.6071" stop-color="#F37021"/>
<stop offset="1" stop-color="#F04E23"/>
</linearGradient>
<linearGradient id="paint8_linear_2513_31758" x1="63.9851" y1="123.79" x2="106.349" y2="123.79" gradientUnits="userSpaceOnUse">
<stop stop-color="#F04E23"/>
<stop offset="0.3929" stop-color="#F37021"/>
<stop offset="1" stop-color="#FBB040"/>
</linearGradient>
<linearGradient id="paint9_linear_2513_31758" x1="63.9854" y1="122.578" x2="95.6373" y2="122.578" gradientUnits="userSpaceOnUse">
<stop stop-color="#F04E23"/>
<stop offset="0.3929" stop-color="#F37021"/>
<stop offset="1" stop-color="#FFD400"/>
</linearGradient>
<linearGradient id="paint10_linear_2513_31758" x1="76.0614" y1="131.364" x2="76.0614" y2="95.7397" gradientUnits="userSpaceOnUse">
<stop stop-color="#F04E23"/>
<stop offset="0.3929" stop-color="#F37021"/>
<stop offset="1" stop-color="#FBB040"/>
</linearGradient>
</defs>
</svg>
